%TF.GenerationSoftware,KiCad,Pcbnew,8.0.2-1*%
%TF.CreationDate,2025-01-26T22:20:59-08:00*%
%TF.ProjectId,Small_Pendant,536d616c-6c5f-4506-956e-64616e742e6b,rev?*%
%TF.SameCoordinates,Original*%
%TF.FileFunction,Copper,L4,Bot*%
%TF.FilePolarity,Positive*%
%FSLAX46Y46*%
G04 Gerber Fmt 4.6, Leading zero omitted, Abs format (unit mm)*
G04 Created by KiCad (PCBNEW 8.0.2-1) date 2025-01-26 22:20:59*
%MOMM*%
%LPD*%
G01*
G04 APERTURE LIST*
G04 Aperture macros list*
%AMRoundRect*
0 Rectangle with rounded corners*
0 $1 Rounding radius*
0 $2 $3 $4 $5 $6 $7 $8 $9 X,Y pos of 4 corners*
0 Add a 4 corners polygon primitive as box body*
4,1,4,$2,$3,$4,$5,$6,$7,$8,$9,$2,$3,0*
0 Add four circle primitives for the rounded corners*
1,1,$1+$1,$2,$3*
1,1,$1+$1,$4,$5*
1,1,$1+$1,$6,$7*
1,1,$1+$1,$8,$9*
0 Add four rect primitives between the rounded corners*
20,1,$1+$1,$2,$3,$4,$5,0*
20,1,$1+$1,$4,$5,$6,$7,0*
20,1,$1+$1,$6,$7,$8,$9,0*
20,1,$1+$1,$8,$9,$2,$3,0*%
G04 Aperture macros list end*
%TA.AperFunction,SMDPad,CuDef*%
%ADD10RoundRect,0.140000X-0.140000X-0.170000X0.140000X-0.170000X0.140000X0.170000X-0.140000X0.170000X0*%
%TD*%
%TA.AperFunction,SMDPad,CuDef*%
%ADD11R,1.000000X1.900000*%
%TD*%
%TA.AperFunction,SMDPad,CuDef*%
%ADD12RoundRect,0.140000X0.140000X0.170000X-0.140000X0.170000X-0.140000X-0.170000X0.140000X-0.170000X0*%
%TD*%
%TA.AperFunction,SMDPad,CuDef*%
%ADD13RoundRect,0.140000X0.170000X-0.140000X0.170000X0.140000X-0.170000X0.140000X-0.170000X-0.140000X0*%
%TD*%
%TA.AperFunction,ViaPad*%
%ADD14C,0.400000*%
%TD*%
%TA.AperFunction,ViaPad*%
%ADD15C,0.600000*%
%TD*%
%TA.AperFunction,Conductor*%
%ADD16C,0.250000*%
%TD*%
%TA.AperFunction,Conductor*%
%ADD17C,0.200000*%
%TD*%
%TA.AperFunction,Conductor*%
%ADD18C,0.100000*%
%TD*%
G04 APERTURE END LIST*
D10*
%TO.P,C18,1*%
%TO.N,+5V*%
X57020000Y-42500000D03*
%TO.P,C18,2*%
%TO.N,Earth*%
X57980000Y-42500000D03*
%TD*%
D11*
%TO.P,J1,1,Pin_1*%
%TO.N,Earth*%
X47460000Y-51650000D03*
%TO.P,J1,2,Pin_2*%
%TO.N,DATA_IN*%
X50000000Y-48350000D03*
%TO.P,J1,3,Pin_3*%
%TO.N,+5V*%
X52540000Y-51650000D03*
%TD*%
D10*
%TO.P,C17,1*%
%TO.N,+5V*%
X58520000Y-44000000D03*
%TO.P,C17,2*%
%TO.N,Earth*%
X59480000Y-44000000D03*
%TD*%
%TO.P,C4,1*%
%TO.N,+5V*%
X40520000Y-44000000D03*
%TO.P,C4,2*%
%TO.N,Earth*%
X41480000Y-44000000D03*
%TD*%
D12*
%TO.P,C1,1*%
%TO.N,+5V*%
X47480000Y-39500000D03*
%TO.P,C1,2*%
%TO.N,Earth*%
X46520000Y-39500000D03*
%TD*%
D13*
%TO.P,C5,1*%
%TO.N,+5V*%
X39500000Y-47480000D03*
%TO.P,C5,2*%
%TO.N,Earth*%
X39500000Y-46520000D03*
%TD*%
D12*
%TO.P,C3,1*%
%TO.N,+5V*%
X42980000Y-42500000D03*
%TO.P,C3,2*%
%TO.N,Earth*%
X42020000Y-42500000D03*
%TD*%
D10*
%TO.P,C8,1*%
%TO.N,+5V*%
X42020000Y-57500000D03*
%TO.P,C8,2*%
%TO.N,Earth*%
X42980000Y-57500000D03*
%TD*%
%TO.P,C14,1*%
%TO.N,+5V*%
X58520000Y-56000000D03*
%TO.P,C14,2*%
%TO.N,Earth*%
X59480000Y-56000000D03*
%TD*%
%TO.P,C12,1*%
%TO.N,+5V*%
X55520000Y-59000000D03*
%TO.P,C12,2*%
%TO.N,Earth*%
X56480000Y-59000000D03*
%TD*%
D12*
%TO.P,C11,1*%
%TO.N,+5V*%
X53480000Y-60500000D03*
%TO.P,C11,2*%
%TO.N,Earth*%
X52520000Y-60500000D03*
%TD*%
D13*
%TO.P,C16,1*%
%TO.N,+5V*%
X60500000Y-47480000D03*
%TO.P,C16,2*%
%TO.N,Earth*%
X60500000Y-46520000D03*
%TD*%
D10*
%TO.P,C20,1*%
%TO.N,+5V*%
X52520000Y-39500000D03*
%TO.P,C20,2*%
%TO.N,Earth*%
X53480000Y-39500000D03*
%TD*%
D12*
%TO.P,C9,1*%
%TO.N,+5V*%
X44480000Y-59000000D03*
%TO.P,C9,2*%
%TO.N,Earth*%
X43520000Y-59000000D03*
%TD*%
D10*
%TO.P,C2,1*%
%TO.N,+5V*%
X43520000Y-41000000D03*
%TO.P,C2,2*%
%TO.N,Earth*%
X44480000Y-41000000D03*
%TD*%
D12*
%TO.P,C13,1*%
%TO.N,+5V*%
X57980000Y-57500000D03*
%TO.P,C13,2*%
%TO.N,Earth*%
X57020000Y-57500000D03*
%TD*%
D13*
%TO.P,C15,1*%
%TO.N,+5V*%
X60500000Y-53480000D03*
%TO.P,C15,2*%
%TO.N,Earth*%
X60500000Y-52520000D03*
%TD*%
D10*
%TO.P,C10,1*%
%TO.N,+5V*%
X46520000Y-60500000D03*
%TO.P,C10,2*%
%TO.N,Earth*%
X47480000Y-60500000D03*
%TD*%
D12*
%TO.P,C7,1*%
%TO.N,+5V*%
X41480000Y-56000000D03*
%TO.P,C7,2*%
%TO.N,Earth*%
X40520000Y-56000000D03*
%TD*%
%TO.P,C19,1*%
%TO.N,+5V*%
X56480000Y-41000000D03*
%TO.P,C19,2*%
%TO.N,Earth*%
X55520000Y-41000000D03*
%TD*%
D13*
%TO.P,C6,1*%
%TO.N,+5V*%
X39500000Y-53480000D03*
%TO.P,C6,2*%
%TO.N,Earth*%
X39500000Y-52520000D03*
%TD*%
D14*
%TO.N,+5V*%
X38600000Y-47600000D03*
X40750000Y-57000000D03*
X54000000Y-60000000D03*
X57500000Y-41500000D03*
X58500000Y-57000000D03*
X44250000Y-60000000D03*
X45750000Y-60000000D03*
X61500000Y-47750000D03*
X48500000Y-38500000D03*
X40000000Y-44500000D03*
X38500000Y-50500000D03*
X60000000Y-54000000D03*
X51500000Y-38500000D03*
X43000000Y-41500000D03*
X39250000Y-54000000D03*
D15*
X52540000Y-54000000D03*
D14*
%TO.N,DATA_IN*%
X50000000Y-46000000D03*
%TO.N,Earth*%
X54000000Y-40000000D03*
X59250000Y-43000000D03*
X60000000Y-55500000D03*
X60500000Y-46000000D03*
X50000000Y-61500000D03*
X55250000Y-40000000D03*
X42500000Y-58400000D03*
X46000000Y-40000000D03*
X48500000Y-61500000D03*
X38500000Y-52250000D03*
X57000000Y-58500000D03*
X39750000Y-55500000D03*
X41500000Y-43000000D03*
X51750000Y-61500000D03*
X40000000Y-46000000D03*
X61500000Y-49500000D03*
X61400000Y-52400000D03*
D15*
X47460000Y-54000000D03*
%TD*%
D16*
%TO.N,+5V*%
X52540000Y-54000000D02*
X52540000Y-51650000D01*
D17*
X39250000Y-54000000D02*
X39404540Y-53845459D01*
X61365000Y-47615000D02*
X61500000Y-47750000D01*
X61039081Y-47480000D02*
X60500000Y-47480000D01*
X40000000Y-44500000D02*
X40492928Y-44007071D01*
X38804852Y-47480000D02*
X39500000Y-47480000D01*
X38660000Y-47540000D02*
X38600000Y-47600000D01*
X60000000Y-54000000D02*
X60492928Y-53507071D01*
X61365000Y-47615000D02*
G75*
G03*
X61039081Y-47480008I-325900J-325900D01*
G01*
X38660000Y-47540000D02*
G75*
G02*
X38804852Y-47480022I144800J-144800D01*
G01*
X39404540Y-53845459D02*
G75*
G03*
X39500005Y-53615000I-230440J230459D01*
G01*
D18*
%TO.N,DATA_IN*%
X50000000Y-46000000D02*
X50000000Y-48350000D01*
D17*
%TO.N,Earth*%
X40176776Y-56000000D02*
X40520000Y-56000000D01*
X39992928Y-46027071D02*
X39500000Y-46520000D01*
D16*
X47460000Y-54000000D02*
X47460000Y-51650000D01*
D17*
X39875000Y-55875000D02*
X39838388Y-55838388D01*
X38960918Y-52520000D02*
X39500000Y-52520000D01*
X60500000Y-46000000D02*
X60500000Y-46520000D01*
X61400000Y-52400000D02*
X60704852Y-52400000D01*
X60000000Y-55500000D02*
X59507071Y-55992928D01*
X40000000Y-46000000D02*
X40000000Y-46010000D01*
X38635000Y-52385000D02*
X38500000Y-52250000D01*
X39750000Y-55500000D02*
X39750000Y-55625000D01*
X39875000Y-55875000D02*
G75*
G03*
X40176776Y-56000010I301800J301800D01*
G01*
X38635000Y-52385000D02*
G75*
G03*
X38960918Y-52519992I325900J325900D01*
G01*
X39992928Y-46027071D02*
G75*
G03*
X40000012Y-46010000I-17028J17071D01*
G01*
X39750000Y-55625000D02*
G75*
G03*
X39838383Y-55838393I301800J0D01*
G01*
%TD*%
%TA.AperFunction,Conductor*%
%TO.N,+5V*%
G36*
X40250038Y-43884564D02*
G01*
X40515390Y-43997039D01*
X40521669Y-44003422D01*
X40522151Y-44004885D01*
X40598408Y-44300231D01*
X40597159Y-44309098D01*
X40591640Y-44313931D01*
X40140958Y-44504650D01*
X40132003Y-44504718D01*
X40128125Y-44502148D01*
X39998289Y-44372312D01*
X39994862Y-44364039D01*
X39996136Y-44358730D01*
X40235048Y-43890022D01*
X40241858Y-43884208D01*
X40250038Y-43884564D01*
G37*
%TD.AperFunction*%
%TD*%
%TA.AperFunction,Conductor*%
%TO.N,Earth*%
G36*
X60675411Y-46072607D02*
G01*
X60681713Y-46078967D01*
X60682201Y-46086361D01*
X60602289Y-46391266D01*
X60596876Y-46398400D01*
X60590971Y-46400000D01*
X60409029Y-46400000D01*
X60400756Y-46396573D01*
X60397711Y-46391266D01*
X60389856Y-46361298D01*
X60317798Y-46086359D01*
X60319016Y-46077490D01*
X60324586Y-46072608D01*
X60495474Y-46000898D01*
X60504428Y-46000858D01*
X60675411Y-46072607D01*
G37*
%TD.AperFunction*%
%TD*%
%TA.AperFunction,Conductor*%
%TO.N,Earth*%
G36*
X54265677Y-39019685D02*
G01*
X54286319Y-39036319D01*
X55794589Y-40544589D01*
X55828074Y-40605912D01*
X55823510Y-40669723D01*
X55824725Y-40670080D01*
X55803326Y-40742956D01*
X55803324Y-40742963D01*
X55794999Y-40800864D01*
X55794999Y-41199147D01*
X55796177Y-41221132D01*
X55799010Y-41247466D01*
X55799010Y-41247468D01*
X55799011Y-41247471D01*
X55822970Y-41323981D01*
X55822971Y-41323983D01*
X55824791Y-41329794D01*
X55822304Y-41330572D01*
X55829070Y-41388738D01*
X55798339Y-41451487D01*
X55794540Y-41455459D01*
X55786324Y-41463676D01*
X55725002Y-41497165D01*
X55698637Y-41500000D01*
X54801362Y-41500000D01*
X54734323Y-41480315D01*
X54713681Y-41463681D01*
X53036818Y-39786818D01*
X53003333Y-39725495D01*
X53000499Y-39699146D01*
X53000499Y-39300861D01*
X53020184Y-39233823D01*
X53036813Y-39213186D01*
X53213681Y-39036319D01*
X53275004Y-39002834D01*
X53301362Y-39000000D01*
X54198638Y-39000000D01*
X54265677Y-39019685D01*
G37*
%TD.AperFunction*%
%TD*%
%TA.AperFunction,Conductor*%
%TO.N,Earth*%
G36*
X42237539Y-42019685D02*
G01*
X42283294Y-42072489D01*
X42294500Y-42124000D01*
X42294500Y-42278402D01*
X42294611Y-42285211D01*
X42294909Y-42294287D01*
X42294887Y-42294287D01*
X42294999Y-42298822D01*
X42294999Y-42699147D01*
X42296177Y-42721132D01*
X42299010Y-42747466D01*
X42299010Y-42747468D01*
X42322971Y-42823983D01*
X42356457Y-42885307D01*
X42391497Y-42932114D01*
X42391501Y-42932118D01*
X42391508Y-42932128D01*
X42391515Y-42932135D01*
X42463681Y-43004301D01*
X42497166Y-43065624D01*
X42500000Y-43091982D01*
X42500000Y-43698638D01*
X42480315Y-43765677D01*
X42463681Y-43786319D01*
X41786319Y-44463681D01*
X41724996Y-44497166D01*
X41698638Y-44500000D01*
X41301362Y-44500000D01*
X41234323Y-44480315D01*
X41213681Y-44463681D01*
X41036818Y-44286818D01*
X41003333Y-44225495D01*
X41000499Y-44199146D01*
X41000499Y-43790100D01*
X41000499Y-43790098D01*
X41000266Y-43786545D01*
X41000000Y-43778432D01*
X41000000Y-43551362D01*
X41019685Y-43484323D01*
X41036319Y-43463681D01*
X41250000Y-43250000D01*
X41250000Y-42551362D01*
X41269685Y-42484323D01*
X41286319Y-42463681D01*
X41713681Y-42036319D01*
X41775004Y-42002834D01*
X41801362Y-42000000D01*
X42170500Y-42000000D01*
X42237539Y-42019685D01*
G37*
%TD.AperFunction*%
%TD*%
%TA.AperFunction,Conductor*%
%TO.N,Earth*%
G36*
X39825040Y-45927476D02*
G01*
X39996162Y-45997435D01*
X40002523Y-46003738D01*
X40002564Y-46003837D01*
X40072844Y-46175743D01*
X40072803Y-46184698D01*
X40068314Y-46190030D01*
X39807781Y-46356500D01*
X39798964Y-46358067D01*
X39793208Y-46354914D01*
X39664541Y-46226247D01*
X39661114Y-46217974D01*
X39662469Y-46212510D01*
X39810269Y-45932837D01*
X39817163Y-45927126D01*
X39825040Y-45927476D01*
G37*
%TD.AperFunction*%
%TD*%
%TA.AperFunction,Conductor*%
%TO.N,DATA_IN*%
G36*
X50004459Y-46000871D02*
G01*
X50167543Y-46069305D01*
X50174014Y-46072021D01*
X50180317Y-46078383D01*
X50180287Y-46087310D01*
X50053000Y-46392800D01*
X50046655Y-46399119D01*
X50042200Y-46400000D01*
X49957800Y-46400000D01*
X49949527Y-46396573D01*
X49947000Y-46392800D01*
X49819711Y-46087308D01*
X49819693Y-46078355D01*
X49825984Y-46072021D01*
X49995474Y-46000898D01*
X50004427Y-46000858D01*
X50004459Y-46000871D01*
G37*
%TD.AperFunction*%
%TD*%
%TA.AperFunction,Conductor*%
%TO.N,+5V*%
G36*
X39506194Y-53487676D02*
G01*
X39598132Y-53628138D01*
X39677133Y-53748833D01*
X39678797Y-53757632D01*
X39674935Y-53764144D01*
X39359826Y-54032807D01*
X39351307Y-54035567D01*
X39343963Y-54032177D01*
X39213261Y-53901476D01*
X39209867Y-53894052D01*
X39190589Y-53628135D01*
X39193408Y-53619639D01*
X39197428Y-53616636D01*
X39491580Y-53483425D01*
X39500528Y-53483135D01*
X39506194Y-53487676D01*
G37*
%TD.AperFunction*%
%TD*%
%TA.AperFunction,Conductor*%
%TO.N,Earth*%
G36*
X57265677Y-57019685D02*
G01*
X57286319Y-57036319D01*
X57294589Y-57044589D01*
X57328074Y-57105912D01*
X57323510Y-57169723D01*
X57324725Y-57170080D01*
X57303326Y-57242956D01*
X57303324Y-57242963D01*
X57294999Y-57300864D01*
X57294999Y-57699147D01*
X57296177Y-57721132D01*
X57299010Y-57747466D01*
X57299010Y-57747468D01*
X57322971Y-57823983D01*
X57356457Y-57885307D01*
X57391497Y-57932114D01*
X57391501Y-57932118D01*
X57391508Y-57932128D01*
X57391515Y-57932135D01*
X57463681Y-58004301D01*
X57497166Y-58065624D01*
X57500000Y-58091982D01*
X57500000Y-58448638D01*
X57480315Y-58515677D01*
X57463681Y-58536319D01*
X57000000Y-58999999D01*
X57000000Y-59198638D01*
X56980315Y-59265677D01*
X56963681Y-59286319D01*
X56786319Y-59463681D01*
X56724996Y-59497166D01*
X56698638Y-59500000D01*
X56301362Y-59500000D01*
X56234323Y-59480315D01*
X56213681Y-59463681D01*
X56205409Y-59455409D01*
X56171924Y-59394086D01*
X56176487Y-59330275D01*
X56175274Y-59329919D01*
X56196673Y-59257042D01*
X56196673Y-59257041D01*
X56196675Y-59257035D01*
X56205000Y-59199137D01*
X56205000Y-58800862D01*
X56203822Y-58778893D01*
X56200988Y-58752535D01*
X56177029Y-58676018D01*
X56177028Y-58676017D01*
X56175209Y-58670206D01*
X56177700Y-58669425D01*
X56170923Y-58611294D01*
X56201636Y-58548536D01*
X56205398Y-58544601D01*
X56500000Y-58250000D01*
X56500000Y-57301362D01*
X56519685Y-57234323D01*
X56536319Y-57213681D01*
X56713681Y-57036319D01*
X56775004Y-57002834D01*
X56801362Y-57000000D01*
X57198638Y-57000000D01*
X57265677Y-57019685D01*
G37*
%TD.AperFunction*%
%TD*%
%TA.AperFunction,Conductor*%
%TO.N,Earth*%
G36*
X47465445Y-51663786D02*
G01*
X47470356Y-51668697D01*
X47956557Y-52593452D01*
X47957374Y-52602370D01*
X47955561Y-52605917D01*
X47588510Y-53095320D01*
X47580805Y-53099882D01*
X47579150Y-53100000D01*
X47340850Y-53100000D01*
X47332577Y-53096573D01*
X47331490Y-53095320D01*
X46964438Y-52605917D01*
X46962216Y-52597242D01*
X46963440Y-52593455D01*
X47449644Y-51668696D01*
X47456527Y-51662969D01*
X47465445Y-51663786D01*
G37*
%TD.AperFunction*%
%TD*%
%TA.AperFunction,Conductor*%
%TO.N,Earth*%
G36*
X38647938Y-52118593D02*
G01*
X38649325Y-52120282D01*
X38833993Y-52393722D01*
X38835783Y-52402496D01*
X38835598Y-52403298D01*
X38788729Y-52578235D01*
X38783278Y-52585339D01*
X38774400Y-52586508D01*
X38772781Y-52585945D01*
X38433980Y-52439327D01*
X38427749Y-52432896D01*
X38427795Y-52424166D01*
X38498135Y-52251944D01*
X38500723Y-52248067D01*
X38631393Y-52118520D01*
X38639679Y-52115130D01*
X38647938Y-52118593D01*
G37*
%TD.AperFunction*%
%TD*%
%TA.AperFunction,Conductor*%
%TO.N,Earth*%
G36*
X52765677Y-60019685D02*
G01*
X52786319Y-60036319D01*
X52794589Y-60044589D01*
X52828074Y-60105912D01*
X52823510Y-60169723D01*
X52824725Y-60170080D01*
X52823009Y-60175925D01*
X52803324Y-60242963D01*
X52796547Y-60290099D01*
X52794999Y-60300862D01*
X52794999Y-60699147D01*
X52796177Y-60721132D01*
X52799010Y-60747466D01*
X52799010Y-60747468D01*
X52799011Y-60747471D01*
X52822970Y-60823981D01*
X52822971Y-60823983D01*
X52824791Y-60829794D01*
X52822304Y-60830572D01*
X52829070Y-60888738D01*
X52798339Y-60951487D01*
X52794534Y-60955464D01*
X52036319Y-61713681D01*
X51974996Y-61747166D01*
X51948638Y-61750000D01*
X48051362Y-61750000D01*
X47984323Y-61730315D01*
X47963681Y-61713681D01*
X47036818Y-60786818D01*
X47003333Y-60725495D01*
X47000499Y-60699146D01*
X47000499Y-60300861D01*
X47020184Y-60233823D01*
X47036813Y-60213186D01*
X47213681Y-60036319D01*
X47275004Y-60002834D01*
X47301362Y-60000000D01*
X52698638Y-60000000D01*
X52765677Y-60019685D01*
G37*
%TD.AperFunction*%
%TD*%
%TA.AperFunction,Conductor*%
%TO.N,+5V*%
G36*
X60495115Y-53477849D02*
G01*
X60502268Y-53483234D01*
X60502961Y-53484610D01*
X60615435Y-53749961D01*
X60615509Y-53758915D01*
X60609976Y-53764951D01*
X60141273Y-54003861D01*
X60132346Y-54004565D01*
X60127687Y-54001710D01*
X59997850Y-53871874D01*
X59994423Y-53863601D01*
X59995346Y-53859046D01*
X60186069Y-53408357D01*
X60192448Y-53402076D01*
X60199768Y-53401591D01*
X60495115Y-53477849D01*
G37*
%TD.AperFunction*%
%TD*%
%TA.AperFunction,Conductor*%
%TO.N,Earth*%
G36*
X43265677Y-57019685D02*
G01*
X43286319Y-57036319D01*
X43463681Y-57213681D01*
X43497166Y-57275004D01*
X43500000Y-57301362D01*
X43500000Y-58250000D01*
X43794588Y-58544588D01*
X43828073Y-58605911D01*
X43823509Y-58669726D01*
X43824723Y-58670083D01*
X43803324Y-58742960D01*
X43803321Y-58742972D01*
X43794999Y-58800861D01*
X43794999Y-59201205D01*
X43794887Y-59205794D01*
X43794907Y-59205795D01*
X43794608Y-59214915D01*
X43794500Y-59221564D01*
X43794500Y-59376000D01*
X43774815Y-59443039D01*
X43722011Y-59488794D01*
X43670500Y-59500000D01*
X43301362Y-59500000D01*
X43234323Y-59480315D01*
X43213681Y-59463681D01*
X43036319Y-59286319D01*
X43002834Y-59224996D01*
X43000000Y-59198638D01*
X43000000Y-59000000D01*
X42750000Y-58750000D01*
X42551362Y-58750000D01*
X42484323Y-58730315D01*
X42463681Y-58713681D01*
X42286319Y-58536319D01*
X42252834Y-58474996D01*
X42250000Y-58448638D01*
X42250000Y-58311770D01*
X42269685Y-58244731D01*
X42287276Y-58223142D01*
X42292218Y-58218305D01*
X42334793Y-58176648D01*
X42362079Y-58156453D01*
X42384805Y-58144044D01*
X42431630Y-58108991D01*
X42608492Y-57932128D01*
X42623193Y-57915761D01*
X42639827Y-57895119D01*
X42676990Y-57824074D01*
X42696675Y-57757035D01*
X42705000Y-57699137D01*
X42705000Y-57300862D01*
X42703822Y-57278893D01*
X42700988Y-57252535D01*
X42677029Y-57176018D01*
X42677028Y-57176017D01*
X42675209Y-57170206D01*
X42677709Y-57169423D01*
X42670915Y-57111342D01*
X42701604Y-57048573D01*
X42705430Y-57044569D01*
X42713692Y-57036308D01*
X42775020Y-57002831D01*
X42801363Y-57000000D01*
X43198638Y-57000000D01*
X43265677Y-57019685D01*
G37*
%TD.AperFunction*%
%TD*%
%TA.AperFunction,Conductor*%
%TO.N,Earth*%
G36*
X46765677Y-39019685D02*
G01*
X46786319Y-39036319D01*
X46963181Y-39213181D01*
X46996666Y-39274504D01*
X46999500Y-39300862D01*
X46999500Y-39699137D01*
X46979815Y-39766176D01*
X46963181Y-39786818D01*
X45286319Y-41463681D01*
X45224996Y-41497166D01*
X45198638Y-41500000D01*
X44301362Y-41500000D01*
X44234323Y-41480315D01*
X44213681Y-41463681D01*
X44036818Y-41286818D01*
X44003333Y-41225495D01*
X44000499Y-41199146D01*
X44000499Y-40800861D01*
X44020184Y-40733823D01*
X44036813Y-40713186D01*
X45713681Y-39036319D01*
X45775004Y-39002834D01*
X45801362Y-39000000D01*
X46698638Y-39000000D01*
X46765677Y-39019685D01*
G37*
%TD.AperFunction*%
%TD*%
%TA.AperFunction,Conductor*%
%TO.N,DATA_IN*%
G36*
X50053062Y-46903427D02*
G01*
X50053486Y-46903873D01*
X50494548Y-47393942D01*
X50497535Y-47402384D01*
X50496207Y-47407214D01*
X50010356Y-48331302D01*
X50003473Y-48337030D01*
X49994555Y-48336213D01*
X49989644Y-48331302D01*
X49817345Y-48003590D01*
X49503791Y-47407212D01*
X49502975Y-47398296D01*
X49505448Y-47393945D01*
X49946514Y-46903872D01*
X49954596Y-46900016D01*
X49955211Y-46900000D01*
X50044789Y-46900000D01*
X50053062Y-46903427D01*
G37*
%TD.AperFunction*%
%TD*%
%TA.AperFunction,Conductor*%
%TO.N,+5V*%
G36*
X52545445Y-51663786D02*
G01*
X52550356Y-51668697D01*
X53036557Y-52593452D01*
X53037374Y-52602370D01*
X53035561Y-52605917D01*
X52668510Y-53095320D01*
X52660805Y-53099882D01*
X52659150Y-53100000D01*
X52420850Y-53100000D01*
X52412577Y-53096573D01*
X52411490Y-53095320D01*
X52044438Y-52605917D01*
X52042216Y-52597242D01*
X52043440Y-52593455D01*
X52529644Y-51668696D01*
X52536527Y-51662969D01*
X52545445Y-51663786D01*
G37*
%TD.AperFunction*%
%TD*%
%TA.AperFunction,Conductor*%
%TO.N,+5V*%
G36*
X60218514Y-53652830D02*
G01*
X60347168Y-53781485D01*
X60350595Y-53789758D01*
X60348995Y-53795663D01*
X60189902Y-54067768D01*
X60182768Y-54073181D01*
X60175374Y-54072693D01*
X60003837Y-54002564D01*
X59997476Y-53996261D01*
X59997435Y-53996162D01*
X59927306Y-53824625D01*
X59927347Y-53815670D01*
X59932229Y-53810098D01*
X60204339Y-53651002D01*
X60213207Y-53649785D01*
X60218514Y-53652830D01*
G37*
%TD.AperFunction*%
%TD*%
%TA.AperFunction,Conductor*%
%TO.N,+5V*%
G36*
X49067315Y-38269685D02*
G01*
X49099229Y-38299272D01*
X49103697Y-38305189D01*
X49109020Y-38312238D01*
X49273437Y-38462123D01*
X49273439Y-38462125D01*
X49462595Y-38579245D01*
X49462596Y-38579245D01*
X49462599Y-38579247D01*
X49670060Y-38659618D01*
X49888757Y-38700500D01*
X49888759Y-38700500D01*
X50111241Y-38700500D01*
X50111243Y-38700500D01*
X50329940Y-38659618D01*
X50537401Y-38579247D01*
X50726562Y-38462124D01*
X50890981Y-38312236D01*
X50900769Y-38299273D01*
X50956877Y-38257638D01*
X50999724Y-38250000D01*
X51948638Y-38250000D01*
X52015677Y-38269685D01*
X52036319Y-38286319D01*
X52794589Y-39044589D01*
X52828074Y-39105912D01*
X52823510Y-39169723D01*
X52824725Y-39170080D01*
X52806209Y-39233139D01*
X52803324Y-39242963D01*
X52798160Y-39278881D01*
X52794999Y-39300864D01*
X52794999Y-39699147D01*
X52796177Y-39721132D01*
X52799010Y-39747466D01*
X52799010Y-39747468D01*
X52799011Y-39747471D01*
X52822970Y-39823981D01*
X52822971Y-39823983D01*
X52824791Y-39829794D01*
X52822304Y-39830572D01*
X52829070Y-39888738D01*
X52798339Y-39951487D01*
X52794540Y-39955459D01*
X52786324Y-39963676D01*
X52725002Y-39997165D01*
X52698637Y-40000000D01*
X47301362Y-40000000D01*
X47234323Y-39980315D01*
X47213681Y-39963681D01*
X47205409Y-39955409D01*
X47171924Y-39894086D01*
X47176487Y-39830275D01*
X47175274Y-39829919D01*
X47196673Y-39757042D01*
X47196673Y-39757041D01*
X47196675Y-39757035D01*
X47205000Y-39699137D01*
X47205000Y-39300862D01*
X47203822Y-39278893D01*
X47200988Y-39252535D01*
X47177029Y-39176018D01*
X47177028Y-39176017D01*
X47175209Y-39170206D01*
X47177700Y-39169425D01*
X47170923Y-39111294D01*
X47201636Y-39048536D01*
X47205420Y-39044580D01*
X47963681Y-38286319D01*
X48025004Y-38252834D01*
X48051362Y-38250000D01*
X49000276Y-38250000D01*
X49067315Y-38269685D01*
G37*
%TD.AperFunction*%
%TD*%
%TA.AperFunction,Conductor*%
%TO.N,Earth*%
G36*
X39937789Y-55499956D02*
G01*
X39946048Y-55503412D01*
X39949446Y-55511697D01*
X39949433Y-55512199D01*
X39936512Y-55790355D01*
X39933098Y-55798085D01*
X39805180Y-55926003D01*
X39796907Y-55929430D01*
X39788634Y-55926003D01*
X39787045Y-55924025D01*
X39572698Y-55588245D01*
X39571135Y-55579428D01*
X39576265Y-55572088D01*
X39578025Y-55571164D01*
X39747104Y-55500211D01*
X39751668Y-55499301D01*
X39937789Y-55499956D01*
G37*
%TD.AperFunction*%
%TD*%
%TA.AperFunction,Conductor*%
%TO.N,+5V*%
G36*
X60731972Y-47215133D02*
G01*
X61034922Y-47376639D01*
X61040610Y-47383554D01*
X61041115Y-47387219D01*
X61037038Y-47573173D01*
X61033431Y-47581370D01*
X61030905Y-47583209D01*
X60731996Y-47744791D01*
X60723088Y-47745711D01*
X60717446Y-47741991D01*
X60505248Y-47487472D01*
X60502582Y-47478923D01*
X60505248Y-47472487D01*
X60579405Y-47383554D01*
X60717483Y-47217963D01*
X60725412Y-47213805D01*
X60731972Y-47215133D01*
G37*
%TD.AperFunction*%
%TD*%
%TA.AperFunction,Conductor*%
%TO.N,+5V*%
G36*
X39394533Y-53681543D02*
G01*
X39569786Y-53728504D01*
X39576891Y-53733955D01*
X39578059Y-53742833D01*
X39577507Y-53744425D01*
X39439312Y-54065981D01*
X39432897Y-54072229D01*
X39424139Y-54072192D01*
X39254279Y-54002818D01*
X39247916Y-53996518D01*
X39247880Y-53996432D01*
X39177215Y-53824361D01*
X39177242Y-53815406D01*
X39181841Y-53809993D01*
X39385351Y-53682929D01*
X39394180Y-53681455D01*
X39394533Y-53681543D01*
G37*
%TD.AperFunction*%
%TD*%
%TA.AperFunction,Conductor*%
%TO.N,+5V*%
G36*
X41765677Y-55519685D02*
G01*
X41786319Y-55536319D01*
X41963681Y-55713681D01*
X41997166Y-55775004D01*
X42000000Y-55801362D01*
X42000000Y-56750000D01*
X42463181Y-57213181D01*
X42496666Y-57274504D01*
X42499500Y-57300862D01*
X42499500Y-57699137D01*
X42479815Y-57766176D01*
X42463181Y-57786818D01*
X42286319Y-57963681D01*
X42224996Y-57997166D01*
X42198638Y-58000000D01*
X41551362Y-58000000D01*
X41484323Y-57980315D01*
X41463681Y-57963681D01*
X41000000Y-57500000D01*
X40801362Y-57500000D01*
X40734323Y-57480315D01*
X40713681Y-57463681D01*
X40536319Y-57286319D01*
X40502834Y-57224996D01*
X40500000Y-57198638D01*
X40500000Y-56801361D01*
X40519685Y-56734322D01*
X40536314Y-56713685D01*
X40727549Y-56522450D01*
X40762817Y-56497756D01*
X40858316Y-56453224D01*
X40943224Y-56368316D01*
X40987752Y-56272825D01*
X40994588Y-56263063D01*
X41000000Y-56250001D01*
X41000000Y-56221590D01*
X41000265Y-56213481D01*
X41000497Y-56209921D01*
X41000500Y-56209901D01*
X41000499Y-55800861D01*
X41020183Y-55733823D01*
X41036813Y-55713186D01*
X41213681Y-55536319D01*
X41275004Y-55502834D01*
X41301362Y-55500000D01*
X41698638Y-55500000D01*
X41765677Y-55519685D01*
G37*
%TD.AperFunction*%
%TD*%
%TA.AperFunction,Conductor*%
%TO.N,+5V*%
G36*
X57265677Y-40519685D02*
G01*
X57286319Y-40536319D01*
X57713681Y-40963681D01*
X57747166Y-41025004D01*
X57750000Y-41051362D01*
X57750000Y-41709205D01*
X57730315Y-41776244D01*
X57681373Y-41818652D01*
X57681864Y-41819551D01*
X57677732Y-41821806D01*
X57677511Y-41821999D01*
X57676835Y-41822296D01*
X57615200Y-41855952D01*
X57615192Y-41855957D01*
X57568378Y-41891001D01*
X57568360Y-41891017D01*
X57391516Y-42067861D01*
X57391469Y-42067911D01*
X57376811Y-42084229D01*
X57376803Y-42084239D01*
X57360166Y-42104886D01*
X57360165Y-42104888D01*
X57323008Y-42175926D01*
X57303326Y-42242956D01*
X57303324Y-42242963D01*
X57294999Y-42300864D01*
X57294999Y-42699147D01*
X57296177Y-42721132D01*
X57299010Y-42747466D01*
X57299010Y-42747468D01*
X57322971Y-42823983D01*
X57356457Y-42885307D01*
X57391497Y-42932114D01*
X57391501Y-42932118D01*
X57391508Y-42932128D01*
X57391515Y-42932135D01*
X57568365Y-43108986D01*
X57568366Y-43108987D01*
X57584716Y-43123674D01*
X57584730Y-43123686D01*
X57584738Y-43123693D01*
X57593136Y-43130460D01*
X57605379Y-43140327D01*
X57676424Y-43177490D01*
X57743456Y-43197173D01*
X57743458Y-43197173D01*
X57743464Y-43197175D01*
X57801362Y-43205500D01*
X58113518Y-43205500D01*
X58180557Y-43225185D01*
X58201199Y-43241819D01*
X58582234Y-43622854D01*
X58582242Y-43622861D01*
X58582251Y-43622869D01*
X58609661Y-43645869D01*
X58609673Y-43645879D01*
X58644949Y-43670580D01*
X58675971Y-43688491D01*
X58718815Y-43708470D01*
X58754090Y-43733170D01*
X58756828Y-43735908D01*
X58781526Y-43771178D01*
X58783378Y-43775149D01*
X58794999Y-43827560D01*
X58794999Y-44199147D01*
X58796177Y-44221132D01*
X58799010Y-44247466D01*
X58799010Y-44247468D01*
X58799011Y-44247471D01*
X58822970Y-44323981D01*
X58822971Y-44323983D01*
X58824791Y-44329794D01*
X58822304Y-44330572D01*
X58829070Y-44388738D01*
X58798339Y-44451487D01*
X58794540Y-44455459D01*
X58786324Y-44463676D01*
X58725002Y-44497165D01*
X58698637Y-44500000D01*
X58051362Y-44500000D01*
X57984323Y-44480315D01*
X57963681Y-44463681D01*
X56286319Y-42786319D01*
X56252834Y-42724996D01*
X56250000Y-42698638D01*
X56250000Y-41500000D01*
X56036818Y-41286818D01*
X56003333Y-41225495D01*
X56000499Y-41199146D01*
X56000499Y-40800861D01*
X56020184Y-40733823D01*
X56036813Y-40713186D01*
X56213681Y-40536319D01*
X56275004Y-40502834D01*
X56301362Y-40500000D01*
X57198638Y-40500000D01*
X57265677Y-40519685D01*
G37*
%TD.AperFunction*%
%TD*%
%TA.AperFunction,Conductor*%
%TO.N,Earth*%
G36*
X59871874Y-55497850D02*
G01*
X60001710Y-55627687D01*
X60005137Y-55635960D01*
X60003861Y-55641273D01*
X59764951Y-56109975D01*
X59758141Y-56115790D01*
X59749961Y-56115434D01*
X59556315Y-56033354D01*
X59484609Y-56002960D01*
X59478330Y-55996578D01*
X59477852Y-55995126D01*
X59401591Y-55699767D01*
X59402840Y-55690901D01*
X59408357Y-55686069D01*
X59859044Y-55495347D01*
X59867996Y-55495280D01*
X59871874Y-55497850D01*
G37*
%TD.AperFunction*%
%TD*%
%TA.AperFunction,Conductor*%
%TO.N,+5V*%
G36*
X55765677Y-58519685D02*
G01*
X55786319Y-58536319D01*
X55963181Y-58713181D01*
X55996666Y-58774504D01*
X55999500Y-58800862D01*
X55999500Y-59199137D01*
X55979815Y-59266176D01*
X55963181Y-59286818D01*
X55750000Y-59500000D01*
X54286319Y-60963681D01*
X54224996Y-60997166D01*
X54198638Y-61000000D01*
X53301362Y-61000000D01*
X53234323Y-60980315D01*
X53213681Y-60963681D01*
X53036818Y-60786818D01*
X53003333Y-60725495D01*
X53000499Y-60699146D01*
X53000499Y-60300861D01*
X53020184Y-60233823D01*
X53036813Y-60213186D01*
X53250000Y-60000000D01*
X54713681Y-58536319D01*
X54775004Y-58502834D01*
X54801362Y-58500000D01*
X55698638Y-58500000D01*
X55765677Y-58519685D01*
G37*
%TD.AperFunction*%
%TD*%
%TA.AperFunction,Conductor*%
%TO.N,+5V*%
G36*
X44765677Y-58519685D02*
G01*
X44786319Y-58536319D01*
X44963681Y-58713681D01*
X44997166Y-58775004D01*
X45000000Y-58801362D01*
X45000000Y-59250000D01*
X45500000Y-59750000D01*
X46448638Y-59750000D01*
X46515677Y-59769685D01*
X46536319Y-59786319D01*
X46794589Y-60044589D01*
X46828074Y-60105912D01*
X46823510Y-60169723D01*
X46824725Y-60170080D01*
X46803326Y-60242956D01*
X46803324Y-60242963D01*
X46794999Y-60300864D01*
X46794999Y-60699147D01*
X46796177Y-60721132D01*
X46799010Y-60747466D01*
X46799010Y-60747468D01*
X46799011Y-60747471D01*
X46822970Y-60823981D01*
X46822971Y-60823983D01*
X46824791Y-60829794D01*
X46822304Y-60830572D01*
X46829070Y-60888738D01*
X46798339Y-60951487D01*
X46794540Y-60955459D01*
X46786324Y-60963676D01*
X46725002Y-60997165D01*
X46698637Y-61000000D01*
X46250000Y-61000000D01*
X45322248Y-61000000D01*
X45270634Y-60988747D01*
X45232114Y-60971113D01*
X45196047Y-60946047D01*
X45000000Y-60750000D01*
X44776121Y-60750000D01*
X44724507Y-60738747D01*
X44713740Y-60733818D01*
X44707383Y-60730685D01*
X44242629Y-60484856D01*
X44212926Y-60462926D01*
X44036319Y-60286319D01*
X44002834Y-60224996D01*
X44000000Y-60198638D01*
X44000000Y-59221590D01*
X44000265Y-59213481D01*
X44000497Y-59209921D01*
X44000500Y-59209901D01*
X44000499Y-58800861D01*
X44020183Y-58733823D01*
X44036813Y-58713186D01*
X44213681Y-58536319D01*
X44275004Y-58502834D01*
X44301362Y-58500000D01*
X44698638Y-58500000D01*
X44765677Y-58519685D01*
G37*
%TD.AperFunction*%
%TD*%
%TA.AperFunction,Conductor*%
%TO.N,Earth*%
G36*
X58515677Y-42019685D02*
G01*
X58536319Y-42036319D01*
X59963681Y-43463681D01*
X59997166Y-43525004D01*
X60000000Y-43551362D01*
X60000000Y-44198638D01*
X59980315Y-44265677D01*
X59963681Y-44286319D01*
X59786319Y-44463681D01*
X59724996Y-44497166D01*
X59698638Y-44500000D01*
X59301362Y-44500000D01*
X59234323Y-44480315D01*
X59213681Y-44463681D01*
X59036818Y-44286818D01*
X59003333Y-44225495D01*
X59000499Y-44199146D01*
X59000499Y-43790100D01*
X59000499Y-43790098D01*
X59000266Y-43786545D01*
X59000000Y-43778432D01*
X59000000Y-43750000D01*
X58994591Y-43736944D01*
X58987754Y-43727179D01*
X58970844Y-43690916D01*
X58943224Y-43631684D01*
X58858316Y-43546776D01*
X58811626Y-43525004D01*
X58762820Y-43502245D01*
X58727544Y-43477544D01*
X58250000Y-43000000D01*
X57801362Y-43000000D01*
X57734323Y-42980315D01*
X57713681Y-42963681D01*
X57536818Y-42786818D01*
X57503333Y-42725495D01*
X57500499Y-42699146D01*
X57500499Y-42300861D01*
X57520184Y-42233823D01*
X57536813Y-42213186D01*
X57713681Y-42036319D01*
X57775004Y-42002834D01*
X57801362Y-42000000D01*
X58448638Y-42000000D01*
X58515677Y-42019685D01*
G37*
%TD.AperFunction*%
%TD*%
%TA.AperFunction,Conductor*%
%TO.N,Earth*%
G36*
X39884177Y-46006175D02*
G01*
X40013991Y-46135989D01*
X40017418Y-46144262D01*
X40016381Y-46149078D01*
X39814116Y-46596866D01*
X39807587Y-46602995D01*
X39800356Y-46603333D01*
X39504835Y-46522228D01*
X39497764Y-46516734D01*
X39497109Y-46515389D01*
X39388197Y-46250172D01*
X39388224Y-46241218D01*
X39393912Y-46235202D01*
X39870799Y-46003920D01*
X39879738Y-46003394D01*
X39884177Y-46006175D01*
G37*
%TD.AperFunction*%
%TD*%
%TA.AperFunction,Conductor*%
%TO.N,Earth*%
G36*
X39282553Y-52258008D02*
G01*
X39494751Y-52512527D01*
X39497417Y-52521076D01*
X39494751Y-52527512D01*
X39282517Y-52782035D01*
X39274587Y-52786194D01*
X39268027Y-52784866D01*
X38965076Y-52623360D01*
X38959388Y-52616445D01*
X38958883Y-52612784D01*
X38962960Y-52426823D01*
X38966567Y-52418629D01*
X38969088Y-52416793D01*
X39268005Y-52255207D01*
X39276911Y-52254288D01*
X39282553Y-52258008D01*
G37*
%TD.AperFunction*%
%TD*%
%TA.AperFunction,Conductor*%
%TO.N,Earth*%
G36*
X60601678Y-46003427D02*
G01*
X60603415Y-46005643D01*
X60774680Y-46288684D01*
X60776031Y-46297536D01*
X60771969Y-46303885D01*
X60507299Y-46515173D01*
X60498696Y-46517656D01*
X60492701Y-46515173D01*
X60228030Y-46303885D01*
X60223702Y-46296045D01*
X60225319Y-46288684D01*
X60396585Y-46005643D01*
X60403800Y-46000339D01*
X60406595Y-46000000D01*
X60593405Y-46000000D01*
X60601678Y-46003427D01*
G37*
%TD.AperFunction*%
%TD*%
%TA.AperFunction,Conductor*%
%TO.N,Earth*%
G36*
X61079955Y-52298565D02*
G01*
X61087660Y-52303127D01*
X61090000Y-52310147D01*
X61090000Y-52494346D01*
X61086573Y-52502619D01*
X61085570Y-52503513D01*
X60782701Y-52743716D01*
X60774090Y-52746172D01*
X60767952Y-52743547D01*
X60506777Y-52526464D01*
X60502605Y-52518540D01*
X60504270Y-52511369D01*
X60665986Y-52246571D01*
X60673221Y-52241298D01*
X60677623Y-52241089D01*
X61079955Y-52298565D01*
G37*
%TD.AperFunction*%
%TD*%
%TA.AperFunction,Conductor*%
%TO.N,+5V*%
G36*
X39282169Y-47217548D02*
G01*
X39401264Y-47360383D01*
X39494752Y-47472507D01*
X39497418Y-47481056D01*
X39494752Y-47487493D01*
X39282171Y-47742450D01*
X39274241Y-47746609D01*
X39268277Y-47745578D01*
X38916792Y-47583138D01*
X38910719Y-47576556D01*
X38910000Y-47572517D01*
X38910000Y-47387482D01*
X38913427Y-47379209D01*
X38916792Y-47376861D01*
X39268279Y-47214420D01*
X39277224Y-47214061D01*
X39282169Y-47217548D01*
G37*
%TD.AperFunction*%
%TD*%
%TA.AperFunction,Conductor*%
%TO.N,+5V*%
G36*
X61227212Y-47414052D02*
G01*
X61566019Y-47560672D01*
X61572250Y-47567103D01*
X61572203Y-47575834D01*
X61501866Y-47748051D01*
X61499272Y-47751936D01*
X61368607Y-47881478D01*
X61360320Y-47884869D01*
X61352061Y-47881406D01*
X61350677Y-47879721D01*
X61166006Y-47606277D01*
X61164216Y-47597503D01*
X61164401Y-47596701D01*
X61211270Y-47421764D01*
X61216721Y-47414660D01*
X61225599Y-47413491D01*
X61227212Y-47414052D01*
G37*
%TD.AperFunction*%
%TD*%
%TA.AperFunction,Conductor*%
%TO.N,Earth*%
G36*
X61322509Y-52219016D02*
G01*
X61327393Y-52224589D01*
X61399100Y-52395473D01*
X61399141Y-52404428D01*
X61399100Y-52404527D01*
X61327393Y-52575410D01*
X61321032Y-52581713D01*
X61313638Y-52582201D01*
X61008734Y-52502289D01*
X61001600Y-52496876D01*
X61000000Y-52490971D01*
X61000000Y-52309028D01*
X61003427Y-52300755D01*
X61008731Y-52297711D01*
X61313640Y-52217798D01*
X61322509Y-52219016D01*
G37*
%TD.AperFunction*%
%TD*%
%TA.AperFunction,Conductor*%
%TO.N,+5V*%
G36*
X43765677Y-40519685D02*
G01*
X43786319Y-40536319D01*
X43794589Y-40544589D01*
X43828074Y-40605912D01*
X43823510Y-40669723D01*
X43824725Y-40670080D01*
X43803326Y-40742956D01*
X43803324Y-40742963D01*
X43794999Y-40800864D01*
X43794999Y-41199147D01*
X43796177Y-41221132D01*
X43799010Y-41247466D01*
X43799010Y-41247468D01*
X43799011Y-41247471D01*
X43822970Y-41323981D01*
X43822971Y-41323983D01*
X43824791Y-41329794D01*
X43822304Y-41330572D01*
X43829070Y-41388738D01*
X43798339Y-41451487D01*
X43794535Y-41455464D01*
X43500000Y-41750000D01*
X43500000Y-42698638D01*
X43480315Y-42765677D01*
X43463681Y-42786319D01*
X43286319Y-42963681D01*
X43224996Y-42997166D01*
X43198638Y-43000000D01*
X42801362Y-43000000D01*
X42734323Y-42980315D01*
X42713681Y-42963681D01*
X42536818Y-42786818D01*
X42503333Y-42725495D01*
X42500499Y-42699146D01*
X42500499Y-42290100D01*
X42500499Y-42290098D01*
X42500266Y-42286545D01*
X42500000Y-42278432D01*
X42500000Y-41301362D01*
X42519685Y-41234323D01*
X42536319Y-41213681D01*
X43213681Y-40536319D01*
X43275004Y-40502834D01*
X43301362Y-40500000D01*
X43698638Y-40500000D01*
X43765677Y-40519685D01*
G37*
%TD.AperFunction*%
%TD*%
%TA.AperFunction,Conductor*%
%TO.N,+5V*%
G36*
X40218514Y-44152830D02*
G01*
X40347168Y-44281485D01*
X40350595Y-44289758D01*
X40348995Y-44295663D01*
X40189902Y-44567768D01*
X40182768Y-44573181D01*
X40175374Y-44572693D01*
X40003837Y-44502564D01*
X39997476Y-44496261D01*
X39997435Y-44496162D01*
X39927306Y-44324625D01*
X39927347Y-44315670D01*
X39932229Y-44310098D01*
X40204339Y-44151002D01*
X40213207Y-44149785D01*
X40218514Y-44152830D01*
G37*
%TD.AperFunction*%
%TD*%
%TA.AperFunction,Conductor*%
%TO.N,+5V*%
G36*
X52664680Y-53403427D02*
G01*
X52667571Y-53408199D01*
X52813970Y-53875012D01*
X52813176Y-53883931D01*
X52807317Y-53889309D01*
X52544511Y-53999115D01*
X52535556Y-53999142D01*
X52535489Y-53999115D01*
X52272682Y-53889309D01*
X52266370Y-53882957D01*
X52266029Y-53875013D01*
X52412429Y-53408199D01*
X52418175Y-53401330D01*
X52423593Y-53400000D01*
X52656407Y-53400000D01*
X52664680Y-53403427D01*
G37*
%TD.AperFunction*%
%TD*%
%TA.AperFunction,Conductor*%
%TO.N,Earth*%
G36*
X59824623Y-55427305D02*
G01*
X59956671Y-55481290D01*
X59996162Y-55497435D01*
X60002523Y-55503738D01*
X60002564Y-55503837D01*
X60072693Y-55675374D01*
X60072652Y-55684329D01*
X60067768Y-55689902D01*
X59795663Y-55848995D01*
X59786792Y-55850213D01*
X59781485Y-55847168D01*
X59652830Y-55718514D01*
X59649403Y-55710241D01*
X59651001Y-55704340D01*
X59810098Y-55432230D01*
X59817231Y-55426818D01*
X59824623Y-55427305D01*
G37*
%TD.AperFunction*%
%TD*%
%TA.AperFunction,Conductor*%
%TO.N,+5V*%
G36*
X38953881Y-47383650D02*
G01*
X38957764Y-47391719D01*
X38957782Y-47392372D01*
X38957782Y-47574131D01*
X38954355Y-47582404D01*
X38953078Y-47583509D01*
X38749504Y-47735390D01*
X38740824Y-47737590D01*
X38734264Y-47734314D01*
X38602480Y-47603456D01*
X38599024Y-47595195D01*
X38599944Y-47411006D01*
X38603412Y-47402753D01*
X38610989Y-47399385D01*
X38945430Y-47380690D01*
X38953881Y-47383650D01*
G37*
%TD.AperFunction*%
%TD*%
%TA.AperFunction,Conductor*%
%TO.N,Earth*%
G36*
X40287906Y-55738759D02*
G01*
X40513868Y-55992638D01*
X40516808Y-56001097D01*
X40513786Y-56008287D01*
X40285980Y-56258895D01*
X40277879Y-56262712D01*
X40270853Y-56260774D01*
X39971748Y-56062286D01*
X39966749Y-56054856D01*
X39968084Y-56046689D01*
X40061286Y-55885265D01*
X40064732Y-55881515D01*
X40272484Y-55736934D01*
X40281231Y-55735022D01*
X40287906Y-55738759D01*
G37*
%TD.AperFunction*%
%TD*%
%TA.AperFunction,Conductor*%
%TO.N,Earth*%
G36*
X47584680Y-53403427D02*
G01*
X47587571Y-53408199D01*
X47733970Y-53875012D01*
X47733176Y-53883931D01*
X47727317Y-53889309D01*
X47464511Y-53999115D01*
X47455556Y-53999142D01*
X47455489Y-53999115D01*
X47192682Y-53889309D01*
X47186370Y-53882957D01*
X47186029Y-53875013D01*
X47332429Y-53408199D01*
X47338175Y-53401330D01*
X47343593Y-53400000D01*
X47576407Y-53400000D01*
X47584680Y-53403427D01*
G37*
%TD.AperFunction*%
%TD*%
%TA.AperFunction,Conductor*%
%TO.N,+5V*%
G36*
X58765677Y-55519685D02*
G01*
X58786319Y-55536319D01*
X58963181Y-55713181D01*
X58996666Y-55774504D01*
X58999500Y-55800862D01*
X58999500Y-56199137D01*
X58979815Y-56266176D01*
X58963181Y-56286818D01*
X58750000Y-56499999D01*
X58750000Y-57448638D01*
X58730315Y-57515677D01*
X58713681Y-57536319D01*
X58286319Y-57963681D01*
X58224996Y-57997166D01*
X58198638Y-58000000D01*
X57801362Y-58000000D01*
X57734323Y-57980315D01*
X57713681Y-57963681D01*
X57536818Y-57786818D01*
X57503333Y-57725495D01*
X57500499Y-57699146D01*
X57500499Y-57300861D01*
X57520184Y-57233823D01*
X57536813Y-57213186D01*
X58000000Y-56750000D01*
X58000000Y-55801362D01*
X58019685Y-55734323D01*
X58036319Y-55713681D01*
X58213681Y-55536319D01*
X58275004Y-55502834D01*
X58301362Y-55500000D01*
X58698638Y-55500000D01*
X58765677Y-55519685D01*
G37*
%TD.AperFunction*%
%TD*%
M02*
