%TF.GenerationSoftware,KiCad,Pcbnew,8.0.2-1*%
%TF.CreationDate,2025-01-26T22:20:59-08:00*%
%TF.ProjectId,Small_Pendant,536d616c-6c5f-4506-956e-64616e742e6b,rev?*%
%TF.SameCoordinates,Original*%
%TF.FileFunction,Legend,Bot*%
%TF.FilePolarity,Positive*%
%FSLAX46Y46*%
G04 Gerber Fmt 4.6, Leading zero omitted, Abs format (unit mm)*
G04 Created by KiCad (PCBNEW 8.0.2-1) date 2025-01-26 22:20:59*
%MOMM*%
%LPD*%
G01*
G04 APERTURE LIST*
%ADD10C,0.200000*%
%ADD11C,0.150000*%
%ADD12C,0.120000*%
G04 APERTURE END LIST*
D10*
X45975564Y-53132457D02*
X46118422Y-53061028D01*
X46118422Y-53061028D02*
X46332707Y-53061028D01*
X46332707Y-53061028D02*
X46546993Y-53132457D01*
X46546993Y-53132457D02*
X46689850Y-53275314D01*
X46689850Y-53275314D02*
X46761279Y-53418171D01*
X46761279Y-53418171D02*
X46832707Y-53703885D01*
X46832707Y-53703885D02*
X46832707Y-53918171D01*
X46832707Y-53918171D02*
X46761279Y-54203885D01*
X46761279Y-54203885D02*
X46689850Y-54346742D01*
X46689850Y-54346742D02*
X46546993Y-54489600D01*
X46546993Y-54489600D02*
X46332707Y-54561028D01*
X46332707Y-54561028D02*
X46189850Y-54561028D01*
X46189850Y-54561028D02*
X45975564Y-54489600D01*
X45975564Y-54489600D02*
X45904136Y-54418171D01*
X45904136Y-54418171D02*
X45904136Y-53918171D01*
X45904136Y-53918171D02*
X46189850Y-53918171D01*
X45261279Y-54561028D02*
X45261279Y-53061028D01*
X45261279Y-53061028D02*
X44404136Y-54561028D01*
X44404136Y-54561028D02*
X44404136Y-53061028D01*
X43689850Y-54561028D02*
X43689850Y-53061028D01*
X43689850Y-53061028D02*
X43332707Y-53061028D01*
X43332707Y-53061028D02*
X43118421Y-53132457D01*
X43118421Y-53132457D02*
X42975564Y-53275314D01*
X42975564Y-53275314D02*
X42904135Y-53418171D01*
X42904135Y-53418171D02*
X42832707Y-53703885D01*
X42832707Y-53703885D02*
X42832707Y-53918171D01*
X42832707Y-53918171D02*
X42904135Y-54203885D01*
X42904135Y-54203885D02*
X42975564Y-54346742D01*
X42975564Y-54346742D02*
X43118421Y-54489600D01*
X43118421Y-54489600D02*
X43332707Y-54561028D01*
X43332707Y-54561028D02*
X43689850Y-54561028D01*
X52249999Y-46806028D02*
X52249999Y-45306028D01*
X52249999Y-45306028D02*
X51892856Y-45306028D01*
X51892856Y-45306028D02*
X51678570Y-45377457D01*
X51678570Y-45377457D02*
X51535713Y-45520314D01*
X51535713Y-45520314D02*
X51464284Y-45663171D01*
X51464284Y-45663171D02*
X51392856Y-45948885D01*
X51392856Y-45948885D02*
X51392856Y-46163171D01*
X51392856Y-46163171D02*
X51464284Y-46448885D01*
X51464284Y-46448885D02*
X51535713Y-46591742D01*
X51535713Y-46591742D02*
X51678570Y-46734600D01*
X51678570Y-46734600D02*
X51892856Y-46806028D01*
X51892856Y-46806028D02*
X52249999Y-46806028D01*
X50821427Y-46377457D02*
X50107142Y-46377457D01*
X50964284Y-46806028D02*
X50464284Y-45306028D01*
X50464284Y-45306028D02*
X49964284Y-46806028D01*
X49678570Y-45306028D02*
X48821428Y-45306028D01*
X49249999Y-46806028D02*
X49249999Y-45306028D01*
X48392856Y-46377457D02*
X47678571Y-46377457D01*
X48535713Y-46806028D02*
X48035713Y-45306028D01*
X48035713Y-45306028D02*
X47535713Y-46806028D01*
X54774434Y-53061028D02*
X55488720Y-53061028D01*
X55488720Y-53061028D02*
X55560148Y-53775314D01*
X55560148Y-53775314D02*
X55488720Y-53703885D01*
X55488720Y-53703885D02*
X55345863Y-53632457D01*
X55345863Y-53632457D02*
X54988720Y-53632457D01*
X54988720Y-53632457D02*
X54845863Y-53703885D01*
X54845863Y-53703885D02*
X54774434Y-53775314D01*
X54774434Y-53775314D02*
X54703005Y-53918171D01*
X54703005Y-53918171D02*
X54703005Y-54275314D01*
X54703005Y-54275314D02*
X54774434Y-54418171D01*
X54774434Y-54418171D02*
X54845863Y-54489600D01*
X54845863Y-54489600D02*
X54988720Y-54561028D01*
X54988720Y-54561028D02*
X55345863Y-54561028D01*
X55345863Y-54561028D02*
X55488720Y-54489600D01*
X55488720Y-54489600D02*
X55560148Y-54418171D01*
X54274434Y-53061028D02*
X53774434Y-54561028D01*
X53774434Y-54561028D02*
X53274434Y-53061028D01*
D11*
X56892857Y-44109580D02*
X56940476Y-44157200D01*
X56940476Y-44157200D02*
X57083333Y-44204819D01*
X57083333Y-44204819D02*
X57178571Y-44204819D01*
X57178571Y-44204819D02*
X57321428Y-44157200D01*
X57321428Y-44157200D02*
X57416666Y-44061961D01*
X57416666Y-44061961D02*
X57464285Y-43966723D01*
X57464285Y-43966723D02*
X57511904Y-43776247D01*
X57511904Y-43776247D02*
X57511904Y-43633390D01*
X57511904Y-43633390D02*
X57464285Y-43442914D01*
X57464285Y-43442914D02*
X57416666Y-43347676D01*
X57416666Y-43347676D02*
X57321428Y-43252438D01*
X57321428Y-43252438D02*
X57178571Y-43204819D01*
X57178571Y-43204819D02*
X57083333Y-43204819D01*
X57083333Y-43204819D02*
X56940476Y-43252438D01*
X56940476Y-43252438D02*
X56892857Y-43300057D01*
X55940476Y-44204819D02*
X56511904Y-44204819D01*
X56226190Y-44204819D02*
X56226190Y-43204819D01*
X56226190Y-43204819D02*
X56321428Y-43347676D01*
X56321428Y-43347676D02*
X56416666Y-43442914D01*
X56416666Y-43442914D02*
X56511904Y-43490533D01*
X55369047Y-43633390D02*
X55464285Y-43585771D01*
X55464285Y-43585771D02*
X55511904Y-43538152D01*
X55511904Y-43538152D02*
X55559523Y-43442914D01*
X55559523Y-43442914D02*
X55559523Y-43395295D01*
X55559523Y-43395295D02*
X55511904Y-43300057D01*
X55511904Y-43300057D02*
X55464285Y-43252438D01*
X55464285Y-43252438D02*
X55369047Y-43204819D01*
X55369047Y-43204819D02*
X55178571Y-43204819D01*
X55178571Y-43204819D02*
X55083333Y-43252438D01*
X55083333Y-43252438D02*
X55035714Y-43300057D01*
X55035714Y-43300057D02*
X54988095Y-43395295D01*
X54988095Y-43395295D02*
X54988095Y-43442914D01*
X54988095Y-43442914D02*
X55035714Y-43538152D01*
X55035714Y-43538152D02*
X55083333Y-43585771D01*
X55083333Y-43585771D02*
X55178571Y-43633390D01*
X55178571Y-43633390D02*
X55369047Y-43633390D01*
X55369047Y-43633390D02*
X55464285Y-43681009D01*
X55464285Y-43681009D02*
X55511904Y-43728628D01*
X55511904Y-43728628D02*
X55559523Y-43823866D01*
X55559523Y-43823866D02*
X55559523Y-44014342D01*
X55559523Y-44014342D02*
X55511904Y-44109580D01*
X55511904Y-44109580D02*
X55464285Y-44157200D01*
X55464285Y-44157200D02*
X55369047Y-44204819D01*
X55369047Y-44204819D02*
X55178571Y-44204819D01*
X55178571Y-44204819D02*
X55083333Y-44157200D01*
X55083333Y-44157200D02*
X55035714Y-44109580D01*
X55035714Y-44109580D02*
X54988095Y-44014342D01*
X54988095Y-44014342D02*
X54988095Y-43823866D01*
X54988095Y-43823866D02*
X55035714Y-43728628D01*
X55035714Y-43728628D02*
X55083333Y-43681009D01*
X55083333Y-43681009D02*
X55178571Y-43633390D01*
X44044819Y-49666666D02*
X44759104Y-49666666D01*
X44759104Y-49666666D02*
X44901961Y-49619047D01*
X44901961Y-49619047D02*
X44997200Y-49523809D01*
X44997200Y-49523809D02*
X45044819Y-49380952D01*
X45044819Y-49380952D02*
X45044819Y-49285714D01*
X45044819Y-50666666D02*
X45044819Y-50095238D01*
X45044819Y-50380952D02*
X44044819Y-50380952D01*
X44044819Y-50380952D02*
X44187676Y-50285714D01*
X44187676Y-50285714D02*
X44282914Y-50190476D01*
X44282914Y-50190476D02*
X44330533Y-50095238D01*
X58642857Y-45609580D02*
X58690476Y-45657200D01*
X58690476Y-45657200D02*
X58833333Y-45704819D01*
X58833333Y-45704819D02*
X58928571Y-45704819D01*
X58928571Y-45704819D02*
X59071428Y-45657200D01*
X59071428Y-45657200D02*
X59166666Y-45561961D01*
X59166666Y-45561961D02*
X59214285Y-45466723D01*
X59214285Y-45466723D02*
X59261904Y-45276247D01*
X59261904Y-45276247D02*
X59261904Y-45133390D01*
X59261904Y-45133390D02*
X59214285Y-44942914D01*
X59214285Y-44942914D02*
X59166666Y-44847676D01*
X59166666Y-44847676D02*
X59071428Y-44752438D01*
X59071428Y-44752438D02*
X58928571Y-44704819D01*
X58928571Y-44704819D02*
X58833333Y-44704819D01*
X58833333Y-44704819D02*
X58690476Y-44752438D01*
X58690476Y-44752438D02*
X58642857Y-44800057D01*
X57690476Y-45704819D02*
X58261904Y-45704819D01*
X57976190Y-45704819D02*
X57976190Y-44704819D01*
X57976190Y-44704819D02*
X58071428Y-44847676D01*
X58071428Y-44847676D02*
X58166666Y-44942914D01*
X58166666Y-44942914D02*
X58261904Y-44990533D01*
X57357142Y-44704819D02*
X56690476Y-44704819D01*
X56690476Y-44704819D02*
X57119047Y-45704819D01*
X41166666Y-45519580D02*
X41214285Y-45567200D01*
X41214285Y-45567200D02*
X41357142Y-45614819D01*
X41357142Y-45614819D02*
X41452380Y-45614819D01*
X41452380Y-45614819D02*
X41595237Y-45567200D01*
X41595237Y-45567200D02*
X41690475Y-45471961D01*
X41690475Y-45471961D02*
X41738094Y-45376723D01*
X41738094Y-45376723D02*
X41785713Y-45186247D01*
X41785713Y-45186247D02*
X41785713Y-45043390D01*
X41785713Y-45043390D02*
X41738094Y-44852914D01*
X41738094Y-44852914D02*
X41690475Y-44757676D01*
X41690475Y-44757676D02*
X41595237Y-44662438D01*
X41595237Y-44662438D02*
X41452380Y-44614819D01*
X41452380Y-44614819D02*
X41357142Y-44614819D01*
X41357142Y-44614819D02*
X41214285Y-44662438D01*
X41214285Y-44662438D02*
X41166666Y-44710057D01*
X40309523Y-44948152D02*
X40309523Y-45614819D01*
X40547618Y-44567200D02*
X40785713Y-45281485D01*
X40785713Y-45281485D02*
X40166666Y-45281485D01*
X47166666Y-41059580D02*
X47214285Y-41107200D01*
X47214285Y-41107200D02*
X47357142Y-41154819D01*
X47357142Y-41154819D02*
X47452380Y-41154819D01*
X47452380Y-41154819D02*
X47595237Y-41107200D01*
X47595237Y-41107200D02*
X47690475Y-41011961D01*
X47690475Y-41011961D02*
X47738094Y-40916723D01*
X47738094Y-40916723D02*
X47785713Y-40726247D01*
X47785713Y-40726247D02*
X47785713Y-40583390D01*
X47785713Y-40583390D02*
X47738094Y-40392914D01*
X47738094Y-40392914D02*
X47690475Y-40297676D01*
X47690475Y-40297676D02*
X47595237Y-40202438D01*
X47595237Y-40202438D02*
X47452380Y-40154819D01*
X47452380Y-40154819D02*
X47357142Y-40154819D01*
X47357142Y-40154819D02*
X47214285Y-40202438D01*
X47214285Y-40202438D02*
X47166666Y-40250057D01*
X46214285Y-41154819D02*
X46785713Y-41154819D01*
X46499999Y-41154819D02*
X46499999Y-40154819D01*
X46499999Y-40154819D02*
X46595237Y-40297676D01*
X46595237Y-40297676D02*
X46690475Y-40392914D01*
X46690475Y-40392914D02*
X46785713Y-40440533D01*
X39666666Y-48959580D02*
X39714285Y-49007200D01*
X39714285Y-49007200D02*
X39857142Y-49054819D01*
X39857142Y-49054819D02*
X39952380Y-49054819D01*
X39952380Y-49054819D02*
X40095237Y-49007200D01*
X40095237Y-49007200D02*
X40190475Y-48911961D01*
X40190475Y-48911961D02*
X40238094Y-48816723D01*
X40238094Y-48816723D02*
X40285713Y-48626247D01*
X40285713Y-48626247D02*
X40285713Y-48483390D01*
X40285713Y-48483390D02*
X40238094Y-48292914D01*
X40238094Y-48292914D02*
X40190475Y-48197676D01*
X40190475Y-48197676D02*
X40095237Y-48102438D01*
X40095237Y-48102438D02*
X39952380Y-48054819D01*
X39952380Y-48054819D02*
X39857142Y-48054819D01*
X39857142Y-48054819D02*
X39714285Y-48102438D01*
X39714285Y-48102438D02*
X39666666Y-48150057D01*
X38761904Y-48054819D02*
X39238094Y-48054819D01*
X39238094Y-48054819D02*
X39285713Y-48531009D01*
X39285713Y-48531009D02*
X39238094Y-48483390D01*
X39238094Y-48483390D02*
X39142856Y-48435771D01*
X39142856Y-48435771D02*
X38904761Y-48435771D01*
X38904761Y-48435771D02*
X38809523Y-48483390D01*
X38809523Y-48483390D02*
X38761904Y-48531009D01*
X38761904Y-48531009D02*
X38714285Y-48626247D01*
X38714285Y-48626247D02*
X38714285Y-48864342D01*
X38714285Y-48864342D02*
X38761904Y-48959580D01*
X38761904Y-48959580D02*
X38809523Y-49007200D01*
X38809523Y-49007200D02*
X38904761Y-49054819D01*
X38904761Y-49054819D02*
X39142856Y-49054819D01*
X39142856Y-49054819D02*
X39238094Y-49007200D01*
X39238094Y-49007200D02*
X39285713Y-48959580D01*
X43166666Y-44059580D02*
X43214285Y-44107200D01*
X43214285Y-44107200D02*
X43357142Y-44154819D01*
X43357142Y-44154819D02*
X43452380Y-44154819D01*
X43452380Y-44154819D02*
X43595237Y-44107200D01*
X43595237Y-44107200D02*
X43690475Y-44011961D01*
X43690475Y-44011961D02*
X43738094Y-43916723D01*
X43738094Y-43916723D02*
X43785713Y-43726247D01*
X43785713Y-43726247D02*
X43785713Y-43583390D01*
X43785713Y-43583390D02*
X43738094Y-43392914D01*
X43738094Y-43392914D02*
X43690475Y-43297676D01*
X43690475Y-43297676D02*
X43595237Y-43202438D01*
X43595237Y-43202438D02*
X43452380Y-43154819D01*
X43452380Y-43154819D02*
X43357142Y-43154819D01*
X43357142Y-43154819D02*
X43214285Y-43202438D01*
X43214285Y-43202438D02*
X43166666Y-43250057D01*
X42833332Y-43154819D02*
X42214285Y-43154819D01*
X42214285Y-43154819D02*
X42547618Y-43535771D01*
X42547618Y-43535771D02*
X42404761Y-43535771D01*
X42404761Y-43535771D02*
X42309523Y-43583390D01*
X42309523Y-43583390D02*
X42261904Y-43631009D01*
X42261904Y-43631009D02*
X42214285Y-43726247D01*
X42214285Y-43726247D02*
X42214285Y-43964342D01*
X42214285Y-43964342D02*
X42261904Y-44059580D01*
X42261904Y-44059580D02*
X42309523Y-44107200D01*
X42309523Y-44107200D02*
X42404761Y-44154819D01*
X42404761Y-44154819D02*
X42690475Y-44154819D01*
X42690475Y-44154819D02*
X42785713Y-44107200D01*
X42785713Y-44107200D02*
X42833332Y-44059580D01*
X43166666Y-56609580D02*
X43214285Y-56657200D01*
X43214285Y-56657200D02*
X43357142Y-56704819D01*
X43357142Y-56704819D02*
X43452380Y-56704819D01*
X43452380Y-56704819D02*
X43595237Y-56657200D01*
X43595237Y-56657200D02*
X43690475Y-56561961D01*
X43690475Y-56561961D02*
X43738094Y-56466723D01*
X43738094Y-56466723D02*
X43785713Y-56276247D01*
X43785713Y-56276247D02*
X43785713Y-56133390D01*
X43785713Y-56133390D02*
X43738094Y-55942914D01*
X43738094Y-55942914D02*
X43690475Y-55847676D01*
X43690475Y-55847676D02*
X43595237Y-55752438D01*
X43595237Y-55752438D02*
X43452380Y-55704819D01*
X43452380Y-55704819D02*
X43357142Y-55704819D01*
X43357142Y-55704819D02*
X43214285Y-55752438D01*
X43214285Y-55752438D02*
X43166666Y-55800057D01*
X42595237Y-56133390D02*
X42690475Y-56085771D01*
X42690475Y-56085771D02*
X42738094Y-56038152D01*
X42738094Y-56038152D02*
X42785713Y-55942914D01*
X42785713Y-55942914D02*
X42785713Y-55895295D01*
X42785713Y-55895295D02*
X42738094Y-55800057D01*
X42738094Y-55800057D02*
X42690475Y-55752438D01*
X42690475Y-55752438D02*
X42595237Y-55704819D01*
X42595237Y-55704819D02*
X42404761Y-55704819D01*
X42404761Y-55704819D02*
X42309523Y-55752438D01*
X42309523Y-55752438D02*
X42261904Y-55800057D01*
X42261904Y-55800057D02*
X42214285Y-55895295D01*
X42214285Y-55895295D02*
X42214285Y-55942914D01*
X42214285Y-55942914D02*
X42261904Y-56038152D01*
X42261904Y-56038152D02*
X42309523Y-56085771D01*
X42309523Y-56085771D02*
X42404761Y-56133390D01*
X42404761Y-56133390D02*
X42595237Y-56133390D01*
X42595237Y-56133390D02*
X42690475Y-56181009D01*
X42690475Y-56181009D02*
X42738094Y-56228628D01*
X42738094Y-56228628D02*
X42785713Y-56323866D01*
X42785713Y-56323866D02*
X42785713Y-56514342D01*
X42785713Y-56514342D02*
X42738094Y-56609580D01*
X42738094Y-56609580D02*
X42690475Y-56657200D01*
X42690475Y-56657200D02*
X42595237Y-56704819D01*
X42595237Y-56704819D02*
X42404761Y-56704819D01*
X42404761Y-56704819D02*
X42309523Y-56657200D01*
X42309523Y-56657200D02*
X42261904Y-56609580D01*
X42261904Y-56609580D02*
X42214285Y-56514342D01*
X42214285Y-56514342D02*
X42214285Y-56323866D01*
X42214285Y-56323866D02*
X42261904Y-56228628D01*
X42261904Y-56228628D02*
X42309523Y-56181009D01*
X42309523Y-56181009D02*
X42404761Y-56133390D01*
X59642857Y-55109580D02*
X59690476Y-55157200D01*
X59690476Y-55157200D02*
X59833333Y-55204819D01*
X59833333Y-55204819D02*
X59928571Y-55204819D01*
X59928571Y-55204819D02*
X60071428Y-55157200D01*
X60071428Y-55157200D02*
X60166666Y-55061961D01*
X60166666Y-55061961D02*
X60214285Y-54966723D01*
X60214285Y-54966723D02*
X60261904Y-54776247D01*
X60261904Y-54776247D02*
X60261904Y-54633390D01*
X60261904Y-54633390D02*
X60214285Y-54442914D01*
X60214285Y-54442914D02*
X60166666Y-54347676D01*
X60166666Y-54347676D02*
X60071428Y-54252438D01*
X60071428Y-54252438D02*
X59928571Y-54204819D01*
X59928571Y-54204819D02*
X59833333Y-54204819D01*
X59833333Y-54204819D02*
X59690476Y-54252438D01*
X59690476Y-54252438D02*
X59642857Y-54300057D01*
X58690476Y-55204819D02*
X59261904Y-55204819D01*
X58976190Y-55204819D02*
X58976190Y-54204819D01*
X58976190Y-54204819D02*
X59071428Y-54347676D01*
X59071428Y-54347676D02*
X59166666Y-54442914D01*
X59166666Y-54442914D02*
X59261904Y-54490533D01*
X57833333Y-54538152D02*
X57833333Y-55204819D01*
X58071428Y-54157200D02*
X58309523Y-54871485D01*
X58309523Y-54871485D02*
X57690476Y-54871485D01*
X55642857Y-58109580D02*
X55690476Y-58157200D01*
X55690476Y-58157200D02*
X55833333Y-58204819D01*
X55833333Y-58204819D02*
X55928571Y-58204819D01*
X55928571Y-58204819D02*
X56071428Y-58157200D01*
X56071428Y-58157200D02*
X56166666Y-58061961D01*
X56166666Y-58061961D02*
X56214285Y-57966723D01*
X56214285Y-57966723D02*
X56261904Y-57776247D01*
X56261904Y-57776247D02*
X56261904Y-57633390D01*
X56261904Y-57633390D02*
X56214285Y-57442914D01*
X56214285Y-57442914D02*
X56166666Y-57347676D01*
X56166666Y-57347676D02*
X56071428Y-57252438D01*
X56071428Y-57252438D02*
X55928571Y-57204819D01*
X55928571Y-57204819D02*
X55833333Y-57204819D01*
X55833333Y-57204819D02*
X55690476Y-57252438D01*
X55690476Y-57252438D02*
X55642857Y-57300057D01*
X54690476Y-58204819D02*
X55261904Y-58204819D01*
X54976190Y-58204819D02*
X54976190Y-57204819D01*
X54976190Y-57204819D02*
X55071428Y-57347676D01*
X55071428Y-57347676D02*
X55166666Y-57442914D01*
X55166666Y-57442914D02*
X55261904Y-57490533D01*
X54309523Y-57300057D02*
X54261904Y-57252438D01*
X54261904Y-57252438D02*
X54166666Y-57204819D01*
X54166666Y-57204819D02*
X53928571Y-57204819D01*
X53928571Y-57204819D02*
X53833333Y-57252438D01*
X53833333Y-57252438D02*
X53785714Y-57300057D01*
X53785714Y-57300057D02*
X53738095Y-57395295D01*
X53738095Y-57395295D02*
X53738095Y-57490533D01*
X53738095Y-57490533D02*
X53785714Y-57633390D01*
X53785714Y-57633390D02*
X54357142Y-58204819D01*
X54357142Y-58204819D02*
X53738095Y-58204819D01*
X53642857Y-59699580D02*
X53690476Y-59747200D01*
X53690476Y-59747200D02*
X53833333Y-59794819D01*
X53833333Y-59794819D02*
X53928571Y-59794819D01*
X53928571Y-59794819D02*
X54071428Y-59747200D01*
X54071428Y-59747200D02*
X54166666Y-59651961D01*
X54166666Y-59651961D02*
X54214285Y-59556723D01*
X54214285Y-59556723D02*
X54261904Y-59366247D01*
X54261904Y-59366247D02*
X54261904Y-59223390D01*
X54261904Y-59223390D02*
X54214285Y-59032914D01*
X54214285Y-59032914D02*
X54166666Y-58937676D01*
X54166666Y-58937676D02*
X54071428Y-58842438D01*
X54071428Y-58842438D02*
X53928571Y-58794819D01*
X53928571Y-58794819D02*
X53833333Y-58794819D01*
X53833333Y-58794819D02*
X53690476Y-58842438D01*
X53690476Y-58842438D02*
X53642857Y-58890057D01*
X52690476Y-59794819D02*
X53261904Y-59794819D01*
X52976190Y-59794819D02*
X52976190Y-58794819D01*
X52976190Y-58794819D02*
X53071428Y-58937676D01*
X53071428Y-58937676D02*
X53166666Y-59032914D01*
X53166666Y-59032914D02*
X53261904Y-59080533D01*
X51738095Y-59794819D02*
X52309523Y-59794819D01*
X52023809Y-59794819D02*
X52023809Y-58794819D01*
X52023809Y-58794819D02*
X52119047Y-58937676D01*
X52119047Y-58937676D02*
X52214285Y-59032914D01*
X52214285Y-59032914D02*
X52309523Y-59080533D01*
X61142857Y-49109580D02*
X61190476Y-49157200D01*
X61190476Y-49157200D02*
X61333333Y-49204819D01*
X61333333Y-49204819D02*
X61428571Y-49204819D01*
X61428571Y-49204819D02*
X61571428Y-49157200D01*
X61571428Y-49157200D02*
X61666666Y-49061961D01*
X61666666Y-49061961D02*
X61714285Y-48966723D01*
X61714285Y-48966723D02*
X61761904Y-48776247D01*
X61761904Y-48776247D02*
X61761904Y-48633390D01*
X61761904Y-48633390D02*
X61714285Y-48442914D01*
X61714285Y-48442914D02*
X61666666Y-48347676D01*
X61666666Y-48347676D02*
X61571428Y-48252438D01*
X61571428Y-48252438D02*
X61428571Y-48204819D01*
X61428571Y-48204819D02*
X61333333Y-48204819D01*
X61333333Y-48204819D02*
X61190476Y-48252438D01*
X61190476Y-48252438D02*
X61142857Y-48300057D01*
X60190476Y-49204819D02*
X60761904Y-49204819D01*
X60476190Y-49204819D02*
X60476190Y-48204819D01*
X60476190Y-48204819D02*
X60571428Y-48347676D01*
X60571428Y-48347676D02*
X60666666Y-48442914D01*
X60666666Y-48442914D02*
X60761904Y-48490533D01*
X59333333Y-48204819D02*
X59523809Y-48204819D01*
X59523809Y-48204819D02*
X59619047Y-48252438D01*
X59619047Y-48252438D02*
X59666666Y-48300057D01*
X59666666Y-48300057D02*
X59761904Y-48442914D01*
X59761904Y-48442914D02*
X59809523Y-48633390D01*
X59809523Y-48633390D02*
X59809523Y-49014342D01*
X59809523Y-49014342D02*
X59761904Y-49109580D01*
X59761904Y-49109580D02*
X59714285Y-49157200D01*
X59714285Y-49157200D02*
X59619047Y-49204819D01*
X59619047Y-49204819D02*
X59428571Y-49204819D01*
X59428571Y-49204819D02*
X59333333Y-49157200D01*
X59333333Y-49157200D02*
X59285714Y-49109580D01*
X59285714Y-49109580D02*
X59238095Y-49014342D01*
X59238095Y-49014342D02*
X59238095Y-48776247D01*
X59238095Y-48776247D02*
X59285714Y-48681009D01*
X59285714Y-48681009D02*
X59333333Y-48633390D01*
X59333333Y-48633390D02*
X59428571Y-48585771D01*
X59428571Y-48585771D02*
X59619047Y-48585771D01*
X59619047Y-48585771D02*
X59714285Y-48633390D01*
X59714285Y-48633390D02*
X59761904Y-48681009D01*
X59761904Y-48681009D02*
X59809523Y-48776247D01*
X53642857Y-41019580D02*
X53690476Y-41067200D01*
X53690476Y-41067200D02*
X53833333Y-41114819D01*
X53833333Y-41114819D02*
X53928571Y-41114819D01*
X53928571Y-41114819D02*
X54071428Y-41067200D01*
X54071428Y-41067200D02*
X54166666Y-40971961D01*
X54166666Y-40971961D02*
X54214285Y-40876723D01*
X54214285Y-40876723D02*
X54261904Y-40686247D01*
X54261904Y-40686247D02*
X54261904Y-40543390D01*
X54261904Y-40543390D02*
X54214285Y-40352914D01*
X54214285Y-40352914D02*
X54166666Y-40257676D01*
X54166666Y-40257676D02*
X54071428Y-40162438D01*
X54071428Y-40162438D02*
X53928571Y-40114819D01*
X53928571Y-40114819D02*
X53833333Y-40114819D01*
X53833333Y-40114819D02*
X53690476Y-40162438D01*
X53690476Y-40162438D02*
X53642857Y-40210057D01*
X53261904Y-40210057D02*
X53214285Y-40162438D01*
X53214285Y-40162438D02*
X53119047Y-40114819D01*
X53119047Y-40114819D02*
X52880952Y-40114819D01*
X52880952Y-40114819D02*
X52785714Y-40162438D01*
X52785714Y-40162438D02*
X52738095Y-40210057D01*
X52738095Y-40210057D02*
X52690476Y-40305295D01*
X52690476Y-40305295D02*
X52690476Y-40400533D01*
X52690476Y-40400533D02*
X52738095Y-40543390D01*
X52738095Y-40543390D02*
X53309523Y-41114819D01*
X53309523Y-41114819D02*
X52690476Y-41114819D01*
X52071428Y-40114819D02*
X51976190Y-40114819D01*
X51976190Y-40114819D02*
X51880952Y-40162438D01*
X51880952Y-40162438D02*
X51833333Y-40210057D01*
X51833333Y-40210057D02*
X51785714Y-40305295D01*
X51785714Y-40305295D02*
X51738095Y-40495771D01*
X51738095Y-40495771D02*
X51738095Y-40733866D01*
X51738095Y-40733866D02*
X51785714Y-40924342D01*
X51785714Y-40924342D02*
X51833333Y-41019580D01*
X51833333Y-41019580D02*
X51880952Y-41067200D01*
X51880952Y-41067200D02*
X51976190Y-41114819D01*
X51976190Y-41114819D02*
X52071428Y-41114819D01*
X52071428Y-41114819D02*
X52166666Y-41067200D01*
X52166666Y-41067200D02*
X52214285Y-41019580D01*
X52214285Y-41019580D02*
X52261904Y-40924342D01*
X52261904Y-40924342D02*
X52309523Y-40733866D01*
X52309523Y-40733866D02*
X52309523Y-40495771D01*
X52309523Y-40495771D02*
X52261904Y-40305295D01*
X52261904Y-40305295D02*
X52214285Y-40210057D01*
X52214285Y-40210057D02*
X52166666Y-40162438D01*
X52166666Y-40162438D02*
X52071428Y-40114819D01*
X44666666Y-58199580D02*
X44714285Y-58247200D01*
X44714285Y-58247200D02*
X44857142Y-58294819D01*
X44857142Y-58294819D02*
X44952380Y-58294819D01*
X44952380Y-58294819D02*
X45095237Y-58247200D01*
X45095237Y-58247200D02*
X45190475Y-58151961D01*
X45190475Y-58151961D02*
X45238094Y-58056723D01*
X45238094Y-58056723D02*
X45285713Y-57866247D01*
X45285713Y-57866247D02*
X45285713Y-57723390D01*
X45285713Y-57723390D02*
X45238094Y-57532914D01*
X45238094Y-57532914D02*
X45190475Y-57437676D01*
X45190475Y-57437676D02*
X45095237Y-57342438D01*
X45095237Y-57342438D02*
X44952380Y-57294819D01*
X44952380Y-57294819D02*
X44857142Y-57294819D01*
X44857142Y-57294819D02*
X44714285Y-57342438D01*
X44714285Y-57342438D02*
X44666666Y-57390057D01*
X44190475Y-58294819D02*
X43999999Y-58294819D01*
X43999999Y-58294819D02*
X43904761Y-58247200D01*
X43904761Y-58247200D02*
X43857142Y-58199580D01*
X43857142Y-58199580D02*
X43761904Y-58056723D01*
X43761904Y-58056723D02*
X43714285Y-57866247D01*
X43714285Y-57866247D02*
X43714285Y-57485295D01*
X43714285Y-57485295D02*
X43761904Y-57390057D01*
X43761904Y-57390057D02*
X43809523Y-57342438D01*
X43809523Y-57342438D02*
X43904761Y-57294819D01*
X43904761Y-57294819D02*
X44095237Y-57294819D01*
X44095237Y-57294819D02*
X44190475Y-57342438D01*
X44190475Y-57342438D02*
X44238094Y-57390057D01*
X44238094Y-57390057D02*
X44285713Y-57485295D01*
X44285713Y-57485295D02*
X44285713Y-57723390D01*
X44285713Y-57723390D02*
X44238094Y-57818628D01*
X44238094Y-57818628D02*
X44190475Y-57866247D01*
X44190475Y-57866247D02*
X44095237Y-57913866D01*
X44095237Y-57913866D02*
X43904761Y-57913866D01*
X43904761Y-57913866D02*
X43809523Y-57866247D01*
X43809523Y-57866247D02*
X43761904Y-57818628D01*
X43761904Y-57818628D02*
X43714285Y-57723390D01*
X44666666Y-42519580D02*
X44714285Y-42567200D01*
X44714285Y-42567200D02*
X44857142Y-42614819D01*
X44857142Y-42614819D02*
X44952380Y-42614819D01*
X44952380Y-42614819D02*
X45095237Y-42567200D01*
X45095237Y-42567200D02*
X45190475Y-42471961D01*
X45190475Y-42471961D02*
X45238094Y-42376723D01*
X45238094Y-42376723D02*
X45285713Y-42186247D01*
X45285713Y-42186247D02*
X45285713Y-42043390D01*
X45285713Y-42043390D02*
X45238094Y-41852914D01*
X45238094Y-41852914D02*
X45190475Y-41757676D01*
X45190475Y-41757676D02*
X45095237Y-41662438D01*
X45095237Y-41662438D02*
X44952380Y-41614819D01*
X44952380Y-41614819D02*
X44857142Y-41614819D01*
X44857142Y-41614819D02*
X44714285Y-41662438D01*
X44714285Y-41662438D02*
X44666666Y-41710057D01*
X44285713Y-41710057D02*
X44238094Y-41662438D01*
X44238094Y-41662438D02*
X44142856Y-41614819D01*
X44142856Y-41614819D02*
X43904761Y-41614819D01*
X43904761Y-41614819D02*
X43809523Y-41662438D01*
X43809523Y-41662438D02*
X43761904Y-41710057D01*
X43761904Y-41710057D02*
X43714285Y-41805295D01*
X43714285Y-41805295D02*
X43714285Y-41900533D01*
X43714285Y-41900533D02*
X43761904Y-42043390D01*
X43761904Y-42043390D02*
X44333332Y-42614819D01*
X44333332Y-42614819D02*
X43714285Y-42614819D01*
X57142857Y-56699580D02*
X57190476Y-56747200D01*
X57190476Y-56747200D02*
X57333333Y-56794819D01*
X57333333Y-56794819D02*
X57428571Y-56794819D01*
X57428571Y-56794819D02*
X57571428Y-56747200D01*
X57571428Y-56747200D02*
X57666666Y-56651961D01*
X57666666Y-56651961D02*
X57714285Y-56556723D01*
X57714285Y-56556723D02*
X57761904Y-56366247D01*
X57761904Y-56366247D02*
X57761904Y-56223390D01*
X57761904Y-56223390D02*
X57714285Y-56032914D01*
X57714285Y-56032914D02*
X57666666Y-55937676D01*
X57666666Y-55937676D02*
X57571428Y-55842438D01*
X57571428Y-55842438D02*
X57428571Y-55794819D01*
X57428571Y-55794819D02*
X57333333Y-55794819D01*
X57333333Y-55794819D02*
X57190476Y-55842438D01*
X57190476Y-55842438D02*
X57142857Y-55890057D01*
X56190476Y-56794819D02*
X56761904Y-56794819D01*
X56476190Y-56794819D02*
X56476190Y-55794819D01*
X56476190Y-55794819D02*
X56571428Y-55937676D01*
X56571428Y-55937676D02*
X56666666Y-56032914D01*
X56666666Y-56032914D02*
X56761904Y-56080533D01*
X55857142Y-55794819D02*
X55238095Y-55794819D01*
X55238095Y-55794819D02*
X55571428Y-56175771D01*
X55571428Y-56175771D02*
X55428571Y-56175771D01*
X55428571Y-56175771D02*
X55333333Y-56223390D01*
X55333333Y-56223390D02*
X55285714Y-56271009D01*
X55285714Y-56271009D02*
X55238095Y-56366247D01*
X55238095Y-56366247D02*
X55238095Y-56604342D01*
X55238095Y-56604342D02*
X55285714Y-56699580D01*
X55285714Y-56699580D02*
X55333333Y-56747200D01*
X55333333Y-56747200D02*
X55428571Y-56794819D01*
X55428571Y-56794819D02*
X55714285Y-56794819D01*
X55714285Y-56794819D02*
X55809523Y-56747200D01*
X55809523Y-56747200D02*
X55857142Y-56699580D01*
X61142857Y-51609580D02*
X61190476Y-51657200D01*
X61190476Y-51657200D02*
X61333333Y-51704819D01*
X61333333Y-51704819D02*
X61428571Y-51704819D01*
X61428571Y-51704819D02*
X61571428Y-51657200D01*
X61571428Y-51657200D02*
X61666666Y-51561961D01*
X61666666Y-51561961D02*
X61714285Y-51466723D01*
X61714285Y-51466723D02*
X61761904Y-51276247D01*
X61761904Y-51276247D02*
X61761904Y-51133390D01*
X61761904Y-51133390D02*
X61714285Y-50942914D01*
X61714285Y-50942914D02*
X61666666Y-50847676D01*
X61666666Y-50847676D02*
X61571428Y-50752438D01*
X61571428Y-50752438D02*
X61428571Y-50704819D01*
X61428571Y-50704819D02*
X61333333Y-50704819D01*
X61333333Y-50704819D02*
X61190476Y-50752438D01*
X61190476Y-50752438D02*
X61142857Y-50800057D01*
X60190476Y-51704819D02*
X60761904Y-51704819D01*
X60476190Y-51704819D02*
X60476190Y-50704819D01*
X60476190Y-50704819D02*
X60571428Y-50847676D01*
X60571428Y-50847676D02*
X60666666Y-50942914D01*
X60666666Y-50942914D02*
X60761904Y-50990533D01*
X59285714Y-50704819D02*
X59761904Y-50704819D01*
X59761904Y-50704819D02*
X59809523Y-51181009D01*
X59809523Y-51181009D02*
X59761904Y-51133390D01*
X59761904Y-51133390D02*
X59666666Y-51085771D01*
X59666666Y-51085771D02*
X59428571Y-51085771D01*
X59428571Y-51085771D02*
X59333333Y-51133390D01*
X59333333Y-51133390D02*
X59285714Y-51181009D01*
X59285714Y-51181009D02*
X59238095Y-51276247D01*
X59238095Y-51276247D02*
X59238095Y-51514342D01*
X59238095Y-51514342D02*
X59285714Y-51609580D01*
X59285714Y-51609580D02*
X59333333Y-51657200D01*
X59333333Y-51657200D02*
X59428571Y-51704819D01*
X59428571Y-51704819D02*
X59666666Y-51704819D01*
X59666666Y-51704819D02*
X59761904Y-51657200D01*
X59761904Y-51657200D02*
X59809523Y-51609580D01*
X47642857Y-59609580D02*
X47690476Y-59657200D01*
X47690476Y-59657200D02*
X47833333Y-59704819D01*
X47833333Y-59704819D02*
X47928571Y-59704819D01*
X47928571Y-59704819D02*
X48071428Y-59657200D01*
X48071428Y-59657200D02*
X48166666Y-59561961D01*
X48166666Y-59561961D02*
X48214285Y-59466723D01*
X48214285Y-59466723D02*
X48261904Y-59276247D01*
X48261904Y-59276247D02*
X48261904Y-59133390D01*
X48261904Y-59133390D02*
X48214285Y-58942914D01*
X48214285Y-58942914D02*
X48166666Y-58847676D01*
X48166666Y-58847676D02*
X48071428Y-58752438D01*
X48071428Y-58752438D02*
X47928571Y-58704819D01*
X47928571Y-58704819D02*
X47833333Y-58704819D01*
X47833333Y-58704819D02*
X47690476Y-58752438D01*
X47690476Y-58752438D02*
X47642857Y-58800057D01*
X46690476Y-59704819D02*
X47261904Y-59704819D01*
X46976190Y-59704819D02*
X46976190Y-58704819D01*
X46976190Y-58704819D02*
X47071428Y-58847676D01*
X47071428Y-58847676D02*
X47166666Y-58942914D01*
X47166666Y-58942914D02*
X47261904Y-58990533D01*
X46071428Y-58704819D02*
X45976190Y-58704819D01*
X45976190Y-58704819D02*
X45880952Y-58752438D01*
X45880952Y-58752438D02*
X45833333Y-58800057D01*
X45833333Y-58800057D02*
X45785714Y-58895295D01*
X45785714Y-58895295D02*
X45738095Y-59085771D01*
X45738095Y-59085771D02*
X45738095Y-59323866D01*
X45738095Y-59323866D02*
X45785714Y-59514342D01*
X45785714Y-59514342D02*
X45833333Y-59609580D01*
X45833333Y-59609580D02*
X45880952Y-59657200D01*
X45880952Y-59657200D02*
X45976190Y-59704819D01*
X45976190Y-59704819D02*
X46071428Y-59704819D01*
X46071428Y-59704819D02*
X46166666Y-59657200D01*
X46166666Y-59657200D02*
X46214285Y-59609580D01*
X46214285Y-59609580D02*
X46261904Y-59514342D01*
X46261904Y-59514342D02*
X46309523Y-59323866D01*
X46309523Y-59323866D02*
X46309523Y-59085771D01*
X46309523Y-59085771D02*
X46261904Y-58895295D01*
X46261904Y-58895295D02*
X46214285Y-58800057D01*
X46214285Y-58800057D02*
X46166666Y-58752438D01*
X46166666Y-58752438D02*
X46071428Y-58704819D01*
X41166666Y-55199580D02*
X41214285Y-55247200D01*
X41214285Y-55247200D02*
X41357142Y-55294819D01*
X41357142Y-55294819D02*
X41452380Y-55294819D01*
X41452380Y-55294819D02*
X41595237Y-55247200D01*
X41595237Y-55247200D02*
X41690475Y-55151961D01*
X41690475Y-55151961D02*
X41738094Y-55056723D01*
X41738094Y-55056723D02*
X41785713Y-54866247D01*
X41785713Y-54866247D02*
X41785713Y-54723390D01*
X41785713Y-54723390D02*
X41738094Y-54532914D01*
X41738094Y-54532914D02*
X41690475Y-54437676D01*
X41690475Y-54437676D02*
X41595237Y-54342438D01*
X41595237Y-54342438D02*
X41452380Y-54294819D01*
X41452380Y-54294819D02*
X41357142Y-54294819D01*
X41357142Y-54294819D02*
X41214285Y-54342438D01*
X41214285Y-54342438D02*
X41166666Y-54390057D01*
X40833332Y-54294819D02*
X40166666Y-54294819D01*
X40166666Y-54294819D02*
X40595237Y-55294819D01*
X55392857Y-42609580D02*
X55440476Y-42657200D01*
X55440476Y-42657200D02*
X55583333Y-42704819D01*
X55583333Y-42704819D02*
X55678571Y-42704819D01*
X55678571Y-42704819D02*
X55821428Y-42657200D01*
X55821428Y-42657200D02*
X55916666Y-42561961D01*
X55916666Y-42561961D02*
X55964285Y-42466723D01*
X55964285Y-42466723D02*
X56011904Y-42276247D01*
X56011904Y-42276247D02*
X56011904Y-42133390D01*
X56011904Y-42133390D02*
X55964285Y-41942914D01*
X55964285Y-41942914D02*
X55916666Y-41847676D01*
X55916666Y-41847676D02*
X55821428Y-41752438D01*
X55821428Y-41752438D02*
X55678571Y-41704819D01*
X55678571Y-41704819D02*
X55583333Y-41704819D01*
X55583333Y-41704819D02*
X55440476Y-41752438D01*
X55440476Y-41752438D02*
X55392857Y-41800057D01*
X54440476Y-42704819D02*
X55011904Y-42704819D01*
X54726190Y-42704819D02*
X54726190Y-41704819D01*
X54726190Y-41704819D02*
X54821428Y-41847676D01*
X54821428Y-41847676D02*
X54916666Y-41942914D01*
X54916666Y-41942914D02*
X55011904Y-41990533D01*
X53964285Y-42704819D02*
X53773809Y-42704819D01*
X53773809Y-42704819D02*
X53678571Y-42657200D01*
X53678571Y-42657200D02*
X53630952Y-42609580D01*
X53630952Y-42609580D02*
X53535714Y-42466723D01*
X53535714Y-42466723D02*
X53488095Y-42276247D01*
X53488095Y-42276247D02*
X53488095Y-41895295D01*
X53488095Y-41895295D02*
X53535714Y-41800057D01*
X53535714Y-41800057D02*
X53583333Y-41752438D01*
X53583333Y-41752438D02*
X53678571Y-41704819D01*
X53678571Y-41704819D02*
X53869047Y-41704819D01*
X53869047Y-41704819D02*
X53964285Y-41752438D01*
X53964285Y-41752438D02*
X54011904Y-41800057D01*
X54011904Y-41800057D02*
X54059523Y-41895295D01*
X54059523Y-41895295D02*
X54059523Y-42133390D01*
X54059523Y-42133390D02*
X54011904Y-42228628D01*
X54011904Y-42228628D02*
X53964285Y-42276247D01*
X53964285Y-42276247D02*
X53869047Y-42323866D01*
X53869047Y-42323866D02*
X53678571Y-42323866D01*
X53678571Y-42323866D02*
X53583333Y-42276247D01*
X53583333Y-42276247D02*
X53535714Y-42228628D01*
X53535714Y-42228628D02*
X53488095Y-42133390D01*
X39666666Y-51859580D02*
X39714285Y-51907200D01*
X39714285Y-51907200D02*
X39857142Y-51954819D01*
X39857142Y-51954819D02*
X39952380Y-51954819D01*
X39952380Y-51954819D02*
X40095237Y-51907200D01*
X40095237Y-51907200D02*
X40190475Y-51811961D01*
X40190475Y-51811961D02*
X40238094Y-51716723D01*
X40238094Y-51716723D02*
X40285713Y-51526247D01*
X40285713Y-51526247D02*
X40285713Y-51383390D01*
X40285713Y-51383390D02*
X40238094Y-51192914D01*
X40238094Y-51192914D02*
X40190475Y-51097676D01*
X40190475Y-51097676D02*
X40095237Y-51002438D01*
X40095237Y-51002438D02*
X39952380Y-50954819D01*
X39952380Y-50954819D02*
X39857142Y-50954819D01*
X39857142Y-50954819D02*
X39714285Y-51002438D01*
X39714285Y-51002438D02*
X39666666Y-51050057D01*
X38809523Y-50954819D02*
X38999999Y-50954819D01*
X38999999Y-50954819D02*
X39095237Y-51002438D01*
X39095237Y-51002438D02*
X39142856Y-51050057D01*
X39142856Y-51050057D02*
X39238094Y-51192914D01*
X39238094Y-51192914D02*
X39285713Y-51383390D01*
X39285713Y-51383390D02*
X39285713Y-51764342D01*
X39285713Y-51764342D02*
X39238094Y-51859580D01*
X39238094Y-51859580D02*
X39190475Y-51907200D01*
X39190475Y-51907200D02*
X39095237Y-51954819D01*
X39095237Y-51954819D02*
X38904761Y-51954819D01*
X38904761Y-51954819D02*
X38809523Y-51907200D01*
X38809523Y-51907200D02*
X38761904Y-51859580D01*
X38761904Y-51859580D02*
X38714285Y-51764342D01*
X38714285Y-51764342D02*
X38714285Y-51526247D01*
X38714285Y-51526247D02*
X38761904Y-51431009D01*
X38761904Y-51431009D02*
X38809523Y-51383390D01*
X38809523Y-51383390D02*
X38904761Y-51335771D01*
X38904761Y-51335771D02*
X39095237Y-51335771D01*
X39095237Y-51335771D02*
X39190475Y-51383390D01*
X39190475Y-51383390D02*
X39238094Y-51431009D01*
X39238094Y-51431009D02*
X39285713Y-51526247D01*
D12*
%TO.C,C18*%
X57607836Y-42140000D02*
X57392164Y-42140000D01*
X57607836Y-42860000D02*
X57392164Y-42860000D01*
%TO.C,J1*%
X46030000Y-51330000D02*
X46030000Y-48670000D01*
X46700000Y-51330000D02*
X46030000Y-51330000D01*
X46700000Y-52540000D02*
X46700000Y-51330000D01*
X49240000Y-48670000D02*
X46030000Y-48670000D01*
X51780000Y-51330000D02*
X48220000Y-51330000D01*
X53970000Y-48670000D02*
X50760000Y-48670000D01*
X53970000Y-51330000D02*
X53300000Y-51330000D01*
X53970000Y-51330000D02*
X53970000Y-48670000D01*
%TO.C,C17*%
X59107836Y-43640000D02*
X58892164Y-43640000D01*
X59107836Y-44360000D02*
X58892164Y-44360000D01*
%TO.C,C4*%
X41107836Y-43640000D02*
X40892164Y-43640000D01*
X41107836Y-44360000D02*
X40892164Y-44360000D01*
%TO.C,C1*%
X46892164Y-39140000D02*
X47107836Y-39140000D01*
X46892164Y-39860000D02*
X47107836Y-39860000D01*
%TO.C,C5*%
X39140000Y-46892164D02*
X39140000Y-47107836D01*
X39860000Y-46892164D02*
X39860000Y-47107836D01*
%TO.C,C3*%
X42392164Y-42140000D02*
X42607836Y-42140000D01*
X42392164Y-42860000D02*
X42607836Y-42860000D01*
%TO.C,C8*%
X42607836Y-57140000D02*
X42392164Y-57140000D01*
X42607836Y-57860000D02*
X42392164Y-57860000D01*
%TO.C,C14*%
X59107836Y-55640000D02*
X58892164Y-55640000D01*
X59107836Y-56360000D02*
X58892164Y-56360000D01*
%TO.C,C12*%
X56107836Y-58640000D02*
X55892164Y-58640000D01*
X56107836Y-59360000D02*
X55892164Y-59360000D01*
%TO.C,C11*%
X52892164Y-60140000D02*
X53107836Y-60140000D01*
X52892164Y-60860000D02*
X53107836Y-60860000D01*
%TO.C,C16*%
X60140000Y-46892164D02*
X60140000Y-47107836D01*
X60860000Y-46892164D02*
X60860000Y-47107836D01*
%TO.C,C20*%
X53107836Y-39140000D02*
X52892164Y-39140000D01*
X53107836Y-39860000D02*
X52892164Y-39860000D01*
%TO.C,C9*%
X43892164Y-58640000D02*
X44107836Y-58640000D01*
X43892164Y-59360000D02*
X44107836Y-59360000D01*
%TO.C,C2*%
X44107836Y-40640000D02*
X43892164Y-40640000D01*
X44107836Y-41360000D02*
X43892164Y-41360000D01*
%TO.C,C13*%
X57392164Y-57140000D02*
X57607836Y-57140000D01*
X57392164Y-57860000D02*
X57607836Y-57860000D01*
%TO.C,C15*%
X60140000Y-52892164D02*
X60140000Y-53107836D01*
X60860000Y-52892164D02*
X60860000Y-53107836D01*
%TO.C,C10*%
X47107836Y-60140000D02*
X46892164Y-60140000D01*
X47107836Y-60860000D02*
X46892164Y-60860000D01*
%TO.C,C7*%
X40892164Y-55640000D02*
X41107836Y-55640000D01*
X40892164Y-56360000D02*
X41107836Y-56360000D01*
%TO.C,C19*%
X55892164Y-40640000D02*
X56107836Y-40640000D01*
X55892164Y-41360000D02*
X56107836Y-41360000D01*
%TO.C,C6*%
X39140000Y-52892164D02*
X39140000Y-53107836D01*
X39860000Y-52892164D02*
X39860000Y-53107836D01*
%TD*%
M02*
