M48
; DRILL file {KiCad 8.0.2-1} date 2025-01-26T22:20:56-0800
; FORMAT={-:-/ absolute / metric / decimal}
; #@! TF.CreationDate,2025-01-26T22:20:56-08:00
; #@! TF.GenerationSoftware,Kicad,Pcbnew,8.0.2-1
; #@! TF.FileFunction,Plated,1,4,PTH
FMAT,2
METRIC
; #@! TA.AperFunction,Plated,PTH,ViaDrill
T1C0.200
%
G90
G05
T1
X38.5Y-50.5
X38.5Y-52.25
X38.6Y-47.6
X39.25Y-54.0
X39.75Y-55.5
X40.0Y-44.5
X40.0Y-46.0
X40.75Y-57.0
X41.5Y-43.0
X42.5Y-58.4
X43.0Y-41.5
X44.25Y-60.0
X45.75Y-60.0
X46.0Y-40.0
X48.5Y-38.5
X48.5Y-61.5
X50.0Y-61.5
X51.5Y-38.5
X51.75Y-61.5
X54.0Y-40.0
X54.0Y-60.0
X55.25Y-40.0
X57.0Y-58.5
X57.5Y-41.5
X58.5Y-57.0
X59.25Y-43.0
X60.0Y-54.0
X60.0Y-55.5
X60.5Y-46.0
X61.4Y-52.4
X61.5Y-47.75
X61.5Y-49.5
M30
