  0
SECTION
  2
HEADER
  9
$ANGBASE
  50
0.0
  9
$ANGDIR
  70
1
  9
$MEASUREMENT
  70
1
  0
ENDSEC
  0
SECTION
  2
TABLES
  0
TABLE
  2
LTYPE
  70
4
  0
LTYPE
  5
40F
  2
CONTINUOUS
  70
0
  3
Solid line
  72
65
  73
0
  40
0.0
  0
LTYPE
  5
410
  2
DASHDOT
 70
0
  3
Dash Dot ____ _ ____ _
 72
65
 73
4
 40
2.0
 49
1.25
 49
-0.25
 49
0.25
 49
-0.25
  0
LTYPE
  5
411
  2
DASHED
 70
0
  3
Dashed __ __ __ __ __
 72
65
 73
2
 40
0.75
 49
0.5
 49
-0.25
  0
LTYPE
  5
43B
  2
DOTTED
 70
0
  3
Dotted .  .  .  .
 72
65
 73
2
 40
0.2
 49
0.0
 49
-0.2
  0
ENDTAB
  0
TABLE
  2
STYLE
  70
4
  0
STYLE
  2
KICAD
  70
0
  40
0
  41
1
  42
1
  50
0
  71
0
  3
isocp.shx
  0
STYLE
  2
KICADB
  70
0
  40
0
  41
1
  42
1
  50
0
  71
0
  3
isocp.shx
  0
STYLE
  2
KICADI
  70
0
  40
0
  41
1
  42
1
  50
15
  71
0
  3
isocp.shx
  0
STYLE
  2
KICADBI
  70
0
  40
0
  41
1
  42
1
  50
15
  71
0
  3
isocp.shx
  0
ENDTAB
  0
TABLE
  2
LAYER
  70
1
  0
LAYER
  2
BLACK
  70
0
  62
7
  6
CONTINUOUS
  0
ENDTAB
  0
ENDSEC
  0
SECTION
  2
ENTITIES
0
ARC
8
BLACK
10
50.
20
-37.5
40
1.5
50
0.00000000
51
180.00000000
0
CIRCLE
8
BLACK
10
50.
20
-37.5
40
1.
0
ARC
8
BLACK
10
52.
20
-37.5
40
0.5
50
-180.00000000
51
-90.00000000
0
ARC
8
BLACK
10
48.
20
-37.5
40
0.5
50
-90.00000000
51
-0.00000000
0
ARC
8
BLACK
10
50.
20
-50.
40
12.1655250605964387
50
-260.53767779
51
80.53767779
0
LINE
8
BLACK
6
CONTINUOUS
10
40.4172429999999991
20
-65.3053629999999998
11
40.4172429999999991
21
-63.3053629999999998
0
LINE
8
BLACK
6
CONTINUOUS
10
40.4172429999999991
20
-63.3053629999999998
11
40.8934330000000017
21
-63.3053629999999998
0
LINE
8
BLACK
6
CONTINUOUS
10
40.8934330000000017
20
-63.3053629999999998
11
41.1791479999999979
21
-63.4006009999999947
0
LINE
8
BLACK
6
CONTINUOUS
10
41.1791479999999979
20
-63.4006009999999947
11
41.3696239999999946
21
-63.5910769999999985
0
LINE
8
BLACK
6
CONTINUOUS
10
41.3696239999999946
20
-63.5910769999999985
11
41.4648619999999966
21
-63.7815529999999953
0
LINE
8
BLACK
6
CONTINUOUS
10
41.4648619999999966
20
-63.7815529999999953
11
41.5600999999999985
21
-64.1625049999999959
0
LINE
8
BLACK
6
CONTINUOUS
10
41.5600999999999985
20
-64.1625049999999959
11
41.5600999999999985
21
-64.4482199999999921
0
LINE
8
BLACK
6
CONTINUOUS
10
41.5600999999999985
20
-64.4482199999999921
11
41.4648619999999966
21
-64.8291719999999998
0
LINE
8
BLACK
6
CONTINUOUS
10
41.4648619999999966
20
-64.8291719999999998
11
41.3696239999999946
21
-65.0196480000000037
0
LINE
8
BLACK
6
CONTINUOUS
10
41.3696239999999946
20
-65.0196480000000037
11
41.1791479999999979
21
-65.2101249999999908
0
LINE
8
BLACK
6
CONTINUOUS
10
41.1791479999999979
20
-65.2101249999999908
11
40.8934330000000017
21
-65.3053629999999998
0
LINE
8
BLACK
6
CONTINUOUS
10
40.8934330000000017
20
-65.3053629999999998
11
40.4172429999999991
21
-65.3053629999999998
0
LINE
8
BLACK
6
CONTINUOUS
10
42.4172429999999991
20
-65.3053629999999998
11
42.4172429999999991
21
-63.9720289999999991
0
LINE
8
BLACK
6
CONTINUOUS
10
42.4172429999999991
20
-64.3529819999999972
11
42.5124810000000011
21
-64.1625049999999959
0
LINE
8
BLACK
6
CONTINUOUS
10
42.5124810000000011
20
-64.1625049999999959
11
42.6077189999999959
21
-64.0672670000000011
0
LINE
8
BLACK
6
CONTINUOUS
10
42.6077189999999959
20
-64.0672670000000011
11
42.7981949999999998
21
-63.9720289999999991
0
LINE
8
BLACK
6
CONTINUOUS
10
42.7981949999999998
20
-63.9720289999999991
11
42.9886720000000011
21
-63.9720289999999991
0
LINE
8
BLACK
6
CONTINUOUS
10
43.6553380000000004
20
-65.3053629999999998
11
43.6553380000000004
21
-63.9720289999999991
0
LINE
8
BLACK
6
CONTINUOUS
10
43.6553380000000004
20
-63.3053629999999998
11
43.5600999999999985
21
-63.4006009999999947
0
LINE
8
BLACK
6
CONTINUOUS
10
43.5600999999999985
20
-63.4006009999999947
11
43.6553380000000004
21
-63.4958389999999966
0
LINE
8
BLACK
6
CONTINUOUS
10
43.6553380000000004
20
-63.4958389999999966
11
43.7505759999999952
21
-63.4006009999999947
0
LINE
8
BLACK
6
CONTINUOUS
10
43.7505759999999952
20
-63.4006009999999947
11
43.6553380000000004
21
-63.3053629999999998
0
LINE
8
BLACK
6
CONTINUOUS
10
43.6553380000000004
20
-63.3053629999999998
11
43.6553380000000004
21
-63.4958389999999966
0
LINE
8
BLACK
6
CONTINUOUS
10
44.8934329999999946
20
-65.3053629999999998
11
44.7029569999999978
21
-65.2101249999999908
0
LINE
8
BLACK
6
CONTINUOUS
10
44.7029569999999978
20
-65.2101249999999908
11
44.6077189999999959
21
-65.0196480000000037
0
LINE
8
BLACK
6
CONTINUOUS
10
44.6077189999999959
20
-65.0196480000000037
11
44.6077189999999959
21
-63.3053629999999998
0
LINE
8
BLACK
6
CONTINUOUS
10
45.9410519999999991
20
-65.3053629999999998
11
45.7505759999999952
21
-65.2101249999999908
0
LINE
8
BLACK
6
CONTINUOUS
10
45.7505759999999952
20
-65.2101249999999908
11
45.6553380000000004
21
-65.0196480000000037
0
LINE
8
BLACK
6
CONTINUOUS
10
45.6553380000000004
20
-65.0196480000000037
11
45.6553380000000004
21
-63.3053629999999998
0
LINE
8
BLACK
6
CONTINUOUS
10
48.2267669999999953
20
-65.3053629999999998
11
48.2267669999999953
21
-63.3053629999999998
0
LINE
8
BLACK
6
CONTINUOUS
10
48.2267669999999953
20
-63.3053629999999998
11
48.8934339999999992
21
-64.7339339999999908
0
LINE
8
BLACK
6
CONTINUOUS
10
48.8934339999999992
20
-64.7339339999999908
11
49.5600999999999985
21
-63.3053629999999998
0
LINE
8
BLACK
6
CONTINUOUS
10
49.5600999999999985
20
-63.3053629999999998
11
49.5600999999999985
21
-65.3053629999999998
0
LINE
8
BLACK
6
CONTINUOUS
10
51.3696239999999946
20
-65.3053629999999998
11
51.3696239999999946
21
-64.2577440000000024
0
LINE
8
BLACK
6
CONTINUOUS
10
51.3696239999999946
20
-64.2577440000000024
11
51.2743859999999998
21
-64.0672670000000011
0
LINE
8
BLACK
6
CONTINUOUS
10
51.2743859999999998
20
-64.0672670000000011
11
51.0839099999999959
21
-63.9720289999999991
0
LINE
8
BLACK
6
CONTINUOUS
10
51.0839099999999959
20
-63.9720289999999991
11
50.7029569999999978
21
-63.9720289999999991
0
LINE
8
BLACK
6
CONTINUOUS
10
50.7029569999999978
20
-63.9720289999999991
11
50.5124810000000011
21
-64.0672670000000011
0
LINE
8
BLACK
6
CONTINUOUS
10
51.3696239999999946
20
-65.2101249999999908
11
51.1791479999999979
21
-65.3053629999999998
0
LINE
8
BLACK
6
CONTINUOUS
10
51.1791479999999979
20
-65.3053629999999998
11
50.7029569999999978
21
-65.3053629999999998
0
LINE
8
BLACK
6
CONTINUOUS
10
50.7029569999999978
20
-65.3053629999999998
11
50.5124810000000011
21
-65.2101249999999908
0
LINE
8
BLACK
6
CONTINUOUS
10
50.5124810000000011
20
-65.2101249999999908
11
50.4172429999999991
21
-65.0196480000000037
0
LINE
8
BLACK
6
CONTINUOUS
10
50.4172429999999991
20
-65.0196480000000037
11
50.4172429999999991
21
-64.8291719999999998
0
LINE
8
BLACK
6
CONTINUOUS
10
50.4172429999999991
20
-64.8291719999999998
11
50.5124810000000011
21
-64.6386959999999959
0
LINE
8
BLACK
6
CONTINUOUS
10
50.5124810000000011
20
-64.6386959999999959
11
50.7029569999999978
21
-64.5434580000000011
0
LINE
8
BLACK
6
CONTINUOUS
10
50.7029569999999978
20
-64.5434580000000011
11
51.1791479999999979
21
-64.5434580000000011
0
LINE
8
BLACK
6
CONTINUOUS
10
51.1791479999999979
20
-64.5434580000000011
11
51.3696239999999946
21
-64.4482199999999921
0
LINE
8
BLACK
6
CONTINUOUS
10
52.3220049999999972
20
-63.9720289999999991
11
52.3220049999999972
21
-65.972028999999992
0
LINE
8
BLACK
6
CONTINUOUS
10
52.3220049999999972
20
-64.0672670000000011
11
52.5124810000000011
21
-63.9720289999999991
0
LINE
8
BLACK
6
CONTINUOUS
10
52.5124810000000011
20
-63.9720289999999991
11
52.8934339999999992
21
-63.9720289999999991
0
LINE
8
BLACK
6
CONTINUOUS
10
52.8934339999999992
20
-63.9720289999999991
11
53.0839099999999959
21
-64.0672670000000011
0
LINE
8
BLACK
6
CONTINUOUS
10
53.0839099999999959
20
-64.0672670000000011
11
53.1791479999999979
21
-64.1625049999999959
0
LINE
8
BLACK
6
CONTINUOUS
10
53.1791479999999979
20
-64.1625049999999959
11
53.2743859999999998
21
-64.3529819999999972
0
LINE
8
BLACK
6
CONTINUOUS
10
53.2743859999999998
20
-64.3529819999999972
11
53.2743859999999998
21
-64.9244099999999946
0
LINE
8
BLACK
6
CONTINUOUS
10
53.2743859999999998
20
-64.9244099999999946
11
53.1791479999999979
21
-65.1148859999999985
0
LINE
8
BLACK
6
CONTINUOUS
10
53.1791479999999979
20
-65.1148859999999985
11
53.0839099999999959
21
-65.2101249999999908
0
LINE
8
BLACK
6
CONTINUOUS
10
53.0839099999999959
20
-65.2101249999999908
11
52.8934339999999992
21
-65.3053629999999998
0
LINE
8
BLACK
6
CONTINUOUS
10
52.8934339999999992
20
-65.3053629999999998
11
52.5124810000000011
21
-65.3053629999999998
0
LINE
8
BLACK
6
CONTINUOUS
10
52.5124810000000011
20
-65.3053629999999998
11
52.3220049999999972
21
-65.2101249999999908
0
LINE
8
BLACK
6
CONTINUOUS
10
54.1315290000000005
20
-65.1148859999999985
11
54.2267669999999953
21
-65.2101249999999908
0
LINE
8
BLACK
6
CONTINUOUS
10
54.2267669999999953
20
-65.2101249999999908
11
54.1315290000000005
21
-65.3053629999999998
0
LINE
8
BLACK
6
CONTINUOUS
10
54.1315290000000005
20
-65.3053629999999998
11
54.0362909999999985
21
-65.2101249999999908
0
LINE
8
BLACK
6
CONTINUOUS
10
54.0362909999999985
20
-65.2101249999999908
11
54.1315290000000005
21
-65.1148859999999985
0
LINE
8
BLACK
6
CONTINUOUS
10
54.1315290000000005
20
-65.1148859999999985
11
54.1315290000000005
21
-65.3053629999999998
0
LINE
8
BLACK
6
CONTINUOUS
10
54.1315290000000005
20
-64.0672670000000011
11
54.2267669999999953
21
-64.1625049999999959
0
LINE
8
BLACK
6
CONTINUOUS
10
54.2267669999999953
20
-64.1625049999999959
11
54.1315290000000005
21
-64.2577440000000024
0
LINE
8
BLACK
6
CONTINUOUS
10
54.1315290000000005
20
-64.2577440000000024
11
54.0362909999999985
21
-64.1625049999999959
0
LINE
8
BLACK
6
CONTINUOUS
10
54.0362909999999985
20
-64.1625049999999959
11
54.1315290000000005
21
-64.0672670000000011
0
LINE
8
BLACK
6
CONTINUOUS
10
54.1315290000000005
20
-64.0672670000000011
11
54.1315290000000005
21
-64.2577440000000024
  0
ENDSEC
  0
EOF
