  0
SECTION
  2
HEADER
  9
$ANGBASE
  50
0.0
  9
$ANGDIR
  70
1
  9
$MEASUREMENT
  70
1
  0
ENDSEC
  0
SECTION
  2
TABLES
  0
TABLE
  2
LTYPE
  70
4
  0
LTYPE
  5
40F
  2
CONTINUOUS
  70
0
  3
Solid line
  72
65
  73
0
  40
0.0
  0
LTYPE
  5
410
  2
DASHDOT
 70
0
  3
Dash Dot ____ _ ____ _
 72
65
 73
4
 40
2.0
 49
1.25
 49
-0.25
 49
0.25
 49
-0.25
  0
LTYPE
  5
411
  2
DASHED
 70
0
  3
Dashed __ __ __ __ __
 72
65
 73
2
 40
0.75
 49
0.5
 49
-0.25
  0
LTYPE
  5
43B
  2
DOTTED
 70
0
  3
Dotted .  .  .  .
 72
65
 73
2
 40
0.2
 49
0.0
 49
-0.2
  0
ENDTAB
  0
TABLE
  2
STYLE
  70
4
  0
STYLE
  2
KICAD
  70
0
  40
0
  41
1
  42
1
  50
0
  71
0
  3
isocp.shx
  0
STYLE
  2
KICADB
  70
0
  40
0
  41
1
  42
1
  50
0
  71
0
  3
isocp.shx
  0
STYLE
  2
KICADI
  70
0
  40
0
  41
1
  42
1
  50
15
  71
0
  3
isocp.shx
  0
STYLE
  2
KICADBI
  70
0
  40
0
  41
1
  42
1
  50
15
  71
0
  3
isocp.shx
  0
ENDTAB
  0
TABLE
  2
LAYER
  70
1
  0
LAYER
  2
BLACK
  70
0
  62
7
  6
CONTINUOUS
  0
ENDTAB
  0
ENDSEC
  0
SECTION
  2
ENTITIES
0
ARC
8
BLACK
10
50.
20
-37.5
40
1.5
50
0.00000000
51
180.00000000
0
CIRCLE
8
BLACK
10
50.
20
-37.5
40
1.
0
ARC
8
BLACK
10
52.
20
-37.5
40
0.5
50
-180.00000000
51
-90.00000000
0
ARC
8
BLACK
10
48.
20
-37.5
40
0.5
50
-90.00000000
51
-0.00000000
0
ARC
8
BLACK
10
50.
20
-50.
40
12.1655250605964387
50
-260.53767779
51
80.53767779
0
LINE
8
BLACK
6
CONTINUOUS
10
38.3999999999999986
20
-50.3999999999999986
11
38.6000000000000014
21
-50.5999999999999943
0
LINE
8
BLACK
6
CONTINUOUS
10
38.6000000000000014
20
-50.3999999999999986
11
38.3999999999999986
21
-50.5999999999999943
0
LINE
8
BLACK
6
CONTINUOUS
10
38.3999999999999986
20
-52.1499999999999986
11
38.6000000000000014
21
-52.3499999999999943
0
LINE
8
BLACK
6
CONTINUOUS
10
38.6000000000000014
20
-52.1499999999999986
11
38.3999999999999986
21
-52.3499999999999943
0
LINE
8
BLACK
6
CONTINUOUS
10
38.5
20
-47.5
11
38.6999999999999957
21
-47.6999999999999957
0
LINE
8
BLACK
6
CONTINUOUS
10
38.6999999999999957
20
-47.5
11
38.5
21
-47.6999999999999957
0
LINE
8
BLACK
6
CONTINUOUS
10
39.1499999999999986
20
-53.8999999999999986
11
39.3500000000000014
21
-54.0999999999999943
0
LINE
8
BLACK
6
CONTINUOUS
10
39.3500000000000014
20
-53.8999999999999986
11
39.1499999999999986
21
-54.0999999999999943
0
LINE
8
BLACK
6
CONTINUOUS
10
39.6499999999999986
20
-55.3999999999999986
11
39.8500000000000014
21
-55.5999999999999943
0
LINE
8
BLACK
6
CONTINUOUS
10
39.8500000000000014
20
-55.3999999999999986
11
39.6499999999999986
21
-55.5999999999999943
0
LINE
8
BLACK
6
CONTINUOUS
10
39.8999999999999986
20
-44.3999999999999986
11
40.1000000000000014
21
-44.6000000000000014
0
LINE
8
BLACK
6
CONTINUOUS
10
40.1000000000000014
20
-44.3999999999999986
11
39.8999999999999986
21
-44.6000000000000014
0
LINE
8
BLACK
6
CONTINUOUS
10
39.8999999999999986
20
-45.8999999999999986
11
40.1000000000000014
21
-46.1000000000000014
0
LINE
8
BLACK
6
CONTINUOUS
10
40.1000000000000014
20
-45.8999999999999986
11
39.8999999999999986
21
-46.1000000000000014
0
LINE
8
BLACK
6
CONTINUOUS
10
40.6499999999999986
20
-56.8999999999999986
11
40.8500000000000014
21
-57.0999999999999943
0
LINE
8
BLACK
6
CONTINUOUS
10
40.8500000000000014
20
-56.8999999999999986
11
40.6499999999999986
21
-57.0999999999999943
0
LINE
8
BLACK
6
CONTINUOUS
10
41.3999999999999986
20
-42.8999999999999986
11
41.6000000000000014
21
-43.1000000000000014
0
LINE
8
BLACK
6
CONTINUOUS
10
41.6000000000000014
20
-42.8999999999999986
11
41.3999999999999986
21
-43.1000000000000014
0
LINE
8
BLACK
6
CONTINUOUS
10
42.3999999999999986
20
-58.2999999999999972
11
42.6000000000000014
21
-58.5
0
LINE
8
BLACK
6
CONTINUOUS
10
42.6000000000000014
20
-58.2999999999999972
11
42.3999999999999986
21
-58.5
0
LINE
8
BLACK
6
CONTINUOUS
10
42.8999999999999986
20
-41.3999999999999986
11
43.1000000000000014
21
-41.6000000000000014
0
LINE
8
BLACK
6
CONTINUOUS
10
43.1000000000000014
20
-41.3999999999999986
11
42.8999999999999986
21
-41.6000000000000014
0
LINE
8
BLACK
6
CONTINUOUS
10
44.1499999999999986
20
-59.8999999999999986
11
44.3500000000000014
21
-60.0999999999999943
0
LINE
8
BLACK
6
CONTINUOUS
10
44.3500000000000014
20
-59.8999999999999986
11
44.1499999999999986
21
-60.0999999999999943
0
LINE
8
BLACK
6
CONTINUOUS
10
45.6499999999999986
20
-59.8999999999999986
11
45.8500000000000014
21
-60.0999999999999943
0
LINE
8
BLACK
6
CONTINUOUS
10
45.8500000000000014
20
-59.8999999999999986
11
45.6499999999999986
21
-60.0999999999999943
0
LINE
8
BLACK
6
CONTINUOUS
10
45.8999999999999986
20
-39.8999999999999986
11
46.1000000000000014
21
-40.1000000000000014
0
LINE
8
BLACK
6
CONTINUOUS
10
46.1000000000000014
20
-39.8999999999999986
11
45.8999999999999986
21
-40.1000000000000014
0
LINE
8
BLACK
6
CONTINUOUS
10
48.3999999999999986
20
-38.3999999999999986
11
48.5999999999999943
21
-38.6000000000000014
0
LINE
8
BLACK
6
CONTINUOUS
10
48.5999999999999943
20
-38.3999999999999986
11
48.3999999999999986
21
-38.6000000000000014
0
LINE
8
BLACK
6
CONTINUOUS
10
48.3999999999999986
20
-61.3999999999999986
11
48.5999999999999943
21
-61.5999999999999943
0
LINE
8
BLACK
6
CONTINUOUS
10
48.5999999999999943
20
-61.3999999999999986
11
48.3999999999999986
21
-61.5999999999999943
0
LINE
8
BLACK
6
CONTINUOUS
10
49.8999999999999986
20
-61.3999999999999986
11
50.0999999999999943
21
-61.5999999999999943
0
LINE
8
BLACK
6
CONTINUOUS
10
50.0999999999999943
20
-61.3999999999999986
11
49.8999999999999986
21
-61.5999999999999943
0
LINE
8
BLACK
6
CONTINUOUS
10
51.3999999999999986
20
-38.3999999999999986
11
51.5999999999999943
21
-38.6000000000000014
0
LINE
8
BLACK
6
CONTINUOUS
10
51.5999999999999943
20
-38.3999999999999986
11
51.3999999999999986
21
-38.6000000000000014
0
LINE
8
BLACK
6
CONTINUOUS
10
51.6499999999999986
20
-61.3999999999999986
11
51.8499999999999943
21
-61.5999999999999943
0
LINE
8
BLACK
6
CONTINUOUS
10
51.8499999999999943
20
-61.3999999999999986
11
51.6499999999999986
21
-61.5999999999999943
0
LINE
8
BLACK
6
CONTINUOUS
10
53.8999999999999986
20
-39.8999999999999986
11
54.0999999999999943
21
-40.1000000000000014
0
LINE
8
BLACK
6
CONTINUOUS
10
54.0999999999999943
20
-39.8999999999999986
11
53.8999999999999986
21
-40.1000000000000014
0
LINE
8
BLACK
6
CONTINUOUS
10
53.8999999999999986
20
-59.8999999999999986
11
54.0999999999999943
21
-60.0999999999999943
0
LINE
8
BLACK
6
CONTINUOUS
10
54.0999999999999943
20
-59.8999999999999986
11
53.8999999999999986
21
-60.0999999999999943
0
LINE
8
BLACK
6
CONTINUOUS
10
55.1499999999999986
20
-39.8999999999999986
11
55.3499999999999943
21
-40.1000000000000014
0
LINE
8
BLACK
6
CONTINUOUS
10
55.3499999999999943
20
-39.8999999999999986
11
55.1499999999999986
21
-40.1000000000000014
0
LINE
8
BLACK
6
CONTINUOUS
10
56.8999999999999986
20
-58.3999999999999986
11
57.0999999999999943
21
-58.5999999999999943
0
LINE
8
BLACK
6
CONTINUOUS
10
57.0999999999999943
20
-58.3999999999999986
11
56.8999999999999986
21
-58.5999999999999943
0
LINE
8
BLACK
6
CONTINUOUS
10
57.3999999999999986
20
-41.3999999999999986
11
57.5999999999999943
21
-41.6000000000000014
0
LINE
8
BLACK
6
CONTINUOUS
10
57.5999999999999943
20
-41.3999999999999986
11
57.3999999999999986
21
-41.6000000000000014
0
LINE
8
BLACK
6
CONTINUOUS
10
58.3999999999999986
20
-56.8999999999999986
11
58.5999999999999943
21
-57.0999999999999943
0
LINE
8
BLACK
6
CONTINUOUS
10
58.5999999999999943
20
-56.8999999999999986
11
58.3999999999999986
21
-57.0999999999999943
0
LINE
8
BLACK
6
CONTINUOUS
10
59.1499999999999986
20
-42.8999999999999986
11
59.3499999999999943
21
-43.1000000000000014
0
LINE
8
BLACK
6
CONTINUOUS
10
59.3499999999999943
20
-42.8999999999999986
11
59.1499999999999986
21
-43.1000000000000014
0
LINE
8
BLACK
6
CONTINUOUS
10
59.8999999999999986
20
-53.8999999999999986
11
60.0999999999999943
21
-54.0999999999999943
0
LINE
8
BLACK
6
CONTINUOUS
10
60.0999999999999943
20
-53.8999999999999986
11
59.8999999999999986
21
-54.0999999999999943
0
LINE
8
BLACK
6
CONTINUOUS
10
59.8999999999999986
20
-55.3999999999999986
11
60.0999999999999943
21
-55.5999999999999943
0
LINE
8
BLACK
6
CONTINUOUS
10
60.0999999999999943
20
-55.3999999999999986
11
59.8999999999999986
21
-55.5999999999999943
0
LINE
8
BLACK
6
CONTINUOUS
10
60.3999999999999986
20
-45.8999999999999986
11
60.5999999999999943
21
-46.1000000000000014
0
LINE
8
BLACK
6
CONTINUOUS
10
60.5999999999999943
20
-45.8999999999999986
11
60.3999999999999986
21
-46.1000000000000014
0
LINE
8
BLACK
6
CONTINUOUS
10
61.2999999999999972
20
-52.2999999999999972
11
61.5
21
-52.5
0
LINE
8
BLACK
6
CONTINUOUS
10
61.5
20
-52.2999999999999972
11
61.2999999999999972
21
-52.5
0
LINE
8
BLACK
6
CONTINUOUS
10
61.3999999999999986
20
-47.6499999999999986
11
61.5999999999999943
21
-47.8499999999999943
0
LINE
8
BLACK
6
CONTINUOUS
10
61.5999999999999943
20
-47.6499999999999986
11
61.3999999999999986
21
-47.8499999999999943
0
LINE
8
BLACK
6
CONTINUOUS
10
61.3999999999999986
20
-49.3999999999999986
11
61.5999999999999943
21
-49.5999999999999943
0
LINE
8
BLACK
6
CONTINUOUS
10
61.5999999999999943
20
-49.3999999999999986
11
61.3999999999999986
21
-49.5999999999999943
0
LINE
8
BLACK
6
CONTINUOUS
10
40.4172429999999991
20
-65.3053629999999998
11
40.4172429999999991
21
-63.3053629999999998
0
LINE
8
BLACK
6
CONTINUOUS
10
40.4172429999999991
20
-63.3053629999999998
11
40.8934330000000017
21
-63.3053629999999998
0
LINE
8
BLACK
6
CONTINUOUS
10
40.8934330000000017
20
-63.3053629999999998
11
41.1791479999999979
21
-63.4006009999999947
0
LINE
8
BLACK
6
CONTINUOUS
10
41.1791479999999979
20
-63.4006009999999947
11
41.3696239999999946
21
-63.5910769999999985
0
LINE
8
BLACK
6
CONTINUOUS
10
41.3696239999999946
20
-63.5910769999999985
11
41.4648619999999966
21
-63.7815529999999953
0
LINE
8
BLACK
6
CONTINUOUS
10
41.4648619999999966
20
-63.7815529999999953
11
41.5600999999999985
21
-64.1625049999999959
0
LINE
8
BLACK
6
CONTINUOUS
10
41.5600999999999985
20
-64.1625049999999959
11
41.5600999999999985
21
-64.4482199999999921
0
LINE
8
BLACK
6
CONTINUOUS
10
41.5600999999999985
20
-64.4482199999999921
11
41.4648619999999966
21
-64.8291719999999998
0
LINE
8
BLACK
6
CONTINUOUS
10
41.4648619999999966
20
-64.8291719999999998
11
41.3696239999999946
21
-65.0196480000000037
0
LINE
8
BLACK
6
CONTINUOUS
10
41.3696239999999946
20
-65.0196480000000037
11
41.1791479999999979
21
-65.2101249999999908
0
LINE
8
BLACK
6
CONTINUOUS
10
41.1791479999999979
20
-65.2101249999999908
11
40.8934330000000017
21
-65.3053629999999998
0
LINE
8
BLACK
6
CONTINUOUS
10
40.8934330000000017
20
-65.3053629999999998
11
40.4172429999999991
21
-65.3053629999999998
0
LINE
8
BLACK
6
CONTINUOUS
10
42.4172429999999991
20
-65.3053629999999998
11
42.4172429999999991
21
-63.9720289999999991
0
LINE
8
BLACK
6
CONTINUOUS
10
42.4172429999999991
20
-64.3529819999999972
11
42.5124810000000011
21
-64.1625049999999959
0
LINE
8
BLACK
6
CONTINUOUS
10
42.5124810000000011
20
-64.1625049999999959
11
42.6077189999999959
21
-64.0672670000000011
0
LINE
8
BLACK
6
CONTINUOUS
10
42.6077189999999959
20
-64.0672670000000011
11
42.7981949999999998
21
-63.9720289999999991
0
LINE
8
BLACK
6
CONTINUOUS
10
42.7981949999999998
20
-63.9720289999999991
11
42.9886720000000011
21
-63.9720289999999991
0
LINE
8
BLACK
6
CONTINUOUS
10
43.6553380000000004
20
-65.3053629999999998
11
43.6553380000000004
21
-63.9720289999999991
0
LINE
8
BLACK
6
CONTINUOUS
10
43.6553380000000004
20
-63.3053629999999998
11
43.5600999999999985
21
-63.4006009999999947
0
LINE
8
BLACK
6
CONTINUOUS
10
43.5600999999999985
20
-63.4006009999999947
11
43.6553380000000004
21
-63.4958389999999966
0
LINE
8
BLACK
6
CONTINUOUS
10
43.6553380000000004
20
-63.4958389999999966
11
43.7505759999999952
21
-63.4006009999999947
0
LINE
8
BLACK
6
CONTINUOUS
10
43.7505759999999952
20
-63.4006009999999947
11
43.6553380000000004
21
-63.3053629999999998
0
LINE
8
BLACK
6
CONTINUOUS
10
43.6553380000000004
20
-63.3053629999999998
11
43.6553380000000004
21
-63.4958389999999966
0
LINE
8
BLACK
6
CONTINUOUS
10
44.8934329999999946
20
-65.3053629999999998
11
44.7029569999999978
21
-65.2101249999999908
0
LINE
8
BLACK
6
CONTINUOUS
10
44.7029569999999978
20
-65.2101249999999908
11
44.6077189999999959
21
-65.0196480000000037
0
LINE
8
BLACK
6
CONTINUOUS
10
44.6077189999999959
20
-65.0196480000000037
11
44.6077189999999959
21
-63.3053629999999998
0
LINE
8
BLACK
6
CONTINUOUS
10
45.9410519999999991
20
-65.3053629999999998
11
45.7505759999999952
21
-65.2101249999999908
0
LINE
8
BLACK
6
CONTINUOUS
10
45.7505759999999952
20
-65.2101249999999908
11
45.6553380000000004
21
-65.0196480000000037
0
LINE
8
BLACK
6
CONTINUOUS
10
45.6553380000000004
20
-65.0196480000000037
11
45.6553380000000004
21
-63.3053629999999998
0
LINE
8
BLACK
6
CONTINUOUS
10
48.2267669999999953
20
-65.3053629999999998
11
48.2267669999999953
21
-63.3053629999999998
0
LINE
8
BLACK
6
CONTINUOUS
10
48.2267669999999953
20
-63.3053629999999998
11
48.8934339999999992
21
-64.7339339999999908
0
LINE
8
BLACK
6
CONTINUOUS
10
48.8934339999999992
20
-64.7339339999999908
11
49.5600999999999985
21
-63.3053629999999998
0
LINE
8
BLACK
6
CONTINUOUS
10
49.5600999999999985
20
-63.3053629999999998
11
49.5600999999999985
21
-65.3053629999999998
0
LINE
8
BLACK
6
CONTINUOUS
10
51.3696239999999946
20
-65.3053629999999998
11
51.3696239999999946
21
-64.2577440000000024
0
LINE
8
BLACK
6
CONTINUOUS
10
51.3696239999999946
20
-64.2577440000000024
11
51.2743859999999998
21
-64.0672670000000011
0
LINE
8
BLACK
6
CONTINUOUS
10
51.2743859999999998
20
-64.0672670000000011
11
51.0839099999999959
21
-63.9720289999999991
0
LINE
8
BLACK
6
CONTINUOUS
10
51.0839099999999959
20
-63.9720289999999991
11
50.7029569999999978
21
-63.9720289999999991
0
LINE
8
BLACK
6
CONTINUOUS
10
50.7029569999999978
20
-63.9720289999999991
11
50.5124810000000011
21
-64.0672670000000011
0
LINE
8
BLACK
6
CONTINUOUS
10
51.3696239999999946
20
-65.2101249999999908
11
51.1791479999999979
21
-65.3053629999999998
0
LINE
8
BLACK
6
CONTINUOUS
10
51.1791479999999979
20
-65.3053629999999998
11
50.7029569999999978
21
-65.3053629999999998
0
LINE
8
BLACK
6
CONTINUOUS
10
50.7029569999999978
20
-65.3053629999999998
11
50.5124810000000011
21
-65.2101249999999908
0
LINE
8
BLACK
6
CONTINUOUS
10
50.5124810000000011
20
-65.2101249999999908
11
50.4172429999999991
21
-65.0196480000000037
0
LINE
8
BLACK
6
CONTINUOUS
10
50.4172429999999991
20
-65.0196480000000037
11
50.4172429999999991
21
-64.8291719999999998
0
LINE
8
BLACK
6
CONTINUOUS
10
50.4172429999999991
20
-64.8291719999999998
11
50.5124810000000011
21
-64.6386959999999959
0
LINE
8
BLACK
6
CONTINUOUS
10
50.5124810000000011
20
-64.6386959999999959
11
50.7029569999999978
21
-64.5434580000000011
0
LINE
8
BLACK
6
CONTINUOUS
10
50.7029569999999978
20
-64.5434580000000011
11
51.1791479999999979
21
-64.5434580000000011
0
LINE
8
BLACK
6
CONTINUOUS
10
51.1791479999999979
20
-64.5434580000000011
11
51.3696239999999946
21
-64.4482199999999921
0
LINE
8
BLACK
6
CONTINUOUS
10
52.3220049999999972
20
-63.9720289999999991
11
52.3220049999999972
21
-65.972028999999992
0
LINE
8
BLACK
6
CONTINUOUS
10
52.3220049999999972
20
-64.0672670000000011
11
52.5124810000000011
21
-63.9720289999999991
0
LINE
8
BLACK
6
CONTINUOUS
10
52.5124810000000011
20
-63.9720289999999991
11
52.8934339999999992
21
-63.9720289999999991
0
LINE
8
BLACK
6
CONTINUOUS
10
52.8934339999999992
20
-63.9720289999999991
11
53.0839099999999959
21
-64.0672670000000011
0
LINE
8
BLACK
6
CONTINUOUS
10
53.0839099999999959
20
-64.0672670000000011
11
53.1791479999999979
21
-64.1625049999999959
0
LINE
8
BLACK
6
CONTINUOUS
10
53.1791479999999979
20
-64.1625049999999959
11
53.2743859999999998
21
-64.3529819999999972
0
LINE
8
BLACK
6
CONTINUOUS
10
53.2743859999999998
20
-64.3529819999999972
11
53.2743859999999998
21
-64.9244099999999946
0
LINE
8
BLACK
6
CONTINUOUS
10
53.2743859999999998
20
-64.9244099999999946
11
53.1791479999999979
21
-65.1148859999999985
0
LINE
8
BLACK
6
CONTINUOUS
10
53.1791479999999979
20
-65.1148859999999985
11
53.0839099999999959
21
-65.2101249999999908
0
LINE
8
BLACK
6
CONTINUOUS
10
53.0839099999999959
20
-65.2101249999999908
11
52.8934339999999992
21
-65.3053629999999998
0
LINE
8
BLACK
6
CONTINUOUS
10
52.8934339999999992
20
-65.3053629999999998
11
52.5124810000000011
21
-65.3053629999999998
0
LINE
8
BLACK
6
CONTINUOUS
10
52.5124810000000011
20
-65.3053629999999998
11
52.3220049999999972
21
-65.2101249999999908
0
LINE
8
BLACK
6
CONTINUOUS
10
54.1315290000000005
20
-65.1148859999999985
11
54.2267669999999953
21
-65.2101249999999908
0
LINE
8
BLACK
6
CONTINUOUS
10
54.2267669999999953
20
-65.2101249999999908
11
54.1315290000000005
21
-65.3053629999999998
0
LINE
8
BLACK
6
CONTINUOUS
10
54.1315290000000005
20
-65.3053629999999998
11
54.0362909999999985
21
-65.2101249999999908
0
LINE
8
BLACK
6
CONTINUOUS
10
54.0362909999999985
20
-65.2101249999999908
11
54.1315290000000005
21
-65.1148859999999985
0
LINE
8
BLACK
6
CONTINUOUS
10
54.1315290000000005
20
-65.1148859999999985
11
54.1315290000000005
21
-65.3053629999999998
0
LINE
8
BLACK
6
CONTINUOUS
10
54.1315290000000005
20
-64.0672670000000011
11
54.2267669999999953
21
-64.1625049999999959
0
LINE
8
BLACK
6
CONTINUOUS
10
54.2267669999999953
20
-64.1625049999999959
11
54.1315290000000005
21
-64.2577440000000024
0
LINE
8
BLACK
6
CONTINUOUS
10
54.1315290000000005
20
-64.2577440000000024
11
54.0362909999999985
21
-64.1625049999999959
0
LINE
8
BLACK
6
CONTINUOUS
10
54.0362909999999985
20
-64.1625049999999959
11
54.1315290000000005
21
-64.0672670000000011
0
LINE
8
BLACK
6
CONTINUOUS
10
54.1315290000000005
20
-64.0672670000000011
11
54.1315290000000005
21
-64.2577440000000024
0
LINE
8
BLACK
6
CONTINUOUS
10
37.6094749999999962
20
-68.490524999999991
11
37.8094749999999991
21
-68.6905249999999938
0
LINE
8
BLACK
6
CONTINUOUS
10
37.8094749999999991
20
-68.490524999999991
11
37.6094749999999962
21
-68.6905249999999938
0
LINE
8
BLACK
6
CONTINUOUS
10
40.7981949999999998
20
-67.5053630000000027
11
40.9886720000000011
21
-67.5053630000000027
0
LINE
8
BLACK
6
CONTINUOUS
10
40.9886720000000011
20
-67.5053630000000027
11
41.1791479999999979
21
-67.6006009999999975
0
LINE
8
BLACK
6
CONTINUOUS
10
41.1791479999999979
20
-67.6006009999999975
11
41.2743859999999998
21
-67.6958389999999923
0
LINE
8
BLACK
6
CONTINUOUS
10
41.2743859999999998
20
-67.6958389999999923
11
41.3696239999999946
21
-67.8863149999999962
0
LINE
8
BLACK
6
CONTINUOUS
10
41.3696239999999946
20
-67.8863149999999962
11
41.4648619999999966
21
-68.2672670000000039
0
LINE
8
BLACK
6
CONTINUOUS
10
41.4648619999999966
20
-68.2672670000000039
11
41.4648619999999966
21
-68.7434580000000039
0
LINE
8
BLACK
6
CONTINUOUS
10
41.4648619999999966
20
-68.7434580000000039
11
41.3696239999999946
21
-69.1244099999999975
0
LINE
8
BLACK
6
CONTINUOUS
10
41.3696239999999946
20
-69.1244099999999975
11
41.2743859999999998
21
-69.3148860000000013
0
LINE
8
BLACK
6
CONTINUOUS
10
41.2743859999999998
20
-69.3148860000000013
11
41.1791479999999979
21
-69.4101249999999936
0
LINE
8
BLACK
6
CONTINUOUS
10
41.1791479999999979
20
-69.4101249999999936
11
40.9886720000000011
21
-69.5053630000000027
0
LINE
8
BLACK
6
CONTINUOUS
10
40.9886720000000011
20
-69.5053630000000027
11
40.7981949999999998
21
-69.5053630000000027
0
LINE
8
BLACK
6
CONTINUOUS
10
40.7981949999999998
20
-69.5053630000000027
11
40.6077189999999959
21
-69.4101249999999936
0
LINE
8
BLACK
6
CONTINUOUS
10
40.6077189999999959
20
-69.4101249999999936
11
40.5124810000000011
21
-69.3148860000000013
0
LINE
8
BLACK
6
CONTINUOUS
10
40.5124810000000011
20
-69.3148860000000013
11
40.4172429999999991
21
-69.1244099999999975
0
LINE
8
BLACK
6
CONTINUOUS
10
40.4172429999999991
20
-69.1244099999999975
11
40.3220049999999972
21
-68.7434580000000039
0
LINE
8
BLACK
6
CONTINUOUS
10
40.3220049999999972
20
-68.7434580000000039
11
40.3220049999999972
21
-68.2672670000000039
0
LINE
8
BLACK
6
CONTINUOUS
10
40.3220049999999972
20
-68.2672670000000039
11
40.4172429999999991
21
-67.8863149999999962
0
LINE
8
BLACK
6
CONTINUOUS
10
40.4172429999999991
20
-67.8863149999999962
11
40.5124810000000011
21
-67.6958389999999923
0
LINE
8
BLACK
6
CONTINUOUS
10
40.5124810000000011
20
-67.6958389999999923
11
40.6077189999999959
21
-67.6006009999999975
0
LINE
8
BLACK
6
CONTINUOUS
10
40.6077189999999959
20
-67.6006009999999975
11
40.7981949999999998
21
-67.5053630000000027
0
LINE
8
BLACK
6
CONTINUOUS
10
42.3220049999999972
20
-69.3148860000000013
11
42.4172429999999991
21
-69.4101249999999936
0
LINE
8
BLACK
6
CONTINUOUS
10
42.4172429999999991
20
-69.4101249999999936
11
42.3220049999999972
21
-69.5053630000000027
0
LINE
8
BLACK
6
CONTINUOUS
10
42.3220049999999972
20
-69.5053630000000027
11
42.2267669999999953
21
-69.4101249999999936
0
LINE
8
BLACK
6
CONTINUOUS
10
42.2267669999999953
20
-69.4101249999999936
11
42.3220049999999972
21
-69.3148860000000013
0
LINE
8
BLACK
6
CONTINUOUS
10
42.3220049999999972
20
-69.3148860000000013
11
42.3220049999999972
21
-69.5053630000000027
0
LINE
8
BLACK
6
CONTINUOUS
10
43.1791479999999979
20
-67.6958389999999923
11
43.2743859999999998
21
-67.6006009999999975
0
LINE
8
BLACK
6
CONTINUOUS
10
43.2743859999999998
20
-67.6006009999999975
11
43.4648619999999966
21
-67.5053630000000027
0
LINE
8
BLACK
6
CONTINUOUS
10
43.4648619999999966
20
-67.5053630000000027
11
43.9410529999999966
21
-67.5053630000000027
0
LINE
8
BLACK
6
CONTINUOUS
10
43.9410529999999966
20
-67.5053630000000027
11
44.1315290000000005
21
-67.6006009999999975
0
LINE
8
BLACK
6
CONTINUOUS
10
44.1315290000000005
20
-67.6006009999999975
11
44.2267669999999953
21
-67.6958389999999923
0
LINE
8
BLACK
6
CONTINUOUS
10
44.2267669999999953
20
-67.6958389999999923
11
44.3220049999999972
21
-67.8863149999999962
0
LINE
8
BLACK
6
CONTINUOUS
10
44.3220049999999972
20
-67.8863149999999962
11
44.3220049999999972
21
-68.0767910000000001
0
LINE
8
BLACK
6
CONTINUOUS
10
44.3220049999999972
20
-68.0767910000000001
11
44.2267669999999953
21
-68.3625049999999987
0
LINE
8
BLACK
6
CONTINUOUS
10
44.2267669999999953
20
-68.3625049999999987
11
43.0839099999999959
21
-69.5053630000000027
0
LINE
8
BLACK
6
CONTINUOUS
10
43.0839099999999959
20
-69.5053630000000027
11
44.3220049999999972
21
-69.5053630000000027
0
LINE
8
BLACK
6
CONTINUOUS
10
45.5600999999999985
20
-67.5053630000000027
11
45.7505769999999998
21
-67.5053630000000027
0
LINE
8
BLACK
6
CONTINUOUS
10
45.7505769999999998
20
-67.5053630000000027
11
45.9410529999999966
21
-67.6006009999999975
0
LINE
8
BLACK
6
CONTINUOUS
10
45.9410529999999966
20
-67.6006009999999975
11
46.0362909999999985
21
-67.6958389999999923
0
LINE
8
BLACK
6
CONTINUOUS
10
46.0362909999999985
20
-67.6958389999999923
11
46.1315290000000005
21
-67.8863149999999962
0
LINE
8
BLACK
6
CONTINUOUS
10
46.1315290000000005
20
-67.8863149999999962
11
46.2267669999999953
21
-68.2672670000000039
0
LINE
8
BLACK
6
CONTINUOUS
10
46.2267669999999953
20
-68.2672670000000039
11
46.2267669999999953
21
-68.7434580000000039
0
LINE
8
BLACK
6
CONTINUOUS
10
46.2267669999999953
20
-68.7434580000000039
11
46.1315290000000005
21
-69.1244099999999975
0
LINE
8
BLACK
6
CONTINUOUS
10
46.1315290000000005
20
-69.1244099999999975
11
46.0362909999999985
21
-69.3148860000000013
0
LINE
8
BLACK
6
CONTINUOUS
10
46.0362909999999985
20
-69.3148860000000013
11
45.9410529999999966
21
-69.4101249999999936
0
LINE
8
BLACK
6
CONTINUOUS
10
45.9410529999999966
20
-69.4101249999999936
11
45.7505769999999998
21
-69.5053630000000027
0
LINE
8
BLACK
6
CONTINUOUS
10
45.7505769999999998
20
-69.5053630000000027
11
45.5600999999999985
21
-69.5053630000000027
0
LINE
8
BLACK
6
CONTINUOUS
10
45.5600999999999985
20
-69.5053630000000027
11
45.3696239999999946
21
-69.4101249999999936
0
LINE
8
BLACK
6
CONTINUOUS
10
45.3696239999999946
20
-69.4101249999999936
11
45.2743859999999998
21
-69.3148860000000013
0
LINE
8
BLACK
6
CONTINUOUS
10
45.2743859999999998
20
-69.3148860000000013
11
45.1791479999999979
21
-69.1244099999999975
0
LINE
8
BLACK
6
CONTINUOUS
10
45.1791479999999979
20
-69.1244099999999975
11
45.0839099999999959
21
-68.7434580000000039
0
LINE
8
BLACK
6
CONTINUOUS
10
45.0839099999999959
20
-68.7434580000000039
11
45.0839099999999959
21
-68.2672670000000039
0
LINE
8
BLACK
6
CONTINUOUS
10
45.0839099999999959
20
-68.2672670000000039
11
45.1791479999999979
21
-67.8863149999999962
0
LINE
8
BLACK
6
CONTINUOUS
10
45.1791479999999979
20
-67.8863149999999962
11
45.2743859999999998
21
-67.6958389999999923
0
LINE
8
BLACK
6
CONTINUOUS
10
45.2743859999999998
20
-67.6958389999999923
11
45.3696239999999946
21
-67.6006009999999975
0
LINE
8
BLACK
6
CONTINUOUS
10
45.3696239999999946
20
-67.6006009999999975
11
45.5600999999999985
21
-67.5053630000000027
0
LINE
8
BLACK
6
CONTINUOUS
10
47.4648619999999966
20
-67.5053630000000027
11
47.6553389999999979
21
-67.5053630000000027
0
LINE
8
BLACK
6
CONTINUOUS
10
47.6553389999999979
20
-67.5053630000000027
11
47.8458149999999947
21
-67.6006009999999975
0
LINE
8
BLACK
6
CONTINUOUS
10
47.8458149999999947
20
-67.6006009999999975
11
47.9410529999999966
21
-67.6958389999999923
0
LINE
8
BLACK
6
CONTINUOUS
10
47.9410529999999966
20
-67.6958389999999923
11
48.0362909999999985
21
-67.8863149999999962
0
LINE
8
BLACK
6
CONTINUOUS
10
48.0362909999999985
20
-67.8863149999999962
11
48.1315290000000005
21
-68.2672670000000039
0
LINE
8
BLACK
6
CONTINUOUS
10
48.1315290000000005
20
-68.2672670000000039
11
48.1315290000000005
21
-68.7434580000000039
0
LINE
8
BLACK
6
CONTINUOUS
10
48.1315290000000005
20
-68.7434580000000039
11
48.0362909999999985
21
-69.1244099999999975
0
LINE
8
BLACK
6
CONTINUOUS
10
48.0362909999999985
20
-69.1244099999999975
11
47.9410529999999966
21
-69.3148860000000013
0
LINE
8
BLACK
6
CONTINUOUS
10
47.9410529999999966
20
-69.3148860000000013
11
47.8458149999999947
21
-69.4101249999999936
0
LINE
8
BLACK
6
CONTINUOUS
10
47.8458149999999947
20
-69.4101249999999936
11
47.6553389999999979
21
-69.5053630000000027
0
LINE
8
BLACK
6
CONTINUOUS
10
47.6553389999999979
20
-69.5053630000000027
11
47.4648619999999966
21
-69.5053630000000027
0
LINE
8
BLACK
6
CONTINUOUS
10
47.4648619999999966
20
-69.5053630000000027
11
47.2743859999999998
21
-69.4101249999999936
0
LINE
8
BLACK
6
CONTINUOUS
10
47.2743859999999998
20
-69.4101249999999936
11
47.1791479999999979
21
-69.3148860000000013
0
LINE
8
BLACK
6
CONTINUOUS
10
47.1791479999999979
20
-69.3148860000000013
11
47.0839099999999959
21
-69.1244099999999975
0
LINE
8
BLACK
6
CONTINUOUS
10
47.0839099999999959
20
-69.1244099999999975
11
46.9886720000000011
21
-68.7434580000000039
0
LINE
8
BLACK
6
CONTINUOUS
10
46.9886720000000011
20
-68.7434580000000039
11
46.9886720000000011
21
-68.2672670000000039
0
LINE
8
BLACK
6
CONTINUOUS
10
46.9886720000000011
20
-68.2672670000000039
11
47.0839099999999959
21
-67.8863149999999962
0
LINE
8
BLACK
6
CONTINUOUS
10
47.0839099999999959
20
-67.8863149999999962
11
47.1791479999999979
21
-67.6958389999999923
0
LINE
8
BLACK
6
CONTINUOUS
10
47.1791479999999979
20
-67.6958389999999923
11
47.2743859999999998
21
-67.6006009999999975
0
LINE
8
BLACK
6
CONTINUOUS
10
47.2743859999999998
20
-67.6006009999999975
11
47.4648619999999966
21
-67.5053630000000027
0
LINE
8
BLACK
6
CONTINUOUS
10
48.9886720000000011
20
-69.5053630000000027
11
48.9886720000000011
21
-68.1720289999999949
0
LINE
8
BLACK
6
CONTINUOUS
10
48.9886720000000011
20
-68.3625049999999987
11
49.0839099999999959
21
-68.2672670000000039
0
LINE
8
BLACK
6
CONTINUOUS
10
49.0839099999999959
20
-68.2672670000000039
11
49.2743859999999998
21
-68.1720289999999949
0
LINE
8
BLACK
6
CONTINUOUS
10
49.2743859999999998
20
-68.1720289999999949
11
49.560100999999996
21
-68.1720289999999949
0
LINE
8
BLACK
6
CONTINUOUS
10
49.560100999999996
20
-68.1720289999999949
11
49.7505769999999998
21
-68.2672670000000039
0
LINE
8
BLACK
6
CONTINUOUS
10
49.7505769999999998
20
-68.2672670000000039
11
49.8458149999999947
21
-68.457743999999991
0
LINE
8
BLACK
6
CONTINUOUS
10
49.8458149999999947
20
-68.457743999999991
11
49.8458149999999947
21
-69.5053630000000027
0
LINE
8
BLACK
6
CONTINUOUS
10
49.8458149999999947
20
-68.457743999999991
11
49.9410529999999966
21
-68.2672670000000039
0
LINE
8
BLACK
6
CONTINUOUS
10
49.9410529999999966
20
-68.2672670000000039
11
50.1315290000000005
21
-68.1720289999999949
0
LINE
8
BLACK
6
CONTINUOUS
10
50.1315290000000005
20
-68.1720289999999949
11
50.4172429999999991
21
-68.1720289999999949
0
LINE
8
BLACK
6
CONTINUOUS
10
50.4172429999999991
20
-68.1720289999999949
11
50.6077200000000005
21
-68.2672670000000039
0
LINE
8
BLACK
6
CONTINUOUS
10
50.6077200000000005
20
-68.2672670000000039
11
50.7029579999999953
21
-68.457743999999991
0
LINE
8
BLACK
6
CONTINUOUS
10
50.7029579999999953
20
-68.457743999999991
11
50.7029579999999953
21
-69.5053630000000027
0
LINE
8
BLACK
6
CONTINUOUS
10
51.6553389999999979
20
-69.5053630000000027
11
51.6553389999999979
21
-68.1720289999999949
0
LINE
8
BLACK
6
CONTINUOUS
10
51.6553389999999979
20
-68.3625049999999987
11
51.7505769999999998
21
-68.2672670000000039
0
LINE
8
BLACK
6
CONTINUOUS
10
51.7505769999999998
20
-68.2672670000000039
11
51.9410529999999966
21
-68.1720289999999949
0
LINE
8
BLACK
6
CONTINUOUS
10
51.9410529999999966
20
-68.1720289999999949
11
52.2267679999999999
21
-68.1720289999999949
0
LINE
8
BLACK
6
CONTINUOUS
10
52.2267679999999999
20
-68.1720289999999949
11
52.4172439999999966
21
-68.2672670000000039
0
LINE
8
BLACK
6
CONTINUOUS
10
52.4172439999999966
20
-68.2672670000000039
11
52.5124819999999985
21
-68.457743999999991
0
LINE
8
BLACK
6
CONTINUOUS
10
52.5124819999999985
20
-68.457743999999991
11
52.5124819999999985
21
-69.5053630000000027
0
LINE
8
BLACK
6
CONTINUOUS
10
52.5124819999999985
20
-68.457743999999991
11
52.6077200000000005
21
-68.2672670000000039
0
LINE
8
BLACK
6
CONTINUOUS
10
52.6077200000000005
20
-68.2672670000000039
11
52.7981959999999972
21
-68.1720289999999949
0
LINE
8
BLACK
6
CONTINUOUS
10
52.7981959999999972
20
-68.1720289999999949
11
53.0839099999999959
21
-68.1720289999999949
0
LINE
8
BLACK
6
CONTINUOUS
10
53.0839099999999959
20
-68.1720289999999949
11
53.2743869999999973
21
-68.2672670000000039
0
LINE
8
BLACK
6
CONTINUOUS
10
53.2743869999999973
20
-68.2672670000000039
11
53.3696249999999992
21
-68.457743999999991
0
LINE
8
BLACK
6
CONTINUOUS
10
53.3696249999999992
20
-68.457743999999991
11
53.3696249999999992
21
-69.5053630000000027
0
LINE
8
BLACK
6
CONTINUOUS
10
57.2743869999999973
20
-67.4101249999999936
11
55.5601020000000005
21
-69.981552999999991
0
LINE
8
BLACK
6
CONTINUOUS
10
59.8458159999999992
20
-67.5053630000000027
11
60.0362930000000006
21
-67.5053630000000027
0
LINE
8
BLACK
6
CONTINUOUS
10
60.0362930000000006
20
-67.5053630000000027
11
60.2267689999999973
21
-67.6006009999999975
0
LINE
8
BLACK
6
CONTINUOUS
10
60.2267689999999973
20
-67.6006009999999975
11
60.3220069999999993
21
-67.6958389999999923
0
LINE
8
BLACK
6
CONTINUOUS
10
60.3220069999999993
20
-67.6958389999999923
11
60.4172449999999941
21
-67.8863149999999962
0
LINE
8
BLACK
6
CONTINUOUS
10
60.4172449999999941
20
-67.8863149999999962
11
60.512482999999996
21
-68.2672670000000039
0
LINE
8
BLACK
6
CONTINUOUS
10
60.512482999999996
20
-68.2672670000000039
11
60.512482999999996
21
-68.7434580000000039
0
LINE
8
BLACK
6
CONTINUOUS
10
60.512482999999996
20
-68.7434580000000039
11
60.4172449999999941
21
-69.1244099999999975
0
LINE
8
BLACK
6
CONTINUOUS
10
60.4172449999999941
20
-69.1244099999999975
11
60.3220069999999993
21
-69.3148860000000013
0
LINE
8
BLACK
6
CONTINUOUS
10
60.3220069999999993
20
-69.3148860000000013
11
60.2267689999999973
21
-69.4101249999999936
0
LINE
8
BLACK
6
CONTINUOUS
10
60.2267689999999973
20
-69.4101249999999936
11
60.0362930000000006
21
-69.5053630000000027
0
LINE
8
BLACK
6
CONTINUOUS
10
60.0362930000000006
20
-69.5053630000000027
11
59.8458159999999992
21
-69.5053630000000027
0
LINE
8
BLACK
6
CONTINUOUS
10
59.8458159999999992
20
-69.5053630000000027
11
59.6553399999999954
21
-69.4101249999999936
0
LINE
8
BLACK
6
CONTINUOUS
10
59.6553399999999954
20
-69.4101249999999936
11
59.5601020000000005
21
-69.3148860000000013
0
LINE
8
BLACK
6
CONTINUOUS
10
59.5601020000000005
20
-69.3148860000000013
11
59.4648639999999986
21
-69.1244099999999975
0
LINE
8
BLACK
6
CONTINUOUS
10
59.4648639999999986
20
-69.1244099999999975
11
59.3696259999999967
21
-68.7434580000000039
0
LINE
8
BLACK
6
CONTINUOUS
10
59.3696259999999967
20
-68.7434580000000039
11
59.3696259999999967
21
-68.2672670000000039
0
LINE
8
BLACK
6
CONTINUOUS
10
59.3696259999999967
20
-68.2672670000000039
11
59.4648639999999986
21
-67.8863149999999962
0
LINE
8
BLACK
6
CONTINUOUS
10
59.4648639999999986
20
-67.8863149999999962
11
59.5601020000000005
21
-67.6958389999999923
0
LINE
8
BLACK
6
CONTINUOUS
10
59.5601020000000005
20
-67.6958389999999923
11
59.6553399999999954
21
-67.6006009999999975
0
LINE
8
BLACK
6
CONTINUOUS
10
59.6553399999999954
20
-67.6006009999999975
11
59.8458159999999992
21
-67.5053630000000027
0
LINE
8
BLACK
6
CONTINUOUS
10
61.3696259999999967
20
-69.3148860000000013
11
61.4648639999999986
21
-69.4101249999999936
0
LINE
8
BLACK
6
CONTINUOUS
10
61.4648639999999986
20
-69.4101249999999936
11
61.3696259999999967
21
-69.5053630000000027
0
LINE
8
BLACK
6
CONTINUOUS
10
61.3696259999999967
20
-69.5053630000000027
11
61.2743879999999947
21
-69.4101249999999936
0
LINE
8
BLACK
6
CONTINUOUS
10
61.2743879999999947
20
-69.4101249999999936
11
61.3696259999999967
21
-69.3148860000000013
0
LINE
8
BLACK
6
CONTINUOUS
10
61.3696259999999967
20
-69.3148860000000013
11
61.3696259999999967
21
-69.5053630000000027
0
LINE
8
BLACK
6
CONTINUOUS
10
62.7029589999999999
20
-67.5053630000000027
11
62.8934359999999941
21
-67.5053630000000027
0
LINE
8
BLACK
6
CONTINUOUS
10
62.8934359999999941
20
-67.5053630000000027
11
63.083911999999998
21
-67.6006009999999975
0
LINE
8
BLACK
6
CONTINUOUS
10
63.083911999999998
20
-67.6006009999999975
11
63.1791499999999999
21
-67.6958389999999923
0
LINE
8
BLACK
6
CONTINUOUS
10
63.1791499999999999
20
-67.6958389999999923
11
63.2743879999999947
21
-67.8863149999999962
0
LINE
8
BLACK
6
CONTINUOUS
10
63.2743879999999947
20
-67.8863149999999962
11
63.3696259999999967
21
-68.2672670000000039
0
LINE
8
BLACK
6
CONTINUOUS
10
63.3696259999999967
20
-68.2672670000000039
11
63.3696259999999967
21
-68.7434580000000039
0
LINE
8
BLACK
6
CONTINUOUS
10
63.3696259999999967
20
-68.7434580000000039
11
63.2743879999999947
21
-69.1244099999999975
0
LINE
8
BLACK
6
CONTINUOUS
10
63.2743879999999947
20
-69.1244099999999975
11
63.1791499999999999
21
-69.3148860000000013
0
LINE
8
BLACK
6
CONTINUOUS
10
63.1791499999999999
20
-69.3148860000000013
11
63.083911999999998
21
-69.4101249999999936
0
LINE
8
BLACK
6
CONTINUOUS
10
63.083911999999998
20
-69.4101249999999936
11
62.8934359999999941
21
-69.5053630000000027
0
LINE
8
BLACK
6
CONTINUOUS
10
62.8934359999999941
20
-69.5053630000000027
11
62.7029589999999999
21
-69.5053630000000027
0
LINE
8
BLACK
6
CONTINUOUS
10
62.7029589999999999
20
-69.5053630000000027
11
62.512482999999996
21
-69.4101249999999936
0
LINE
8
BLACK
6
CONTINUOUS
10
62.512482999999996
20
-69.4101249999999936
11
62.4172449999999941
21
-69.3148860000000013
0
LINE
8
BLACK
6
CONTINUOUS
10
62.4172449999999941
20
-69.3148860000000013
11
62.3220069999999993
21
-69.1244099999999975
0
LINE
8
BLACK
6
CONTINUOUS
10
62.3220069999999993
20
-69.1244099999999975
11
62.2267689999999973
21
-68.7434580000000039
0
LINE
8
BLACK
6
CONTINUOUS
10
62.2267689999999973
20
-68.7434580000000039
11
62.2267689999999973
21
-68.2672670000000039
0
LINE
8
BLACK
6
CONTINUOUS
10
62.2267689999999973
20
-68.2672670000000039
11
62.3220069999999993
21
-67.8863149999999962
0
LINE
8
BLACK
6
CONTINUOUS
10
62.3220069999999993
20
-67.8863149999999962
11
62.4172449999999941
21
-67.6958389999999923
0
LINE
8
BLACK
6
CONTINUOUS
10
62.4172449999999941
20
-67.6958389999999923
11
62.512482999999996
21
-67.6006009999999975
0
LINE
8
BLACK
6
CONTINUOUS
10
62.512482999999996
20
-67.6006009999999975
11
62.7029589999999999
21
-67.5053630000000027
0
LINE
8
BLACK
6
CONTINUOUS
10
64.607720999999998
20
-67.5053630000000027
11
64.7981979999999993
21
-67.5053630000000027
0
LINE
8
BLACK
6
CONTINUOUS
10
64.7981979999999993
20
-67.5053630000000027
11
64.9886740000000032
21
-67.6006009999999975
0
LINE
8
BLACK
6
CONTINUOUS
10
64.9886740000000032
20
-67.6006009999999975
11
65.083911999999998
21
-67.6958389999999923
0
LINE
8
BLACK
6
CONTINUOUS
10
65.083911999999998
20
-67.6958389999999923
11
65.1791499999999928
21
-67.8863149999999962
0
LINE
8
BLACK
6
CONTINUOUS
10
65.1791499999999928
20
-67.8863149999999962
11
65.2743880000000019
21
-68.2672670000000039
0
LINE
8
BLACK
6
CONTINUOUS
10
65.2743880000000019
20
-68.2672670000000039
11
65.2743880000000019
21
-68.7434580000000039
0
LINE
8
BLACK
6
CONTINUOUS
10
65.2743880000000019
20
-68.7434580000000039
11
65.1791499999999928
21
-69.1244099999999975
0
LINE
8
BLACK
6
CONTINUOUS
10
65.1791499999999928
20
-69.1244099999999975
11
65.083911999999998
21
-69.3148860000000013
0
LINE
8
BLACK
6
CONTINUOUS
10
65.083911999999998
20
-69.3148860000000013
11
64.9886740000000032
21
-69.4101249999999936
0
LINE
8
BLACK
6
CONTINUOUS
10
64.9886740000000032
20
-69.4101249999999936
11
64.7981979999999993
21
-69.5053630000000027
0
LINE
8
BLACK
6
CONTINUOUS
10
64.7981979999999993
20
-69.5053630000000027
11
64.607720999999998
21
-69.5053630000000027
0
LINE
8
BLACK
6
CONTINUOUS
10
64.607720999999998
20
-69.5053630000000027
11
64.4172449999999941
21
-69.4101249999999936
0
LINE
8
BLACK
6
CONTINUOUS
10
64.4172449999999941
20
-69.4101249999999936
11
64.3220069999999993
21
-69.3148860000000013
0
LINE
8
BLACK
6
CONTINUOUS
10
64.3220069999999993
20
-69.3148860000000013
11
64.2267689999999902
21
-69.1244099999999975
0
LINE
8
BLACK
6
CONTINUOUS
10
64.2267689999999902
20
-69.1244099999999975
11
64.1315309999999954
21
-68.7434580000000039
0
LINE
8
BLACK
6
CONTINUOUS
10
64.1315309999999954
20
-68.7434580000000039
11
64.1315309999999954
21
-68.2672670000000039
0
LINE
8
BLACK
6
CONTINUOUS
10
64.1315309999999954
20
-68.2672670000000039
11
64.2267689999999902
21
-67.8863149999999962
0
LINE
8
BLACK
6
CONTINUOUS
10
64.2267689999999902
20
-67.8863149999999962
11
64.3220069999999993
21
-67.6958389999999923
0
LINE
8
BLACK
6
CONTINUOUS
10
64.3220069999999993
20
-67.6958389999999923
11
64.4172449999999941
21
-67.6006009999999975
0
LINE
8
BLACK
6
CONTINUOUS
10
64.4172449999999941
20
-67.6006009999999975
11
64.607720999999998
21
-67.5053630000000027
0
LINE
8
BLACK
6
CONTINUOUS
10
65.9410549999999915
20
-67.5053630000000027
11
67.2743880000000019
21
-67.5053630000000027
0
LINE
8
BLACK
6
CONTINUOUS
10
67.2743880000000019
20
-67.5053630000000027
11
66.4172449999999941
21
-69.5053630000000027
0
LINE
8
BLACK
6
CONTINUOUS
10
68.1315309999999954
20
-69.5053630000000027
11
68.5124830000000031
21
-69.5053630000000027
0
LINE
8
BLACK
6
CONTINUOUS
10
68.5124830000000031
20
-69.5053630000000027
11
68.7029599999999903
21
-69.4101249999999936
0
LINE
8
BLACK
6
CONTINUOUS
10
68.7029599999999903
20
-69.4101249999999936
11
68.7981979999999993
21
-69.3148860000000013
0
LINE
8
BLACK
6
CONTINUOUS
10
68.7981979999999993
20
-69.3148860000000013
11
68.9886740000000032
21
-69.0291720000000026
0
LINE
8
BLACK
6
CONTINUOUS
10
68.9886740000000032
20
-69.0291720000000026
11
69.083911999999998
21
-68.6482199999999949
0
LINE
8
BLACK
6
CONTINUOUS
10
69.083911999999998
20
-68.6482199999999949
11
69.083911999999998
21
-67.8863149999999962
0
LINE
8
BLACK
6
CONTINUOUS
10
69.083911999999998
20
-67.8863149999999962
11
68.9886740000000032
21
-67.6958389999999923
0
LINE
8
BLACK
6
CONTINUOUS
10
68.9886740000000032
20
-67.6958389999999923
11
68.8934359999999941
21
-67.6006009999999975
0
LINE
8
BLACK
6
CONTINUOUS
10
68.8934359999999941
20
-67.6006009999999975
11
68.7029599999999903
21
-67.5053630000000027
0
LINE
8
BLACK
6
CONTINUOUS
10
68.7029599999999903
20
-67.5053630000000027
11
68.3220069999999993
21
-67.5053630000000027
0
LINE
8
BLACK
6
CONTINUOUS
10
68.3220069999999993
20
-67.5053630000000027
11
68.1315309999999954
21
-67.6006009999999975
0
LINE
8
BLACK
6
CONTINUOUS
10
68.1315309999999954
20
-67.6006009999999975
11
68.0362930000000006
21
-67.6958389999999923
0
LINE
8
BLACK
6
CONTINUOUS
10
68.0362930000000006
20
-67.6958389999999923
11
67.9410549999999915
21
-67.8863149999999962
0
LINE
8
BLACK
6
CONTINUOUS
10
67.9410549999999915
20
-67.8863149999999962
11
67.9410549999999915
21
-68.3625049999999987
0
LINE
8
BLACK
6
CONTINUOUS
10
67.9410549999999915
20
-68.3625049999999987
11
68.0362930000000006
21
-68.5529820000000001
0
LINE
8
BLACK
6
CONTINUOUS
10
68.0362930000000006
20
-68.5529820000000001
11
68.1315309999999954
21
-68.6482199999999949
0
LINE
8
BLACK
6
CONTINUOUS
10
68.1315309999999954
20
-68.6482199999999949
11
68.3220069999999993
21
-68.7434580000000039
0
LINE
8
BLACK
6
CONTINUOUS
10
68.3220069999999993
20
-68.7434580000000039
11
68.7029599999999903
21
-68.7434580000000039
0
LINE
8
BLACK
6
CONTINUOUS
10
68.7029599999999903
20
-68.7434580000000039
11
68.8934359999999941
21
-68.6482199999999949
0
LINE
8
BLACK
6
CONTINUOUS
10
68.8934359999999941
20
-68.6482199999999949
11
68.9886740000000032
21
-68.5529820000000001
0
LINE
8
BLACK
6
CONTINUOUS
10
68.9886740000000032
20
-68.5529820000000001
11
69.083911999999998
21
-68.3625049999999987
0
LINE
8
BLACK
6
CONTINUOUS
10
69.8458169999999967
20
-67.5053630000000027
11
69.8458169999999967
21
-67.8863149999999962
0
LINE
8
BLACK
6
CONTINUOUS
10
70.6077219999999954
20
-67.5053630000000027
11
70.6077219999999954
21
-67.8863149999999962
0
LINE
8
BLACK
6
CONTINUOUS
10
73.5601039999999955
20
-70.2672670000000039
11
73.4648650000000032
21
-70.1720289999999949
0
LINE
8
BLACK
6
CONTINUOUS
10
73.4648650000000032
20
-70.1720289999999949
11
73.2743889999999993
21
-69.8863149999999962
0
LINE
8
BLACK
6
CONTINUOUS
10
73.2743889999999993
20
-69.8863149999999962
11
73.1791509999999903
21
-69.6958389999999923
0
LINE
8
BLACK
6
CONTINUOUS
10
73.1791509999999903
20
-69.6958389999999923
11
73.0839129999999955
21
-69.4101249999999936
0
LINE
8
BLACK
6
CONTINUOUS
10
73.0839129999999955
20
-69.4101249999999936
11
72.9886750000000006
21
-68.9339339999999936
0
LINE
8
BLACK
6
CONTINUOUS
10
72.9886750000000006
20
-68.9339339999999936
11
72.9886750000000006
21
-68.5529820000000001
0
LINE
8
BLACK
6
CONTINUOUS
10
72.9886750000000006
20
-68.5529820000000001
11
73.0839129999999955
21
-68.0767910000000001
0
LINE
8
BLACK
6
CONTINUOUS
10
73.0839129999999955
20
-68.0767910000000001
11
73.1791509999999903
21
-67.7910770000000014
0
LINE
8
BLACK
6
CONTINUOUS
10
73.1791509999999903
20
-67.7910770000000014
11
73.2743889999999993
21
-67.6006009999999975
0
LINE
8
BLACK
6
CONTINUOUS
10
73.2743889999999993
20
-67.6006009999999975
11
73.4648650000000032
21
-67.3148860000000013
0
LINE
8
BLACK
6
CONTINUOUS
10
73.4648650000000032
20
-67.3148860000000013
11
73.5601039999999955
21
-67.2196479999999923
0
LINE
8
BLACK
6
CONTINUOUS
10
74.1315319999999929
20
-67.5053630000000027
11
75.3696269999999942
21
-67.5053630000000027
0
LINE
8
BLACK
6
CONTINUOUS
10
75.3696269999999942
20
-67.5053630000000027
11
74.7029599999999903
21
-68.2672670000000039
0
LINE
8
BLACK
6
CONTINUOUS
10
74.7029599999999903
20
-68.2672670000000039
11
74.9886750000000006
21
-68.2672670000000039
0
LINE
8
BLACK
6
CONTINUOUS
10
74.9886750000000006
20
-68.2672670000000039
11
75.1791509999999903
21
-68.3625049999999987
0
LINE
8
BLACK
6
CONTINUOUS
10
75.1791509999999903
20
-68.3625049999999987
11
75.2743889999999993
21
-68.457743999999991
0
LINE
8
BLACK
6
CONTINUOUS
10
75.2743889999999993
20
-68.457743999999991
11
75.3696269999999942
21
-68.6482199999999949
0
LINE
8
BLACK
6
CONTINUOUS
10
75.3696269999999942
20
-68.6482199999999949
11
75.3696269999999942
21
-69.1244099999999975
0
LINE
8
BLACK
6
CONTINUOUS
10
75.3696269999999942
20
-69.1244099999999975
11
75.2743889999999993
21
-69.3148860000000013
0
LINE
8
BLACK
6
CONTINUOUS
10
75.2743889999999993
20
-69.3148860000000013
11
75.1791509999999903
21
-69.4101249999999936
0
LINE
8
BLACK
6
CONTINUOUS
10
75.1791509999999903
20
-69.4101249999999936
11
74.9886750000000006
21
-69.5053630000000027
0
LINE
8
BLACK
6
CONTINUOUS
10
74.9886750000000006
20
-69.5053630000000027
11
74.4172459999999916
21
-69.5053630000000027
0
LINE
8
BLACK
6
CONTINUOUS
10
74.4172459999999916
20
-69.5053630000000027
11
74.2267700000000019
21
-69.4101249999999936
0
LINE
8
BLACK
6
CONTINUOUS
10
74.2267700000000019
20
-69.4101249999999936
11
74.1315319999999929
21
-69.3148860000000013
0
LINE
8
BLACK
6
CONTINUOUS
10
76.1315319999999929
20
-67.6958389999999923
11
76.2267700000000019
21
-67.6006009999999975
0
LINE
8
BLACK
6
CONTINUOUS
10
76.2267700000000019
20
-67.6006009999999975
11
76.4172459999999916
21
-67.5053630000000027
0
LINE
8
BLACK
6
CONTINUOUS
10
76.4172459999999916
20
-67.5053630000000027
11
76.8934369999999916
21
-67.5053630000000027
0
LINE
8
BLACK
6
CONTINUOUS
10
76.8934369999999916
20
-67.5053630000000027
11
77.0839129999999955
21
-67.6006009999999975
0
LINE
8
BLACK
6
CONTINUOUS
10
77.0839129999999955
20
-67.6006009999999975
11
77.1791509999999903
21
-67.6958389999999923
0
LINE
8
BLACK
6
CONTINUOUS
10
77.1791509999999903
20
-67.6958389999999923
11
77.2743889999999993
21
-67.8863149999999962
0
LINE
8
BLACK
6
CONTINUOUS
10
77.2743889999999993
20
-67.8863149999999962
11
77.2743889999999993
21
-68.0767910000000001
0
LINE
8
BLACK
6
CONTINUOUS
10
77.2743889999999993
20
-68.0767910000000001
11
77.1791509999999903
21
-68.3625049999999987
0
LINE
8
BLACK
6
CONTINUOUS
10
77.1791509999999903
20
-68.3625049999999987
11
76.0362939999999981
21
-69.5053630000000027
0
LINE
8
BLACK
6
CONTINUOUS
10
76.0362939999999981
20
-69.5053630000000027
11
77.2743889999999993
21
-69.5053630000000027
0
LINE
8
BLACK
6
CONTINUOUS
10
79.6553419999999903
20
-69.5053630000000027
11
79.6553419999999903
21
-67.5053630000000027
0
LINE
8
BLACK
6
CONTINUOUS
10
80.5124849999999981
20
-69.5053630000000027
11
80.5124849999999981
21
-68.457743999999991
0
LINE
8
BLACK
6
CONTINUOUS
10
80.5124849999999981
20
-68.457743999999991
11
80.4172470000000033
21
-68.2672670000000039
0
LINE
8
BLACK
6
CONTINUOUS
10
80.4172470000000033
20
-68.2672670000000039
11
80.2267709999999994
21
-68.1720289999999949
0
LINE
8
BLACK
6
CONTINUOUS
10
80.2267709999999994
20
-68.1720289999999949
11
79.9410560000000032
21
-68.1720289999999949
0
LINE
8
BLACK
6
CONTINUOUS
10
79.9410560000000032
20
-68.1720289999999949
11
79.7505799999999994
21
-68.2672670000000039
0
LINE
8
BLACK
6
CONTINUOUS
10
79.7505799999999994
20
-68.2672670000000039
11
79.6553419999999903
21
-68.3625049999999987
0
LINE
8
BLACK
6
CONTINUOUS
10
81.7505799999999994
20
-69.5053630000000027
11
81.5601039999999955
21
-69.4101249999999936
0
LINE
8
BLACK
6
CONTINUOUS
10
81.5601039999999955
20
-69.4101249999999936
11
81.4648660000000007
21
-69.3148860000000013
0
LINE
8
BLACK
6
CONTINUOUS
10
81.4648660000000007
20
-69.3148860000000013
11
81.3696279999999916
21
-69.1244099999999975
0
LINE
8
BLACK
6
CONTINUOUS
10
81.3696279999999916
20
-69.1244099999999975
11
81.3696279999999916
21
-68.5529820000000001
0
LINE
8
BLACK
6
CONTINUOUS
10
81.3696279999999916
20
-68.5529820000000001
11
81.4648660000000007
21
-68.3625049999999987
0
LINE
8
BLACK
6
CONTINUOUS
10
81.4648660000000007
20
-68.3625049999999987
11
81.5601039999999955
21
-68.2672670000000039
0
LINE
8
BLACK
6
CONTINUOUS
10
81.5601039999999955
20
-68.2672670000000039
11
81.7505799999999994
21
-68.1720289999999949
0
LINE
8
BLACK
6
CONTINUOUS
10
81.7505799999999994
20
-68.1720289999999949
11
82.0362949999999955
21
-68.1720289999999949
0
LINE
8
BLACK
6
CONTINUOUS
10
82.0362949999999955
20
-68.1720289999999949
11
82.2267709999999994
21
-68.2672670000000039
0
LINE
8
BLACK
6
CONTINUOUS
10
82.2267709999999994
20
-68.2672670000000039
11
82.3220089999999942
21
-68.3625049999999987
0
LINE
8
BLACK
6
CONTINUOUS
10
82.3220089999999942
20
-68.3625049999999987
11
82.4172470000000033
21
-68.5529820000000001
0
LINE
8
BLACK
6
CONTINUOUS
10
82.4172470000000033
20
-68.5529820000000001
11
82.4172470000000033
21
-69.1244099999999975
0
LINE
8
BLACK
6
CONTINUOUS
10
82.4172470000000033
20
-69.1244099999999975
11
82.3220089999999942
21
-69.3148860000000013
0
LINE
8
BLACK
6
CONTINUOUS
10
82.3220089999999942
20
-69.3148860000000013
11
82.2267709999999994
21
-69.4101249999999936
0
LINE
8
BLACK
6
CONTINUOUS
10
82.2267709999999994
20
-69.4101249999999936
11
82.0362949999999955
21
-69.5053630000000027
0
LINE
8
BLACK
6
CONTINUOUS
10
82.0362949999999955
20
-69.5053630000000027
11
81.7505799999999994
21
-69.5053630000000027
0
LINE
8
BLACK
6
CONTINUOUS
10
83.5601039999999955
20
-69.5053630000000027
11
83.3696279999999916
21
-69.4101249999999936
0
LINE
8
BLACK
6
CONTINUOUS
10
83.3696279999999916
20
-69.4101249999999936
11
83.2743899999999968
21
-69.2196479999999923
0
LINE
8
BLACK
6
CONTINUOUS
10
83.2743899999999968
20
-69.2196479999999923
11
83.2743899999999968
21
-67.5053630000000027
0
LINE
8
BLACK
6
CONTINUOUS
10
85.0839139999999929
20
-69.4101249999999936
11
84.8934379999999891
21
-69.5053630000000027
0
LINE
8
BLACK
6
CONTINUOUS
10
84.8934379999999891
20
-69.5053630000000027
11
84.5124849999999981
21
-69.5053630000000027
0
LINE
8
BLACK
6
CONTINUOUS
10
84.5124849999999981
20
-69.5053630000000027
11
84.3220089999999942
21
-69.4101249999999936
0
LINE
8
BLACK
6
CONTINUOUS
10
84.3220089999999942
20
-69.4101249999999936
11
84.2267709999999994
21
-69.2196479999999923
0
LINE
8
BLACK
6
CONTINUOUS
10
84.2267709999999994
20
-69.2196479999999923
11
84.2267709999999994
21
-68.457743999999991
0
LINE
8
BLACK
6
CONTINUOUS
10
84.2267709999999994
20
-68.457743999999991
11
84.3220089999999942
21
-68.2672670000000039
0
LINE
8
BLACK
6
CONTINUOUS
10
84.3220089999999942
20
-68.2672670000000039
11
84.5124849999999981
21
-68.1720289999999949
0
LINE
8
BLACK
6
CONTINUOUS
10
84.5124849999999981
20
-68.1720289999999949
11
84.8934379999999891
21
-68.1720289999999949
0
LINE
8
BLACK
6
CONTINUOUS
10
84.8934379999999891
20
-68.1720289999999949
11
85.0839139999999929
21
-68.2672670000000039
0
LINE
8
BLACK
6
CONTINUOUS
10
85.0839139999999929
20
-68.2672670000000039
11
85.179152000000002
21
-68.457743999999991
0
LINE
8
BLACK
6
CONTINUOUS
10
85.179152000000002
20
-68.457743999999991
11
85.179152000000002
21
-68.6482199999999949
0
LINE
8
BLACK
6
CONTINUOUS
10
85.179152000000002
20
-68.6482199999999949
11
84.2267709999999994
21
-68.8386959999999988
0
LINE
8
BLACK
6
CONTINUOUS
10
85.9410570000000007
20
-69.4101249999999936
11
86.1315329999999904
21
-69.5053630000000027
0
LINE
8
BLACK
6
CONTINUOUS
10
86.1315329999999904
20
-69.5053630000000027
11
86.5124849999999981
21
-69.5053630000000027
0
LINE
8
BLACK
6
CONTINUOUS
10
86.5124849999999981
20
-69.5053630000000027
11
86.7029619999999994
21
-69.4101249999999936
0
LINE
8
BLACK
6
CONTINUOUS
10
86.7029619999999994
20
-69.4101249999999936
11
86.7981999999999942
21
-69.2196479999999923
0
LINE
8
BLACK
6
CONTINUOUS
10
86.7981999999999942
20
-69.2196479999999923
11
86.7981999999999942
21
-69.1244099999999975
0
LINE
8
BLACK
6
CONTINUOUS
10
86.7981999999999942
20
-69.1244099999999975
11
86.7029619999999994
21
-68.9339339999999936
0
LINE
8
BLACK
6
CONTINUOUS
10
86.7029619999999994
20
-68.9339339999999936
11
86.5124849999999981
21
-68.8386959999999988
0
LINE
8
BLACK
6
CONTINUOUS
10
86.5124849999999981
20
-68.8386959999999988
11
86.2267709999999994
21
-68.8386959999999988
0
LINE
8
BLACK
6
CONTINUOUS
10
86.2267709999999994
20
-68.8386959999999988
11
86.0362949999999955
21
-68.7434580000000039
0
LINE
8
BLACK
6
CONTINUOUS
10
86.0362949999999955
20
-68.7434580000000039
11
85.9410570000000007
21
-68.5529820000000001
0
LINE
8
BLACK
6
CONTINUOUS
10
85.9410570000000007
20
-68.5529820000000001
11
85.9410570000000007
21
-68.457743999999991
0
LINE
8
BLACK
6
CONTINUOUS
10
85.9410570000000007
20
-68.457743999999991
11
86.0362949999999955
21
-68.2672670000000039
0
LINE
8
BLACK
6
CONTINUOUS
10
86.0362949999999955
20
-68.2672670000000039
11
86.2267709999999994
21
-68.1720289999999949
0
LINE
8
BLACK
6
CONTINUOUS
10
86.2267709999999994
20
-68.1720289999999949
11
86.5124849999999981
21
-68.1720289999999949
0
LINE
8
BLACK
6
CONTINUOUS
10
86.5124849999999981
20
-68.1720289999999949
11
86.7029619999999994
21
-68.2672670000000039
0
LINE
8
BLACK
6
CONTINUOUS
10
87.4648669999999981
20
-70.2672670000000039
11
87.560104999999993
21
-70.1720289999999949
0
LINE
8
BLACK
6
CONTINUOUS
10
87.560104999999993
20
-70.1720289999999949
11
87.7505809999999968
21
-69.8863149999999962
0
LINE
8
BLACK
6
CONTINUOUS
10
87.7505809999999968
20
-69.8863149999999962
11
87.8458189999999917
21
-69.6958389999999923
0
LINE
8
BLACK
6
CONTINUOUS
10
87.8458189999999917
20
-69.6958389999999923
11
87.9410570000000007
21
-69.4101249999999936
0
LINE
8
BLACK
6
CONTINUOUS
10
87.9410570000000007
20
-69.4101249999999936
11
88.0362949999999955
21
-68.9339339999999936
0
LINE
8
BLACK
6
CONTINUOUS
10
88.0362949999999955
20
-68.9339339999999936
11
88.0362949999999955
21
-68.5529820000000001
0
LINE
8
BLACK
6
CONTINUOUS
10
88.0362949999999955
20
-68.5529820000000001
11
87.9410570000000007
21
-68.0767910000000001
0
LINE
8
BLACK
6
CONTINUOUS
10
87.9410570000000007
20
-68.0767910000000001
11
87.8458189999999917
21
-67.7910770000000014
0
LINE
8
BLACK
6
CONTINUOUS
10
87.8458189999999917
20
-67.7910770000000014
11
87.7505809999999968
21
-67.6006009999999975
0
LINE
8
BLACK
6
CONTINUOUS
10
87.7505809999999968
20
-67.6006009999999975
11
87.560104999999993
21
-67.3148860000000013
0
LINE
8
BLACK
6
CONTINUOUS
10
87.560104999999993
20
-67.3148860000000013
11
87.4648669999999981
21
-67.2196479999999923
  0
ENDSEC
  0
EOF
