%TF.GenerationSoftware,KiCad,Pcbnew,8.0.2-1*%
%TF.CreationDate,2025-04-11T08:43:50-07:00*%
%TF.ProjectId,Small_Pendant,536d616c-6c5f-4506-956e-64616e742e6b,rev?*%
%TF.SameCoordinates,Original*%
%TF.FileFunction,Soldermask,Top*%
%TF.FilePolarity,Negative*%
%FSLAX46Y46*%
G04 Gerber Fmt 4.6, Leading zero omitted, Abs format (unit mm)*
G04 Created by KiCad (PCBNEW 8.0.2-1) date 2025-04-11 08:43:50*
%MOMM*%
%LPD*%
G01*
G04 APERTURE LIST*
G04 Aperture macros list*
%AMRoundRect*
0 Rectangle with rounded corners*
0 $1 Rounding radius*
0 $2 $3 $4 $5 $6 $7 $8 $9 X,Y pos of 4 corners*
0 Add a 4 corners polygon primitive as box body*
4,1,4,$2,$3,$4,$5,$6,$7,$8,$9,$2,$3,0*
0 Add four circle primitives for the rounded corners*
1,1,$1+$1,$2,$3*
1,1,$1+$1,$4,$5*
1,1,$1+$1,$6,$7*
1,1,$1+$1,$8,$9*
0 Add four rect primitives between the rounded corners*
20,1,$1+$1,$2,$3,$4,$5,0*
20,1,$1+$1,$4,$5,$6,$7,0*
20,1,$1+$1,$6,$7,$8,$9,0*
20,1,$1+$1,$8,$9,$2,$3,0*%
G04 Aperture macros list end*
%ADD10RoundRect,0.112500X0.112500X0.112500X-0.112500X0.112500X-0.112500X-0.112500X0.112500X-0.112500X0*%
%ADD11RoundRect,0.112500X-0.112500X-0.112500X0.112500X-0.112500X0.112500X0.112500X-0.112500X0.112500X0*%
%ADD12C,0.500000*%
%ADD13R,0.320000X0.840000*%
%ADD14C,0.700000*%
%ADD15R,1.700000X0.845000*%
%ADD16R,1.700000X0.850000*%
%ADD17RoundRect,0.135000X-0.135000X-0.185000X0.135000X-0.185000X0.135000X0.185000X-0.135000X0.185000X0*%
%ADD18RoundRect,0.140000X0.170000X-0.140000X0.170000X0.140000X-0.170000X0.140000X-0.170000X-0.140000X0*%
%ADD19RoundRect,0.140000X0.140000X0.170000X-0.140000X0.170000X-0.140000X-0.170000X0.140000X-0.170000X0*%
%ADD20RoundRect,0.135000X-0.185000X0.135000X-0.185000X-0.135000X0.185000X-0.135000X0.185000X0.135000X0*%
%ADD21RoundRect,0.140000X-0.140000X-0.170000X0.140000X-0.170000X0.140000X0.170000X-0.140000X0.170000X0*%
%ADD22RoundRect,0.135000X0.185000X-0.135000X0.185000X0.135000X-0.185000X0.135000X-0.185000X-0.135000X0*%
%ADD23RoundRect,0.218750X-0.256250X0.218750X-0.256250X-0.218750X0.256250X-0.218750X0.256250X0.218750X0*%
%ADD24R,0.250000X0.500000*%
%ADD25R,0.500000X0.250000*%
%ADD26C,0.650000*%
%ADD27RoundRect,0.060000X-0.240000X-0.515000X0.240000X-0.515000X0.240000X0.515000X-0.240000X0.515000X0*%
%ADD28RoundRect,0.030000X-0.120000X-0.545000X0.120000X-0.545000X0.120000X0.545000X-0.120000X0.545000X0*%
%ADD29O,1.000000X2.100000*%
%ADD30O,1.000000X1.600000*%
%ADD31RoundRect,0.140000X-0.170000X0.140000X-0.170000X-0.140000X0.170000X-0.140000X0.170000X0.140000X0*%
%ADD32RoundRect,0.135000X0.135000X0.185000X-0.135000X0.185000X-0.135000X-0.185000X0.135000X-0.185000X0*%
%ADD33R,0.490000X0.290000*%
%ADD34R,0.490000X0.430000*%
%ADD35C,2.000000*%
G04 APERTURE END LIST*
D10*
%TO.C,D891*%
X180425000Y-86425000D03*
X179575000Y-86425000D03*
X180425000Y-85575000D03*
X179575000Y-85575000D03*
%TD*%
D11*
%TO.C,D772*%
X173575000Y-72075000D03*
X174425000Y-72075000D03*
X173575000Y-72925000D03*
X174425000Y-72925000D03*
%TD*%
D12*
%TO.C,mouse-bite-2mm-slot29*%
X170979949Y-50080711D03*
X170431942Y-49568058D03*
X169919289Y-49020051D03*
%TD*%
D10*
%TO.C,D753*%
X177425000Y-71425000D03*
X176575000Y-71425000D03*
X177425000Y-70575000D03*
X176575000Y-70575000D03*
%TD*%
D11*
%TO.C,D794*%
X184075000Y-75075000D03*
X184925000Y-75075000D03*
X184075000Y-75925000D03*
X184925000Y-75925000D03*
%TD*%
%TO.C,D768*%
X179575000Y-72075000D03*
X180425000Y-72075000D03*
X179575000Y-72925000D03*
X180425000Y-72925000D03*
%TD*%
D10*
%TO.C,D893*%
X183425000Y-86425000D03*
X182575000Y-86425000D03*
X183425000Y-85575000D03*
X182575000Y-85575000D03*
%TD*%
%TO.C,D755*%
X180425000Y-71425000D03*
X179575000Y-71425000D03*
X180425000Y-70575000D03*
X179575000Y-70575000D03*
%TD*%
D11*
%TO.C,D740*%
X184075000Y-69075000D03*
X184925000Y-69075000D03*
X184075000Y-69925000D03*
X184925000Y-69925000D03*
%TD*%
D10*
%TO.C,D873*%
X186425000Y-83425000D03*
X185575000Y-83425000D03*
X186425000Y-82575000D03*
X185575000Y-82575000D03*
%TD*%
%TO.C,D788*%
X189425000Y-74425000D03*
X188575000Y-74425000D03*
X189425000Y-73575000D03*
X188575000Y-73575000D03*
%TD*%
D11*
%TO.C,D774*%
X170575000Y-72075000D03*
X171425000Y-72075000D03*
X170575000Y-72925000D03*
X171425000Y-72925000D03*
%TD*%
D10*
%TO.C,D810*%
X177425000Y-77425000D03*
X176575000Y-77425000D03*
X177425000Y-76575000D03*
X176575000Y-76575000D03*
%TD*%
%TO.C,D782*%
X180425000Y-74425000D03*
X179575000Y-74425000D03*
X180425000Y-73575000D03*
X179575000Y-73575000D03*
%TD*%
D11*
%TO.C,D771*%
X175075000Y-72075000D03*
X175925000Y-72075000D03*
X175075000Y-72925000D03*
X175925000Y-72925000D03*
%TD*%
D10*
%TO.C,D777*%
X172925000Y-74425000D03*
X172075000Y-74425000D03*
X172925000Y-73575000D03*
X172075000Y-73575000D03*
%TD*%
D11*
%TO.C,D885*%
X173575000Y-84075000D03*
X174425000Y-84075000D03*
X173575000Y-84925000D03*
X174425000Y-84925000D03*
%TD*%
D10*
%TO.C,D847*%
X187925000Y-80425000D03*
X187075000Y-80425000D03*
X187925000Y-79575000D03*
X187075000Y-79575000D03*
%TD*%
D11*
%TO.C,D860*%
X173575000Y-81075000D03*
X174425000Y-81075000D03*
X173575000Y-81925000D03*
X174425000Y-81925000D03*
%TD*%
D10*
%TO.C,D846*%
X186425000Y-80425000D03*
X185575000Y-80425000D03*
X186425000Y-79575000D03*
X185575000Y-79575000D03*
%TD*%
D11*
%TO.C,D900*%
X176575000Y-87075000D03*
X177425000Y-87075000D03*
X176575000Y-87925000D03*
X177425000Y-87925000D03*
%TD*%
%TO.C,D850*%
X188575000Y-81075000D03*
X189425000Y-81075000D03*
X188575000Y-81925000D03*
X189425000Y-81925000D03*
%TD*%
D10*
%TO.C,D836*%
X171425000Y-80425000D03*
X170575000Y-80425000D03*
X171425000Y-79575000D03*
X170575000Y-79575000D03*
%TD*%
D11*
%TO.C,D897*%
X181075000Y-87075000D03*
X181925000Y-87075000D03*
X181075000Y-87925000D03*
X181925000Y-87925000D03*
%TD*%
%TO.C,D899*%
X178075000Y-87075000D03*
X178925000Y-87075000D03*
X178075000Y-87925000D03*
X178925000Y-87925000D03*
%TD*%
%TO.C,D725*%
X181075000Y-66075000D03*
X181925000Y-66075000D03*
X181075000Y-66925000D03*
X181925000Y-66925000D03*
%TD*%
D10*
%TO.C,D809*%
X175925000Y-77425000D03*
X175075000Y-77425000D03*
X175925000Y-76575000D03*
X175075000Y-76575000D03*
%TD*%
D11*
%TO.C,D876*%
X187075000Y-84075000D03*
X187925000Y-84075000D03*
X187075000Y-84925000D03*
X187925000Y-84925000D03*
%TD*%
D12*
%TO.C,mouse-bite-2mm-slot30*%
X190080711Y-49020051D03*
X189568058Y-49568058D03*
X189020051Y-50080711D03*
%TD*%
D11*
%TO.C,D851*%
X187075000Y-81075000D03*
X187925000Y-81075000D03*
X187075000Y-81925000D03*
X187925000Y-81925000D03*
%TD*%
D10*
%TO.C,D756*%
X181925000Y-71425000D03*
X181075000Y-71425000D03*
X181925000Y-70575000D03*
X181075000Y-70575000D03*
%TD*%
D11*
%TO.C,D747*%
X173575000Y-69075000D03*
X174425000Y-69075000D03*
X173575000Y-69925000D03*
X174425000Y-69925000D03*
%TD*%
%TO.C,D800*%
X175075000Y-75075000D03*
X175925000Y-75075000D03*
X175075000Y-75925000D03*
X175925000Y-75925000D03*
%TD*%
D10*
%TO.C,D751*%
X174425000Y-71425000D03*
X173575000Y-71425000D03*
X174425000Y-70575000D03*
X173575000Y-70575000D03*
%TD*%
D13*
%TO.C,U20*%
X171350000Y-33950000D03*
X170700000Y-33950000D03*
X170050000Y-33950000D03*
X170050000Y-35850000D03*
X170700000Y-35850000D03*
X171350000Y-35850000D03*
%TD*%
D11*
%TO.C,D727*%
X178075000Y-66075000D03*
X178925000Y-66075000D03*
X178075000Y-66925000D03*
X178925000Y-66925000D03*
%TD*%
D14*
%TO.C,SW15*%
X191000000Y-43700000D03*
X189200000Y-43700000D03*
D15*
X190100000Y-41572500D03*
D16*
X190100000Y-45825000D03*
%TD*%
D11*
%TO.C,D883*%
X176575000Y-84075000D03*
X177425000Y-84075000D03*
X176575000Y-84925000D03*
X177425000Y-84925000D03*
%TD*%
D17*
%TO.C,R54*%
X175090000Y-43300000D03*
X176110000Y-43300000D03*
%TD*%
D11*
%TO.C,D728*%
X176575000Y-66075000D03*
X177425000Y-66075000D03*
X176575000Y-66925000D03*
X177425000Y-66925000D03*
%TD*%
%TO.C,D828*%
X178075000Y-78075000D03*
X178925000Y-78075000D03*
X178075000Y-78925000D03*
X178925000Y-78925000D03*
%TD*%
D18*
%TO.C,C115*%
X185950000Y-35860000D03*
X185950000Y-34900000D03*
%TD*%
D19*
%TO.C,C117*%
X169780000Y-43100000D03*
X168820000Y-43100000D03*
%TD*%
D11*
%TO.C,D831*%
X173575000Y-78075000D03*
X174425000Y-78075000D03*
X173575000Y-78925000D03*
X174425000Y-78925000D03*
%TD*%
D10*
%TO.C,D787*%
X187925000Y-74425000D03*
X187075000Y-74425000D03*
X187925000Y-73575000D03*
X187075000Y-73575000D03*
%TD*%
%TO.C,D868*%
X178925000Y-83425000D03*
X178075000Y-83425000D03*
X178925000Y-82575000D03*
X178075000Y-82575000D03*
%TD*%
D11*
%TO.C,D857*%
X178075000Y-81075000D03*
X178925000Y-81075000D03*
X178075000Y-81925000D03*
X178925000Y-81925000D03*
%TD*%
D12*
%TO.C,mouse-bite-2mm-slot25*%
X170979949Y-87080711D03*
X170431942Y-86568058D03*
X169919289Y-86020051D03*
%TD*%
D20*
%TO.C,R49*%
X183500000Y-38090000D03*
X183500000Y-39110000D03*
%TD*%
D12*
%TO.C,mouse-bite-2mm-slot27*%
X169919289Y-67979949D03*
X170431942Y-67431942D03*
X170979949Y-66919289D03*
%TD*%
D11*
%TO.C,D832*%
X172075000Y-78075000D03*
X172925000Y-78075000D03*
X172075000Y-78925000D03*
X172925000Y-78925000D03*
%TD*%
%TO.C,D824*%
X184075000Y-78075000D03*
X184925000Y-78075000D03*
X184075000Y-78925000D03*
X184925000Y-78925000D03*
%TD*%
D10*
%TO.C,D783*%
X181925000Y-74425000D03*
X181075000Y-74425000D03*
X181925000Y-73575000D03*
X181075000Y-73575000D03*
%TD*%
%TO.C,D752*%
X175925000Y-71425000D03*
X175075000Y-71425000D03*
X175925000Y-70575000D03*
X175075000Y-70575000D03*
%TD*%
D11*
%TO.C,D803*%
X170575000Y-75075000D03*
X171425000Y-75075000D03*
X170575000Y-75925000D03*
X171425000Y-75925000D03*
%TD*%
D10*
%TO.C,D750*%
X172925000Y-71425000D03*
X172075000Y-71425000D03*
X172925000Y-70575000D03*
X172075000Y-70575000D03*
%TD*%
D21*
%TO.C,C126*%
X172620000Y-35900000D03*
X173580000Y-35900000D03*
%TD*%
D11*
%TO.C,D855*%
X181075000Y-81075000D03*
X181925000Y-81075000D03*
X181075000Y-81925000D03*
X181925000Y-81925000D03*
%TD*%
D10*
%TO.C,D818*%
X189425000Y-77425000D03*
X188575000Y-77425000D03*
X189425000Y-76575000D03*
X188575000Y-76575000D03*
%TD*%
D11*
%TO.C,D853*%
X184075000Y-81075000D03*
X184925000Y-81075000D03*
X184075000Y-81925000D03*
X184925000Y-81925000D03*
%TD*%
D18*
%TO.C,C114*%
X184500000Y-37180000D03*
X184500000Y-36220000D03*
%TD*%
D10*
%TO.C,D888*%
X175925000Y-86425000D03*
X175075000Y-86425000D03*
X175925000Y-85575000D03*
X175075000Y-85575000D03*
%TD*%
%TO.C,D841*%
X178925000Y-80425000D03*
X178075000Y-80425000D03*
X178925000Y-79575000D03*
X178075000Y-79575000D03*
%TD*%
D11*
%TO.C,D820*%
X190075000Y-78075000D03*
X190925000Y-78075000D03*
X190075000Y-78925000D03*
X190925000Y-78925000D03*
%TD*%
D12*
%TO.C,mouse-bite-2mm-slot32*%
X189020051Y-29919289D03*
X189568058Y-30431942D03*
X190080711Y-30979949D03*
%TD*%
D20*
%TO.C,R56*%
X185900000Y-41790000D03*
X185900000Y-42810000D03*
%TD*%
D18*
%TO.C,C113*%
X183500000Y-37180000D03*
X183500000Y-36220000D03*
%TD*%
D10*
%TO.C,D808*%
X174425000Y-77425000D03*
X173575000Y-77425000D03*
X174425000Y-76575000D03*
X173575000Y-76575000D03*
%TD*%
D11*
%TO.C,D797*%
X179575000Y-75075000D03*
X180425000Y-75075000D03*
X179575000Y-75925000D03*
X180425000Y-75925000D03*
%TD*%
%TO.C,D858*%
X176575000Y-81075000D03*
X177425000Y-81075000D03*
X176575000Y-81925000D03*
X177425000Y-81925000D03*
%TD*%
D10*
%TO.C,D734*%
X181925000Y-68425000D03*
X181075000Y-68425000D03*
X181925000Y-67575000D03*
X181075000Y-67575000D03*
%TD*%
%TO.C,D733*%
X180425000Y-68425000D03*
X179575000Y-68425000D03*
X180425000Y-67575000D03*
X179575000Y-67575000D03*
%TD*%
D11*
%TO.C,D746*%
X175075000Y-69075000D03*
X175925000Y-69075000D03*
X175075000Y-69925000D03*
X175925000Y-69925000D03*
%TD*%
%TO.C,D859*%
X175075000Y-81075000D03*
X175925000Y-81075000D03*
X175075000Y-81925000D03*
X175925000Y-81925000D03*
%TD*%
%TO.C,D770*%
X176575000Y-72075000D03*
X177425000Y-72075000D03*
X176575000Y-72925000D03*
X177425000Y-72925000D03*
%TD*%
D22*
%TO.C,R50*%
X184500000Y-39110000D03*
X184500000Y-38090000D03*
%TD*%
D10*
%TO.C,D875*%
X189425000Y-83425000D03*
X188575000Y-83425000D03*
X189425000Y-82575000D03*
X188575000Y-82575000D03*
%TD*%
D11*
%TO.C,D878*%
X184075000Y-84075000D03*
X184925000Y-84075000D03*
X184075000Y-84925000D03*
X184925000Y-84925000D03*
%TD*%
D23*
%TO.C,D723*%
X187800000Y-46535000D03*
X187800000Y-48110000D03*
%TD*%
D11*
%TO.C,D884*%
X175075000Y-84075000D03*
X175925000Y-84075000D03*
X175075000Y-84925000D03*
X175925000Y-84925000D03*
%TD*%
D10*
%TO.C,D737*%
X186425000Y-68425000D03*
X185575000Y-68425000D03*
X186425000Y-67575000D03*
X185575000Y-67575000D03*
%TD*%
%TO.C,D817*%
X187925000Y-77425000D03*
X187075000Y-77425000D03*
X187925000Y-76575000D03*
X187075000Y-76575000D03*
%TD*%
D12*
%TO.C,mouse-bite-2mm-slot26*%
X190080711Y-86020051D03*
X189568058Y-86568058D03*
X189020051Y-87080711D03*
%TD*%
D10*
%TO.C,D814*%
X183425000Y-77425000D03*
X182575000Y-77425000D03*
X183425000Y-76575000D03*
X182575000Y-76575000D03*
%TD*%
%TO.C,D866*%
X175925000Y-83425000D03*
X175075000Y-83425000D03*
X175925000Y-82575000D03*
X175075000Y-82575000D03*
%TD*%
D11*
%TO.C,D762*%
X188575000Y-72075000D03*
X189425000Y-72075000D03*
X188575000Y-72925000D03*
X189425000Y-72925000D03*
%TD*%
D10*
%TO.C,D807*%
X172925000Y-77425000D03*
X172075000Y-77425000D03*
X172925000Y-76575000D03*
X172075000Y-76575000D03*
%TD*%
%TO.C,D778*%
X174425000Y-74425000D03*
X173575000Y-74425000D03*
X174425000Y-73575000D03*
X173575000Y-73575000D03*
%TD*%
%TO.C,D819*%
X190925000Y-77425000D03*
X190075000Y-77425000D03*
X190925000Y-76575000D03*
X190075000Y-76575000D03*
%TD*%
D11*
%TO.C,D802*%
X172075000Y-75075000D03*
X172925000Y-75075000D03*
X172075000Y-75925000D03*
X172925000Y-75925000D03*
%TD*%
D10*
%TO.C,D843*%
X181925000Y-80425000D03*
X181075000Y-80425000D03*
X181925000Y-79575000D03*
X181075000Y-79575000D03*
%TD*%
%TO.C,D761*%
X189425000Y-71425000D03*
X188575000Y-71425000D03*
X189425000Y-70575000D03*
X188575000Y-70575000D03*
%TD*%
%TO.C,D838*%
X174425000Y-80425000D03*
X173575000Y-80425000D03*
X174425000Y-79575000D03*
X173575000Y-79575000D03*
%TD*%
D11*
%TO.C,D738*%
X187075000Y-69075000D03*
X187925000Y-69075000D03*
X187075000Y-69925000D03*
X187925000Y-69925000D03*
%TD*%
%TO.C,D821*%
X188575000Y-78075000D03*
X189425000Y-78075000D03*
X188575000Y-78925000D03*
X189425000Y-78925000D03*
%TD*%
D10*
%TO.C,D729*%
X174425000Y-68425000D03*
X173575000Y-68425000D03*
X174425000Y-67575000D03*
X173575000Y-67575000D03*
%TD*%
%TO.C,D786*%
X186425000Y-74425000D03*
X185575000Y-74425000D03*
X186425000Y-73575000D03*
X185575000Y-73575000D03*
%TD*%
%TO.C,D806*%
X171425000Y-77425000D03*
X170575000Y-77425000D03*
X171425000Y-76575000D03*
X170575000Y-76575000D03*
%TD*%
D24*
%TO.C,U19*%
X177750000Y-38440000D03*
D25*
X177750000Y-39250000D03*
X177750000Y-39750000D03*
X177750000Y-40250000D03*
X177750000Y-40750000D03*
D24*
X177750000Y-41560000D03*
X178250000Y-41560000D03*
X178750000Y-41560000D03*
X179250000Y-41560000D03*
X179750000Y-41560000D03*
X180250000Y-41560000D03*
X180750000Y-41560000D03*
X181250000Y-41560000D03*
X181750000Y-41560000D03*
X182250000Y-41560000D03*
D25*
X182250000Y-40750000D03*
X182250000Y-40250000D03*
X182250000Y-39750000D03*
X182250000Y-39250000D03*
D24*
X182250000Y-38440000D03*
X181750000Y-38440000D03*
X181250000Y-38440000D03*
X180750000Y-38440000D03*
X180250000Y-38440000D03*
X179750000Y-38440000D03*
X179250000Y-38440000D03*
X178750000Y-38440000D03*
X178250000Y-38440000D03*
%TD*%
D10*
%TO.C,D865*%
X174425000Y-83425000D03*
X173575000Y-83425000D03*
X174425000Y-82575000D03*
X173575000Y-82575000D03*
%TD*%
D26*
%TO.C,J29*%
X177110000Y-48090000D03*
X182890000Y-48090000D03*
D27*
X176800000Y-46990000D03*
X177600000Y-46990000D03*
D28*
X178750000Y-46990000D03*
X179750000Y-46990000D03*
X180250000Y-46990000D03*
X181250000Y-46990000D03*
D27*
X182400000Y-46990000D03*
X183200000Y-46990000D03*
X183200000Y-46990000D03*
X182400000Y-46990000D03*
D28*
X181750000Y-46990000D03*
X180750000Y-46990000D03*
X179250000Y-46990000D03*
X178250000Y-46990000D03*
D27*
X177600000Y-46990000D03*
X176800000Y-46990000D03*
D29*
X175680000Y-47590000D03*
X184320000Y-47590000D03*
D30*
X184320000Y-51770000D03*
X175680000Y-51770000D03*
%TD*%
D12*
%TO.C,mouse-bite-2mm-slot31*%
X169919289Y-30979949D03*
X170431942Y-30431942D03*
X170979949Y-29919289D03*
%TD*%
D10*
%TO.C,D890*%
X178925000Y-86425000D03*
X178075000Y-86425000D03*
X178925000Y-85575000D03*
X178075000Y-85575000D03*
%TD*%
%TO.C,D775*%
X169925000Y-74425000D03*
X169075000Y-74425000D03*
X169925000Y-73575000D03*
X169075000Y-73575000D03*
%TD*%
D11*
%TO.C,D743*%
X179575000Y-69075000D03*
X180425000Y-69075000D03*
X179575000Y-69925000D03*
X180425000Y-69925000D03*
%TD*%
D10*
%TO.C,D869*%
X180425000Y-83425000D03*
X179575000Y-83425000D03*
X180425000Y-82575000D03*
X179575000Y-82575000D03*
%TD*%
D14*
%TO.C,SW14*%
X189200000Y-36300000D03*
X191000000Y-36300000D03*
D15*
X190100000Y-38427500D03*
D16*
X190100000Y-34175000D03*
%TD*%
D10*
%TO.C,D894*%
X184925000Y-86425000D03*
X184075000Y-86425000D03*
X184925000Y-85575000D03*
X184075000Y-85575000D03*
%TD*%
%TO.C,D749*%
X171425000Y-71425000D03*
X170575000Y-71425000D03*
X171425000Y-70575000D03*
X170575000Y-70575000D03*
%TD*%
D11*
%TO.C,D898*%
X179575000Y-87075000D03*
X180425000Y-87075000D03*
X179575000Y-87925000D03*
X180425000Y-87925000D03*
%TD*%
D21*
%TO.C,C124*%
X179720000Y-42700000D03*
X180680000Y-42700000D03*
%TD*%
D10*
%TO.C,D789*%
X190925000Y-74425000D03*
X190075000Y-74425000D03*
X190925000Y-73575000D03*
X190075000Y-73575000D03*
%TD*%
D21*
%TO.C,C122*%
X176520000Y-37100000D03*
X177480000Y-37100000D03*
%TD*%
D11*
%TO.C,D877*%
X185575000Y-84075000D03*
X186425000Y-84075000D03*
X185575000Y-84925000D03*
X186425000Y-84925000D03*
%TD*%
%TO.C,D825*%
X182575000Y-78075000D03*
X183425000Y-78075000D03*
X182575000Y-78925000D03*
X183425000Y-78925000D03*
%TD*%
%TO.C,D744*%
X178075000Y-69075000D03*
X178925000Y-69075000D03*
X178075000Y-69925000D03*
X178925000Y-69925000D03*
%TD*%
D10*
%TO.C,D848*%
X189425000Y-80425000D03*
X188575000Y-80425000D03*
X189425000Y-79575000D03*
X188575000Y-79575000D03*
%TD*%
D11*
%TO.C,D827*%
X179575000Y-78075000D03*
X180425000Y-78075000D03*
X179575000Y-78925000D03*
X180425000Y-78925000D03*
%TD*%
D10*
%TO.C,D839*%
X175925000Y-80425000D03*
X175075000Y-80425000D03*
X175925000Y-79575000D03*
X175075000Y-79575000D03*
%TD*%
%TO.C,D736*%
X184925000Y-68425000D03*
X184075000Y-68425000D03*
X184925000Y-67575000D03*
X184075000Y-67575000D03*
%TD*%
D17*
%TO.C,R53*%
X175090000Y-42300000D03*
X176110000Y-42300000D03*
%TD*%
D11*
%TO.C,D748*%
X172075000Y-69075000D03*
X172925000Y-69075000D03*
X172075000Y-69925000D03*
X172925000Y-69925000D03*
%TD*%
D10*
%TO.C,D758*%
X184925000Y-71425000D03*
X184075000Y-71425000D03*
X184925000Y-70575000D03*
X184075000Y-70575000D03*
%TD*%
D31*
%TO.C,C118*%
X174100000Y-41370000D03*
X174100000Y-42330000D03*
%TD*%
D10*
%TO.C,D754*%
X178925000Y-71425000D03*
X178075000Y-71425000D03*
X178925000Y-70575000D03*
X178075000Y-70575000D03*
%TD*%
%TO.C,D735*%
X183425000Y-68425000D03*
X182575000Y-68425000D03*
X183425000Y-67575000D03*
X182575000Y-67575000D03*
%TD*%
D11*
%TO.C,D773*%
X172075000Y-72075000D03*
X172925000Y-72075000D03*
X172075000Y-72925000D03*
X172925000Y-72925000D03*
%TD*%
D10*
%TO.C,D815*%
X184925000Y-77425000D03*
X184075000Y-77425000D03*
X184925000Y-76575000D03*
X184075000Y-76575000D03*
%TD*%
D11*
%TO.C,D742*%
X181075000Y-69075000D03*
X181925000Y-69075000D03*
X181075000Y-69925000D03*
X181925000Y-69925000D03*
%TD*%
D10*
%TO.C,D813*%
X181925000Y-77425000D03*
X181075000Y-77425000D03*
X181925000Y-76575000D03*
X181075000Y-76575000D03*
%TD*%
D14*
%TO.C,SW13*%
X171200000Y-40000000D03*
X169400000Y-40000000D03*
D15*
X170300000Y-37872500D03*
D16*
X170300000Y-42125000D03*
%TD*%
D10*
%TO.C,D757*%
X183425000Y-71425000D03*
X182575000Y-71425000D03*
X183425000Y-70575000D03*
X182575000Y-70575000D03*
%TD*%
D11*
%TO.C,D767*%
X181075000Y-72075000D03*
X181925000Y-72075000D03*
X181075000Y-72925000D03*
X181925000Y-72925000D03*
%TD*%
%TO.C,D886*%
X172075000Y-84075000D03*
X172925000Y-84075000D03*
X172075000Y-84925000D03*
X172925000Y-84925000D03*
%TD*%
D10*
%TO.C,D835*%
X169925000Y-80425000D03*
X169075000Y-80425000D03*
X169925000Y-79575000D03*
X169075000Y-79575000D03*
%TD*%
D11*
%TO.C,D879*%
X182575000Y-84075000D03*
X183425000Y-84075000D03*
X182575000Y-84925000D03*
X183425000Y-84925000D03*
%TD*%
D10*
%TO.C,D842*%
X180425000Y-80425000D03*
X179575000Y-80425000D03*
X180425000Y-79575000D03*
X179575000Y-79575000D03*
%TD*%
D11*
%TO.C,D854*%
X182575000Y-81075000D03*
X183425000Y-81075000D03*
X182575000Y-81925000D03*
X183425000Y-81925000D03*
%TD*%
%TO.C,D792*%
X187075000Y-75075000D03*
X187925000Y-75075000D03*
X187075000Y-75925000D03*
X187925000Y-75925000D03*
%TD*%
D10*
%TO.C,D776*%
X171425000Y-74425000D03*
X170575000Y-74425000D03*
X171425000Y-73575000D03*
X170575000Y-73575000D03*
%TD*%
D11*
%TO.C,D769*%
X178075000Y-72075000D03*
X178925000Y-72075000D03*
X178075000Y-72925000D03*
X178925000Y-72925000D03*
%TD*%
%TO.C,D798*%
X178075000Y-75075000D03*
X178925000Y-75075000D03*
X178075000Y-75925000D03*
X178925000Y-75925000D03*
%TD*%
D10*
%TO.C,D785*%
X184925000Y-74425000D03*
X184075000Y-74425000D03*
X184925000Y-73575000D03*
X184075000Y-73575000D03*
%TD*%
D11*
%TO.C,D830*%
X175075000Y-78075000D03*
X175925000Y-78075000D03*
X175075000Y-78925000D03*
X175925000Y-78925000D03*
%TD*%
%TO.C,D880*%
X181075000Y-84075000D03*
X181925000Y-84075000D03*
X181075000Y-84925000D03*
X181925000Y-84925000D03*
%TD*%
%TO.C,D766*%
X182575000Y-72075000D03*
X183425000Y-72075000D03*
X182575000Y-72925000D03*
X183425000Y-72925000D03*
%TD*%
%TO.C,D739*%
X185575000Y-69075000D03*
X186425000Y-69075000D03*
X185575000Y-69925000D03*
X186425000Y-69925000D03*
%TD*%
D18*
%TO.C,C123*%
X176500000Y-38980000D03*
X176500000Y-38020000D03*
%TD*%
D11*
%TO.C,D881*%
X179575000Y-84075000D03*
X180425000Y-84075000D03*
X179575000Y-84925000D03*
X180425000Y-84925000D03*
%TD*%
D18*
%TO.C,C119*%
X174100000Y-44230000D03*
X174100000Y-43270000D03*
%TD*%
D10*
%TO.C,D731*%
X177425000Y-68425000D03*
X176575000Y-68425000D03*
X177425000Y-67575000D03*
X176575000Y-67575000D03*
%TD*%
%TO.C,D870*%
X181925000Y-83425000D03*
X181075000Y-83425000D03*
X181925000Y-82575000D03*
X181075000Y-82575000D03*
%TD*%
D11*
%TO.C,D764*%
X185575000Y-72075000D03*
X186425000Y-72075000D03*
X185575000Y-72925000D03*
X186425000Y-72925000D03*
%TD*%
D10*
%TO.C,D864*%
X172925000Y-83425000D03*
X172075000Y-83425000D03*
X172925000Y-82575000D03*
X172075000Y-82575000D03*
%TD*%
D17*
%TO.C,R58*%
X182390000Y-45400000D03*
X183410000Y-45400000D03*
%TD*%
D10*
%TO.C,D779*%
X175925000Y-74425000D03*
X175075000Y-74425000D03*
X175925000Y-73575000D03*
X175075000Y-73575000D03*
%TD*%
%TO.C,D784*%
X183425000Y-74425000D03*
X182575000Y-74425000D03*
X183425000Y-73575000D03*
X182575000Y-73575000D03*
%TD*%
D11*
%TO.C,D763*%
X187075000Y-72075000D03*
X187925000Y-72075000D03*
X187075000Y-72925000D03*
X187925000Y-72925000D03*
%TD*%
%TO.C,D834*%
X169075000Y-78075000D03*
X169925000Y-78075000D03*
X169075000Y-78925000D03*
X169925000Y-78925000D03*
%TD*%
D10*
%TO.C,D895*%
X186425000Y-86425000D03*
X185575000Y-86425000D03*
X186425000Y-85575000D03*
X185575000Y-85575000D03*
%TD*%
%TO.C,D732*%
X178925000Y-68425000D03*
X178075000Y-68425000D03*
X178925000Y-67575000D03*
X178075000Y-67575000D03*
%TD*%
D11*
%TO.C,D745*%
X176575000Y-69075000D03*
X177425000Y-69075000D03*
X176575000Y-69925000D03*
X177425000Y-69925000D03*
%TD*%
%TO.C,D852*%
X185575000Y-81075000D03*
X186425000Y-81075000D03*
X185575000Y-81925000D03*
X186425000Y-81925000D03*
%TD*%
%TO.C,D795*%
X182575000Y-75075000D03*
X183425000Y-75075000D03*
X182575000Y-75925000D03*
X183425000Y-75925000D03*
%TD*%
D10*
%TO.C,D816*%
X186425000Y-77425000D03*
X185575000Y-77425000D03*
X186425000Y-76575000D03*
X185575000Y-76575000D03*
%TD*%
D11*
%TO.C,D726*%
X179575000Y-66075000D03*
X180425000Y-66075000D03*
X179575000Y-66925000D03*
X180425000Y-66925000D03*
%TD*%
%TO.C,D765*%
X184075000Y-72075000D03*
X184925000Y-72075000D03*
X184075000Y-72925000D03*
X184925000Y-72925000D03*
%TD*%
D32*
%TO.C,R59*%
X178110000Y-45400000D03*
X177090000Y-45400000D03*
%TD*%
D11*
%TO.C,D791*%
X188575000Y-75075000D03*
X189425000Y-75075000D03*
X188575000Y-75925000D03*
X189425000Y-75925000D03*
%TD*%
D10*
%TO.C,D892*%
X181925000Y-86425000D03*
X181075000Y-86425000D03*
X181925000Y-85575000D03*
X181075000Y-85575000D03*
%TD*%
D11*
%TO.C,D822*%
X187075000Y-78075000D03*
X187925000Y-78075000D03*
X187075000Y-78925000D03*
X187925000Y-78925000D03*
%TD*%
D10*
%TO.C,D781*%
X178925000Y-74425000D03*
X178075000Y-74425000D03*
X178925000Y-73575000D03*
X178075000Y-73575000D03*
%TD*%
D11*
%TO.C,D823*%
X185575000Y-78075000D03*
X186425000Y-78075000D03*
X185575000Y-78925000D03*
X186425000Y-78925000D03*
%TD*%
%TO.C,D741*%
X182575000Y-69075000D03*
X183425000Y-69075000D03*
X182575000Y-69925000D03*
X183425000Y-69925000D03*
%TD*%
D10*
%TO.C,D812*%
X180425000Y-77425000D03*
X179575000Y-77425000D03*
X180425000Y-76575000D03*
X179575000Y-76575000D03*
%TD*%
D11*
%TO.C,D882*%
X178075000Y-84075000D03*
X178925000Y-84075000D03*
X178075000Y-84925000D03*
X178925000Y-84925000D03*
%TD*%
D10*
%TO.C,D887*%
X174425000Y-86450000D03*
X173575000Y-86450000D03*
X174425000Y-85600000D03*
X173575000Y-85600000D03*
%TD*%
D11*
%TO.C,D804*%
X169075000Y-75075000D03*
X169925000Y-75075000D03*
X169075000Y-75925000D03*
X169925000Y-75925000D03*
%TD*%
%TO.C,D801*%
X173575000Y-75075000D03*
X174425000Y-75075000D03*
X173575000Y-75925000D03*
X174425000Y-75925000D03*
%TD*%
D10*
%TO.C,D760*%
X187925000Y-71425000D03*
X187075000Y-71425000D03*
X187925000Y-70575000D03*
X187075000Y-70575000D03*
%TD*%
%TO.C,D863*%
X171425000Y-83425000D03*
X170575000Y-83425000D03*
X171425000Y-82575000D03*
X170575000Y-82575000D03*
%TD*%
D11*
%TO.C,D724*%
X182575000Y-66075000D03*
X183425000Y-66075000D03*
X182575000Y-66925000D03*
X183425000Y-66925000D03*
%TD*%
D10*
%TO.C,D849*%
X190925000Y-80425000D03*
X190075000Y-80425000D03*
X190925000Y-79575000D03*
X190075000Y-79575000D03*
%TD*%
D22*
%TO.C,R51*%
X185950000Y-37820000D03*
X185950000Y-36800000D03*
%TD*%
D10*
%TO.C,D867*%
X177425000Y-83425000D03*
X176575000Y-83425000D03*
X177425000Y-82575000D03*
X176575000Y-82575000D03*
%TD*%
%TO.C,D871*%
X183425000Y-83425000D03*
X182575000Y-83425000D03*
X183425000Y-82575000D03*
X182575000Y-82575000D03*
%TD*%
%TO.C,D889*%
X177425000Y-86425000D03*
X176575000Y-86425000D03*
X177425000Y-85575000D03*
X176575000Y-85575000D03*
%TD*%
D11*
%TO.C,D829*%
X176575000Y-78075000D03*
X177425000Y-78075000D03*
X176575000Y-78925000D03*
X177425000Y-78925000D03*
%TD*%
D22*
%TO.C,R52*%
X186100000Y-48110000D03*
X186100000Y-47090000D03*
%TD*%
D12*
%TO.C,mouse-bite-2mm-slot28*%
X189020051Y-66919289D03*
X189568058Y-67431942D03*
X190080711Y-67979949D03*
%TD*%
D10*
%TO.C,D780*%
X177425000Y-74425000D03*
X176575000Y-74425000D03*
X177425000Y-73575000D03*
X176575000Y-73575000D03*
%TD*%
%TO.C,D840*%
X177425000Y-80425000D03*
X176575000Y-80425000D03*
X177425000Y-79575000D03*
X176575000Y-79575000D03*
%TD*%
%TO.C,D837*%
X172925000Y-80425000D03*
X172075000Y-80425000D03*
X172925000Y-79575000D03*
X172075000Y-79575000D03*
%TD*%
%TO.C,D845*%
X184925000Y-80425000D03*
X184075000Y-80425000D03*
X184925000Y-79575000D03*
X184075000Y-79575000D03*
%TD*%
%TO.C,D874*%
X187925000Y-83425000D03*
X187075000Y-83425000D03*
X187925000Y-82575000D03*
X187075000Y-82575000D03*
%TD*%
%TO.C,D811*%
X178925000Y-77425000D03*
X178075000Y-77425000D03*
X178925000Y-76575000D03*
X178075000Y-76575000D03*
%TD*%
D17*
%TO.C,R57*%
X186290000Y-40800000D03*
X187310000Y-40800000D03*
%TD*%
D11*
%TO.C,D826*%
X181075000Y-78075000D03*
X181925000Y-78075000D03*
X181075000Y-78925000D03*
X181925000Y-78925000D03*
%TD*%
%TO.C,D862*%
X170575000Y-81075000D03*
X171425000Y-81075000D03*
X170575000Y-81925000D03*
X171425000Y-81925000D03*
%TD*%
%TO.C,D793*%
X185575000Y-75075000D03*
X186425000Y-75075000D03*
X185575000Y-75925000D03*
X186425000Y-75925000D03*
%TD*%
D19*
%TO.C,C125*%
X171660000Y-32900000D03*
X170700000Y-32900000D03*
%TD*%
D11*
%TO.C,D856*%
X179575000Y-81075000D03*
X180425000Y-81075000D03*
X179575000Y-81925000D03*
X180425000Y-81925000D03*
%TD*%
%TO.C,D833*%
X170575000Y-78075000D03*
X171425000Y-78075000D03*
X170575000Y-78925000D03*
X171425000Y-78925000D03*
%TD*%
%TO.C,D896*%
X182575000Y-87075000D03*
X183425000Y-87075000D03*
X182575000Y-87925000D03*
X183425000Y-87925000D03*
%TD*%
D10*
%TO.C,D805*%
X169925000Y-77425000D03*
X169075000Y-77425000D03*
X169925000Y-76575000D03*
X169075000Y-76575000D03*
%TD*%
D11*
%TO.C,D799*%
X176575000Y-75075000D03*
X177425000Y-75075000D03*
X176575000Y-75925000D03*
X177425000Y-75925000D03*
%TD*%
D18*
%TO.C,C116*%
X187300000Y-33880000D03*
X187300000Y-32920000D03*
%TD*%
D11*
%TO.C,D790*%
X190075000Y-75075000D03*
X190925000Y-75075000D03*
X190075000Y-75925000D03*
X190925000Y-75925000D03*
%TD*%
D33*
%TO.C,D721*%
X178970000Y-43700000D03*
X178970000Y-44500000D03*
D34*
X180030000Y-44100000D03*
%TD*%
D11*
%TO.C,D861*%
X172075000Y-81075000D03*
X172925000Y-81075000D03*
X172075000Y-81925000D03*
X172925000Y-81925000D03*
%TD*%
D10*
%TO.C,D730*%
X175925000Y-68425000D03*
X175075000Y-68425000D03*
X175925000Y-67575000D03*
X175075000Y-67575000D03*
%TD*%
D11*
%TO.C,D796*%
X181075000Y-75075000D03*
X181925000Y-75075000D03*
X181075000Y-75925000D03*
X181925000Y-75925000D03*
%TD*%
D10*
%TO.C,D759*%
X186425000Y-71425000D03*
X185575000Y-71425000D03*
X186425000Y-70575000D03*
X185575000Y-70575000D03*
%TD*%
%TO.C,D844*%
X183425000Y-80425000D03*
X182575000Y-80425000D03*
X183425000Y-79575000D03*
X182575000Y-79575000D03*
%TD*%
%TO.C,D872*%
X184925000Y-83425000D03*
X184075000Y-83425000D03*
X184925000Y-82575000D03*
X184075000Y-82575000D03*
%TD*%
%TO.C,D711*%
X145425000Y-86425000D03*
X144575000Y-86425000D03*
X145425000Y-85575000D03*
X144575000Y-85575000D03*
%TD*%
D11*
%TO.C,D592*%
X138575000Y-72075000D03*
X139425000Y-72075000D03*
X138575000Y-72925000D03*
X139425000Y-72925000D03*
%TD*%
D12*
%TO.C,mouse-bite-2mm-slot21*%
X135979949Y-50080711D03*
X135431942Y-49568058D03*
X134919289Y-49020051D03*
%TD*%
D10*
%TO.C,D573*%
X142425000Y-71425000D03*
X141575000Y-71425000D03*
X142425000Y-70575000D03*
X141575000Y-70575000D03*
%TD*%
D11*
%TO.C,D614*%
X149075000Y-75075000D03*
X149925000Y-75075000D03*
X149075000Y-75925000D03*
X149925000Y-75925000D03*
%TD*%
%TO.C,D588*%
X144575000Y-72075000D03*
X145425000Y-72075000D03*
X144575000Y-72925000D03*
X145425000Y-72925000D03*
%TD*%
D10*
%TO.C,D713*%
X148425000Y-86425000D03*
X147575000Y-86425000D03*
X148425000Y-85575000D03*
X147575000Y-85575000D03*
%TD*%
%TO.C,D575*%
X145425000Y-71425000D03*
X144575000Y-71425000D03*
X145425000Y-70575000D03*
X144575000Y-70575000D03*
%TD*%
D11*
%TO.C,D560*%
X149075000Y-69075000D03*
X149925000Y-69075000D03*
X149075000Y-69925000D03*
X149925000Y-69925000D03*
%TD*%
D10*
%TO.C,D693*%
X151425000Y-83425000D03*
X150575000Y-83425000D03*
X151425000Y-82575000D03*
X150575000Y-82575000D03*
%TD*%
%TO.C,D608*%
X154425000Y-74425000D03*
X153575000Y-74425000D03*
X154425000Y-73575000D03*
X153575000Y-73575000D03*
%TD*%
D11*
%TO.C,D594*%
X135575000Y-72075000D03*
X136425000Y-72075000D03*
X135575000Y-72925000D03*
X136425000Y-72925000D03*
%TD*%
D10*
%TO.C,D630*%
X142425000Y-77425000D03*
X141575000Y-77425000D03*
X142425000Y-76575000D03*
X141575000Y-76575000D03*
%TD*%
%TO.C,D602*%
X145425000Y-74425000D03*
X144575000Y-74425000D03*
X145425000Y-73575000D03*
X144575000Y-73575000D03*
%TD*%
D11*
%TO.C,D591*%
X140075000Y-72075000D03*
X140925000Y-72075000D03*
X140075000Y-72925000D03*
X140925000Y-72925000D03*
%TD*%
D10*
%TO.C,D597*%
X137925000Y-74425000D03*
X137075000Y-74425000D03*
X137925000Y-73575000D03*
X137075000Y-73575000D03*
%TD*%
D11*
%TO.C,D705*%
X138575000Y-84075000D03*
X139425000Y-84075000D03*
X138575000Y-84925000D03*
X139425000Y-84925000D03*
%TD*%
D10*
%TO.C,D667*%
X152925000Y-80425000D03*
X152075000Y-80425000D03*
X152925000Y-79575000D03*
X152075000Y-79575000D03*
%TD*%
D11*
%TO.C,D680*%
X138575000Y-81075000D03*
X139425000Y-81075000D03*
X138575000Y-81925000D03*
X139425000Y-81925000D03*
%TD*%
D10*
%TO.C,D666*%
X151425000Y-80425000D03*
X150575000Y-80425000D03*
X151425000Y-79575000D03*
X150575000Y-79575000D03*
%TD*%
D11*
%TO.C,D720*%
X141575000Y-87075000D03*
X142425000Y-87075000D03*
X141575000Y-87925000D03*
X142425000Y-87925000D03*
%TD*%
%TO.C,D670*%
X153575000Y-81075000D03*
X154425000Y-81075000D03*
X153575000Y-81925000D03*
X154425000Y-81925000D03*
%TD*%
D10*
%TO.C,D656*%
X136425000Y-80425000D03*
X135575000Y-80425000D03*
X136425000Y-79575000D03*
X135575000Y-79575000D03*
%TD*%
D11*
%TO.C,D717*%
X146075000Y-87075000D03*
X146925000Y-87075000D03*
X146075000Y-87925000D03*
X146925000Y-87925000D03*
%TD*%
%TO.C,D719*%
X143075000Y-87075000D03*
X143925000Y-87075000D03*
X143075000Y-87925000D03*
X143925000Y-87925000D03*
%TD*%
%TO.C,D545*%
X146075000Y-66075000D03*
X146925000Y-66075000D03*
X146075000Y-66925000D03*
X146925000Y-66925000D03*
%TD*%
D10*
%TO.C,D629*%
X140925000Y-77425000D03*
X140075000Y-77425000D03*
X140925000Y-76575000D03*
X140075000Y-76575000D03*
%TD*%
D11*
%TO.C,D696*%
X152075000Y-84075000D03*
X152925000Y-84075000D03*
X152075000Y-84925000D03*
X152925000Y-84925000D03*
%TD*%
D12*
%TO.C,mouse-bite-2mm-slot22*%
X155080711Y-49020051D03*
X154568058Y-49568058D03*
X154020051Y-50080711D03*
%TD*%
D11*
%TO.C,D671*%
X152075000Y-81075000D03*
X152925000Y-81075000D03*
X152075000Y-81925000D03*
X152925000Y-81925000D03*
%TD*%
D10*
%TO.C,D576*%
X146925000Y-71425000D03*
X146075000Y-71425000D03*
X146925000Y-70575000D03*
X146075000Y-70575000D03*
%TD*%
D11*
%TO.C,D567*%
X138575000Y-69075000D03*
X139425000Y-69075000D03*
X138575000Y-69925000D03*
X139425000Y-69925000D03*
%TD*%
%TO.C,D620*%
X140075000Y-75075000D03*
X140925000Y-75075000D03*
X140075000Y-75925000D03*
X140925000Y-75925000D03*
%TD*%
D10*
%TO.C,D571*%
X139425000Y-71425000D03*
X138575000Y-71425000D03*
X139425000Y-70575000D03*
X138575000Y-70575000D03*
%TD*%
D13*
%TO.C,U16*%
X136350000Y-33950000D03*
X135700000Y-33950000D03*
X135050000Y-33950000D03*
X135050000Y-35850000D03*
X135700000Y-35850000D03*
X136350000Y-35850000D03*
%TD*%
D11*
%TO.C,D547*%
X143075000Y-66075000D03*
X143925000Y-66075000D03*
X143075000Y-66925000D03*
X143925000Y-66925000D03*
%TD*%
D14*
%TO.C,SW12*%
X156000000Y-43700000D03*
X154200000Y-43700000D03*
D15*
X155100000Y-41572500D03*
D16*
X155100000Y-45825000D03*
%TD*%
D11*
%TO.C,D703*%
X141575000Y-84075000D03*
X142425000Y-84075000D03*
X141575000Y-84925000D03*
X142425000Y-84925000D03*
%TD*%
D17*
%TO.C,R42*%
X140090000Y-43300000D03*
X141110000Y-43300000D03*
%TD*%
D11*
%TO.C,D548*%
X141575000Y-66075000D03*
X142425000Y-66075000D03*
X141575000Y-66925000D03*
X142425000Y-66925000D03*
%TD*%
%TO.C,D648*%
X143075000Y-78075000D03*
X143925000Y-78075000D03*
X143075000Y-78925000D03*
X143925000Y-78925000D03*
%TD*%
D18*
%TO.C,C87*%
X150950000Y-35860000D03*
X150950000Y-34900000D03*
%TD*%
D19*
%TO.C,C89*%
X134780000Y-43100000D03*
X133820000Y-43100000D03*
%TD*%
D11*
%TO.C,D651*%
X138575000Y-78075000D03*
X139425000Y-78075000D03*
X138575000Y-78925000D03*
X139425000Y-78925000D03*
%TD*%
D10*
%TO.C,D607*%
X152925000Y-74425000D03*
X152075000Y-74425000D03*
X152925000Y-73575000D03*
X152075000Y-73575000D03*
%TD*%
%TO.C,D688*%
X143925000Y-83425000D03*
X143075000Y-83425000D03*
X143925000Y-82575000D03*
X143075000Y-82575000D03*
%TD*%
D11*
%TO.C,D677*%
X143075000Y-81075000D03*
X143925000Y-81075000D03*
X143075000Y-81925000D03*
X143925000Y-81925000D03*
%TD*%
D12*
%TO.C,mouse-bite-2mm-slot17*%
X135979949Y-87080711D03*
X135431942Y-86568058D03*
X134919289Y-86020051D03*
%TD*%
D20*
%TO.C,R37*%
X148500000Y-38090000D03*
X148500000Y-39110000D03*
%TD*%
D12*
%TO.C,mouse-bite-2mm-slot19*%
X134919289Y-67979949D03*
X135431942Y-67431942D03*
X135979949Y-66919289D03*
%TD*%
D11*
%TO.C,D652*%
X137075000Y-78075000D03*
X137925000Y-78075000D03*
X137075000Y-78925000D03*
X137925000Y-78925000D03*
%TD*%
%TO.C,D644*%
X149075000Y-78075000D03*
X149925000Y-78075000D03*
X149075000Y-78925000D03*
X149925000Y-78925000D03*
%TD*%
D10*
%TO.C,D603*%
X146925000Y-74425000D03*
X146075000Y-74425000D03*
X146925000Y-73575000D03*
X146075000Y-73575000D03*
%TD*%
%TO.C,D572*%
X140925000Y-71425000D03*
X140075000Y-71425000D03*
X140925000Y-70575000D03*
X140075000Y-70575000D03*
%TD*%
D11*
%TO.C,D623*%
X135575000Y-75075000D03*
X136425000Y-75075000D03*
X135575000Y-75925000D03*
X136425000Y-75925000D03*
%TD*%
D10*
%TO.C,D570*%
X137925000Y-71425000D03*
X137075000Y-71425000D03*
X137925000Y-70575000D03*
X137075000Y-70575000D03*
%TD*%
D21*
%TO.C,C98*%
X137620000Y-35900000D03*
X138580000Y-35900000D03*
%TD*%
D11*
%TO.C,D675*%
X146075000Y-81075000D03*
X146925000Y-81075000D03*
X146075000Y-81925000D03*
X146925000Y-81925000D03*
%TD*%
D10*
%TO.C,D638*%
X154425000Y-77425000D03*
X153575000Y-77425000D03*
X154425000Y-76575000D03*
X153575000Y-76575000D03*
%TD*%
D11*
%TO.C,D673*%
X149075000Y-81075000D03*
X149925000Y-81075000D03*
X149075000Y-81925000D03*
X149925000Y-81925000D03*
%TD*%
D18*
%TO.C,C86*%
X149500000Y-37180000D03*
X149500000Y-36220000D03*
%TD*%
D10*
%TO.C,D708*%
X140925000Y-86425000D03*
X140075000Y-86425000D03*
X140925000Y-85575000D03*
X140075000Y-85575000D03*
%TD*%
%TO.C,D661*%
X143925000Y-80425000D03*
X143075000Y-80425000D03*
X143925000Y-79575000D03*
X143075000Y-79575000D03*
%TD*%
D11*
%TO.C,D640*%
X155075000Y-78075000D03*
X155925000Y-78075000D03*
X155075000Y-78925000D03*
X155925000Y-78925000D03*
%TD*%
D12*
%TO.C,mouse-bite-2mm-slot24*%
X154020051Y-29919289D03*
X154568058Y-30431942D03*
X155080711Y-30979949D03*
%TD*%
D20*
%TO.C,R44*%
X150900000Y-41790000D03*
X150900000Y-42810000D03*
%TD*%
D18*
%TO.C,C85*%
X148500000Y-37180000D03*
X148500000Y-36220000D03*
%TD*%
D10*
%TO.C,D628*%
X139425000Y-77425000D03*
X138575000Y-77425000D03*
X139425000Y-76575000D03*
X138575000Y-76575000D03*
%TD*%
D11*
%TO.C,D617*%
X144575000Y-75075000D03*
X145425000Y-75075000D03*
X144575000Y-75925000D03*
X145425000Y-75925000D03*
%TD*%
%TO.C,D678*%
X141575000Y-81075000D03*
X142425000Y-81075000D03*
X141575000Y-81925000D03*
X142425000Y-81925000D03*
%TD*%
D10*
%TO.C,D554*%
X146925000Y-68425000D03*
X146075000Y-68425000D03*
X146925000Y-67575000D03*
X146075000Y-67575000D03*
%TD*%
%TO.C,D553*%
X145425000Y-68425000D03*
X144575000Y-68425000D03*
X145425000Y-67575000D03*
X144575000Y-67575000D03*
%TD*%
D11*
%TO.C,D566*%
X140075000Y-69075000D03*
X140925000Y-69075000D03*
X140075000Y-69925000D03*
X140925000Y-69925000D03*
%TD*%
%TO.C,D679*%
X140075000Y-81075000D03*
X140925000Y-81075000D03*
X140075000Y-81925000D03*
X140925000Y-81925000D03*
%TD*%
%TO.C,D590*%
X141575000Y-72075000D03*
X142425000Y-72075000D03*
X141575000Y-72925000D03*
X142425000Y-72925000D03*
%TD*%
D22*
%TO.C,R38*%
X149500000Y-39110000D03*
X149500000Y-38090000D03*
%TD*%
D10*
%TO.C,D695*%
X154425000Y-83425000D03*
X153575000Y-83425000D03*
X154425000Y-82575000D03*
X153575000Y-82575000D03*
%TD*%
D11*
%TO.C,D698*%
X149075000Y-84075000D03*
X149925000Y-84075000D03*
X149075000Y-84925000D03*
X149925000Y-84925000D03*
%TD*%
D23*
%TO.C,D543*%
X152800000Y-46535000D03*
X152800000Y-48110000D03*
%TD*%
D11*
%TO.C,D704*%
X140075000Y-84075000D03*
X140925000Y-84075000D03*
X140075000Y-84925000D03*
X140925000Y-84925000D03*
%TD*%
D10*
%TO.C,D557*%
X151425000Y-68425000D03*
X150575000Y-68425000D03*
X151425000Y-67575000D03*
X150575000Y-67575000D03*
%TD*%
%TO.C,D637*%
X152925000Y-77425000D03*
X152075000Y-77425000D03*
X152925000Y-76575000D03*
X152075000Y-76575000D03*
%TD*%
D12*
%TO.C,mouse-bite-2mm-slot18*%
X155080711Y-86020051D03*
X154568058Y-86568058D03*
X154020051Y-87080711D03*
%TD*%
D10*
%TO.C,D634*%
X148425000Y-77425000D03*
X147575000Y-77425000D03*
X148425000Y-76575000D03*
X147575000Y-76575000D03*
%TD*%
%TO.C,D686*%
X140925000Y-83425000D03*
X140075000Y-83425000D03*
X140925000Y-82575000D03*
X140075000Y-82575000D03*
%TD*%
D11*
%TO.C,D582*%
X153575000Y-72075000D03*
X154425000Y-72075000D03*
X153575000Y-72925000D03*
X154425000Y-72925000D03*
%TD*%
D10*
%TO.C,D627*%
X137925000Y-77425000D03*
X137075000Y-77425000D03*
X137925000Y-76575000D03*
X137075000Y-76575000D03*
%TD*%
%TO.C,D598*%
X139425000Y-74425000D03*
X138575000Y-74425000D03*
X139425000Y-73575000D03*
X138575000Y-73575000D03*
%TD*%
%TO.C,D639*%
X155925000Y-77425000D03*
X155075000Y-77425000D03*
X155925000Y-76575000D03*
X155075000Y-76575000D03*
%TD*%
D11*
%TO.C,D622*%
X137075000Y-75075000D03*
X137925000Y-75075000D03*
X137075000Y-75925000D03*
X137925000Y-75925000D03*
%TD*%
D10*
%TO.C,D663*%
X146925000Y-80425000D03*
X146075000Y-80425000D03*
X146925000Y-79575000D03*
X146075000Y-79575000D03*
%TD*%
%TO.C,D581*%
X154425000Y-71425000D03*
X153575000Y-71425000D03*
X154425000Y-70575000D03*
X153575000Y-70575000D03*
%TD*%
%TO.C,D658*%
X139425000Y-80425000D03*
X138575000Y-80425000D03*
X139425000Y-79575000D03*
X138575000Y-79575000D03*
%TD*%
D11*
%TO.C,D558*%
X152075000Y-69075000D03*
X152925000Y-69075000D03*
X152075000Y-69925000D03*
X152925000Y-69925000D03*
%TD*%
%TO.C,D641*%
X153575000Y-78075000D03*
X154425000Y-78075000D03*
X153575000Y-78925000D03*
X154425000Y-78925000D03*
%TD*%
D10*
%TO.C,D549*%
X139425000Y-68425000D03*
X138575000Y-68425000D03*
X139425000Y-67575000D03*
X138575000Y-67575000D03*
%TD*%
%TO.C,D606*%
X151425000Y-74425000D03*
X150575000Y-74425000D03*
X151425000Y-73575000D03*
X150575000Y-73575000D03*
%TD*%
%TO.C,D626*%
X136425000Y-77425000D03*
X135575000Y-77425000D03*
X136425000Y-76575000D03*
X135575000Y-76575000D03*
%TD*%
D24*
%TO.C,U15*%
X142750000Y-38440000D03*
D25*
X142750000Y-39250000D03*
X142750000Y-39750000D03*
X142750000Y-40250000D03*
X142750000Y-40750000D03*
D24*
X142750000Y-41560000D03*
X143250000Y-41560000D03*
X143750000Y-41560000D03*
X144250000Y-41560000D03*
X144750000Y-41560000D03*
X145250000Y-41560000D03*
X145750000Y-41560000D03*
X146250000Y-41560000D03*
X146750000Y-41560000D03*
X147250000Y-41560000D03*
D25*
X147250000Y-40750000D03*
X147250000Y-40250000D03*
X147250000Y-39750000D03*
X147250000Y-39250000D03*
D24*
X147250000Y-38440000D03*
X146750000Y-38440000D03*
X146250000Y-38440000D03*
X145750000Y-38440000D03*
X145250000Y-38440000D03*
X144750000Y-38440000D03*
X144250000Y-38440000D03*
X143750000Y-38440000D03*
X143250000Y-38440000D03*
%TD*%
D10*
%TO.C,D685*%
X139425000Y-83425000D03*
X138575000Y-83425000D03*
X139425000Y-82575000D03*
X138575000Y-82575000D03*
%TD*%
D26*
%TO.C,J22*%
X142110000Y-48090000D03*
X147890000Y-48090000D03*
D27*
X141800000Y-46990000D03*
X142600000Y-46990000D03*
D28*
X143750000Y-46990000D03*
X144750000Y-46990000D03*
X145250000Y-46990000D03*
X146250000Y-46990000D03*
D27*
X147400000Y-46990000D03*
X148200000Y-46990000D03*
X148200000Y-46990000D03*
X147400000Y-46990000D03*
D28*
X146750000Y-46990000D03*
X145750000Y-46990000D03*
X144250000Y-46990000D03*
X143250000Y-46990000D03*
D27*
X142600000Y-46990000D03*
X141800000Y-46990000D03*
D29*
X140680000Y-47590000D03*
X149320000Y-47590000D03*
D30*
X149320000Y-51770000D03*
X140680000Y-51770000D03*
%TD*%
D12*
%TO.C,mouse-bite-2mm-slot23*%
X134919289Y-30979949D03*
X135431942Y-30431942D03*
X135979949Y-29919289D03*
%TD*%
D10*
%TO.C,D710*%
X143925000Y-86425000D03*
X143075000Y-86425000D03*
X143925000Y-85575000D03*
X143075000Y-85575000D03*
%TD*%
%TO.C,D595*%
X134925000Y-74425000D03*
X134075000Y-74425000D03*
X134925000Y-73575000D03*
X134075000Y-73575000D03*
%TD*%
D11*
%TO.C,D563*%
X144575000Y-69075000D03*
X145425000Y-69075000D03*
X144575000Y-69925000D03*
X145425000Y-69925000D03*
%TD*%
D10*
%TO.C,D689*%
X145425000Y-83425000D03*
X144575000Y-83425000D03*
X145425000Y-82575000D03*
X144575000Y-82575000D03*
%TD*%
D14*
%TO.C,SW11*%
X154200000Y-36300000D03*
X156000000Y-36300000D03*
D15*
X155100000Y-38427500D03*
D16*
X155100000Y-34175000D03*
%TD*%
D10*
%TO.C,D714*%
X149925000Y-86425000D03*
X149075000Y-86425000D03*
X149925000Y-85575000D03*
X149075000Y-85575000D03*
%TD*%
%TO.C,D569*%
X136425000Y-71425000D03*
X135575000Y-71425000D03*
X136425000Y-70575000D03*
X135575000Y-70575000D03*
%TD*%
D11*
%TO.C,D718*%
X144575000Y-87075000D03*
X145425000Y-87075000D03*
X144575000Y-87925000D03*
X145425000Y-87925000D03*
%TD*%
D21*
%TO.C,C96*%
X144720000Y-42700000D03*
X145680000Y-42700000D03*
%TD*%
D10*
%TO.C,D609*%
X155925000Y-74425000D03*
X155075000Y-74425000D03*
X155925000Y-73575000D03*
X155075000Y-73575000D03*
%TD*%
D21*
%TO.C,C94*%
X141520000Y-37100000D03*
X142480000Y-37100000D03*
%TD*%
D11*
%TO.C,D697*%
X150575000Y-84075000D03*
X151425000Y-84075000D03*
X150575000Y-84925000D03*
X151425000Y-84925000D03*
%TD*%
%TO.C,D645*%
X147575000Y-78075000D03*
X148425000Y-78075000D03*
X147575000Y-78925000D03*
X148425000Y-78925000D03*
%TD*%
%TO.C,D564*%
X143075000Y-69075000D03*
X143925000Y-69075000D03*
X143075000Y-69925000D03*
X143925000Y-69925000D03*
%TD*%
D10*
%TO.C,D668*%
X154425000Y-80425000D03*
X153575000Y-80425000D03*
X154425000Y-79575000D03*
X153575000Y-79575000D03*
%TD*%
D11*
%TO.C,D647*%
X144575000Y-78075000D03*
X145425000Y-78075000D03*
X144575000Y-78925000D03*
X145425000Y-78925000D03*
%TD*%
D10*
%TO.C,D659*%
X140925000Y-80425000D03*
X140075000Y-80425000D03*
X140925000Y-79575000D03*
X140075000Y-79575000D03*
%TD*%
%TO.C,D556*%
X149925000Y-68425000D03*
X149075000Y-68425000D03*
X149925000Y-67575000D03*
X149075000Y-67575000D03*
%TD*%
D17*
%TO.C,R41*%
X140090000Y-42300000D03*
X141110000Y-42300000D03*
%TD*%
D11*
%TO.C,D568*%
X137075000Y-69075000D03*
X137925000Y-69075000D03*
X137075000Y-69925000D03*
X137925000Y-69925000D03*
%TD*%
D10*
%TO.C,D578*%
X149925000Y-71425000D03*
X149075000Y-71425000D03*
X149925000Y-70575000D03*
X149075000Y-70575000D03*
%TD*%
D31*
%TO.C,C90*%
X139100000Y-41370000D03*
X139100000Y-42330000D03*
%TD*%
D10*
%TO.C,D574*%
X143925000Y-71425000D03*
X143075000Y-71425000D03*
X143925000Y-70575000D03*
X143075000Y-70575000D03*
%TD*%
%TO.C,D555*%
X148425000Y-68425000D03*
X147575000Y-68425000D03*
X148425000Y-67575000D03*
X147575000Y-67575000D03*
%TD*%
D11*
%TO.C,D593*%
X137075000Y-72075000D03*
X137925000Y-72075000D03*
X137075000Y-72925000D03*
X137925000Y-72925000D03*
%TD*%
D10*
%TO.C,D635*%
X149925000Y-77425000D03*
X149075000Y-77425000D03*
X149925000Y-76575000D03*
X149075000Y-76575000D03*
%TD*%
D11*
%TO.C,D562*%
X146075000Y-69075000D03*
X146925000Y-69075000D03*
X146075000Y-69925000D03*
X146925000Y-69925000D03*
%TD*%
D10*
%TO.C,D633*%
X146925000Y-77425000D03*
X146075000Y-77425000D03*
X146925000Y-76575000D03*
X146075000Y-76575000D03*
%TD*%
D14*
%TO.C,SW10*%
X136200000Y-40000000D03*
X134400000Y-40000000D03*
D15*
X135300000Y-37872500D03*
D16*
X135300000Y-42125000D03*
%TD*%
D10*
%TO.C,D577*%
X148425000Y-71425000D03*
X147575000Y-71425000D03*
X148425000Y-70575000D03*
X147575000Y-70575000D03*
%TD*%
D11*
%TO.C,D587*%
X146075000Y-72075000D03*
X146925000Y-72075000D03*
X146075000Y-72925000D03*
X146925000Y-72925000D03*
%TD*%
%TO.C,D706*%
X137075000Y-84075000D03*
X137925000Y-84075000D03*
X137075000Y-84925000D03*
X137925000Y-84925000D03*
%TD*%
D10*
%TO.C,D655*%
X134925000Y-80425000D03*
X134075000Y-80425000D03*
X134925000Y-79575000D03*
X134075000Y-79575000D03*
%TD*%
D11*
%TO.C,D699*%
X147575000Y-84075000D03*
X148425000Y-84075000D03*
X147575000Y-84925000D03*
X148425000Y-84925000D03*
%TD*%
D10*
%TO.C,D662*%
X145425000Y-80425000D03*
X144575000Y-80425000D03*
X145425000Y-79575000D03*
X144575000Y-79575000D03*
%TD*%
D11*
%TO.C,D674*%
X147575000Y-81075000D03*
X148425000Y-81075000D03*
X147575000Y-81925000D03*
X148425000Y-81925000D03*
%TD*%
%TO.C,D612*%
X152075000Y-75075000D03*
X152925000Y-75075000D03*
X152075000Y-75925000D03*
X152925000Y-75925000D03*
%TD*%
D10*
%TO.C,D596*%
X136425000Y-74425000D03*
X135575000Y-74425000D03*
X136425000Y-73575000D03*
X135575000Y-73575000D03*
%TD*%
D11*
%TO.C,D589*%
X143075000Y-72075000D03*
X143925000Y-72075000D03*
X143075000Y-72925000D03*
X143925000Y-72925000D03*
%TD*%
%TO.C,D618*%
X143075000Y-75075000D03*
X143925000Y-75075000D03*
X143075000Y-75925000D03*
X143925000Y-75925000D03*
%TD*%
D10*
%TO.C,D605*%
X149925000Y-74425000D03*
X149075000Y-74425000D03*
X149925000Y-73575000D03*
X149075000Y-73575000D03*
%TD*%
D11*
%TO.C,D650*%
X140075000Y-78075000D03*
X140925000Y-78075000D03*
X140075000Y-78925000D03*
X140925000Y-78925000D03*
%TD*%
%TO.C,D700*%
X146075000Y-84075000D03*
X146925000Y-84075000D03*
X146075000Y-84925000D03*
X146925000Y-84925000D03*
%TD*%
%TO.C,D586*%
X147575000Y-72075000D03*
X148425000Y-72075000D03*
X147575000Y-72925000D03*
X148425000Y-72925000D03*
%TD*%
%TO.C,D559*%
X150575000Y-69075000D03*
X151425000Y-69075000D03*
X150575000Y-69925000D03*
X151425000Y-69925000D03*
%TD*%
D18*
%TO.C,C95*%
X141500000Y-38980000D03*
X141500000Y-38020000D03*
%TD*%
D11*
%TO.C,D701*%
X144575000Y-84075000D03*
X145425000Y-84075000D03*
X144575000Y-84925000D03*
X145425000Y-84925000D03*
%TD*%
D18*
%TO.C,C91*%
X139100000Y-44230000D03*
X139100000Y-43270000D03*
%TD*%
D10*
%TO.C,D551*%
X142425000Y-68425000D03*
X141575000Y-68425000D03*
X142425000Y-67575000D03*
X141575000Y-67575000D03*
%TD*%
%TO.C,D690*%
X146925000Y-83425000D03*
X146075000Y-83425000D03*
X146925000Y-82575000D03*
X146075000Y-82575000D03*
%TD*%
D11*
%TO.C,D584*%
X150575000Y-72075000D03*
X151425000Y-72075000D03*
X150575000Y-72925000D03*
X151425000Y-72925000D03*
%TD*%
D10*
%TO.C,D684*%
X137925000Y-83425000D03*
X137075000Y-83425000D03*
X137925000Y-82575000D03*
X137075000Y-82575000D03*
%TD*%
D17*
%TO.C,R46*%
X147390000Y-45400000D03*
X148410000Y-45400000D03*
%TD*%
D10*
%TO.C,D599*%
X140925000Y-74425000D03*
X140075000Y-74425000D03*
X140925000Y-73575000D03*
X140075000Y-73575000D03*
%TD*%
%TO.C,D604*%
X148425000Y-74425000D03*
X147575000Y-74425000D03*
X148425000Y-73575000D03*
X147575000Y-73575000D03*
%TD*%
D11*
%TO.C,D583*%
X152075000Y-72075000D03*
X152925000Y-72075000D03*
X152075000Y-72925000D03*
X152925000Y-72925000D03*
%TD*%
%TO.C,D654*%
X134075000Y-78075000D03*
X134925000Y-78075000D03*
X134075000Y-78925000D03*
X134925000Y-78925000D03*
%TD*%
D10*
%TO.C,D715*%
X151425000Y-86425000D03*
X150575000Y-86425000D03*
X151425000Y-85575000D03*
X150575000Y-85575000D03*
%TD*%
%TO.C,D552*%
X143925000Y-68425000D03*
X143075000Y-68425000D03*
X143925000Y-67575000D03*
X143075000Y-67575000D03*
%TD*%
D11*
%TO.C,D565*%
X141575000Y-69075000D03*
X142425000Y-69075000D03*
X141575000Y-69925000D03*
X142425000Y-69925000D03*
%TD*%
%TO.C,D672*%
X150575000Y-81075000D03*
X151425000Y-81075000D03*
X150575000Y-81925000D03*
X151425000Y-81925000D03*
%TD*%
%TO.C,D615*%
X147575000Y-75075000D03*
X148425000Y-75075000D03*
X147575000Y-75925000D03*
X148425000Y-75925000D03*
%TD*%
D10*
%TO.C,D636*%
X151425000Y-77425000D03*
X150575000Y-77425000D03*
X151425000Y-76575000D03*
X150575000Y-76575000D03*
%TD*%
D11*
%TO.C,D546*%
X144575000Y-66075000D03*
X145425000Y-66075000D03*
X144575000Y-66925000D03*
X145425000Y-66925000D03*
%TD*%
%TO.C,D585*%
X149075000Y-72075000D03*
X149925000Y-72075000D03*
X149075000Y-72925000D03*
X149925000Y-72925000D03*
%TD*%
D32*
%TO.C,R47*%
X143110000Y-45400000D03*
X142090000Y-45400000D03*
%TD*%
D11*
%TO.C,D611*%
X153575000Y-75075000D03*
X154425000Y-75075000D03*
X153575000Y-75925000D03*
X154425000Y-75925000D03*
%TD*%
D10*
%TO.C,D712*%
X146925000Y-86425000D03*
X146075000Y-86425000D03*
X146925000Y-85575000D03*
X146075000Y-85575000D03*
%TD*%
D11*
%TO.C,D642*%
X152075000Y-78075000D03*
X152925000Y-78075000D03*
X152075000Y-78925000D03*
X152925000Y-78925000D03*
%TD*%
D10*
%TO.C,D601*%
X143925000Y-74425000D03*
X143075000Y-74425000D03*
X143925000Y-73575000D03*
X143075000Y-73575000D03*
%TD*%
D11*
%TO.C,D643*%
X150575000Y-78075000D03*
X151425000Y-78075000D03*
X150575000Y-78925000D03*
X151425000Y-78925000D03*
%TD*%
%TO.C,D561*%
X147575000Y-69075000D03*
X148425000Y-69075000D03*
X147575000Y-69925000D03*
X148425000Y-69925000D03*
%TD*%
D10*
%TO.C,D632*%
X145425000Y-77425000D03*
X144575000Y-77425000D03*
X145425000Y-76575000D03*
X144575000Y-76575000D03*
%TD*%
D11*
%TO.C,D702*%
X143075000Y-84075000D03*
X143925000Y-84075000D03*
X143075000Y-84925000D03*
X143925000Y-84925000D03*
%TD*%
D10*
%TO.C,D707*%
X139425000Y-86450000D03*
X138575000Y-86450000D03*
X139425000Y-85600000D03*
X138575000Y-85600000D03*
%TD*%
D11*
%TO.C,D624*%
X134075000Y-75075000D03*
X134925000Y-75075000D03*
X134075000Y-75925000D03*
X134925000Y-75925000D03*
%TD*%
%TO.C,D621*%
X138575000Y-75075000D03*
X139425000Y-75075000D03*
X138575000Y-75925000D03*
X139425000Y-75925000D03*
%TD*%
D10*
%TO.C,D580*%
X152925000Y-71425000D03*
X152075000Y-71425000D03*
X152925000Y-70575000D03*
X152075000Y-70575000D03*
%TD*%
%TO.C,D683*%
X136425000Y-83425000D03*
X135575000Y-83425000D03*
X136425000Y-82575000D03*
X135575000Y-82575000D03*
%TD*%
D11*
%TO.C,D544*%
X147575000Y-66075000D03*
X148425000Y-66075000D03*
X147575000Y-66925000D03*
X148425000Y-66925000D03*
%TD*%
D10*
%TO.C,D669*%
X155925000Y-80425000D03*
X155075000Y-80425000D03*
X155925000Y-79575000D03*
X155075000Y-79575000D03*
%TD*%
D22*
%TO.C,R39*%
X150950000Y-37820000D03*
X150950000Y-36800000D03*
%TD*%
D10*
%TO.C,D687*%
X142425000Y-83425000D03*
X141575000Y-83425000D03*
X142425000Y-82575000D03*
X141575000Y-82575000D03*
%TD*%
%TO.C,D691*%
X148425000Y-83425000D03*
X147575000Y-83425000D03*
X148425000Y-82575000D03*
X147575000Y-82575000D03*
%TD*%
%TO.C,D709*%
X142425000Y-86425000D03*
X141575000Y-86425000D03*
X142425000Y-85575000D03*
X141575000Y-85575000D03*
%TD*%
D11*
%TO.C,D649*%
X141575000Y-78075000D03*
X142425000Y-78075000D03*
X141575000Y-78925000D03*
X142425000Y-78925000D03*
%TD*%
D22*
%TO.C,R40*%
X151100000Y-48110000D03*
X151100000Y-47090000D03*
%TD*%
D12*
%TO.C,mouse-bite-2mm-slot20*%
X154020051Y-66919289D03*
X154568058Y-67431942D03*
X155080711Y-67979949D03*
%TD*%
D10*
%TO.C,D600*%
X142425000Y-74425000D03*
X141575000Y-74425000D03*
X142425000Y-73575000D03*
X141575000Y-73575000D03*
%TD*%
%TO.C,D660*%
X142425000Y-80425000D03*
X141575000Y-80425000D03*
X142425000Y-79575000D03*
X141575000Y-79575000D03*
%TD*%
%TO.C,D657*%
X137925000Y-80425000D03*
X137075000Y-80425000D03*
X137925000Y-79575000D03*
X137075000Y-79575000D03*
%TD*%
%TO.C,D665*%
X149925000Y-80425000D03*
X149075000Y-80425000D03*
X149925000Y-79575000D03*
X149075000Y-79575000D03*
%TD*%
%TO.C,D694*%
X152925000Y-83425000D03*
X152075000Y-83425000D03*
X152925000Y-82575000D03*
X152075000Y-82575000D03*
%TD*%
%TO.C,D631*%
X143925000Y-77425000D03*
X143075000Y-77425000D03*
X143925000Y-76575000D03*
X143075000Y-76575000D03*
%TD*%
D17*
%TO.C,R45*%
X151290000Y-40800000D03*
X152310000Y-40800000D03*
%TD*%
D11*
%TO.C,D646*%
X146075000Y-78075000D03*
X146925000Y-78075000D03*
X146075000Y-78925000D03*
X146925000Y-78925000D03*
%TD*%
%TO.C,D682*%
X135575000Y-81075000D03*
X136425000Y-81075000D03*
X135575000Y-81925000D03*
X136425000Y-81925000D03*
%TD*%
%TO.C,D613*%
X150575000Y-75075000D03*
X151425000Y-75075000D03*
X150575000Y-75925000D03*
X151425000Y-75925000D03*
%TD*%
D19*
%TO.C,C97*%
X136660000Y-32900000D03*
X135700000Y-32900000D03*
%TD*%
D11*
%TO.C,D676*%
X144575000Y-81075000D03*
X145425000Y-81075000D03*
X144575000Y-81925000D03*
X145425000Y-81925000D03*
%TD*%
%TO.C,D653*%
X135575000Y-78075000D03*
X136425000Y-78075000D03*
X135575000Y-78925000D03*
X136425000Y-78925000D03*
%TD*%
%TO.C,D716*%
X147575000Y-87075000D03*
X148425000Y-87075000D03*
X147575000Y-87925000D03*
X148425000Y-87925000D03*
%TD*%
D10*
%TO.C,D625*%
X134925000Y-77425000D03*
X134075000Y-77425000D03*
X134925000Y-76575000D03*
X134075000Y-76575000D03*
%TD*%
D11*
%TO.C,D619*%
X141575000Y-75075000D03*
X142425000Y-75075000D03*
X141575000Y-75925000D03*
X142425000Y-75925000D03*
%TD*%
D18*
%TO.C,C88*%
X152300000Y-33880000D03*
X152300000Y-32920000D03*
%TD*%
D11*
%TO.C,D610*%
X155075000Y-75075000D03*
X155925000Y-75075000D03*
X155075000Y-75925000D03*
X155925000Y-75925000D03*
%TD*%
D33*
%TO.C,D541*%
X143970000Y-43700000D03*
X143970000Y-44500000D03*
D34*
X145030000Y-44100000D03*
%TD*%
D11*
%TO.C,D681*%
X137075000Y-81075000D03*
X137925000Y-81075000D03*
X137075000Y-81925000D03*
X137925000Y-81925000D03*
%TD*%
D10*
%TO.C,D550*%
X140925000Y-68425000D03*
X140075000Y-68425000D03*
X140925000Y-67575000D03*
X140075000Y-67575000D03*
%TD*%
D11*
%TO.C,D616*%
X146075000Y-75075000D03*
X146925000Y-75075000D03*
X146075000Y-75925000D03*
X146925000Y-75925000D03*
%TD*%
D10*
%TO.C,D579*%
X151425000Y-71425000D03*
X150575000Y-71425000D03*
X151425000Y-70575000D03*
X150575000Y-70575000D03*
%TD*%
%TO.C,D664*%
X148425000Y-80425000D03*
X147575000Y-80425000D03*
X148425000Y-79575000D03*
X147575000Y-79575000D03*
%TD*%
%TO.C,D692*%
X149925000Y-83425000D03*
X149075000Y-83425000D03*
X149925000Y-82575000D03*
X149075000Y-82575000D03*
%TD*%
%TO.C,D531*%
X110425000Y-86425000D03*
X109575000Y-86425000D03*
X110425000Y-85575000D03*
X109575000Y-85575000D03*
%TD*%
D11*
%TO.C,D412*%
X103575000Y-72075000D03*
X104425000Y-72075000D03*
X103575000Y-72925000D03*
X104425000Y-72925000D03*
%TD*%
D12*
%TO.C,mouse-bite-2mm-slot13*%
X100979949Y-50080711D03*
X100431942Y-49568058D03*
X99919289Y-49020051D03*
%TD*%
D10*
%TO.C,D393*%
X107425000Y-71425000D03*
X106575000Y-71425000D03*
X107425000Y-70575000D03*
X106575000Y-70575000D03*
%TD*%
D11*
%TO.C,D434*%
X114075000Y-75075000D03*
X114925000Y-75075000D03*
X114075000Y-75925000D03*
X114925000Y-75925000D03*
%TD*%
%TO.C,D408*%
X109575000Y-72075000D03*
X110425000Y-72075000D03*
X109575000Y-72925000D03*
X110425000Y-72925000D03*
%TD*%
D10*
%TO.C,D533*%
X113425000Y-86425000D03*
X112575000Y-86425000D03*
X113425000Y-85575000D03*
X112575000Y-85575000D03*
%TD*%
%TO.C,D395*%
X110425000Y-71425000D03*
X109575000Y-71425000D03*
X110425000Y-70575000D03*
X109575000Y-70575000D03*
%TD*%
D11*
%TO.C,D380*%
X114075000Y-69075000D03*
X114925000Y-69075000D03*
X114075000Y-69925000D03*
X114925000Y-69925000D03*
%TD*%
D10*
%TO.C,D513*%
X116425000Y-83425000D03*
X115575000Y-83425000D03*
X116425000Y-82575000D03*
X115575000Y-82575000D03*
%TD*%
%TO.C,D428*%
X119425000Y-74425000D03*
X118575000Y-74425000D03*
X119425000Y-73575000D03*
X118575000Y-73575000D03*
%TD*%
D11*
%TO.C,D414*%
X100575000Y-72075000D03*
X101425000Y-72075000D03*
X100575000Y-72925000D03*
X101425000Y-72925000D03*
%TD*%
D10*
%TO.C,D450*%
X107425000Y-77425000D03*
X106575000Y-77425000D03*
X107425000Y-76575000D03*
X106575000Y-76575000D03*
%TD*%
%TO.C,D422*%
X110425000Y-74425000D03*
X109575000Y-74425000D03*
X110425000Y-73575000D03*
X109575000Y-73575000D03*
%TD*%
D11*
%TO.C,D411*%
X105075000Y-72075000D03*
X105925000Y-72075000D03*
X105075000Y-72925000D03*
X105925000Y-72925000D03*
%TD*%
D10*
%TO.C,D417*%
X102925000Y-74425000D03*
X102075000Y-74425000D03*
X102925000Y-73575000D03*
X102075000Y-73575000D03*
%TD*%
D11*
%TO.C,D525*%
X103575000Y-84075000D03*
X104425000Y-84075000D03*
X103575000Y-84925000D03*
X104425000Y-84925000D03*
%TD*%
D10*
%TO.C,D487*%
X117925000Y-80425000D03*
X117075000Y-80425000D03*
X117925000Y-79575000D03*
X117075000Y-79575000D03*
%TD*%
D11*
%TO.C,D500*%
X103575000Y-81075000D03*
X104425000Y-81075000D03*
X103575000Y-81925000D03*
X104425000Y-81925000D03*
%TD*%
D10*
%TO.C,D486*%
X116425000Y-80425000D03*
X115575000Y-80425000D03*
X116425000Y-79575000D03*
X115575000Y-79575000D03*
%TD*%
D11*
%TO.C,D540*%
X106575000Y-87075000D03*
X107425000Y-87075000D03*
X106575000Y-87925000D03*
X107425000Y-87925000D03*
%TD*%
%TO.C,D490*%
X118575000Y-81075000D03*
X119425000Y-81075000D03*
X118575000Y-81925000D03*
X119425000Y-81925000D03*
%TD*%
D10*
%TO.C,D476*%
X101425000Y-80425000D03*
X100575000Y-80425000D03*
X101425000Y-79575000D03*
X100575000Y-79575000D03*
%TD*%
D11*
%TO.C,D537*%
X111075000Y-87075000D03*
X111925000Y-87075000D03*
X111075000Y-87925000D03*
X111925000Y-87925000D03*
%TD*%
%TO.C,D539*%
X108075000Y-87075000D03*
X108925000Y-87075000D03*
X108075000Y-87925000D03*
X108925000Y-87925000D03*
%TD*%
%TO.C,D365*%
X111075000Y-66075000D03*
X111925000Y-66075000D03*
X111075000Y-66925000D03*
X111925000Y-66925000D03*
%TD*%
D10*
%TO.C,D449*%
X105925000Y-77425000D03*
X105075000Y-77425000D03*
X105925000Y-76575000D03*
X105075000Y-76575000D03*
%TD*%
D11*
%TO.C,D516*%
X117075000Y-84075000D03*
X117925000Y-84075000D03*
X117075000Y-84925000D03*
X117925000Y-84925000D03*
%TD*%
D12*
%TO.C,mouse-bite-2mm-slot14*%
X120080711Y-49020051D03*
X119568058Y-49568058D03*
X119020051Y-50080711D03*
%TD*%
D11*
%TO.C,D491*%
X117075000Y-81075000D03*
X117925000Y-81075000D03*
X117075000Y-81925000D03*
X117925000Y-81925000D03*
%TD*%
D10*
%TO.C,D396*%
X111925000Y-71425000D03*
X111075000Y-71425000D03*
X111925000Y-70575000D03*
X111075000Y-70575000D03*
%TD*%
D11*
%TO.C,D387*%
X103575000Y-69075000D03*
X104425000Y-69075000D03*
X103575000Y-69925000D03*
X104425000Y-69925000D03*
%TD*%
%TO.C,D440*%
X105075000Y-75075000D03*
X105925000Y-75075000D03*
X105075000Y-75925000D03*
X105925000Y-75925000D03*
%TD*%
D10*
%TO.C,D391*%
X104425000Y-71425000D03*
X103575000Y-71425000D03*
X104425000Y-70575000D03*
X103575000Y-70575000D03*
%TD*%
D13*
%TO.C,U12*%
X101350000Y-33950000D03*
X100700000Y-33950000D03*
X100050000Y-33950000D03*
X100050000Y-35850000D03*
X100700000Y-35850000D03*
X101350000Y-35850000D03*
%TD*%
D11*
%TO.C,D367*%
X108075000Y-66075000D03*
X108925000Y-66075000D03*
X108075000Y-66925000D03*
X108925000Y-66925000D03*
%TD*%
D14*
%TO.C,SW9*%
X121000000Y-43700000D03*
X119200000Y-43700000D03*
D15*
X120100000Y-41572500D03*
D16*
X120100000Y-45825000D03*
%TD*%
D11*
%TO.C,D523*%
X106575000Y-84075000D03*
X107425000Y-84075000D03*
X106575000Y-84925000D03*
X107425000Y-84925000D03*
%TD*%
D17*
%TO.C,R30*%
X105090000Y-43300000D03*
X106110000Y-43300000D03*
%TD*%
D11*
%TO.C,D368*%
X106575000Y-66075000D03*
X107425000Y-66075000D03*
X106575000Y-66925000D03*
X107425000Y-66925000D03*
%TD*%
%TO.C,D468*%
X108075000Y-78075000D03*
X108925000Y-78075000D03*
X108075000Y-78925000D03*
X108925000Y-78925000D03*
%TD*%
D18*
%TO.C,C59*%
X115950000Y-35860000D03*
X115950000Y-34900000D03*
%TD*%
D19*
%TO.C,C61*%
X99780000Y-43100000D03*
X98820000Y-43100000D03*
%TD*%
D11*
%TO.C,D471*%
X103575000Y-78075000D03*
X104425000Y-78075000D03*
X103575000Y-78925000D03*
X104425000Y-78925000D03*
%TD*%
D10*
%TO.C,D427*%
X117925000Y-74425000D03*
X117075000Y-74425000D03*
X117925000Y-73575000D03*
X117075000Y-73575000D03*
%TD*%
%TO.C,D508*%
X108925000Y-83425000D03*
X108075000Y-83425000D03*
X108925000Y-82575000D03*
X108075000Y-82575000D03*
%TD*%
D11*
%TO.C,D497*%
X108075000Y-81075000D03*
X108925000Y-81075000D03*
X108075000Y-81925000D03*
X108925000Y-81925000D03*
%TD*%
D12*
%TO.C,mouse-bite-2mm-slot9*%
X100979949Y-87080711D03*
X100431942Y-86568058D03*
X99919289Y-86020051D03*
%TD*%
D20*
%TO.C,R25*%
X113500000Y-38090000D03*
X113500000Y-39110000D03*
%TD*%
D12*
%TO.C,mouse-bite-2mm-slot11*%
X99919289Y-67979949D03*
X100431942Y-67431942D03*
X100979949Y-66919289D03*
%TD*%
D11*
%TO.C,D472*%
X102075000Y-78075000D03*
X102925000Y-78075000D03*
X102075000Y-78925000D03*
X102925000Y-78925000D03*
%TD*%
%TO.C,D464*%
X114075000Y-78075000D03*
X114925000Y-78075000D03*
X114075000Y-78925000D03*
X114925000Y-78925000D03*
%TD*%
D10*
%TO.C,D423*%
X111925000Y-74425000D03*
X111075000Y-74425000D03*
X111925000Y-73575000D03*
X111075000Y-73575000D03*
%TD*%
%TO.C,D392*%
X105925000Y-71425000D03*
X105075000Y-71425000D03*
X105925000Y-70575000D03*
X105075000Y-70575000D03*
%TD*%
D11*
%TO.C,D443*%
X100575000Y-75075000D03*
X101425000Y-75075000D03*
X100575000Y-75925000D03*
X101425000Y-75925000D03*
%TD*%
D10*
%TO.C,D390*%
X102925000Y-71425000D03*
X102075000Y-71425000D03*
X102925000Y-70575000D03*
X102075000Y-70575000D03*
%TD*%
D21*
%TO.C,C70*%
X102620000Y-35900000D03*
X103580000Y-35900000D03*
%TD*%
D11*
%TO.C,D495*%
X111075000Y-81075000D03*
X111925000Y-81075000D03*
X111075000Y-81925000D03*
X111925000Y-81925000D03*
%TD*%
D10*
%TO.C,D458*%
X119425000Y-77425000D03*
X118575000Y-77425000D03*
X119425000Y-76575000D03*
X118575000Y-76575000D03*
%TD*%
D11*
%TO.C,D493*%
X114075000Y-81075000D03*
X114925000Y-81075000D03*
X114075000Y-81925000D03*
X114925000Y-81925000D03*
%TD*%
D18*
%TO.C,C58*%
X114500000Y-37180000D03*
X114500000Y-36220000D03*
%TD*%
D10*
%TO.C,D528*%
X105925000Y-86425000D03*
X105075000Y-86425000D03*
X105925000Y-85575000D03*
X105075000Y-85575000D03*
%TD*%
%TO.C,D481*%
X108925000Y-80425000D03*
X108075000Y-80425000D03*
X108925000Y-79575000D03*
X108075000Y-79575000D03*
%TD*%
D11*
%TO.C,D460*%
X120075000Y-78075000D03*
X120925000Y-78075000D03*
X120075000Y-78925000D03*
X120925000Y-78925000D03*
%TD*%
D12*
%TO.C,mouse-bite-2mm-slot16*%
X119020051Y-29919289D03*
X119568058Y-30431942D03*
X120080711Y-30979949D03*
%TD*%
D20*
%TO.C,R32*%
X115900000Y-41790000D03*
X115900000Y-42810000D03*
%TD*%
D18*
%TO.C,C57*%
X113500000Y-37180000D03*
X113500000Y-36220000D03*
%TD*%
D10*
%TO.C,D448*%
X104425000Y-77425000D03*
X103575000Y-77425000D03*
X104425000Y-76575000D03*
X103575000Y-76575000D03*
%TD*%
D11*
%TO.C,D437*%
X109575000Y-75075000D03*
X110425000Y-75075000D03*
X109575000Y-75925000D03*
X110425000Y-75925000D03*
%TD*%
%TO.C,D498*%
X106575000Y-81075000D03*
X107425000Y-81075000D03*
X106575000Y-81925000D03*
X107425000Y-81925000D03*
%TD*%
D10*
%TO.C,D374*%
X111925000Y-68425000D03*
X111075000Y-68425000D03*
X111925000Y-67575000D03*
X111075000Y-67575000D03*
%TD*%
%TO.C,D373*%
X110425000Y-68425000D03*
X109575000Y-68425000D03*
X110425000Y-67575000D03*
X109575000Y-67575000D03*
%TD*%
D11*
%TO.C,D386*%
X105075000Y-69075000D03*
X105925000Y-69075000D03*
X105075000Y-69925000D03*
X105925000Y-69925000D03*
%TD*%
%TO.C,D499*%
X105075000Y-81075000D03*
X105925000Y-81075000D03*
X105075000Y-81925000D03*
X105925000Y-81925000D03*
%TD*%
%TO.C,D410*%
X106575000Y-72075000D03*
X107425000Y-72075000D03*
X106575000Y-72925000D03*
X107425000Y-72925000D03*
%TD*%
D22*
%TO.C,R26*%
X114500000Y-39110000D03*
X114500000Y-38090000D03*
%TD*%
D10*
%TO.C,D515*%
X119425000Y-83425000D03*
X118575000Y-83425000D03*
X119425000Y-82575000D03*
X118575000Y-82575000D03*
%TD*%
D11*
%TO.C,D518*%
X114075000Y-84075000D03*
X114925000Y-84075000D03*
X114075000Y-84925000D03*
X114925000Y-84925000D03*
%TD*%
D23*
%TO.C,D363*%
X117800000Y-46535000D03*
X117800000Y-48110000D03*
%TD*%
D11*
%TO.C,D524*%
X105075000Y-84075000D03*
X105925000Y-84075000D03*
X105075000Y-84925000D03*
X105925000Y-84925000D03*
%TD*%
D10*
%TO.C,D377*%
X116425000Y-68425000D03*
X115575000Y-68425000D03*
X116425000Y-67575000D03*
X115575000Y-67575000D03*
%TD*%
%TO.C,D457*%
X117925000Y-77425000D03*
X117075000Y-77425000D03*
X117925000Y-76575000D03*
X117075000Y-76575000D03*
%TD*%
D12*
%TO.C,mouse-bite-2mm-slot10*%
X120080711Y-86020051D03*
X119568058Y-86568058D03*
X119020051Y-87080711D03*
%TD*%
D10*
%TO.C,D454*%
X113425000Y-77425000D03*
X112575000Y-77425000D03*
X113425000Y-76575000D03*
X112575000Y-76575000D03*
%TD*%
%TO.C,D506*%
X105925000Y-83425000D03*
X105075000Y-83425000D03*
X105925000Y-82575000D03*
X105075000Y-82575000D03*
%TD*%
D11*
%TO.C,D402*%
X118575000Y-72075000D03*
X119425000Y-72075000D03*
X118575000Y-72925000D03*
X119425000Y-72925000D03*
%TD*%
D10*
%TO.C,D447*%
X102925000Y-77425000D03*
X102075000Y-77425000D03*
X102925000Y-76575000D03*
X102075000Y-76575000D03*
%TD*%
%TO.C,D418*%
X104425000Y-74425000D03*
X103575000Y-74425000D03*
X104425000Y-73575000D03*
X103575000Y-73575000D03*
%TD*%
%TO.C,D459*%
X120925000Y-77425000D03*
X120075000Y-77425000D03*
X120925000Y-76575000D03*
X120075000Y-76575000D03*
%TD*%
D11*
%TO.C,D442*%
X102075000Y-75075000D03*
X102925000Y-75075000D03*
X102075000Y-75925000D03*
X102925000Y-75925000D03*
%TD*%
D10*
%TO.C,D483*%
X111925000Y-80425000D03*
X111075000Y-80425000D03*
X111925000Y-79575000D03*
X111075000Y-79575000D03*
%TD*%
%TO.C,D401*%
X119425000Y-71425000D03*
X118575000Y-71425000D03*
X119425000Y-70575000D03*
X118575000Y-70575000D03*
%TD*%
%TO.C,D478*%
X104425000Y-80425000D03*
X103575000Y-80425000D03*
X104425000Y-79575000D03*
X103575000Y-79575000D03*
%TD*%
D11*
%TO.C,D378*%
X117075000Y-69075000D03*
X117925000Y-69075000D03*
X117075000Y-69925000D03*
X117925000Y-69925000D03*
%TD*%
%TO.C,D461*%
X118575000Y-78075000D03*
X119425000Y-78075000D03*
X118575000Y-78925000D03*
X119425000Y-78925000D03*
%TD*%
D10*
%TO.C,D369*%
X104425000Y-68425000D03*
X103575000Y-68425000D03*
X104425000Y-67575000D03*
X103575000Y-67575000D03*
%TD*%
%TO.C,D426*%
X116425000Y-74425000D03*
X115575000Y-74425000D03*
X116425000Y-73575000D03*
X115575000Y-73575000D03*
%TD*%
%TO.C,D446*%
X101425000Y-77425000D03*
X100575000Y-77425000D03*
X101425000Y-76575000D03*
X100575000Y-76575000D03*
%TD*%
D24*
%TO.C,U11*%
X107750000Y-38440000D03*
D25*
X107750000Y-39250000D03*
X107750000Y-39750000D03*
X107750000Y-40250000D03*
X107750000Y-40750000D03*
D24*
X107750000Y-41560000D03*
X108250000Y-41560000D03*
X108750000Y-41560000D03*
X109250000Y-41560000D03*
X109750000Y-41560000D03*
X110250000Y-41560000D03*
X110750000Y-41560000D03*
X111250000Y-41560000D03*
X111750000Y-41560000D03*
X112250000Y-41560000D03*
D25*
X112250000Y-40750000D03*
X112250000Y-40250000D03*
X112250000Y-39750000D03*
X112250000Y-39250000D03*
D24*
X112250000Y-38440000D03*
X111750000Y-38440000D03*
X111250000Y-38440000D03*
X110750000Y-38440000D03*
X110250000Y-38440000D03*
X109750000Y-38440000D03*
X109250000Y-38440000D03*
X108750000Y-38440000D03*
X108250000Y-38440000D03*
%TD*%
D10*
%TO.C,D505*%
X104425000Y-83425000D03*
X103575000Y-83425000D03*
X104425000Y-82575000D03*
X103575000Y-82575000D03*
%TD*%
D26*
%TO.C,J15*%
X107110000Y-48090000D03*
X112890000Y-48090000D03*
D27*
X106800000Y-46990000D03*
X107600000Y-46990000D03*
D28*
X108750000Y-46990000D03*
X109750000Y-46990000D03*
X110250000Y-46990000D03*
X111250000Y-46990000D03*
D27*
X112400000Y-46990000D03*
X113200000Y-46990000D03*
X113200000Y-46990000D03*
X112400000Y-46990000D03*
D28*
X111750000Y-46990000D03*
X110750000Y-46990000D03*
X109250000Y-46990000D03*
X108250000Y-46990000D03*
D27*
X107600000Y-46990000D03*
X106800000Y-46990000D03*
D29*
X105680000Y-47590000D03*
X114320000Y-47590000D03*
D30*
X114320000Y-51770000D03*
X105680000Y-51770000D03*
%TD*%
D12*
%TO.C,mouse-bite-2mm-slot15*%
X99919289Y-30979949D03*
X100431942Y-30431942D03*
X100979949Y-29919289D03*
%TD*%
D10*
%TO.C,D530*%
X108925000Y-86425000D03*
X108075000Y-86425000D03*
X108925000Y-85575000D03*
X108075000Y-85575000D03*
%TD*%
%TO.C,D415*%
X99925000Y-74425000D03*
X99075000Y-74425000D03*
X99925000Y-73575000D03*
X99075000Y-73575000D03*
%TD*%
D11*
%TO.C,D383*%
X109575000Y-69075000D03*
X110425000Y-69075000D03*
X109575000Y-69925000D03*
X110425000Y-69925000D03*
%TD*%
D10*
%TO.C,D509*%
X110425000Y-83425000D03*
X109575000Y-83425000D03*
X110425000Y-82575000D03*
X109575000Y-82575000D03*
%TD*%
D14*
%TO.C,SW8*%
X119200000Y-36300000D03*
X121000000Y-36300000D03*
D15*
X120100000Y-38427500D03*
D16*
X120100000Y-34175000D03*
%TD*%
D10*
%TO.C,D534*%
X114925000Y-86425000D03*
X114075000Y-86425000D03*
X114925000Y-85575000D03*
X114075000Y-85575000D03*
%TD*%
%TO.C,D389*%
X101425000Y-71425000D03*
X100575000Y-71425000D03*
X101425000Y-70575000D03*
X100575000Y-70575000D03*
%TD*%
D11*
%TO.C,D538*%
X109575000Y-87075000D03*
X110425000Y-87075000D03*
X109575000Y-87925000D03*
X110425000Y-87925000D03*
%TD*%
D21*
%TO.C,C68*%
X109720000Y-42700000D03*
X110680000Y-42700000D03*
%TD*%
D10*
%TO.C,D429*%
X120925000Y-74425000D03*
X120075000Y-74425000D03*
X120925000Y-73575000D03*
X120075000Y-73575000D03*
%TD*%
D21*
%TO.C,C66*%
X106520000Y-37100000D03*
X107480000Y-37100000D03*
%TD*%
D11*
%TO.C,D517*%
X115575000Y-84075000D03*
X116425000Y-84075000D03*
X115575000Y-84925000D03*
X116425000Y-84925000D03*
%TD*%
%TO.C,D465*%
X112575000Y-78075000D03*
X113425000Y-78075000D03*
X112575000Y-78925000D03*
X113425000Y-78925000D03*
%TD*%
%TO.C,D384*%
X108075000Y-69075000D03*
X108925000Y-69075000D03*
X108075000Y-69925000D03*
X108925000Y-69925000D03*
%TD*%
D10*
%TO.C,D488*%
X119425000Y-80425000D03*
X118575000Y-80425000D03*
X119425000Y-79575000D03*
X118575000Y-79575000D03*
%TD*%
D11*
%TO.C,D467*%
X109575000Y-78075000D03*
X110425000Y-78075000D03*
X109575000Y-78925000D03*
X110425000Y-78925000D03*
%TD*%
D10*
%TO.C,D479*%
X105925000Y-80425000D03*
X105075000Y-80425000D03*
X105925000Y-79575000D03*
X105075000Y-79575000D03*
%TD*%
%TO.C,D376*%
X114925000Y-68425000D03*
X114075000Y-68425000D03*
X114925000Y-67575000D03*
X114075000Y-67575000D03*
%TD*%
D17*
%TO.C,R29*%
X105090000Y-42300000D03*
X106110000Y-42300000D03*
%TD*%
D11*
%TO.C,D388*%
X102075000Y-69075000D03*
X102925000Y-69075000D03*
X102075000Y-69925000D03*
X102925000Y-69925000D03*
%TD*%
D10*
%TO.C,D398*%
X114925000Y-71425000D03*
X114075000Y-71425000D03*
X114925000Y-70575000D03*
X114075000Y-70575000D03*
%TD*%
D31*
%TO.C,C62*%
X104100000Y-41370000D03*
X104100000Y-42330000D03*
%TD*%
D10*
%TO.C,D394*%
X108925000Y-71425000D03*
X108075000Y-71425000D03*
X108925000Y-70575000D03*
X108075000Y-70575000D03*
%TD*%
%TO.C,D375*%
X113425000Y-68425000D03*
X112575000Y-68425000D03*
X113425000Y-67575000D03*
X112575000Y-67575000D03*
%TD*%
D11*
%TO.C,D413*%
X102075000Y-72075000D03*
X102925000Y-72075000D03*
X102075000Y-72925000D03*
X102925000Y-72925000D03*
%TD*%
D10*
%TO.C,D455*%
X114925000Y-77425000D03*
X114075000Y-77425000D03*
X114925000Y-76575000D03*
X114075000Y-76575000D03*
%TD*%
D11*
%TO.C,D382*%
X111075000Y-69075000D03*
X111925000Y-69075000D03*
X111075000Y-69925000D03*
X111925000Y-69925000D03*
%TD*%
D10*
%TO.C,D453*%
X111925000Y-77425000D03*
X111075000Y-77425000D03*
X111925000Y-76575000D03*
X111075000Y-76575000D03*
%TD*%
D14*
%TO.C,SW7*%
X101200000Y-40000000D03*
X99400000Y-40000000D03*
D15*
X100300000Y-37872500D03*
D16*
X100300000Y-42125000D03*
%TD*%
D10*
%TO.C,D397*%
X113425000Y-71425000D03*
X112575000Y-71425000D03*
X113425000Y-70575000D03*
X112575000Y-70575000D03*
%TD*%
D11*
%TO.C,D407*%
X111075000Y-72075000D03*
X111925000Y-72075000D03*
X111075000Y-72925000D03*
X111925000Y-72925000D03*
%TD*%
%TO.C,D526*%
X102075000Y-84075000D03*
X102925000Y-84075000D03*
X102075000Y-84925000D03*
X102925000Y-84925000D03*
%TD*%
D10*
%TO.C,D475*%
X99925000Y-80425000D03*
X99075000Y-80425000D03*
X99925000Y-79575000D03*
X99075000Y-79575000D03*
%TD*%
D11*
%TO.C,D519*%
X112575000Y-84075000D03*
X113425000Y-84075000D03*
X112575000Y-84925000D03*
X113425000Y-84925000D03*
%TD*%
D10*
%TO.C,D482*%
X110425000Y-80425000D03*
X109575000Y-80425000D03*
X110425000Y-79575000D03*
X109575000Y-79575000D03*
%TD*%
D11*
%TO.C,D494*%
X112575000Y-81075000D03*
X113425000Y-81075000D03*
X112575000Y-81925000D03*
X113425000Y-81925000D03*
%TD*%
%TO.C,D432*%
X117075000Y-75075000D03*
X117925000Y-75075000D03*
X117075000Y-75925000D03*
X117925000Y-75925000D03*
%TD*%
D10*
%TO.C,D416*%
X101425000Y-74425000D03*
X100575000Y-74425000D03*
X101425000Y-73575000D03*
X100575000Y-73575000D03*
%TD*%
D11*
%TO.C,D409*%
X108075000Y-72075000D03*
X108925000Y-72075000D03*
X108075000Y-72925000D03*
X108925000Y-72925000D03*
%TD*%
%TO.C,D438*%
X108075000Y-75075000D03*
X108925000Y-75075000D03*
X108075000Y-75925000D03*
X108925000Y-75925000D03*
%TD*%
D10*
%TO.C,D425*%
X114925000Y-74425000D03*
X114075000Y-74425000D03*
X114925000Y-73575000D03*
X114075000Y-73575000D03*
%TD*%
D11*
%TO.C,D470*%
X105075000Y-78075000D03*
X105925000Y-78075000D03*
X105075000Y-78925000D03*
X105925000Y-78925000D03*
%TD*%
%TO.C,D520*%
X111075000Y-84075000D03*
X111925000Y-84075000D03*
X111075000Y-84925000D03*
X111925000Y-84925000D03*
%TD*%
%TO.C,D406*%
X112575000Y-72075000D03*
X113425000Y-72075000D03*
X112575000Y-72925000D03*
X113425000Y-72925000D03*
%TD*%
%TO.C,D379*%
X115575000Y-69075000D03*
X116425000Y-69075000D03*
X115575000Y-69925000D03*
X116425000Y-69925000D03*
%TD*%
D18*
%TO.C,C67*%
X106500000Y-38980000D03*
X106500000Y-38020000D03*
%TD*%
D11*
%TO.C,D521*%
X109575000Y-84075000D03*
X110425000Y-84075000D03*
X109575000Y-84925000D03*
X110425000Y-84925000D03*
%TD*%
D18*
%TO.C,C63*%
X104100000Y-44230000D03*
X104100000Y-43270000D03*
%TD*%
D10*
%TO.C,D371*%
X107425000Y-68425000D03*
X106575000Y-68425000D03*
X107425000Y-67575000D03*
X106575000Y-67575000D03*
%TD*%
%TO.C,D510*%
X111925000Y-83425000D03*
X111075000Y-83425000D03*
X111925000Y-82575000D03*
X111075000Y-82575000D03*
%TD*%
D11*
%TO.C,D404*%
X115575000Y-72075000D03*
X116425000Y-72075000D03*
X115575000Y-72925000D03*
X116425000Y-72925000D03*
%TD*%
D10*
%TO.C,D504*%
X102925000Y-83425000D03*
X102075000Y-83425000D03*
X102925000Y-82575000D03*
X102075000Y-82575000D03*
%TD*%
D17*
%TO.C,R34*%
X112390000Y-45400000D03*
X113410000Y-45400000D03*
%TD*%
D10*
%TO.C,D419*%
X105925000Y-74425000D03*
X105075000Y-74425000D03*
X105925000Y-73575000D03*
X105075000Y-73575000D03*
%TD*%
%TO.C,D424*%
X113425000Y-74425000D03*
X112575000Y-74425000D03*
X113425000Y-73575000D03*
X112575000Y-73575000D03*
%TD*%
D11*
%TO.C,D403*%
X117075000Y-72075000D03*
X117925000Y-72075000D03*
X117075000Y-72925000D03*
X117925000Y-72925000D03*
%TD*%
%TO.C,D474*%
X99075000Y-78075000D03*
X99925000Y-78075000D03*
X99075000Y-78925000D03*
X99925000Y-78925000D03*
%TD*%
D10*
%TO.C,D535*%
X116425000Y-86425000D03*
X115575000Y-86425000D03*
X116425000Y-85575000D03*
X115575000Y-85575000D03*
%TD*%
%TO.C,D372*%
X108925000Y-68425000D03*
X108075000Y-68425000D03*
X108925000Y-67575000D03*
X108075000Y-67575000D03*
%TD*%
D11*
%TO.C,D385*%
X106575000Y-69075000D03*
X107425000Y-69075000D03*
X106575000Y-69925000D03*
X107425000Y-69925000D03*
%TD*%
%TO.C,D492*%
X115575000Y-81075000D03*
X116425000Y-81075000D03*
X115575000Y-81925000D03*
X116425000Y-81925000D03*
%TD*%
%TO.C,D435*%
X112575000Y-75075000D03*
X113425000Y-75075000D03*
X112575000Y-75925000D03*
X113425000Y-75925000D03*
%TD*%
D10*
%TO.C,D456*%
X116425000Y-77425000D03*
X115575000Y-77425000D03*
X116425000Y-76575000D03*
X115575000Y-76575000D03*
%TD*%
D11*
%TO.C,D366*%
X109575000Y-66075000D03*
X110425000Y-66075000D03*
X109575000Y-66925000D03*
X110425000Y-66925000D03*
%TD*%
%TO.C,D405*%
X114075000Y-72075000D03*
X114925000Y-72075000D03*
X114075000Y-72925000D03*
X114925000Y-72925000D03*
%TD*%
D32*
%TO.C,R35*%
X108110000Y-45400000D03*
X107090000Y-45400000D03*
%TD*%
D11*
%TO.C,D431*%
X118575000Y-75075000D03*
X119425000Y-75075000D03*
X118575000Y-75925000D03*
X119425000Y-75925000D03*
%TD*%
D10*
%TO.C,D532*%
X111925000Y-86425000D03*
X111075000Y-86425000D03*
X111925000Y-85575000D03*
X111075000Y-85575000D03*
%TD*%
D11*
%TO.C,D462*%
X117075000Y-78075000D03*
X117925000Y-78075000D03*
X117075000Y-78925000D03*
X117925000Y-78925000D03*
%TD*%
D10*
%TO.C,D421*%
X108925000Y-74425000D03*
X108075000Y-74425000D03*
X108925000Y-73575000D03*
X108075000Y-73575000D03*
%TD*%
D11*
%TO.C,D463*%
X115575000Y-78075000D03*
X116425000Y-78075000D03*
X115575000Y-78925000D03*
X116425000Y-78925000D03*
%TD*%
%TO.C,D381*%
X112575000Y-69075000D03*
X113425000Y-69075000D03*
X112575000Y-69925000D03*
X113425000Y-69925000D03*
%TD*%
D10*
%TO.C,D452*%
X110425000Y-77425000D03*
X109575000Y-77425000D03*
X110425000Y-76575000D03*
X109575000Y-76575000D03*
%TD*%
D11*
%TO.C,D522*%
X108075000Y-84075000D03*
X108925000Y-84075000D03*
X108075000Y-84925000D03*
X108925000Y-84925000D03*
%TD*%
D10*
%TO.C,D527*%
X104425000Y-86450000D03*
X103575000Y-86450000D03*
X104425000Y-85600000D03*
X103575000Y-85600000D03*
%TD*%
D11*
%TO.C,D444*%
X99075000Y-75075000D03*
X99925000Y-75075000D03*
X99075000Y-75925000D03*
X99925000Y-75925000D03*
%TD*%
%TO.C,D441*%
X103575000Y-75075000D03*
X104425000Y-75075000D03*
X103575000Y-75925000D03*
X104425000Y-75925000D03*
%TD*%
D10*
%TO.C,D400*%
X117925000Y-71425000D03*
X117075000Y-71425000D03*
X117925000Y-70575000D03*
X117075000Y-70575000D03*
%TD*%
%TO.C,D503*%
X101425000Y-83425000D03*
X100575000Y-83425000D03*
X101425000Y-82575000D03*
X100575000Y-82575000D03*
%TD*%
D11*
%TO.C,D364*%
X112575000Y-66075000D03*
X113425000Y-66075000D03*
X112575000Y-66925000D03*
X113425000Y-66925000D03*
%TD*%
D10*
%TO.C,D489*%
X120925000Y-80425000D03*
X120075000Y-80425000D03*
X120925000Y-79575000D03*
X120075000Y-79575000D03*
%TD*%
D22*
%TO.C,R27*%
X115950000Y-37820000D03*
X115950000Y-36800000D03*
%TD*%
D10*
%TO.C,D507*%
X107425000Y-83425000D03*
X106575000Y-83425000D03*
X107425000Y-82575000D03*
X106575000Y-82575000D03*
%TD*%
%TO.C,D511*%
X113425000Y-83425000D03*
X112575000Y-83425000D03*
X113425000Y-82575000D03*
X112575000Y-82575000D03*
%TD*%
%TO.C,D529*%
X107425000Y-86425000D03*
X106575000Y-86425000D03*
X107425000Y-85575000D03*
X106575000Y-85575000D03*
%TD*%
D11*
%TO.C,D469*%
X106575000Y-78075000D03*
X107425000Y-78075000D03*
X106575000Y-78925000D03*
X107425000Y-78925000D03*
%TD*%
D22*
%TO.C,R28*%
X116100000Y-48110000D03*
X116100000Y-47090000D03*
%TD*%
D12*
%TO.C,mouse-bite-2mm-slot12*%
X119020051Y-66919289D03*
X119568058Y-67431942D03*
X120080711Y-67979949D03*
%TD*%
D10*
%TO.C,D420*%
X107425000Y-74425000D03*
X106575000Y-74425000D03*
X107425000Y-73575000D03*
X106575000Y-73575000D03*
%TD*%
%TO.C,D480*%
X107425000Y-80425000D03*
X106575000Y-80425000D03*
X107425000Y-79575000D03*
X106575000Y-79575000D03*
%TD*%
%TO.C,D477*%
X102925000Y-80425000D03*
X102075000Y-80425000D03*
X102925000Y-79575000D03*
X102075000Y-79575000D03*
%TD*%
%TO.C,D485*%
X114925000Y-80425000D03*
X114075000Y-80425000D03*
X114925000Y-79575000D03*
X114075000Y-79575000D03*
%TD*%
%TO.C,D514*%
X117925000Y-83425000D03*
X117075000Y-83425000D03*
X117925000Y-82575000D03*
X117075000Y-82575000D03*
%TD*%
%TO.C,D451*%
X108925000Y-77425000D03*
X108075000Y-77425000D03*
X108925000Y-76575000D03*
X108075000Y-76575000D03*
%TD*%
D17*
%TO.C,R33*%
X116290000Y-40800000D03*
X117310000Y-40800000D03*
%TD*%
D11*
%TO.C,D466*%
X111075000Y-78075000D03*
X111925000Y-78075000D03*
X111075000Y-78925000D03*
X111925000Y-78925000D03*
%TD*%
%TO.C,D502*%
X100575000Y-81075000D03*
X101425000Y-81075000D03*
X100575000Y-81925000D03*
X101425000Y-81925000D03*
%TD*%
%TO.C,D433*%
X115575000Y-75075000D03*
X116425000Y-75075000D03*
X115575000Y-75925000D03*
X116425000Y-75925000D03*
%TD*%
D19*
%TO.C,C69*%
X101660000Y-32900000D03*
X100700000Y-32900000D03*
%TD*%
D11*
%TO.C,D496*%
X109575000Y-81075000D03*
X110425000Y-81075000D03*
X109575000Y-81925000D03*
X110425000Y-81925000D03*
%TD*%
%TO.C,D473*%
X100575000Y-78075000D03*
X101425000Y-78075000D03*
X100575000Y-78925000D03*
X101425000Y-78925000D03*
%TD*%
%TO.C,D536*%
X112575000Y-87075000D03*
X113425000Y-87075000D03*
X112575000Y-87925000D03*
X113425000Y-87925000D03*
%TD*%
D10*
%TO.C,D445*%
X99925000Y-77425000D03*
X99075000Y-77425000D03*
X99925000Y-76575000D03*
X99075000Y-76575000D03*
%TD*%
D11*
%TO.C,D439*%
X106575000Y-75075000D03*
X107425000Y-75075000D03*
X106575000Y-75925000D03*
X107425000Y-75925000D03*
%TD*%
D18*
%TO.C,C60*%
X117300000Y-33880000D03*
X117300000Y-32920000D03*
%TD*%
D11*
%TO.C,D430*%
X120075000Y-75075000D03*
X120925000Y-75075000D03*
X120075000Y-75925000D03*
X120925000Y-75925000D03*
%TD*%
D33*
%TO.C,D361*%
X108970000Y-43700000D03*
X108970000Y-44500000D03*
D34*
X110030000Y-44100000D03*
%TD*%
D11*
%TO.C,D501*%
X102075000Y-81075000D03*
X102925000Y-81075000D03*
X102075000Y-81925000D03*
X102925000Y-81925000D03*
%TD*%
D10*
%TO.C,D370*%
X105925000Y-68425000D03*
X105075000Y-68425000D03*
X105925000Y-67575000D03*
X105075000Y-67575000D03*
%TD*%
D11*
%TO.C,D436*%
X111075000Y-75075000D03*
X111925000Y-75075000D03*
X111075000Y-75925000D03*
X111925000Y-75925000D03*
%TD*%
D10*
%TO.C,D399*%
X116425000Y-71425000D03*
X115575000Y-71425000D03*
X116425000Y-70575000D03*
X115575000Y-70575000D03*
%TD*%
%TO.C,D484*%
X113425000Y-80425000D03*
X112575000Y-80425000D03*
X113425000Y-79575000D03*
X112575000Y-79575000D03*
%TD*%
%TO.C,D512*%
X114925000Y-83425000D03*
X114075000Y-83425000D03*
X114925000Y-82575000D03*
X114075000Y-82575000D03*
%TD*%
%TO.C,D351*%
X75425000Y-86425000D03*
X74575000Y-86425000D03*
X75425000Y-85575000D03*
X74575000Y-85575000D03*
%TD*%
D11*
%TO.C,D232*%
X68575000Y-72075000D03*
X69425000Y-72075000D03*
X68575000Y-72925000D03*
X69425000Y-72925000D03*
%TD*%
D12*
%TO.C,mouse-bite-2mm-slot5*%
X65979949Y-50080711D03*
X65431942Y-49568058D03*
X64919289Y-49020051D03*
%TD*%
D10*
%TO.C,D213*%
X72425000Y-71425000D03*
X71575000Y-71425000D03*
X72425000Y-70575000D03*
X71575000Y-70575000D03*
%TD*%
D11*
%TO.C,D254*%
X79075000Y-75075000D03*
X79925000Y-75075000D03*
X79075000Y-75925000D03*
X79925000Y-75925000D03*
%TD*%
%TO.C,D228*%
X74575000Y-72075000D03*
X75425000Y-72075000D03*
X74575000Y-72925000D03*
X75425000Y-72925000D03*
%TD*%
D10*
%TO.C,D353*%
X78425000Y-86425000D03*
X77575000Y-86425000D03*
X78425000Y-85575000D03*
X77575000Y-85575000D03*
%TD*%
%TO.C,D215*%
X75425000Y-71425000D03*
X74575000Y-71425000D03*
X75425000Y-70575000D03*
X74575000Y-70575000D03*
%TD*%
D11*
%TO.C,D200*%
X79075000Y-69075000D03*
X79925000Y-69075000D03*
X79075000Y-69925000D03*
X79925000Y-69925000D03*
%TD*%
D10*
%TO.C,D333*%
X81425000Y-83425000D03*
X80575000Y-83425000D03*
X81425000Y-82575000D03*
X80575000Y-82575000D03*
%TD*%
%TO.C,D248*%
X84425000Y-74425000D03*
X83575000Y-74425000D03*
X84425000Y-73575000D03*
X83575000Y-73575000D03*
%TD*%
D11*
%TO.C,D234*%
X65575000Y-72075000D03*
X66425000Y-72075000D03*
X65575000Y-72925000D03*
X66425000Y-72925000D03*
%TD*%
D10*
%TO.C,D270*%
X72425000Y-77425000D03*
X71575000Y-77425000D03*
X72425000Y-76575000D03*
X71575000Y-76575000D03*
%TD*%
%TO.C,D242*%
X75425000Y-74425000D03*
X74575000Y-74425000D03*
X75425000Y-73575000D03*
X74575000Y-73575000D03*
%TD*%
D11*
%TO.C,D231*%
X70075000Y-72075000D03*
X70925000Y-72075000D03*
X70075000Y-72925000D03*
X70925000Y-72925000D03*
%TD*%
D10*
%TO.C,D237*%
X67925000Y-74425000D03*
X67075000Y-74425000D03*
X67925000Y-73575000D03*
X67075000Y-73575000D03*
%TD*%
D11*
%TO.C,D345*%
X68575000Y-84075000D03*
X69425000Y-84075000D03*
X68575000Y-84925000D03*
X69425000Y-84925000D03*
%TD*%
D10*
%TO.C,D307*%
X82925000Y-80425000D03*
X82075000Y-80425000D03*
X82925000Y-79575000D03*
X82075000Y-79575000D03*
%TD*%
D11*
%TO.C,D320*%
X68575000Y-81075000D03*
X69425000Y-81075000D03*
X68575000Y-81925000D03*
X69425000Y-81925000D03*
%TD*%
D10*
%TO.C,D306*%
X81425000Y-80425000D03*
X80575000Y-80425000D03*
X81425000Y-79575000D03*
X80575000Y-79575000D03*
%TD*%
D11*
%TO.C,D360*%
X71575000Y-87075000D03*
X72425000Y-87075000D03*
X71575000Y-87925000D03*
X72425000Y-87925000D03*
%TD*%
%TO.C,D310*%
X83575000Y-81075000D03*
X84425000Y-81075000D03*
X83575000Y-81925000D03*
X84425000Y-81925000D03*
%TD*%
D10*
%TO.C,D296*%
X66425000Y-80425000D03*
X65575000Y-80425000D03*
X66425000Y-79575000D03*
X65575000Y-79575000D03*
%TD*%
D11*
%TO.C,D357*%
X76075000Y-87075000D03*
X76925000Y-87075000D03*
X76075000Y-87925000D03*
X76925000Y-87925000D03*
%TD*%
%TO.C,D359*%
X73075000Y-87075000D03*
X73925000Y-87075000D03*
X73075000Y-87925000D03*
X73925000Y-87925000D03*
%TD*%
%TO.C,D185*%
X76075000Y-66075000D03*
X76925000Y-66075000D03*
X76075000Y-66925000D03*
X76925000Y-66925000D03*
%TD*%
D10*
%TO.C,D269*%
X70925000Y-77425000D03*
X70075000Y-77425000D03*
X70925000Y-76575000D03*
X70075000Y-76575000D03*
%TD*%
D11*
%TO.C,D336*%
X82075000Y-84075000D03*
X82925000Y-84075000D03*
X82075000Y-84925000D03*
X82925000Y-84925000D03*
%TD*%
D12*
%TO.C,mouse-bite-2mm-slot6*%
X85080711Y-49020051D03*
X84568058Y-49568058D03*
X84020051Y-50080711D03*
%TD*%
D11*
%TO.C,D311*%
X82075000Y-81075000D03*
X82925000Y-81075000D03*
X82075000Y-81925000D03*
X82925000Y-81925000D03*
%TD*%
D10*
%TO.C,D216*%
X76925000Y-71425000D03*
X76075000Y-71425000D03*
X76925000Y-70575000D03*
X76075000Y-70575000D03*
%TD*%
D11*
%TO.C,D207*%
X68575000Y-69075000D03*
X69425000Y-69075000D03*
X68575000Y-69925000D03*
X69425000Y-69925000D03*
%TD*%
%TO.C,D260*%
X70075000Y-75075000D03*
X70925000Y-75075000D03*
X70075000Y-75925000D03*
X70925000Y-75925000D03*
%TD*%
D10*
%TO.C,D211*%
X69425000Y-71425000D03*
X68575000Y-71425000D03*
X69425000Y-70575000D03*
X68575000Y-70575000D03*
%TD*%
D13*
%TO.C,U8*%
X66350000Y-33950000D03*
X65700000Y-33950000D03*
X65050000Y-33950000D03*
X65050000Y-35850000D03*
X65700000Y-35850000D03*
X66350000Y-35850000D03*
%TD*%
D11*
%TO.C,D187*%
X73075000Y-66075000D03*
X73925000Y-66075000D03*
X73075000Y-66925000D03*
X73925000Y-66925000D03*
%TD*%
D14*
%TO.C,SW6*%
X86000000Y-43700000D03*
X84200000Y-43700000D03*
D15*
X85100000Y-41572500D03*
D16*
X85100000Y-45825000D03*
%TD*%
D11*
%TO.C,D343*%
X71575000Y-84075000D03*
X72425000Y-84075000D03*
X71575000Y-84925000D03*
X72425000Y-84925000D03*
%TD*%
D17*
%TO.C,R18*%
X70090000Y-43300000D03*
X71110000Y-43300000D03*
%TD*%
D11*
%TO.C,D188*%
X71575000Y-66075000D03*
X72425000Y-66075000D03*
X71575000Y-66925000D03*
X72425000Y-66925000D03*
%TD*%
%TO.C,D288*%
X73075000Y-78075000D03*
X73925000Y-78075000D03*
X73075000Y-78925000D03*
X73925000Y-78925000D03*
%TD*%
D18*
%TO.C,C31*%
X80950000Y-35860000D03*
X80950000Y-34900000D03*
%TD*%
D19*
%TO.C,C33*%
X64780000Y-43100000D03*
X63820000Y-43100000D03*
%TD*%
D11*
%TO.C,D291*%
X68575000Y-78075000D03*
X69425000Y-78075000D03*
X68575000Y-78925000D03*
X69425000Y-78925000D03*
%TD*%
D10*
%TO.C,D247*%
X82925000Y-74425000D03*
X82075000Y-74425000D03*
X82925000Y-73575000D03*
X82075000Y-73575000D03*
%TD*%
%TO.C,D328*%
X73925000Y-83425000D03*
X73075000Y-83425000D03*
X73925000Y-82575000D03*
X73075000Y-82575000D03*
%TD*%
D11*
%TO.C,D317*%
X73075000Y-81075000D03*
X73925000Y-81075000D03*
X73075000Y-81925000D03*
X73925000Y-81925000D03*
%TD*%
D12*
%TO.C,mouse-bite-2mm-slot1*%
X65979949Y-87080711D03*
X65431942Y-86568058D03*
X64919289Y-86020051D03*
%TD*%
D20*
%TO.C,R13*%
X78500000Y-38090000D03*
X78500000Y-39110000D03*
%TD*%
D12*
%TO.C,mouse-bite-2mm-slot3*%
X64919289Y-67979949D03*
X65431942Y-67431942D03*
X65979949Y-66919289D03*
%TD*%
D11*
%TO.C,D292*%
X67075000Y-78075000D03*
X67925000Y-78075000D03*
X67075000Y-78925000D03*
X67925000Y-78925000D03*
%TD*%
%TO.C,D284*%
X79075000Y-78075000D03*
X79925000Y-78075000D03*
X79075000Y-78925000D03*
X79925000Y-78925000D03*
%TD*%
D10*
%TO.C,D243*%
X76925000Y-74425000D03*
X76075000Y-74425000D03*
X76925000Y-73575000D03*
X76075000Y-73575000D03*
%TD*%
%TO.C,D212*%
X70925000Y-71425000D03*
X70075000Y-71425000D03*
X70925000Y-70575000D03*
X70075000Y-70575000D03*
%TD*%
D11*
%TO.C,D263*%
X65575000Y-75075000D03*
X66425000Y-75075000D03*
X65575000Y-75925000D03*
X66425000Y-75925000D03*
%TD*%
D10*
%TO.C,D210*%
X67925000Y-71425000D03*
X67075000Y-71425000D03*
X67925000Y-70575000D03*
X67075000Y-70575000D03*
%TD*%
D21*
%TO.C,C42*%
X67620000Y-35900000D03*
X68580000Y-35900000D03*
%TD*%
D11*
%TO.C,D315*%
X76075000Y-81075000D03*
X76925000Y-81075000D03*
X76075000Y-81925000D03*
X76925000Y-81925000D03*
%TD*%
D10*
%TO.C,D278*%
X84425000Y-77425000D03*
X83575000Y-77425000D03*
X84425000Y-76575000D03*
X83575000Y-76575000D03*
%TD*%
D11*
%TO.C,D313*%
X79075000Y-81075000D03*
X79925000Y-81075000D03*
X79075000Y-81925000D03*
X79925000Y-81925000D03*
%TD*%
D18*
%TO.C,C30*%
X79500000Y-37180000D03*
X79500000Y-36220000D03*
%TD*%
D10*
%TO.C,D348*%
X70925000Y-86425000D03*
X70075000Y-86425000D03*
X70925000Y-85575000D03*
X70075000Y-85575000D03*
%TD*%
%TO.C,D301*%
X73925000Y-80425000D03*
X73075000Y-80425000D03*
X73925000Y-79575000D03*
X73075000Y-79575000D03*
%TD*%
D11*
%TO.C,D280*%
X85075000Y-78075000D03*
X85925000Y-78075000D03*
X85075000Y-78925000D03*
X85925000Y-78925000D03*
%TD*%
D12*
%TO.C,mouse-bite-2mm-slot8*%
X84020051Y-29919289D03*
X84568058Y-30431942D03*
X85080711Y-30979949D03*
%TD*%
D20*
%TO.C,R20*%
X80900000Y-41790000D03*
X80900000Y-42810000D03*
%TD*%
D18*
%TO.C,C29*%
X78500000Y-37180000D03*
X78500000Y-36220000D03*
%TD*%
D10*
%TO.C,D268*%
X69425000Y-77425000D03*
X68575000Y-77425000D03*
X69425000Y-76575000D03*
X68575000Y-76575000D03*
%TD*%
D11*
%TO.C,D257*%
X74575000Y-75075000D03*
X75425000Y-75075000D03*
X74575000Y-75925000D03*
X75425000Y-75925000D03*
%TD*%
%TO.C,D318*%
X71575000Y-81075000D03*
X72425000Y-81075000D03*
X71575000Y-81925000D03*
X72425000Y-81925000D03*
%TD*%
D10*
%TO.C,D194*%
X76925000Y-68425000D03*
X76075000Y-68425000D03*
X76925000Y-67575000D03*
X76075000Y-67575000D03*
%TD*%
%TO.C,D193*%
X75425000Y-68425000D03*
X74575000Y-68425000D03*
X75425000Y-67575000D03*
X74575000Y-67575000D03*
%TD*%
D11*
%TO.C,D206*%
X70075000Y-69075000D03*
X70925000Y-69075000D03*
X70075000Y-69925000D03*
X70925000Y-69925000D03*
%TD*%
%TO.C,D319*%
X70075000Y-81075000D03*
X70925000Y-81075000D03*
X70075000Y-81925000D03*
X70925000Y-81925000D03*
%TD*%
%TO.C,D230*%
X71575000Y-72075000D03*
X72425000Y-72075000D03*
X71575000Y-72925000D03*
X72425000Y-72925000D03*
%TD*%
D22*
%TO.C,R14*%
X79500000Y-39110000D03*
X79500000Y-38090000D03*
%TD*%
D10*
%TO.C,D335*%
X84425000Y-83425000D03*
X83575000Y-83425000D03*
X84425000Y-82575000D03*
X83575000Y-82575000D03*
%TD*%
D11*
%TO.C,D338*%
X79075000Y-84075000D03*
X79925000Y-84075000D03*
X79075000Y-84925000D03*
X79925000Y-84925000D03*
%TD*%
D23*
%TO.C,D183*%
X82800000Y-46535000D03*
X82800000Y-48110000D03*
%TD*%
D11*
%TO.C,D344*%
X70075000Y-84075000D03*
X70925000Y-84075000D03*
X70075000Y-84925000D03*
X70925000Y-84925000D03*
%TD*%
D10*
%TO.C,D197*%
X81425000Y-68425000D03*
X80575000Y-68425000D03*
X81425000Y-67575000D03*
X80575000Y-67575000D03*
%TD*%
%TO.C,D277*%
X82925000Y-77425000D03*
X82075000Y-77425000D03*
X82925000Y-76575000D03*
X82075000Y-76575000D03*
%TD*%
D12*
%TO.C,mouse-bite-2mm-slot2*%
X85080711Y-86020051D03*
X84568058Y-86568058D03*
X84020051Y-87080711D03*
%TD*%
D10*
%TO.C,D274*%
X78425000Y-77425000D03*
X77575000Y-77425000D03*
X78425000Y-76575000D03*
X77575000Y-76575000D03*
%TD*%
%TO.C,D326*%
X70925000Y-83425000D03*
X70075000Y-83425000D03*
X70925000Y-82575000D03*
X70075000Y-82575000D03*
%TD*%
D11*
%TO.C,D222*%
X83575000Y-72075000D03*
X84425000Y-72075000D03*
X83575000Y-72925000D03*
X84425000Y-72925000D03*
%TD*%
D10*
%TO.C,D267*%
X67925000Y-77425000D03*
X67075000Y-77425000D03*
X67925000Y-76575000D03*
X67075000Y-76575000D03*
%TD*%
%TO.C,D238*%
X69425000Y-74425000D03*
X68575000Y-74425000D03*
X69425000Y-73575000D03*
X68575000Y-73575000D03*
%TD*%
%TO.C,D279*%
X85925000Y-77425000D03*
X85075000Y-77425000D03*
X85925000Y-76575000D03*
X85075000Y-76575000D03*
%TD*%
D11*
%TO.C,D262*%
X67075000Y-75075000D03*
X67925000Y-75075000D03*
X67075000Y-75925000D03*
X67925000Y-75925000D03*
%TD*%
D10*
%TO.C,D303*%
X76925000Y-80425000D03*
X76075000Y-80425000D03*
X76925000Y-79575000D03*
X76075000Y-79575000D03*
%TD*%
%TO.C,D221*%
X84425000Y-71425000D03*
X83575000Y-71425000D03*
X84425000Y-70575000D03*
X83575000Y-70575000D03*
%TD*%
%TO.C,D298*%
X69425000Y-80425000D03*
X68575000Y-80425000D03*
X69425000Y-79575000D03*
X68575000Y-79575000D03*
%TD*%
D11*
%TO.C,D198*%
X82075000Y-69075000D03*
X82925000Y-69075000D03*
X82075000Y-69925000D03*
X82925000Y-69925000D03*
%TD*%
%TO.C,D281*%
X83575000Y-78075000D03*
X84425000Y-78075000D03*
X83575000Y-78925000D03*
X84425000Y-78925000D03*
%TD*%
D10*
%TO.C,D189*%
X69425000Y-68425000D03*
X68575000Y-68425000D03*
X69425000Y-67575000D03*
X68575000Y-67575000D03*
%TD*%
%TO.C,D246*%
X81425000Y-74425000D03*
X80575000Y-74425000D03*
X81425000Y-73575000D03*
X80575000Y-73575000D03*
%TD*%
%TO.C,D266*%
X66425000Y-77425000D03*
X65575000Y-77425000D03*
X66425000Y-76575000D03*
X65575000Y-76575000D03*
%TD*%
D24*
%TO.C,U7*%
X72750000Y-38440000D03*
D25*
X72750000Y-39250000D03*
X72750000Y-39750000D03*
X72750000Y-40250000D03*
X72750000Y-40750000D03*
D24*
X72750000Y-41560000D03*
X73250000Y-41560000D03*
X73750000Y-41560000D03*
X74250000Y-41560000D03*
X74750000Y-41560000D03*
X75250000Y-41560000D03*
X75750000Y-41560000D03*
X76250000Y-41560000D03*
X76750000Y-41560000D03*
X77250000Y-41560000D03*
D25*
X77250000Y-40750000D03*
X77250000Y-40250000D03*
X77250000Y-39750000D03*
X77250000Y-39250000D03*
D24*
X77250000Y-38440000D03*
X76750000Y-38440000D03*
X76250000Y-38440000D03*
X75750000Y-38440000D03*
X75250000Y-38440000D03*
X74750000Y-38440000D03*
X74250000Y-38440000D03*
X73750000Y-38440000D03*
X73250000Y-38440000D03*
%TD*%
D10*
%TO.C,D325*%
X69425000Y-83425000D03*
X68575000Y-83425000D03*
X69425000Y-82575000D03*
X68575000Y-82575000D03*
%TD*%
D26*
%TO.C,J8*%
X72110000Y-48090000D03*
X77890000Y-48090000D03*
D27*
X71800000Y-46990000D03*
X72600000Y-46990000D03*
D28*
X73750000Y-46990000D03*
X74750000Y-46990000D03*
X75250000Y-46990000D03*
X76250000Y-46990000D03*
D27*
X77400000Y-46990000D03*
X78200000Y-46990000D03*
X78200000Y-46990000D03*
X77400000Y-46990000D03*
D28*
X76750000Y-46990000D03*
X75750000Y-46990000D03*
X74250000Y-46990000D03*
X73250000Y-46990000D03*
D27*
X72600000Y-46990000D03*
X71800000Y-46990000D03*
D29*
X70680000Y-47590000D03*
X79320000Y-47590000D03*
D30*
X79320000Y-51770000D03*
X70680000Y-51770000D03*
%TD*%
D12*
%TO.C,mouse-bite-2mm-slot7*%
X64919289Y-30979949D03*
X65431942Y-30431942D03*
X65979949Y-29919289D03*
%TD*%
D10*
%TO.C,D350*%
X73925000Y-86425000D03*
X73075000Y-86425000D03*
X73925000Y-85575000D03*
X73075000Y-85575000D03*
%TD*%
%TO.C,D235*%
X64925000Y-74425000D03*
X64075000Y-74425000D03*
X64925000Y-73575000D03*
X64075000Y-73575000D03*
%TD*%
D11*
%TO.C,D203*%
X74575000Y-69075000D03*
X75425000Y-69075000D03*
X74575000Y-69925000D03*
X75425000Y-69925000D03*
%TD*%
D10*
%TO.C,D329*%
X75425000Y-83425000D03*
X74575000Y-83425000D03*
X75425000Y-82575000D03*
X74575000Y-82575000D03*
%TD*%
D14*
%TO.C,SW5*%
X84200000Y-36300000D03*
X86000000Y-36300000D03*
D15*
X85100000Y-38427500D03*
D16*
X85100000Y-34175000D03*
%TD*%
D10*
%TO.C,D354*%
X79925000Y-86425000D03*
X79075000Y-86425000D03*
X79925000Y-85575000D03*
X79075000Y-85575000D03*
%TD*%
%TO.C,D209*%
X66425000Y-71425000D03*
X65575000Y-71425000D03*
X66425000Y-70575000D03*
X65575000Y-70575000D03*
%TD*%
D11*
%TO.C,D358*%
X74575000Y-87075000D03*
X75425000Y-87075000D03*
X74575000Y-87925000D03*
X75425000Y-87925000D03*
%TD*%
D21*
%TO.C,C40*%
X74720000Y-42700000D03*
X75680000Y-42700000D03*
%TD*%
D10*
%TO.C,D249*%
X85925000Y-74425000D03*
X85075000Y-74425000D03*
X85925000Y-73575000D03*
X85075000Y-73575000D03*
%TD*%
D21*
%TO.C,C38*%
X71520000Y-37100000D03*
X72480000Y-37100000D03*
%TD*%
D11*
%TO.C,D337*%
X80575000Y-84075000D03*
X81425000Y-84075000D03*
X80575000Y-84925000D03*
X81425000Y-84925000D03*
%TD*%
%TO.C,D285*%
X77575000Y-78075000D03*
X78425000Y-78075000D03*
X77575000Y-78925000D03*
X78425000Y-78925000D03*
%TD*%
%TO.C,D204*%
X73075000Y-69075000D03*
X73925000Y-69075000D03*
X73075000Y-69925000D03*
X73925000Y-69925000D03*
%TD*%
D10*
%TO.C,D308*%
X84425000Y-80425000D03*
X83575000Y-80425000D03*
X84425000Y-79575000D03*
X83575000Y-79575000D03*
%TD*%
D11*
%TO.C,D287*%
X74575000Y-78075000D03*
X75425000Y-78075000D03*
X74575000Y-78925000D03*
X75425000Y-78925000D03*
%TD*%
D10*
%TO.C,D299*%
X70925000Y-80425000D03*
X70075000Y-80425000D03*
X70925000Y-79575000D03*
X70075000Y-79575000D03*
%TD*%
%TO.C,D196*%
X79925000Y-68425000D03*
X79075000Y-68425000D03*
X79925000Y-67575000D03*
X79075000Y-67575000D03*
%TD*%
D17*
%TO.C,R17*%
X70090000Y-42300000D03*
X71110000Y-42300000D03*
%TD*%
D11*
%TO.C,D208*%
X67075000Y-69075000D03*
X67925000Y-69075000D03*
X67075000Y-69925000D03*
X67925000Y-69925000D03*
%TD*%
D10*
%TO.C,D218*%
X79925000Y-71425000D03*
X79075000Y-71425000D03*
X79925000Y-70575000D03*
X79075000Y-70575000D03*
%TD*%
D31*
%TO.C,C34*%
X69100000Y-41370000D03*
X69100000Y-42330000D03*
%TD*%
D10*
%TO.C,D214*%
X73925000Y-71425000D03*
X73075000Y-71425000D03*
X73925000Y-70575000D03*
X73075000Y-70575000D03*
%TD*%
%TO.C,D195*%
X78425000Y-68425000D03*
X77575000Y-68425000D03*
X78425000Y-67575000D03*
X77575000Y-67575000D03*
%TD*%
D11*
%TO.C,D233*%
X67075000Y-72075000D03*
X67925000Y-72075000D03*
X67075000Y-72925000D03*
X67925000Y-72925000D03*
%TD*%
D10*
%TO.C,D275*%
X79925000Y-77425000D03*
X79075000Y-77425000D03*
X79925000Y-76575000D03*
X79075000Y-76575000D03*
%TD*%
D11*
%TO.C,D202*%
X76075000Y-69075000D03*
X76925000Y-69075000D03*
X76075000Y-69925000D03*
X76925000Y-69925000D03*
%TD*%
D10*
%TO.C,D273*%
X76925000Y-77425000D03*
X76075000Y-77425000D03*
X76925000Y-76575000D03*
X76075000Y-76575000D03*
%TD*%
D14*
%TO.C,SW4*%
X66200000Y-40000000D03*
X64400000Y-40000000D03*
D15*
X65300000Y-37872500D03*
D16*
X65300000Y-42125000D03*
%TD*%
D10*
%TO.C,D217*%
X78425000Y-71425000D03*
X77575000Y-71425000D03*
X78425000Y-70575000D03*
X77575000Y-70575000D03*
%TD*%
D11*
%TO.C,D227*%
X76075000Y-72075000D03*
X76925000Y-72075000D03*
X76075000Y-72925000D03*
X76925000Y-72925000D03*
%TD*%
%TO.C,D346*%
X67075000Y-84075000D03*
X67925000Y-84075000D03*
X67075000Y-84925000D03*
X67925000Y-84925000D03*
%TD*%
D10*
%TO.C,D295*%
X64925000Y-80425000D03*
X64075000Y-80425000D03*
X64925000Y-79575000D03*
X64075000Y-79575000D03*
%TD*%
D11*
%TO.C,D339*%
X77575000Y-84075000D03*
X78425000Y-84075000D03*
X77575000Y-84925000D03*
X78425000Y-84925000D03*
%TD*%
D10*
%TO.C,D302*%
X75425000Y-80425000D03*
X74575000Y-80425000D03*
X75425000Y-79575000D03*
X74575000Y-79575000D03*
%TD*%
D11*
%TO.C,D314*%
X77575000Y-81075000D03*
X78425000Y-81075000D03*
X77575000Y-81925000D03*
X78425000Y-81925000D03*
%TD*%
%TO.C,D252*%
X82075000Y-75075000D03*
X82925000Y-75075000D03*
X82075000Y-75925000D03*
X82925000Y-75925000D03*
%TD*%
D10*
%TO.C,D236*%
X66425000Y-74425000D03*
X65575000Y-74425000D03*
X66425000Y-73575000D03*
X65575000Y-73575000D03*
%TD*%
D11*
%TO.C,D229*%
X73075000Y-72075000D03*
X73925000Y-72075000D03*
X73075000Y-72925000D03*
X73925000Y-72925000D03*
%TD*%
%TO.C,D258*%
X73075000Y-75075000D03*
X73925000Y-75075000D03*
X73075000Y-75925000D03*
X73925000Y-75925000D03*
%TD*%
D10*
%TO.C,D245*%
X79925000Y-74425000D03*
X79075000Y-74425000D03*
X79925000Y-73575000D03*
X79075000Y-73575000D03*
%TD*%
D11*
%TO.C,D290*%
X70075000Y-78075000D03*
X70925000Y-78075000D03*
X70075000Y-78925000D03*
X70925000Y-78925000D03*
%TD*%
%TO.C,D340*%
X76075000Y-84075000D03*
X76925000Y-84075000D03*
X76075000Y-84925000D03*
X76925000Y-84925000D03*
%TD*%
%TO.C,D226*%
X77575000Y-72075000D03*
X78425000Y-72075000D03*
X77575000Y-72925000D03*
X78425000Y-72925000D03*
%TD*%
%TO.C,D199*%
X80575000Y-69075000D03*
X81425000Y-69075000D03*
X80575000Y-69925000D03*
X81425000Y-69925000D03*
%TD*%
D18*
%TO.C,C39*%
X71500000Y-38980000D03*
X71500000Y-38020000D03*
%TD*%
D11*
%TO.C,D341*%
X74575000Y-84075000D03*
X75425000Y-84075000D03*
X74575000Y-84925000D03*
X75425000Y-84925000D03*
%TD*%
D18*
%TO.C,C35*%
X69100000Y-44230000D03*
X69100000Y-43270000D03*
%TD*%
D10*
%TO.C,D191*%
X72425000Y-68425000D03*
X71575000Y-68425000D03*
X72425000Y-67575000D03*
X71575000Y-67575000D03*
%TD*%
%TO.C,D330*%
X76925000Y-83425000D03*
X76075000Y-83425000D03*
X76925000Y-82575000D03*
X76075000Y-82575000D03*
%TD*%
D11*
%TO.C,D224*%
X80575000Y-72075000D03*
X81425000Y-72075000D03*
X80575000Y-72925000D03*
X81425000Y-72925000D03*
%TD*%
D10*
%TO.C,D324*%
X67925000Y-83425000D03*
X67075000Y-83425000D03*
X67925000Y-82575000D03*
X67075000Y-82575000D03*
%TD*%
D17*
%TO.C,R22*%
X77390000Y-45400000D03*
X78410000Y-45400000D03*
%TD*%
D10*
%TO.C,D239*%
X70925000Y-74425000D03*
X70075000Y-74425000D03*
X70925000Y-73575000D03*
X70075000Y-73575000D03*
%TD*%
%TO.C,D244*%
X78425000Y-74425000D03*
X77575000Y-74425000D03*
X78425000Y-73575000D03*
X77575000Y-73575000D03*
%TD*%
D11*
%TO.C,D223*%
X82075000Y-72075000D03*
X82925000Y-72075000D03*
X82075000Y-72925000D03*
X82925000Y-72925000D03*
%TD*%
%TO.C,D294*%
X64075000Y-78075000D03*
X64925000Y-78075000D03*
X64075000Y-78925000D03*
X64925000Y-78925000D03*
%TD*%
D10*
%TO.C,D355*%
X81425000Y-86425000D03*
X80575000Y-86425000D03*
X81425000Y-85575000D03*
X80575000Y-85575000D03*
%TD*%
%TO.C,D192*%
X73925000Y-68425000D03*
X73075000Y-68425000D03*
X73925000Y-67575000D03*
X73075000Y-67575000D03*
%TD*%
D11*
%TO.C,D205*%
X71575000Y-69075000D03*
X72425000Y-69075000D03*
X71575000Y-69925000D03*
X72425000Y-69925000D03*
%TD*%
%TO.C,D312*%
X80575000Y-81075000D03*
X81425000Y-81075000D03*
X80575000Y-81925000D03*
X81425000Y-81925000D03*
%TD*%
%TO.C,D255*%
X77575000Y-75075000D03*
X78425000Y-75075000D03*
X77575000Y-75925000D03*
X78425000Y-75925000D03*
%TD*%
D10*
%TO.C,D276*%
X81425000Y-77425000D03*
X80575000Y-77425000D03*
X81425000Y-76575000D03*
X80575000Y-76575000D03*
%TD*%
D11*
%TO.C,D186*%
X74575000Y-66075000D03*
X75425000Y-66075000D03*
X74575000Y-66925000D03*
X75425000Y-66925000D03*
%TD*%
%TO.C,D225*%
X79075000Y-72075000D03*
X79925000Y-72075000D03*
X79075000Y-72925000D03*
X79925000Y-72925000D03*
%TD*%
D32*
%TO.C,R23*%
X73110000Y-45400000D03*
X72090000Y-45400000D03*
%TD*%
D11*
%TO.C,D251*%
X83575000Y-75075000D03*
X84425000Y-75075000D03*
X83575000Y-75925000D03*
X84425000Y-75925000D03*
%TD*%
D10*
%TO.C,D352*%
X76925000Y-86425000D03*
X76075000Y-86425000D03*
X76925000Y-85575000D03*
X76075000Y-85575000D03*
%TD*%
D11*
%TO.C,D282*%
X82075000Y-78075000D03*
X82925000Y-78075000D03*
X82075000Y-78925000D03*
X82925000Y-78925000D03*
%TD*%
D10*
%TO.C,D241*%
X73925000Y-74425000D03*
X73075000Y-74425000D03*
X73925000Y-73575000D03*
X73075000Y-73575000D03*
%TD*%
D11*
%TO.C,D283*%
X80575000Y-78075000D03*
X81425000Y-78075000D03*
X80575000Y-78925000D03*
X81425000Y-78925000D03*
%TD*%
%TO.C,D201*%
X77575000Y-69075000D03*
X78425000Y-69075000D03*
X77575000Y-69925000D03*
X78425000Y-69925000D03*
%TD*%
D10*
%TO.C,D272*%
X75425000Y-77425000D03*
X74575000Y-77425000D03*
X75425000Y-76575000D03*
X74575000Y-76575000D03*
%TD*%
D11*
%TO.C,D342*%
X73075000Y-84075000D03*
X73925000Y-84075000D03*
X73075000Y-84925000D03*
X73925000Y-84925000D03*
%TD*%
D10*
%TO.C,D347*%
X69425000Y-86450000D03*
X68575000Y-86450000D03*
X69425000Y-85600000D03*
X68575000Y-85600000D03*
%TD*%
D11*
%TO.C,D264*%
X64075000Y-75075000D03*
X64925000Y-75075000D03*
X64075000Y-75925000D03*
X64925000Y-75925000D03*
%TD*%
%TO.C,D261*%
X68575000Y-75075000D03*
X69425000Y-75075000D03*
X68575000Y-75925000D03*
X69425000Y-75925000D03*
%TD*%
D10*
%TO.C,D220*%
X82925000Y-71425000D03*
X82075000Y-71425000D03*
X82925000Y-70575000D03*
X82075000Y-70575000D03*
%TD*%
%TO.C,D323*%
X66425000Y-83425000D03*
X65575000Y-83425000D03*
X66425000Y-82575000D03*
X65575000Y-82575000D03*
%TD*%
D11*
%TO.C,D184*%
X77575000Y-66075000D03*
X78425000Y-66075000D03*
X77575000Y-66925000D03*
X78425000Y-66925000D03*
%TD*%
D10*
%TO.C,D309*%
X85925000Y-80425000D03*
X85075000Y-80425000D03*
X85925000Y-79575000D03*
X85075000Y-79575000D03*
%TD*%
D22*
%TO.C,R15*%
X80950000Y-37820000D03*
X80950000Y-36800000D03*
%TD*%
D10*
%TO.C,D327*%
X72425000Y-83425000D03*
X71575000Y-83425000D03*
X72425000Y-82575000D03*
X71575000Y-82575000D03*
%TD*%
%TO.C,D331*%
X78425000Y-83425000D03*
X77575000Y-83425000D03*
X78425000Y-82575000D03*
X77575000Y-82575000D03*
%TD*%
%TO.C,D349*%
X72425000Y-86425000D03*
X71575000Y-86425000D03*
X72425000Y-85575000D03*
X71575000Y-85575000D03*
%TD*%
D11*
%TO.C,D289*%
X71575000Y-78075000D03*
X72425000Y-78075000D03*
X71575000Y-78925000D03*
X72425000Y-78925000D03*
%TD*%
D22*
%TO.C,R16*%
X81100000Y-48110000D03*
X81100000Y-47090000D03*
%TD*%
D12*
%TO.C,mouse-bite-2mm-slot4*%
X84020051Y-66919289D03*
X84568058Y-67431942D03*
X85080711Y-67979949D03*
%TD*%
D10*
%TO.C,D240*%
X72425000Y-74425000D03*
X71575000Y-74425000D03*
X72425000Y-73575000D03*
X71575000Y-73575000D03*
%TD*%
%TO.C,D300*%
X72425000Y-80425000D03*
X71575000Y-80425000D03*
X72425000Y-79575000D03*
X71575000Y-79575000D03*
%TD*%
%TO.C,D297*%
X67925000Y-80425000D03*
X67075000Y-80425000D03*
X67925000Y-79575000D03*
X67075000Y-79575000D03*
%TD*%
%TO.C,D305*%
X79925000Y-80425000D03*
X79075000Y-80425000D03*
X79925000Y-79575000D03*
X79075000Y-79575000D03*
%TD*%
%TO.C,D334*%
X82925000Y-83425000D03*
X82075000Y-83425000D03*
X82925000Y-82575000D03*
X82075000Y-82575000D03*
%TD*%
%TO.C,D271*%
X73925000Y-77425000D03*
X73075000Y-77425000D03*
X73925000Y-76575000D03*
X73075000Y-76575000D03*
%TD*%
D17*
%TO.C,R21*%
X81290000Y-40800000D03*
X82310000Y-40800000D03*
%TD*%
D11*
%TO.C,D286*%
X76075000Y-78075000D03*
X76925000Y-78075000D03*
X76075000Y-78925000D03*
X76925000Y-78925000D03*
%TD*%
%TO.C,D322*%
X65575000Y-81075000D03*
X66425000Y-81075000D03*
X65575000Y-81925000D03*
X66425000Y-81925000D03*
%TD*%
%TO.C,D253*%
X80575000Y-75075000D03*
X81425000Y-75075000D03*
X80575000Y-75925000D03*
X81425000Y-75925000D03*
%TD*%
D19*
%TO.C,C41*%
X66660000Y-32900000D03*
X65700000Y-32900000D03*
%TD*%
D11*
%TO.C,D316*%
X74575000Y-81075000D03*
X75425000Y-81075000D03*
X74575000Y-81925000D03*
X75425000Y-81925000D03*
%TD*%
%TO.C,D293*%
X65575000Y-78075000D03*
X66425000Y-78075000D03*
X65575000Y-78925000D03*
X66425000Y-78925000D03*
%TD*%
%TO.C,D356*%
X77575000Y-87075000D03*
X78425000Y-87075000D03*
X77575000Y-87925000D03*
X78425000Y-87925000D03*
%TD*%
D10*
%TO.C,D265*%
X64925000Y-77425000D03*
X64075000Y-77425000D03*
X64925000Y-76575000D03*
X64075000Y-76575000D03*
%TD*%
D11*
%TO.C,D259*%
X71575000Y-75075000D03*
X72425000Y-75075000D03*
X71575000Y-75925000D03*
X72425000Y-75925000D03*
%TD*%
D18*
%TO.C,C32*%
X82300000Y-33880000D03*
X82300000Y-32920000D03*
%TD*%
D11*
%TO.C,D250*%
X85075000Y-75075000D03*
X85925000Y-75075000D03*
X85075000Y-75925000D03*
X85925000Y-75925000D03*
%TD*%
D33*
%TO.C,D181*%
X73970000Y-43700000D03*
X73970000Y-44500000D03*
D34*
X75030000Y-44100000D03*
%TD*%
D11*
%TO.C,D321*%
X67075000Y-81075000D03*
X67925000Y-81075000D03*
X67075000Y-81925000D03*
X67925000Y-81925000D03*
%TD*%
D10*
%TO.C,D190*%
X70925000Y-68425000D03*
X70075000Y-68425000D03*
X70925000Y-67575000D03*
X70075000Y-67575000D03*
%TD*%
D11*
%TO.C,D256*%
X76075000Y-75075000D03*
X76925000Y-75075000D03*
X76075000Y-75925000D03*
X76925000Y-75925000D03*
%TD*%
D10*
%TO.C,D219*%
X81425000Y-71425000D03*
X80575000Y-71425000D03*
X81425000Y-70575000D03*
X80575000Y-70575000D03*
%TD*%
%TO.C,D304*%
X78425000Y-80425000D03*
X77575000Y-80425000D03*
X78425000Y-79575000D03*
X77575000Y-79575000D03*
%TD*%
%TO.C,D332*%
X79925000Y-83425000D03*
X79075000Y-83425000D03*
X79925000Y-82575000D03*
X79075000Y-82575000D03*
%TD*%
%TO.C,D171*%
X40425000Y-86425000D03*
X39575000Y-86425000D03*
X40425000Y-85575000D03*
X39575000Y-85575000D03*
%TD*%
D11*
%TO.C,D52*%
X33575000Y-72075000D03*
X34425000Y-72075000D03*
X33575000Y-72925000D03*
X34425000Y-72925000D03*
%TD*%
D12*
%TO.C,mouse-bite-2mm-slot*%
X30979949Y-50080711D03*
X30431942Y-49568058D03*
X29919289Y-49020051D03*
%TD*%
D10*
%TO.C,D33*%
X37425000Y-71425000D03*
X36575000Y-71425000D03*
X37425000Y-70575000D03*
X36575000Y-70575000D03*
%TD*%
D11*
%TO.C,D74*%
X44075000Y-75075000D03*
X44925000Y-75075000D03*
X44075000Y-75925000D03*
X44925000Y-75925000D03*
%TD*%
%TO.C,D48*%
X39575000Y-72075000D03*
X40425000Y-72075000D03*
X39575000Y-72925000D03*
X40425000Y-72925000D03*
%TD*%
D10*
%TO.C,D173*%
X43425000Y-86425000D03*
X42575000Y-86425000D03*
X43425000Y-85575000D03*
X42575000Y-85575000D03*
%TD*%
%TO.C,D35*%
X40425000Y-71425000D03*
X39575000Y-71425000D03*
X40425000Y-70575000D03*
X39575000Y-70575000D03*
%TD*%
D11*
%TO.C,D20*%
X44075000Y-69075000D03*
X44925000Y-69075000D03*
X44075000Y-69925000D03*
X44925000Y-69925000D03*
%TD*%
D10*
%TO.C,D153*%
X46425000Y-83425000D03*
X45575000Y-83425000D03*
X46425000Y-82575000D03*
X45575000Y-82575000D03*
%TD*%
%TO.C,D68*%
X49425000Y-74425000D03*
X48575000Y-74425000D03*
X49425000Y-73575000D03*
X48575000Y-73575000D03*
%TD*%
D11*
%TO.C,D54*%
X30575000Y-72075000D03*
X31425000Y-72075000D03*
X30575000Y-72925000D03*
X31425000Y-72925000D03*
%TD*%
D10*
%TO.C,D90*%
X37425000Y-77425000D03*
X36575000Y-77425000D03*
X37425000Y-76575000D03*
X36575000Y-76575000D03*
%TD*%
%TO.C,D62*%
X40425000Y-74425000D03*
X39575000Y-74425000D03*
X40425000Y-73575000D03*
X39575000Y-73575000D03*
%TD*%
D11*
%TO.C,D51*%
X35075000Y-72075000D03*
X35925000Y-72075000D03*
X35075000Y-72925000D03*
X35925000Y-72925000D03*
%TD*%
D10*
%TO.C,D57*%
X32925000Y-74425000D03*
X32075000Y-74425000D03*
X32925000Y-73575000D03*
X32075000Y-73575000D03*
%TD*%
D11*
%TO.C,D165*%
X33575000Y-84075000D03*
X34425000Y-84075000D03*
X33575000Y-84925000D03*
X34425000Y-84925000D03*
%TD*%
D10*
%TO.C,D127*%
X47925000Y-80425000D03*
X47075000Y-80425000D03*
X47925000Y-79575000D03*
X47075000Y-79575000D03*
%TD*%
D11*
%TO.C,D140*%
X33575000Y-81075000D03*
X34425000Y-81075000D03*
X33575000Y-81925000D03*
X34425000Y-81925000D03*
%TD*%
D10*
%TO.C,D126*%
X46425000Y-80425000D03*
X45575000Y-80425000D03*
X46425000Y-79575000D03*
X45575000Y-79575000D03*
%TD*%
D11*
%TO.C,D180*%
X36575000Y-87075000D03*
X37425000Y-87075000D03*
X36575000Y-87925000D03*
X37425000Y-87925000D03*
%TD*%
%TO.C,D130*%
X48575000Y-81075000D03*
X49425000Y-81075000D03*
X48575000Y-81925000D03*
X49425000Y-81925000D03*
%TD*%
D10*
%TO.C,D116*%
X31425000Y-80425000D03*
X30575000Y-80425000D03*
X31425000Y-79575000D03*
X30575000Y-79575000D03*
%TD*%
D11*
%TO.C,D177*%
X41075000Y-87075000D03*
X41925000Y-87075000D03*
X41075000Y-87925000D03*
X41925000Y-87925000D03*
%TD*%
%TO.C,D179*%
X38075000Y-87075000D03*
X38925000Y-87075000D03*
X38075000Y-87925000D03*
X38925000Y-87925000D03*
%TD*%
%TO.C,D5*%
X41075000Y-66075000D03*
X41925000Y-66075000D03*
X41075000Y-66925000D03*
X41925000Y-66925000D03*
%TD*%
D10*
%TO.C,D89*%
X35925000Y-77425000D03*
X35075000Y-77425000D03*
X35925000Y-76575000D03*
X35075000Y-76575000D03*
%TD*%
D11*
%TO.C,D156*%
X47075000Y-84075000D03*
X47925000Y-84075000D03*
X47075000Y-84925000D03*
X47925000Y-84925000D03*
%TD*%
D12*
%TO.C,mouse-bite-2mm-slot*%
X50080711Y-49020051D03*
X49568058Y-49568058D03*
X49020051Y-50080711D03*
%TD*%
D11*
%TO.C,D131*%
X47075000Y-81075000D03*
X47925000Y-81075000D03*
X47075000Y-81925000D03*
X47925000Y-81925000D03*
%TD*%
D10*
%TO.C,D36*%
X41925000Y-71425000D03*
X41075000Y-71425000D03*
X41925000Y-70575000D03*
X41075000Y-70575000D03*
%TD*%
D11*
%TO.C,D27*%
X33575000Y-69075000D03*
X34425000Y-69075000D03*
X33575000Y-69925000D03*
X34425000Y-69925000D03*
%TD*%
%TO.C,D80*%
X35075000Y-75075000D03*
X35925000Y-75075000D03*
X35075000Y-75925000D03*
X35925000Y-75925000D03*
%TD*%
D10*
%TO.C,D31*%
X34425000Y-71425000D03*
X33575000Y-71425000D03*
X34425000Y-70575000D03*
X33575000Y-70575000D03*
%TD*%
D13*
%TO.C,U4*%
X31350000Y-33950000D03*
X30700000Y-33950000D03*
X30050000Y-33950000D03*
X30050000Y-35850000D03*
X30700000Y-35850000D03*
X31350000Y-35850000D03*
%TD*%
D11*
%TO.C,D7*%
X38075000Y-66075000D03*
X38925000Y-66075000D03*
X38075000Y-66925000D03*
X38925000Y-66925000D03*
%TD*%
D14*
%TO.C,SW3*%
X51000000Y-43700000D03*
X49200000Y-43700000D03*
D15*
X50100000Y-41572500D03*
D16*
X50100000Y-45825000D03*
%TD*%
D11*
%TO.C,D163*%
X36575000Y-84075000D03*
X37425000Y-84075000D03*
X36575000Y-84925000D03*
X37425000Y-84925000D03*
%TD*%
D17*
%TO.C,R6*%
X35090000Y-43300000D03*
X36110000Y-43300000D03*
%TD*%
D11*
%TO.C,D8*%
X36575000Y-66075000D03*
X37425000Y-66075000D03*
X36575000Y-66925000D03*
X37425000Y-66925000D03*
%TD*%
%TO.C,D108*%
X38075000Y-78075000D03*
X38925000Y-78075000D03*
X38075000Y-78925000D03*
X38925000Y-78925000D03*
%TD*%
D18*
%TO.C,C3*%
X45950000Y-35860000D03*
X45950000Y-34900000D03*
%TD*%
D19*
%TO.C,C5*%
X29780000Y-43100000D03*
X28820000Y-43100000D03*
%TD*%
D11*
%TO.C,D111*%
X33575000Y-78075000D03*
X34425000Y-78075000D03*
X33575000Y-78925000D03*
X34425000Y-78925000D03*
%TD*%
D10*
%TO.C,D67*%
X47925000Y-74425000D03*
X47075000Y-74425000D03*
X47925000Y-73575000D03*
X47075000Y-73575000D03*
%TD*%
%TO.C,D148*%
X38925000Y-83425000D03*
X38075000Y-83425000D03*
X38925000Y-82575000D03*
X38075000Y-82575000D03*
%TD*%
D11*
%TO.C,D137*%
X38075000Y-81075000D03*
X38925000Y-81075000D03*
X38075000Y-81925000D03*
X38925000Y-81925000D03*
%TD*%
D12*
%TO.C,mouse-bite-2mm-slot*%
X30979949Y-87080711D03*
X30431942Y-86568058D03*
X29919289Y-86020051D03*
%TD*%
D20*
%TO.C,R1*%
X43500000Y-38090000D03*
X43500000Y-39110000D03*
%TD*%
D12*
%TO.C,mouse-bite-2mm-slot*%
X29919289Y-67979949D03*
X30431942Y-67431942D03*
X30979949Y-66919289D03*
%TD*%
D11*
%TO.C,D112*%
X32075000Y-78075000D03*
X32925000Y-78075000D03*
X32075000Y-78925000D03*
X32925000Y-78925000D03*
%TD*%
%TO.C,D104*%
X44075000Y-78075000D03*
X44925000Y-78075000D03*
X44075000Y-78925000D03*
X44925000Y-78925000D03*
%TD*%
D10*
%TO.C,D63*%
X41925000Y-74425000D03*
X41075000Y-74425000D03*
X41925000Y-73575000D03*
X41075000Y-73575000D03*
%TD*%
%TO.C,D32*%
X35925000Y-71425000D03*
X35075000Y-71425000D03*
X35925000Y-70575000D03*
X35075000Y-70575000D03*
%TD*%
D11*
%TO.C,D83*%
X30575000Y-75075000D03*
X31425000Y-75075000D03*
X30575000Y-75925000D03*
X31425000Y-75925000D03*
%TD*%
D10*
%TO.C,D30*%
X32925000Y-71425000D03*
X32075000Y-71425000D03*
X32925000Y-70575000D03*
X32075000Y-70575000D03*
%TD*%
D21*
%TO.C,C14*%
X32620000Y-35900000D03*
X33580000Y-35900000D03*
%TD*%
D11*
%TO.C,D135*%
X41075000Y-81075000D03*
X41925000Y-81075000D03*
X41075000Y-81925000D03*
X41925000Y-81925000D03*
%TD*%
D10*
%TO.C,D98*%
X49425000Y-77425000D03*
X48575000Y-77425000D03*
X49425000Y-76575000D03*
X48575000Y-76575000D03*
%TD*%
D11*
%TO.C,D133*%
X44075000Y-81075000D03*
X44925000Y-81075000D03*
X44075000Y-81925000D03*
X44925000Y-81925000D03*
%TD*%
D18*
%TO.C,C2*%
X44500000Y-37180000D03*
X44500000Y-36220000D03*
%TD*%
D10*
%TO.C,D168*%
X35925000Y-86425000D03*
X35075000Y-86425000D03*
X35925000Y-85575000D03*
X35075000Y-85575000D03*
%TD*%
%TO.C,D121*%
X38925000Y-80425000D03*
X38075000Y-80425000D03*
X38925000Y-79575000D03*
X38075000Y-79575000D03*
%TD*%
D11*
%TO.C,D100*%
X50075000Y-78075000D03*
X50925000Y-78075000D03*
X50075000Y-78925000D03*
X50925000Y-78925000D03*
%TD*%
D12*
%TO.C,mouse-bite-2mm-slot*%
X49020051Y-29919289D03*
X49568058Y-30431942D03*
X50080711Y-30979949D03*
%TD*%
D20*
%TO.C,R8*%
X45900000Y-41790000D03*
X45900000Y-42810000D03*
%TD*%
D18*
%TO.C,C1*%
X43500000Y-37180000D03*
X43500000Y-36220000D03*
%TD*%
D10*
%TO.C,D88*%
X34425000Y-77425000D03*
X33575000Y-77425000D03*
X34425000Y-76575000D03*
X33575000Y-76575000D03*
%TD*%
D11*
%TO.C,D77*%
X39575000Y-75075000D03*
X40425000Y-75075000D03*
X39575000Y-75925000D03*
X40425000Y-75925000D03*
%TD*%
%TO.C,D138*%
X36575000Y-81075000D03*
X37425000Y-81075000D03*
X36575000Y-81925000D03*
X37425000Y-81925000D03*
%TD*%
D10*
%TO.C,D14*%
X41925000Y-68425000D03*
X41075000Y-68425000D03*
X41925000Y-67575000D03*
X41075000Y-67575000D03*
%TD*%
%TO.C,D13*%
X40425000Y-68425000D03*
X39575000Y-68425000D03*
X40425000Y-67575000D03*
X39575000Y-67575000D03*
%TD*%
D11*
%TO.C,D26*%
X35075000Y-69075000D03*
X35925000Y-69075000D03*
X35075000Y-69925000D03*
X35925000Y-69925000D03*
%TD*%
%TO.C,D139*%
X35075000Y-81075000D03*
X35925000Y-81075000D03*
X35075000Y-81925000D03*
X35925000Y-81925000D03*
%TD*%
%TO.C,D50*%
X36575000Y-72075000D03*
X37425000Y-72075000D03*
X36575000Y-72925000D03*
X37425000Y-72925000D03*
%TD*%
D22*
%TO.C,R2*%
X44500000Y-39110000D03*
X44500000Y-38090000D03*
%TD*%
D10*
%TO.C,D155*%
X49425000Y-83425000D03*
X48575000Y-83425000D03*
X49425000Y-82575000D03*
X48575000Y-82575000D03*
%TD*%
D11*
%TO.C,D158*%
X44075000Y-84075000D03*
X44925000Y-84075000D03*
X44075000Y-84925000D03*
X44925000Y-84925000D03*
%TD*%
D23*
%TO.C,D3*%
X47800000Y-46535000D03*
X47800000Y-48110000D03*
%TD*%
D11*
%TO.C,D164*%
X35075000Y-84075000D03*
X35925000Y-84075000D03*
X35075000Y-84925000D03*
X35925000Y-84925000D03*
%TD*%
D10*
%TO.C,D17*%
X46425000Y-68425000D03*
X45575000Y-68425000D03*
X46425000Y-67575000D03*
X45575000Y-67575000D03*
%TD*%
%TO.C,D97*%
X47925000Y-77425000D03*
X47075000Y-77425000D03*
X47925000Y-76575000D03*
X47075000Y-76575000D03*
%TD*%
D12*
%TO.C,mouse-bite-2mm-slot*%
X50080711Y-86020051D03*
X49568058Y-86568058D03*
X49020051Y-87080711D03*
%TD*%
D10*
%TO.C,D94*%
X43425000Y-77425000D03*
X42575000Y-77425000D03*
X43425000Y-76575000D03*
X42575000Y-76575000D03*
%TD*%
%TO.C,D146*%
X35925000Y-83425000D03*
X35075000Y-83425000D03*
X35925000Y-82575000D03*
X35075000Y-82575000D03*
%TD*%
D11*
%TO.C,D42*%
X48575000Y-72075000D03*
X49425000Y-72075000D03*
X48575000Y-72925000D03*
X49425000Y-72925000D03*
%TD*%
D10*
%TO.C,D87*%
X32925000Y-77425000D03*
X32075000Y-77425000D03*
X32925000Y-76575000D03*
X32075000Y-76575000D03*
%TD*%
%TO.C,D58*%
X34425000Y-74425000D03*
X33575000Y-74425000D03*
X34425000Y-73575000D03*
X33575000Y-73575000D03*
%TD*%
%TO.C,D99*%
X50925000Y-77425000D03*
X50075000Y-77425000D03*
X50925000Y-76575000D03*
X50075000Y-76575000D03*
%TD*%
D11*
%TO.C,D82*%
X32075000Y-75075000D03*
X32925000Y-75075000D03*
X32075000Y-75925000D03*
X32925000Y-75925000D03*
%TD*%
D10*
%TO.C,D123*%
X41925000Y-80425000D03*
X41075000Y-80425000D03*
X41925000Y-79575000D03*
X41075000Y-79575000D03*
%TD*%
%TO.C,D41*%
X49425000Y-71425000D03*
X48575000Y-71425000D03*
X49425000Y-70575000D03*
X48575000Y-70575000D03*
%TD*%
%TO.C,D118*%
X34425000Y-80425000D03*
X33575000Y-80425000D03*
X34425000Y-79575000D03*
X33575000Y-79575000D03*
%TD*%
D11*
%TO.C,D18*%
X47075000Y-69075000D03*
X47925000Y-69075000D03*
X47075000Y-69925000D03*
X47925000Y-69925000D03*
%TD*%
%TO.C,D101*%
X48575000Y-78075000D03*
X49425000Y-78075000D03*
X48575000Y-78925000D03*
X49425000Y-78925000D03*
%TD*%
D10*
%TO.C,D9*%
X34425000Y-68425000D03*
X33575000Y-68425000D03*
X34425000Y-67575000D03*
X33575000Y-67575000D03*
%TD*%
%TO.C,D66*%
X46425000Y-74425000D03*
X45575000Y-74425000D03*
X46425000Y-73575000D03*
X45575000Y-73575000D03*
%TD*%
%TO.C,D86*%
X31425000Y-77425000D03*
X30575000Y-77425000D03*
X31425000Y-76575000D03*
X30575000Y-76575000D03*
%TD*%
D24*
%TO.C,U3*%
X37750000Y-38440000D03*
D25*
X37750000Y-39250000D03*
X37750000Y-39750000D03*
X37750000Y-40250000D03*
X37750000Y-40750000D03*
D24*
X37750000Y-41560000D03*
X38250000Y-41560000D03*
X38750000Y-41560000D03*
X39250000Y-41560000D03*
X39750000Y-41560000D03*
X40250000Y-41560000D03*
X40750000Y-41560000D03*
X41250000Y-41560000D03*
X41750000Y-41560000D03*
X42250000Y-41560000D03*
D25*
X42250000Y-40750000D03*
X42250000Y-40250000D03*
X42250000Y-39750000D03*
X42250000Y-39250000D03*
D24*
X42250000Y-38440000D03*
X41750000Y-38440000D03*
X41250000Y-38440000D03*
X40750000Y-38440000D03*
X40250000Y-38440000D03*
X39750000Y-38440000D03*
X39250000Y-38440000D03*
X38750000Y-38440000D03*
X38250000Y-38440000D03*
%TD*%
D10*
%TO.C,D145*%
X34425000Y-83425000D03*
X33575000Y-83425000D03*
X34425000Y-82575000D03*
X33575000Y-82575000D03*
%TD*%
D26*
%TO.C,J1*%
X37110000Y-48090000D03*
X42890000Y-48090000D03*
D27*
X36800000Y-46990000D03*
X37600000Y-46990000D03*
D28*
X38750000Y-46990000D03*
X39750000Y-46990000D03*
X40250000Y-46990000D03*
X41250000Y-46990000D03*
D27*
X42400000Y-46990000D03*
X43200000Y-46990000D03*
X43200000Y-46990000D03*
X42400000Y-46990000D03*
D28*
X41750000Y-46990000D03*
X40750000Y-46990000D03*
X39250000Y-46990000D03*
X38250000Y-46990000D03*
D27*
X37600000Y-46990000D03*
X36800000Y-46990000D03*
D29*
X35680000Y-47590000D03*
X44320000Y-47590000D03*
D30*
X44320000Y-51770000D03*
X35680000Y-51770000D03*
%TD*%
D12*
%TO.C,mouse-bite-2mm-slot*%
X29919289Y-30979949D03*
X30431942Y-30431942D03*
X30979949Y-29919289D03*
%TD*%
D10*
%TO.C,D170*%
X38925000Y-86425000D03*
X38075000Y-86425000D03*
X38925000Y-85575000D03*
X38075000Y-85575000D03*
%TD*%
%TO.C,D55*%
X29925000Y-74425000D03*
X29075000Y-74425000D03*
X29925000Y-73575000D03*
X29075000Y-73575000D03*
%TD*%
D11*
%TO.C,D23*%
X39575000Y-69075000D03*
X40425000Y-69075000D03*
X39575000Y-69925000D03*
X40425000Y-69925000D03*
%TD*%
D10*
%TO.C,D149*%
X40425000Y-83425000D03*
X39575000Y-83425000D03*
X40425000Y-82575000D03*
X39575000Y-82575000D03*
%TD*%
D14*
%TO.C,SW2*%
X49200000Y-36300000D03*
X51000000Y-36300000D03*
D15*
X50100000Y-38427500D03*
D16*
X50100000Y-34175000D03*
%TD*%
D10*
%TO.C,D174*%
X44925000Y-86425000D03*
X44075000Y-86425000D03*
X44925000Y-85575000D03*
X44075000Y-85575000D03*
%TD*%
%TO.C,D29*%
X31425000Y-71425000D03*
X30575000Y-71425000D03*
X31425000Y-70575000D03*
X30575000Y-70575000D03*
%TD*%
D11*
%TO.C,D178*%
X39575000Y-87075000D03*
X40425000Y-87075000D03*
X39575000Y-87925000D03*
X40425000Y-87925000D03*
%TD*%
D21*
%TO.C,C12*%
X39720000Y-42700000D03*
X40680000Y-42700000D03*
%TD*%
D17*
%TO.C,R5*%
X35090000Y-42300000D03*
X36110000Y-42300000D03*
%TD*%
D10*
%TO.C,D69*%
X50925000Y-74425000D03*
X50075000Y-74425000D03*
X50925000Y-73575000D03*
X50075000Y-73575000D03*
%TD*%
%TO.C,D16*%
X44925000Y-68425000D03*
X44075000Y-68425000D03*
X44925000Y-67575000D03*
X44075000Y-67575000D03*
%TD*%
D21*
%TO.C,C10*%
X36520000Y-37100000D03*
X37480000Y-37100000D03*
%TD*%
D11*
%TO.C,D157*%
X45575000Y-84075000D03*
X46425000Y-84075000D03*
X45575000Y-84925000D03*
X46425000Y-84925000D03*
%TD*%
%TO.C,D22*%
X41075000Y-69075000D03*
X41925000Y-69075000D03*
X41075000Y-69925000D03*
X41925000Y-69925000D03*
%TD*%
D10*
%TO.C,D93*%
X41925000Y-77425000D03*
X41075000Y-77425000D03*
X41925000Y-76575000D03*
X41075000Y-76575000D03*
%TD*%
D14*
%TO.C,SW1*%
X31200000Y-40000000D03*
X29400000Y-40000000D03*
D15*
X30300000Y-37872500D03*
D16*
X30300000Y-42125000D03*
%TD*%
D10*
%TO.C,D37*%
X43425000Y-71425000D03*
X42575000Y-71425000D03*
X43425000Y-70575000D03*
X42575000Y-70575000D03*
%TD*%
D11*
%TO.C,D47*%
X41075000Y-72075000D03*
X41925000Y-72075000D03*
X41075000Y-72925000D03*
X41925000Y-72925000D03*
%TD*%
%TO.C,D166*%
X32075000Y-84075000D03*
X32925000Y-84075000D03*
X32075000Y-84925000D03*
X32925000Y-84925000D03*
%TD*%
D10*
%TO.C,D61*%
X38925000Y-74425000D03*
X38075000Y-74425000D03*
X38925000Y-73575000D03*
X38075000Y-73575000D03*
%TD*%
D11*
%TO.C,D103*%
X45575000Y-78075000D03*
X46425000Y-78075000D03*
X45575000Y-78925000D03*
X46425000Y-78925000D03*
%TD*%
%TO.C,D21*%
X42575000Y-69075000D03*
X43425000Y-69075000D03*
X42575000Y-69925000D03*
X43425000Y-69925000D03*
%TD*%
D10*
%TO.C,D92*%
X40425000Y-77425000D03*
X39575000Y-77425000D03*
X40425000Y-76575000D03*
X39575000Y-76575000D03*
%TD*%
D11*
%TO.C,D162*%
X38075000Y-84075000D03*
X38925000Y-84075000D03*
X38075000Y-84925000D03*
X38925000Y-84925000D03*
%TD*%
D10*
%TO.C,D167*%
X34425000Y-86450000D03*
X33575000Y-86450000D03*
X34425000Y-85600000D03*
X33575000Y-85600000D03*
%TD*%
D11*
%TO.C,D84*%
X29075000Y-75075000D03*
X29925000Y-75075000D03*
X29075000Y-75925000D03*
X29925000Y-75925000D03*
%TD*%
D10*
%TO.C,D122*%
X40425000Y-80425000D03*
X39575000Y-80425000D03*
X40425000Y-79575000D03*
X39575000Y-79575000D03*
%TD*%
D11*
%TO.C,D134*%
X42575000Y-81075000D03*
X43425000Y-81075000D03*
X42575000Y-81925000D03*
X43425000Y-81925000D03*
%TD*%
%TO.C,D72*%
X47075000Y-75075000D03*
X47925000Y-75075000D03*
X47075000Y-75925000D03*
X47925000Y-75925000D03*
%TD*%
D10*
%TO.C,D56*%
X31425000Y-74425000D03*
X30575000Y-74425000D03*
X31425000Y-73575000D03*
X30575000Y-73575000D03*
%TD*%
D11*
%TO.C,D49*%
X38075000Y-72075000D03*
X38925000Y-72075000D03*
X38075000Y-72925000D03*
X38925000Y-72925000D03*
%TD*%
%TO.C,D78*%
X38075000Y-75075000D03*
X38925000Y-75075000D03*
X38075000Y-75925000D03*
X38925000Y-75925000D03*
%TD*%
D10*
%TO.C,D65*%
X44925000Y-74425000D03*
X44075000Y-74425000D03*
X44925000Y-73575000D03*
X44075000Y-73575000D03*
%TD*%
D11*
%TO.C,D110*%
X35075000Y-78075000D03*
X35925000Y-78075000D03*
X35075000Y-78925000D03*
X35925000Y-78925000D03*
%TD*%
%TO.C,D160*%
X41075000Y-84075000D03*
X41925000Y-84075000D03*
X41075000Y-84925000D03*
X41925000Y-84925000D03*
%TD*%
%TO.C,D46*%
X42575000Y-72075000D03*
X43425000Y-72075000D03*
X42575000Y-72925000D03*
X43425000Y-72925000D03*
%TD*%
%TO.C,D19*%
X45575000Y-69075000D03*
X46425000Y-69075000D03*
X45575000Y-69925000D03*
X46425000Y-69925000D03*
%TD*%
D18*
%TO.C,C11*%
X36500000Y-38980000D03*
X36500000Y-38020000D03*
%TD*%
D11*
%TO.C,D161*%
X39575000Y-84075000D03*
X40425000Y-84075000D03*
X39575000Y-84925000D03*
X40425000Y-84925000D03*
%TD*%
D18*
%TO.C,C7*%
X34100000Y-44230000D03*
X34100000Y-43270000D03*
%TD*%
D10*
%TO.C,D11*%
X37425000Y-68425000D03*
X36575000Y-68425000D03*
X37425000Y-67575000D03*
X36575000Y-67575000D03*
%TD*%
%TO.C,D150*%
X41925000Y-83425000D03*
X41075000Y-83425000D03*
X41925000Y-82575000D03*
X41075000Y-82575000D03*
%TD*%
D11*
%TO.C,D44*%
X45575000Y-72075000D03*
X46425000Y-72075000D03*
X45575000Y-72925000D03*
X46425000Y-72925000D03*
%TD*%
D10*
%TO.C,D144*%
X32925000Y-83425000D03*
X32075000Y-83425000D03*
X32925000Y-82575000D03*
X32075000Y-82575000D03*
%TD*%
D17*
%TO.C,R10*%
X42390000Y-45400000D03*
X43410000Y-45400000D03*
%TD*%
D10*
%TO.C,D59*%
X35925000Y-74425000D03*
X35075000Y-74425000D03*
X35925000Y-73575000D03*
X35075000Y-73575000D03*
%TD*%
%TO.C,D64*%
X43425000Y-74425000D03*
X42575000Y-74425000D03*
X43425000Y-73575000D03*
X42575000Y-73575000D03*
%TD*%
D11*
%TO.C,D43*%
X47075000Y-72075000D03*
X47925000Y-72075000D03*
X47075000Y-72925000D03*
X47925000Y-72925000D03*
%TD*%
%TO.C,D114*%
X29075000Y-78075000D03*
X29925000Y-78075000D03*
X29075000Y-78925000D03*
X29925000Y-78925000D03*
%TD*%
D10*
%TO.C,D175*%
X46425000Y-86425000D03*
X45575000Y-86425000D03*
X46425000Y-85575000D03*
X45575000Y-85575000D03*
%TD*%
%TO.C,D12*%
X38925000Y-68425000D03*
X38075000Y-68425000D03*
X38925000Y-67575000D03*
X38075000Y-67575000D03*
%TD*%
D11*
%TO.C,D25*%
X36575000Y-69075000D03*
X37425000Y-69075000D03*
X36575000Y-69925000D03*
X37425000Y-69925000D03*
%TD*%
%TO.C,D132*%
X45575000Y-81075000D03*
X46425000Y-81075000D03*
X45575000Y-81925000D03*
X46425000Y-81925000D03*
%TD*%
%TO.C,D75*%
X42575000Y-75075000D03*
X43425000Y-75075000D03*
X42575000Y-75925000D03*
X43425000Y-75925000D03*
%TD*%
D10*
%TO.C,D96*%
X46425000Y-77425000D03*
X45575000Y-77425000D03*
X46425000Y-76575000D03*
X45575000Y-76575000D03*
%TD*%
D11*
%TO.C,D6*%
X39575000Y-66075000D03*
X40425000Y-66075000D03*
X39575000Y-66925000D03*
X40425000Y-66925000D03*
%TD*%
%TO.C,D45*%
X44075000Y-72075000D03*
X44925000Y-72075000D03*
X44075000Y-72925000D03*
X44925000Y-72925000D03*
%TD*%
D32*
%TO.C,R11*%
X38110000Y-45400000D03*
X37090000Y-45400000D03*
%TD*%
D11*
%TO.C,D71*%
X48575000Y-75075000D03*
X49425000Y-75075000D03*
X48575000Y-75925000D03*
X49425000Y-75925000D03*
%TD*%
D10*
%TO.C,D172*%
X41925000Y-86425000D03*
X41075000Y-86425000D03*
X41925000Y-85575000D03*
X41075000Y-85575000D03*
%TD*%
D11*
%TO.C,D102*%
X47075000Y-78075000D03*
X47925000Y-78075000D03*
X47075000Y-78925000D03*
X47925000Y-78925000D03*
%TD*%
%TO.C,D81*%
X33575000Y-75075000D03*
X34425000Y-75075000D03*
X33575000Y-75925000D03*
X34425000Y-75925000D03*
%TD*%
D10*
%TO.C,D40*%
X47925000Y-71425000D03*
X47075000Y-71425000D03*
X47925000Y-70575000D03*
X47075000Y-70575000D03*
%TD*%
%TO.C,D143*%
X31425000Y-83425000D03*
X30575000Y-83425000D03*
X31425000Y-82575000D03*
X30575000Y-82575000D03*
%TD*%
D11*
%TO.C,D4*%
X42575000Y-66075000D03*
X43425000Y-66075000D03*
X42575000Y-66925000D03*
X43425000Y-66925000D03*
%TD*%
D10*
%TO.C,D129*%
X50925000Y-80425000D03*
X50075000Y-80425000D03*
X50925000Y-79575000D03*
X50075000Y-79575000D03*
%TD*%
D22*
%TO.C,R3*%
X45950000Y-37820000D03*
X45950000Y-36800000D03*
%TD*%
D10*
%TO.C,D147*%
X37425000Y-83425000D03*
X36575000Y-83425000D03*
X37425000Y-82575000D03*
X36575000Y-82575000D03*
%TD*%
%TO.C,D151*%
X43425000Y-83425000D03*
X42575000Y-83425000D03*
X43425000Y-82575000D03*
X42575000Y-82575000D03*
%TD*%
%TO.C,D169*%
X37425000Y-86425000D03*
X36575000Y-86425000D03*
X37425000Y-85575000D03*
X36575000Y-85575000D03*
%TD*%
D11*
%TO.C,D109*%
X36575000Y-78075000D03*
X37425000Y-78075000D03*
X36575000Y-78925000D03*
X37425000Y-78925000D03*
%TD*%
D22*
%TO.C,R4*%
X46100000Y-48110000D03*
X46100000Y-47090000D03*
%TD*%
D12*
%TO.C,mouse-bite-2mm-slot*%
X49020051Y-66919289D03*
X49568058Y-67431942D03*
X50080711Y-67979949D03*
%TD*%
D10*
%TO.C,D60*%
X37425000Y-74425000D03*
X36575000Y-74425000D03*
X37425000Y-73575000D03*
X36575000Y-73575000D03*
%TD*%
%TO.C,D120*%
X37425000Y-80425000D03*
X36575000Y-80425000D03*
X37425000Y-79575000D03*
X36575000Y-79575000D03*
%TD*%
%TO.C,D117*%
X32925000Y-80425000D03*
X32075000Y-80425000D03*
X32925000Y-79575000D03*
X32075000Y-79575000D03*
%TD*%
%TO.C,D125*%
X44925000Y-80425000D03*
X44075000Y-80425000D03*
X44925000Y-79575000D03*
X44075000Y-79575000D03*
%TD*%
%TO.C,D154*%
X47925000Y-83425000D03*
X47075000Y-83425000D03*
X47925000Y-82575000D03*
X47075000Y-82575000D03*
%TD*%
%TO.C,D91*%
X38925000Y-77425000D03*
X38075000Y-77425000D03*
X38925000Y-76575000D03*
X38075000Y-76575000D03*
%TD*%
D17*
%TO.C,R9*%
X46290000Y-40800000D03*
X47310000Y-40800000D03*
%TD*%
D11*
%TO.C,D106*%
X41075000Y-78075000D03*
X41925000Y-78075000D03*
X41075000Y-78925000D03*
X41925000Y-78925000D03*
%TD*%
%TO.C,D142*%
X30575000Y-81075000D03*
X31425000Y-81075000D03*
X30575000Y-81925000D03*
X31425000Y-81925000D03*
%TD*%
%TO.C,D73*%
X45575000Y-75075000D03*
X46425000Y-75075000D03*
X45575000Y-75925000D03*
X46425000Y-75925000D03*
%TD*%
D19*
%TO.C,C13*%
X31660000Y-32900000D03*
X30700000Y-32900000D03*
%TD*%
D11*
%TO.C,D70*%
X50075000Y-75075000D03*
X50925000Y-75075000D03*
X50075000Y-75925000D03*
X50925000Y-75925000D03*
%TD*%
D33*
%TO.C,D1*%
X38970000Y-43700000D03*
X38970000Y-44500000D03*
D34*
X40030000Y-44100000D03*
%TD*%
D11*
%TO.C,D141*%
X32075000Y-81075000D03*
X32925000Y-81075000D03*
X32075000Y-81925000D03*
X32925000Y-81925000D03*
%TD*%
D10*
%TO.C,D10*%
X35925000Y-68425000D03*
X35075000Y-68425000D03*
X35925000Y-67575000D03*
X35075000Y-67575000D03*
%TD*%
D11*
%TO.C,D105*%
X42575000Y-78075000D03*
X43425000Y-78075000D03*
X42575000Y-78925000D03*
X43425000Y-78925000D03*
%TD*%
%TO.C,D24*%
X38075000Y-69075000D03*
X38925000Y-69075000D03*
X38075000Y-69925000D03*
X38925000Y-69925000D03*
%TD*%
%TO.C,D136*%
X39575000Y-81075000D03*
X40425000Y-81075000D03*
X39575000Y-81925000D03*
X40425000Y-81925000D03*
%TD*%
%TO.C,D113*%
X30575000Y-78075000D03*
X31425000Y-78075000D03*
X30575000Y-78925000D03*
X31425000Y-78925000D03*
%TD*%
D10*
%TO.C,D128*%
X49425000Y-80425000D03*
X48575000Y-80425000D03*
X49425000Y-79575000D03*
X48575000Y-79575000D03*
%TD*%
D11*
%TO.C,D107*%
X39575000Y-78075000D03*
X40425000Y-78075000D03*
X39575000Y-78925000D03*
X40425000Y-78925000D03*
%TD*%
%TO.C,D76*%
X41075000Y-75075000D03*
X41925000Y-75075000D03*
X41075000Y-75925000D03*
X41925000Y-75925000D03*
%TD*%
D10*
%TO.C,D39*%
X46425000Y-71425000D03*
X45575000Y-71425000D03*
X46425000Y-70575000D03*
X45575000Y-70575000D03*
%TD*%
%TO.C,D119*%
X35925000Y-80425000D03*
X35075000Y-80425000D03*
X35925000Y-79575000D03*
X35075000Y-79575000D03*
%TD*%
D11*
%TO.C,D28*%
X32075000Y-69075000D03*
X32925000Y-69075000D03*
X32075000Y-69925000D03*
X32925000Y-69925000D03*
%TD*%
D10*
%TO.C,D85*%
X29925000Y-77425000D03*
X29075000Y-77425000D03*
X29925000Y-76575000D03*
X29075000Y-76575000D03*
%TD*%
D11*
%TO.C,D159*%
X42575000Y-84075000D03*
X43425000Y-84075000D03*
X42575000Y-84925000D03*
X43425000Y-84925000D03*
%TD*%
D31*
%TO.C,C6*%
X34100000Y-41370000D03*
X34100000Y-42330000D03*
%TD*%
D10*
%TO.C,D38*%
X44925000Y-71425000D03*
X44075000Y-71425000D03*
X44925000Y-70575000D03*
X44075000Y-70575000D03*
%TD*%
D11*
%TO.C,D79*%
X36575000Y-75075000D03*
X37425000Y-75075000D03*
X36575000Y-75925000D03*
X37425000Y-75925000D03*
%TD*%
D18*
%TO.C,C4*%
X47300000Y-33880000D03*
X47300000Y-32920000D03*
%TD*%
D10*
%TO.C,D34*%
X38925000Y-71425000D03*
X38075000Y-71425000D03*
X38925000Y-70575000D03*
X38075000Y-70575000D03*
%TD*%
%TO.C,D15*%
X43425000Y-68425000D03*
X42575000Y-68425000D03*
X43425000Y-67575000D03*
X42575000Y-67575000D03*
%TD*%
D11*
%TO.C,D53*%
X32075000Y-72075000D03*
X32925000Y-72075000D03*
X32075000Y-72925000D03*
X32925000Y-72925000D03*
%TD*%
D10*
%TO.C,D95*%
X44925000Y-77425000D03*
X44075000Y-77425000D03*
X44925000Y-76575000D03*
X44075000Y-76575000D03*
%TD*%
%TO.C,D152*%
X44925000Y-83425000D03*
X44075000Y-83425000D03*
X44925000Y-82575000D03*
X44075000Y-82575000D03*
%TD*%
%TO.C,D115*%
X29925000Y-80425000D03*
X29075000Y-80425000D03*
X29925000Y-79575000D03*
X29075000Y-79575000D03*
%TD*%
D11*
%TO.C,D176*%
X42575000Y-87075000D03*
X43425000Y-87075000D03*
X42575000Y-87925000D03*
X43425000Y-87925000D03*
%TD*%
D10*
%TO.C,D124*%
X43425000Y-80425000D03*
X42575000Y-80425000D03*
X43425000Y-79575000D03*
X42575000Y-79575000D03*
%TD*%
D35*
%TO.C,REF\u002A\u002A*%
X23000001Y-23000001D03*
%TD*%
%TO.C,REF\u002A\u002A*%
X23000001Y-93999999D03*
%TD*%
%TO.C,REF\u002A\u002A*%
X197000000Y-94000000D03*
%TD*%
%TO.C,REF\u002A\u002A*%
X196999999Y-23000001D03*
%TD*%
M02*
