%TF.GenerationSoftware,KiCad,Pcbnew,8.0.2-1*%
%TF.CreationDate,2025-04-11T08:43:50-07:00*%
%TF.ProjectId,Small_Pendant,536d616c-6c5f-4506-956e-64616e742e6b,rev?*%
%TF.SameCoordinates,Original*%
%TF.FileFunction,Paste,Bot*%
%TF.FilePolarity,Positive*%
%FSLAX46Y46*%
G04 Gerber Fmt 4.6, Leading zero omitted, Abs format (unit mm)*
G04 Created by KiCad (PCBNEW 8.0.2-1) date 2025-04-11 08:43:50*
%MOMM*%
%LPD*%
G01*
G04 APERTURE LIST*
G04 Aperture macros list*
%AMRoundRect*
0 Rectangle with rounded corners*
0 $1 Rounding radius*
0 $2 $3 $4 $5 $6 $7 $8 $9 X,Y pos of 4 corners*
0 Add a 4 corners polygon primitive as box body*
4,1,4,$2,$3,$4,$5,$6,$7,$8,$9,$2,$3,0*
0 Add four circle primitives for the rounded corners*
1,1,$1+$1,$2,$3*
1,1,$1+$1,$4,$5*
1,1,$1+$1,$6,$7*
1,1,$1+$1,$8,$9*
0 Add four rect primitives between the rounded corners*
20,1,$1+$1,$2,$3,$4,$5,0*
20,1,$1+$1,$4,$5,$6,$7,0*
20,1,$1+$1,$6,$7,$8,$9,0*
20,1,$1+$1,$8,$9,$2,$3,0*%
%AMFreePoly0*
4,1,14,0.765355,0.765355,0.780000,0.730000,0.780000,-0.720000,0.765355,-0.755355,0.730000,-0.770000,-0.120000,-0.770000,-0.155355,-0.755355,-0.755355,-0.155355,-0.770000,-0.120000,-0.770000,0.730000,-0.755355,0.765355,-0.720000,0.780000,0.730000,0.780000,0.765355,0.765355,0.765355,0.765355,$1*%
G04 Aperture macros list end*
%ADD10RoundRect,0.190000X0.190000X1.060000X-0.190000X1.060000X-0.190000X-1.060000X0.190000X-1.060000X0*%
%ADD11RoundRect,0.140000X0.140000X0.170000X-0.140000X0.170000X-0.140000X-0.170000X0.140000X-0.170000X0*%
%ADD12RoundRect,0.185000X-0.185000X0.915000X-0.185000X-0.915000X0.185000X-0.915000X0.185000X0.915000X0*%
%ADD13RoundRect,0.185000X-0.185000X1.115000X-0.185000X-1.115000X0.185000X-1.115000X0.185000X1.115000X0*%
%ADD14RoundRect,0.185000X0.185000X-0.915000X0.185000X0.915000X-0.185000X0.915000X-0.185000X-0.915000X0*%
%ADD15RoundRect,0.140000X-0.140000X-0.170000X0.140000X-0.170000X0.140000X0.170000X-0.140000X0.170000X0*%
%ADD16R,0.620000X1.100000*%
%ADD17R,0.800000X0.400000*%
%ADD18R,0.400000X0.800000*%
%ADD19R,1.450000X1.450000*%
%ADD20FreePoly0,180.000000*%
%ADD21R,0.700000X0.700000*%
%ADD22R,0.200000X0.350000*%
%ADD23RoundRect,0.135000X0.185000X-0.135000X0.185000X0.135000X-0.185000X0.135000X-0.185000X-0.135000X0*%
%ADD24RoundRect,0.135000X0.135000X0.185000X-0.135000X0.185000X-0.135000X-0.185000X0.135000X-0.185000X0*%
G04 APERTURE END LIST*
D10*
%TO.C,J35*%
X172000000Y-79250000D03*
X172000000Y-74750000D03*
X170730000Y-79250000D03*
X170730000Y-74750000D03*
X169460000Y-79250000D03*
X169460000Y-74750000D03*
X168190000Y-79250000D03*
X168190000Y-74750000D03*
%TD*%
D11*
%TO.C,C136*%
X177480000Y-87500000D03*
X176520000Y-87500000D03*
%TD*%
%TO.C,C121*%
X177780000Y-51900000D03*
X176820000Y-51900000D03*
%TD*%
D12*
%TO.C,J32*%
X188000000Y-38200000D03*
X188000000Y-41800000D03*
X189270000Y-38200000D03*
X189270000Y-41800000D03*
X190530000Y-38200000D03*
X190530000Y-41800000D03*
X191800000Y-38200000D03*
X191800000Y-41800000D03*
%TD*%
D11*
%TO.C,C131*%
X172980000Y-69500000D03*
X172020000Y-69500000D03*
%TD*%
D13*
%TO.C,J33*%
X188670000Y-70900000D03*
X188670000Y-74700000D03*
X189930000Y-70900000D03*
X189930000Y-74700000D03*
%TD*%
D11*
%TO.C,C137*%
X183480000Y-87500000D03*
X182520000Y-87500000D03*
%TD*%
%TO.C,C127*%
X177730000Y-46990000D03*
X176770000Y-46990000D03*
%TD*%
%TO.C,C134*%
X172980000Y-84500000D03*
X172020000Y-84500000D03*
%TD*%
D14*
%TO.C,J30*%
X171330000Y-34000000D03*
X171330000Y-37600000D03*
X170070000Y-34000000D03*
X170070000Y-37600000D03*
%TD*%
D15*
%TO.C,C139*%
X185520000Y-68000000D03*
X186480000Y-68000000D03*
%TD*%
%TO.C,C128*%
X182270000Y-46990000D03*
X183230000Y-46990000D03*
%TD*%
D16*
%TO.C,U18*%
X179050000Y-49200000D03*
X180000000Y-49200000D03*
X180950000Y-49200000D03*
X180950000Y-51800000D03*
X179050000Y-51800000D03*
%TD*%
D11*
%TO.C,C140*%
X181980000Y-66500000D03*
X181020000Y-66500000D03*
%TD*%
D15*
%TO.C,C133*%
X170520000Y-83000000D03*
X171480000Y-83000000D03*
%TD*%
D11*
%TO.C,C129*%
X177480000Y-66500000D03*
X176520000Y-66500000D03*
%TD*%
D17*
%TO.C,U17*%
X185900000Y-36000000D03*
X185900000Y-36800000D03*
X185900000Y-37600000D03*
X185900000Y-38400000D03*
X185900000Y-39200000D03*
X185900000Y-40000000D03*
X185900000Y-40800000D03*
X185900000Y-41600000D03*
X185900000Y-42400000D03*
X185900000Y-43200000D03*
X185900000Y-44000000D03*
D18*
X184800000Y-44900000D03*
X184000000Y-44900000D03*
X183200000Y-44900000D03*
X182400000Y-44900000D03*
X181600000Y-44900000D03*
X180800000Y-44900000D03*
X180000000Y-44900000D03*
X179200000Y-44900000D03*
X178400000Y-44900000D03*
X177600000Y-44900000D03*
X176800000Y-44900000D03*
X176000000Y-44900000D03*
X175200000Y-44900000D03*
D17*
X174100000Y-44000000D03*
X174100000Y-43200000D03*
X174100000Y-42400000D03*
X174100000Y-41600000D03*
X174100000Y-40800000D03*
X174100000Y-40000000D03*
X174100000Y-39200000D03*
X174100000Y-38400000D03*
X174100000Y-37600000D03*
X174100000Y-36800000D03*
X174100000Y-36000000D03*
D18*
X175200000Y-35100000D03*
X176000000Y-35100000D03*
X176800000Y-35100000D03*
X177600000Y-35100000D03*
X178400000Y-35100000D03*
X179200000Y-35100000D03*
X180000000Y-35100000D03*
X180800000Y-35100000D03*
X181600000Y-35100000D03*
X182400000Y-35100000D03*
X183200000Y-35100000D03*
X184000000Y-35100000D03*
X184800000Y-35100000D03*
D19*
X178030000Y-38030000D03*
X178030000Y-40000000D03*
X178030000Y-41980000D03*
X180000000Y-38030000D03*
X180000000Y-40000000D03*
X180000000Y-41980000D03*
D20*
X181980000Y-38020000D03*
D19*
X181980000Y-40000000D03*
X181980000Y-41980000D03*
D21*
X174050000Y-35050000D03*
X174050000Y-44950000D03*
X185950000Y-44950000D03*
X185950000Y-35050000D03*
%TD*%
D11*
%TO.C,C120*%
X177780000Y-49500000D03*
X176820000Y-49500000D03*
%TD*%
D13*
%TO.C,J34*%
X188670000Y-79300000D03*
X188670000Y-83100000D03*
X189930000Y-79300000D03*
X189930000Y-83100000D03*
%TD*%
D15*
%TO.C,C138*%
X185520000Y-86000000D03*
X186480000Y-86000000D03*
%TD*%
%TO.C,C135*%
X173520000Y-86000000D03*
X174480000Y-86000000D03*
%TD*%
D22*
%TO.C,D722*%
X181800000Y-48100000D03*
X181340000Y-48100000D03*
%TD*%
D15*
%TO.C,C130*%
X173520000Y-68000000D03*
X174480000Y-68000000D03*
%TD*%
D14*
%TO.C,J31*%
X171330000Y-46000000D03*
X171330000Y-42400000D03*
X170070000Y-46000000D03*
X170070000Y-42400000D03*
%TD*%
D23*
%TO.C,R55*%
X182300000Y-50410000D03*
X182300000Y-49390000D03*
%TD*%
D24*
%TO.C,R60*%
X186510000Y-69500000D03*
X185490000Y-69500000D03*
%TD*%
D15*
%TO.C,C132*%
X170520000Y-71000000D03*
X171480000Y-71000000D03*
%TD*%
D10*
%TO.C,J28*%
X137000000Y-79250000D03*
X137000000Y-74750000D03*
X135730000Y-79250000D03*
X135730000Y-74750000D03*
X134460000Y-79250000D03*
X134460000Y-74750000D03*
X133190000Y-79250000D03*
X133190000Y-74750000D03*
%TD*%
D11*
%TO.C,C108*%
X142480000Y-87500000D03*
X141520000Y-87500000D03*
%TD*%
%TO.C,C93*%
X142780000Y-51900000D03*
X141820000Y-51900000D03*
%TD*%
D12*
%TO.C,J25*%
X153000000Y-38200000D03*
X153000000Y-41800000D03*
X154270000Y-38200000D03*
X154270000Y-41800000D03*
X155530000Y-38200000D03*
X155530000Y-41800000D03*
X156800000Y-38200000D03*
X156800000Y-41800000D03*
%TD*%
D11*
%TO.C,C103*%
X137980000Y-69500000D03*
X137020000Y-69500000D03*
%TD*%
D13*
%TO.C,J26*%
X153670000Y-70900000D03*
X153670000Y-74700000D03*
X154930000Y-70900000D03*
X154930000Y-74700000D03*
%TD*%
D11*
%TO.C,C109*%
X148480000Y-87500000D03*
X147520000Y-87500000D03*
%TD*%
%TO.C,C99*%
X142730000Y-46990000D03*
X141770000Y-46990000D03*
%TD*%
%TO.C,C106*%
X137980000Y-84500000D03*
X137020000Y-84500000D03*
%TD*%
D14*
%TO.C,J23*%
X136330000Y-34000000D03*
X136330000Y-37600000D03*
X135070000Y-34000000D03*
X135070000Y-37600000D03*
%TD*%
D15*
%TO.C,C111*%
X150520000Y-68000000D03*
X151480000Y-68000000D03*
%TD*%
%TO.C,C100*%
X147270000Y-46990000D03*
X148230000Y-46990000D03*
%TD*%
D16*
%TO.C,U14*%
X144050000Y-49200000D03*
X145000000Y-49200000D03*
X145950000Y-49200000D03*
X145950000Y-51800000D03*
X144050000Y-51800000D03*
%TD*%
D11*
%TO.C,C112*%
X146980000Y-66500000D03*
X146020000Y-66500000D03*
%TD*%
D15*
%TO.C,C105*%
X135520000Y-83000000D03*
X136480000Y-83000000D03*
%TD*%
D11*
%TO.C,C101*%
X142480000Y-66500000D03*
X141520000Y-66500000D03*
%TD*%
D17*
%TO.C,U13*%
X150900000Y-36000000D03*
X150900000Y-36800000D03*
X150900000Y-37600000D03*
X150900000Y-38400000D03*
X150900000Y-39200000D03*
X150900000Y-40000000D03*
X150900000Y-40800000D03*
X150900000Y-41600000D03*
X150900000Y-42400000D03*
X150900000Y-43200000D03*
X150900000Y-44000000D03*
D18*
X149800000Y-44900000D03*
X149000000Y-44900000D03*
X148200000Y-44900000D03*
X147400000Y-44900000D03*
X146600000Y-44900000D03*
X145800000Y-44900000D03*
X145000000Y-44900000D03*
X144200000Y-44900000D03*
X143400000Y-44900000D03*
X142600000Y-44900000D03*
X141800000Y-44900000D03*
X141000000Y-44900000D03*
X140200000Y-44900000D03*
D17*
X139100000Y-44000000D03*
X139100000Y-43200000D03*
X139100000Y-42400000D03*
X139100000Y-41600000D03*
X139100000Y-40800000D03*
X139100000Y-40000000D03*
X139100000Y-39200000D03*
X139100000Y-38400000D03*
X139100000Y-37600000D03*
X139100000Y-36800000D03*
X139100000Y-36000000D03*
D18*
X140200000Y-35100000D03*
X141000000Y-35100000D03*
X141800000Y-35100000D03*
X142600000Y-35100000D03*
X143400000Y-35100000D03*
X144200000Y-35100000D03*
X145000000Y-35100000D03*
X145800000Y-35100000D03*
X146600000Y-35100000D03*
X147400000Y-35100000D03*
X148200000Y-35100000D03*
X149000000Y-35100000D03*
X149800000Y-35100000D03*
D19*
X143030000Y-38030000D03*
X143030000Y-40000000D03*
X143030000Y-41980000D03*
X145000000Y-38030000D03*
X145000000Y-40000000D03*
X145000000Y-41980000D03*
D20*
X146980000Y-38020000D03*
D19*
X146980000Y-40000000D03*
X146980000Y-41980000D03*
D21*
X139050000Y-35050000D03*
X139050000Y-44950000D03*
X150950000Y-44950000D03*
X150950000Y-35050000D03*
%TD*%
D11*
%TO.C,C92*%
X142780000Y-49500000D03*
X141820000Y-49500000D03*
%TD*%
D13*
%TO.C,J27*%
X153670000Y-79300000D03*
X153670000Y-83100000D03*
X154930000Y-79300000D03*
X154930000Y-83100000D03*
%TD*%
D15*
%TO.C,C110*%
X150520000Y-86000000D03*
X151480000Y-86000000D03*
%TD*%
%TO.C,C107*%
X138520000Y-86000000D03*
X139480000Y-86000000D03*
%TD*%
D22*
%TO.C,D542*%
X146800000Y-48100000D03*
X146340000Y-48100000D03*
%TD*%
D15*
%TO.C,C102*%
X138520000Y-68000000D03*
X139480000Y-68000000D03*
%TD*%
D14*
%TO.C,J24*%
X136330000Y-46000000D03*
X136330000Y-42400000D03*
X135070000Y-46000000D03*
X135070000Y-42400000D03*
%TD*%
D23*
%TO.C,R43*%
X147300000Y-50410000D03*
X147300000Y-49390000D03*
%TD*%
D24*
%TO.C,R48*%
X151510000Y-69500000D03*
X150490000Y-69500000D03*
%TD*%
D15*
%TO.C,C104*%
X135520000Y-71000000D03*
X136480000Y-71000000D03*
%TD*%
D10*
%TO.C,J21*%
X102000000Y-79250000D03*
X102000000Y-74750000D03*
X100730000Y-79250000D03*
X100730000Y-74750000D03*
X99460000Y-79250000D03*
X99460000Y-74750000D03*
X98190000Y-79250000D03*
X98190000Y-74750000D03*
%TD*%
D11*
%TO.C,C80*%
X107480000Y-87500000D03*
X106520000Y-87500000D03*
%TD*%
%TO.C,C65*%
X107780000Y-51900000D03*
X106820000Y-51900000D03*
%TD*%
D12*
%TO.C,J18*%
X118000000Y-38200000D03*
X118000000Y-41800000D03*
X119270000Y-38200000D03*
X119270000Y-41800000D03*
X120530000Y-38200000D03*
X120530000Y-41800000D03*
X121800000Y-38200000D03*
X121800000Y-41800000D03*
%TD*%
D11*
%TO.C,C75*%
X102980000Y-69500000D03*
X102020000Y-69500000D03*
%TD*%
D13*
%TO.C,J19*%
X118670000Y-70900000D03*
X118670000Y-74700000D03*
X119930000Y-70900000D03*
X119930000Y-74700000D03*
%TD*%
D11*
%TO.C,C81*%
X113480000Y-87500000D03*
X112520000Y-87500000D03*
%TD*%
%TO.C,C71*%
X107730000Y-46990000D03*
X106770000Y-46990000D03*
%TD*%
%TO.C,C78*%
X102980000Y-84500000D03*
X102020000Y-84500000D03*
%TD*%
D14*
%TO.C,J16*%
X101330000Y-34000000D03*
X101330000Y-37600000D03*
X100070000Y-34000000D03*
X100070000Y-37600000D03*
%TD*%
D15*
%TO.C,C83*%
X115520000Y-68000000D03*
X116480000Y-68000000D03*
%TD*%
%TO.C,C72*%
X112270000Y-46990000D03*
X113230000Y-46990000D03*
%TD*%
D16*
%TO.C,U10*%
X109050000Y-49200000D03*
X110000000Y-49200000D03*
X110950000Y-49200000D03*
X110950000Y-51800000D03*
X109050000Y-51800000D03*
%TD*%
D11*
%TO.C,C84*%
X111980000Y-66500000D03*
X111020000Y-66500000D03*
%TD*%
D15*
%TO.C,C77*%
X100520000Y-83000000D03*
X101480000Y-83000000D03*
%TD*%
D11*
%TO.C,C73*%
X107480000Y-66500000D03*
X106520000Y-66500000D03*
%TD*%
D17*
%TO.C,U9*%
X115900000Y-36000000D03*
X115900000Y-36800000D03*
X115900000Y-37600000D03*
X115900000Y-38400000D03*
X115900000Y-39200000D03*
X115900000Y-40000000D03*
X115900000Y-40800000D03*
X115900000Y-41600000D03*
X115900000Y-42400000D03*
X115900000Y-43200000D03*
X115900000Y-44000000D03*
D18*
X114800000Y-44900000D03*
X114000000Y-44900000D03*
X113200000Y-44900000D03*
X112400000Y-44900000D03*
X111600000Y-44900000D03*
X110800000Y-44900000D03*
X110000000Y-44900000D03*
X109200000Y-44900000D03*
X108400000Y-44900000D03*
X107600000Y-44900000D03*
X106800000Y-44900000D03*
X106000000Y-44900000D03*
X105200000Y-44900000D03*
D17*
X104100000Y-44000000D03*
X104100000Y-43200000D03*
X104100000Y-42400000D03*
X104100000Y-41600000D03*
X104100000Y-40800000D03*
X104100000Y-40000000D03*
X104100000Y-39200000D03*
X104100000Y-38400000D03*
X104100000Y-37600000D03*
X104100000Y-36800000D03*
X104100000Y-36000000D03*
D18*
X105200000Y-35100000D03*
X106000000Y-35100000D03*
X106800000Y-35100000D03*
X107600000Y-35100000D03*
X108400000Y-35100000D03*
X109200000Y-35100000D03*
X110000000Y-35100000D03*
X110800000Y-35100000D03*
X111600000Y-35100000D03*
X112400000Y-35100000D03*
X113200000Y-35100000D03*
X114000000Y-35100000D03*
X114800000Y-35100000D03*
D19*
X108030000Y-38030000D03*
X108030000Y-40000000D03*
X108030000Y-41980000D03*
X110000000Y-38030000D03*
X110000000Y-40000000D03*
X110000000Y-41980000D03*
D20*
X111980000Y-38020000D03*
D19*
X111980000Y-40000000D03*
X111980000Y-41980000D03*
D21*
X104050000Y-35050000D03*
X104050000Y-44950000D03*
X115950000Y-44950000D03*
X115950000Y-35050000D03*
%TD*%
D11*
%TO.C,C64*%
X107780000Y-49500000D03*
X106820000Y-49500000D03*
%TD*%
D13*
%TO.C,J20*%
X118670000Y-79300000D03*
X118670000Y-83100000D03*
X119930000Y-79300000D03*
X119930000Y-83100000D03*
%TD*%
D15*
%TO.C,C82*%
X115520000Y-86000000D03*
X116480000Y-86000000D03*
%TD*%
%TO.C,C79*%
X103520000Y-86000000D03*
X104480000Y-86000000D03*
%TD*%
D22*
%TO.C,D362*%
X111800000Y-48100000D03*
X111340000Y-48100000D03*
%TD*%
D15*
%TO.C,C74*%
X103520000Y-68000000D03*
X104480000Y-68000000D03*
%TD*%
D14*
%TO.C,J17*%
X101330000Y-46000000D03*
X101330000Y-42400000D03*
X100070000Y-46000000D03*
X100070000Y-42400000D03*
%TD*%
D23*
%TO.C,R31*%
X112300000Y-50410000D03*
X112300000Y-49390000D03*
%TD*%
D24*
%TO.C,R36*%
X116510000Y-69500000D03*
X115490000Y-69500000D03*
%TD*%
D15*
%TO.C,C76*%
X100520000Y-71000000D03*
X101480000Y-71000000D03*
%TD*%
D10*
%TO.C,J14*%
X67000000Y-79250000D03*
X67000000Y-74750000D03*
X65730000Y-79250000D03*
X65730000Y-74750000D03*
X64460000Y-79250000D03*
X64460000Y-74750000D03*
X63190000Y-79250000D03*
X63190000Y-74750000D03*
%TD*%
D11*
%TO.C,C52*%
X72480000Y-87500000D03*
X71520000Y-87500000D03*
%TD*%
%TO.C,C37*%
X72780000Y-51900000D03*
X71820000Y-51900000D03*
%TD*%
D12*
%TO.C,J11*%
X83000000Y-38200000D03*
X83000000Y-41800000D03*
X84270000Y-38200000D03*
X84270000Y-41800000D03*
X85530000Y-38200000D03*
X85530000Y-41800000D03*
X86800000Y-38200000D03*
X86800000Y-41800000D03*
%TD*%
D11*
%TO.C,C47*%
X67980000Y-69500000D03*
X67020000Y-69500000D03*
%TD*%
D13*
%TO.C,J12*%
X83670000Y-70900000D03*
X83670000Y-74700000D03*
X84930000Y-70900000D03*
X84930000Y-74700000D03*
%TD*%
D11*
%TO.C,C53*%
X78480000Y-87500000D03*
X77520000Y-87500000D03*
%TD*%
%TO.C,C43*%
X72730000Y-46990000D03*
X71770000Y-46990000D03*
%TD*%
%TO.C,C50*%
X67980000Y-84500000D03*
X67020000Y-84500000D03*
%TD*%
D14*
%TO.C,J9*%
X66330000Y-34000000D03*
X66330000Y-37600000D03*
X65070000Y-34000000D03*
X65070000Y-37600000D03*
%TD*%
D15*
%TO.C,C55*%
X80520000Y-68000000D03*
X81480000Y-68000000D03*
%TD*%
%TO.C,C44*%
X77270000Y-46990000D03*
X78230000Y-46990000D03*
%TD*%
D16*
%TO.C,U6*%
X74050000Y-49200000D03*
X75000000Y-49200000D03*
X75950000Y-49200000D03*
X75950000Y-51800000D03*
X74050000Y-51800000D03*
%TD*%
D11*
%TO.C,C56*%
X76980000Y-66500000D03*
X76020000Y-66500000D03*
%TD*%
D15*
%TO.C,C49*%
X65520000Y-83000000D03*
X66480000Y-83000000D03*
%TD*%
D11*
%TO.C,C45*%
X72480000Y-66500000D03*
X71520000Y-66500000D03*
%TD*%
D17*
%TO.C,U5*%
X80900000Y-36000000D03*
X80900000Y-36800000D03*
X80900000Y-37600000D03*
X80900000Y-38400000D03*
X80900000Y-39200000D03*
X80900000Y-40000000D03*
X80900000Y-40800000D03*
X80900000Y-41600000D03*
X80900000Y-42400000D03*
X80900000Y-43200000D03*
X80900000Y-44000000D03*
D18*
X79800000Y-44900000D03*
X79000000Y-44900000D03*
X78200000Y-44900000D03*
X77400000Y-44900000D03*
X76600000Y-44900000D03*
X75800000Y-44900000D03*
X75000000Y-44900000D03*
X74200000Y-44900000D03*
X73400000Y-44900000D03*
X72600000Y-44900000D03*
X71800000Y-44900000D03*
X71000000Y-44900000D03*
X70200000Y-44900000D03*
D17*
X69100000Y-44000000D03*
X69100000Y-43200000D03*
X69100000Y-42400000D03*
X69100000Y-41600000D03*
X69100000Y-40800000D03*
X69100000Y-40000000D03*
X69100000Y-39200000D03*
X69100000Y-38400000D03*
X69100000Y-37600000D03*
X69100000Y-36800000D03*
X69100000Y-36000000D03*
D18*
X70200000Y-35100000D03*
X71000000Y-35100000D03*
X71800000Y-35100000D03*
X72600000Y-35100000D03*
X73400000Y-35100000D03*
X74200000Y-35100000D03*
X75000000Y-35100000D03*
X75800000Y-35100000D03*
X76600000Y-35100000D03*
X77400000Y-35100000D03*
X78200000Y-35100000D03*
X79000000Y-35100000D03*
X79800000Y-35100000D03*
D19*
X73030000Y-38030000D03*
X73030000Y-40000000D03*
X73030000Y-41980000D03*
X75000000Y-38030000D03*
X75000000Y-40000000D03*
X75000000Y-41980000D03*
D20*
X76980000Y-38020000D03*
D19*
X76980000Y-40000000D03*
X76980000Y-41980000D03*
D21*
X69050000Y-35050000D03*
X69050000Y-44950000D03*
X80950000Y-44950000D03*
X80950000Y-35050000D03*
%TD*%
D11*
%TO.C,C36*%
X72780000Y-49500000D03*
X71820000Y-49500000D03*
%TD*%
D13*
%TO.C,J13*%
X83670000Y-79300000D03*
X83670000Y-83100000D03*
X84930000Y-79300000D03*
X84930000Y-83100000D03*
%TD*%
D15*
%TO.C,C54*%
X80520000Y-86000000D03*
X81480000Y-86000000D03*
%TD*%
%TO.C,C51*%
X68520000Y-86000000D03*
X69480000Y-86000000D03*
%TD*%
D22*
%TO.C,D182*%
X76800000Y-48100000D03*
X76340000Y-48100000D03*
%TD*%
D15*
%TO.C,C46*%
X68520000Y-68000000D03*
X69480000Y-68000000D03*
%TD*%
D14*
%TO.C,J10*%
X66330000Y-46000000D03*
X66330000Y-42400000D03*
X65070000Y-46000000D03*
X65070000Y-42400000D03*
%TD*%
D23*
%TO.C,R19*%
X77300000Y-50410000D03*
X77300000Y-49390000D03*
%TD*%
D24*
%TO.C,R24*%
X81510000Y-69500000D03*
X80490000Y-69500000D03*
%TD*%
D15*
%TO.C,C48*%
X65520000Y-71000000D03*
X66480000Y-71000000D03*
%TD*%
D10*
%TO.C,J7*%
X32000000Y-79250000D03*
X32000000Y-74750000D03*
X30730000Y-79250000D03*
X30730000Y-74750000D03*
X29460000Y-79250000D03*
X29460000Y-74750000D03*
X28190000Y-79250000D03*
X28190000Y-74750000D03*
%TD*%
D11*
%TO.C,C8*%
X37780000Y-49500000D03*
X36820000Y-49500000D03*
%TD*%
D13*
%TO.C,J6*%
X48670000Y-79300000D03*
X48670000Y-83100000D03*
X49930000Y-79300000D03*
X49930000Y-83100000D03*
%TD*%
D15*
%TO.C,C26*%
X45520000Y-86000000D03*
X46480000Y-86000000D03*
%TD*%
%TO.C,C23*%
X33520000Y-86000000D03*
X34480000Y-86000000D03*
%TD*%
D22*
%TO.C,D2*%
X41800000Y-48100000D03*
X41340000Y-48100000D03*
%TD*%
D15*
%TO.C,C18*%
X33520000Y-68000000D03*
X34480000Y-68000000D03*
%TD*%
D14*
%TO.C,J3*%
X31330000Y-46000000D03*
X31330000Y-42400000D03*
X30070000Y-46000000D03*
X30070000Y-42400000D03*
%TD*%
D23*
%TO.C,R7*%
X42300000Y-50410000D03*
X42300000Y-49390000D03*
%TD*%
D11*
%TO.C,C24*%
X37480000Y-87500000D03*
X36520000Y-87500000D03*
%TD*%
%TO.C,C9*%
X37780000Y-51900000D03*
X36820000Y-51900000D03*
%TD*%
D12*
%TO.C,J4*%
X48000000Y-38200000D03*
X48000000Y-41800000D03*
X49270000Y-38200000D03*
X49270000Y-41800000D03*
X50530000Y-38200000D03*
X50530000Y-41800000D03*
X51800000Y-38200000D03*
X51800000Y-41800000D03*
%TD*%
D11*
%TO.C,C19*%
X32980000Y-69500000D03*
X32020000Y-69500000D03*
%TD*%
D13*
%TO.C,J5*%
X48670000Y-70900000D03*
X48670000Y-74700000D03*
X49930000Y-70900000D03*
X49930000Y-74700000D03*
%TD*%
D11*
%TO.C,C25*%
X43480000Y-87500000D03*
X42520000Y-87500000D03*
%TD*%
%TO.C,C15*%
X37730000Y-46990000D03*
X36770000Y-46990000D03*
%TD*%
%TO.C,C22*%
X32980000Y-84500000D03*
X32020000Y-84500000D03*
%TD*%
D14*
%TO.C,J2*%
X31330000Y-34000000D03*
X31330000Y-37600000D03*
X30070000Y-34000000D03*
X30070000Y-37600000D03*
%TD*%
D15*
%TO.C,C27*%
X45520000Y-68000000D03*
X46480000Y-68000000D03*
%TD*%
%TO.C,C16*%
X42270000Y-46990000D03*
X43230000Y-46990000D03*
%TD*%
D16*
%TO.C,U2*%
X39050000Y-49200000D03*
X40000000Y-49200000D03*
X40950000Y-49200000D03*
X40950000Y-51800000D03*
X39050000Y-51800000D03*
%TD*%
D11*
%TO.C,C28*%
X41980000Y-66500000D03*
X41020000Y-66500000D03*
%TD*%
D15*
%TO.C,C21*%
X30520000Y-83000000D03*
X31480000Y-83000000D03*
%TD*%
D11*
%TO.C,C17*%
X37480000Y-66500000D03*
X36520000Y-66500000D03*
%TD*%
D17*
%TO.C,U1*%
X45900000Y-36000000D03*
X45900000Y-36800000D03*
X45900000Y-37600000D03*
X45900000Y-38400000D03*
X45900000Y-39200000D03*
X45900000Y-40000000D03*
X45900000Y-40800000D03*
X45900000Y-41600000D03*
X45900000Y-42400000D03*
X45900000Y-43200000D03*
X45900000Y-44000000D03*
D18*
X44800000Y-44900000D03*
X44000000Y-44900000D03*
X43200000Y-44900000D03*
X42400000Y-44900000D03*
X41600000Y-44900000D03*
X40800000Y-44900000D03*
X40000000Y-44900000D03*
X39200000Y-44900000D03*
X38400000Y-44900000D03*
X37600000Y-44900000D03*
X36800000Y-44900000D03*
X36000000Y-44900000D03*
X35200000Y-44900000D03*
D17*
X34100000Y-44000000D03*
X34100000Y-43200000D03*
X34100000Y-42400000D03*
X34100000Y-41600000D03*
X34100000Y-40800000D03*
X34100000Y-40000000D03*
X34100000Y-39200000D03*
X34100000Y-38400000D03*
X34100000Y-37600000D03*
X34100000Y-36800000D03*
X34100000Y-36000000D03*
D18*
X35200000Y-35100000D03*
X36000000Y-35100000D03*
X36800000Y-35100000D03*
X37600000Y-35100000D03*
X38400000Y-35100000D03*
X39200000Y-35100000D03*
X40000000Y-35100000D03*
X40800000Y-35100000D03*
X41600000Y-35100000D03*
X42400000Y-35100000D03*
X43200000Y-35100000D03*
X44000000Y-35100000D03*
X44800000Y-35100000D03*
D19*
X38030000Y-38030000D03*
X38030000Y-40000000D03*
X38030000Y-41980000D03*
X40000000Y-38030000D03*
X40000000Y-40000000D03*
X40000000Y-41980000D03*
D20*
X41980000Y-38020000D03*
D19*
X41980000Y-40000000D03*
X41980000Y-41980000D03*
D21*
X34050000Y-35050000D03*
X34050000Y-44950000D03*
X45950000Y-44950000D03*
X45950000Y-35050000D03*
%TD*%
D24*
%TO.C,R12*%
X46510000Y-69500000D03*
X45490000Y-69500000D03*
%TD*%
D15*
%TO.C,C20*%
X30520000Y-71000000D03*
X31480000Y-71000000D03*
%TD*%
M02*
