M48
; DRILL file {KiCad 8.0.2-1} date 2025-04-11T08:57:15-0700
; FORMAT={-:-/ absolute / metric / decimal}
; #@! TF.CreationDate,2025-04-11T08:57:15-07:00
; #@! TF.GenerationSoftware,Kicad,Pcbnew,8.0.2-1
; #@! TF.FileFunction,Plated,1,4,PTH
FMAT,2
METRIC
; #@! TA.AperFunction,Plated,PTH,ViaDrill
T1C0.300
; #@! TA.AperFunction,Plated,PTH,ComponentDrill
T2C0.600
%
G90
G05
T1
X28.82Y-43.1
X29.075Y-75.925
X29.075Y-78.925
X29.85Y-33.8
X30.575Y-71.425
X30.575Y-72.925
X30.575Y-74.425
X30.575Y-80.425
X30.575Y-81.925
X30.575Y-83.425
X31.335Y-37.6
X31.335Y-46.0
X31.35Y-35.85
X31.425Y-70.575
X31.425Y-82.575
X31.55Y-33.8
X32.075Y-69.925
X32.075Y-77.425
X32.075Y-84.925
X32.925Y-84.075
X33.575Y-68.425
X33.575Y-86.425
X33.8Y-47.2
X34.05Y-35.05
X34.05Y-44.95
X34.1Y-42.4
X34.1Y-43.2
X34.425Y-67.575
X34.425Y-85.575
X35.6Y-40.0
X36.5Y-37.8
X36.5Y-38.98
X36.575Y-66.925
X36.575Y-87.925
X36.8Y-46.99
X36.82Y-49.5
X36.82Y-51.9
X37.425Y-66.075
X37.425Y-87.075
X37.6Y-46.99
X37.7Y-41.0
X39.0Y-40.0
X39.05Y-51.637
X40.0Y-39.2
X40.0Y-40.8
X40.0Y-49.062
X40.68Y-42.7
X41.0Y-40.0
X41.075Y-66.925
X41.825Y-66.075
X41.975Y-40.0
X42.4Y-46.99
X42.5Y-43.7
X42.575Y-87.925
X43.2Y-44.9
X43.2Y-46.99
X43.325Y-66.925
X43.425Y-87.075
X43.5Y-38.09
X43.5Y-39.11
X43.8Y-44.1
X44.0Y-36.2
X44.0Y-43.318
X44.19Y-37.46
X44.5Y-39.11
X45.575Y-68.425
X45.575Y-86.425
X45.9Y-37.6
X45.95Y-35.05
X46.2Y-46.3
X46.425Y-67.575
X46.425Y-70.575
X46.425Y-85.575
X47.0Y-42.1
X47.075Y-74.425
X47.075Y-81.925
X47.3Y-32.92
X47.3Y-33.88
X47.925Y-69.075
X48.575Y-71.425
X48.575Y-72.925
X48.575Y-75.925
X48.575Y-77.425
X48.575Y-80.425
X48.575Y-83.425
X49.3Y-39.9
X49.55Y-44.5
X50.075Y-78.925
X50.335Y-38.2
X50.335Y-41.8
X63.82Y-43.1
X64.075Y-75.925
X64.075Y-78.925
X64.85Y-33.8
X65.575Y-71.425
X65.575Y-72.925
X65.575Y-74.425
X65.575Y-80.425
X65.575Y-81.925
X65.575Y-83.425
X66.335Y-37.6
X66.335Y-46.0
X66.35Y-35.85
X66.425Y-70.575
X66.425Y-82.575
X66.55Y-33.8
X67.075Y-69.925
X67.075Y-77.425
X67.075Y-84.925
X67.925Y-84.075
X68.575Y-68.425
X68.575Y-86.425
X68.8Y-47.2
X69.05Y-35.05
X69.05Y-44.95
X69.1Y-42.4
X69.1Y-43.2
X69.425Y-67.575
X69.425Y-85.575
X70.6Y-40.0
X71.5Y-37.8
X71.5Y-38.98
X71.575Y-66.925
X71.575Y-87.925
X71.8Y-46.99
X71.82Y-49.5
X71.82Y-51.9
X72.425Y-66.075
X72.425Y-87.075
X72.6Y-46.99
X72.7Y-41.0
X74.0Y-40.0
X74.05Y-51.637
X75.0Y-39.2
X75.0Y-40.8
X75.0Y-49.062
X75.68Y-42.7
X76.0Y-40.0
X76.075Y-66.925
X76.825Y-66.075
X76.975Y-40.0
X77.4Y-46.99
X77.5Y-43.7
X77.575Y-87.925
X78.2Y-44.9
X78.2Y-46.99
X78.325Y-66.925
X78.425Y-87.075
X78.5Y-38.09
X78.5Y-39.11
X78.8Y-44.1
X79.0Y-36.2
X79.0Y-43.318
X79.19Y-37.46
X79.5Y-39.11
X80.575Y-68.425
X80.575Y-86.425
X80.9Y-37.6
X80.95Y-35.05
X81.2Y-46.3
X81.425Y-67.575
X81.425Y-70.575
X81.425Y-85.575
X82.0Y-42.1
X82.075Y-74.425
X82.075Y-81.925
X82.3Y-32.92
X82.3Y-33.88
X82.925Y-69.075
X83.575Y-71.425
X83.575Y-72.925
X83.575Y-75.925
X83.575Y-77.425
X83.575Y-80.425
X83.575Y-83.425
X84.3Y-39.9
X84.55Y-44.5
X85.075Y-78.925
X85.335Y-38.2
X85.335Y-41.8
X98.82Y-43.1
X99.075Y-75.925
X99.075Y-78.925
X99.85Y-33.8
X100.575Y-71.425
X100.575Y-72.925
X100.575Y-74.425
X100.575Y-80.425
X100.575Y-81.925
X100.575Y-83.425
X101.335Y-37.6
X101.335Y-46.0
X101.35Y-35.85
X101.425Y-70.575
X101.425Y-82.575
X101.55Y-33.8
X102.075Y-69.925
X102.075Y-77.425
X102.075Y-84.925
X102.925Y-84.075
X103.575Y-68.425
X103.575Y-86.425
X103.8Y-47.2
X104.05Y-35.05
X104.05Y-44.95
X104.1Y-42.4
X104.1Y-43.2
X104.425Y-67.575
X104.425Y-85.575
X105.6Y-40.0
X106.5Y-37.8
X106.5Y-38.98
X106.575Y-66.925
X106.575Y-87.925
X106.8Y-46.99
X106.82Y-49.5
X106.82Y-51.9
X107.425Y-66.075
X107.425Y-87.075
X107.6Y-46.99
X107.7Y-41.0
X109.0Y-40.0
X109.05Y-51.637
X110.0Y-39.2
X110.0Y-40.8
X110.0Y-49.062
X110.68Y-42.7
X111.0Y-40.0
X111.075Y-66.925
X111.825Y-66.075
X111.975Y-40.0
X112.4Y-46.99
X112.5Y-43.7
X112.575Y-87.925
X113.2Y-44.9
X113.2Y-46.99
X113.325Y-66.925
X113.425Y-87.075
X113.5Y-38.09
X113.5Y-39.11
X113.8Y-44.1
X114.0Y-36.2
X114.0Y-43.318
X114.19Y-37.46
X114.5Y-39.11
X115.575Y-68.425
X115.575Y-86.425
X115.9Y-37.6
X115.95Y-35.05
X116.2Y-46.3
X116.425Y-67.575
X116.425Y-70.575
X116.425Y-85.575
X117.0Y-42.1
X117.075Y-74.425
X117.075Y-81.925
X117.3Y-32.92
X117.3Y-33.88
X117.925Y-69.075
X118.575Y-71.425
X118.575Y-72.925
X118.575Y-75.925
X118.575Y-77.425
X118.575Y-80.425
X118.575Y-83.425
X119.3Y-39.9
X119.55Y-44.5
X120.075Y-78.925
X120.335Y-38.2
X120.335Y-41.8
X133.82Y-43.1
X134.075Y-75.925
X134.075Y-78.925
X134.85Y-33.8
X135.575Y-71.425
X135.575Y-72.925
X135.575Y-74.425
X135.575Y-80.425
X135.575Y-81.925
X135.575Y-83.425
X136.335Y-37.6
X136.335Y-46.0
X136.35Y-35.85
X136.425Y-70.575
X136.425Y-82.575
X136.55Y-33.8
X137.075Y-69.925
X137.075Y-77.425
X137.075Y-84.925
X137.925Y-84.075
X138.575Y-68.425
X138.575Y-86.425
X138.8Y-47.2
X139.05Y-35.05
X139.05Y-44.95
X139.1Y-42.4
X139.1Y-43.2
X139.425Y-67.575
X139.425Y-85.575
X140.6Y-40.0
X141.5Y-37.8
X141.5Y-38.98
X141.575Y-66.925
X141.575Y-87.925
X141.8Y-46.99
X141.82Y-49.5
X141.82Y-51.9
X142.425Y-66.075
X142.425Y-87.075
X142.6Y-46.99
X142.7Y-41.0
X144.0Y-40.0
X144.05Y-51.637
X145.0Y-39.2
X145.0Y-40.8
X145.0Y-49.062
X145.68Y-42.7
X146.0Y-40.0
X146.075Y-66.925
X146.825Y-66.075
X146.975Y-40.0
X147.4Y-46.99
X147.5Y-43.7
X147.575Y-87.925
X148.2Y-44.9
X148.2Y-46.99
X148.325Y-66.925
X148.425Y-87.075
X148.5Y-38.09
X148.5Y-39.11
X148.8Y-44.1
X149.0Y-36.2
X149.0Y-43.318
X149.19Y-37.46
X149.5Y-39.11
X150.575Y-68.425
X150.575Y-86.425
X150.9Y-37.6
X150.95Y-35.05
X151.2Y-46.3
X151.425Y-67.575
X151.425Y-70.575
X151.425Y-85.575
X152.0Y-42.1
X152.075Y-74.425
X152.075Y-81.925
X152.3Y-32.92
X152.3Y-33.88
X152.925Y-69.075
X153.575Y-71.425
X153.575Y-72.925
X153.575Y-75.925
X153.575Y-77.425
X153.575Y-80.425
X153.575Y-83.425
X154.3Y-39.9
X154.55Y-44.5
X155.075Y-78.925
X155.335Y-38.2
X155.335Y-41.8
X168.82Y-43.1
X169.075Y-75.925
X169.075Y-78.925
X169.85Y-33.8
X170.575Y-71.425
X170.575Y-72.925
X170.575Y-74.425
X170.575Y-80.425
X170.575Y-81.925
X170.575Y-83.425
X171.335Y-37.6
X171.335Y-46.0
X171.35Y-35.85
X171.425Y-70.575
X171.425Y-82.575
X171.55Y-33.8
X172.075Y-69.925
X172.075Y-77.425
X172.075Y-84.925
X172.925Y-84.075
X173.575Y-68.425
X173.575Y-86.425
X173.8Y-47.2
X174.05Y-35.05
X174.05Y-44.95
X174.1Y-42.4
X174.1Y-43.2
X174.425Y-67.575
X174.425Y-85.575
X175.6Y-40.0
X176.5Y-37.8
X176.5Y-38.98
X176.575Y-66.925
X176.575Y-87.925
X176.8Y-46.99
X176.82Y-49.5
X176.82Y-51.9
X177.425Y-66.075
X177.425Y-87.075
X177.6Y-46.99
X177.7Y-41.0
X179.0Y-40.0
X179.05Y-51.637
X180.0Y-39.2
X180.0Y-40.8
X180.0Y-49.062
X180.68Y-42.7
X181.0Y-40.0
X181.075Y-66.925
X181.825Y-66.075
X181.975Y-40.0
X182.4Y-46.99
X182.5Y-43.7
X182.575Y-87.925
X183.2Y-44.9
X183.2Y-46.99
X183.325Y-66.925
X183.425Y-87.075
X183.5Y-38.09
X183.5Y-39.11
X183.8Y-44.1
X184.0Y-36.2
X184.0Y-43.318
X184.19Y-37.46
X184.5Y-39.11
X185.575Y-68.425
X185.575Y-86.425
X185.9Y-37.6
X185.95Y-35.05
X186.2Y-46.3
X186.425Y-67.575
X186.425Y-70.575
X186.425Y-85.575
X187.0Y-42.1
X187.075Y-74.425
X187.075Y-81.925
X187.3Y-32.92
X187.3Y-33.88
X187.925Y-69.075
X188.575Y-71.425
X188.575Y-72.925
X188.575Y-75.925
X188.575Y-77.425
X188.575Y-80.425
X188.575Y-83.425
X189.3Y-39.9
X189.55Y-44.5
X190.075Y-78.925
X190.335Y-38.2
X190.335Y-41.8
T2
G00X35.68Y-47.04
M15
G01X35.68Y-48.14
M16
G05
G00X35.68Y-51.47
M15
G01X35.68Y-52.07
M16
G05
G00X44.32Y-47.04
M15
G01X44.32Y-48.14
M16
G05
G00X44.32Y-51.47
M15
G01X44.32Y-52.07
M16
G05
G00X70.68Y-47.04
M15
G01X70.68Y-48.14
M16
G05
G00X70.68Y-51.47
M15
G01X70.68Y-52.07
M16
G05
G00X79.32Y-47.04
M15
G01X79.32Y-48.14
M16
G05
G00X79.32Y-51.47
M15
G01X79.32Y-52.07
M16
G05
G00X105.68Y-47.04
M15
G01X105.68Y-48.14
M16
G05
G00X105.68Y-51.47
M15
G01X105.68Y-52.07
M16
G05
G00X114.32Y-47.04
M15
G01X114.32Y-48.14
M16
G05
G00X114.32Y-51.47
M15
G01X114.32Y-52.07
M16
G05
G00X140.68Y-47.04
M15
G01X140.68Y-48.14
M16
G05
G00X140.68Y-51.47
M15
G01X140.68Y-52.07
M16
G05
G00X149.32Y-47.04
M15
G01X149.32Y-48.14
M16
G05
G00X149.32Y-51.47
M15
G01X149.32Y-52.07
M16
G05
G00X175.68Y-47.04
M15
G01X175.68Y-48.14
M16
G05
G00X175.68Y-51.47
M15
G01X175.68Y-52.07
M16
G05
G00X184.32Y-47.04
M15
G01X184.32Y-48.14
M16
G05
G00X184.32Y-51.47
M15
G01X184.32Y-52.07
M16
G05
M30
