%TF.GenerationSoftware,KiCad,Pcbnew,8.0.2-1*%
%TF.CreationDate,2025-04-11T08:57:21-07:00*%
%TF.ProjectId,Small_Pendant,536d616c-6c5f-4506-956e-64616e742e6b,rev?*%
%TF.SameCoordinates,Original*%
%TF.FileFunction,Soldermask,Bot*%
%TF.FilePolarity,Negative*%
%FSLAX46Y46*%
G04 Gerber Fmt 4.6, Leading zero omitted, Abs format (unit mm)*
G04 Created by KiCad (PCBNEW 8.0.2-1) date 2025-04-11 08:57:21*
%MOMM*%
%LPD*%
G01*
G04 APERTURE LIST*
G04 Aperture macros list*
%AMRoundRect*
0 Rectangle with rounded corners*
0 $1 Rounding radius*
0 $2 $3 $4 $5 $6 $7 $8 $9 X,Y pos of 4 corners*
0 Add a 4 corners polygon primitive as box body*
4,1,4,$2,$3,$4,$5,$6,$7,$8,$9,$2,$3,0*
0 Add four circle primitives for the rounded corners*
1,1,$1+$1,$2,$3*
1,1,$1+$1,$4,$5*
1,1,$1+$1,$6,$7*
1,1,$1+$1,$8,$9*
0 Add four rect primitives between the rounded corners*
20,1,$1+$1,$2,$3,$4,$5,0*
20,1,$1+$1,$4,$5,$6,$7,0*
20,1,$1+$1,$6,$7,$8,$9,0*
20,1,$1+$1,$8,$9,$2,$3,0*%
%AMFreePoly0*
4,1,14,0.765355,0.765355,0.780000,0.730000,0.780000,-0.720000,0.765355,-0.755355,0.730000,-0.770000,-0.120000,-0.770000,-0.155355,-0.755355,-0.755355,-0.155355,-0.770000,-0.120000,-0.770000,0.730000,-0.755355,0.765355,-0.720000,0.780000,0.730000,0.780000,0.765355,0.765355,0.765355,0.765355,$1*%
G04 Aperture macros list end*
%ADD10RoundRect,0.140000X0.140000X0.170000X-0.140000X0.170000X-0.140000X-0.170000X0.140000X-0.170000X0*%
%ADD11C,0.500000*%
%ADD12R,0.500000X0.500000*%
%ADD13RoundRect,0.190000X0.190000X1.060000X-0.190000X1.060000X-0.190000X-1.060000X0.190000X-1.060000X0*%
%ADD14RoundRect,0.185000X0.185000X-0.915000X0.185000X0.915000X-0.185000X0.915000X-0.185000X-0.915000X0*%
%ADD15RoundRect,0.185000X-0.185000X1.115000X-0.185000X-1.115000X0.185000X-1.115000X0.185000X1.115000X0*%
%ADD16RoundRect,0.140000X-0.140000X-0.170000X0.140000X-0.170000X0.140000X0.170000X-0.140000X0.170000X0*%
%ADD17RoundRect,0.185000X-0.185000X0.915000X-0.185000X-0.915000X0.185000X-0.915000X0.185000X0.915000X0*%
%ADD18RoundRect,0.135000X0.185000X-0.135000X0.185000X0.135000X-0.185000X0.135000X-0.185000X-0.135000X0*%
%ADD19R,0.200000X0.350000*%
%ADD20C,0.700000*%
%ADD21RoundRect,0.135000X0.135000X0.185000X-0.135000X0.185000X-0.135000X-0.185000X0.135000X-0.185000X0*%
%ADD22R,0.620000X1.100000*%
%ADD23R,0.800000X0.400000*%
%ADD24R,0.400000X0.800000*%
%ADD25R,1.450000X1.450000*%
%ADD26FreePoly0,180.000000*%
%ADD27R,0.700000X0.700000*%
%ADD28C,0.650000*%
%ADD29O,1.000000X2.100000*%
%ADD30O,1.000000X1.600000*%
G04 APERTURE END LIST*
D10*
%TO.C,C9*%
X177780000Y-51900000D03*
X176820000Y-51900000D03*
%TD*%
D11*
%TO.C,mouse-bite-2mm-slot*%
X169919289Y-67979949D03*
X170431942Y-67431942D03*
X170979949Y-66919289D03*
%TD*%
D12*
%TO.C,TP4*%
X191100000Y-45500000D03*
%TD*%
D13*
%TO.C,J7*%
X172000000Y-79250000D03*
X172000000Y-74750000D03*
X170730000Y-79250000D03*
X170730000Y-74750000D03*
X169460000Y-79250000D03*
X169460000Y-74750000D03*
X168190000Y-79250000D03*
X168190000Y-74750000D03*
%TD*%
D10*
%TO.C,C25*%
X183480000Y-87500000D03*
X182520000Y-87500000D03*
%TD*%
D14*
%TO.C,J3*%
X171330000Y-46000000D03*
X171330000Y-42400000D03*
X170070000Y-46000000D03*
X170070000Y-42400000D03*
%TD*%
D15*
%TO.C,J6*%
X188670000Y-79300000D03*
X188670000Y-83100000D03*
X189930000Y-79300000D03*
X189930000Y-83100000D03*
%TD*%
D12*
%TO.C,TP1*%
X167900000Y-39500000D03*
%TD*%
D10*
%TO.C,C8*%
X177780000Y-49500000D03*
X176820000Y-49500000D03*
%TD*%
%TO.C,C24*%
X177480000Y-87500000D03*
X176520000Y-87500000D03*
%TD*%
D12*
%TO.C,TP5*%
X189100000Y-48300000D03*
%TD*%
%TO.C,TP2*%
X167900000Y-40400000D03*
%TD*%
D16*
%TO.C,C18*%
X173520000Y-68000000D03*
X174480000Y-68000000D03*
%TD*%
D15*
%TO.C,J5*%
X188670000Y-70900000D03*
X188670000Y-74700000D03*
X189930000Y-70900000D03*
X189930000Y-74700000D03*
%TD*%
D11*
%TO.C,mouse-bite-2mm-slot*%
X170979949Y-87080711D03*
X170431942Y-86568058D03*
X169919289Y-86020051D03*
%TD*%
D17*
%TO.C,J4*%
X188000000Y-38200000D03*
X188000000Y-41800000D03*
X189270000Y-38200000D03*
X189270000Y-41800000D03*
X190530000Y-38200000D03*
X190530000Y-41800000D03*
X191800000Y-38200000D03*
X191800000Y-41800000D03*
%TD*%
D18*
%TO.C,R7*%
X182300000Y-50410000D03*
X182300000Y-49390000D03*
%TD*%
D10*
%TO.C,C19*%
X172980000Y-69500000D03*
X172020000Y-69500000D03*
%TD*%
D16*
%TO.C,C26*%
X185520000Y-86000000D03*
X186480000Y-86000000D03*
%TD*%
%TO.C,C23*%
X173520000Y-86000000D03*
X174480000Y-86000000D03*
%TD*%
D19*
%TO.C,D2*%
X181800000Y-48100000D03*
X181340000Y-48100000D03*
%TD*%
D11*
%TO.C,mouse-bite-2mm-slot*%
X189020051Y-29919289D03*
X189568058Y-30431942D03*
X190080711Y-30979949D03*
%TD*%
%TO.C,mouse-bite-2mm-slot*%
X170979949Y-50080711D03*
X170431942Y-49568058D03*
X169919289Y-49020051D03*
%TD*%
D20*
%TO.C,SW3*%
X191000000Y-43700000D03*
X189200000Y-43700000D03*
%TD*%
D21*
%TO.C,R12*%
X186510000Y-69500000D03*
X185490000Y-69500000D03*
%TD*%
D16*
%TO.C,C20*%
X170520000Y-71000000D03*
X171480000Y-71000000D03*
%TD*%
D20*
%TO.C,SW1*%
X171200000Y-40000000D03*
X169400000Y-40000000D03*
%TD*%
D11*
%TO.C,mouse-bite-2mm-slot*%
X190080711Y-49020051D03*
X189568058Y-49568058D03*
X189020051Y-50080711D03*
%TD*%
D10*
%TO.C,C15*%
X177730000Y-46990000D03*
X176770000Y-46990000D03*
%TD*%
%TO.C,C22*%
X172980000Y-84500000D03*
X172020000Y-84500000D03*
%TD*%
D14*
%TO.C,J2*%
X171330000Y-34000000D03*
X171330000Y-37600000D03*
X170070000Y-34000000D03*
X170070000Y-37600000D03*
%TD*%
D16*
%TO.C,C27*%
X185520000Y-68000000D03*
X186480000Y-68000000D03*
%TD*%
%TO.C,C16*%
X182270000Y-46990000D03*
X183230000Y-46990000D03*
%TD*%
D12*
%TO.C,TP3*%
X190100000Y-46900000D03*
%TD*%
D22*
%TO.C,U2*%
X179050000Y-49200000D03*
X180000000Y-49200000D03*
X180950000Y-49200000D03*
X180950000Y-51800000D03*
X179050000Y-51800000D03*
%TD*%
D10*
%TO.C,C28*%
X181980000Y-66500000D03*
X181020000Y-66500000D03*
%TD*%
D16*
%TO.C,C21*%
X170520000Y-83000000D03*
X171480000Y-83000000D03*
%TD*%
D10*
%TO.C,C17*%
X177480000Y-66500000D03*
X176520000Y-66500000D03*
%TD*%
D23*
%TO.C,U1*%
X185900000Y-36000000D03*
X185900000Y-36800000D03*
X185900000Y-37600000D03*
X185900000Y-38400000D03*
X185900000Y-39200000D03*
X185900000Y-40000000D03*
X185900000Y-40800000D03*
X185900000Y-41600000D03*
X185900000Y-42400000D03*
X185900000Y-43200000D03*
X185900000Y-44000000D03*
D24*
X184800000Y-44900000D03*
X184000000Y-44900000D03*
X183200000Y-44900000D03*
X182400000Y-44900000D03*
X181600000Y-44900000D03*
X180800000Y-44900000D03*
X180000000Y-44900000D03*
X179200000Y-44900000D03*
X178400000Y-44900000D03*
X177600000Y-44900000D03*
X176800000Y-44900000D03*
X176000000Y-44900000D03*
X175200000Y-44900000D03*
D23*
X174100000Y-44000000D03*
X174100000Y-43200000D03*
X174100000Y-42400000D03*
X174100000Y-41600000D03*
X174100000Y-40800000D03*
X174100000Y-40000000D03*
X174100000Y-39200000D03*
X174100000Y-38400000D03*
X174100000Y-37600000D03*
X174100000Y-36800000D03*
X174100000Y-36000000D03*
D24*
X175200000Y-35100000D03*
X176000000Y-35100000D03*
X176800000Y-35100000D03*
X177600000Y-35100000D03*
X178400000Y-35100000D03*
X179200000Y-35100000D03*
X180000000Y-35100000D03*
X180800000Y-35100000D03*
X181600000Y-35100000D03*
X182400000Y-35100000D03*
X183200000Y-35100000D03*
X184000000Y-35100000D03*
X184800000Y-35100000D03*
D25*
X178030000Y-38030000D03*
X178030000Y-40000000D03*
X178030000Y-41980000D03*
X180000000Y-38030000D03*
X180000000Y-40000000D03*
X180000000Y-41980000D03*
D26*
X181980000Y-38020000D03*
D25*
X181980000Y-40000000D03*
X181980000Y-41980000D03*
D27*
X174050000Y-35050000D03*
X174050000Y-44950000D03*
X185950000Y-44950000D03*
X185950000Y-35050000D03*
%TD*%
D11*
%TO.C,mouse-bite-2mm-slot*%
X189020051Y-66919289D03*
X189568058Y-67431942D03*
X190080711Y-67979949D03*
%TD*%
%TO.C,mouse-bite-2mm-slot*%
X169919289Y-30979949D03*
X170431942Y-30431942D03*
X170979949Y-29919289D03*
%TD*%
%TO.C,mouse-bite-2mm-slot*%
X190080711Y-86020051D03*
X189568058Y-86568058D03*
X189020051Y-87080711D03*
%TD*%
D20*
%TO.C,SW2*%
X189200000Y-36300000D03*
X191000000Y-36300000D03*
%TD*%
D28*
%TO.C,J1*%
X177110000Y-48090000D03*
X182890000Y-48090000D03*
D29*
X175680000Y-47590000D03*
X184320000Y-47590000D03*
D30*
X184320000Y-51770000D03*
X175680000Y-51770000D03*
%TD*%
D10*
%TO.C,C9*%
X142780000Y-51900000D03*
X141820000Y-51900000D03*
%TD*%
D11*
%TO.C,mouse-bite-2mm-slot*%
X134919289Y-67979949D03*
X135431942Y-67431942D03*
X135979949Y-66919289D03*
%TD*%
D12*
%TO.C,TP4*%
X156100000Y-45500000D03*
%TD*%
D13*
%TO.C,J7*%
X137000000Y-79250000D03*
X137000000Y-74750000D03*
X135730000Y-79250000D03*
X135730000Y-74750000D03*
X134460000Y-79250000D03*
X134460000Y-74750000D03*
X133190000Y-79250000D03*
X133190000Y-74750000D03*
%TD*%
D10*
%TO.C,C25*%
X148480000Y-87500000D03*
X147520000Y-87500000D03*
%TD*%
D14*
%TO.C,J3*%
X136330000Y-46000000D03*
X136330000Y-42400000D03*
X135070000Y-46000000D03*
X135070000Y-42400000D03*
%TD*%
D15*
%TO.C,J6*%
X153670000Y-79300000D03*
X153670000Y-83100000D03*
X154930000Y-79300000D03*
X154930000Y-83100000D03*
%TD*%
D12*
%TO.C,TP1*%
X132900000Y-39500000D03*
%TD*%
D10*
%TO.C,C8*%
X142780000Y-49500000D03*
X141820000Y-49500000D03*
%TD*%
%TO.C,C24*%
X142480000Y-87500000D03*
X141520000Y-87500000D03*
%TD*%
D12*
%TO.C,TP5*%
X154100000Y-48300000D03*
%TD*%
%TO.C,TP2*%
X132900000Y-40400000D03*
%TD*%
D16*
%TO.C,C18*%
X138520000Y-68000000D03*
X139480000Y-68000000D03*
%TD*%
D15*
%TO.C,J5*%
X153670000Y-70900000D03*
X153670000Y-74700000D03*
X154930000Y-70900000D03*
X154930000Y-74700000D03*
%TD*%
D11*
%TO.C,mouse-bite-2mm-slot*%
X135979949Y-87080711D03*
X135431942Y-86568058D03*
X134919289Y-86020051D03*
%TD*%
D17*
%TO.C,J4*%
X153000000Y-38200000D03*
X153000000Y-41800000D03*
X154270000Y-38200000D03*
X154270000Y-41800000D03*
X155530000Y-38200000D03*
X155530000Y-41800000D03*
X156800000Y-38200000D03*
X156800000Y-41800000D03*
%TD*%
D18*
%TO.C,R7*%
X147300000Y-50410000D03*
X147300000Y-49390000D03*
%TD*%
D10*
%TO.C,C19*%
X137980000Y-69500000D03*
X137020000Y-69500000D03*
%TD*%
D16*
%TO.C,C26*%
X150520000Y-86000000D03*
X151480000Y-86000000D03*
%TD*%
%TO.C,C23*%
X138520000Y-86000000D03*
X139480000Y-86000000D03*
%TD*%
D19*
%TO.C,D2*%
X146800000Y-48100000D03*
X146340000Y-48100000D03*
%TD*%
D11*
%TO.C,mouse-bite-2mm-slot*%
X154020051Y-29919289D03*
X154568058Y-30431942D03*
X155080711Y-30979949D03*
%TD*%
%TO.C,mouse-bite-2mm-slot*%
X135979949Y-50080711D03*
X135431942Y-49568058D03*
X134919289Y-49020051D03*
%TD*%
D20*
%TO.C,SW3*%
X156000000Y-43700000D03*
X154200000Y-43700000D03*
%TD*%
D21*
%TO.C,R12*%
X151510000Y-69500000D03*
X150490000Y-69500000D03*
%TD*%
D16*
%TO.C,C20*%
X135520000Y-71000000D03*
X136480000Y-71000000D03*
%TD*%
D20*
%TO.C,SW1*%
X136200000Y-40000000D03*
X134400000Y-40000000D03*
%TD*%
D11*
%TO.C,mouse-bite-2mm-slot*%
X155080711Y-49020051D03*
X154568058Y-49568058D03*
X154020051Y-50080711D03*
%TD*%
D10*
%TO.C,C15*%
X142730000Y-46990000D03*
X141770000Y-46990000D03*
%TD*%
%TO.C,C22*%
X137980000Y-84500000D03*
X137020000Y-84500000D03*
%TD*%
D14*
%TO.C,J2*%
X136330000Y-34000000D03*
X136330000Y-37600000D03*
X135070000Y-34000000D03*
X135070000Y-37600000D03*
%TD*%
D16*
%TO.C,C27*%
X150520000Y-68000000D03*
X151480000Y-68000000D03*
%TD*%
%TO.C,C16*%
X147270000Y-46990000D03*
X148230000Y-46990000D03*
%TD*%
D12*
%TO.C,TP3*%
X155100000Y-46900000D03*
%TD*%
D22*
%TO.C,U2*%
X144050000Y-49200000D03*
X145000000Y-49200000D03*
X145950000Y-49200000D03*
X145950000Y-51800000D03*
X144050000Y-51800000D03*
%TD*%
D10*
%TO.C,C28*%
X146980000Y-66500000D03*
X146020000Y-66500000D03*
%TD*%
D16*
%TO.C,C21*%
X135520000Y-83000000D03*
X136480000Y-83000000D03*
%TD*%
D10*
%TO.C,C17*%
X142480000Y-66500000D03*
X141520000Y-66500000D03*
%TD*%
D23*
%TO.C,U1*%
X150900000Y-36000000D03*
X150900000Y-36800000D03*
X150900000Y-37600000D03*
X150900000Y-38400000D03*
X150900000Y-39200000D03*
X150900000Y-40000000D03*
X150900000Y-40800000D03*
X150900000Y-41600000D03*
X150900000Y-42400000D03*
X150900000Y-43200000D03*
X150900000Y-44000000D03*
D24*
X149800000Y-44900000D03*
X149000000Y-44900000D03*
X148200000Y-44900000D03*
X147400000Y-44900000D03*
X146600000Y-44900000D03*
X145800000Y-44900000D03*
X145000000Y-44900000D03*
X144200000Y-44900000D03*
X143400000Y-44900000D03*
X142600000Y-44900000D03*
X141800000Y-44900000D03*
X141000000Y-44900000D03*
X140200000Y-44900000D03*
D23*
X139100000Y-44000000D03*
X139100000Y-43200000D03*
X139100000Y-42400000D03*
X139100000Y-41600000D03*
X139100000Y-40800000D03*
X139100000Y-40000000D03*
X139100000Y-39200000D03*
X139100000Y-38400000D03*
X139100000Y-37600000D03*
X139100000Y-36800000D03*
X139100000Y-36000000D03*
D24*
X140200000Y-35100000D03*
X141000000Y-35100000D03*
X141800000Y-35100000D03*
X142600000Y-35100000D03*
X143400000Y-35100000D03*
X144200000Y-35100000D03*
X145000000Y-35100000D03*
X145800000Y-35100000D03*
X146600000Y-35100000D03*
X147400000Y-35100000D03*
X148200000Y-35100000D03*
X149000000Y-35100000D03*
X149800000Y-35100000D03*
D25*
X143030000Y-38030000D03*
X143030000Y-40000000D03*
X143030000Y-41980000D03*
X145000000Y-38030000D03*
X145000000Y-40000000D03*
X145000000Y-41980000D03*
D26*
X146980000Y-38020000D03*
D25*
X146980000Y-40000000D03*
X146980000Y-41980000D03*
D27*
X139050000Y-35050000D03*
X139050000Y-44950000D03*
X150950000Y-44950000D03*
X150950000Y-35050000D03*
%TD*%
D11*
%TO.C,mouse-bite-2mm-slot*%
X154020051Y-66919289D03*
X154568058Y-67431942D03*
X155080711Y-67979949D03*
%TD*%
%TO.C,mouse-bite-2mm-slot*%
X134919289Y-30979949D03*
X135431942Y-30431942D03*
X135979949Y-29919289D03*
%TD*%
%TO.C,mouse-bite-2mm-slot*%
X155080711Y-86020051D03*
X154568058Y-86568058D03*
X154020051Y-87080711D03*
%TD*%
D20*
%TO.C,SW2*%
X154200000Y-36300000D03*
X156000000Y-36300000D03*
%TD*%
D28*
%TO.C,J1*%
X142110000Y-48090000D03*
X147890000Y-48090000D03*
D29*
X140680000Y-47590000D03*
X149320000Y-47590000D03*
D30*
X149320000Y-51770000D03*
X140680000Y-51770000D03*
%TD*%
D10*
%TO.C,C9*%
X107780000Y-51900000D03*
X106820000Y-51900000D03*
%TD*%
D11*
%TO.C,mouse-bite-2mm-slot*%
X99919289Y-67979949D03*
X100431942Y-67431942D03*
X100979949Y-66919289D03*
%TD*%
D12*
%TO.C,TP4*%
X121100000Y-45500000D03*
%TD*%
D13*
%TO.C,J7*%
X102000000Y-79250000D03*
X102000000Y-74750000D03*
X100730000Y-79250000D03*
X100730000Y-74750000D03*
X99460000Y-79250000D03*
X99460000Y-74750000D03*
X98190000Y-79250000D03*
X98190000Y-74750000D03*
%TD*%
D10*
%TO.C,C25*%
X113480000Y-87500000D03*
X112520000Y-87500000D03*
%TD*%
D14*
%TO.C,J3*%
X101330000Y-46000000D03*
X101330000Y-42400000D03*
X100070000Y-46000000D03*
X100070000Y-42400000D03*
%TD*%
D15*
%TO.C,J6*%
X118670000Y-79300000D03*
X118670000Y-83100000D03*
X119930000Y-79300000D03*
X119930000Y-83100000D03*
%TD*%
D12*
%TO.C,TP1*%
X97900000Y-39500000D03*
%TD*%
D10*
%TO.C,C8*%
X107780000Y-49500000D03*
X106820000Y-49500000D03*
%TD*%
%TO.C,C24*%
X107480000Y-87500000D03*
X106520000Y-87500000D03*
%TD*%
D12*
%TO.C,TP5*%
X119100000Y-48300000D03*
%TD*%
%TO.C,TP2*%
X97900000Y-40400000D03*
%TD*%
D16*
%TO.C,C18*%
X103520000Y-68000000D03*
X104480000Y-68000000D03*
%TD*%
D15*
%TO.C,J5*%
X118670000Y-70900000D03*
X118670000Y-74700000D03*
X119930000Y-70900000D03*
X119930000Y-74700000D03*
%TD*%
D11*
%TO.C,mouse-bite-2mm-slot*%
X100979949Y-87080711D03*
X100431942Y-86568058D03*
X99919289Y-86020051D03*
%TD*%
D17*
%TO.C,J4*%
X118000000Y-38200000D03*
X118000000Y-41800000D03*
X119270000Y-38200000D03*
X119270000Y-41800000D03*
X120530000Y-38200000D03*
X120530000Y-41800000D03*
X121800000Y-38200000D03*
X121800000Y-41800000D03*
%TD*%
D18*
%TO.C,R7*%
X112300000Y-50410000D03*
X112300000Y-49390000D03*
%TD*%
D10*
%TO.C,C19*%
X102980000Y-69500000D03*
X102020000Y-69500000D03*
%TD*%
D16*
%TO.C,C26*%
X115520000Y-86000000D03*
X116480000Y-86000000D03*
%TD*%
%TO.C,C23*%
X103520000Y-86000000D03*
X104480000Y-86000000D03*
%TD*%
D19*
%TO.C,D2*%
X111800000Y-48100000D03*
X111340000Y-48100000D03*
%TD*%
D11*
%TO.C,mouse-bite-2mm-slot*%
X119020051Y-29919289D03*
X119568058Y-30431942D03*
X120080711Y-30979949D03*
%TD*%
%TO.C,mouse-bite-2mm-slot*%
X100979949Y-50080711D03*
X100431942Y-49568058D03*
X99919289Y-49020051D03*
%TD*%
D20*
%TO.C,SW3*%
X121000000Y-43700000D03*
X119200000Y-43700000D03*
%TD*%
D21*
%TO.C,R12*%
X116510000Y-69500000D03*
X115490000Y-69500000D03*
%TD*%
D16*
%TO.C,C20*%
X100520000Y-71000000D03*
X101480000Y-71000000D03*
%TD*%
D20*
%TO.C,SW1*%
X101200000Y-40000000D03*
X99400000Y-40000000D03*
%TD*%
D11*
%TO.C,mouse-bite-2mm-slot*%
X120080711Y-49020051D03*
X119568058Y-49568058D03*
X119020051Y-50080711D03*
%TD*%
D10*
%TO.C,C15*%
X107730000Y-46990000D03*
X106770000Y-46990000D03*
%TD*%
%TO.C,C22*%
X102980000Y-84500000D03*
X102020000Y-84500000D03*
%TD*%
D14*
%TO.C,J2*%
X101330000Y-34000000D03*
X101330000Y-37600000D03*
X100070000Y-34000000D03*
X100070000Y-37600000D03*
%TD*%
D16*
%TO.C,C27*%
X115520000Y-68000000D03*
X116480000Y-68000000D03*
%TD*%
%TO.C,C16*%
X112270000Y-46990000D03*
X113230000Y-46990000D03*
%TD*%
D12*
%TO.C,TP3*%
X120100000Y-46900000D03*
%TD*%
D22*
%TO.C,U2*%
X109050000Y-49200000D03*
X110000000Y-49200000D03*
X110950000Y-49200000D03*
X110950000Y-51800000D03*
X109050000Y-51800000D03*
%TD*%
D10*
%TO.C,C28*%
X111980000Y-66500000D03*
X111020000Y-66500000D03*
%TD*%
D16*
%TO.C,C21*%
X100520000Y-83000000D03*
X101480000Y-83000000D03*
%TD*%
D10*
%TO.C,C17*%
X107480000Y-66500000D03*
X106520000Y-66500000D03*
%TD*%
D23*
%TO.C,U1*%
X115900000Y-36000000D03*
X115900000Y-36800000D03*
X115900000Y-37600000D03*
X115900000Y-38400000D03*
X115900000Y-39200000D03*
X115900000Y-40000000D03*
X115900000Y-40800000D03*
X115900000Y-41600000D03*
X115900000Y-42400000D03*
X115900000Y-43200000D03*
X115900000Y-44000000D03*
D24*
X114800000Y-44900000D03*
X114000000Y-44900000D03*
X113200000Y-44900000D03*
X112400000Y-44900000D03*
X111600000Y-44900000D03*
X110800000Y-44900000D03*
X110000000Y-44900000D03*
X109200000Y-44900000D03*
X108400000Y-44900000D03*
X107600000Y-44900000D03*
X106800000Y-44900000D03*
X106000000Y-44900000D03*
X105200000Y-44900000D03*
D23*
X104100000Y-44000000D03*
X104100000Y-43200000D03*
X104100000Y-42400000D03*
X104100000Y-41600000D03*
X104100000Y-40800000D03*
X104100000Y-40000000D03*
X104100000Y-39200000D03*
X104100000Y-38400000D03*
X104100000Y-37600000D03*
X104100000Y-36800000D03*
X104100000Y-36000000D03*
D24*
X105200000Y-35100000D03*
X106000000Y-35100000D03*
X106800000Y-35100000D03*
X107600000Y-35100000D03*
X108400000Y-35100000D03*
X109200000Y-35100000D03*
X110000000Y-35100000D03*
X110800000Y-35100000D03*
X111600000Y-35100000D03*
X112400000Y-35100000D03*
X113200000Y-35100000D03*
X114000000Y-35100000D03*
X114800000Y-35100000D03*
D25*
X108030000Y-38030000D03*
X108030000Y-40000000D03*
X108030000Y-41980000D03*
X110000000Y-38030000D03*
X110000000Y-40000000D03*
X110000000Y-41980000D03*
D26*
X111980000Y-38020000D03*
D25*
X111980000Y-40000000D03*
X111980000Y-41980000D03*
D27*
X104050000Y-35050000D03*
X104050000Y-44950000D03*
X115950000Y-44950000D03*
X115950000Y-35050000D03*
%TD*%
D11*
%TO.C,mouse-bite-2mm-slot*%
X119020051Y-66919289D03*
X119568058Y-67431942D03*
X120080711Y-67979949D03*
%TD*%
%TO.C,mouse-bite-2mm-slot*%
X99919289Y-30979949D03*
X100431942Y-30431942D03*
X100979949Y-29919289D03*
%TD*%
%TO.C,mouse-bite-2mm-slot*%
X120080711Y-86020051D03*
X119568058Y-86568058D03*
X119020051Y-87080711D03*
%TD*%
D20*
%TO.C,SW2*%
X119200000Y-36300000D03*
X121000000Y-36300000D03*
%TD*%
D28*
%TO.C,J1*%
X107110000Y-48090000D03*
X112890000Y-48090000D03*
D29*
X105680000Y-47590000D03*
X114320000Y-47590000D03*
D30*
X114320000Y-51770000D03*
X105680000Y-51770000D03*
%TD*%
D10*
%TO.C,C9*%
X72780000Y-51900000D03*
X71820000Y-51900000D03*
%TD*%
D11*
%TO.C,mouse-bite-2mm-slot*%
X64919289Y-67979949D03*
X65431942Y-67431942D03*
X65979949Y-66919289D03*
%TD*%
D12*
%TO.C,TP4*%
X86100000Y-45500000D03*
%TD*%
D13*
%TO.C,J7*%
X67000000Y-79250000D03*
X67000000Y-74750000D03*
X65730000Y-79250000D03*
X65730000Y-74750000D03*
X64460000Y-79250000D03*
X64460000Y-74750000D03*
X63190000Y-79250000D03*
X63190000Y-74750000D03*
%TD*%
D10*
%TO.C,C25*%
X78480000Y-87500000D03*
X77520000Y-87500000D03*
%TD*%
D14*
%TO.C,J3*%
X66330000Y-46000000D03*
X66330000Y-42400000D03*
X65070000Y-46000000D03*
X65070000Y-42400000D03*
%TD*%
D15*
%TO.C,J6*%
X83670000Y-79300000D03*
X83670000Y-83100000D03*
X84930000Y-79300000D03*
X84930000Y-83100000D03*
%TD*%
D12*
%TO.C,TP1*%
X62900000Y-39500000D03*
%TD*%
D10*
%TO.C,C8*%
X72780000Y-49500000D03*
X71820000Y-49500000D03*
%TD*%
%TO.C,C24*%
X72480000Y-87500000D03*
X71520000Y-87500000D03*
%TD*%
D12*
%TO.C,TP5*%
X84100000Y-48300000D03*
%TD*%
%TO.C,TP2*%
X62900000Y-40400000D03*
%TD*%
D16*
%TO.C,C18*%
X68520000Y-68000000D03*
X69480000Y-68000000D03*
%TD*%
D15*
%TO.C,J5*%
X83670000Y-70900000D03*
X83670000Y-74700000D03*
X84930000Y-70900000D03*
X84930000Y-74700000D03*
%TD*%
D11*
%TO.C,mouse-bite-2mm-slot*%
X65979949Y-87080711D03*
X65431942Y-86568058D03*
X64919289Y-86020051D03*
%TD*%
D17*
%TO.C,J4*%
X83000000Y-38200000D03*
X83000000Y-41800000D03*
X84270000Y-38200000D03*
X84270000Y-41800000D03*
X85530000Y-38200000D03*
X85530000Y-41800000D03*
X86800000Y-38200000D03*
X86800000Y-41800000D03*
%TD*%
D18*
%TO.C,R7*%
X77300000Y-50410000D03*
X77300000Y-49390000D03*
%TD*%
D10*
%TO.C,C19*%
X67980000Y-69500000D03*
X67020000Y-69500000D03*
%TD*%
D16*
%TO.C,C26*%
X80520000Y-86000000D03*
X81480000Y-86000000D03*
%TD*%
%TO.C,C23*%
X68520000Y-86000000D03*
X69480000Y-86000000D03*
%TD*%
D19*
%TO.C,D2*%
X76800000Y-48100000D03*
X76340000Y-48100000D03*
%TD*%
D11*
%TO.C,mouse-bite-2mm-slot*%
X84020051Y-29919289D03*
X84568058Y-30431942D03*
X85080711Y-30979949D03*
%TD*%
%TO.C,mouse-bite-2mm-slot*%
X65979949Y-50080711D03*
X65431942Y-49568058D03*
X64919289Y-49020051D03*
%TD*%
D20*
%TO.C,SW3*%
X86000000Y-43700000D03*
X84200000Y-43700000D03*
%TD*%
D21*
%TO.C,R12*%
X81510000Y-69500000D03*
X80490000Y-69500000D03*
%TD*%
D16*
%TO.C,C20*%
X65520000Y-71000000D03*
X66480000Y-71000000D03*
%TD*%
D20*
%TO.C,SW1*%
X66200000Y-40000000D03*
X64400000Y-40000000D03*
%TD*%
D11*
%TO.C,mouse-bite-2mm-slot*%
X85080711Y-49020051D03*
X84568058Y-49568058D03*
X84020051Y-50080711D03*
%TD*%
D10*
%TO.C,C15*%
X72730000Y-46990000D03*
X71770000Y-46990000D03*
%TD*%
%TO.C,C22*%
X67980000Y-84500000D03*
X67020000Y-84500000D03*
%TD*%
D14*
%TO.C,J2*%
X66330000Y-34000000D03*
X66330000Y-37600000D03*
X65070000Y-34000000D03*
X65070000Y-37600000D03*
%TD*%
D16*
%TO.C,C27*%
X80520000Y-68000000D03*
X81480000Y-68000000D03*
%TD*%
%TO.C,C16*%
X77270000Y-46990000D03*
X78230000Y-46990000D03*
%TD*%
D12*
%TO.C,TP3*%
X85100000Y-46900000D03*
%TD*%
D22*
%TO.C,U2*%
X74050000Y-49200000D03*
X75000000Y-49200000D03*
X75950000Y-49200000D03*
X75950000Y-51800000D03*
X74050000Y-51800000D03*
%TD*%
D10*
%TO.C,C28*%
X76980000Y-66500000D03*
X76020000Y-66500000D03*
%TD*%
D16*
%TO.C,C21*%
X65520000Y-83000000D03*
X66480000Y-83000000D03*
%TD*%
D10*
%TO.C,C17*%
X72480000Y-66500000D03*
X71520000Y-66500000D03*
%TD*%
D23*
%TO.C,U1*%
X80900000Y-36000000D03*
X80900000Y-36800000D03*
X80900000Y-37600000D03*
X80900000Y-38400000D03*
X80900000Y-39200000D03*
X80900000Y-40000000D03*
X80900000Y-40800000D03*
X80900000Y-41600000D03*
X80900000Y-42400000D03*
X80900000Y-43200000D03*
X80900000Y-44000000D03*
D24*
X79800000Y-44900000D03*
X79000000Y-44900000D03*
X78200000Y-44900000D03*
X77400000Y-44900000D03*
X76600000Y-44900000D03*
X75800000Y-44900000D03*
X75000000Y-44900000D03*
X74200000Y-44900000D03*
X73400000Y-44900000D03*
X72600000Y-44900000D03*
X71800000Y-44900000D03*
X71000000Y-44900000D03*
X70200000Y-44900000D03*
D23*
X69100000Y-44000000D03*
X69100000Y-43200000D03*
X69100000Y-42400000D03*
X69100000Y-41600000D03*
X69100000Y-40800000D03*
X69100000Y-40000000D03*
X69100000Y-39200000D03*
X69100000Y-38400000D03*
X69100000Y-37600000D03*
X69100000Y-36800000D03*
X69100000Y-36000000D03*
D24*
X70200000Y-35100000D03*
X71000000Y-35100000D03*
X71800000Y-35100000D03*
X72600000Y-35100000D03*
X73400000Y-35100000D03*
X74200000Y-35100000D03*
X75000000Y-35100000D03*
X75800000Y-35100000D03*
X76600000Y-35100000D03*
X77400000Y-35100000D03*
X78200000Y-35100000D03*
X79000000Y-35100000D03*
X79800000Y-35100000D03*
D25*
X73030000Y-38030000D03*
X73030000Y-40000000D03*
X73030000Y-41980000D03*
X75000000Y-38030000D03*
X75000000Y-40000000D03*
X75000000Y-41980000D03*
D26*
X76980000Y-38020000D03*
D25*
X76980000Y-40000000D03*
X76980000Y-41980000D03*
D27*
X69050000Y-35050000D03*
X69050000Y-44950000D03*
X80950000Y-44950000D03*
X80950000Y-35050000D03*
%TD*%
D11*
%TO.C,mouse-bite-2mm-slot*%
X84020051Y-66919289D03*
X84568058Y-67431942D03*
X85080711Y-67979949D03*
%TD*%
%TO.C,mouse-bite-2mm-slot*%
X64919289Y-30979949D03*
X65431942Y-30431942D03*
X65979949Y-29919289D03*
%TD*%
%TO.C,mouse-bite-2mm-slot*%
X85080711Y-86020051D03*
X84568058Y-86568058D03*
X84020051Y-87080711D03*
%TD*%
D20*
%TO.C,SW2*%
X84200000Y-36300000D03*
X86000000Y-36300000D03*
%TD*%
D28*
%TO.C,J1*%
X72110000Y-48090000D03*
X77890000Y-48090000D03*
D29*
X70680000Y-47590000D03*
X79320000Y-47590000D03*
D30*
X79320000Y-51770000D03*
X70680000Y-51770000D03*
%TD*%
D10*
%TO.C,C9*%
X37780000Y-51900000D03*
X36820000Y-51900000D03*
%TD*%
D11*
%TO.C,mouse-bite-2mm-slot*%
X29919289Y-67979949D03*
X30431942Y-67431942D03*
X30979949Y-66919289D03*
%TD*%
D12*
%TO.C,TP4*%
X51100000Y-45500000D03*
%TD*%
D13*
%TO.C,J7*%
X32000000Y-79250000D03*
X32000000Y-74750000D03*
X30730000Y-79250000D03*
X30730000Y-74750000D03*
X29460000Y-79250000D03*
X29460000Y-74750000D03*
X28190000Y-79250000D03*
X28190000Y-74750000D03*
%TD*%
D10*
%TO.C,C25*%
X43480000Y-87500000D03*
X42520000Y-87500000D03*
%TD*%
D14*
%TO.C,J3*%
X31330000Y-46000000D03*
X31330000Y-42400000D03*
X30070000Y-46000000D03*
X30070000Y-42400000D03*
%TD*%
D15*
%TO.C,J6*%
X48670000Y-79300000D03*
X48670000Y-83100000D03*
X49930000Y-79300000D03*
X49930000Y-83100000D03*
%TD*%
D12*
%TO.C,TP1*%
X27900000Y-39500000D03*
%TD*%
D10*
%TO.C,C8*%
X37780000Y-49500000D03*
X36820000Y-49500000D03*
%TD*%
%TO.C,C24*%
X37480000Y-87500000D03*
X36520000Y-87500000D03*
%TD*%
D12*
%TO.C,TP5*%
X49100000Y-48300000D03*
%TD*%
%TO.C,TP2*%
X27900000Y-40400000D03*
%TD*%
D16*
%TO.C,C18*%
X33520000Y-68000000D03*
X34480000Y-68000000D03*
%TD*%
D15*
%TO.C,J5*%
X48670000Y-70900000D03*
X48670000Y-74700000D03*
X49930000Y-70900000D03*
X49930000Y-74700000D03*
%TD*%
D11*
%TO.C,mouse-bite-2mm-slot*%
X30979949Y-87080711D03*
X30431942Y-86568058D03*
X29919289Y-86020051D03*
%TD*%
D17*
%TO.C,J4*%
X48000000Y-38200000D03*
X48000000Y-41800000D03*
X49270000Y-38200000D03*
X49270000Y-41800000D03*
X50530000Y-38200000D03*
X50530000Y-41800000D03*
X51800000Y-38200000D03*
X51800000Y-41800000D03*
%TD*%
D18*
%TO.C,R7*%
X42300000Y-50410000D03*
X42300000Y-49390000D03*
%TD*%
D10*
%TO.C,C19*%
X32980000Y-69500000D03*
X32020000Y-69500000D03*
%TD*%
D16*
%TO.C,C26*%
X45520000Y-86000000D03*
X46480000Y-86000000D03*
%TD*%
%TO.C,C23*%
X33520000Y-86000000D03*
X34480000Y-86000000D03*
%TD*%
D19*
%TO.C,D2*%
X41800000Y-48100000D03*
X41340000Y-48100000D03*
%TD*%
D11*
%TO.C,mouse-bite-2mm-slot*%
X49020051Y-29919289D03*
X49568058Y-30431942D03*
X50080711Y-30979949D03*
%TD*%
%TO.C,mouse-bite-2mm-slot*%
X30979949Y-50080711D03*
X30431942Y-49568058D03*
X29919289Y-49020051D03*
%TD*%
D20*
%TO.C,SW3*%
X51000000Y-43700000D03*
X49200000Y-43700000D03*
%TD*%
D21*
%TO.C,R12*%
X46510000Y-69500000D03*
X45490000Y-69500000D03*
%TD*%
D16*
%TO.C,C20*%
X30520000Y-71000000D03*
X31480000Y-71000000D03*
%TD*%
D20*
%TO.C,SW1*%
X31200000Y-40000000D03*
X29400000Y-40000000D03*
%TD*%
D11*
%TO.C,mouse-bite-2mm-slot*%
X50080711Y-49020051D03*
X49568058Y-49568058D03*
X49020051Y-50080711D03*
%TD*%
D10*
%TO.C,C15*%
X37730000Y-46990000D03*
X36770000Y-46990000D03*
%TD*%
%TO.C,C22*%
X32980000Y-84500000D03*
X32020000Y-84500000D03*
%TD*%
D14*
%TO.C,J2*%
X31330000Y-34000000D03*
X31330000Y-37600000D03*
X30070000Y-34000000D03*
X30070000Y-37600000D03*
%TD*%
D16*
%TO.C,C27*%
X45520000Y-68000000D03*
X46480000Y-68000000D03*
%TD*%
%TO.C,C16*%
X42270000Y-46990000D03*
X43230000Y-46990000D03*
%TD*%
D12*
%TO.C,TP3*%
X50100000Y-46900000D03*
%TD*%
D22*
%TO.C,U2*%
X39050000Y-49200000D03*
X40000000Y-49200000D03*
X40950000Y-49200000D03*
X40950000Y-51800000D03*
X39050000Y-51800000D03*
%TD*%
D10*
%TO.C,C28*%
X41980000Y-66500000D03*
X41020000Y-66500000D03*
%TD*%
D16*
%TO.C,C21*%
X30520000Y-83000000D03*
X31480000Y-83000000D03*
%TD*%
D10*
%TO.C,C17*%
X37480000Y-66500000D03*
X36520000Y-66500000D03*
%TD*%
D23*
%TO.C,U1*%
X45900000Y-36000000D03*
X45900000Y-36800000D03*
X45900000Y-37600000D03*
X45900000Y-38400000D03*
X45900000Y-39200000D03*
X45900000Y-40000000D03*
X45900000Y-40800000D03*
X45900000Y-41600000D03*
X45900000Y-42400000D03*
X45900000Y-43200000D03*
X45900000Y-44000000D03*
D24*
X44800000Y-44900000D03*
X44000000Y-44900000D03*
X43200000Y-44900000D03*
X42400000Y-44900000D03*
X41600000Y-44900000D03*
X40800000Y-44900000D03*
X40000000Y-44900000D03*
X39200000Y-44900000D03*
X38400000Y-44900000D03*
X37600000Y-44900000D03*
X36800000Y-44900000D03*
X36000000Y-44900000D03*
X35200000Y-44900000D03*
D23*
X34100000Y-44000000D03*
X34100000Y-43200000D03*
X34100000Y-42400000D03*
X34100000Y-41600000D03*
X34100000Y-40800000D03*
X34100000Y-40000000D03*
X34100000Y-39200000D03*
X34100000Y-38400000D03*
X34100000Y-37600000D03*
X34100000Y-36800000D03*
X34100000Y-36000000D03*
D24*
X35200000Y-35100000D03*
X36000000Y-35100000D03*
X36800000Y-35100000D03*
X37600000Y-35100000D03*
X38400000Y-35100000D03*
X39200000Y-35100000D03*
X40000000Y-35100000D03*
X40800000Y-35100000D03*
X41600000Y-35100000D03*
X42400000Y-35100000D03*
X43200000Y-35100000D03*
X44000000Y-35100000D03*
X44800000Y-35100000D03*
D25*
X38030000Y-38030000D03*
X38030000Y-40000000D03*
X38030000Y-41980000D03*
X40000000Y-38030000D03*
X40000000Y-40000000D03*
X40000000Y-41980000D03*
D26*
X41980000Y-38020000D03*
D25*
X41980000Y-40000000D03*
X41980000Y-41980000D03*
D27*
X34050000Y-35050000D03*
X34050000Y-44950000D03*
X45950000Y-44950000D03*
X45950000Y-35050000D03*
%TD*%
D11*
%TO.C,mouse-bite-2mm-slot*%
X49020051Y-66919289D03*
X49568058Y-67431942D03*
X50080711Y-67979949D03*
%TD*%
%TO.C,mouse-bite-2mm-slot*%
X29919289Y-30979949D03*
X30431942Y-30431942D03*
X30979949Y-29919289D03*
%TD*%
%TO.C,mouse-bite-2mm-slot*%
X50080711Y-86020051D03*
X49568058Y-86568058D03*
X49020051Y-87080711D03*
%TD*%
D20*
%TO.C,SW2*%
X49200000Y-36300000D03*
X51000000Y-36300000D03*
%TD*%
D28*
%TO.C,J1*%
X37110000Y-48090000D03*
X42890000Y-48090000D03*
D29*
X35680000Y-47590000D03*
X44320000Y-47590000D03*
D30*
X44320000Y-51770000D03*
X35680000Y-51770000D03*
%TD*%
M02*
