M48
; DRILL file {KiCad 8.0.2-1} date 2025-04-11T08:57:15-0700
; FORMAT={-:-/ absolute / metric / decimal}
; #@! TF.CreationDate,2025-04-11T08:57:15-07:00
; #@! TF.GenerationSoftware,Kicad,Pcbnew,8.0.2-1
; #@! TF.FileFunction,NonPlated,1,4,NPTH
FMAT,2
METRIC
; #@! TA.AperFunction,NonPlated,NPTH,ComponentDrill
T1C0.500
; #@! TA.AperFunction,NonPlated,NPTH,ComponentDrill
T2C0.650
; #@! TA.AperFunction,NonPlated,NPTH,ComponentDrill
T3C0.700
%
G90
G05
T1
X29.919Y-30.98
X29.919Y-49.02
X29.919Y-67.98
X29.919Y-86.02
X30.432Y-30.432
X30.432Y-49.568
X30.432Y-67.432
X30.432Y-86.568
X30.98Y-29.919
X30.98Y-50.081
X30.98Y-66.919
X30.98Y-87.081
X49.02Y-29.919
X49.02Y-50.081
X49.02Y-66.919
X49.02Y-87.081
X49.568Y-30.432
X49.568Y-49.568
X49.568Y-67.432
X49.568Y-86.568
X50.081Y-30.98
X50.081Y-49.02
X50.081Y-67.98
X50.081Y-86.02
X64.919Y-30.98
X64.919Y-49.02
X64.919Y-67.98
X64.919Y-86.02
X65.432Y-30.432
X65.432Y-49.568
X65.432Y-67.432
X65.432Y-86.568
X65.98Y-29.919
X65.98Y-50.081
X65.98Y-66.919
X65.98Y-87.081
X84.02Y-29.919
X84.02Y-50.081
X84.02Y-66.919
X84.02Y-87.081
X84.568Y-30.432
X84.568Y-49.568
X84.568Y-67.432
X84.568Y-86.568
X85.081Y-30.98
X85.081Y-49.02
X85.081Y-67.98
X85.081Y-86.02
X99.919Y-30.98
X99.919Y-49.02
X99.919Y-67.98
X99.919Y-86.02
X100.432Y-30.432
X100.432Y-49.568
X100.432Y-67.432
X100.432Y-86.568
X100.98Y-29.919
X100.98Y-50.081
X100.98Y-66.919
X100.98Y-87.081
X119.02Y-29.919
X119.02Y-50.081
X119.02Y-66.919
X119.02Y-87.081
X119.568Y-30.432
X119.568Y-49.568
X119.568Y-67.432
X119.568Y-86.568
X120.081Y-30.98
X120.081Y-49.02
X120.081Y-67.98
X120.081Y-86.02
X134.919Y-30.98
X134.919Y-49.02
X134.919Y-67.98
X134.919Y-86.02
X135.432Y-30.432
X135.432Y-49.568
X135.432Y-67.432
X135.432Y-86.568
X135.98Y-29.919
X135.98Y-50.081
X135.98Y-66.919
X135.98Y-87.081
X154.02Y-29.919
X154.02Y-50.081
X154.02Y-66.919
X154.02Y-87.081
X154.568Y-30.432
X154.568Y-49.568
X154.568Y-67.432
X154.568Y-86.568
X155.081Y-30.98
X155.081Y-49.02
X155.081Y-67.98
X155.081Y-86.02
X169.919Y-30.98
X169.919Y-49.02
X169.919Y-67.98
X169.919Y-86.02
X170.432Y-30.432
X170.432Y-49.568
X170.432Y-67.432
X170.432Y-86.568
X170.98Y-29.919
X170.98Y-50.081
X170.98Y-66.919
X170.98Y-87.081
X189.02Y-29.919
X189.02Y-50.081
X189.02Y-66.919
X189.02Y-87.081
X189.568Y-30.432
X189.568Y-49.568
X189.568Y-67.432
X189.568Y-86.568
X190.081Y-30.98
X190.081Y-49.02
X190.081Y-67.98
X190.081Y-86.02
T2
X37.11Y-48.09
X42.89Y-48.09
X72.11Y-48.09
X77.89Y-48.09
X107.11Y-48.09
X112.89Y-48.09
X142.11Y-48.09
X147.89Y-48.09
X177.11Y-48.09
X182.89Y-48.09
T3
X29.4Y-40.0
X31.2Y-40.0
X49.2Y-36.3
X49.2Y-43.7
X51.0Y-36.3
X51.0Y-43.7
X64.4Y-40.0
X66.2Y-40.0
X84.2Y-36.3
X84.2Y-43.7
X86.0Y-36.3
X86.0Y-43.7
X99.4Y-40.0
X101.2Y-40.0
X119.2Y-36.3
X119.2Y-43.7
X121.0Y-36.3
X121.0Y-43.7
X134.4Y-40.0
X136.2Y-40.0
X154.2Y-36.3
X154.2Y-43.7
X156.0Y-36.3
X156.0Y-43.7
X169.4Y-40.0
X171.2Y-40.0
X189.2Y-36.3
X189.2Y-43.7
X191.0Y-36.3
X191.0Y-43.7
M30
