%TF.GenerationSoftware,KiCad,Pcbnew,8.0.2-1*%
%TF.CreationDate,2025-04-10T09:26:31-07:00*%
%TF.ProjectId,Small_Pendant,536d616c-6c5f-4506-956e-64616e742e6b,rev?*%
%TF.SameCoordinates,Original*%
%TF.FileFunction,Paste,Bot*%
%TF.FilePolarity,Positive*%
%FSLAX46Y46*%
G04 Gerber Fmt 4.6, Leading zero omitted, Abs format (unit mm)*
G04 Created by KiCad (PCBNEW 8.0.2-1) date 2025-04-10 09:26:31*
%MOMM*%
%LPD*%
G01*
G04 APERTURE LIST*
G04 Aperture macros list*
%AMRoundRect*
0 Rectangle with rounded corners*
0 $1 Rounding radius*
0 $2 $3 $4 $5 $6 $7 $8 $9 X,Y pos of 4 corners*
0 Add a 4 corners polygon primitive as box body*
4,1,4,$2,$3,$4,$5,$6,$7,$8,$9,$2,$3,0*
0 Add four circle primitives for the rounded corners*
1,1,$1+$1,$2,$3*
1,1,$1+$1,$4,$5*
1,1,$1+$1,$6,$7*
1,1,$1+$1,$8,$9*
0 Add four rect primitives between the rounded corners*
20,1,$1+$1,$2,$3,$4,$5,0*
20,1,$1+$1,$4,$5,$6,$7,0*
20,1,$1+$1,$6,$7,$8,$9,0*
20,1,$1+$1,$8,$9,$2,$3,0*%
%AMFreePoly0*
4,1,6,0.725000,-0.725000,-0.125000,-0.725000,-0.725000,-0.125000,-0.725000,0.725000,0.725000,0.725000,0.725000,-0.725000,0.725000,-0.725000,$1*%
G04 Aperture macros list end*
%ADD10RoundRect,0.140000X-0.140000X-0.170000X0.140000X-0.170000X0.140000X0.170000X-0.140000X0.170000X0*%
%ADD11RoundRect,0.135000X0.135000X0.185000X-0.135000X0.185000X-0.135000X-0.185000X0.135000X-0.185000X0*%
%ADD12R,0.700000X0.700000*%
%ADD13R,1.450000X1.450000*%
%ADD14FreePoly0,180.000000*%
%ADD15R,0.400000X0.800000*%
%ADD16R,0.800000X0.400000*%
%ADD17RoundRect,0.140000X0.140000X0.170000X-0.140000X0.170000X-0.140000X-0.170000X0.140000X-0.170000X0*%
%ADD18RoundRect,0.150000X-0.150000X0.512500X-0.150000X-0.512500X0.150000X-0.512500X0.150000X0.512500X0*%
%ADD19R,0.750000X2.100000*%
%ADD20R,0.740000X2.400000*%
%ADD21RoundRect,0.135000X0.185000X-0.135000X0.185000X0.135000X-0.185000X0.135000X-0.185000X-0.135000X0*%
%ADD22R,0.200000X0.350000*%
G04 APERTURE END LIST*
D10*
%TO.C,C20*%
X40520000Y-44000000D03*
X41480000Y-44000000D03*
%TD*%
D11*
%TO.C,R12*%
X56510000Y-42500000D03*
X55490000Y-42500000D03*
%TD*%
D12*
%TO.C,U1*%
X90950000Y-45050000D03*
X90950000Y-54950000D03*
X79050000Y-54950000D03*
X79050000Y-45050000D03*
D13*
X83025000Y-48025000D03*
X83025000Y-50000000D03*
X83025000Y-51975000D03*
X85000000Y-48025000D03*
X85000000Y-50000000D03*
X85000000Y-51975000D03*
D14*
X86975000Y-48025000D03*
D13*
X86975000Y-50000000D03*
X86975000Y-51975000D03*
D15*
X89800000Y-45100000D03*
X89000000Y-45100000D03*
X88200000Y-45100000D03*
X87400000Y-45100000D03*
X86600000Y-45100000D03*
X85800000Y-45100000D03*
X85000000Y-45100000D03*
X84200000Y-45100000D03*
X83400000Y-45100000D03*
X82600000Y-45100000D03*
X81800000Y-45100000D03*
X81000000Y-45100000D03*
X80200000Y-45100000D03*
D16*
X79100000Y-46000000D03*
X79100000Y-46800000D03*
X79100000Y-47600000D03*
X79100000Y-48400000D03*
X79100000Y-49200000D03*
X79100000Y-50000000D03*
X79100000Y-50800000D03*
X79100000Y-51600000D03*
X79100000Y-52400000D03*
X79100000Y-53200000D03*
X79100000Y-54000000D03*
D15*
X80200000Y-54900000D03*
X81000000Y-54900000D03*
X81800000Y-54900000D03*
X82600000Y-54900000D03*
X83400000Y-54900000D03*
X84200000Y-54900000D03*
X85000000Y-54900000D03*
X85800000Y-54900000D03*
X86600000Y-54900000D03*
X87400000Y-54900000D03*
X88200000Y-54900000D03*
X89000000Y-54900000D03*
X89800000Y-54900000D03*
D16*
X90900000Y-54000000D03*
X90900000Y-53200000D03*
X90900000Y-52400000D03*
X90900000Y-51600000D03*
X90900000Y-50800000D03*
X90900000Y-50000000D03*
X90900000Y-49200000D03*
X90900000Y-48400000D03*
X90900000Y-47600000D03*
X90900000Y-46800000D03*
X90900000Y-46000000D03*
%TD*%
D17*
%TO.C,C17*%
X47480000Y-39500000D03*
X46520000Y-39500000D03*
%TD*%
D10*
%TO.C,C21*%
X40520000Y-56000000D03*
X41480000Y-56000000D03*
%TD*%
D17*
%TO.C,C28*%
X51980000Y-39500000D03*
X51020000Y-39500000D03*
%TD*%
D18*
%TO.C,U2*%
X84050000Y-61637500D03*
X85950000Y-61637500D03*
X85950000Y-59362500D03*
X85000000Y-59362500D03*
X84050000Y-59362500D03*
%TD*%
D10*
%TO.C,C16*%
X88200000Y-57000000D03*
X87240000Y-57000000D03*
%TD*%
%TO.C,C27*%
X55520000Y-41000000D03*
X56480000Y-41000000D03*
%TD*%
D19*
%TO.C,J2*%
X75065000Y-47600000D03*
X75065000Y-44000000D03*
X76335000Y-47600000D03*
X76335000Y-44000000D03*
%TD*%
D17*
%TO.C,C22*%
X42980000Y-57500000D03*
X42020000Y-57500000D03*
%TD*%
%TO.C,C15*%
X81800000Y-57020000D03*
X82760000Y-57020000D03*
%TD*%
D20*
%TO.C,J7*%
X42005000Y-51950000D03*
X42005000Y-48050000D03*
X40735000Y-51950000D03*
X40735000Y-48050000D03*
X39465000Y-51950000D03*
X39465000Y-48050000D03*
X38195000Y-51950000D03*
X38195000Y-48050000D03*
%TD*%
D17*
%TO.C,C25*%
X53480000Y-60500000D03*
X52520000Y-60500000D03*
%TD*%
D20*
%TO.C,J5*%
X58665000Y-43850000D03*
X58665000Y-47750000D03*
X59935000Y-43850000D03*
X59935000Y-47750000D03*
%TD*%
D17*
%TO.C,C19*%
X42980000Y-42500000D03*
X42020000Y-42500000D03*
%TD*%
D19*
%TO.C,J4*%
X96805000Y-48200000D03*
X96805000Y-51800000D03*
X95535000Y-48200000D03*
X95535000Y-51800000D03*
X94265000Y-48200000D03*
X94265000Y-51800000D03*
X92995000Y-48200000D03*
X92995000Y-51800000D03*
%TD*%
D17*
%TO.C,C9*%
X81820000Y-61900000D03*
X82780000Y-61900000D03*
%TD*%
%TO.C,C24*%
X47480000Y-60500000D03*
X46520000Y-60500000D03*
%TD*%
D21*
%TO.C,R7*%
X87300000Y-59390000D03*
X87300000Y-60410000D03*
%TD*%
D19*
%TO.C,J3*%
X75065000Y-56000000D03*
X75065000Y-52400000D03*
X76335000Y-56000000D03*
X76335000Y-52400000D03*
%TD*%
D10*
%TO.C,C18*%
X43520000Y-41000000D03*
X44480000Y-41000000D03*
%TD*%
D22*
%TO.C,D2*%
X86340000Y-58100000D03*
X86800000Y-58100000D03*
%TD*%
D10*
%TO.C,C23*%
X43520000Y-59000000D03*
X44480000Y-59000000D03*
%TD*%
%TO.C,C26*%
X55520000Y-59000000D03*
X56480000Y-59000000D03*
%TD*%
D20*
%TO.C,J6*%
X58665000Y-52250000D03*
X58665000Y-56150000D03*
X59935000Y-52250000D03*
X59935000Y-56150000D03*
%TD*%
D17*
%TO.C,C8*%
X81820000Y-59500000D03*
X82780000Y-59500000D03*
%TD*%
M02*
