M48
; DRILL file {KiCad 8.0.2-1} date 2025-04-12T14:57:47-0700
; FORMAT={-:-/ absolute / metric / decimal}
; #@! TF.CreationDate,2025-04-12T14:57:47-07:00
; #@! TF.GenerationSoftware,Kicad,Pcbnew,8.0.2-1
; #@! TF.FileFunction,Plated,1,4,PTH
FMAT,2
METRIC
; #@! TA.AperFunction,Plated,PTH,ViaDrill
T1C0.300
; #@! TA.AperFunction,Plated,PTH,ComponentDrill
T2C0.600
%
G90
G05
T1
X39.075Y-63.925
X39.075Y-66.925
X40.575Y-59.425
X40.575Y-60.925
X40.575Y-62.425
X40.575Y-68.425
X40.575Y-69.925
X40.575Y-71.425
X41.425Y-58.575
X41.425Y-70.575
X42.075Y-57.925
X42.075Y-65.425
X42.075Y-72.925
X42.925Y-72.075
X43.575Y-56.425
X43.575Y-74.425
X44.425Y-55.575
X44.425Y-73.575
X46.575Y-54.925
X46.575Y-75.925
X47.425Y-54.075
X47.425Y-75.075
X51.075Y-54.925
X51.825Y-54.075
X52.575Y-75.925
X53.325Y-54.925
X53.425Y-75.075
X55.575Y-56.425
X55.575Y-74.425
X56.425Y-55.575
X56.425Y-58.575
X56.425Y-73.575
X57.075Y-62.425
X57.075Y-69.925
X57.925Y-57.075
X58.575Y-59.425
X58.575Y-60.925
X58.575Y-63.925
X58.575Y-65.425
X58.575Y-68.425
X58.575Y-71.425
X60.075Y-66.925
X73.82Y-68.1
X74.85Y-58.8
X76.335Y-62.6
X76.335Y-71.0
X76.35Y-60.85
X76.55Y-58.8
X78.8Y-72.2
X79.05Y-60.05
X79.05Y-69.95
X79.1Y-67.4
X79.1Y-68.2
X80.6Y-65.0
X81.5Y-62.8
X81.5Y-63.98
X81.8Y-71.99
X81.82Y-74.5
X81.82Y-76.9
X82.6Y-71.99
X82.7Y-66.0
X84.0Y-65.0
X84.05Y-76.638
X85.0Y-64.2
X85.0Y-65.8
X85.0Y-74.062
X85.68Y-67.7
X86.0Y-65.0
X86.975Y-65.0
X87.4Y-71.99
X87.5Y-68.7
X88.2Y-69.9
X88.2Y-71.99
X88.5Y-63.09
X88.5Y-64.11
X88.8Y-69.1
X89.0Y-61.2
X89.0Y-68.318
X89.19Y-62.46
X89.5Y-64.11
X90.9Y-62.6
X90.95Y-60.05
X91.2Y-71.3
X92.0Y-67.1
X92.3Y-57.92
X92.3Y-58.88
X94.3Y-64.9
X94.55Y-69.5
X95.335Y-63.2
X95.335Y-66.8
T2
G00X80.68Y-72.04
M15
G01X80.68Y-73.14
M16
G05
G00X80.68Y-76.47
M15
G01X80.68Y-77.07
M16
G05
G00X89.32Y-72.04
M15
G01X89.32Y-73.14
M16
G05
G00X89.32Y-76.47
M15
G01X89.32Y-77.07
M16
G05
M30
