%TF.GenerationSoftware,KiCad,Pcbnew,8.0.2-1*%
%TF.CreationDate,2025-02-11T08:26:35-08:00*%
%TF.ProjectId,Small_Pendant,536d616c-6c5f-4506-956e-64616e742e6b,rev?*%
%TF.SameCoordinates,Original*%
%TF.FileFunction,Copper,L2,Inr*%
%TF.FilePolarity,Positive*%
%FSLAX46Y46*%
G04 Gerber Fmt 4.6, Leading zero omitted, Abs format (unit mm)*
G04 Created by KiCad (PCBNEW 8.0.2-1) date 2025-02-11 08:26:35*
%MOMM*%
%LPD*%
G01*
G04 APERTURE LIST*
%TA.AperFunction,ComponentPad*%
%ADD10R,1.700000X1.700000*%
%TD*%
%TA.AperFunction,ComponentPad*%
%ADD11O,1.700000X1.700000*%
%TD*%
%TA.AperFunction,ViaPad*%
%ADD12C,0.600000*%
%TD*%
G04 APERTURE END LIST*
D10*
%TO.N,Earth*%
%TO.C,J1*%
X52540000Y-36200000D03*
D11*
%TO.N,DATA_IN*%
X50000000Y-36200000D03*
%TO.N,+5V*%
X47460000Y-36200000D03*
%TD*%
D12*
%TO.N,+5V*%
X38325000Y-47425000D03*
X40600000Y-57100000D03*
X54200000Y-60200000D03*
X57600000Y-41400000D03*
X50700000Y-38300000D03*
X58700000Y-57200000D03*
X45500000Y-60200000D03*
X48900000Y-38300000D03*
X61700000Y-47750000D03*
X39700000Y-44400000D03*
X38400000Y-50500000D03*
X60100000Y-54200000D03*
X42750000Y-41500000D03*
X39100000Y-54200000D03*
%TO.N,Earth*%
X54400000Y-39800000D03*
X59250000Y-42900000D03*
X60200000Y-55600000D03*
X60700000Y-45800000D03*
X50000000Y-61600000D03*
X42400000Y-58500000D03*
X45500000Y-40000000D03*
X48500000Y-61600000D03*
X38200000Y-52250000D03*
X57200000Y-58600000D03*
X39400000Y-55500000D03*
X41300000Y-42900000D03*
X51750000Y-61600000D03*
X39887901Y-45891311D03*
X61700000Y-49500000D03*
X61500000Y-52600000D03*
%TD*%
%TA.AperFunction,Conductor*%
%TO.N,+5V*%
G36*
X46558489Y-34979685D02*
G01*
X46604244Y-35032489D01*
X46614188Y-35101647D01*
X46585163Y-35165203D01*
X46579131Y-35171681D01*
X46421891Y-35328920D01*
X46421886Y-35328926D01*
X46286400Y-35522420D01*
X46286399Y-35522422D01*
X46186570Y-35736507D01*
X46186567Y-35736513D01*
X46129364Y-35949999D01*
X46129364Y-35950000D01*
X47026988Y-35950000D01*
X46994075Y-36007007D01*
X46960000Y-36134174D01*
X46960000Y-36265826D01*
X46994075Y-36392993D01*
X47026988Y-36450000D01*
X46129364Y-36450000D01*
X46186567Y-36663486D01*
X46186570Y-36663492D01*
X46286399Y-36877578D01*
X46421894Y-37071082D01*
X46588917Y-37238105D01*
X46782421Y-37373600D01*
X46996507Y-37473429D01*
X46996516Y-37473433D01*
X47210000Y-37530634D01*
X47210000Y-36633012D01*
X47267007Y-36665925D01*
X47394174Y-36700000D01*
X47525826Y-36700000D01*
X47652993Y-36665925D01*
X47710000Y-36633012D01*
X47710000Y-37530633D01*
X47923483Y-37473433D01*
X47923492Y-37473429D01*
X48137578Y-37373600D01*
X48331082Y-37238105D01*
X48498105Y-37071082D01*
X48633600Y-36877578D01*
X48733429Y-36663492D01*
X48733433Y-36663483D01*
X48766158Y-36541350D01*
X48802522Y-36481690D01*
X48865369Y-36451160D01*
X48934745Y-36459454D01*
X48988623Y-36503939D01*
X49004593Y-36537447D01*
X49024768Y-36603954D01*
X49122315Y-36786450D01*
X49122317Y-36786452D01*
X49253589Y-36946410D01*
X49350209Y-37025702D01*
X49413550Y-37077685D01*
X49596046Y-37175232D01*
X49794066Y-37235300D01*
X49794065Y-37235300D01*
X49812529Y-37237118D01*
X50000000Y-37255583D01*
X50205934Y-37235300D01*
X50403954Y-37175232D01*
X50586450Y-37077685D01*
X50746410Y-36946410D01*
X50877685Y-36786450D01*
X50975232Y-36603954D01*
X51035300Y-36405934D01*
X51055583Y-36200000D01*
X51035300Y-35994066D01*
X50975232Y-35796046D01*
X50877685Y-35613550D01*
X50802897Y-35522420D01*
X50746410Y-35453589D01*
X50596121Y-35330252D01*
X50586450Y-35322315D01*
X50403954Y-35224768D01*
X50331074Y-35202660D01*
X50272636Y-35164363D01*
X50244180Y-35100551D01*
X50254740Y-35031484D01*
X50300964Y-34979090D01*
X50367070Y-34960000D01*
X51504013Y-34960000D01*
X51571052Y-34979685D01*
X51616807Y-35032489D01*
X51626751Y-35101647D01*
X51597726Y-35165203D01*
X51572904Y-35187102D01*
X51545447Y-35205447D01*
X51501132Y-35271769D01*
X51501131Y-35271770D01*
X51489500Y-35330247D01*
X51489500Y-37069752D01*
X51501131Y-37128229D01*
X51501132Y-37128230D01*
X51545447Y-37194552D01*
X51611769Y-37238867D01*
X51611770Y-37238868D01*
X51670247Y-37250499D01*
X51670250Y-37250500D01*
X51670252Y-37250500D01*
X53409750Y-37250500D01*
X53409751Y-37250499D01*
X53424568Y-37247552D01*
X53468229Y-37238868D01*
X53468229Y-37238867D01*
X53468231Y-37238867D01*
X53534552Y-37194552D01*
X53578867Y-37128231D01*
X53578867Y-37128229D01*
X53578868Y-37128229D01*
X53588922Y-37077682D01*
X53590500Y-37069748D01*
X53590500Y-35330252D01*
X53590500Y-35330249D01*
X53590499Y-35330247D01*
X53578868Y-35271770D01*
X53578867Y-35271769D01*
X53534552Y-35205447D01*
X53507096Y-35187102D01*
X53462291Y-35133490D01*
X53453584Y-35064165D01*
X53483739Y-35001137D01*
X53543182Y-34964418D01*
X53575987Y-34960000D01*
X54175500Y-34960000D01*
X54242539Y-34979685D01*
X54288294Y-35032489D01*
X54299500Y-35084000D01*
X54299500Y-37698623D01*
X54299485Y-37698674D01*
X54299485Y-37750000D01*
X54299485Y-37804573D01*
X54320782Y-37911621D01*
X54362555Y-38012457D01*
X54423201Y-38103204D01*
X54425822Y-38105824D01*
X54433990Y-38115512D01*
X54436633Y-38118019D01*
X54462499Y-38142555D01*
X54464774Y-38144771D01*
X54488576Y-38168567D01*
X54490221Y-38170212D01*
X54490846Y-38170606D01*
X54493590Y-38172387D01*
X54494206Y-38172799D01*
X54494502Y-38172912D01*
X54494503Y-38172913D01*
X54527808Y-38185690D01*
X54530786Y-38186878D01*
X54575412Y-38205358D01*
X54575537Y-38205409D01*
X55176947Y-38455486D01*
X55183180Y-38458283D01*
X55809402Y-38760454D01*
X55815496Y-38763605D01*
X56424020Y-39100067D01*
X56429915Y-39103544D01*
X56930602Y-39417857D01*
X57018793Y-39473220D01*
X57024510Y-39477034D01*
X57591984Y-39878818D01*
X57597485Y-39882946D01*
X58141799Y-40315597D01*
X58147028Y-40319995D01*
X58666511Y-40782184D01*
X58671515Y-40786891D01*
X59164551Y-41277181D01*
X59169274Y-41282147D01*
X59603512Y-41764760D01*
X59634340Y-41799022D01*
X59638800Y-41804264D01*
X60074478Y-42346149D01*
X60078639Y-42351630D01*
X60483569Y-42916830D01*
X60487420Y-42922533D01*
X60860376Y-43509333D01*
X60863905Y-43515241D01*
X61203734Y-44121829D01*
X61206930Y-44127924D01*
X61512590Y-44752447D01*
X61515442Y-44758710D01*
X61689553Y-45170921D01*
X61760988Y-45340045D01*
X61785973Y-45399196D01*
X61788474Y-45405608D01*
X62023063Y-46060142D01*
X62025204Y-46066682D01*
X62223120Y-46733217D01*
X62224895Y-46739865D01*
X62385524Y-47416334D01*
X62386928Y-47423072D01*
X62498049Y-48042058D01*
X62500000Y-48063968D01*
X62500000Y-51915635D01*
X62498506Y-51934828D01*
X62441134Y-52301026D01*
X62439880Y-52307792D01*
X62294323Y-52987667D01*
X62292696Y-52994354D01*
X62109643Y-53665114D01*
X62107648Y-53671700D01*
X61887662Y-54331283D01*
X61885304Y-54337749D01*
X61629072Y-54984097D01*
X61626360Y-54990421D01*
X61334654Y-55621579D01*
X61331594Y-55627744D01*
X61005336Y-56241723D01*
X61001940Y-56247708D01*
X60642103Y-56842673D01*
X60638379Y-56848460D01*
X60246108Y-57422519D01*
X60242069Y-57428091D01*
X59818562Y-57979497D01*
X59814221Y-57984837D01*
X59360742Y-58511936D01*
X59356110Y-58517026D01*
X58874117Y-59018124D01*
X58869211Y-59022949D01*
X58360150Y-59496548D01*
X58354983Y-59501094D01*
X57820444Y-59945711D01*
X57815034Y-59949964D01*
X57256632Y-60364258D01*
X57250993Y-60368203D01*
X56670481Y-60750870D01*
X56664632Y-60754497D01*
X56063771Y-61104379D01*
X56057730Y-61107675D01*
X55438415Y-61423666D01*
X55432201Y-61426623D01*
X54796275Y-61707787D01*
X54789906Y-61710394D01*
X54139379Y-61955838D01*
X54132876Y-61958088D01*
X53469722Y-62167069D01*
X53463103Y-62168954D01*
X52789383Y-62340821D01*
X52782670Y-62342336D01*
X52100467Y-62476561D01*
X52093680Y-62477702D01*
X51405057Y-62573875D01*
X51398218Y-62574637D01*
X50715463Y-62631614D01*
X50703911Y-62632038D01*
X49101604Y-62616015D01*
X49092532Y-62615591D01*
X48601781Y-62574637D01*
X48594942Y-62573875D01*
X47906319Y-62477702D01*
X47899532Y-62476561D01*
X47217329Y-62342336D01*
X47210616Y-62340821D01*
X46536896Y-62168954D01*
X46530287Y-62167071D01*
X46190369Y-62059953D01*
X45867123Y-61958088D01*
X45860620Y-61955838D01*
X45210093Y-61710394D01*
X45203724Y-61707787D01*
X44959935Y-61600000D01*
X47994353Y-61600000D01*
X48014834Y-61742456D01*
X48074622Y-61873371D01*
X48074623Y-61873373D01*
X48168872Y-61982143D01*
X48289947Y-62059953D01*
X48289950Y-62059954D01*
X48289949Y-62059954D01*
X48428036Y-62100499D01*
X48428038Y-62100500D01*
X48428039Y-62100500D01*
X48571962Y-62100500D01*
X48571962Y-62100499D01*
X48710053Y-62059953D01*
X48831128Y-61982143D01*
X48925377Y-61873373D01*
X48985165Y-61742457D01*
X49005647Y-61600000D01*
X49494353Y-61600000D01*
X49514834Y-61742456D01*
X49574622Y-61873371D01*
X49574623Y-61873373D01*
X49668872Y-61982143D01*
X49789947Y-62059953D01*
X49789950Y-62059954D01*
X49789949Y-62059954D01*
X49928036Y-62100499D01*
X49928038Y-62100500D01*
X49928039Y-62100500D01*
X50071962Y-62100500D01*
X50071962Y-62100499D01*
X50210053Y-62059953D01*
X50331128Y-61982143D01*
X50425377Y-61873373D01*
X50485165Y-61742457D01*
X50505647Y-61600000D01*
X51244353Y-61600000D01*
X51264834Y-61742456D01*
X51324622Y-61873371D01*
X51324623Y-61873373D01*
X51418872Y-61982143D01*
X51539947Y-62059953D01*
X51539950Y-62059954D01*
X51539949Y-62059954D01*
X51678036Y-62100499D01*
X51678038Y-62100500D01*
X51678039Y-62100500D01*
X51821962Y-62100500D01*
X51821962Y-62100499D01*
X51960053Y-62059953D01*
X52081128Y-61982143D01*
X52175377Y-61873373D01*
X52235165Y-61742457D01*
X52255647Y-61600000D01*
X52235165Y-61457543D01*
X52175377Y-61326627D01*
X52081128Y-61217857D01*
X51960053Y-61140047D01*
X51960051Y-61140046D01*
X51960049Y-61140045D01*
X51960050Y-61140045D01*
X51821963Y-61099500D01*
X51821961Y-61099500D01*
X51678039Y-61099500D01*
X51678036Y-61099500D01*
X51539949Y-61140045D01*
X51418873Y-61217856D01*
X51324623Y-61326626D01*
X51324622Y-61326628D01*
X51264834Y-61457543D01*
X51244353Y-61600000D01*
X50505647Y-61600000D01*
X50485165Y-61457543D01*
X50425377Y-61326627D01*
X50331128Y-61217857D01*
X50210053Y-61140047D01*
X50210051Y-61140046D01*
X50210049Y-61140045D01*
X50210050Y-61140045D01*
X50071963Y-61099500D01*
X50071961Y-61099500D01*
X49928039Y-61099500D01*
X49928036Y-61099500D01*
X49789949Y-61140045D01*
X49668873Y-61217856D01*
X49574623Y-61326626D01*
X49574622Y-61326628D01*
X49514834Y-61457543D01*
X49494353Y-61600000D01*
X49005647Y-61600000D01*
X48985165Y-61457543D01*
X48925377Y-61326627D01*
X48831128Y-61217857D01*
X48710053Y-61140047D01*
X48710051Y-61140046D01*
X48710049Y-61140045D01*
X48710050Y-61140045D01*
X48571963Y-61099500D01*
X48571961Y-61099500D01*
X48428039Y-61099500D01*
X48428036Y-61099500D01*
X48289949Y-61140045D01*
X48168873Y-61217856D01*
X48074623Y-61326626D01*
X48074622Y-61326628D01*
X48014834Y-61457543D01*
X47994353Y-61600000D01*
X44959935Y-61600000D01*
X44567798Y-61426623D01*
X44561584Y-61423666D01*
X43942269Y-61107675D01*
X43936228Y-61104379D01*
X43335367Y-60754497D01*
X43329518Y-60750870D01*
X42749006Y-60368203D01*
X42743389Y-60364273D01*
X42184959Y-59949959D01*
X42179555Y-59945711D01*
X41909550Y-59721127D01*
X41645006Y-59501085D01*
X41639859Y-59496557D01*
X41214146Y-59100500D01*
X41130788Y-59022949D01*
X41125882Y-59018124D01*
X40643889Y-58517026D01*
X40639257Y-58511936D01*
X40628988Y-58500000D01*
X41894353Y-58500000D01*
X41914834Y-58642456D01*
X41960504Y-58742457D01*
X41974623Y-58773373D01*
X42068872Y-58882143D01*
X42189947Y-58959953D01*
X42189950Y-58959954D01*
X42189949Y-58959954D01*
X42328036Y-59000499D01*
X42328038Y-59000500D01*
X42328039Y-59000500D01*
X42471962Y-59000500D01*
X42471962Y-59000499D01*
X42610053Y-58959953D01*
X42731128Y-58882143D01*
X42825377Y-58773373D01*
X42885165Y-58642457D01*
X42891269Y-58600000D01*
X56694353Y-58600000D01*
X56714834Y-58742456D01*
X56728953Y-58773371D01*
X56774623Y-58873373D01*
X56868872Y-58982143D01*
X56989947Y-59059953D01*
X56989950Y-59059954D01*
X56989949Y-59059954D01*
X57128036Y-59100499D01*
X57128038Y-59100500D01*
X57128039Y-59100500D01*
X57271962Y-59100500D01*
X57271962Y-59100499D01*
X57410053Y-59059953D01*
X57531128Y-58982143D01*
X57625377Y-58873373D01*
X57685165Y-58742457D01*
X57705647Y-58600000D01*
X57685165Y-58457543D01*
X57625377Y-58326627D01*
X57531128Y-58217857D01*
X57410053Y-58140047D01*
X57410051Y-58140046D01*
X57410049Y-58140045D01*
X57410050Y-58140045D01*
X57271963Y-58099500D01*
X57271961Y-58099500D01*
X57128039Y-58099500D01*
X57128036Y-58099500D01*
X56989949Y-58140045D01*
X56868873Y-58217856D01*
X56774623Y-58326626D01*
X56774622Y-58326628D01*
X56714834Y-58457543D01*
X56694353Y-58600000D01*
X42891269Y-58600000D01*
X42905647Y-58500000D01*
X42885165Y-58357543D01*
X42825377Y-58226627D01*
X42731128Y-58117857D01*
X42610053Y-58040047D01*
X42610051Y-58040046D01*
X42610049Y-58040045D01*
X42610050Y-58040045D01*
X42471963Y-57999500D01*
X42471961Y-57999500D01*
X42328039Y-57999500D01*
X42328036Y-57999500D01*
X42189949Y-58040045D01*
X42068873Y-58117856D01*
X41974623Y-58226626D01*
X41974622Y-58226628D01*
X41914834Y-58357543D01*
X41894353Y-58500000D01*
X40628988Y-58500000D01*
X40479830Y-58326627D01*
X40185770Y-57984828D01*
X40181437Y-57979497D01*
X39757930Y-57428091D01*
X39753891Y-57422519D01*
X39583756Y-57173540D01*
X39361620Y-56848460D01*
X39357896Y-56842673D01*
X38998059Y-56247708D01*
X38994663Y-56241723D01*
X38888697Y-56042307D01*
X38874622Y-55973873D01*
X38899781Y-55908690D01*
X38956187Y-55867456D01*
X39025931Y-55863264D01*
X39065237Y-55879807D01*
X39068872Y-55882143D01*
X39189947Y-55959953D01*
X39189950Y-55959954D01*
X39189949Y-55959954D01*
X39328036Y-56000499D01*
X39328038Y-56000500D01*
X39328039Y-56000500D01*
X39471962Y-56000500D01*
X39471962Y-56000499D01*
X39610053Y-55959953D01*
X39731128Y-55882143D01*
X39825377Y-55773373D01*
X39885165Y-55642457D01*
X39891269Y-55600000D01*
X59694353Y-55600000D01*
X59714834Y-55742456D01*
X59728953Y-55773371D01*
X59774623Y-55873373D01*
X59868872Y-55982143D01*
X59989947Y-56059953D01*
X59989950Y-56059954D01*
X59989949Y-56059954D01*
X60128036Y-56100499D01*
X60128038Y-56100500D01*
X60128039Y-56100500D01*
X60271962Y-56100500D01*
X60271962Y-56100499D01*
X60410053Y-56059953D01*
X60531128Y-55982143D01*
X60625377Y-55873373D01*
X60685165Y-55742457D01*
X60705647Y-55600000D01*
X60685165Y-55457543D01*
X60625377Y-55326627D01*
X60531128Y-55217857D01*
X60410053Y-55140047D01*
X60410051Y-55140046D01*
X60410049Y-55140045D01*
X60410050Y-55140045D01*
X60271963Y-55099500D01*
X60271961Y-55099500D01*
X60128039Y-55099500D01*
X60128036Y-55099500D01*
X59989949Y-55140045D01*
X59868873Y-55217856D01*
X59774623Y-55326626D01*
X59774622Y-55326628D01*
X59714834Y-55457543D01*
X59694353Y-55600000D01*
X39891269Y-55600000D01*
X39905647Y-55500000D01*
X39885165Y-55357543D01*
X39825377Y-55226627D01*
X39731128Y-55117857D01*
X39610053Y-55040047D01*
X39610051Y-55040046D01*
X39610049Y-55040045D01*
X39610050Y-55040045D01*
X39471963Y-54999500D01*
X39471961Y-54999500D01*
X39328039Y-54999500D01*
X39328036Y-54999500D01*
X39189949Y-55040045D01*
X39068873Y-55117856D01*
X38974623Y-55226626D01*
X38974622Y-55226628D01*
X38914834Y-55357543D01*
X38894353Y-55500000D01*
X38894353Y-55500001D01*
X38902251Y-55554937D01*
X38892307Y-55624096D01*
X38846551Y-55676899D01*
X38779512Y-55696583D01*
X38712472Y-55676898D01*
X38670015Y-55630773D01*
X38668390Y-55627714D01*
X38665352Y-55621595D01*
X38373631Y-54990402D01*
X38370935Y-54984116D01*
X38114690Y-54337737D01*
X38112337Y-54331283D01*
X37983103Y-53943802D01*
X37892348Y-53671690D01*
X37890356Y-53665114D01*
X37736270Y-53100499D01*
X37707300Y-52994343D01*
X37705676Y-52987667D01*
X37652042Y-52737149D01*
X37657255Y-52667478D01*
X37699310Y-52611682D01*
X37764855Y-52587481D01*
X37833078Y-52602557D01*
X37867006Y-52629990D01*
X37868872Y-52632143D01*
X37989947Y-52709953D01*
X37989950Y-52709954D01*
X37989949Y-52709954D01*
X38128036Y-52750499D01*
X38128038Y-52750500D01*
X38128039Y-52750500D01*
X38271962Y-52750500D01*
X38271962Y-52750499D01*
X38410053Y-52709953D01*
X38531128Y-52632143D01*
X38558980Y-52600000D01*
X60994353Y-52600000D01*
X61014834Y-52742456D01*
X61018508Y-52750500D01*
X61074623Y-52873373D01*
X61168872Y-52982143D01*
X61289947Y-53059953D01*
X61289950Y-53059954D01*
X61289949Y-53059954D01*
X61428036Y-53100499D01*
X61428038Y-53100500D01*
X61428039Y-53100500D01*
X61571962Y-53100500D01*
X61571962Y-53100499D01*
X61710053Y-53059953D01*
X61831128Y-52982143D01*
X61925377Y-52873373D01*
X61985165Y-52742457D01*
X62005647Y-52600000D01*
X61985165Y-52457543D01*
X61925377Y-52326627D01*
X61831128Y-52217857D01*
X61710053Y-52140047D01*
X61710051Y-52140046D01*
X61710049Y-52140045D01*
X61710050Y-52140045D01*
X61571963Y-52099500D01*
X61571961Y-52099500D01*
X61428039Y-52099500D01*
X61428036Y-52099500D01*
X61289949Y-52140045D01*
X61168873Y-52217856D01*
X61074623Y-52326626D01*
X61074622Y-52326628D01*
X61014834Y-52457543D01*
X60994353Y-52600000D01*
X38558980Y-52600000D01*
X38625377Y-52523373D01*
X38685165Y-52392457D01*
X38705647Y-52250000D01*
X38685165Y-52107543D01*
X38625377Y-51976627D01*
X38531128Y-51867857D01*
X38410053Y-51790047D01*
X38410051Y-51790046D01*
X38410049Y-51790045D01*
X38410050Y-51790045D01*
X38271963Y-51749500D01*
X38271961Y-51749500D01*
X38128039Y-51749500D01*
X38128036Y-51749500D01*
X37989949Y-51790045D01*
X37868873Y-51867856D01*
X37774623Y-51976626D01*
X37747562Y-52035881D01*
X37701806Y-52088684D01*
X37634766Y-52108368D01*
X37567727Y-52088683D01*
X37521973Y-52035878D01*
X37512262Y-52003560D01*
X37501494Y-51934827D01*
X37500000Y-51915635D01*
X37500000Y-49500000D01*
X61194353Y-49500000D01*
X61214834Y-49642456D01*
X61241403Y-49700632D01*
X61274623Y-49773373D01*
X61368872Y-49882143D01*
X61489947Y-49959953D01*
X61489950Y-49959954D01*
X61489949Y-49959954D01*
X61628036Y-50000499D01*
X61628038Y-50000500D01*
X61628039Y-50000500D01*
X61771962Y-50000500D01*
X61771962Y-50000499D01*
X61910053Y-49959953D01*
X62031128Y-49882143D01*
X62125377Y-49773373D01*
X62185165Y-49642457D01*
X62205647Y-49500000D01*
X62185165Y-49357543D01*
X62125377Y-49226627D01*
X62031128Y-49117857D01*
X61910053Y-49040047D01*
X61910051Y-49040046D01*
X61910049Y-49040045D01*
X61910050Y-49040045D01*
X61771963Y-48999500D01*
X61771961Y-48999500D01*
X61628039Y-48999500D01*
X61628036Y-48999500D01*
X61489949Y-49040045D01*
X61368873Y-49117856D01*
X61274623Y-49226626D01*
X61274622Y-49226628D01*
X61214834Y-49357543D01*
X61194353Y-49500000D01*
X37500000Y-49500000D01*
X37500000Y-48063968D01*
X37501951Y-48042058D01*
X37588110Y-47562117D01*
X37613075Y-47423051D01*
X37614468Y-47416362D01*
X37775109Y-46739845D01*
X37776879Y-46733217D01*
X37890293Y-46351265D01*
X37974800Y-46066664D01*
X37976930Y-46060158D01*
X38037446Y-45891311D01*
X39382254Y-45891311D01*
X39402735Y-46033767D01*
X39416259Y-46063380D01*
X39462524Y-46164684D01*
X39556773Y-46273454D01*
X39677848Y-46351264D01*
X39677851Y-46351265D01*
X39677850Y-46351265D01*
X39815937Y-46391810D01*
X39815939Y-46391811D01*
X39815940Y-46391811D01*
X39959863Y-46391811D01*
X39959863Y-46391810D01*
X40097954Y-46351264D01*
X40219029Y-46273454D01*
X40313278Y-46164684D01*
X40373066Y-46033768D01*
X40393548Y-45891311D01*
X40380420Y-45800000D01*
X60194353Y-45800000D01*
X60214834Y-45942456D01*
X60270059Y-46063380D01*
X60274623Y-46073373D01*
X60368872Y-46182143D01*
X60489947Y-46259953D01*
X60489950Y-46259954D01*
X60489949Y-46259954D01*
X60628036Y-46300499D01*
X60628038Y-46300500D01*
X60628039Y-46300500D01*
X60771962Y-46300500D01*
X60771962Y-46300499D01*
X60910053Y-46259953D01*
X61031128Y-46182143D01*
X61125377Y-46073373D01*
X61185165Y-45942457D01*
X61205647Y-45800000D01*
X61185165Y-45657543D01*
X61125377Y-45526627D01*
X61031128Y-45417857D01*
X60910053Y-45340047D01*
X60910051Y-45340046D01*
X60910049Y-45340045D01*
X60910050Y-45340045D01*
X60771963Y-45299500D01*
X60771961Y-45299500D01*
X60628039Y-45299500D01*
X60628036Y-45299500D01*
X60489949Y-45340045D01*
X60368873Y-45417856D01*
X60274623Y-45526626D01*
X60274622Y-45526628D01*
X60214834Y-45657543D01*
X60194353Y-45800000D01*
X40380420Y-45800000D01*
X40373066Y-45748854D01*
X40313278Y-45617938D01*
X40219029Y-45509168D01*
X40097954Y-45431358D01*
X40097952Y-45431357D01*
X40097950Y-45431356D01*
X40097951Y-45431356D01*
X39959864Y-45390811D01*
X39959862Y-45390811D01*
X39815940Y-45390811D01*
X39815937Y-45390811D01*
X39677850Y-45431356D01*
X39556774Y-45509167D01*
X39462524Y-45617937D01*
X39462523Y-45617939D01*
X39402735Y-45748854D01*
X39382254Y-45891311D01*
X38037446Y-45891311D01*
X38211536Y-45405579D01*
X38214009Y-45399237D01*
X38484562Y-44758697D01*
X38487409Y-44752447D01*
X38793085Y-44127891D01*
X38796247Y-44121861D01*
X39136108Y-43515217D01*
X39139609Y-43509356D01*
X39512583Y-42922525D01*
X39516430Y-42916830D01*
X39528488Y-42900000D01*
X40794353Y-42900000D01*
X40814834Y-43042456D01*
X40874622Y-43173371D01*
X40874623Y-43173373D01*
X40968872Y-43282143D01*
X41089947Y-43359953D01*
X41089950Y-43359954D01*
X41089949Y-43359954D01*
X41228036Y-43400499D01*
X41228038Y-43400500D01*
X41228039Y-43400500D01*
X41371962Y-43400500D01*
X41371962Y-43400499D01*
X41510053Y-43359953D01*
X41631128Y-43282143D01*
X41725377Y-43173373D01*
X41785165Y-43042457D01*
X41805647Y-42900000D01*
X58744353Y-42900000D01*
X58764834Y-43042456D01*
X58824622Y-43173371D01*
X58824623Y-43173373D01*
X58918872Y-43282143D01*
X59039947Y-43359953D01*
X59039950Y-43359954D01*
X59039949Y-43359954D01*
X59178036Y-43400499D01*
X59178038Y-43400500D01*
X59178039Y-43400500D01*
X59321962Y-43400500D01*
X59321962Y-43400499D01*
X59460053Y-43359953D01*
X59581128Y-43282143D01*
X59675377Y-43173373D01*
X59735165Y-43042457D01*
X59755647Y-42900000D01*
X59735165Y-42757543D01*
X59675377Y-42626627D01*
X59581128Y-42517857D01*
X59460053Y-42440047D01*
X59460051Y-42440046D01*
X59460049Y-42440045D01*
X59460050Y-42440045D01*
X59321963Y-42399500D01*
X59321961Y-42399500D01*
X59178039Y-42399500D01*
X59178036Y-42399500D01*
X59039949Y-42440045D01*
X58918873Y-42517856D01*
X58824623Y-42626626D01*
X58824622Y-42626628D01*
X58764834Y-42757543D01*
X58744353Y-42900000D01*
X41805647Y-42900000D01*
X41785165Y-42757543D01*
X41725377Y-42626627D01*
X41631128Y-42517857D01*
X41510053Y-42440047D01*
X41510051Y-42440046D01*
X41510049Y-42440045D01*
X41510050Y-42440045D01*
X41371963Y-42399500D01*
X41371961Y-42399500D01*
X41228039Y-42399500D01*
X41228036Y-42399500D01*
X41089949Y-42440045D01*
X40968873Y-42517856D01*
X40874623Y-42626626D01*
X40874622Y-42626628D01*
X40814834Y-42757543D01*
X40794353Y-42900000D01*
X39528488Y-42900000D01*
X39630549Y-42757543D01*
X39921372Y-42351614D01*
X39925508Y-42346164D01*
X40361218Y-41804241D01*
X40365639Y-41799044D01*
X40830742Y-41282127D01*
X40835430Y-41277200D01*
X41328501Y-40786874D01*
X41333461Y-40782208D01*
X41852988Y-40319980D01*
X41858182Y-40315611D01*
X42255250Y-40000000D01*
X44994353Y-40000000D01*
X45014834Y-40142456D01*
X45032959Y-40182143D01*
X45074623Y-40273373D01*
X45168872Y-40382143D01*
X45289947Y-40459953D01*
X45289950Y-40459954D01*
X45289949Y-40459954D01*
X45428036Y-40500499D01*
X45428038Y-40500500D01*
X45428039Y-40500500D01*
X45571962Y-40500500D01*
X45571962Y-40500499D01*
X45710053Y-40459953D01*
X45831128Y-40382143D01*
X45925377Y-40273373D01*
X45985165Y-40142457D01*
X46005647Y-40000000D01*
X45985165Y-39857543D01*
X45958886Y-39800000D01*
X53894353Y-39800000D01*
X53914834Y-39942456D01*
X53941114Y-40000000D01*
X53974623Y-40073373D01*
X54068872Y-40182143D01*
X54189947Y-40259953D01*
X54189950Y-40259954D01*
X54189949Y-40259954D01*
X54328036Y-40300499D01*
X54328038Y-40300500D01*
X54328039Y-40300500D01*
X54471962Y-40300500D01*
X54471962Y-40300499D01*
X54610053Y-40259953D01*
X54731128Y-40182143D01*
X54825377Y-40073373D01*
X54885165Y-39942457D01*
X54905647Y-39800000D01*
X54885165Y-39657543D01*
X54825377Y-39526627D01*
X54731128Y-39417857D01*
X54610053Y-39340047D01*
X54610051Y-39340046D01*
X54610049Y-39340045D01*
X54610050Y-39340045D01*
X54471963Y-39299500D01*
X54471961Y-39299500D01*
X54328039Y-39299500D01*
X54328036Y-39299500D01*
X54189949Y-39340045D01*
X54068873Y-39417856D01*
X53974623Y-39526626D01*
X53974622Y-39526628D01*
X53914834Y-39657543D01*
X53894353Y-39800000D01*
X45958886Y-39800000D01*
X45925377Y-39726627D01*
X45831128Y-39617857D01*
X45710053Y-39540047D01*
X45710051Y-39540046D01*
X45710049Y-39540045D01*
X45710050Y-39540045D01*
X45571963Y-39499500D01*
X45571961Y-39499500D01*
X45428039Y-39499500D01*
X45428036Y-39499500D01*
X45289949Y-39540045D01*
X45168873Y-39617856D01*
X45074623Y-39726626D01*
X45074622Y-39726628D01*
X45014834Y-39857543D01*
X44994353Y-40000000D01*
X42255250Y-40000000D01*
X42402531Y-39882933D01*
X42407994Y-39878833D01*
X42975505Y-39477022D01*
X42981182Y-39473235D01*
X43570099Y-39103535D01*
X43575963Y-39100076D01*
X44184517Y-38763597D01*
X44190582Y-38760461D01*
X44816824Y-38458281D01*
X44823048Y-38455488D01*
X45425046Y-38205167D01*
X45436307Y-38200503D01*
X45436308Y-38200504D01*
X45469206Y-38186881D01*
X45472235Y-38185673D01*
X45505787Y-38172802D01*
X45506427Y-38172375D01*
X45509167Y-38170596D01*
X45509785Y-38170205D01*
X45510001Y-38169988D01*
X45510003Y-38169988D01*
X45535212Y-38144784D01*
X45537533Y-38142524D01*
X45563367Y-38118019D01*
X45563367Y-38118018D01*
X45565977Y-38115543D01*
X45574241Y-38105741D01*
X45576784Y-38103198D01*
X45576784Y-38103197D01*
X45576787Y-38103195D01*
X45637431Y-38012450D01*
X45679204Y-37911617D01*
X45700500Y-37804572D01*
X45700500Y-37750000D01*
X45700500Y-37710118D01*
X45700500Y-35084000D01*
X45720185Y-35016961D01*
X45772989Y-34971206D01*
X45824500Y-34960000D01*
X46491450Y-34960000D01*
X46558489Y-34979685D01*
G37*
%TD.AperFunction*%
%TD*%
M02*
