%TF.GenerationSoftware,KiCad,Pcbnew,8.0.2-1*%
%TF.CreationDate,2025-04-12T14:57:52-07:00*%
%TF.ProjectId,Small_Pendant,536d616c-6c5f-4506-956e-64616e742e6b,rev?*%
%TF.SameCoordinates,Original*%
%TF.FileFunction,Copper,L3,Inr*%
%TF.FilePolarity,Positive*%
%FSLAX46Y46*%
G04 Gerber Fmt 4.6, Leading zero omitted, Abs format (unit mm)*
G04 Created by KiCad (PCBNEW 8.0.2-1) date 2025-04-12 14:57:52*
%MOMM*%
%LPD*%
G01*
G04 APERTURE LIST*
%TA.AperFunction,ComponentPad*%
%ADD10O,1.000000X2.100000*%
%TD*%
%TA.AperFunction,ComponentPad*%
%ADD11O,1.000000X1.600000*%
%TD*%
%TA.AperFunction,ViaPad*%
%ADD12C,0.600000*%
%TD*%
%TA.AperFunction,Conductor*%
%ADD13C,0.500000*%
%TD*%
G04 APERTURE END LIST*
D10*
%TO.N,unconnected-(J1-SHIELD-PadS1)*%
%TO.C,J1*%
X80680000Y-72590000D03*
%TO.N,unconnected-(J1-SHIELD-PadS2)*%
X89320000Y-72590000D03*
D11*
%TO.N,unconnected-(J1-SHIELD-PadS3)*%
X89320000Y-76770000D03*
%TO.N,unconnected-(J1-SHIELD-PadS4)*%
X80680000Y-76770000D03*
%TD*%
D12*
%TO.N,+5V*%
X76550000Y-58800000D03*
X82600000Y-71990000D03*
X76335000Y-71000000D03*
X94300000Y-64900000D03*
X87400000Y-71990000D03*
%TO.N,DATA_IN*%
X53325000Y-54925000D03*
%TO.N,Earth*%
X88200000Y-69900000D03*
X86975000Y-65000000D03*
X85000000Y-64200000D03*
X90950000Y-60050000D03*
X88200000Y-71990000D03*
X81820000Y-74500000D03*
X85000000Y-74062500D03*
X79050000Y-60050000D03*
X95335000Y-66800000D03*
X86000000Y-65000000D03*
X85000000Y-65800000D03*
X92300000Y-57920000D03*
X82700000Y-66000000D03*
X91200000Y-71300000D03*
X73820000Y-68100000D03*
X79050000Y-69950000D03*
X85680000Y-67700000D03*
X76335000Y-62600000D03*
X81800000Y-71990000D03*
X81820000Y-76900000D03*
X95335000Y-63200000D03*
X81500000Y-62800000D03*
X84000000Y-65000000D03*
X89000000Y-61200000D03*
%TO.N,/MCU/USB_D'-*%
X79100000Y-68200000D03*
%TO.N,/MCU/USB_D'+*%
X79100000Y-67400000D03*
%TO.N,+3V3*%
X92000000Y-67100000D03*
X76350000Y-60850000D03*
X89190000Y-62460000D03*
X88500000Y-64110000D03*
X81500000Y-63980000D03*
X94550000Y-69500000D03*
X84050000Y-76637500D03*
X90900000Y-62600000D03*
%TO.N,LED_DATA*%
X80600000Y-65000000D03*
%TO.N,USR_BTN*%
X89000000Y-68318199D03*
%TO.N,CHIP_EN*%
X92300000Y-58880000D03*
%TO.N,LED_DATA_5V*%
X74850000Y-58800000D03*
%TO.N,SDA*%
X88500000Y-63090000D03*
%TO.N,SCL*%
X89500000Y-64110000D03*
%TO.N,/MCU/LED_BUILTIN*%
X88800000Y-69100000D03*
%TO.N,IMU_INT*%
X87500000Y-68700000D03*
%TO.N,GPIO9{slash}BOOT*%
X78800000Y-72200000D03*
%TO.N,GND*%
X44425000Y-55575000D03*
X44425000Y-73575000D03*
X52575000Y-75925000D03*
X39075000Y-63925000D03*
X42075000Y-72925000D03*
X58575000Y-60925000D03*
X46575000Y-54925000D03*
X58575000Y-63925000D03*
X40575000Y-69925000D03*
X56425000Y-55575000D03*
X51075000Y-54925000D03*
X41425000Y-58575000D03*
X56425000Y-58575000D03*
X41425000Y-70575000D03*
X56425000Y-73575000D03*
X40575000Y-60925000D03*
X57075000Y-69925000D03*
X39075000Y-66925000D03*
X60075000Y-66925000D03*
X42075000Y-57925000D03*
X46575000Y-75925000D03*
%TO.N,+5VL*%
X53425000Y-75075000D03*
X42075000Y-65425000D03*
X40575000Y-59425000D03*
X43575000Y-74425000D03*
X47425000Y-54075000D03*
X58575000Y-65425000D03*
X58575000Y-71425000D03*
X47425000Y-75075000D03*
X43575000Y-56425000D03*
X51825000Y-54075000D03*
X58575000Y-59425000D03*
X55575000Y-56425000D03*
X40575000Y-68425000D03*
X40575000Y-62425000D03*
X40575000Y-71425000D03*
X42925000Y-72075000D03*
X58575000Y-68425000D03*
X57925000Y-57075000D03*
X55575000Y-74425000D03*
X57075000Y-62425000D03*
%TD*%
D13*
%TO.N,+5V*%
X76335000Y-71000000D02*
X82154999Y-71000000D01*
X75250000Y-69915000D02*
X75250000Y-60100000D01*
X87400000Y-71200000D02*
X87800000Y-70800000D01*
X92400000Y-68500000D02*
X94300000Y-66600000D01*
X94300000Y-66600000D02*
X94300000Y-64900000D01*
X76335000Y-71000000D02*
X75250000Y-69915000D01*
X75250000Y-60100000D02*
X76550000Y-58800000D01*
X87800000Y-70800000D02*
X88700000Y-70800000D01*
X87400000Y-71200000D02*
X87400000Y-71990000D01*
X82154999Y-71000000D02*
X82600000Y-71445001D01*
X91000000Y-68500000D02*
X92400000Y-68500000D01*
X82600000Y-71445001D02*
X82600000Y-71990000D01*
X87400000Y-71990000D02*
X82600000Y-71990000D01*
X88700000Y-70800000D02*
X91000000Y-68500000D01*
%TD*%
%TA.AperFunction,Conductor*%
%TO.N,+5V*%
G36*
X82612618Y-71691051D02*
G01*
X83189272Y-71739106D01*
X83197232Y-71743208D01*
X83200000Y-71750766D01*
X83200000Y-72229234D01*
X83196573Y-72237507D01*
X83189272Y-72240894D01*
X82612629Y-72288947D01*
X82604099Y-72286219D01*
X82599997Y-72278259D01*
X82599957Y-72277345D01*
X82599000Y-71990000D01*
X82599957Y-71702671D01*
X82603411Y-71694411D01*
X82611696Y-71691012D01*
X82612618Y-71691051D01*
G37*
%TD.AperFunction*%
%TD*%
%TA.AperFunction,Conductor*%
%TO.N,+5V*%
G36*
X76347618Y-70701051D02*
G01*
X76924272Y-70749106D01*
X76932232Y-70753208D01*
X76935000Y-70760766D01*
X76935000Y-71239234D01*
X76931573Y-71247507D01*
X76924272Y-71250894D01*
X76347629Y-71298947D01*
X76339099Y-71296219D01*
X76334997Y-71288259D01*
X76334957Y-71287345D01*
X76334000Y-71000000D01*
X76334957Y-70712671D01*
X76338411Y-70704411D01*
X76346696Y-70701012D01*
X76347618Y-70701051D01*
G37*
%TD.AperFunction*%
%TD*%
%TA.AperFunction,Conductor*%
%TO.N,+3V3*%
G36*
X85337893Y-51890930D02*
G01*
X85344265Y-51891097D01*
X86018414Y-51926183D01*
X86024804Y-51926682D01*
X86696195Y-51996740D01*
X86702575Y-51997574D01*
X87368604Y-52102287D01*
X87369412Y-52102414D01*
X87375749Y-52103580D01*
X88036212Y-52242914D01*
X88042480Y-52244407D01*
X88498428Y-52365644D01*
X88694846Y-52417871D01*
X88701008Y-52419682D01*
X89211423Y-52584230D01*
X89343481Y-52626803D01*
X89349560Y-52628939D01*
X89980396Y-52869152D01*
X89986346Y-52871596D01*
X90603863Y-53144260D01*
X90609663Y-53147003D01*
X91212179Y-53451378D01*
X91217853Y-53454432D01*
X91803731Y-53789689D01*
X91809239Y-53793034D01*
X92140143Y-54005938D01*
X92315183Y-54118559D01*
X92376898Y-54158266D01*
X92382220Y-54161888D01*
X92657714Y-54360106D01*
X92856694Y-54503272D01*
X92864767Y-54513643D01*
X92865574Y-54512713D01*
X92950669Y-54586462D01*
X93700093Y-55235963D01*
X93703534Y-55239060D01*
X94246942Y-55747410D01*
X94252600Y-55753057D01*
X94341154Y-55847324D01*
X94796020Y-56331536D01*
X94799636Y-56335558D01*
X95483035Y-57129779D01*
X95496686Y-57143224D01*
X95838484Y-57618325D01*
X95842110Y-57623651D01*
X96207328Y-58191352D01*
X96210672Y-58196861D01*
X96545894Y-58782751D01*
X96548948Y-58788425D01*
X96853281Y-59390937D01*
X96856036Y-59396762D01*
X97128669Y-60014292D01*
X97131117Y-60020253D01*
X97371285Y-60651073D01*
X97373421Y-60657152D01*
X97580507Y-61299631D01*
X97582324Y-61305814D01*
X97755750Y-61958174D01*
X97757243Y-61964442D01*
X97896549Y-62624938D01*
X97897714Y-62631276D01*
X98002514Y-63298090D01*
X98003349Y-63304479D01*
X98073370Y-63975855D01*
X98073872Y-63982280D01*
X98108920Y-64656397D01*
X98109087Y-64662838D01*
X98109071Y-65337858D01*
X98108903Y-65344300D01*
X98073819Y-66018397D01*
X98073317Y-66024821D01*
X98003261Y-66696190D01*
X98002426Y-66702580D01*
X97897587Y-67369413D01*
X97896421Y-67375750D01*
X97757087Y-68036212D01*
X97755594Y-68042480D01*
X97582131Y-68694841D01*
X97580314Y-68701024D01*
X97373198Y-69343482D01*
X97371062Y-69349561D01*
X97130849Y-69980397D01*
X97128400Y-69986358D01*
X96855746Y-70603851D01*
X96852991Y-70609676D01*
X96548622Y-71212180D01*
X96545568Y-71217854D01*
X96210311Y-71803733D01*
X96206966Y-71809241D01*
X95841735Y-72376900D01*
X95838109Y-72382227D01*
X95496730Y-72856692D01*
X95486359Y-72864765D01*
X95487289Y-72865571D01*
X94764076Y-73700048D01*
X94760925Y-73703549D01*
X94252589Y-74246942D01*
X94246935Y-74252607D01*
X93668463Y-74796020D01*
X93664441Y-74799636D01*
X92874054Y-75479736D01*
X92857229Y-75496892D01*
X92482562Y-75769113D01*
X92478225Y-75772125D01*
X92017255Y-76077936D01*
X92012793Y-76080761D01*
X91539232Y-76366660D01*
X91534654Y-76369293D01*
X91049326Y-76634784D01*
X91044640Y-76637219D01*
X90548459Y-76881799D01*
X90543674Y-76884032D01*
X90094539Y-77082120D01*
X90025257Y-77091163D01*
X89962084Y-77061313D01*
X89925078Y-77002048D01*
X89920500Y-76968665D01*
X89920500Y-76390945D01*
X89920500Y-76390943D01*
X89879577Y-76238216D01*
X89861340Y-76206628D01*
X89800524Y-76101290D01*
X89800518Y-76101282D01*
X89688717Y-75989481D01*
X89688709Y-75989475D01*
X89551790Y-75910426D01*
X89551786Y-75910424D01*
X89551784Y-75910423D01*
X89399057Y-75869500D01*
X89240943Y-75869500D01*
X89088216Y-75910423D01*
X89088209Y-75910426D01*
X88951290Y-75989475D01*
X88951282Y-75989481D01*
X88839481Y-76101282D01*
X88839475Y-76101290D01*
X88760426Y-76238209D01*
X88760423Y-76238216D01*
X88719500Y-76390943D01*
X88719500Y-77149057D01*
X88744931Y-77243965D01*
X88760423Y-77301783D01*
X88760426Y-77301790D01*
X88839475Y-77438709D01*
X88839479Y-77438714D01*
X88839480Y-77438716D01*
X88951284Y-77550520D01*
X88951286Y-77550521D01*
X88951290Y-77550524D01*
X89041852Y-77602809D01*
X89088216Y-77629577D01*
X89240943Y-77670500D01*
X89240945Y-77670500D01*
X89245543Y-77671732D01*
X89305203Y-77708097D01*
X89335732Y-77770944D01*
X89332726Y-77825406D01*
X89302435Y-77931988D01*
X89302428Y-77935569D01*
X89302328Y-77936588D01*
X89302328Y-77987768D01*
X89302323Y-78040617D01*
X89302328Y-78040664D01*
X89302328Y-78797044D01*
X89300801Y-78816442D01*
X89290741Y-78879957D01*
X89278753Y-78916853D01*
X89254040Y-78965356D01*
X89231239Y-78996741D01*
X89192753Y-79035229D01*
X89161370Y-79058032D01*
X89112871Y-79082747D01*
X89075975Y-79094737D01*
X89037104Y-79100895D01*
X89012637Y-79104772D01*
X88993234Y-79106300D01*
X81006944Y-79106300D01*
X80987540Y-79104772D01*
X80924033Y-79094710D01*
X80887139Y-79082720D01*
X80838689Y-79058032D01*
X80838648Y-79058011D01*
X80807264Y-79035208D01*
X80768780Y-78996722D01*
X80745978Y-78965335D01*
X80721277Y-78916853D01*
X80721270Y-78916840D01*
X80709286Y-78879957D01*
X80699197Y-78816255D01*
X80697672Y-78796865D01*
X80697672Y-78040664D01*
X80697676Y-78040618D01*
X80697676Y-78039156D01*
X80697803Y-78038722D01*
X80697672Y-77970032D01*
X80697672Y-77936260D01*
X80697605Y-77935602D01*
X80697599Y-77931983D01*
X80680445Y-77871625D01*
X80667307Y-77825397D01*
X80667914Y-77755530D01*
X80706198Y-77697083D01*
X80754490Y-77671723D01*
X80759054Y-77670500D01*
X80759057Y-77670500D01*
X80911784Y-77629577D01*
X81048716Y-77550520D01*
X81160520Y-77438716D01*
X81239577Y-77301784D01*
X81257630Y-77234407D01*
X81293994Y-77174750D01*
X81356840Y-77144220D01*
X81426216Y-77152514D01*
X81471118Y-77185302D01*
X81521948Y-77243965D01*
X81521950Y-77243966D01*
X81521951Y-77243967D01*
X81630931Y-77314004D01*
X81755225Y-77350499D01*
X81755227Y-77350500D01*
X81755228Y-77350500D01*
X81884773Y-77350500D01*
X81884773Y-77350499D01*
X82009069Y-77314004D01*
X82118049Y-77243967D01*
X82202882Y-77146063D01*
X82256697Y-77028226D01*
X82275133Y-76900000D01*
X82256697Y-76771774D01*
X82202882Y-76653937D01*
X82118049Y-76556033D01*
X82009069Y-76485996D01*
X82009065Y-76485994D01*
X82009064Y-76485994D01*
X81884774Y-76449500D01*
X81884772Y-76449500D01*
X81755228Y-76449500D01*
X81755226Y-76449500D01*
X81630935Y-76485994D01*
X81630932Y-76485995D01*
X81630931Y-76485996D01*
X81588517Y-76513254D01*
X81521948Y-76556035D01*
X81498213Y-76583427D01*
X81439435Y-76621202D01*
X81369566Y-76621202D01*
X81310787Y-76583428D01*
X81281762Y-76519872D01*
X81280500Y-76502225D01*
X81280500Y-76390945D01*
X81280500Y-76390943D01*
X81239577Y-76238216D01*
X81221340Y-76206628D01*
X81160524Y-76101290D01*
X81160518Y-76101282D01*
X81048717Y-75989481D01*
X81048709Y-75989475D01*
X80911790Y-75910426D01*
X80911786Y-75910424D01*
X80911784Y-75910423D01*
X80759057Y-75869500D01*
X80600943Y-75869500D01*
X80448216Y-75910423D01*
X80448209Y-75910426D01*
X80311290Y-75989475D01*
X80311282Y-75989481D01*
X80199481Y-76101282D01*
X80199475Y-76101290D01*
X80120426Y-76238209D01*
X80120423Y-76238216D01*
X80079500Y-76390943D01*
X80079500Y-76968665D01*
X80059815Y-77035704D01*
X80007011Y-77081459D01*
X79937853Y-77091403D01*
X79905461Y-77082120D01*
X79723909Y-77002048D01*
X79456315Y-76884027D01*
X79451550Y-76881803D01*
X79078034Y-76697688D01*
X78955359Y-76637218D01*
X78950673Y-76634783D01*
X78465344Y-76369293D01*
X78460766Y-76366660D01*
X78354474Y-76302489D01*
X77987179Y-76080745D01*
X77982769Y-76077952D01*
X77540347Y-75784447D01*
X77521784Y-75772132D01*
X77517447Y-75769120D01*
X77142865Y-75496962D01*
X77134949Y-75486696D01*
X77134433Y-75487293D01*
X76973955Y-75348213D01*
X76299909Y-74764039D01*
X76296450Y-74760925D01*
X76280563Y-74746063D01*
X76017531Y-74500000D01*
X81364867Y-74500000D01*
X81383302Y-74628225D01*
X81433475Y-74738086D01*
X81437118Y-74746063D01*
X81521951Y-74843967D01*
X81630931Y-74914004D01*
X81653212Y-74920546D01*
X81755225Y-74950499D01*
X81755227Y-74950500D01*
X81755228Y-74950500D01*
X81884773Y-74950500D01*
X81884773Y-74950499D01*
X82009069Y-74914004D01*
X82118049Y-74843967D01*
X82202882Y-74746063D01*
X82256697Y-74628226D01*
X82275133Y-74500000D01*
X82256697Y-74371774D01*
X82202882Y-74253937D01*
X82118049Y-74156033D01*
X82009069Y-74085996D01*
X82009065Y-74085994D01*
X82009064Y-74085994D01*
X81929049Y-74062500D01*
X84544867Y-74062500D01*
X84563302Y-74190725D01*
X84588973Y-74246935D01*
X84617118Y-74308563D01*
X84701951Y-74406467D01*
X84810931Y-74476504D01*
X84890953Y-74500000D01*
X84935225Y-74512999D01*
X84935227Y-74513000D01*
X84935228Y-74513000D01*
X85064773Y-74513000D01*
X85064773Y-74512999D01*
X85189069Y-74476504D01*
X85298049Y-74406467D01*
X85382882Y-74308563D01*
X85436697Y-74190726D01*
X85455133Y-74062500D01*
X85436697Y-73934274D01*
X85382882Y-73816437D01*
X85298049Y-73718533D01*
X85189069Y-73648496D01*
X85189065Y-73648494D01*
X85189064Y-73648494D01*
X85064774Y-73612000D01*
X85064772Y-73612000D01*
X84935228Y-73612000D01*
X84935226Y-73612000D01*
X84810935Y-73648494D01*
X84810932Y-73648495D01*
X84810931Y-73648496D01*
X84786120Y-73664441D01*
X84701950Y-73718533D01*
X84617118Y-73816437D01*
X84617117Y-73816438D01*
X84563302Y-73934274D01*
X84544867Y-74062500D01*
X81929049Y-74062500D01*
X81884774Y-74049500D01*
X81884772Y-74049500D01*
X81755228Y-74049500D01*
X81755226Y-74049500D01*
X81630935Y-74085994D01*
X81630932Y-74085995D01*
X81630931Y-74085996D01*
X81579677Y-74118934D01*
X81521950Y-74156033D01*
X81437118Y-74253937D01*
X81437117Y-74253938D01*
X81383302Y-74371774D01*
X81364867Y-74500000D01*
X76017531Y-74500000D01*
X75753053Y-74252585D01*
X75747392Y-74246935D01*
X75667655Y-74162054D01*
X75251014Y-73718533D01*
X75203979Y-73668463D01*
X75200363Y-73664441D01*
X74516904Y-72870151D01*
X74503343Y-72856792D01*
X74161888Y-72382220D01*
X74158270Y-72376904D01*
X74044447Y-72199996D01*
X78394508Y-72199996D01*
X78394508Y-72200003D01*
X78414352Y-72325300D01*
X78414352Y-72325301D01*
X78418768Y-72333967D01*
X78471950Y-72438342D01*
X78471952Y-72438344D01*
X78471954Y-72438347D01*
X78561652Y-72528045D01*
X78561654Y-72528046D01*
X78561658Y-72528050D01*
X78674696Y-72585646D01*
X78674697Y-72585646D01*
X78674699Y-72585647D01*
X78799997Y-72605492D01*
X78800000Y-72605492D01*
X78800003Y-72605492D01*
X78925300Y-72585647D01*
X78925301Y-72585647D01*
X78925302Y-72585646D01*
X78925304Y-72585646D01*
X79038342Y-72528050D01*
X79128050Y-72438342D01*
X79185646Y-72325304D01*
X79185646Y-72325302D01*
X79185647Y-72325301D01*
X79185647Y-72325300D01*
X79205492Y-72200003D01*
X79205492Y-72199996D01*
X79185647Y-72074699D01*
X79185647Y-72074698D01*
X79185646Y-72074696D01*
X79128050Y-71961658D01*
X79128046Y-71961654D01*
X79128045Y-71961652D01*
X79038347Y-71871954D01*
X79038344Y-71871952D01*
X79038342Y-71871950D01*
X78925304Y-71814354D01*
X78925303Y-71814353D01*
X78925300Y-71814352D01*
X78800003Y-71794508D01*
X78799997Y-71794508D01*
X78674699Y-71814352D01*
X78674698Y-71814352D01*
X78599337Y-71852751D01*
X78561658Y-71871950D01*
X78561657Y-71871951D01*
X78561652Y-71871954D01*
X78471954Y-71961652D01*
X78471951Y-71961657D01*
X78414352Y-72074698D01*
X78414352Y-72074699D01*
X78394508Y-72199996D01*
X74044447Y-72199996D01*
X73963829Y-72074696D01*
X73793034Y-71809239D01*
X73789689Y-71803731D01*
X73514009Y-71321967D01*
X73454430Y-71217850D01*
X73451378Y-71212179D01*
X73444764Y-71199086D01*
X73147003Y-70609663D01*
X73144260Y-70603863D01*
X72871587Y-69986328D01*
X72869151Y-69980397D01*
X72676884Y-69475474D01*
X72628941Y-69349566D01*
X72626805Y-69343487D01*
X72550080Y-69105492D01*
X72419682Y-68701008D01*
X72417870Y-68694840D01*
X72385924Y-68574699D01*
X72351163Y-68443967D01*
X72259702Y-68100000D01*
X73364867Y-68100000D01*
X73383302Y-68228225D01*
X73437117Y-68346061D01*
X73437118Y-68346063D01*
X73521951Y-68443967D01*
X73630931Y-68514004D01*
X73755225Y-68550499D01*
X73755227Y-68550500D01*
X73755228Y-68550500D01*
X73884773Y-68550500D01*
X73884773Y-68550499D01*
X74009069Y-68514004D01*
X74118049Y-68443967D01*
X74202882Y-68346063D01*
X74256697Y-68228226D01*
X74275133Y-68100000D01*
X74256697Y-67971774D01*
X74202882Y-67853937D01*
X74118049Y-67756033D01*
X74009069Y-67685996D01*
X74009065Y-67685994D01*
X74009064Y-67685994D01*
X73884774Y-67649500D01*
X73884772Y-67649500D01*
X73755228Y-67649500D01*
X73755226Y-67649500D01*
X73630935Y-67685994D01*
X73630932Y-67685995D01*
X73630931Y-67685996D01*
X73579677Y-67718934D01*
X73521950Y-67756033D01*
X73437118Y-67853937D01*
X73437117Y-67853938D01*
X73383302Y-67971774D01*
X73364867Y-68100000D01*
X72259702Y-68100000D01*
X72244407Y-68042479D01*
X72242914Y-68036211D01*
X72103580Y-67375749D01*
X72102414Y-67369412D01*
X72012892Y-66800001D01*
X71997574Y-66702574D01*
X71996740Y-66696189D01*
X71926682Y-66024803D01*
X71926183Y-66018413D01*
X71891097Y-65344264D01*
X71890930Y-65337892D01*
X71890920Y-64928842D01*
X73859500Y-64928842D01*
X73859500Y-65071158D01*
X73874792Y-65128226D01*
X73896334Y-65208624D01*
X73896335Y-65208627D01*
X73967489Y-65331871D01*
X73967491Y-65331874D01*
X73967492Y-65331875D01*
X74068125Y-65432508D01*
X74068126Y-65432509D01*
X74068128Y-65432510D01*
X74108872Y-65456033D01*
X74191375Y-65503666D01*
X74328842Y-65540500D01*
X74328844Y-65540500D01*
X74471156Y-65540500D01*
X74471158Y-65540500D01*
X74608625Y-65503666D01*
X74663500Y-65471983D01*
X74731400Y-65455511D01*
X74797427Y-65478364D01*
X74840618Y-65533285D01*
X74849500Y-65579371D01*
X74849500Y-69862273D01*
X74849500Y-69967727D01*
X74852893Y-69980390D01*
X74876793Y-70069589D01*
X74881780Y-70078226D01*
X74929520Y-70160913D01*
X74929522Y-70160915D01*
X75600462Y-70831855D01*
X75621248Y-70859446D01*
X75622205Y-70861173D01*
X75825263Y-71101151D01*
X75995974Y-71302901D01*
X76000081Y-71307562D01*
X76000712Y-71308250D01*
X76000715Y-71308252D01*
X76001760Y-71308986D01*
X76024202Y-71329254D01*
X76036951Y-71343967D01*
X76145931Y-71414004D01*
X76194368Y-71428226D01*
X76270225Y-71450499D01*
X76270227Y-71450500D01*
X76270228Y-71450500D01*
X76323524Y-71450500D01*
X76337530Y-71451294D01*
X76340916Y-71451678D01*
X76360542Y-71453910D01*
X76937185Y-71405857D01*
X76940994Y-71404848D01*
X76941829Y-71404628D01*
X76973557Y-71400500D01*
X80170902Y-71400500D01*
X80237941Y-71420185D01*
X80283696Y-71472989D01*
X80293640Y-71542147D01*
X80264615Y-71605703D01*
X80258583Y-71612181D01*
X80199481Y-71671282D01*
X80199475Y-71671290D01*
X80120426Y-71808209D01*
X80120423Y-71808216D01*
X80079500Y-71960943D01*
X80079500Y-73219057D01*
X80098236Y-73288978D01*
X80120423Y-73371783D01*
X80120426Y-73371790D01*
X80199475Y-73508709D01*
X80199479Y-73508714D01*
X80199480Y-73508716D01*
X80311284Y-73620520D01*
X80311286Y-73620521D01*
X80311290Y-73620524D01*
X80359740Y-73648496D01*
X80448216Y-73699577D01*
X80600943Y-73740500D01*
X80600945Y-73740500D01*
X80759055Y-73740500D01*
X80759057Y-73740500D01*
X80911784Y-73699577D01*
X81048716Y-73620520D01*
X81160520Y-73508716D01*
X81239577Y-73371784D01*
X81280500Y-73219057D01*
X81280500Y-72410856D01*
X81300185Y-72343817D01*
X81352989Y-72298062D01*
X81422147Y-72288118D01*
X81485703Y-72317143D01*
X81498211Y-72329651D01*
X81501951Y-72333967D01*
X81610931Y-72404004D01*
X81735225Y-72440499D01*
X81735227Y-72440500D01*
X81741194Y-72440500D01*
X81808233Y-72460185D01*
X81853988Y-72512989D01*
X81863932Y-72582147D01*
X81834907Y-72645703D01*
X81803196Y-72671886D01*
X81793479Y-72677496D01*
X81793473Y-72677500D01*
X81697500Y-72773473D01*
X81697495Y-72773479D01*
X81629632Y-72891021D01*
X81629631Y-72891025D01*
X81594500Y-73022133D01*
X81594500Y-73157867D01*
X81618058Y-73245784D01*
X81629632Y-73288978D01*
X81697495Y-73406520D01*
X81697497Y-73406522D01*
X81697498Y-73406524D01*
X81793476Y-73502502D01*
X81793477Y-73502503D01*
X81793479Y-73502504D01*
X81911021Y-73570367D01*
X81911022Y-73570367D01*
X81911025Y-73570369D01*
X82042133Y-73605500D01*
X82042135Y-73605500D01*
X82177865Y-73605500D01*
X82177867Y-73605500D01*
X82308975Y-73570369D01*
X82426524Y-73502502D01*
X82522502Y-73406524D01*
X82590369Y-73288975D01*
X82625500Y-73157867D01*
X82625500Y-73022133D01*
X82590369Y-72891025D01*
X82578317Y-72870151D01*
X82522504Y-72773479D01*
X82522499Y-72773473D01*
X82426526Y-72677500D01*
X82426524Y-72677498D01*
X82376865Y-72648827D01*
X82328651Y-72598260D01*
X82315429Y-72529653D01*
X82341397Y-72464789D01*
X82398311Y-72424261D01*
X82468102Y-72420937D01*
X82473802Y-72422464D01*
X82535227Y-72440500D01*
X82535228Y-72440500D01*
X82588524Y-72440500D01*
X82602530Y-72441294D01*
X82605916Y-72441678D01*
X82625542Y-72443910D01*
X83202185Y-72395857D01*
X83205994Y-72394848D01*
X83206829Y-72394628D01*
X83238557Y-72390500D01*
X86761707Y-72390500D01*
X86795910Y-72395311D01*
X86797808Y-72395855D01*
X86797815Y-72395857D01*
X87374457Y-72443910D01*
X87380709Y-72444304D01*
X87381642Y-72444344D01*
X87393004Y-72442355D01*
X87414377Y-72440500D01*
X87464771Y-72440500D01*
X87464772Y-72440500D01*
X87526198Y-72422464D01*
X87596066Y-72422464D01*
X87654845Y-72460238D01*
X87683870Y-72523794D01*
X87673927Y-72592952D01*
X87628172Y-72645756D01*
X87623134Y-72648827D01*
X87573479Y-72677496D01*
X87573473Y-72677500D01*
X87477500Y-72773473D01*
X87477495Y-72773479D01*
X87409632Y-72891021D01*
X87409631Y-72891025D01*
X87374500Y-73022133D01*
X87374500Y-73157867D01*
X87398058Y-73245784D01*
X87409632Y-73288978D01*
X87477495Y-73406520D01*
X87477497Y-73406522D01*
X87477498Y-73406524D01*
X87573476Y-73502502D01*
X87573477Y-73502503D01*
X87573479Y-73502504D01*
X87691021Y-73570367D01*
X87691022Y-73570367D01*
X87691025Y-73570369D01*
X87822133Y-73605500D01*
X87822135Y-73605500D01*
X87957865Y-73605500D01*
X87957867Y-73605500D01*
X88088975Y-73570369D01*
X88206524Y-73502502D01*
X88302502Y-73406524D01*
X88370369Y-73288975D01*
X88405500Y-73157867D01*
X88405500Y-73022133D01*
X88370369Y-72891025D01*
X88358317Y-72870151D01*
X88302504Y-72773479D01*
X88302499Y-72773473D01*
X88206526Y-72677500D01*
X88206524Y-72677498D01*
X88196804Y-72671886D01*
X88148590Y-72621318D01*
X88135368Y-72552711D01*
X88161337Y-72487847D01*
X88218251Y-72447319D01*
X88258806Y-72440500D01*
X88264773Y-72440500D01*
X88264773Y-72440499D01*
X88389069Y-72404004D01*
X88498049Y-72333967D01*
X88501785Y-72329654D01*
X88560563Y-72291880D01*
X88630432Y-72291878D01*
X88689211Y-72329651D01*
X88718237Y-72393206D01*
X88719500Y-72410856D01*
X88719500Y-73219057D01*
X88738236Y-73288978D01*
X88760423Y-73371783D01*
X88760426Y-73371790D01*
X88839475Y-73508709D01*
X88839479Y-73508714D01*
X88839480Y-73508716D01*
X88951284Y-73620520D01*
X88951286Y-73620521D01*
X88951290Y-73620524D01*
X88999740Y-73648496D01*
X89088216Y-73699577D01*
X89240943Y-73740500D01*
X89240945Y-73740500D01*
X89399055Y-73740500D01*
X89399057Y-73740500D01*
X89551784Y-73699577D01*
X89688716Y-73620520D01*
X89800520Y-73508716D01*
X89879577Y-73371784D01*
X89920500Y-73219057D01*
X89920500Y-71960943D01*
X89879577Y-71808216D01*
X89846255Y-71750500D01*
X89800524Y-71671290D01*
X89800518Y-71671282D01*
X89688717Y-71559481D01*
X89688709Y-71559475D01*
X89551790Y-71480426D01*
X89551786Y-71480424D01*
X89551784Y-71480423D01*
X89399057Y-71439500D01*
X89240943Y-71439500D01*
X89088216Y-71480423D01*
X89088209Y-71480426D01*
X88951290Y-71559475D01*
X88951282Y-71559481D01*
X88839479Y-71671284D01*
X88797670Y-71743700D01*
X88747102Y-71791915D01*
X88678495Y-71805137D01*
X88613631Y-71779169D01*
X88585966Y-71748737D01*
X88582882Y-71743938D01*
X88582882Y-71743937D01*
X88498049Y-71646033D01*
X88389069Y-71575996D01*
X88389065Y-71575994D01*
X88389064Y-71575994D01*
X88264774Y-71539500D01*
X88264772Y-71539500D01*
X88135228Y-71539500D01*
X88135226Y-71539500D01*
X88010934Y-71575994D01*
X88010931Y-71575996D01*
X88004653Y-71580031D01*
X88004648Y-71580034D01*
X87937608Y-71599717D01*
X87870569Y-71580031D01*
X87824815Y-71527226D01*
X87814040Y-71486020D01*
X87808534Y-71419941D01*
X87822582Y-71351505D01*
X87844418Y-71321974D01*
X87866392Y-71300000D01*
X90744867Y-71300000D01*
X90763302Y-71428225D01*
X90817117Y-71546061D01*
X90817118Y-71546063D01*
X90901951Y-71643967D01*
X91010931Y-71714004D01*
X91129224Y-71748737D01*
X91135225Y-71750499D01*
X91135227Y-71750500D01*
X91135228Y-71750500D01*
X91264773Y-71750500D01*
X91264773Y-71750499D01*
X91389069Y-71714004D01*
X91498049Y-71643967D01*
X91582882Y-71546063D01*
X91636697Y-71428226D01*
X91655133Y-71300000D01*
X91636697Y-71171774D01*
X91582882Y-71053937D01*
X91498049Y-70956033D01*
X91389069Y-70885996D01*
X91389065Y-70885994D01*
X91389064Y-70885994D01*
X91264774Y-70849500D01*
X91264772Y-70849500D01*
X91135228Y-70849500D01*
X91135226Y-70849500D01*
X91010935Y-70885994D01*
X91010932Y-70885995D01*
X91010931Y-70885996D01*
X90959677Y-70918934D01*
X90901950Y-70956033D01*
X90817118Y-71053937D01*
X90817117Y-71053938D01*
X90763302Y-71171774D01*
X90744867Y-71300000D01*
X87866392Y-71300000D01*
X87929576Y-71236816D01*
X87990898Y-71203334D01*
X88017255Y-71200500D01*
X88752725Y-71200500D01*
X88752727Y-71200500D01*
X88854588Y-71173207D01*
X88945913Y-71120480D01*
X91129574Y-68936819D01*
X91190897Y-68903334D01*
X91217255Y-68900500D01*
X92452725Y-68900500D01*
X92452727Y-68900500D01*
X92554588Y-68873207D01*
X92645913Y-68820480D01*
X92837551Y-68628842D01*
X93659500Y-68628842D01*
X93659500Y-68771158D01*
X93694917Y-68903334D01*
X93696334Y-68908624D01*
X93696335Y-68908627D01*
X93767489Y-69031871D01*
X93767491Y-69031874D01*
X93767492Y-69031875D01*
X93868125Y-69132508D01*
X93868126Y-69132509D01*
X93868128Y-69132510D01*
X93929750Y-69168087D01*
X93991375Y-69203666D01*
X94128842Y-69240500D01*
X94128844Y-69240500D01*
X94271156Y-69240500D01*
X94271158Y-69240500D01*
X94408625Y-69203666D01*
X94531875Y-69132508D01*
X94632508Y-69031875D01*
X94703666Y-68908625D01*
X94740500Y-68771158D01*
X94740500Y-68628842D01*
X95459500Y-68628842D01*
X95459500Y-68771158D01*
X95494917Y-68903334D01*
X95496334Y-68908624D01*
X95496335Y-68908627D01*
X95567489Y-69031871D01*
X95567491Y-69031874D01*
X95567492Y-69031875D01*
X95668125Y-69132508D01*
X95668126Y-69132509D01*
X95668128Y-69132510D01*
X95729750Y-69168087D01*
X95791375Y-69203666D01*
X95928842Y-69240500D01*
X95928844Y-69240500D01*
X96071156Y-69240500D01*
X96071158Y-69240500D01*
X96208625Y-69203666D01*
X96331875Y-69132508D01*
X96432508Y-69031875D01*
X96503666Y-68908625D01*
X96540500Y-68771158D01*
X96540500Y-68628842D01*
X96503666Y-68491375D01*
X96434717Y-68371951D01*
X96432510Y-68368128D01*
X96432506Y-68368123D01*
X96331876Y-68267493D01*
X96331871Y-68267489D01*
X96208627Y-68196335D01*
X96208626Y-68196334D01*
X96208625Y-68196334D01*
X96071158Y-68159500D01*
X95928842Y-68159500D01*
X95791375Y-68196334D01*
X95791372Y-68196335D01*
X95668128Y-68267489D01*
X95668123Y-68267493D01*
X95567493Y-68368123D01*
X95567489Y-68368128D01*
X95496335Y-68491372D01*
X95496334Y-68491375D01*
X95459500Y-68628842D01*
X94740500Y-68628842D01*
X94703666Y-68491375D01*
X94634717Y-68371951D01*
X94632510Y-68368128D01*
X94632506Y-68368123D01*
X94531876Y-68267493D01*
X94531871Y-68267489D01*
X94408627Y-68196335D01*
X94408626Y-68196334D01*
X94408625Y-68196334D01*
X94271158Y-68159500D01*
X94128842Y-68159500D01*
X93991375Y-68196334D01*
X93991372Y-68196335D01*
X93868128Y-68267489D01*
X93868123Y-68267493D01*
X93767493Y-68368123D01*
X93767489Y-68368128D01*
X93696335Y-68491372D01*
X93696334Y-68491375D01*
X93659500Y-68628842D01*
X92837551Y-68628842D01*
X94535703Y-66930687D01*
X94535708Y-66930684D01*
X94545911Y-66920480D01*
X94545913Y-66920480D01*
X94620480Y-66845913D01*
X94646988Y-66800000D01*
X94654296Y-66787341D01*
X94704858Y-66739126D01*
X94773465Y-66725899D01*
X94838331Y-66751863D01*
X94878863Y-66808775D01*
X94884423Y-66831691D01*
X94898302Y-66928225D01*
X94899429Y-66930692D01*
X94952118Y-67046063D01*
X95036951Y-67143967D01*
X95145931Y-67214004D01*
X95270225Y-67250499D01*
X95270227Y-67250500D01*
X95270228Y-67250500D01*
X95399773Y-67250500D01*
X95399773Y-67250499D01*
X95524069Y-67214004D01*
X95633049Y-67143967D01*
X95717882Y-67046063D01*
X95771697Y-66928226D01*
X95790133Y-66800000D01*
X95771697Y-66671774D01*
X95717882Y-66553937D01*
X95633049Y-66456033D01*
X95524069Y-66385996D01*
X95524065Y-66385994D01*
X95524064Y-66385994D01*
X95399774Y-66349500D01*
X95399772Y-66349500D01*
X95270228Y-66349500D01*
X95270226Y-66349500D01*
X95145935Y-66385994D01*
X95145932Y-66385995D01*
X95145931Y-66385996D01*
X95119382Y-66403058D01*
X95036950Y-66456033D01*
X94952118Y-66553937D01*
X94952117Y-66553938D01*
X94937294Y-66586396D01*
X94891539Y-66639200D01*
X94824499Y-66658884D01*
X94757460Y-66639199D01*
X94711705Y-66586395D01*
X94700500Y-66534884D01*
X94700500Y-65538292D01*
X94705313Y-65504080D01*
X94705432Y-65503665D01*
X94705857Y-65502185D01*
X94753910Y-64925542D01*
X94754304Y-64919290D01*
X94754344Y-64918357D01*
X94754343Y-64918353D01*
X94754630Y-64911665D01*
X94755028Y-64911682D01*
X94755138Y-64908871D01*
X94755133Y-64908871D01*
X94755133Y-64900001D01*
X94736697Y-64771774D01*
X94691110Y-64671954D01*
X94682882Y-64653937D01*
X94598049Y-64556033D01*
X94489069Y-64485996D01*
X94489065Y-64485994D01*
X94489064Y-64485994D01*
X94364774Y-64449500D01*
X94364772Y-64449500D01*
X94235228Y-64449500D01*
X94235226Y-64449500D01*
X94110935Y-64485994D01*
X94110932Y-64485995D01*
X94110931Y-64485996D01*
X94065034Y-64515492D01*
X94001950Y-64556033D01*
X93917118Y-64653937D01*
X93917117Y-64653938D01*
X93863302Y-64771774D01*
X93844867Y-64900000D01*
X93844867Y-64900005D01*
X93844927Y-64900423D01*
X93846173Y-64919919D01*
X93846088Y-64925538D01*
X93894143Y-65502190D01*
X93894145Y-65502196D01*
X93895371Y-65506828D01*
X93899500Y-65538559D01*
X93899500Y-66382745D01*
X93879815Y-66449784D01*
X93863181Y-66470426D01*
X92270426Y-68063181D01*
X92209103Y-68096666D01*
X92182745Y-68099500D01*
X90947273Y-68099500D01*
X90845410Y-68126793D01*
X90754087Y-68179520D01*
X90754084Y-68179522D01*
X88855018Y-70078588D01*
X88793695Y-70112073D01*
X88724003Y-70107089D01*
X88668070Y-70065217D01*
X88643653Y-69999753D01*
X88644598Y-69973268D01*
X88655133Y-69900000D01*
X88636697Y-69771774D01*
X88588832Y-69666967D01*
X88578889Y-69597811D01*
X88607913Y-69534255D01*
X88666691Y-69496480D01*
X88721025Y-69492984D01*
X88799998Y-69505492D01*
X88800000Y-69505492D01*
X88800003Y-69505492D01*
X88925300Y-69485647D01*
X88925301Y-69485647D01*
X88925302Y-69485646D01*
X88925304Y-69485646D01*
X89038342Y-69428050D01*
X89128050Y-69338342D01*
X89185646Y-69225304D01*
X89185646Y-69225302D01*
X89185647Y-69225301D01*
X89185647Y-69225300D01*
X89205492Y-69100003D01*
X89205492Y-69099996D01*
X89185647Y-68974699D01*
X89185647Y-68974698D01*
X89167125Y-68938347D01*
X89128050Y-68861658D01*
X89128048Y-68861656D01*
X89123619Y-68852963D01*
X89125136Y-68852189D01*
X89105485Y-68797107D01*
X89121313Y-68729054D01*
X89171420Y-68680360D01*
X89172853Y-68679617D01*
X89238342Y-68646249D01*
X89328050Y-68556541D01*
X89385646Y-68443503D01*
X89385646Y-68443501D01*
X89385647Y-68443500D01*
X89385647Y-68443499D01*
X89405492Y-68318202D01*
X89405492Y-68318195D01*
X89385647Y-68192898D01*
X89385647Y-68192897D01*
X89368630Y-68159500D01*
X89328050Y-68079857D01*
X89328046Y-68079853D01*
X89328045Y-68079851D01*
X89238347Y-67990153D01*
X89238344Y-67990151D01*
X89238342Y-67990149D01*
X89125304Y-67932553D01*
X89125303Y-67932552D01*
X89125300Y-67932551D01*
X89000003Y-67912707D01*
X88999997Y-67912707D01*
X88874699Y-67932551D01*
X88874698Y-67932551D01*
X88817586Y-67961652D01*
X88761658Y-67990149D01*
X88761657Y-67990150D01*
X88761652Y-67990153D01*
X88671954Y-68079851D01*
X88671951Y-68079856D01*
X88671950Y-68079857D01*
X88661687Y-68100000D01*
X88614352Y-68192897D01*
X88614352Y-68192898D01*
X88594508Y-68318195D01*
X88594508Y-68318202D01*
X88614352Y-68443499D01*
X88614352Y-68443500D01*
X88629894Y-68474002D01*
X88671950Y-68556541D01*
X88671951Y-68556542D01*
X88676381Y-68565236D01*
X88674863Y-68566009D01*
X88694514Y-68621094D01*
X88678685Y-68689147D01*
X88628576Y-68737839D01*
X88627012Y-68738650D01*
X88561659Y-68771949D01*
X88561652Y-68771954D01*
X88471954Y-68861652D01*
X88471951Y-68861657D01*
X88471950Y-68861658D01*
X88452751Y-68899337D01*
X88414352Y-68974698D01*
X88414352Y-68974699D01*
X88394508Y-69099996D01*
X88394508Y-69100003D01*
X88414352Y-69225300D01*
X88414354Y-69225306D01*
X88444399Y-69284271D01*
X88457296Y-69352940D01*
X88431020Y-69417680D01*
X88373914Y-69457938D01*
X88304108Y-69460930D01*
X88298983Y-69459544D01*
X88264773Y-69449500D01*
X88264772Y-69449500D01*
X88135228Y-69449500D01*
X88135226Y-69449500D01*
X88010935Y-69485994D01*
X88010932Y-69485995D01*
X88010931Y-69485996D01*
X87980595Y-69505492D01*
X87901950Y-69556033D01*
X87817118Y-69653937D01*
X87817117Y-69653938D01*
X87763302Y-69771774D01*
X87744867Y-69900000D01*
X87763302Y-70028225D01*
X87817117Y-70146061D01*
X87817118Y-70146063D01*
X87858913Y-70194298D01*
X87887937Y-70257854D01*
X87877993Y-70327013D01*
X87832237Y-70379816D01*
X87765199Y-70399500D01*
X87747273Y-70399500D01*
X87645413Y-70426793D01*
X87645410Y-70426794D01*
X87586710Y-70460685D01*
X87586674Y-70460706D01*
X87576992Y-70466295D01*
X87554087Y-70479519D01*
X87079522Y-70954084D01*
X87079520Y-70954087D01*
X87026793Y-71045411D01*
X87006679Y-71120480D01*
X86999500Y-71147271D01*
X86999500Y-71351706D01*
X86994689Y-71385909D01*
X86994144Y-71387807D01*
X86994143Y-71387811D01*
X86987753Y-71464482D01*
X86962568Y-71529654D01*
X86906146Y-71570865D01*
X86874481Y-71577753D01*
X86797814Y-71584143D01*
X86797811Y-71584143D01*
X86797808Y-71584144D01*
X86793169Y-71585372D01*
X86761441Y-71589500D01*
X83238294Y-71589500D01*
X83204082Y-71584687D01*
X83202187Y-71584143D01*
X83114201Y-71576810D01*
X83049028Y-71551625D01*
X83007817Y-71495203D01*
X83000500Y-71453238D01*
X83000500Y-71392276D01*
X83000500Y-71392274D01*
X82973207Y-71290414D01*
X82920480Y-71199088D01*
X82845913Y-71124521D01*
X82400912Y-70679520D01*
X82355249Y-70653156D01*
X82309588Y-70626793D01*
X82234974Y-70606801D01*
X82207726Y-70599500D01*
X82207725Y-70599500D01*
X79293423Y-70599500D01*
X79226384Y-70579815D01*
X79180629Y-70527011D01*
X79170685Y-70457853D01*
X79199710Y-70394297D01*
X79232310Y-70369891D01*
X79231608Y-70368798D01*
X79239066Y-70364004D01*
X79239069Y-70364004D01*
X79348049Y-70293967D01*
X79432882Y-70196063D01*
X79486697Y-70078226D01*
X79505133Y-69950000D01*
X79486697Y-69821774D01*
X79432882Y-69703937D01*
X79348049Y-69606033D01*
X79239069Y-69535996D01*
X79239065Y-69535994D01*
X79239064Y-69535994D01*
X79114774Y-69499500D01*
X79114772Y-69499500D01*
X78985228Y-69499500D01*
X78985226Y-69499500D01*
X78860935Y-69535994D01*
X78860932Y-69535995D01*
X78860931Y-69535996D01*
X78829753Y-69556033D01*
X78751950Y-69606033D01*
X78667118Y-69703937D01*
X78667117Y-69703938D01*
X78613302Y-69821774D01*
X78594867Y-69950000D01*
X78613302Y-70078225D01*
X78644283Y-70146063D01*
X78667118Y-70196063D01*
X78751951Y-70293967D01*
X78860931Y-70364004D01*
X78860933Y-70364004D01*
X78868392Y-70368798D01*
X78867221Y-70370618D01*
X78910895Y-70408465D01*
X78930577Y-70475505D01*
X78910889Y-70542544D01*
X78858083Y-70588297D01*
X78806577Y-70599500D01*
X76973294Y-70599500D01*
X76939082Y-70594687D01*
X76937187Y-70594143D01*
X76557116Y-70562469D01*
X76491943Y-70537284D01*
X76487317Y-70533557D01*
X76328886Y-70399500D01*
X76196173Y-70287205D01*
X76196172Y-70287204D01*
X76192019Y-70284790D01*
X76166665Y-70265273D01*
X75686819Y-69785426D01*
X75653334Y-69724103D01*
X75650500Y-69697745D01*
X75650500Y-68699996D01*
X87094508Y-68699996D01*
X87094508Y-68700003D01*
X87114352Y-68825300D01*
X87114352Y-68825301D01*
X87114354Y-68825304D01*
X87171950Y-68938342D01*
X87171952Y-68938344D01*
X87171954Y-68938347D01*
X87261652Y-69028045D01*
X87261654Y-69028046D01*
X87261658Y-69028050D01*
X87374696Y-69085646D01*
X87374697Y-69085646D01*
X87374699Y-69085647D01*
X87499997Y-69105492D01*
X87500000Y-69105492D01*
X87500003Y-69105492D01*
X87625300Y-69085647D01*
X87625301Y-69085647D01*
X87625302Y-69085646D01*
X87625304Y-69085646D01*
X87738342Y-69028050D01*
X87828050Y-68938342D01*
X87885646Y-68825304D01*
X87885646Y-68825302D01*
X87885647Y-68825301D01*
X87885647Y-68825300D01*
X87905492Y-68700003D01*
X87905492Y-68699996D01*
X87885647Y-68574699D01*
X87885647Y-68574698D01*
X87876398Y-68556546D01*
X87828050Y-68461658D01*
X87828046Y-68461654D01*
X87828045Y-68461652D01*
X87738347Y-68371954D01*
X87738344Y-68371952D01*
X87738342Y-68371950D01*
X87625304Y-68314354D01*
X87625303Y-68314353D01*
X87625300Y-68314352D01*
X87500003Y-68294508D01*
X87499997Y-68294508D01*
X87374699Y-68314352D01*
X87374698Y-68314352D01*
X87312464Y-68346063D01*
X87261658Y-68371950D01*
X87261657Y-68371951D01*
X87261652Y-68371954D01*
X87171954Y-68461652D01*
X87171951Y-68461657D01*
X87171950Y-68461658D01*
X87165650Y-68474023D01*
X87114352Y-68574698D01*
X87114352Y-68574699D01*
X87094508Y-68699996D01*
X75650500Y-68699996D01*
X75650500Y-67399996D01*
X78694508Y-67399996D01*
X78694508Y-67400003D01*
X78714352Y-67525300D01*
X78714352Y-67525301D01*
X78714354Y-67525304D01*
X78771950Y-67638342D01*
X78771952Y-67638344D01*
X78771954Y-67638347D01*
X78845926Y-67712319D01*
X78879411Y-67773642D01*
X78874427Y-67843334D01*
X78845926Y-67887681D01*
X78771954Y-67961652D01*
X78771951Y-67961657D01*
X78714352Y-68074698D01*
X78714352Y-68074699D01*
X78694508Y-68199996D01*
X78694508Y-68200003D01*
X78714352Y-68325300D01*
X78714352Y-68325301D01*
X78714354Y-68325304D01*
X78771950Y-68438342D01*
X78771952Y-68438344D01*
X78771954Y-68438347D01*
X78861652Y-68528045D01*
X78861654Y-68528046D01*
X78861658Y-68528050D01*
X78974696Y-68585646D01*
X78974697Y-68585646D01*
X78974699Y-68585647D01*
X79099997Y-68605492D01*
X79100000Y-68605492D01*
X79100003Y-68605492D01*
X79225300Y-68585647D01*
X79225301Y-68585647D01*
X79225302Y-68585646D01*
X79225304Y-68585646D01*
X79338342Y-68528050D01*
X79428050Y-68438342D01*
X79485646Y-68325304D01*
X79485646Y-68325302D01*
X79485647Y-68325301D01*
X79485647Y-68325300D01*
X79505492Y-68200003D01*
X79505492Y-68199996D01*
X79485647Y-68074699D01*
X79485647Y-68074698D01*
X79479779Y-68063181D01*
X79428050Y-67961658D01*
X79428046Y-67961654D01*
X79428045Y-67961652D01*
X79354074Y-67887681D01*
X79320589Y-67826358D01*
X79325573Y-67756666D01*
X79354074Y-67712319D01*
X79366393Y-67700000D01*
X85224867Y-67700000D01*
X85243302Y-67828225D01*
X85290947Y-67932551D01*
X85297118Y-67946063D01*
X85335319Y-67990150D01*
X85380662Y-68042480D01*
X85381951Y-68043967D01*
X85490931Y-68114004D01*
X85615225Y-68150499D01*
X85615227Y-68150500D01*
X85615228Y-68150500D01*
X85744773Y-68150500D01*
X85744773Y-68150499D01*
X85869069Y-68114004D01*
X85978049Y-68043967D01*
X86062882Y-67946063D01*
X86116697Y-67828226D01*
X86135133Y-67700000D01*
X86116697Y-67571774D01*
X86062882Y-67453937D01*
X85978049Y-67356033D01*
X85869069Y-67285996D01*
X85869065Y-67285994D01*
X85869064Y-67285994D01*
X85744774Y-67249500D01*
X85744772Y-67249500D01*
X85615228Y-67249500D01*
X85615226Y-67249500D01*
X85490935Y-67285994D01*
X85490932Y-67285995D01*
X85490931Y-67285996D01*
X85439677Y-67318934D01*
X85381950Y-67356033D01*
X85297118Y-67453937D01*
X85297117Y-67453938D01*
X85243302Y-67571774D01*
X85224867Y-67700000D01*
X79366393Y-67700000D01*
X79428045Y-67638347D01*
X79428050Y-67638342D01*
X79485646Y-67525304D01*
X79485646Y-67525302D01*
X79485647Y-67525301D01*
X79485647Y-67525300D01*
X79505492Y-67400003D01*
X79505492Y-67399996D01*
X79485647Y-67274699D01*
X79485647Y-67274698D01*
X79472808Y-67249500D01*
X79428050Y-67161658D01*
X79428046Y-67161654D01*
X79428045Y-67161652D01*
X79338347Y-67071954D01*
X79338344Y-67071952D01*
X79338342Y-67071950D01*
X79225304Y-67014354D01*
X79225303Y-67014353D01*
X79225300Y-67014352D01*
X79100003Y-66994508D01*
X79099997Y-66994508D01*
X78974699Y-67014352D01*
X78974698Y-67014352D01*
X78912464Y-67046063D01*
X78861658Y-67071950D01*
X78861657Y-67071951D01*
X78861652Y-67071954D01*
X78771954Y-67161652D01*
X78771951Y-67161657D01*
X78714352Y-67274698D01*
X78714352Y-67274699D01*
X78694508Y-67399996D01*
X75650500Y-67399996D01*
X75650500Y-66000000D01*
X82244867Y-66000000D01*
X82263302Y-66128225D01*
X82302477Y-66214004D01*
X82317118Y-66246063D01*
X82401951Y-66343967D01*
X82510931Y-66414004D01*
X82635225Y-66450499D01*
X82635227Y-66450500D01*
X82635228Y-66450500D01*
X82764773Y-66450500D01*
X82764773Y-66450499D01*
X82889069Y-66414004D01*
X82998049Y-66343967D01*
X83082882Y-66246063D01*
X83136697Y-66128226D01*
X83155133Y-66000000D01*
X83136697Y-65871774D01*
X83103919Y-65800000D01*
X84544867Y-65800000D01*
X84563302Y-65928225D01*
X84607417Y-66024821D01*
X84617118Y-66046063D01*
X84701951Y-66143967D01*
X84810931Y-66214004D01*
X84920117Y-66246063D01*
X84935225Y-66250499D01*
X84935227Y-66250500D01*
X84935228Y-66250500D01*
X85064773Y-66250500D01*
X85064773Y-66250499D01*
X85189069Y-66214004D01*
X85298049Y-66143967D01*
X85382882Y-66046063D01*
X85436697Y-65928226D01*
X85455133Y-65800000D01*
X85436697Y-65671774D01*
X85382882Y-65553937D01*
X85298049Y-65456033D01*
X85189069Y-65385996D01*
X85189065Y-65385994D01*
X85189064Y-65385994D01*
X85064774Y-65349500D01*
X85064772Y-65349500D01*
X84935228Y-65349500D01*
X84935226Y-65349500D01*
X84810935Y-65385994D01*
X84810932Y-65385995D01*
X84810931Y-65385996D01*
X84780595Y-65405492D01*
X84701950Y-65456033D01*
X84617118Y-65553937D01*
X84617117Y-65553938D01*
X84563302Y-65671774D01*
X84544867Y-65800000D01*
X83103919Y-65800000D01*
X83082882Y-65753937D01*
X82998049Y-65656033D01*
X82889069Y-65585996D01*
X82889065Y-65585994D01*
X82889064Y-65585994D01*
X82764774Y-65549500D01*
X82764772Y-65549500D01*
X82635228Y-65549500D01*
X82635226Y-65549500D01*
X82510935Y-65585994D01*
X82510932Y-65585995D01*
X82510931Y-65585996D01*
X82459677Y-65618934D01*
X82401950Y-65656033D01*
X82317118Y-65753937D01*
X82317117Y-65753938D01*
X82263302Y-65871774D01*
X82244867Y-66000000D01*
X75650500Y-66000000D01*
X75650500Y-65514245D01*
X75670185Y-65447206D01*
X75722989Y-65401451D01*
X75792147Y-65391507D01*
X75855703Y-65420532D01*
X75862181Y-65426564D01*
X75868125Y-65432508D01*
X75868126Y-65432509D01*
X75868128Y-65432510D01*
X75908872Y-65456033D01*
X75991375Y-65503666D01*
X76128842Y-65540500D01*
X76128844Y-65540500D01*
X76271156Y-65540500D01*
X76271158Y-65540500D01*
X76408625Y-65503666D01*
X76531875Y-65432508D01*
X76632508Y-65331875D01*
X76703666Y-65208625D01*
X76740500Y-65071158D01*
X76740500Y-64999996D01*
X80194508Y-64999996D01*
X80194508Y-65000003D01*
X80214352Y-65125300D01*
X80214352Y-65125301D01*
X80232805Y-65161517D01*
X80271950Y-65238342D01*
X80271952Y-65238344D01*
X80271954Y-65238347D01*
X80361652Y-65328045D01*
X80361654Y-65328046D01*
X80361658Y-65328050D01*
X80474696Y-65385646D01*
X80474697Y-65385646D01*
X80474699Y-65385647D01*
X80599997Y-65405492D01*
X80600000Y-65405492D01*
X80600003Y-65405492D01*
X80725300Y-65385647D01*
X80725301Y-65385647D01*
X80725302Y-65385646D01*
X80725304Y-65385646D01*
X80838342Y-65328050D01*
X80928050Y-65238342D01*
X80985646Y-65125304D01*
X80985646Y-65125302D01*
X80985647Y-65125301D01*
X80985647Y-65125300D01*
X81005492Y-65000003D01*
X81005492Y-65000000D01*
X83544867Y-65000000D01*
X83563302Y-65128225D01*
X83591465Y-65189892D01*
X83617118Y-65246063D01*
X83701951Y-65343967D01*
X83810931Y-65414004D01*
X83935225Y-65450499D01*
X83935227Y-65450500D01*
X83935228Y-65450500D01*
X84064773Y-65450500D01*
X84064773Y-65450499D01*
X84189069Y-65414004D01*
X84298049Y-65343967D01*
X84382882Y-65246063D01*
X84436697Y-65128226D01*
X84455133Y-65000000D01*
X85544867Y-65000000D01*
X85563302Y-65128225D01*
X85591465Y-65189892D01*
X85617118Y-65246063D01*
X85701951Y-65343967D01*
X85810931Y-65414004D01*
X85935225Y-65450499D01*
X85935227Y-65450500D01*
X85935228Y-65450500D01*
X86064773Y-65450500D01*
X86064773Y-65450499D01*
X86189069Y-65414004D01*
X86298049Y-65343967D01*
X86382882Y-65246063D01*
X86382885Y-65246055D01*
X86383181Y-65245597D01*
X86383600Y-65245233D01*
X86388689Y-65239361D01*
X86389533Y-65240092D01*
X86435983Y-65199839D01*
X86505141Y-65189892D01*
X86568698Y-65218914D01*
X86591819Y-65245597D01*
X86592119Y-65246064D01*
X86671657Y-65337858D01*
X86676951Y-65343967D01*
X86785931Y-65414004D01*
X86910225Y-65450499D01*
X86910227Y-65450500D01*
X86910228Y-65450500D01*
X87039773Y-65450500D01*
X87039773Y-65450499D01*
X87164069Y-65414004D01*
X87273049Y-65343967D01*
X87357882Y-65246063D01*
X87411697Y-65128226D01*
X87430133Y-65000000D01*
X87411697Y-64871774D01*
X87357882Y-64753937D01*
X87273049Y-64656033D01*
X87164069Y-64585996D01*
X87164065Y-64585994D01*
X87164064Y-64585994D01*
X87039774Y-64549500D01*
X87039772Y-64549500D01*
X86910228Y-64549500D01*
X86910226Y-64549500D01*
X86785935Y-64585994D01*
X86785932Y-64585995D01*
X86785931Y-64585996D01*
X86753371Y-64606921D01*
X86676950Y-64656033D01*
X86592116Y-64753939D01*
X86591815Y-64754408D01*
X86591393Y-64754772D01*
X86586311Y-64760639D01*
X86585467Y-64759908D01*
X86539011Y-64800163D01*
X86469852Y-64810106D01*
X86406297Y-64781081D01*
X86383185Y-64754408D01*
X86382883Y-64753939D01*
X86382882Y-64753938D01*
X86382882Y-64753937D01*
X86298049Y-64656033D01*
X86189069Y-64585996D01*
X86189065Y-64585994D01*
X86189064Y-64585994D01*
X86064774Y-64549500D01*
X86064772Y-64549500D01*
X85935228Y-64549500D01*
X85935226Y-64549500D01*
X85810935Y-64585994D01*
X85810932Y-64585995D01*
X85810931Y-64585996D01*
X85778371Y-64606921D01*
X85701950Y-64656033D01*
X85617118Y-64753937D01*
X85617117Y-64753938D01*
X85563302Y-64871774D01*
X85544867Y-65000000D01*
X84455133Y-65000000D01*
X84436697Y-64871774D01*
X84382882Y-64753937D01*
X84298049Y-64656033D01*
X84189069Y-64585996D01*
X84189065Y-64585994D01*
X84189064Y-64585994D01*
X84064774Y-64549500D01*
X84064772Y-64549500D01*
X83935228Y-64549500D01*
X83935226Y-64549500D01*
X83810935Y-64585994D01*
X83810932Y-64585995D01*
X83810931Y-64585996D01*
X83778371Y-64606921D01*
X83701950Y-64656033D01*
X83617118Y-64753937D01*
X83617117Y-64753938D01*
X83563302Y-64871774D01*
X83544867Y-65000000D01*
X81005492Y-65000000D01*
X81005492Y-64999996D01*
X80985647Y-64874699D01*
X80985647Y-64874698D01*
X80984157Y-64871774D01*
X80928050Y-64761658D01*
X80928046Y-64761654D01*
X80928045Y-64761652D01*
X80838347Y-64671954D01*
X80838344Y-64671952D01*
X80838342Y-64671950D01*
X80725304Y-64614354D01*
X80725303Y-64614353D01*
X80725300Y-64614352D01*
X80600003Y-64594508D01*
X80599997Y-64594508D01*
X80474699Y-64614352D01*
X80474698Y-64614352D01*
X80403758Y-64650499D01*
X80361658Y-64671950D01*
X80361657Y-64671951D01*
X80361652Y-64671954D01*
X80271954Y-64761652D01*
X80271951Y-64761657D01*
X80271950Y-64761658D01*
X80256810Y-64791372D01*
X80214352Y-64874698D01*
X80214352Y-64874699D01*
X80194508Y-64999996D01*
X76740500Y-64999996D01*
X76740500Y-64928842D01*
X76703666Y-64791375D01*
X76634717Y-64671951D01*
X76632510Y-64668128D01*
X76632506Y-64668123D01*
X76531876Y-64567493D01*
X76531871Y-64567489D01*
X76408627Y-64496335D01*
X76408626Y-64496334D01*
X76408625Y-64496334D01*
X76271158Y-64459500D01*
X76128842Y-64459500D01*
X75991375Y-64496334D01*
X75991372Y-64496335D01*
X75868128Y-64567489D01*
X75868123Y-64567493D01*
X75862181Y-64573436D01*
X75800858Y-64606921D01*
X75731166Y-64601937D01*
X75675233Y-64560065D01*
X75650816Y-64494601D01*
X75650500Y-64485755D01*
X75650500Y-64200000D01*
X84544867Y-64200000D01*
X84563302Y-64328225D01*
X84617117Y-64446061D01*
X84617118Y-64446063D01*
X84701951Y-64543967D01*
X84810931Y-64614004D01*
X84935225Y-64650499D01*
X84935227Y-64650500D01*
X84935228Y-64650500D01*
X85064773Y-64650500D01*
X85064773Y-64650499D01*
X85189069Y-64614004D01*
X85298049Y-64543967D01*
X85382882Y-64446063D01*
X85436697Y-64328226D01*
X85455133Y-64200000D01*
X85442192Y-64109996D01*
X89094508Y-64109996D01*
X89094508Y-64110003D01*
X89114352Y-64235300D01*
X89114352Y-64235301D01*
X89114354Y-64235304D01*
X89171950Y-64348342D01*
X89171952Y-64348344D01*
X89171954Y-64348347D01*
X89261652Y-64438045D01*
X89261654Y-64438046D01*
X89261658Y-64438050D01*
X89374696Y-64495646D01*
X89374697Y-64495646D01*
X89374699Y-64495647D01*
X89499997Y-64515492D01*
X89500000Y-64515492D01*
X89500003Y-64515492D01*
X89625300Y-64495647D01*
X89625301Y-64495647D01*
X89625302Y-64495646D01*
X89625304Y-64495646D01*
X89738342Y-64438050D01*
X89828050Y-64348342D01*
X89885646Y-64235304D01*
X89885646Y-64235302D01*
X89885647Y-64235301D01*
X89885647Y-64235300D01*
X89905492Y-64110003D01*
X89905492Y-64109996D01*
X89885647Y-63984699D01*
X89885647Y-63984698D01*
X89869973Y-63953937D01*
X89828050Y-63871658D01*
X89828046Y-63871654D01*
X89828045Y-63871652D01*
X89738347Y-63781954D01*
X89738344Y-63781952D01*
X89738342Y-63781950D01*
X89625304Y-63724354D01*
X89625303Y-63724353D01*
X89625300Y-63724352D01*
X89500003Y-63704508D01*
X89499997Y-63704508D01*
X89374699Y-63724352D01*
X89374698Y-63724352D01*
X89325344Y-63749500D01*
X89261658Y-63781950D01*
X89261657Y-63781951D01*
X89261652Y-63781954D01*
X89171954Y-63871652D01*
X89171951Y-63871657D01*
X89114352Y-63984698D01*
X89114352Y-63984699D01*
X89094508Y-64109996D01*
X85442192Y-64109996D01*
X85436697Y-64071774D01*
X85382882Y-63953937D01*
X85298049Y-63856033D01*
X85189069Y-63785996D01*
X85189065Y-63785994D01*
X85189064Y-63785994D01*
X85064774Y-63749500D01*
X85064772Y-63749500D01*
X84935228Y-63749500D01*
X84935226Y-63749500D01*
X84810935Y-63785994D01*
X84810932Y-63785995D01*
X84810931Y-63785996D01*
X84759677Y-63818934D01*
X84701950Y-63856033D01*
X84617118Y-63953937D01*
X84617117Y-63953938D01*
X84563302Y-64071774D01*
X84544867Y-64200000D01*
X75650500Y-64200000D01*
X75650500Y-62738466D01*
X75670185Y-62671427D01*
X75722989Y-62625672D01*
X75792147Y-62615728D01*
X75855703Y-62644753D01*
X75893477Y-62703531D01*
X75897238Y-62720819D01*
X75898302Y-62728225D01*
X75913706Y-62761954D01*
X75952118Y-62846063D01*
X76036951Y-62943967D01*
X76145931Y-63014004D01*
X76255117Y-63046063D01*
X76270225Y-63050499D01*
X76270227Y-63050500D01*
X76270228Y-63050500D01*
X76399773Y-63050500D01*
X76399773Y-63050499D01*
X76524069Y-63014004D01*
X76633049Y-62943967D01*
X76717882Y-62846063D01*
X76738919Y-62800000D01*
X81044867Y-62800000D01*
X81063302Y-62928225D01*
X81102477Y-63014004D01*
X81117118Y-63046063D01*
X81201951Y-63143967D01*
X81310931Y-63214004D01*
X81315359Y-63215304D01*
X81435225Y-63250499D01*
X81435227Y-63250500D01*
X81435228Y-63250500D01*
X81564773Y-63250500D01*
X81564773Y-63250499D01*
X81689069Y-63214004D01*
X81798049Y-63143967D01*
X81844814Y-63089996D01*
X88094508Y-63089996D01*
X88094508Y-63090003D01*
X88114352Y-63215300D01*
X88114352Y-63215301D01*
X88114354Y-63215304D01*
X88171950Y-63328342D01*
X88171952Y-63328344D01*
X88171954Y-63328347D01*
X88261652Y-63418045D01*
X88261654Y-63418046D01*
X88261658Y-63418050D01*
X88374696Y-63475646D01*
X88374697Y-63475646D01*
X88374699Y-63475647D01*
X88499997Y-63495492D01*
X88500000Y-63495492D01*
X88500003Y-63495492D01*
X88625300Y-63475647D01*
X88625301Y-63475647D01*
X88625302Y-63475646D01*
X88625304Y-63475646D01*
X88738342Y-63418050D01*
X88828050Y-63328342D01*
X88885646Y-63215304D01*
X88885646Y-63215302D01*
X88885647Y-63215301D01*
X88885647Y-63215300D01*
X88888070Y-63200000D01*
X94879867Y-63200000D01*
X94898302Y-63328225D01*
X94898358Y-63328347D01*
X94952118Y-63446063D01*
X95036951Y-63543967D01*
X95145931Y-63614004D01*
X95270225Y-63650499D01*
X95270227Y-63650500D01*
X95270228Y-63650500D01*
X95399773Y-63650500D01*
X95399773Y-63650499D01*
X95524069Y-63614004D01*
X95633049Y-63543967D01*
X95717882Y-63446063D01*
X95771697Y-63328226D01*
X95790133Y-63200000D01*
X95771697Y-63071774D01*
X95717882Y-62953937D01*
X95633049Y-62856033D01*
X95524069Y-62785996D01*
X95524065Y-62785994D01*
X95524064Y-62785994D01*
X95399774Y-62749500D01*
X95399772Y-62749500D01*
X95270228Y-62749500D01*
X95270226Y-62749500D01*
X95145935Y-62785994D01*
X95145932Y-62785995D01*
X95145931Y-62785996D01*
X95094677Y-62818934D01*
X95036950Y-62856033D01*
X94952118Y-62953937D01*
X94952117Y-62953938D01*
X94898302Y-63071774D01*
X94879867Y-63200000D01*
X88888070Y-63200000D01*
X88905492Y-63090003D01*
X88905492Y-63089996D01*
X88885647Y-62964699D01*
X88885647Y-62964698D01*
X88885646Y-62964696D01*
X88828050Y-62851658D01*
X88828046Y-62851654D01*
X88828045Y-62851652D01*
X88738347Y-62761954D01*
X88738344Y-62761952D01*
X88738342Y-62761950D01*
X88625304Y-62704354D01*
X88625303Y-62704353D01*
X88625300Y-62704352D01*
X88500003Y-62684508D01*
X88499997Y-62684508D01*
X88374699Y-62704352D01*
X88374698Y-62704352D01*
X88307748Y-62738466D01*
X88261658Y-62761950D01*
X88261657Y-62761951D01*
X88261652Y-62761954D01*
X88171954Y-62851652D01*
X88171951Y-62851657D01*
X88114352Y-62964698D01*
X88114352Y-62964699D01*
X88094508Y-63089996D01*
X81844814Y-63089996D01*
X81882882Y-63046063D01*
X81936697Y-62928226D01*
X81955133Y-62800000D01*
X81936697Y-62671774D01*
X81882882Y-62553937D01*
X81798049Y-62456033D01*
X81689069Y-62385996D01*
X81689065Y-62385994D01*
X81689064Y-62385994D01*
X81564774Y-62349500D01*
X81564772Y-62349500D01*
X81435228Y-62349500D01*
X81435226Y-62349500D01*
X81310935Y-62385994D01*
X81310932Y-62385995D01*
X81310931Y-62385996D01*
X81259677Y-62418934D01*
X81201950Y-62456033D01*
X81117118Y-62553937D01*
X81117117Y-62553938D01*
X81063302Y-62671774D01*
X81044867Y-62800000D01*
X76738919Y-62800000D01*
X76771697Y-62728226D01*
X76790133Y-62600000D01*
X76771697Y-62471774D01*
X76717882Y-62353937D01*
X76633049Y-62256033D01*
X76524069Y-62185996D01*
X76524065Y-62185994D01*
X76524064Y-62185994D01*
X76399774Y-62149500D01*
X76399772Y-62149500D01*
X76270228Y-62149500D01*
X76270226Y-62149500D01*
X76145935Y-62185994D01*
X76145932Y-62185995D01*
X76145931Y-62185996D01*
X76108468Y-62210072D01*
X76036950Y-62256033D01*
X75952118Y-62353937D01*
X75952117Y-62353938D01*
X75898302Y-62471774D01*
X75897238Y-62479181D01*
X75868212Y-62542736D01*
X75809434Y-62580510D01*
X75739564Y-62580510D01*
X75680787Y-62542735D01*
X75651762Y-62479179D01*
X75650500Y-62461533D01*
X75650500Y-61200000D01*
X88544867Y-61200000D01*
X88563302Y-61328225D01*
X88617117Y-61446061D01*
X88617118Y-61446063D01*
X88701951Y-61543967D01*
X88810931Y-61614004D01*
X88871782Y-61631871D01*
X88935225Y-61650499D01*
X88935227Y-61650500D01*
X88935228Y-61650500D01*
X89064773Y-61650500D01*
X89064773Y-61650499D01*
X89189069Y-61614004D01*
X89298049Y-61543967D01*
X89382882Y-61446063D01*
X89436697Y-61328226D01*
X89450986Y-61228842D01*
X93659500Y-61228842D01*
X93659500Y-61371158D01*
X93679571Y-61446062D01*
X93696334Y-61508624D01*
X93696335Y-61508627D01*
X93767489Y-61631871D01*
X93767491Y-61631874D01*
X93767492Y-61631875D01*
X93868125Y-61732508D01*
X93991375Y-61803666D01*
X94128842Y-61840500D01*
X94128844Y-61840500D01*
X94271156Y-61840500D01*
X94271158Y-61840500D01*
X94408625Y-61803666D01*
X94531875Y-61732508D01*
X94632508Y-61631875D01*
X94703666Y-61508625D01*
X94740500Y-61371158D01*
X94740500Y-61228842D01*
X95459500Y-61228842D01*
X95459500Y-61371158D01*
X95479571Y-61446062D01*
X95496334Y-61508624D01*
X95496335Y-61508627D01*
X95567489Y-61631871D01*
X95567491Y-61631874D01*
X95567492Y-61631875D01*
X95668125Y-61732508D01*
X95791375Y-61803666D01*
X95928842Y-61840500D01*
X95928844Y-61840500D01*
X96071156Y-61840500D01*
X96071158Y-61840500D01*
X96208625Y-61803666D01*
X96331875Y-61732508D01*
X96432508Y-61631875D01*
X96503666Y-61508625D01*
X96540500Y-61371158D01*
X96540500Y-61228842D01*
X96503666Y-61091375D01*
X96432508Y-60968125D01*
X96331875Y-60867492D01*
X96331874Y-60867491D01*
X96331871Y-60867489D01*
X96208627Y-60796335D01*
X96208626Y-60796334D01*
X96208625Y-60796334D01*
X96071158Y-60759500D01*
X95928842Y-60759500D01*
X95791375Y-60796334D01*
X95791372Y-60796335D01*
X95668128Y-60867489D01*
X95668123Y-60867493D01*
X95567493Y-60968123D01*
X95567489Y-60968128D01*
X95496335Y-61091372D01*
X95496334Y-61091375D01*
X95459500Y-61228842D01*
X94740500Y-61228842D01*
X94703666Y-61091375D01*
X94632508Y-60968125D01*
X94531875Y-60867492D01*
X94531874Y-60867491D01*
X94531871Y-60867489D01*
X94408627Y-60796335D01*
X94408626Y-60796334D01*
X94408625Y-60796334D01*
X94271158Y-60759500D01*
X94128842Y-60759500D01*
X93991375Y-60796334D01*
X93991372Y-60796335D01*
X93868128Y-60867489D01*
X93868123Y-60867493D01*
X93767493Y-60968123D01*
X93767489Y-60968128D01*
X93696335Y-61091372D01*
X93696334Y-61091375D01*
X93659500Y-61228842D01*
X89450986Y-61228842D01*
X89455133Y-61200000D01*
X89436697Y-61071774D01*
X89382882Y-60953937D01*
X89298049Y-60856033D01*
X89189069Y-60785996D01*
X89189065Y-60785994D01*
X89189064Y-60785994D01*
X89064774Y-60749500D01*
X89064772Y-60749500D01*
X88935228Y-60749500D01*
X88935226Y-60749500D01*
X88810935Y-60785994D01*
X88810932Y-60785995D01*
X88810931Y-60785996D01*
X88759677Y-60818934D01*
X88701950Y-60856033D01*
X88617118Y-60953937D01*
X88617117Y-60953938D01*
X88563302Y-61071774D01*
X88544867Y-61200000D01*
X75650500Y-61200000D01*
X75650500Y-60317253D01*
X75670185Y-60250214D01*
X75686815Y-60229576D01*
X75866391Y-60050000D01*
X78594867Y-60050000D01*
X78613302Y-60178225D01*
X78618585Y-60189792D01*
X78667118Y-60296063D01*
X78751951Y-60393967D01*
X78860931Y-60464004D01*
X78985225Y-60500499D01*
X78985227Y-60500500D01*
X78985228Y-60500500D01*
X79114773Y-60500500D01*
X79114773Y-60500499D01*
X79239069Y-60464004D01*
X79348049Y-60393967D01*
X79432882Y-60296063D01*
X79486697Y-60178226D01*
X79505133Y-60050000D01*
X90494867Y-60050000D01*
X90513302Y-60178225D01*
X90518585Y-60189792D01*
X90567118Y-60296063D01*
X90651951Y-60393967D01*
X90760931Y-60464004D01*
X90885225Y-60500499D01*
X90885227Y-60500500D01*
X90885228Y-60500500D01*
X91014773Y-60500500D01*
X91014773Y-60500499D01*
X91139069Y-60464004D01*
X91248049Y-60393967D01*
X91332882Y-60296063D01*
X91386697Y-60178226D01*
X91405133Y-60050000D01*
X91386697Y-59921774D01*
X91332882Y-59803937D01*
X91248049Y-59706033D01*
X91139069Y-59635996D01*
X91139065Y-59635994D01*
X91139064Y-59635994D01*
X91014774Y-59599500D01*
X91014772Y-59599500D01*
X90885228Y-59599500D01*
X90885226Y-59599500D01*
X90760935Y-59635994D01*
X90760932Y-59635995D01*
X90760931Y-59635996D01*
X90709677Y-59668934D01*
X90651950Y-59706033D01*
X90567118Y-59803937D01*
X90567117Y-59803938D01*
X90513302Y-59921774D01*
X90494867Y-60050000D01*
X79505133Y-60050000D01*
X79486697Y-59921774D01*
X79432882Y-59803937D01*
X79348049Y-59706033D01*
X79239069Y-59635996D01*
X79239065Y-59635994D01*
X79239064Y-59635994D01*
X79114774Y-59599500D01*
X79114772Y-59599500D01*
X78985228Y-59599500D01*
X78985226Y-59599500D01*
X78860935Y-59635994D01*
X78860932Y-59635995D01*
X78860931Y-59635996D01*
X78809677Y-59668934D01*
X78751950Y-59706033D01*
X78667118Y-59803937D01*
X78667117Y-59803938D01*
X78613302Y-59921774D01*
X78594867Y-60050000D01*
X75866391Y-60050000D01*
X76381856Y-59534534D01*
X76409455Y-59513745D01*
X76411175Y-59512793D01*
X76837728Y-59151862D01*
X76845950Y-59145783D01*
X76848039Y-59143973D01*
X76848049Y-59143967D01*
X76848056Y-59143958D01*
X76851189Y-59141245D01*
X76856791Y-59135597D01*
X76857562Y-59134918D01*
X76858250Y-59134287D01*
X76862388Y-59128393D01*
X76870132Y-59118480D01*
X76932882Y-59046063D01*
X76986697Y-58928226D01*
X77005133Y-58800000D01*
X76986697Y-58671774D01*
X76932882Y-58553937D01*
X76848049Y-58456033D01*
X76739069Y-58385996D01*
X76739065Y-58385994D01*
X76739064Y-58385994D01*
X76614774Y-58349500D01*
X76614772Y-58349500D01*
X76485228Y-58349500D01*
X76485226Y-58349500D01*
X76360935Y-58385994D01*
X76360932Y-58385995D01*
X76360931Y-58385996D01*
X76316805Y-58414354D01*
X76251951Y-58456033D01*
X76251949Y-58456034D01*
X76235863Y-58474598D01*
X76219368Y-58490417D01*
X76210976Y-58497096D01*
X75993005Y-58754699D01*
X75837205Y-58938826D01*
X75837199Y-58938834D01*
X75834785Y-58942986D01*
X75815272Y-58968334D01*
X74929522Y-59854084D01*
X74929518Y-59854090D01*
X74876792Y-59945412D01*
X74876793Y-59945413D01*
X74849500Y-60047273D01*
X74849500Y-64420628D01*
X74829815Y-64487667D01*
X74777011Y-64533422D01*
X74707853Y-64543366D01*
X74663501Y-64528016D01*
X74608625Y-64496334D01*
X74569143Y-64485755D01*
X74471158Y-64459500D01*
X74328842Y-64459500D01*
X74191375Y-64496334D01*
X74191372Y-64496335D01*
X74068128Y-64567489D01*
X74068123Y-64567493D01*
X73967493Y-64668123D01*
X73967489Y-64668128D01*
X73896335Y-64791372D01*
X73896334Y-64791375D01*
X73859500Y-64928842D01*
X71890920Y-64928842D01*
X71890914Y-64662833D01*
X71891081Y-64656396D01*
X71893653Y-64606921D01*
X71926131Y-63982243D01*
X71926628Y-63975892D01*
X71996654Y-63304460D01*
X71997487Y-63298090D01*
X72102292Y-62631243D01*
X72103445Y-62624970D01*
X72242764Y-61964412D01*
X72244243Y-61958203D01*
X72417689Y-61305772D01*
X72419481Y-61299673D01*
X72626582Y-60657144D01*
X72628714Y-60651077D01*
X72686043Y-60500500D01*
X72868897Y-60020221D01*
X72871334Y-60014292D01*
X73143975Y-59396739D01*
X73146709Y-59390959D01*
X73445207Y-58799996D01*
X74444508Y-58799996D01*
X74444508Y-58800003D01*
X74464352Y-58925300D01*
X74464352Y-58925301D01*
X74471244Y-58938826D01*
X74521950Y-59038342D01*
X74521952Y-59038344D01*
X74521954Y-59038347D01*
X74611652Y-59128045D01*
X74611654Y-59128046D01*
X74611658Y-59128050D01*
X74724696Y-59185646D01*
X74724697Y-59185646D01*
X74724699Y-59185647D01*
X74849997Y-59205492D01*
X74850000Y-59205492D01*
X74850003Y-59205492D01*
X74975300Y-59185647D01*
X74975301Y-59185647D01*
X74975302Y-59185646D01*
X74975304Y-59185646D01*
X75088342Y-59128050D01*
X75178050Y-59038342D01*
X75235646Y-58925304D01*
X75235646Y-58925302D01*
X75235647Y-58925301D01*
X75235647Y-58925300D01*
X75255492Y-58800003D01*
X75255492Y-58799996D01*
X75235647Y-58674699D01*
X75235647Y-58674698D01*
X75218812Y-58641658D01*
X75178050Y-58561658D01*
X75178046Y-58561654D01*
X75178045Y-58561652D01*
X75088347Y-58471954D01*
X75088344Y-58471952D01*
X75088342Y-58471950D01*
X74975304Y-58414354D01*
X74975303Y-58414353D01*
X74975300Y-58414352D01*
X74850003Y-58394508D01*
X74849997Y-58394508D01*
X74724699Y-58414352D01*
X74724698Y-58414352D01*
X74661076Y-58446770D01*
X74611658Y-58471950D01*
X74611657Y-58471951D01*
X74611652Y-58471954D01*
X74521954Y-58561652D01*
X74521951Y-58561657D01*
X74464352Y-58674698D01*
X74464352Y-58674699D01*
X74444508Y-58799996D01*
X73445207Y-58799996D01*
X73451057Y-58788415D01*
X73454107Y-58782751D01*
X73701995Y-58349500D01*
X73789333Y-58196854D01*
X73792658Y-58191375D01*
X73967241Y-57920000D01*
X91844867Y-57920000D01*
X91863302Y-58048225D01*
X91917117Y-58166061D01*
X91917118Y-58166063D01*
X92001951Y-58263967D01*
X92096624Y-58324809D01*
X92142378Y-58377612D01*
X92152322Y-58446770D01*
X92123297Y-58510326D01*
X92085880Y-58539608D01*
X92061659Y-58551949D01*
X92061652Y-58551954D01*
X91971954Y-58641652D01*
X91971951Y-58641657D01*
X91914352Y-58754698D01*
X91914352Y-58754699D01*
X91894508Y-58879996D01*
X91894508Y-58880003D01*
X91914352Y-59005300D01*
X91914352Y-59005301D01*
X91914354Y-59005304D01*
X91971950Y-59118342D01*
X91971952Y-59118344D01*
X91971954Y-59118347D01*
X92061652Y-59208045D01*
X92061654Y-59208046D01*
X92061658Y-59208050D01*
X92174696Y-59265646D01*
X92174697Y-59265646D01*
X92174699Y-59265647D01*
X92299997Y-59285492D01*
X92300000Y-59285492D01*
X92300003Y-59285492D01*
X92425300Y-59265647D01*
X92425301Y-59265647D01*
X92425302Y-59265646D01*
X92425304Y-59265646D01*
X92538342Y-59208050D01*
X92628050Y-59118342D01*
X92685646Y-59005304D01*
X92685646Y-59005302D01*
X92685647Y-59005301D01*
X92685647Y-59005300D01*
X92705492Y-58880003D01*
X92705492Y-58879996D01*
X92685647Y-58754699D01*
X92685647Y-58754698D01*
X92685646Y-58754696D01*
X92628050Y-58641658D01*
X92628046Y-58641654D01*
X92628045Y-58641652D01*
X92538347Y-58551954D01*
X92538343Y-58551951D01*
X92538342Y-58551950D01*
X92514118Y-58539607D01*
X92463324Y-58491635D01*
X92446529Y-58423814D01*
X92469066Y-58357679D01*
X92503374Y-58324810D01*
X92598049Y-58263967D01*
X92682882Y-58166063D01*
X92736697Y-58048226D01*
X92755133Y-57920000D01*
X92736697Y-57791774D01*
X92682882Y-57673937D01*
X92598049Y-57576033D01*
X92489069Y-57505996D01*
X92489065Y-57505994D01*
X92489064Y-57505994D01*
X92364774Y-57469500D01*
X92364772Y-57469500D01*
X92235228Y-57469500D01*
X92235226Y-57469500D01*
X92110935Y-57505994D01*
X92110932Y-57505995D01*
X92110931Y-57505996D01*
X92059677Y-57538934D01*
X92001950Y-57576033D01*
X91917118Y-57673937D01*
X91917117Y-57673938D01*
X91863302Y-57791774D01*
X91844867Y-57920000D01*
X73967241Y-57920000D01*
X74157904Y-57623631D01*
X74161503Y-57618344D01*
X74503250Y-57143313D01*
X74513633Y-57135229D01*
X74512710Y-57134429D01*
X74548058Y-57093643D01*
X75235986Y-56299879D01*
X75239036Y-56296491D01*
X75747429Y-55753037D01*
X75753046Y-55747410D01*
X76331555Y-55203961D01*
X76335538Y-55200380D01*
X77093643Y-54548058D01*
X77093642Y-54548057D01*
X77129769Y-54516972D01*
X77143219Y-54503317D01*
X77618359Y-54161492D01*
X77623635Y-54157901D01*
X78191373Y-53792661D01*
X78196825Y-53789350D01*
X78782761Y-53454100D01*
X78788417Y-53451056D01*
X79390960Y-53146708D01*
X79396740Y-53143974D01*
X80014328Y-52871317D01*
X80020218Y-52868898D01*
X80651083Y-52628712D01*
X80657141Y-52626583D01*
X81299673Y-52419481D01*
X81305772Y-52417689D01*
X81958204Y-52244243D01*
X81964413Y-52242764D01*
X82624971Y-52103445D01*
X82631244Y-52102292D01*
X83298109Y-51997484D01*
X83304461Y-51996654D01*
X83975893Y-51926628D01*
X83982244Y-51926131D01*
X84656400Y-51891080D01*
X84662834Y-51890914D01*
X85337893Y-51890930D01*
G37*
%TD.AperFunction*%
%TD*%
%TA.AperFunction,Conductor*%
%TO.N,+5V*%
G36*
X94587327Y-64899957D02*
G01*
X94595588Y-64903411D01*
X94598987Y-64911696D01*
X94598947Y-64912629D01*
X94550894Y-65489272D01*
X94546792Y-65497232D01*
X94539234Y-65500000D01*
X94060766Y-65500000D01*
X94052493Y-65496573D01*
X94049106Y-65489272D01*
X94001052Y-64912629D01*
X94003780Y-64904099D01*
X94011740Y-64899997D01*
X94012653Y-64899957D01*
X94300000Y-64899000D01*
X94587327Y-64899957D01*
G37*
%TD.AperFunction*%
%TD*%
%TA.AperFunction,Conductor*%
%TO.N,+5V*%
G36*
X76095729Y-70405912D02*
G01*
X76537457Y-70779681D01*
X76541559Y-70787641D01*
X76538831Y-70796171D01*
X76538200Y-70796859D01*
X76335762Y-71000652D01*
X76335707Y-71000707D01*
X76131859Y-71203200D01*
X76123574Y-71206599D01*
X76115312Y-71203145D01*
X76114681Y-71202457D01*
X75943970Y-71000707D01*
X75740912Y-70760729D01*
X75738185Y-70752201D01*
X75741571Y-70744901D01*
X76079901Y-70406571D01*
X76088173Y-70403145D01*
X76095729Y-70405912D01*
G37*
%TD.AperFunction*%
%TD*%
%TA.AperFunction,Conductor*%
%TO.N,+5V*%
G36*
X87395900Y-71693780D02*
G01*
X87400002Y-71701740D01*
X87400042Y-71702673D01*
X87401000Y-71990000D01*
X87401000Y-71990078D01*
X87400042Y-72277326D01*
X87396588Y-72285588D01*
X87388303Y-72288987D01*
X87387370Y-72288947D01*
X86810728Y-72240894D01*
X86802768Y-72236792D01*
X86800000Y-72229234D01*
X86800000Y-71750766D01*
X86803427Y-71742493D01*
X86810728Y-71739106D01*
X87387371Y-71691052D01*
X87395900Y-71693780D01*
G37*
%TD.AperFunction*%
%TD*%
%TA.AperFunction,Conductor*%
%TO.N,+5V*%
G36*
X82739247Y-71244516D02*
G01*
X82742411Y-71250323D01*
X82875112Y-71865683D01*
X82873506Y-71874492D01*
X82868186Y-71878945D01*
X82605206Y-71988827D01*
X82596251Y-71988854D01*
X82596204Y-71988835D01*
X82331790Y-71878917D01*
X82325466Y-71872577D01*
X82324832Y-71865706D01*
X82383616Y-71586287D01*
X82386789Y-71580428D01*
X82722702Y-71244515D01*
X82730974Y-71241089D01*
X82739247Y-71244516D01*
G37*
%TD.AperFunction*%
%TD*%
%TA.AperFunction,Conductor*%
%TO.N,+5V*%
G36*
X76346171Y-58596168D02*
G01*
X76346859Y-58596799D01*
X76550707Y-58799293D01*
X76550762Y-58799348D01*
X76753200Y-59003140D01*
X76756599Y-59011425D01*
X76753145Y-59019687D01*
X76752457Y-59020318D01*
X76310731Y-59394086D01*
X76302201Y-59396814D01*
X76294900Y-59393427D01*
X75956572Y-59055099D01*
X75953145Y-59046826D01*
X75955911Y-59039271D01*
X76329683Y-58597540D01*
X76337641Y-58593440D01*
X76346171Y-58596168D01*
G37*
%TD.AperFunction*%
%TD*%
%TA.AperFunction,Conductor*%
%TO.N,+5VL*%
G36*
X50337893Y-51890930D02*
G01*
X50344265Y-51891097D01*
X51018414Y-51926183D01*
X51024804Y-51926682D01*
X51696195Y-51996740D01*
X51702575Y-51997574D01*
X52368604Y-52102287D01*
X52369412Y-52102414D01*
X52375749Y-52103580D01*
X53036212Y-52242914D01*
X53042480Y-52244407D01*
X53498428Y-52365644D01*
X53694846Y-52417871D01*
X53701008Y-52419682D01*
X54211423Y-52584230D01*
X54343481Y-52626803D01*
X54349560Y-52628939D01*
X54980396Y-52869152D01*
X54986346Y-52871596D01*
X55603863Y-53144260D01*
X55609663Y-53147003D01*
X56212179Y-53451378D01*
X56217853Y-53454432D01*
X56803731Y-53789689D01*
X56809239Y-53793034D01*
X57140143Y-54005938D01*
X57315183Y-54118559D01*
X57376898Y-54158266D01*
X57382220Y-54161888D01*
X57657714Y-54360106D01*
X57856694Y-54503272D01*
X57864767Y-54513643D01*
X57865574Y-54512713D01*
X57944405Y-54581033D01*
X58700093Y-55235963D01*
X58703534Y-55239060D01*
X59246942Y-55747410D01*
X59252600Y-55753057D01*
X59508531Y-56025499D01*
X59796020Y-56331536D01*
X59799636Y-56335558D01*
X60483035Y-57129779D01*
X60496686Y-57143224D01*
X60838484Y-57618325D01*
X60842110Y-57623651D01*
X61207328Y-58191352D01*
X61210672Y-58196861D01*
X61545894Y-58782751D01*
X61548948Y-58788425D01*
X61853281Y-59390937D01*
X61856036Y-59396762D01*
X62128669Y-60014292D01*
X62131117Y-60020253D01*
X62371285Y-60651073D01*
X62373421Y-60657152D01*
X62580507Y-61299631D01*
X62582322Y-61305808D01*
X62640853Y-61525978D01*
X62755750Y-61958174D01*
X62757243Y-61964442D01*
X62896549Y-62624938D01*
X62897714Y-62631276D01*
X63002514Y-63298090D01*
X63003349Y-63304479D01*
X63073370Y-63975855D01*
X63073872Y-63982280D01*
X63108920Y-64656397D01*
X63109087Y-64662838D01*
X63109071Y-65337858D01*
X63108903Y-65344300D01*
X63073819Y-66018397D01*
X63073317Y-66024821D01*
X63003261Y-66696190D01*
X63002426Y-66702580D01*
X62897587Y-67369413D01*
X62896421Y-67375750D01*
X62757087Y-68036212D01*
X62755594Y-68042480D01*
X62582131Y-68694841D01*
X62580314Y-68701024D01*
X62373198Y-69343482D01*
X62371062Y-69349561D01*
X62130849Y-69980397D01*
X62128400Y-69986358D01*
X61855746Y-70603851D01*
X61852991Y-70609676D01*
X61548622Y-71212180D01*
X61545568Y-71217854D01*
X61210311Y-71803733D01*
X61206966Y-71809241D01*
X60841735Y-72376900D01*
X60838109Y-72382227D01*
X60496730Y-72856692D01*
X60486359Y-72864765D01*
X60487289Y-72865571D01*
X59764076Y-73700048D01*
X59760925Y-73703549D01*
X59252589Y-74246942D01*
X59246935Y-74252607D01*
X58668463Y-74796020D01*
X58664441Y-74799636D01*
X57870241Y-75483017D01*
X57856778Y-75496681D01*
X57381655Y-75838495D01*
X57376329Y-75842121D01*
X56808654Y-76207321D01*
X56803146Y-76210665D01*
X56217247Y-76545893D01*
X56211572Y-76548947D01*
X55609061Y-76853280D01*
X55603236Y-76856035D01*
X54985706Y-77128667D01*
X54979745Y-77131115D01*
X54348926Y-77371283D01*
X54342847Y-77373419D01*
X53700368Y-77580505D01*
X53694185Y-77582322D01*
X53041825Y-77755748D01*
X53035557Y-77757241D01*
X52375060Y-77896547D01*
X52368722Y-77897712D01*
X51701909Y-78002512D01*
X51695520Y-78003347D01*
X51024143Y-78073368D01*
X51017718Y-78073870D01*
X50343602Y-78108918D01*
X50337161Y-78109085D01*
X49662141Y-78109069D01*
X49655699Y-78108901D01*
X48981602Y-78073817D01*
X48975178Y-78073315D01*
X48303809Y-78003259D01*
X48297419Y-78002424D01*
X47630587Y-77897585D01*
X47624250Y-77896419D01*
X46963787Y-77757085D01*
X46957519Y-77755592D01*
X46305159Y-77582129D01*
X46298976Y-77580312D01*
X45656518Y-77373196D01*
X45650439Y-77371060D01*
X45019603Y-77130847D01*
X45013642Y-77128398D01*
X44396149Y-76855745D01*
X44390324Y-76852990D01*
X43787820Y-76548621D01*
X43782146Y-76545567D01*
X43196268Y-76210310D01*
X43190760Y-76206965D01*
X42752518Y-75925000D01*
X46119867Y-75925000D01*
X46138302Y-76053225D01*
X46187120Y-76160120D01*
X46192118Y-76171063D01*
X46276951Y-76268967D01*
X46385931Y-76339004D01*
X46510225Y-76375499D01*
X46510227Y-76375500D01*
X46510228Y-76375500D01*
X46639773Y-76375500D01*
X46639773Y-76375499D01*
X46764069Y-76339004D01*
X46873049Y-76268967D01*
X46957882Y-76171063D01*
X47011697Y-76053226D01*
X47030133Y-75925000D01*
X52119867Y-75925000D01*
X52138302Y-76053225D01*
X52187120Y-76160120D01*
X52192118Y-76171063D01*
X52276951Y-76268967D01*
X52385931Y-76339004D01*
X52510225Y-76375499D01*
X52510227Y-76375500D01*
X52510228Y-76375500D01*
X52639773Y-76375500D01*
X52639773Y-76375499D01*
X52764069Y-76339004D01*
X52873049Y-76268967D01*
X52957882Y-76171063D01*
X53011697Y-76053226D01*
X53030133Y-75925000D01*
X53011697Y-75796774D01*
X52957882Y-75678937D01*
X52873049Y-75581033D01*
X52764069Y-75510996D01*
X52764065Y-75510994D01*
X52764064Y-75510994D01*
X52639774Y-75474500D01*
X52639772Y-75474500D01*
X52510228Y-75474500D01*
X52510226Y-75474500D01*
X52385935Y-75510994D01*
X52385932Y-75510995D01*
X52385931Y-75510996D01*
X52351056Y-75533409D01*
X52276950Y-75581033D01*
X52192118Y-75678937D01*
X52192117Y-75678938D01*
X52138302Y-75796774D01*
X52119867Y-75925000D01*
X47030133Y-75925000D01*
X47011697Y-75796774D01*
X46957882Y-75678937D01*
X46873049Y-75581033D01*
X46764069Y-75510996D01*
X46764065Y-75510994D01*
X46764064Y-75510994D01*
X46639774Y-75474500D01*
X46639772Y-75474500D01*
X46510228Y-75474500D01*
X46510226Y-75474500D01*
X46385935Y-75510994D01*
X46385932Y-75510995D01*
X46385931Y-75510996D01*
X46351056Y-75533409D01*
X46276950Y-75581033D01*
X46192118Y-75678937D01*
X46192117Y-75678938D01*
X46138302Y-75796774D01*
X46119867Y-75925000D01*
X42752518Y-75925000D01*
X42623101Y-75841733D01*
X42617774Y-75838107D01*
X42143311Y-75496731D01*
X42135239Y-75486362D01*
X42134433Y-75487293D01*
X41973955Y-75348213D01*
X41299909Y-74764039D01*
X41296450Y-74760925D01*
X41221803Y-74691094D01*
X40753053Y-74252585D01*
X40747392Y-74246935D01*
X40667655Y-74162054D01*
X40278518Y-73747811D01*
X40203979Y-73668463D01*
X40200363Y-73664441D01*
X40123402Y-73575000D01*
X43969867Y-73575000D01*
X43988302Y-73703225D01*
X44019639Y-73771842D01*
X44042118Y-73821063D01*
X44115624Y-73905895D01*
X44126895Y-73918903D01*
X44126951Y-73918967D01*
X44235931Y-73989004D01*
X44360225Y-74025499D01*
X44360227Y-74025500D01*
X44360228Y-74025500D01*
X44489773Y-74025500D01*
X44489773Y-74025499D01*
X44614069Y-73989004D01*
X44723049Y-73918967D01*
X44807882Y-73821063D01*
X44861697Y-73703226D01*
X44880133Y-73575000D01*
X55969867Y-73575000D01*
X55988302Y-73703225D01*
X56019639Y-73771842D01*
X56042118Y-73821063D01*
X56115624Y-73905895D01*
X56126895Y-73918903D01*
X56126951Y-73918967D01*
X56235931Y-73989004D01*
X56360225Y-74025499D01*
X56360227Y-74025500D01*
X56360228Y-74025500D01*
X56489773Y-74025500D01*
X56489773Y-74025499D01*
X56614069Y-73989004D01*
X56723049Y-73918967D01*
X56807882Y-73821063D01*
X56861697Y-73703226D01*
X56880133Y-73575000D01*
X56861697Y-73446774D01*
X56807882Y-73328937D01*
X56723049Y-73231033D01*
X56614069Y-73160996D01*
X56614065Y-73160994D01*
X56614064Y-73160994D01*
X56489774Y-73124500D01*
X56489772Y-73124500D01*
X56360228Y-73124500D01*
X56360226Y-73124500D01*
X56235935Y-73160994D01*
X56235932Y-73160995D01*
X56235931Y-73160996D01*
X56210389Y-73177411D01*
X56126950Y-73231033D01*
X56042118Y-73328937D01*
X56042117Y-73328938D01*
X55988302Y-73446774D01*
X55969867Y-73575000D01*
X44880133Y-73575000D01*
X44861697Y-73446774D01*
X44807882Y-73328937D01*
X44723049Y-73231033D01*
X44614069Y-73160996D01*
X44614065Y-73160994D01*
X44614064Y-73160994D01*
X44489774Y-73124500D01*
X44489772Y-73124500D01*
X44360228Y-73124500D01*
X44360226Y-73124500D01*
X44235935Y-73160994D01*
X44235932Y-73160995D01*
X44235931Y-73160996D01*
X44210389Y-73177411D01*
X44126950Y-73231033D01*
X44042118Y-73328937D01*
X44042117Y-73328938D01*
X43988302Y-73446774D01*
X43969867Y-73575000D01*
X40123402Y-73575000D01*
X39950097Y-73373592D01*
X39564100Y-72925000D01*
X41619867Y-72925000D01*
X41638302Y-73053225D01*
X41689914Y-73166237D01*
X41692118Y-73171063D01*
X41776951Y-73268967D01*
X41885931Y-73339004D01*
X42003730Y-73373592D01*
X42010225Y-73375499D01*
X42010227Y-73375500D01*
X42010228Y-73375500D01*
X42139773Y-73375500D01*
X42139773Y-73375499D01*
X42264069Y-73339004D01*
X42373049Y-73268967D01*
X42457882Y-73171063D01*
X42511697Y-73053226D01*
X42530133Y-72925000D01*
X42511697Y-72796774D01*
X42457882Y-72678937D01*
X42373049Y-72581033D01*
X42264069Y-72510996D01*
X42264065Y-72510994D01*
X42264064Y-72510994D01*
X42139774Y-72474500D01*
X42139772Y-72474500D01*
X42010228Y-72474500D01*
X42010226Y-72474500D01*
X41885935Y-72510994D01*
X41885932Y-72510995D01*
X41885931Y-72510996D01*
X41834677Y-72543934D01*
X41776950Y-72581033D01*
X41692118Y-72678937D01*
X41692117Y-72678938D01*
X41638302Y-72796774D01*
X41619867Y-72925000D01*
X39564100Y-72925000D01*
X39548058Y-72906357D01*
X39516994Y-72870256D01*
X39503319Y-72856782D01*
X39503254Y-72856692D01*
X39161504Y-72381657D01*
X39157884Y-72376338D01*
X39118364Y-72314907D01*
X38792672Y-71808643D01*
X38789334Y-71803146D01*
X38738567Y-71714418D01*
X38454106Y-71217247D01*
X38451052Y-71211572D01*
X38253802Y-70821061D01*
X38146715Y-70609054D01*
X38143964Y-70603236D01*
X38131498Y-70574999D01*
X37871323Y-69985684D01*
X37868893Y-69979767D01*
X37848042Y-69925000D01*
X40119867Y-69925000D01*
X40138302Y-70053225D01*
X40192117Y-70171061D01*
X40192118Y-70171063D01*
X40276951Y-70268967D01*
X40385931Y-70339004D01*
X40510225Y-70375499D01*
X40510227Y-70375500D01*
X40510228Y-70375500D01*
X40639773Y-70375500D01*
X40639773Y-70375499D01*
X40718572Y-70352362D01*
X40764063Y-70339006D01*
X40764063Y-70339005D01*
X40764069Y-70339004D01*
X40799788Y-70316048D01*
X40866822Y-70296365D01*
X40933862Y-70316049D01*
X40979618Y-70368852D01*
X40989562Y-70438010D01*
X40989562Y-70438011D01*
X40969867Y-70574999D01*
X40988302Y-70703225D01*
X41042117Y-70821061D01*
X41042118Y-70821063D01*
X41126951Y-70918967D01*
X41235931Y-70989004D01*
X41360225Y-71025499D01*
X41360227Y-71025500D01*
X41360228Y-71025500D01*
X41489773Y-71025500D01*
X41489773Y-71025499D01*
X41614069Y-70989004D01*
X41723049Y-70918967D01*
X41807882Y-70821063D01*
X41861697Y-70703226D01*
X41880133Y-70575000D01*
X41861697Y-70446774D01*
X41807882Y-70328937D01*
X41723049Y-70231033D01*
X41614069Y-70160996D01*
X41614065Y-70160994D01*
X41614064Y-70160994D01*
X41489774Y-70124500D01*
X41489772Y-70124500D01*
X41360228Y-70124500D01*
X41360226Y-70124500D01*
X41235933Y-70160994D01*
X41235932Y-70160994D01*
X41200213Y-70183950D01*
X41133173Y-70203634D01*
X41066134Y-70183949D01*
X41020380Y-70131144D01*
X41010437Y-70061987D01*
X41011697Y-70053225D01*
X41030133Y-69925000D01*
X56619867Y-69925000D01*
X56638302Y-70053225D01*
X56692117Y-70171061D01*
X56692118Y-70171063D01*
X56776951Y-70268967D01*
X56885931Y-70339004D01*
X57010225Y-70375499D01*
X57010227Y-70375500D01*
X57010228Y-70375500D01*
X57139773Y-70375500D01*
X57139773Y-70375499D01*
X57264069Y-70339004D01*
X57373049Y-70268967D01*
X57457882Y-70171063D01*
X57511697Y-70053226D01*
X57530133Y-69925000D01*
X57511697Y-69796774D01*
X57457882Y-69678937D01*
X57373049Y-69581033D01*
X57264069Y-69510996D01*
X57264065Y-69510994D01*
X57264064Y-69510994D01*
X57139774Y-69474500D01*
X57139772Y-69474500D01*
X57010228Y-69474500D01*
X57010226Y-69474500D01*
X56885935Y-69510994D01*
X56885932Y-69510995D01*
X56885931Y-69510996D01*
X56834677Y-69543934D01*
X56776950Y-69581033D01*
X56692118Y-69678937D01*
X56692117Y-69678938D01*
X56638302Y-69796774D01*
X56619867Y-69925000D01*
X41030133Y-69925000D01*
X41011697Y-69796774D01*
X40957882Y-69678937D01*
X40873049Y-69581033D01*
X40764069Y-69510996D01*
X40764065Y-69510994D01*
X40764064Y-69510994D01*
X40639774Y-69474500D01*
X40639772Y-69474500D01*
X40510228Y-69474500D01*
X40510226Y-69474500D01*
X40385935Y-69510994D01*
X40385932Y-69510995D01*
X40385931Y-69510996D01*
X40334677Y-69543934D01*
X40276950Y-69581033D01*
X40192118Y-69678937D01*
X40192117Y-69678938D01*
X40138302Y-69796774D01*
X40119867Y-69925000D01*
X37848042Y-69925000D01*
X37628716Y-69348926D01*
X37626580Y-69342847D01*
X37563575Y-69147376D01*
X37419484Y-68700336D01*
X37417686Y-68694216D01*
X37244246Y-68041804D01*
X37242763Y-68035578D01*
X37103447Y-67375034D01*
X37102291Y-67368748D01*
X37032549Y-66925000D01*
X38619867Y-66925000D01*
X38638302Y-67053225D01*
X38659514Y-67099671D01*
X38692118Y-67171063D01*
X38776951Y-67268967D01*
X38885931Y-67339004D01*
X39010225Y-67375499D01*
X39010227Y-67375500D01*
X39010228Y-67375500D01*
X39139773Y-67375500D01*
X39139773Y-67375499D01*
X39264069Y-67339004D01*
X39373049Y-67268967D01*
X39457882Y-67171063D01*
X39511697Y-67053226D01*
X39530133Y-66925000D01*
X59619867Y-66925000D01*
X59638302Y-67053225D01*
X59659514Y-67099671D01*
X59692118Y-67171063D01*
X59776951Y-67268967D01*
X59885931Y-67339004D01*
X60010225Y-67375499D01*
X60010227Y-67375500D01*
X60010228Y-67375500D01*
X60139773Y-67375500D01*
X60139773Y-67375499D01*
X60264069Y-67339004D01*
X60373049Y-67268967D01*
X60457882Y-67171063D01*
X60511697Y-67053226D01*
X60530133Y-66925000D01*
X60511697Y-66796774D01*
X60457882Y-66678937D01*
X60373049Y-66581033D01*
X60264069Y-66510996D01*
X60264065Y-66510994D01*
X60264064Y-66510994D01*
X60139774Y-66474500D01*
X60139772Y-66474500D01*
X60010228Y-66474500D01*
X60010226Y-66474500D01*
X59885935Y-66510994D01*
X59885932Y-66510995D01*
X59885931Y-66510996D01*
X59834677Y-66543934D01*
X59776950Y-66581033D01*
X59692118Y-66678937D01*
X59692117Y-66678938D01*
X59638302Y-66796774D01*
X59619867Y-66925000D01*
X39530133Y-66925000D01*
X39511697Y-66796774D01*
X39457882Y-66678937D01*
X39373049Y-66581033D01*
X39264069Y-66510996D01*
X39264065Y-66510994D01*
X39264064Y-66510994D01*
X39139774Y-66474500D01*
X39139772Y-66474500D01*
X39010228Y-66474500D01*
X39010226Y-66474500D01*
X38885935Y-66510994D01*
X38885932Y-66510995D01*
X38885931Y-66510996D01*
X38834677Y-66543934D01*
X38776950Y-66581033D01*
X38692118Y-66678937D01*
X38692117Y-66678938D01*
X38638302Y-66796774D01*
X38619867Y-66925000D01*
X37032549Y-66925000D01*
X36997485Y-66701895D01*
X36996652Y-66695520D01*
X36994923Y-66678938D01*
X36926628Y-66024109D01*
X36926131Y-66017752D01*
X36891080Y-65343600D01*
X36890914Y-65337161D01*
X36890922Y-65000346D01*
X36890930Y-64662105D01*
X36891097Y-64655735D01*
X36926183Y-63981582D01*
X36926682Y-63975198D01*
X36931920Y-63925000D01*
X38619867Y-63925000D01*
X38638302Y-64053225D01*
X38692117Y-64171061D01*
X38692118Y-64171063D01*
X38776951Y-64268967D01*
X38885931Y-64339004D01*
X39010225Y-64375499D01*
X39010227Y-64375500D01*
X39010228Y-64375500D01*
X39139773Y-64375500D01*
X39139773Y-64375499D01*
X39264069Y-64339004D01*
X39373049Y-64268967D01*
X39457882Y-64171063D01*
X39511697Y-64053226D01*
X39530133Y-63925000D01*
X58119867Y-63925000D01*
X58138302Y-64053225D01*
X58192117Y-64171061D01*
X58192118Y-64171063D01*
X58276951Y-64268967D01*
X58385931Y-64339004D01*
X58510225Y-64375499D01*
X58510227Y-64375500D01*
X58510228Y-64375500D01*
X58639773Y-64375500D01*
X58639773Y-64375499D01*
X58764069Y-64339004D01*
X58873049Y-64268967D01*
X58957882Y-64171063D01*
X59011697Y-64053226D01*
X59030133Y-63925000D01*
X59011697Y-63796774D01*
X58957882Y-63678937D01*
X58873049Y-63581033D01*
X58764069Y-63510996D01*
X58764065Y-63510994D01*
X58764064Y-63510994D01*
X58639774Y-63474500D01*
X58639772Y-63474500D01*
X58510228Y-63474500D01*
X58510226Y-63474500D01*
X58385935Y-63510994D01*
X58385932Y-63510995D01*
X58385931Y-63510996D01*
X58334677Y-63543934D01*
X58276950Y-63581033D01*
X58192118Y-63678937D01*
X58192117Y-63678938D01*
X58138302Y-63796774D01*
X58119867Y-63925000D01*
X39530133Y-63925000D01*
X39511697Y-63796774D01*
X39457882Y-63678937D01*
X39373049Y-63581033D01*
X39264069Y-63510996D01*
X39264065Y-63510994D01*
X39264064Y-63510994D01*
X39139774Y-63474500D01*
X39139772Y-63474500D01*
X39010228Y-63474500D01*
X39010226Y-63474500D01*
X38885935Y-63510994D01*
X38885932Y-63510995D01*
X38885931Y-63510996D01*
X38834677Y-63543934D01*
X38776950Y-63581033D01*
X38692118Y-63678937D01*
X38692117Y-63678938D01*
X38638302Y-63796774D01*
X38619867Y-63925000D01*
X36931920Y-63925000D01*
X36996741Y-63303799D01*
X36997575Y-63297419D01*
X37060006Y-62900329D01*
X37102415Y-62630579D01*
X37103580Y-62624250D01*
X37191102Y-62209386D01*
X37242914Y-61963783D01*
X37244407Y-61957519D01*
X37358974Y-61526655D01*
X37417874Y-61305142D01*
X37419679Y-61299001D01*
X37540250Y-60925000D01*
X40119867Y-60925000D01*
X40138302Y-61053225D01*
X40192117Y-61171061D01*
X40192118Y-61171063D01*
X40276951Y-61268967D01*
X40385931Y-61339004D01*
X40510225Y-61375499D01*
X40510227Y-61375500D01*
X40510228Y-61375500D01*
X40639773Y-61375500D01*
X40639773Y-61375499D01*
X40764069Y-61339004D01*
X40873049Y-61268967D01*
X40957882Y-61171063D01*
X41011697Y-61053226D01*
X41030133Y-60925000D01*
X58119867Y-60925000D01*
X58138302Y-61053225D01*
X58192117Y-61171061D01*
X58192118Y-61171063D01*
X58276951Y-61268967D01*
X58385931Y-61339004D01*
X58510225Y-61375499D01*
X58510227Y-61375500D01*
X58510228Y-61375500D01*
X58639773Y-61375500D01*
X58639773Y-61375499D01*
X58764069Y-61339004D01*
X58873049Y-61268967D01*
X58957882Y-61171063D01*
X59011697Y-61053226D01*
X59030133Y-60925000D01*
X59011697Y-60796774D01*
X58957882Y-60678937D01*
X58873049Y-60581033D01*
X58764069Y-60510996D01*
X58764065Y-60510994D01*
X58764064Y-60510994D01*
X58639774Y-60474500D01*
X58639772Y-60474500D01*
X58510228Y-60474500D01*
X58510226Y-60474500D01*
X58385935Y-60510994D01*
X58385932Y-60510995D01*
X58385931Y-60510996D01*
X58334677Y-60543934D01*
X58276950Y-60581033D01*
X58192118Y-60678937D01*
X58192117Y-60678938D01*
X58138302Y-60796774D01*
X58119867Y-60925000D01*
X41030133Y-60925000D01*
X41011697Y-60796774D01*
X40957882Y-60678937D01*
X40873049Y-60581033D01*
X40764069Y-60510996D01*
X40764065Y-60510994D01*
X40764064Y-60510994D01*
X40639774Y-60474500D01*
X40639772Y-60474500D01*
X40510228Y-60474500D01*
X40510226Y-60474500D01*
X40385935Y-60510994D01*
X40385932Y-60510995D01*
X40385931Y-60510996D01*
X40334677Y-60543934D01*
X40276950Y-60581033D01*
X40192118Y-60678937D01*
X40192117Y-60678938D01*
X40138302Y-60796774D01*
X40119867Y-60925000D01*
X37540250Y-60925000D01*
X37626806Y-60656508D01*
X37628939Y-60650439D01*
X37804344Y-60189799D01*
X37869156Y-60019591D01*
X37871590Y-60013667D01*
X38144267Y-59396121D01*
X38146996Y-59390351D01*
X38451388Y-58787801D01*
X38454421Y-58782165D01*
X38572967Y-58575000D01*
X40969867Y-58575000D01*
X40988302Y-58703225D01*
X41042117Y-58821061D01*
X41042118Y-58821063D01*
X41126951Y-58918967D01*
X41235931Y-58989004D01*
X41360225Y-59025499D01*
X41360227Y-59025500D01*
X41360228Y-59025500D01*
X41489773Y-59025500D01*
X41489773Y-59025499D01*
X41614069Y-58989004D01*
X41723049Y-58918967D01*
X41807882Y-58821063D01*
X41861697Y-58703226D01*
X41880133Y-58575000D01*
X55969867Y-58575000D01*
X55988302Y-58703225D01*
X56042117Y-58821061D01*
X56042118Y-58821063D01*
X56126951Y-58918967D01*
X56235931Y-58989004D01*
X56360225Y-59025499D01*
X56360227Y-59025500D01*
X56360228Y-59025500D01*
X56489773Y-59025500D01*
X56489773Y-59025499D01*
X56614069Y-58989004D01*
X56723049Y-58918967D01*
X56807882Y-58821063D01*
X56861697Y-58703226D01*
X56880133Y-58575000D01*
X56861697Y-58446774D01*
X56807882Y-58328937D01*
X56723049Y-58231033D01*
X56614069Y-58160996D01*
X56614065Y-58160994D01*
X56614064Y-58160994D01*
X56489774Y-58124500D01*
X56489772Y-58124500D01*
X56360228Y-58124500D01*
X56360226Y-58124500D01*
X56235935Y-58160994D01*
X56235932Y-58160995D01*
X56235931Y-58160996D01*
X56189617Y-58190760D01*
X56126950Y-58231033D01*
X56042118Y-58328937D01*
X56042117Y-58328938D01*
X55988302Y-58446774D01*
X55969867Y-58575000D01*
X41880133Y-58575000D01*
X41871671Y-58516146D01*
X41881615Y-58446989D01*
X41927369Y-58394185D01*
X41994409Y-58374500D01*
X42008378Y-58375500D01*
X42010228Y-58375500D01*
X42139773Y-58375500D01*
X42139773Y-58375499D01*
X42264069Y-58339004D01*
X42373049Y-58268967D01*
X42457882Y-58171063D01*
X42511697Y-58053226D01*
X42530133Y-57925000D01*
X42511697Y-57796774D01*
X42457882Y-57678937D01*
X42373049Y-57581033D01*
X42264069Y-57510996D01*
X42264065Y-57510994D01*
X42264064Y-57510994D01*
X42139774Y-57474500D01*
X42139772Y-57474500D01*
X42010228Y-57474500D01*
X42010226Y-57474500D01*
X41885935Y-57510994D01*
X41885932Y-57510995D01*
X41885931Y-57510996D01*
X41834677Y-57543934D01*
X41776950Y-57581033D01*
X41692118Y-57678937D01*
X41692117Y-57678938D01*
X41638302Y-57796774D01*
X41619867Y-57925000D01*
X41619867Y-57925001D01*
X41628328Y-57983853D01*
X41618384Y-58053012D01*
X41572628Y-58105815D01*
X41505589Y-58125499D01*
X41491613Y-58124500D01*
X41489772Y-58124500D01*
X41360228Y-58124500D01*
X41360226Y-58124500D01*
X41235935Y-58160994D01*
X41235932Y-58160995D01*
X41235931Y-58160996D01*
X41189617Y-58190760D01*
X41126950Y-58231033D01*
X41042118Y-58328937D01*
X41042117Y-58328938D01*
X40988302Y-58446774D01*
X40969867Y-58575000D01*
X38572967Y-58575000D01*
X38789692Y-58196262D01*
X38793034Y-58190760D01*
X38805708Y-58171062D01*
X39158295Y-57623055D01*
X39161861Y-57617817D01*
X39503273Y-57143303D01*
X39513638Y-57135233D01*
X39512710Y-57134429D01*
X39548058Y-57093643D01*
X40235986Y-56299879D01*
X40239036Y-56296491D01*
X40747429Y-55753037D01*
X40753046Y-55747410D01*
X40936579Y-55575000D01*
X43969867Y-55575000D01*
X43988302Y-55703225D01*
X44042117Y-55821061D01*
X44042118Y-55821063D01*
X44126951Y-55918967D01*
X44235931Y-55989004D01*
X44360225Y-56025499D01*
X44360227Y-56025500D01*
X44360228Y-56025500D01*
X44489773Y-56025500D01*
X44489773Y-56025499D01*
X44614069Y-55989004D01*
X44723049Y-55918967D01*
X44807882Y-55821063D01*
X44861697Y-55703226D01*
X44880133Y-55575000D01*
X55969867Y-55575000D01*
X55988302Y-55703225D01*
X56042117Y-55821061D01*
X56042118Y-55821063D01*
X56126951Y-55918967D01*
X56235931Y-55989004D01*
X56360225Y-56025499D01*
X56360227Y-56025500D01*
X56360228Y-56025500D01*
X56489773Y-56025500D01*
X56489773Y-56025499D01*
X56614069Y-55989004D01*
X56723049Y-55918967D01*
X56807882Y-55821063D01*
X56861697Y-55703226D01*
X56880133Y-55575000D01*
X56861697Y-55446774D01*
X56807882Y-55328937D01*
X56723049Y-55231033D01*
X56614069Y-55160996D01*
X56614065Y-55160994D01*
X56614064Y-55160994D01*
X56489774Y-55124500D01*
X56489772Y-55124500D01*
X56360228Y-55124500D01*
X56360226Y-55124500D01*
X56235935Y-55160994D01*
X56235932Y-55160995D01*
X56235931Y-55160996D01*
X56184677Y-55193934D01*
X56126950Y-55231033D01*
X56042118Y-55328937D01*
X56042117Y-55328938D01*
X55988302Y-55446774D01*
X55969867Y-55575000D01*
X44880133Y-55575000D01*
X44861697Y-55446774D01*
X44807882Y-55328937D01*
X44723049Y-55231033D01*
X44614069Y-55160996D01*
X44614065Y-55160994D01*
X44614064Y-55160994D01*
X44489774Y-55124500D01*
X44489772Y-55124500D01*
X44360228Y-55124500D01*
X44360226Y-55124500D01*
X44235935Y-55160994D01*
X44235932Y-55160995D01*
X44235931Y-55160996D01*
X44184677Y-55193934D01*
X44126950Y-55231033D01*
X44042118Y-55328937D01*
X44042117Y-55328938D01*
X43988302Y-55446774D01*
X43969867Y-55575000D01*
X40936579Y-55575000D01*
X41331555Y-55203961D01*
X41335538Y-55200380D01*
X41655575Y-54925000D01*
X46119867Y-54925000D01*
X46138302Y-55053225D01*
X46192117Y-55171061D01*
X46192118Y-55171063D01*
X46244082Y-55231033D01*
X46270840Y-55261915D01*
X46276951Y-55268967D01*
X46385931Y-55339004D01*
X46510225Y-55375499D01*
X46510227Y-55375500D01*
X46510228Y-55375500D01*
X46639773Y-55375500D01*
X46639773Y-55375499D01*
X46764069Y-55339004D01*
X46873049Y-55268967D01*
X46957882Y-55171063D01*
X47011697Y-55053226D01*
X47030133Y-54925000D01*
X50619867Y-54925000D01*
X50638302Y-55053225D01*
X50692117Y-55171061D01*
X50692118Y-55171063D01*
X50744082Y-55231033D01*
X50770840Y-55261915D01*
X50776951Y-55268967D01*
X50885931Y-55339004D01*
X51010225Y-55375499D01*
X51010227Y-55375500D01*
X51010228Y-55375500D01*
X51139773Y-55375500D01*
X51139773Y-55375499D01*
X51264069Y-55339004D01*
X51373049Y-55268967D01*
X51457882Y-55171063D01*
X51511697Y-55053226D01*
X51530133Y-54925000D01*
X52869867Y-54925000D01*
X52888302Y-55053225D01*
X52942117Y-55171061D01*
X52942118Y-55171063D01*
X52994082Y-55231033D01*
X53020840Y-55261915D01*
X53026951Y-55268967D01*
X53135931Y-55339004D01*
X53260225Y-55375499D01*
X53260227Y-55375500D01*
X53260228Y-55375500D01*
X53389773Y-55375500D01*
X53389773Y-55375499D01*
X53514069Y-55339004D01*
X53623049Y-55268967D01*
X53707882Y-55171063D01*
X53761697Y-55053226D01*
X53780133Y-54925000D01*
X53761697Y-54796774D01*
X53707882Y-54678937D01*
X53623049Y-54581033D01*
X53514069Y-54510996D01*
X53514065Y-54510994D01*
X53514064Y-54510994D01*
X53389774Y-54474500D01*
X53389772Y-54474500D01*
X53260228Y-54474500D01*
X53260226Y-54474500D01*
X53135935Y-54510994D01*
X53135932Y-54510995D01*
X53135931Y-54510996D01*
X53091260Y-54539704D01*
X53026950Y-54581033D01*
X52942118Y-54678937D01*
X52942117Y-54678938D01*
X52888302Y-54796774D01*
X52869867Y-54925000D01*
X51530133Y-54925000D01*
X51511697Y-54796774D01*
X51457882Y-54678937D01*
X51373049Y-54581033D01*
X51264069Y-54510996D01*
X51264065Y-54510994D01*
X51264064Y-54510994D01*
X51139774Y-54474500D01*
X51139772Y-54474500D01*
X51010228Y-54474500D01*
X51010226Y-54474500D01*
X50885935Y-54510994D01*
X50885932Y-54510995D01*
X50885931Y-54510996D01*
X50841260Y-54539704D01*
X50776950Y-54581033D01*
X50692118Y-54678937D01*
X50692117Y-54678938D01*
X50638302Y-54796774D01*
X50619867Y-54925000D01*
X47030133Y-54925000D01*
X47011697Y-54796774D01*
X46957882Y-54678937D01*
X46873049Y-54581033D01*
X46764069Y-54510996D01*
X46764065Y-54510994D01*
X46764064Y-54510994D01*
X46639774Y-54474500D01*
X46639772Y-54474500D01*
X46510228Y-54474500D01*
X46510226Y-54474500D01*
X46385935Y-54510994D01*
X46385932Y-54510995D01*
X46385931Y-54510996D01*
X46341260Y-54539704D01*
X46276950Y-54581033D01*
X46192118Y-54678937D01*
X46192117Y-54678938D01*
X46138302Y-54796774D01*
X46119867Y-54925000D01*
X41655575Y-54925000D01*
X42093643Y-54548058D01*
X42093642Y-54548057D01*
X42129769Y-54516972D01*
X42143219Y-54503317D01*
X42618359Y-54161492D01*
X42623635Y-54157901D01*
X43191373Y-53792661D01*
X43196825Y-53789350D01*
X43782761Y-53454100D01*
X43788417Y-53451056D01*
X44390960Y-53146708D01*
X44396740Y-53143974D01*
X45014328Y-52871317D01*
X45020218Y-52868898D01*
X45651083Y-52628712D01*
X45657141Y-52626583D01*
X46299673Y-52419481D01*
X46305772Y-52417689D01*
X46958204Y-52244243D01*
X46964413Y-52242764D01*
X47624971Y-52103445D01*
X47631244Y-52102292D01*
X48298109Y-51997484D01*
X48304461Y-51996654D01*
X48975893Y-51926628D01*
X48982244Y-51926131D01*
X49656400Y-51891080D01*
X49662834Y-51890914D01*
X50337893Y-51890930D01*
G37*
%TD.AperFunction*%
%TD*%
%TA.AperFunction,Conductor*%
%TO.N,+5V*%
G36*
X87647507Y-71393427D02*
G01*
X87650894Y-71400728D01*
X87698947Y-71977370D01*
X87696219Y-71985900D01*
X87688259Y-71990002D01*
X87687326Y-71990042D01*
X87400039Y-71990999D01*
X87399961Y-71990999D01*
X87112673Y-71990042D01*
X87104411Y-71986588D01*
X87101012Y-71978303D01*
X87101052Y-71977370D01*
X87149106Y-71400728D01*
X87153208Y-71392768D01*
X87160766Y-71390000D01*
X87639234Y-71390000D01*
X87647507Y-71393427D01*
G37*
%TD.AperFunction*%
%TD*%
M02*
