M48
; DRILL file {KiCad 8.0.2-1} date 2025-04-10T12:31:02-0700
; FORMAT={-:-/ absolute / metric / decimal}
; #@! TF.CreationDate,2025-04-10T12:31:02-07:00
; #@! TF.GenerationSoftware,Kicad,Pcbnew,8.0.2-1
; #@! TF.FileFunction,NonPlated,1,4,NPTH
FMAT,2
METRIC
; #@! TA.AperFunction,NonPlated,NPTH,ComponentDrill
T1C0.500
; #@! TA.AperFunction,NonPlated,NPTH,ComponentDrill
T2C0.650
; #@! TA.AperFunction,NonPlated,NPTH,ComponentDrill
T3C0.700
%
G90
G05
T1
X38.929Y-39.99
X38.929Y-60.01
X39.46Y-39.46
X39.46Y-60.54
X39.919Y-40.98
X39.919Y-59.02
X39.99Y-38.929
X39.99Y-61.071
X40.432Y-40.432
X40.432Y-59.568
X40.98Y-39.919
X40.98Y-60.081
X59.02Y-39.919
X59.02Y-60.081
X59.568Y-40.432
X59.568Y-59.568
X60.01Y-38.929
X60.01Y-61.071
X60.081Y-40.98
X60.081Y-59.02
X60.54Y-39.46
X60.54Y-60.54
X61.071Y-39.99
X61.071Y-60.01
X73.929Y-39.99
X73.929Y-60.01
X74.46Y-39.46
X74.46Y-60.54
X74.919Y-40.98
X74.919Y-59.02
X74.99Y-38.929
X74.99Y-61.071
X75.432Y-40.432
X75.432Y-59.568
X75.98Y-39.919
X75.98Y-60.081
X94.02Y-39.919
X94.02Y-60.081
X94.568Y-40.432
X94.568Y-59.568
X95.01Y-38.929
X95.01Y-61.071
X95.081Y-40.98
X95.081Y-59.02
X95.54Y-39.46
X95.54Y-60.54
X96.071Y-39.99
X96.071Y-60.01
T2
X82.11Y-58.09
X87.89Y-58.09
T3
X74.4Y-50.0
X76.2Y-50.0
X94.2Y-46.3
X94.2Y-53.7
X96.0Y-46.3
X96.0Y-53.7
M30
