%TF.GenerationSoftware,KiCad,Pcbnew,8.0.2-1*%
%TF.CreationDate,2025-04-10T09:26:31-07:00*%
%TF.ProjectId,Small_Pendant,536d616c-6c5f-4506-956e-64616e742e6b,rev?*%
%TF.SameCoordinates,Original*%
%TF.FileFunction,Paste,Top*%
%TF.FilePolarity,Positive*%
%FSLAX46Y46*%
G04 Gerber Fmt 4.6, Leading zero omitted, Abs format (unit mm)*
G04 Created by KiCad (PCBNEW 8.0.2-1) date 2025-04-10 09:26:31*
%MOMM*%
%LPD*%
G01*
G04 APERTURE LIST*
G04 Aperture macros list*
%AMRoundRect*
0 Rectangle with rounded corners*
0 $1 Rounding radius*
0 $2 $3 $4 $5 $6 $7 $8 $9 X,Y pos of 4 corners*
0 Add a 4 corners polygon primitive as box body*
4,1,4,$2,$3,$4,$5,$6,$7,$8,$9,$2,$3,0*
0 Add four circle primitives for the rounded corners*
1,1,$1+$1,$2,$3*
1,1,$1+$1,$4,$5*
1,1,$1+$1,$6,$7*
1,1,$1+$1,$8,$9*
0 Add four rect primitives between the rounded corners*
20,1,$1+$1,$2,$3,$4,$5,0*
20,1,$1+$1,$4,$5,$6,$7,0*
20,1,$1+$1,$6,$7,$8,$9,0*
20,1,$1+$1,$8,$9,$2,$3,0*%
G04 Aperture macros list end*
%ADD10RoundRect,0.112500X-0.112500X-0.112500X0.112500X-0.112500X0.112500X0.112500X-0.112500X0.112500X0*%
%ADD11RoundRect,0.112500X0.112500X0.112500X-0.112500X0.112500X-0.112500X-0.112500X0.112500X-0.112500X0*%
%ADD12R,1.700000X0.850000*%
%ADD13R,1.700000X0.845000*%
%ADD14RoundRect,0.135000X0.185000X-0.135000X0.185000X0.135000X-0.185000X0.135000X-0.185000X-0.135000X0*%
%ADD15RoundRect,0.140000X-0.170000X0.140000X-0.170000X-0.140000X0.170000X-0.140000X0.170000X0.140000X0*%
%ADD16RoundRect,0.140000X0.170000X-0.140000X0.170000X0.140000X-0.170000X0.140000X-0.170000X-0.140000X0*%
%ADD17RoundRect,0.140000X-0.140000X-0.170000X0.140000X-0.170000X0.140000X0.170000X-0.140000X0.170000X0*%
%ADD18RoundRect,0.135000X-0.185000X0.135000X-0.185000X-0.135000X0.185000X-0.135000X0.185000X0.135000X0*%
%ADD19O,1.000000X1.800000*%
%ADD20O,1.000000X2.100000*%
%ADD21RoundRect,0.150000X-0.150000X-0.425000X0.150000X-0.425000X0.150000X0.425000X-0.150000X0.425000X0*%
%ADD22RoundRect,0.075000X-0.075000X-0.500000X0.075000X-0.500000X0.075000X0.500000X-0.075000X0.500000X0*%
%ADD23R,0.300000X0.525000*%
%ADD24R,0.425000X0.300000*%
%ADD25RoundRect,0.140000X0.140000X0.170000X-0.140000X0.170000X-0.140000X-0.170000X0.140000X-0.170000X0*%
%ADD26RoundRect,0.135000X-0.135000X-0.185000X0.135000X-0.185000X0.135000X0.185000X-0.135000X0.185000X0*%
%ADD27RoundRect,0.100000X-0.100000X0.225000X-0.100000X-0.225000X0.100000X-0.225000X0.100000X0.225000X0*%
%ADD28RoundRect,0.218750X-0.256250X0.218750X-0.256250X-0.218750X0.256250X-0.218750X0.256250X0.218750X0*%
%ADD29R,0.449999X0.299999*%
%ADD30RoundRect,0.135000X0.135000X0.185000X-0.135000X0.185000X-0.135000X-0.185000X0.135000X-0.185000X0*%
G04 APERTURE END LIST*
D10*
%TO.C,D135*%
X51075000Y-54075000D03*
X51925000Y-54075000D03*
X51075000Y-54925000D03*
X51925000Y-54925000D03*
%TD*%
D11*
%TO.C,D14*%
X51925000Y-41425000D03*
X51075000Y-41425000D03*
X51925000Y-40575000D03*
X51075000Y-40575000D03*
%TD*%
%TO.C,D115*%
X39925000Y-53425000D03*
X39075000Y-53425000D03*
X39925000Y-52575000D03*
X39075000Y-52575000D03*
%TD*%
%TO.C,D152*%
X54925000Y-56425000D03*
X54075000Y-56425000D03*
X54925000Y-55575000D03*
X54075000Y-55575000D03*
%TD*%
%TO.C,D171*%
X50425000Y-59425000D03*
X49575000Y-59425000D03*
X50425000Y-58575000D03*
X49575000Y-58575000D03*
%TD*%
D12*
%TO.C,SW2*%
X95100000Y-44175000D03*
D13*
X95100000Y-48427500D03*
%TD*%
D10*
%TO.C,D50*%
X46575000Y-45075000D03*
X47425000Y-45075000D03*
X46575000Y-45925000D03*
X47425000Y-45925000D03*
%TD*%
%TO.C,D138*%
X46575000Y-54075000D03*
X47425000Y-54075000D03*
X46575000Y-54925000D03*
X47425000Y-54925000D03*
%TD*%
D11*
%TO.C,D98*%
X59425000Y-50425000D03*
X58575000Y-50425000D03*
X59425000Y-49575000D03*
X58575000Y-49575000D03*
%TD*%
D14*
%TO.C,R2*%
X89500000Y-48090000D03*
X89500000Y-49110000D03*
%TD*%
D11*
%TO.C,D87*%
X42925000Y-50425000D03*
X42075000Y-50425000D03*
X42925000Y-49575000D03*
X42075000Y-49575000D03*
%TD*%
%TO.C,D174*%
X54925000Y-59425000D03*
X54075000Y-59425000D03*
X54925000Y-58575000D03*
X54075000Y-58575000D03*
%TD*%
D10*
%TO.C,D176*%
X52575000Y-60075000D03*
X53425000Y-60075000D03*
X52575000Y-60925000D03*
X53425000Y-60925000D03*
%TD*%
D11*
%TO.C,D29*%
X41425000Y-44425000D03*
X40575000Y-44425000D03*
X41425000Y-43575000D03*
X40575000Y-43575000D03*
%TD*%
%TO.C,D34*%
X48925000Y-44425000D03*
X48075000Y-44425000D03*
X48925000Y-43575000D03*
X48075000Y-43575000D03*
%TD*%
D15*
%TO.C,C6*%
X79100000Y-52330000D03*
X79100000Y-51370000D03*
%TD*%
D10*
%TO.C,D79*%
X46575000Y-48075000D03*
X47425000Y-48075000D03*
X46575000Y-48925000D03*
X47425000Y-48925000D03*
%TD*%
%TO.C,D159*%
X52575000Y-57075000D03*
X53425000Y-57075000D03*
X52575000Y-57925000D03*
X53425000Y-57925000D03*
%TD*%
D11*
%TO.C,D124*%
X53425000Y-53425000D03*
X52575000Y-53425000D03*
X53425000Y-52575000D03*
X52575000Y-52575000D03*
%TD*%
%TO.C,D95*%
X54925000Y-50425000D03*
X54075000Y-50425000D03*
X54925000Y-49575000D03*
X54075000Y-49575000D03*
%TD*%
D10*
%TO.C,D28*%
X42075000Y-42075000D03*
X42925000Y-42075000D03*
X42075000Y-42925000D03*
X42925000Y-42925000D03*
%TD*%
D11*
%TO.C,D85*%
X39925000Y-50425000D03*
X39075000Y-50425000D03*
X39925000Y-49575000D03*
X39075000Y-49575000D03*
%TD*%
%TO.C,D38*%
X54925000Y-44425000D03*
X54075000Y-44425000D03*
X54925000Y-43575000D03*
X54075000Y-43575000D03*
%TD*%
%TO.C,D88*%
X44425000Y-50425000D03*
X43575000Y-50425000D03*
X44425000Y-49575000D03*
X43575000Y-49575000D03*
%TD*%
D10*
%TO.C,D77*%
X49575000Y-48075000D03*
X50425000Y-48075000D03*
X49575000Y-48925000D03*
X50425000Y-48925000D03*
%TD*%
D16*
%TO.C,C4*%
X92300000Y-42920000D03*
X92300000Y-43880000D03*
%TD*%
D11*
%TO.C,D155*%
X59425000Y-56425000D03*
X58575000Y-56425000D03*
X59425000Y-55575000D03*
X58575000Y-55575000D03*
%TD*%
D17*
%TO.C,C14*%
X78580000Y-45900000D03*
X77620000Y-45900000D03*
%TD*%
D16*
%TO.C,C1*%
X88500000Y-46220000D03*
X88500000Y-47180000D03*
%TD*%
D11*
%TO.C,D30*%
X42925000Y-44425000D03*
X42075000Y-44425000D03*
X42925000Y-43575000D03*
X42075000Y-43575000D03*
%TD*%
%TO.C,D63*%
X51925000Y-47425000D03*
X51075000Y-47425000D03*
X51925000Y-46575000D03*
X51075000Y-46575000D03*
%TD*%
%TO.C,D58*%
X44425000Y-47425000D03*
X43575000Y-47425000D03*
X44425000Y-46575000D03*
X43575000Y-46575000D03*
%TD*%
%TO.C,D15*%
X53425000Y-41425000D03*
X52575000Y-41425000D03*
X53425000Y-40575000D03*
X52575000Y-40575000D03*
%TD*%
D10*
%TO.C,D53*%
X42075000Y-45075000D03*
X42925000Y-45075000D03*
X42075000Y-45925000D03*
X42925000Y-45925000D03*
%TD*%
%TO.C,D157*%
X55575000Y-57075000D03*
X56425000Y-57075000D03*
X55575000Y-57925000D03*
X56425000Y-57925000D03*
%TD*%
D11*
%TO.C,D9*%
X44425000Y-41425000D03*
X43575000Y-41425000D03*
X44425000Y-40575000D03*
X43575000Y-40575000D03*
%TD*%
D18*
%TO.C,R8*%
X90900000Y-52810000D03*
X90900000Y-51790000D03*
%TD*%
D19*
%TO.C,J1*%
X89320000Y-61775000D03*
D20*
X89320000Y-57595000D03*
D19*
X80680000Y-61775000D03*
D20*
X80680000Y-57595000D03*
D21*
X81800000Y-57020000D03*
X82600000Y-57020000D03*
D22*
X83250000Y-57020000D03*
X84250000Y-57020000D03*
X85750000Y-57020000D03*
X86750000Y-57020000D03*
D21*
X87400000Y-57020000D03*
X88200000Y-57020000D03*
X88200000Y-57020000D03*
X87400000Y-57020000D03*
D22*
X86250000Y-57020000D03*
X85250000Y-57020000D03*
X84750000Y-57020000D03*
X83750000Y-57020000D03*
D21*
X82600000Y-57020000D03*
X81800000Y-57020000D03*
%TD*%
D11*
%TO.C,D145*%
X44425000Y-56425000D03*
X43575000Y-56425000D03*
X44425000Y-55575000D03*
X43575000Y-55575000D03*
%TD*%
D23*
%TO.C,U3*%
X83250000Y-48437500D03*
X83750000Y-48437500D03*
X84250000Y-48437500D03*
X84750000Y-48437500D03*
X85250000Y-48437500D03*
X85750000Y-48437500D03*
X86250000Y-48437500D03*
X86750000Y-48437500D03*
X87250000Y-48437500D03*
D24*
X87312500Y-49250000D03*
X87312500Y-49750000D03*
X87312500Y-50250000D03*
X87312500Y-50750000D03*
D23*
X87250000Y-51562500D03*
X86750000Y-51562500D03*
X86250000Y-51562500D03*
X85750000Y-51562500D03*
X85250000Y-51562500D03*
X84750000Y-51562500D03*
X84250000Y-51562500D03*
X83750000Y-51562500D03*
X83250000Y-51562500D03*
X82750000Y-51562500D03*
D24*
X82687500Y-50750000D03*
X82687500Y-50250000D03*
X82687500Y-49750000D03*
X82687500Y-49250000D03*
D23*
X82750000Y-48437500D03*
%TD*%
D11*
%TO.C,D86*%
X41425000Y-50425000D03*
X40575000Y-50425000D03*
X41425000Y-49575000D03*
X40575000Y-49575000D03*
%TD*%
%TO.C,D66*%
X56425000Y-47425000D03*
X55575000Y-47425000D03*
X56425000Y-46575000D03*
X55575000Y-46575000D03*
%TD*%
D10*
%TO.C,D83*%
X40575000Y-48075000D03*
X41425000Y-48075000D03*
X40575000Y-48925000D03*
X41425000Y-48925000D03*
%TD*%
D11*
%TO.C,D32*%
X45925000Y-44425000D03*
X45075000Y-44425000D03*
X45925000Y-43575000D03*
X45075000Y-43575000D03*
%TD*%
D10*
%TO.C,D104*%
X54075000Y-51075000D03*
X54925000Y-51075000D03*
X54075000Y-51925000D03*
X54925000Y-51925000D03*
%TD*%
%TO.C,D112*%
X42075000Y-51075000D03*
X42925000Y-51075000D03*
X42075000Y-51925000D03*
X42925000Y-51925000D03*
%TD*%
D18*
%TO.C,R1*%
X88500000Y-49110000D03*
X88500000Y-48090000D03*
%TD*%
D10*
%TO.C,D137*%
X48075000Y-54075000D03*
X48925000Y-54075000D03*
X48075000Y-54925000D03*
X48925000Y-54925000D03*
%TD*%
D11*
%TO.C,D148*%
X48925000Y-56425000D03*
X48075000Y-56425000D03*
X48925000Y-55575000D03*
X48075000Y-55575000D03*
%TD*%
%TO.C,D67*%
X57925000Y-47425000D03*
X57075000Y-47425000D03*
X57925000Y-46575000D03*
X57075000Y-46575000D03*
%TD*%
D10*
%TO.C,D111*%
X43575000Y-51075000D03*
X44425000Y-51075000D03*
X43575000Y-51925000D03*
X44425000Y-51925000D03*
%TD*%
D25*
%TO.C,C5*%
X73820000Y-53100000D03*
X74780000Y-53100000D03*
%TD*%
D16*
%TO.C,C3*%
X90950000Y-44900000D03*
X90950000Y-45860000D03*
%TD*%
D10*
%TO.C,D108*%
X48075000Y-51075000D03*
X48925000Y-51075000D03*
X48075000Y-51925000D03*
X48925000Y-51925000D03*
%TD*%
%TO.C,D8*%
X46575000Y-39075000D03*
X47425000Y-39075000D03*
X46575000Y-39925000D03*
X47425000Y-39925000D03*
%TD*%
D26*
%TO.C,R6*%
X81110000Y-53300000D03*
X80090000Y-53300000D03*
%TD*%
D10*
%TO.C,D163*%
X46575000Y-57075000D03*
X47425000Y-57075000D03*
X46575000Y-57925000D03*
X47425000Y-57925000D03*
%TD*%
D12*
%TO.C,SW3*%
X95100000Y-55825000D03*
D13*
X95100000Y-51572500D03*
%TD*%
D10*
%TO.C,D7*%
X48075000Y-39075000D03*
X48925000Y-39075000D03*
X48075000Y-39925000D03*
X48925000Y-39925000D03*
%TD*%
D27*
%TO.C,U4*%
X76350000Y-45850000D03*
X75700000Y-45850000D03*
X75050000Y-45850000D03*
X75050000Y-43950000D03*
X75700000Y-43950000D03*
X76350000Y-43950000D03*
%TD*%
D11*
%TO.C,D31*%
X44425000Y-44425000D03*
X43575000Y-44425000D03*
X44425000Y-43575000D03*
X43575000Y-43575000D03*
%TD*%
D10*
%TO.C,D80*%
X45075000Y-48075000D03*
X45925000Y-48075000D03*
X45075000Y-48925000D03*
X45925000Y-48925000D03*
%TD*%
%TO.C,D27*%
X43575000Y-42075000D03*
X44425000Y-42075000D03*
X43575000Y-42925000D03*
X44425000Y-42925000D03*
%TD*%
D11*
%TO.C,D36*%
X51925000Y-44425000D03*
X51075000Y-44425000D03*
X51925000Y-43575000D03*
X51075000Y-43575000D03*
%TD*%
D10*
%TO.C,D131*%
X57075000Y-54075000D03*
X57925000Y-54075000D03*
X57075000Y-54925000D03*
X57925000Y-54925000D03*
%TD*%
%TO.C,D156*%
X57075000Y-57075000D03*
X57925000Y-57075000D03*
X57075000Y-57925000D03*
X57925000Y-57925000D03*
%TD*%
D11*
%TO.C,D89*%
X45925000Y-50425000D03*
X45075000Y-50425000D03*
X45925000Y-49575000D03*
X45075000Y-49575000D03*
%TD*%
D10*
%TO.C,D5*%
X51075000Y-39075000D03*
X51925000Y-39075000D03*
X51075000Y-39925000D03*
X51925000Y-39925000D03*
%TD*%
%TO.C,D179*%
X48075000Y-60075000D03*
X48925000Y-60075000D03*
X48075000Y-60925000D03*
X48925000Y-60925000D03*
%TD*%
%TO.C,D177*%
X51075000Y-60075000D03*
X51925000Y-60075000D03*
X51075000Y-60925000D03*
X51925000Y-60925000D03*
%TD*%
D11*
%TO.C,D116*%
X41425000Y-53425000D03*
X40575000Y-53425000D03*
X41425000Y-52575000D03*
X40575000Y-52575000D03*
%TD*%
D10*
%TO.C,D130*%
X58575000Y-54075000D03*
X59425000Y-54075000D03*
X58575000Y-54925000D03*
X59425000Y-54925000D03*
%TD*%
%TO.C,D180*%
X46575000Y-60075000D03*
X47425000Y-60075000D03*
X46575000Y-60925000D03*
X47425000Y-60925000D03*
%TD*%
D11*
%TO.C,D126*%
X56425000Y-53425000D03*
X55575000Y-53425000D03*
X56425000Y-52575000D03*
X55575000Y-52575000D03*
%TD*%
D10*
%TO.C,D140*%
X43575000Y-54075000D03*
X44425000Y-54075000D03*
X43575000Y-54925000D03*
X44425000Y-54925000D03*
%TD*%
D11*
%TO.C,D127*%
X57925000Y-53425000D03*
X57075000Y-53425000D03*
X57925000Y-52575000D03*
X57075000Y-52575000D03*
%TD*%
D10*
%TO.C,D165*%
X43575000Y-57075000D03*
X44425000Y-57075000D03*
X43575000Y-57925000D03*
X44425000Y-57925000D03*
%TD*%
D11*
%TO.C,D57*%
X42925000Y-47425000D03*
X42075000Y-47425000D03*
X42925000Y-46575000D03*
X42075000Y-46575000D03*
%TD*%
D10*
%TO.C,D51*%
X45075000Y-45075000D03*
X45925000Y-45075000D03*
X45075000Y-45925000D03*
X45925000Y-45925000D03*
%TD*%
D11*
%TO.C,D62*%
X50425000Y-47425000D03*
X49575000Y-47425000D03*
X50425000Y-46575000D03*
X49575000Y-46575000D03*
%TD*%
%TO.C,D90*%
X47425000Y-50425000D03*
X46575000Y-50425000D03*
X47425000Y-49575000D03*
X46575000Y-49575000D03*
%TD*%
D10*
%TO.C,D54*%
X40575000Y-45075000D03*
X41425000Y-45075000D03*
X40575000Y-45925000D03*
X41425000Y-45925000D03*
%TD*%
D17*
%TO.C,C10*%
X82480000Y-47100000D03*
X81520000Y-47100000D03*
%TD*%
D11*
%TO.C,D16*%
X54925000Y-41425000D03*
X54075000Y-41425000D03*
X54925000Y-40575000D03*
X54075000Y-40575000D03*
%TD*%
%TO.C,D69*%
X60925000Y-47425000D03*
X60075000Y-47425000D03*
X60925000Y-46575000D03*
X60075000Y-46575000D03*
%TD*%
D26*
%TO.C,R5*%
X81110000Y-52300000D03*
X80090000Y-52300000D03*
%TD*%
D17*
%TO.C,C12*%
X85680000Y-52700000D03*
X84720000Y-52700000D03*
%TD*%
D10*
%TO.C,D178*%
X49575000Y-60075000D03*
X50425000Y-60075000D03*
X49575000Y-60925000D03*
X50425000Y-60925000D03*
%TD*%
%TO.C,D164*%
X45075000Y-57075000D03*
X45925000Y-57075000D03*
X45075000Y-57925000D03*
X45925000Y-57925000D03*
%TD*%
D28*
%TO.C,D3*%
X92800000Y-58110000D03*
X92800000Y-56535000D03*
%TD*%
D10*
%TO.C,D158*%
X54075000Y-57075000D03*
X54925000Y-57075000D03*
X54075000Y-57925000D03*
X54925000Y-57925000D03*
%TD*%
%TO.C,D42*%
X58575000Y-45075000D03*
X59425000Y-45075000D03*
X58575000Y-45925000D03*
X59425000Y-45925000D03*
%TD*%
D11*
%TO.C,D146*%
X45925000Y-56425000D03*
X45075000Y-56425000D03*
X45925000Y-55575000D03*
X45075000Y-55575000D03*
%TD*%
%TO.C,D94*%
X53425000Y-50425000D03*
X52575000Y-50425000D03*
X53425000Y-49575000D03*
X52575000Y-49575000D03*
%TD*%
%TO.C,D97*%
X57925000Y-50425000D03*
X57075000Y-50425000D03*
X57925000Y-49575000D03*
X57075000Y-49575000D03*
%TD*%
%TO.C,D17*%
X56425000Y-41425000D03*
X55575000Y-41425000D03*
X56425000Y-40575000D03*
X55575000Y-40575000D03*
%TD*%
%TO.C,D149*%
X50425000Y-56425000D03*
X49575000Y-56425000D03*
X50425000Y-55575000D03*
X49575000Y-55575000D03*
%TD*%
D10*
%TO.C,D23*%
X49575000Y-42075000D03*
X50425000Y-42075000D03*
X49575000Y-42925000D03*
X50425000Y-42925000D03*
%TD*%
D11*
%TO.C,D55*%
X39925000Y-47425000D03*
X39075000Y-47425000D03*
X39925000Y-46575000D03*
X39075000Y-46575000D03*
%TD*%
%TO.C,D170*%
X48925000Y-59425000D03*
X48075000Y-59425000D03*
X48925000Y-58575000D03*
X48075000Y-58575000D03*
%TD*%
D10*
%TO.C,D139*%
X45075000Y-54075000D03*
X45925000Y-54075000D03*
X45075000Y-54925000D03*
X45925000Y-54925000D03*
%TD*%
%TO.C,D26*%
X45075000Y-42075000D03*
X45925000Y-42075000D03*
X45075000Y-42925000D03*
X45925000Y-42925000D03*
%TD*%
D11*
%TO.C,D13*%
X50425000Y-41425000D03*
X49575000Y-41425000D03*
X50425000Y-40575000D03*
X49575000Y-40575000D03*
%TD*%
%TO.C,D68*%
X59425000Y-47425000D03*
X58575000Y-47425000D03*
X59425000Y-46575000D03*
X58575000Y-46575000D03*
%TD*%
%TO.C,D153*%
X56425000Y-56425000D03*
X55575000Y-56425000D03*
X56425000Y-55575000D03*
X55575000Y-55575000D03*
%TD*%
D10*
%TO.C,D20*%
X54075000Y-42075000D03*
X54925000Y-42075000D03*
X54075000Y-42925000D03*
X54925000Y-42925000D03*
%TD*%
D11*
%TO.C,D35*%
X50425000Y-44425000D03*
X49575000Y-44425000D03*
X50425000Y-43575000D03*
X49575000Y-43575000D03*
%TD*%
%TO.C,D173*%
X53425000Y-59425000D03*
X52575000Y-59425000D03*
X53425000Y-58575000D03*
X52575000Y-58575000D03*
%TD*%
D10*
%TO.C,D48*%
X49575000Y-45075000D03*
X50425000Y-45075000D03*
X49575000Y-45925000D03*
X50425000Y-45925000D03*
%TD*%
%TO.C,D74*%
X54075000Y-48075000D03*
X54925000Y-48075000D03*
X54075000Y-48925000D03*
X54925000Y-48925000D03*
%TD*%
D11*
%TO.C,D33*%
X47425000Y-44425000D03*
X46575000Y-44425000D03*
X47425000Y-43575000D03*
X46575000Y-43575000D03*
%TD*%
D10*
%TO.C,D52*%
X43575000Y-45075000D03*
X44425000Y-45075000D03*
X43575000Y-45925000D03*
X44425000Y-45925000D03*
%TD*%
%TO.C,D100*%
X60075000Y-51075000D03*
X60925000Y-51075000D03*
X60075000Y-51925000D03*
X60925000Y-51925000D03*
%TD*%
D11*
%TO.C,D121*%
X48925000Y-53425000D03*
X48075000Y-53425000D03*
X48925000Y-52575000D03*
X48075000Y-52575000D03*
%TD*%
%TO.C,D168*%
X45925000Y-59425000D03*
X45075000Y-59425000D03*
X45925000Y-58575000D03*
X45075000Y-58575000D03*
%TD*%
D16*
%TO.C,C2*%
X89500000Y-46220000D03*
X89500000Y-47180000D03*
%TD*%
D10*
%TO.C,D133*%
X54075000Y-54075000D03*
X54925000Y-54075000D03*
X54075000Y-54925000D03*
X54925000Y-54925000D03*
%TD*%
%TO.C,D101*%
X58575000Y-51075000D03*
X59425000Y-51075000D03*
X58575000Y-51925000D03*
X59425000Y-51925000D03*
%TD*%
%TO.C,D18*%
X57075000Y-42075000D03*
X57925000Y-42075000D03*
X57075000Y-42925000D03*
X57925000Y-42925000D03*
%TD*%
D11*
%TO.C,D118*%
X44425000Y-53425000D03*
X43575000Y-53425000D03*
X44425000Y-52575000D03*
X43575000Y-52575000D03*
%TD*%
%TO.C,D41*%
X59425000Y-44425000D03*
X58575000Y-44425000D03*
X59425000Y-43575000D03*
X58575000Y-43575000D03*
%TD*%
%TO.C,D123*%
X51925000Y-53425000D03*
X51075000Y-53425000D03*
X51925000Y-52575000D03*
X51075000Y-52575000D03*
%TD*%
D10*
%TO.C,D82*%
X42075000Y-48075000D03*
X42925000Y-48075000D03*
X42075000Y-48925000D03*
X42925000Y-48925000D03*
%TD*%
D11*
%TO.C,D99*%
X60925000Y-50425000D03*
X60075000Y-50425000D03*
X60925000Y-49575000D03*
X60075000Y-49575000D03*
%TD*%
%TO.C,D119*%
X45925000Y-53425000D03*
X45075000Y-53425000D03*
X45925000Y-52575000D03*
X45075000Y-52575000D03*
%TD*%
%TO.C,D39*%
X56425000Y-44425000D03*
X55575000Y-44425000D03*
X56425000Y-43575000D03*
X55575000Y-43575000D03*
%TD*%
D10*
%TO.C,D76*%
X51075000Y-48075000D03*
X51925000Y-48075000D03*
X51075000Y-48925000D03*
X51925000Y-48925000D03*
%TD*%
%TO.C,D107*%
X49575000Y-51075000D03*
X50425000Y-51075000D03*
X49575000Y-51925000D03*
X50425000Y-51925000D03*
%TD*%
D11*
%TO.C,D128*%
X59425000Y-53425000D03*
X58575000Y-53425000D03*
X59425000Y-52575000D03*
X58575000Y-52575000D03*
%TD*%
D10*
%TO.C,D113*%
X40575000Y-51075000D03*
X41425000Y-51075000D03*
X40575000Y-51925000D03*
X41425000Y-51925000D03*
%TD*%
%TO.C,D136*%
X49575000Y-54075000D03*
X50425000Y-54075000D03*
X49575000Y-54925000D03*
X50425000Y-54925000D03*
%TD*%
%TO.C,D24*%
X48075000Y-42075000D03*
X48925000Y-42075000D03*
X48075000Y-42925000D03*
X48925000Y-42925000D03*
%TD*%
%TO.C,D105*%
X52575000Y-51075000D03*
X53425000Y-51075000D03*
X52575000Y-51925000D03*
X53425000Y-51925000D03*
%TD*%
D11*
%TO.C,D10*%
X45925000Y-41425000D03*
X45075000Y-41425000D03*
X45925000Y-40575000D03*
X45075000Y-40575000D03*
%TD*%
D10*
%TO.C,D141*%
X42075000Y-54075000D03*
X42925000Y-54075000D03*
X42075000Y-54925000D03*
X42925000Y-54925000D03*
%TD*%
D29*
%TO.C,D1*%
X85075000Y-54100000D03*
X83925000Y-54449999D03*
X83925000Y-53750001D03*
%TD*%
D10*
%TO.C,D70*%
X60075000Y-48075000D03*
X60925000Y-48075000D03*
X60075000Y-48925000D03*
X60925000Y-48925000D03*
%TD*%
D25*
%TO.C,C13*%
X75700000Y-42900000D03*
X76660000Y-42900000D03*
%TD*%
D10*
%TO.C,D73*%
X55575000Y-48075000D03*
X56425000Y-48075000D03*
X55575000Y-48925000D03*
X56425000Y-48925000D03*
%TD*%
%TO.C,D142*%
X40575000Y-54075000D03*
X41425000Y-54075000D03*
X40575000Y-54925000D03*
X41425000Y-54925000D03*
%TD*%
%TO.C,D106*%
X51075000Y-51075000D03*
X51925000Y-51075000D03*
X51075000Y-51925000D03*
X51925000Y-51925000D03*
%TD*%
D26*
%TO.C,R9*%
X92310000Y-50800000D03*
X91290000Y-50800000D03*
%TD*%
D11*
%TO.C,D91*%
X48925000Y-50425000D03*
X48075000Y-50425000D03*
X48925000Y-49575000D03*
X48075000Y-49575000D03*
%TD*%
%TO.C,D154*%
X57925000Y-56425000D03*
X57075000Y-56425000D03*
X57925000Y-55575000D03*
X57075000Y-55575000D03*
%TD*%
%TO.C,D125*%
X54925000Y-53425000D03*
X54075000Y-53425000D03*
X54925000Y-52575000D03*
X54075000Y-52575000D03*
%TD*%
%TO.C,D117*%
X42925000Y-53425000D03*
X42075000Y-53425000D03*
X42925000Y-52575000D03*
X42075000Y-52575000D03*
%TD*%
%TO.C,D120*%
X47425000Y-53425000D03*
X46575000Y-53425000D03*
X47425000Y-52575000D03*
X46575000Y-52575000D03*
%TD*%
%TO.C,D60*%
X47425000Y-47425000D03*
X46575000Y-47425000D03*
X47425000Y-46575000D03*
X46575000Y-46575000D03*
%TD*%
D14*
%TO.C,R4*%
X91100000Y-57090000D03*
X91100000Y-58110000D03*
%TD*%
D10*
%TO.C,D109*%
X46575000Y-51075000D03*
X47425000Y-51075000D03*
X46575000Y-51925000D03*
X47425000Y-51925000D03*
%TD*%
D11*
%TO.C,D169*%
X47425000Y-59425000D03*
X46575000Y-59425000D03*
X47425000Y-58575000D03*
X46575000Y-58575000D03*
%TD*%
%TO.C,D151*%
X53425000Y-56425000D03*
X52575000Y-56425000D03*
X53425000Y-55575000D03*
X52575000Y-55575000D03*
%TD*%
%TO.C,D147*%
X47425000Y-56425000D03*
X46575000Y-56425000D03*
X47425000Y-55575000D03*
X46575000Y-55575000D03*
%TD*%
D14*
%TO.C,R3*%
X90950000Y-46800000D03*
X90950000Y-47820000D03*
%TD*%
D11*
%TO.C,D129*%
X60925000Y-53425000D03*
X60075000Y-53425000D03*
X60925000Y-52575000D03*
X60075000Y-52575000D03*
%TD*%
D10*
%TO.C,D4*%
X52575000Y-39075000D03*
X53425000Y-39075000D03*
X52575000Y-39925000D03*
X53425000Y-39925000D03*
%TD*%
D11*
%TO.C,D143*%
X41425000Y-56425000D03*
X40575000Y-56425000D03*
X41425000Y-55575000D03*
X40575000Y-55575000D03*
%TD*%
%TO.C,D40*%
X57925000Y-44425000D03*
X57075000Y-44425000D03*
X57925000Y-43575000D03*
X57075000Y-43575000D03*
%TD*%
D10*
%TO.C,D81*%
X43575000Y-48075000D03*
X44425000Y-48075000D03*
X43575000Y-48925000D03*
X44425000Y-48925000D03*
%TD*%
%TO.C,D102*%
X57075000Y-51075000D03*
X57925000Y-51075000D03*
X57075000Y-51925000D03*
X57925000Y-51925000D03*
%TD*%
D11*
%TO.C,D172*%
X51925000Y-59425000D03*
X51075000Y-59425000D03*
X51925000Y-58575000D03*
X51075000Y-58575000D03*
%TD*%
D10*
%TO.C,D71*%
X58575000Y-48075000D03*
X59425000Y-48075000D03*
X58575000Y-48925000D03*
X59425000Y-48925000D03*
%TD*%
D30*
%TO.C,R11*%
X82090000Y-55400000D03*
X83110000Y-55400000D03*
%TD*%
D10*
%TO.C,D45*%
X54075000Y-45075000D03*
X54925000Y-45075000D03*
X54075000Y-45925000D03*
X54925000Y-45925000D03*
%TD*%
%TO.C,D6*%
X49575000Y-39075000D03*
X50425000Y-39075000D03*
X49575000Y-39925000D03*
X50425000Y-39925000D03*
%TD*%
D11*
%TO.C,D96*%
X56425000Y-50425000D03*
X55575000Y-50425000D03*
X56425000Y-49575000D03*
X55575000Y-49575000D03*
%TD*%
D10*
%TO.C,D75*%
X52575000Y-48075000D03*
X53425000Y-48075000D03*
X52575000Y-48925000D03*
X53425000Y-48925000D03*
%TD*%
%TO.C,D132*%
X55575000Y-54075000D03*
X56425000Y-54075000D03*
X55575000Y-54925000D03*
X56425000Y-54925000D03*
%TD*%
%TO.C,D25*%
X46575000Y-42075000D03*
X47425000Y-42075000D03*
X46575000Y-42925000D03*
X47425000Y-42925000D03*
%TD*%
D11*
%TO.C,D12*%
X48925000Y-41425000D03*
X48075000Y-41425000D03*
X48925000Y-40575000D03*
X48075000Y-40575000D03*
%TD*%
%TO.C,D175*%
X56425000Y-59425000D03*
X55575000Y-59425000D03*
X56425000Y-58575000D03*
X55575000Y-58575000D03*
%TD*%
D10*
%TO.C,D114*%
X39075000Y-51075000D03*
X39925000Y-51075000D03*
X39075000Y-51925000D03*
X39925000Y-51925000D03*
%TD*%
%TO.C,D43*%
X57075000Y-45075000D03*
X57925000Y-45075000D03*
X57075000Y-45925000D03*
X57925000Y-45925000D03*
%TD*%
D11*
%TO.C,D64*%
X53425000Y-47425000D03*
X52575000Y-47425000D03*
X53425000Y-46575000D03*
X52575000Y-46575000D03*
%TD*%
%TO.C,D59*%
X45925000Y-47425000D03*
X45075000Y-47425000D03*
X45925000Y-46575000D03*
X45075000Y-46575000D03*
%TD*%
D26*
%TO.C,R10*%
X88410000Y-55400000D03*
X87390000Y-55400000D03*
%TD*%
D11*
%TO.C,D144*%
X42925000Y-56425000D03*
X42075000Y-56425000D03*
X42925000Y-55575000D03*
X42075000Y-55575000D03*
%TD*%
D10*
%TO.C,D44*%
X55575000Y-45075000D03*
X56425000Y-45075000D03*
X55575000Y-45925000D03*
X56425000Y-45925000D03*
%TD*%
D11*
%TO.C,D150*%
X51925000Y-56425000D03*
X51075000Y-56425000D03*
X51925000Y-55575000D03*
X51075000Y-55575000D03*
%TD*%
%TO.C,D11*%
X47425000Y-41425000D03*
X46575000Y-41425000D03*
X47425000Y-40575000D03*
X46575000Y-40575000D03*
%TD*%
D16*
%TO.C,C7*%
X79100000Y-53270000D03*
X79100000Y-54230000D03*
%TD*%
D10*
%TO.C,D161*%
X49575000Y-57075000D03*
X50425000Y-57075000D03*
X49575000Y-57925000D03*
X50425000Y-57925000D03*
%TD*%
D16*
%TO.C,C11*%
X81500000Y-48020000D03*
X81500000Y-48980000D03*
%TD*%
D10*
%TO.C,D19*%
X55575000Y-42075000D03*
X56425000Y-42075000D03*
X55575000Y-42925000D03*
X56425000Y-42925000D03*
%TD*%
%TO.C,D46*%
X52575000Y-45075000D03*
X53425000Y-45075000D03*
X52575000Y-45925000D03*
X53425000Y-45925000D03*
%TD*%
%TO.C,D160*%
X51075000Y-57075000D03*
X51925000Y-57075000D03*
X51075000Y-57925000D03*
X51925000Y-57925000D03*
%TD*%
%TO.C,D110*%
X45075000Y-51075000D03*
X45925000Y-51075000D03*
X45075000Y-51925000D03*
X45925000Y-51925000D03*
%TD*%
D11*
%TO.C,D65*%
X54925000Y-47425000D03*
X54075000Y-47425000D03*
X54925000Y-46575000D03*
X54075000Y-46575000D03*
%TD*%
D10*
%TO.C,D78*%
X48075000Y-48075000D03*
X48925000Y-48075000D03*
X48075000Y-48925000D03*
X48925000Y-48925000D03*
%TD*%
%TO.C,D49*%
X48075000Y-45075000D03*
X48925000Y-45075000D03*
X48075000Y-45925000D03*
X48925000Y-45925000D03*
%TD*%
D11*
%TO.C,D56*%
X41425000Y-47425000D03*
X40575000Y-47425000D03*
X41425000Y-46575000D03*
X40575000Y-46575000D03*
%TD*%
D10*
%TO.C,D72*%
X57075000Y-48075000D03*
X57925000Y-48075000D03*
X57075000Y-48925000D03*
X57925000Y-48925000D03*
%TD*%
%TO.C,D134*%
X52575000Y-54075000D03*
X53425000Y-54075000D03*
X52575000Y-54925000D03*
X53425000Y-54925000D03*
%TD*%
D11*
%TO.C,D122*%
X50425000Y-53425000D03*
X49575000Y-53425000D03*
X50425000Y-52575000D03*
X49575000Y-52575000D03*
%TD*%
D10*
%TO.C,D84*%
X39075000Y-48075000D03*
X39925000Y-48075000D03*
X39075000Y-48925000D03*
X39925000Y-48925000D03*
%TD*%
D11*
%TO.C,D167*%
X44425000Y-59450000D03*
X43575000Y-59450000D03*
X44425000Y-58600000D03*
X43575000Y-58600000D03*
%TD*%
D10*
%TO.C,D162*%
X48075000Y-57075000D03*
X48925000Y-57075000D03*
X48075000Y-57925000D03*
X48925000Y-57925000D03*
%TD*%
D11*
%TO.C,D92*%
X50425000Y-50425000D03*
X49575000Y-50425000D03*
X50425000Y-49575000D03*
X49575000Y-49575000D03*
%TD*%
D10*
%TO.C,D21*%
X52575000Y-42075000D03*
X53425000Y-42075000D03*
X52575000Y-42925000D03*
X53425000Y-42925000D03*
%TD*%
%TO.C,D103*%
X55575000Y-51075000D03*
X56425000Y-51075000D03*
X55575000Y-51925000D03*
X56425000Y-51925000D03*
%TD*%
D11*
%TO.C,D61*%
X48925000Y-47425000D03*
X48075000Y-47425000D03*
X48925000Y-46575000D03*
X48075000Y-46575000D03*
%TD*%
D10*
%TO.C,D166*%
X42075000Y-57075000D03*
X42925000Y-57075000D03*
X42075000Y-57925000D03*
X42925000Y-57925000D03*
%TD*%
%TO.C,D47*%
X51075000Y-45075000D03*
X51925000Y-45075000D03*
X51075000Y-45925000D03*
X51925000Y-45925000D03*
%TD*%
D11*
%TO.C,D37*%
X53425000Y-44425000D03*
X52575000Y-44425000D03*
X53425000Y-43575000D03*
X52575000Y-43575000D03*
%TD*%
D12*
%TO.C,SW1*%
X75300000Y-52125000D03*
D13*
X75300000Y-47872500D03*
%TD*%
D11*
%TO.C,D93*%
X51925000Y-50425000D03*
X51075000Y-50425000D03*
X51925000Y-49575000D03*
X51075000Y-49575000D03*
%TD*%
D10*
%TO.C,D22*%
X51075000Y-42075000D03*
X51925000Y-42075000D03*
X51075000Y-42925000D03*
X51925000Y-42925000D03*
%TD*%
M02*
