%TF.GenerationSoftware,KiCad,Pcbnew,8.0.2-1*%
%TF.CreationDate,2025-02-11T08:26:35-08:00*%
%TF.ProjectId,Small_Pendant,536d616c-6c5f-4506-956e-64616e742e6b,rev?*%
%TF.SameCoordinates,Original*%
%TF.FileFunction,Legend,Bot*%
%TF.FilePolarity,Positive*%
%FSLAX46Y46*%
G04 Gerber Fmt 4.6, Leading zero omitted, Abs format (unit mm)*
G04 Created by KiCad (PCBNEW 8.0.2-1) date 2025-02-11 08:26:35*
%MOMM*%
%LPD*%
G01*
G04 APERTURE LIST*
%ADD10C,0.150000*%
%ADD11C,0.200000*%
%ADD12C,0.120000*%
G04 APERTURE END LIST*
D10*
X47309523Y-38630180D02*
X46833333Y-38630180D01*
X46833333Y-38630180D02*
X46785714Y-38153990D01*
X46785714Y-38153990D02*
X46833333Y-38201609D01*
X46833333Y-38201609D02*
X46928571Y-38249228D01*
X46928571Y-38249228D02*
X47166666Y-38249228D01*
X47166666Y-38249228D02*
X47261904Y-38201609D01*
X47261904Y-38201609D02*
X47309523Y-38153990D01*
X47309523Y-38153990D02*
X47357142Y-38058752D01*
X47357142Y-38058752D02*
X47357142Y-37820657D01*
X47357142Y-37820657D02*
X47309523Y-37725419D01*
X47309523Y-37725419D02*
X47261904Y-37677800D01*
X47261904Y-37677800D02*
X47166666Y-37630180D01*
X47166666Y-37630180D02*
X46928571Y-37630180D01*
X46928571Y-37630180D02*
X46833333Y-37677800D01*
X46833333Y-37677800D02*
X46785714Y-37725419D01*
X47642857Y-38630180D02*
X47976190Y-37630180D01*
X47976190Y-37630180D02*
X48309523Y-38630180D01*
D11*
X45975564Y-53132457D02*
X46118422Y-53061028D01*
X46118422Y-53061028D02*
X46332707Y-53061028D01*
X46332707Y-53061028D02*
X46546993Y-53132457D01*
X46546993Y-53132457D02*
X46689850Y-53275314D01*
X46689850Y-53275314D02*
X46761279Y-53418171D01*
X46761279Y-53418171D02*
X46832707Y-53703885D01*
X46832707Y-53703885D02*
X46832707Y-53918171D01*
X46832707Y-53918171D02*
X46761279Y-54203885D01*
X46761279Y-54203885D02*
X46689850Y-54346742D01*
X46689850Y-54346742D02*
X46546993Y-54489600D01*
X46546993Y-54489600D02*
X46332707Y-54561028D01*
X46332707Y-54561028D02*
X46189850Y-54561028D01*
X46189850Y-54561028D02*
X45975564Y-54489600D01*
X45975564Y-54489600D02*
X45904136Y-54418171D01*
X45904136Y-54418171D02*
X45904136Y-53918171D01*
X45904136Y-53918171D02*
X46189850Y-53918171D01*
X45261279Y-54561028D02*
X45261279Y-53061028D01*
X45261279Y-53061028D02*
X44404136Y-54561028D01*
X44404136Y-54561028D02*
X44404136Y-53061028D01*
X43689850Y-54561028D02*
X43689850Y-53061028D01*
X43689850Y-53061028D02*
X43332707Y-53061028D01*
X43332707Y-53061028D02*
X43118421Y-53132457D01*
X43118421Y-53132457D02*
X42975564Y-53275314D01*
X42975564Y-53275314D02*
X42904135Y-53418171D01*
X42904135Y-53418171D02*
X42832707Y-53703885D01*
X42832707Y-53703885D02*
X42832707Y-53918171D01*
X42832707Y-53918171D02*
X42904135Y-54203885D01*
X42904135Y-54203885D02*
X42975564Y-54346742D01*
X42975564Y-54346742D02*
X43118421Y-54489600D01*
X43118421Y-54489600D02*
X43332707Y-54561028D01*
X43332707Y-54561028D02*
X43689850Y-54561028D01*
D10*
X49738095Y-37630180D02*
X49738095Y-38630180D01*
X49738095Y-38630180D02*
X49976190Y-38630180D01*
X49976190Y-38630180D02*
X50119047Y-38582561D01*
X50119047Y-38582561D02*
X50214285Y-38487323D01*
X50214285Y-38487323D02*
X50261904Y-38392085D01*
X50261904Y-38392085D02*
X50309523Y-38201609D01*
X50309523Y-38201609D02*
X50309523Y-38058752D01*
X50309523Y-38058752D02*
X50261904Y-37868276D01*
X50261904Y-37868276D02*
X50214285Y-37773038D01*
X50214285Y-37773038D02*
X50119047Y-37677800D01*
X50119047Y-37677800D02*
X49976190Y-37630180D01*
X49976190Y-37630180D02*
X49738095Y-37630180D01*
D11*
X54774434Y-53061028D02*
X55488720Y-53061028D01*
X55488720Y-53061028D02*
X55560148Y-53775314D01*
X55560148Y-53775314D02*
X55488720Y-53703885D01*
X55488720Y-53703885D02*
X55345863Y-53632457D01*
X55345863Y-53632457D02*
X54988720Y-53632457D01*
X54988720Y-53632457D02*
X54845863Y-53703885D01*
X54845863Y-53703885D02*
X54774434Y-53775314D01*
X54774434Y-53775314D02*
X54703005Y-53918171D01*
X54703005Y-53918171D02*
X54703005Y-54275314D01*
X54703005Y-54275314D02*
X54774434Y-54418171D01*
X54774434Y-54418171D02*
X54845863Y-54489600D01*
X54845863Y-54489600D02*
X54988720Y-54561028D01*
X54988720Y-54561028D02*
X55345863Y-54561028D01*
X55345863Y-54561028D02*
X55488720Y-54489600D01*
X55488720Y-54489600D02*
X55560148Y-54418171D01*
X54274434Y-53061028D02*
X53774434Y-54561028D01*
X53774434Y-54561028D02*
X53274434Y-53061028D01*
D10*
G36*
X53640853Y-37741651D02*
G01*
X53715062Y-37814442D01*
X53753753Y-37889577D01*
X53798371Y-38063007D01*
X53799513Y-38187779D01*
X53757487Y-38360902D01*
X53718762Y-38440712D01*
X53644485Y-38516436D01*
X53531406Y-38555228D01*
X53376799Y-38556110D01*
X53375590Y-37704759D01*
X53524256Y-37703912D01*
X53640853Y-37741651D01*
G37*
G36*
X54059444Y-38816291D02*
G01*
X51020556Y-38816291D01*
X51020556Y-38058752D01*
X51131667Y-38058752D01*
X51132934Y-38197331D01*
X51131756Y-38205255D01*
X51133090Y-38214279D01*
X51133108Y-38216241D01*
X51133530Y-38217262D01*
X51133906Y-38219799D01*
X51181423Y-38404497D01*
X51181949Y-38411894D01*
X51186151Y-38422876D01*
X51186472Y-38424121D01*
X51186794Y-38424556D01*
X51187204Y-38425626D01*
X51235896Y-38520182D01*
X51239545Y-38528991D01*
X51241927Y-38531893D01*
X51242655Y-38533307D01*
X51244153Y-38534606D01*
X51248872Y-38540356D01*
X51337041Y-38626840D01*
X51337893Y-38628544D01*
X51345536Y-38635173D01*
X51355475Y-38644922D01*
X51357965Y-38645953D01*
X51360000Y-38647718D01*
X51373426Y-38653712D01*
X51516007Y-38699861D01*
X51525368Y-38703739D01*
X51529131Y-38704109D01*
X51530619Y-38704591D01*
X51532593Y-38704450D01*
X51540000Y-38705180D01*
X51671629Y-38703975D01*
X51673476Y-38704591D01*
X51683690Y-38703865D01*
X51697489Y-38703739D01*
X51699978Y-38702707D01*
X51702666Y-38702517D01*
X51716398Y-38697262D01*
X51824079Y-38641811D01*
X51843252Y-38619703D01*
X51852506Y-38591942D01*
X51850432Y-38562752D01*
X51837344Y-38536577D01*
X51815237Y-38517404D01*
X51787475Y-38508150D01*
X51758285Y-38510224D01*
X51744554Y-38515479D01*
X51667179Y-38555323D01*
X51555427Y-38556345D01*
X51439146Y-38518709D01*
X51364938Y-38445919D01*
X51326246Y-38370783D01*
X51281628Y-38197353D01*
X51280486Y-38072581D01*
X51322512Y-37899458D01*
X51361237Y-37819648D01*
X51435515Y-37743923D01*
X51548787Y-37705064D01*
X51620163Y-37704128D01*
X51736357Y-37741737D01*
X51750839Y-37755719D01*
X51751785Y-37984271D01*
X51620606Y-37985193D01*
X51593570Y-37996392D01*
X51572878Y-38017084D01*
X51561679Y-38044120D01*
X51561679Y-38073384D01*
X51572878Y-38100420D01*
X51593570Y-38121112D01*
X51620606Y-38132311D01*
X51635238Y-38133752D01*
X51840346Y-38132311D01*
X51867382Y-38121112D01*
X51888074Y-38100420D01*
X51899273Y-38073384D01*
X51900714Y-38058752D01*
X51899273Y-37710787D01*
X51888074Y-37683751D01*
X51878747Y-37672386D01*
X51837922Y-37632972D01*
X51837345Y-37631817D01*
X51835458Y-37630180D01*
X52179286Y-37630180D01*
X52180699Y-38625735D01*
X52179469Y-38635419D01*
X52180720Y-38640006D01*
X52180727Y-38644812D01*
X52184544Y-38654027D01*
X52187169Y-38663651D01*
X52190096Y-38667431D01*
X52191926Y-38671848D01*
X52198976Y-38678898D01*
X52205086Y-38686788D01*
X52209239Y-38689161D01*
X52212618Y-38692540D01*
X52221830Y-38696356D01*
X52230495Y-38701307D01*
X52235238Y-38701909D01*
X52239654Y-38703739D01*
X52249628Y-38703739D01*
X52259525Y-38704997D01*
X52264137Y-38703739D01*
X52268918Y-38703739D01*
X52278133Y-38699921D01*
X52287757Y-38697297D01*
X52291537Y-38694369D01*
X52295954Y-38692540D01*
X52303004Y-38685489D01*
X52310894Y-38679380D01*
X52315246Y-38673247D01*
X52316646Y-38671848D01*
X52317215Y-38670473D01*
X52319404Y-38667390D01*
X52751111Y-37909731D01*
X52752155Y-38644812D01*
X52763354Y-38671848D01*
X52784046Y-38692540D01*
X52811082Y-38703739D01*
X52840346Y-38703739D01*
X52867382Y-38692540D01*
X52888074Y-38671848D01*
X52899273Y-38644812D01*
X52900714Y-38630180D01*
X52899300Y-37634624D01*
X52899865Y-37630180D01*
X53226905Y-37630180D01*
X53228346Y-38644812D01*
X53239545Y-38671848D01*
X53260237Y-38692540D01*
X53287273Y-38703739D01*
X53301905Y-38705180D01*
X53538674Y-38703829D01*
X53549380Y-38704591D01*
X53553088Y-38703747D01*
X53554632Y-38703739D01*
X53556463Y-38702980D01*
X53563717Y-38701331D01*
X53695507Y-38656120D01*
X53697488Y-38656120D01*
X53707037Y-38652164D01*
X53719999Y-38647718D01*
X53722034Y-38645952D01*
X53724525Y-38644921D01*
X53735890Y-38635594D01*
X53829827Y-38539826D01*
X53837345Y-38533307D01*
X53839355Y-38530113D01*
X53840456Y-38528991D01*
X53841214Y-38527158D01*
X53845177Y-38520864D01*
X53889445Y-38429631D01*
X53893528Y-38424121D01*
X53897463Y-38413105D01*
X53898051Y-38411895D01*
X53898089Y-38411354D01*
X53898475Y-38410275D01*
X53943715Y-38223909D01*
X53946892Y-38216241D01*
X53947789Y-38207126D01*
X53948244Y-38205255D01*
X53948081Y-38204162D01*
X53948333Y-38201609D01*
X53947065Y-38063029D01*
X53948244Y-38055106D01*
X53946909Y-38046081D01*
X53946892Y-38044120D01*
X53946469Y-38043098D01*
X53946094Y-38040562D01*
X53898576Y-37855863D01*
X53898051Y-37848466D01*
X53893847Y-37837483D01*
X53893528Y-37836240D01*
X53893205Y-37835804D01*
X53892796Y-37834735D01*
X53844107Y-37740185D01*
X53840456Y-37731370D01*
X53838071Y-37728464D01*
X53837345Y-37727054D01*
X53835848Y-37725755D01*
X53831128Y-37720005D01*
X53742959Y-37633522D01*
X53742107Y-37631817D01*
X53734455Y-37625180D01*
X53724525Y-37615440D01*
X53722036Y-37614409D01*
X53720000Y-37612643D01*
X53706575Y-37606649D01*
X53563992Y-37560498D01*
X53554632Y-37556621D01*
X53550868Y-37556250D01*
X53549381Y-37555769D01*
X53547405Y-37555909D01*
X53540000Y-37555180D01*
X53287273Y-37556621D01*
X53260237Y-37567820D01*
X53239545Y-37588512D01*
X53228346Y-37615548D01*
X53226905Y-37630180D01*
X52899865Y-37630180D01*
X52900531Y-37624941D01*
X52899279Y-37620353D01*
X52899273Y-37615548D01*
X52895455Y-37606332D01*
X52892831Y-37596709D01*
X52889903Y-37592928D01*
X52888074Y-37588512D01*
X52881023Y-37581461D01*
X52874914Y-37573572D01*
X52870760Y-37571198D01*
X52867382Y-37567820D01*
X52858169Y-37564003D01*
X52849505Y-37559053D01*
X52844761Y-37558450D01*
X52840346Y-37556621D01*
X52830372Y-37556621D01*
X52820475Y-37555363D01*
X52815863Y-37556621D01*
X52811082Y-37556621D01*
X52801865Y-37560438D01*
X52792244Y-37563063D01*
X52788464Y-37565989D01*
X52784046Y-37567820D01*
X52776994Y-37574871D01*
X52769106Y-37580980D01*
X52764751Y-37587114D01*
X52763354Y-37588512D01*
X52762785Y-37589884D01*
X52760596Y-37592969D01*
X52328888Y-38350628D01*
X52327845Y-37615548D01*
X52316646Y-37588512D01*
X52295954Y-37567820D01*
X52268918Y-37556621D01*
X52239654Y-37556621D01*
X52212618Y-37567820D01*
X52191926Y-37588512D01*
X52180727Y-37615548D01*
X52179286Y-37630180D01*
X51835458Y-37630180D01*
X51831255Y-37626535D01*
X51819763Y-37615440D01*
X51817274Y-37614409D01*
X51815238Y-37612643D01*
X51801813Y-37606649D01*
X51659230Y-37560498D01*
X51649870Y-37556621D01*
X51646106Y-37556250D01*
X51644619Y-37555769D01*
X51642643Y-37555909D01*
X51635238Y-37555180D01*
X51539923Y-37556430D01*
X51530619Y-37555769D01*
X51526964Y-37556600D01*
X51525368Y-37556621D01*
X51523537Y-37557379D01*
X51516283Y-37559029D01*
X51384492Y-37604241D01*
X51382512Y-37604241D01*
X51372962Y-37608196D01*
X51360000Y-37612643D01*
X51357965Y-37614407D01*
X51355475Y-37615439D01*
X51344110Y-37624767D01*
X51250178Y-37720529D01*
X51242655Y-37727054D01*
X51240642Y-37730250D01*
X51239545Y-37731370D01*
X51238787Y-37733197D01*
X51234823Y-37739497D01*
X51190556Y-37830728D01*
X51186472Y-37836240D01*
X51182534Y-37847259D01*
X51181949Y-37848467D01*
X51181910Y-37849006D01*
X51181525Y-37850086D01*
X51136284Y-38036451D01*
X51133108Y-38044120D01*
X51132210Y-38053234D01*
X51131756Y-38055106D01*
X51131918Y-38056198D01*
X51131667Y-38058752D01*
X51020556Y-38058752D01*
X51020556Y-37444069D01*
X54059444Y-37444069D01*
X54059444Y-38816291D01*
G37*
X56892857Y-44109580D02*
X56940476Y-44157200D01*
X56940476Y-44157200D02*
X57083333Y-44204819D01*
X57083333Y-44204819D02*
X57178571Y-44204819D01*
X57178571Y-44204819D02*
X57321428Y-44157200D01*
X57321428Y-44157200D02*
X57416666Y-44061961D01*
X57416666Y-44061961D02*
X57464285Y-43966723D01*
X57464285Y-43966723D02*
X57511904Y-43776247D01*
X57511904Y-43776247D02*
X57511904Y-43633390D01*
X57511904Y-43633390D02*
X57464285Y-43442914D01*
X57464285Y-43442914D02*
X57416666Y-43347676D01*
X57416666Y-43347676D02*
X57321428Y-43252438D01*
X57321428Y-43252438D02*
X57178571Y-43204819D01*
X57178571Y-43204819D02*
X57083333Y-43204819D01*
X57083333Y-43204819D02*
X56940476Y-43252438D01*
X56940476Y-43252438D02*
X56892857Y-43300057D01*
X55940476Y-44204819D02*
X56511904Y-44204819D01*
X56226190Y-44204819D02*
X56226190Y-43204819D01*
X56226190Y-43204819D02*
X56321428Y-43347676D01*
X56321428Y-43347676D02*
X56416666Y-43442914D01*
X56416666Y-43442914D02*
X56511904Y-43490533D01*
X55369047Y-43633390D02*
X55464285Y-43585771D01*
X55464285Y-43585771D02*
X55511904Y-43538152D01*
X55511904Y-43538152D02*
X55559523Y-43442914D01*
X55559523Y-43442914D02*
X55559523Y-43395295D01*
X55559523Y-43395295D02*
X55511904Y-43300057D01*
X55511904Y-43300057D02*
X55464285Y-43252438D01*
X55464285Y-43252438D02*
X55369047Y-43204819D01*
X55369047Y-43204819D02*
X55178571Y-43204819D01*
X55178571Y-43204819D02*
X55083333Y-43252438D01*
X55083333Y-43252438D02*
X55035714Y-43300057D01*
X55035714Y-43300057D02*
X54988095Y-43395295D01*
X54988095Y-43395295D02*
X54988095Y-43442914D01*
X54988095Y-43442914D02*
X55035714Y-43538152D01*
X55035714Y-43538152D02*
X55083333Y-43585771D01*
X55083333Y-43585771D02*
X55178571Y-43633390D01*
X55178571Y-43633390D02*
X55369047Y-43633390D01*
X55369047Y-43633390D02*
X55464285Y-43681009D01*
X55464285Y-43681009D02*
X55511904Y-43728628D01*
X55511904Y-43728628D02*
X55559523Y-43823866D01*
X55559523Y-43823866D02*
X55559523Y-44014342D01*
X55559523Y-44014342D02*
X55511904Y-44109580D01*
X55511904Y-44109580D02*
X55464285Y-44157200D01*
X55464285Y-44157200D02*
X55369047Y-44204819D01*
X55369047Y-44204819D02*
X55178571Y-44204819D01*
X55178571Y-44204819D02*
X55083333Y-44157200D01*
X55083333Y-44157200D02*
X55035714Y-44109580D01*
X55035714Y-44109580D02*
X54988095Y-44014342D01*
X54988095Y-44014342D02*
X54988095Y-43823866D01*
X54988095Y-43823866D02*
X55035714Y-43728628D01*
X55035714Y-43728628D02*
X55083333Y-43681009D01*
X55083333Y-43681009D02*
X55178571Y-43633390D01*
X58642857Y-45609580D02*
X58690476Y-45657200D01*
X58690476Y-45657200D02*
X58833333Y-45704819D01*
X58833333Y-45704819D02*
X58928571Y-45704819D01*
X58928571Y-45704819D02*
X59071428Y-45657200D01*
X59071428Y-45657200D02*
X59166666Y-45561961D01*
X59166666Y-45561961D02*
X59214285Y-45466723D01*
X59214285Y-45466723D02*
X59261904Y-45276247D01*
X59261904Y-45276247D02*
X59261904Y-45133390D01*
X59261904Y-45133390D02*
X59214285Y-44942914D01*
X59214285Y-44942914D02*
X59166666Y-44847676D01*
X59166666Y-44847676D02*
X59071428Y-44752438D01*
X59071428Y-44752438D02*
X58928571Y-44704819D01*
X58928571Y-44704819D02*
X58833333Y-44704819D01*
X58833333Y-44704819D02*
X58690476Y-44752438D01*
X58690476Y-44752438D02*
X58642857Y-44800057D01*
X57690476Y-45704819D02*
X58261904Y-45704819D01*
X57976190Y-45704819D02*
X57976190Y-44704819D01*
X57976190Y-44704819D02*
X58071428Y-44847676D01*
X58071428Y-44847676D02*
X58166666Y-44942914D01*
X58166666Y-44942914D02*
X58261904Y-44990533D01*
X57357142Y-44704819D02*
X56690476Y-44704819D01*
X56690476Y-44704819D02*
X57119047Y-45704819D01*
X41166666Y-45519580D02*
X41214285Y-45567200D01*
X41214285Y-45567200D02*
X41357142Y-45614819D01*
X41357142Y-45614819D02*
X41452380Y-45614819D01*
X41452380Y-45614819D02*
X41595237Y-45567200D01*
X41595237Y-45567200D02*
X41690475Y-45471961D01*
X41690475Y-45471961D02*
X41738094Y-45376723D01*
X41738094Y-45376723D02*
X41785713Y-45186247D01*
X41785713Y-45186247D02*
X41785713Y-45043390D01*
X41785713Y-45043390D02*
X41738094Y-44852914D01*
X41738094Y-44852914D02*
X41690475Y-44757676D01*
X41690475Y-44757676D02*
X41595237Y-44662438D01*
X41595237Y-44662438D02*
X41452380Y-44614819D01*
X41452380Y-44614819D02*
X41357142Y-44614819D01*
X41357142Y-44614819D02*
X41214285Y-44662438D01*
X41214285Y-44662438D02*
X41166666Y-44710057D01*
X40309523Y-44948152D02*
X40309523Y-45614819D01*
X40547618Y-44567200D02*
X40785713Y-45281485D01*
X40785713Y-45281485D02*
X40166666Y-45281485D01*
X47166666Y-41059580D02*
X47214285Y-41107200D01*
X47214285Y-41107200D02*
X47357142Y-41154819D01*
X47357142Y-41154819D02*
X47452380Y-41154819D01*
X47452380Y-41154819D02*
X47595237Y-41107200D01*
X47595237Y-41107200D02*
X47690475Y-41011961D01*
X47690475Y-41011961D02*
X47738094Y-40916723D01*
X47738094Y-40916723D02*
X47785713Y-40726247D01*
X47785713Y-40726247D02*
X47785713Y-40583390D01*
X47785713Y-40583390D02*
X47738094Y-40392914D01*
X47738094Y-40392914D02*
X47690475Y-40297676D01*
X47690475Y-40297676D02*
X47595237Y-40202438D01*
X47595237Y-40202438D02*
X47452380Y-40154819D01*
X47452380Y-40154819D02*
X47357142Y-40154819D01*
X47357142Y-40154819D02*
X47214285Y-40202438D01*
X47214285Y-40202438D02*
X47166666Y-40250057D01*
X46214285Y-41154819D02*
X46785713Y-41154819D01*
X46499999Y-41154819D02*
X46499999Y-40154819D01*
X46499999Y-40154819D02*
X46595237Y-40297676D01*
X46595237Y-40297676D02*
X46690475Y-40392914D01*
X46690475Y-40392914D02*
X46785713Y-40440533D01*
X39666666Y-48959580D02*
X39714285Y-49007200D01*
X39714285Y-49007200D02*
X39857142Y-49054819D01*
X39857142Y-49054819D02*
X39952380Y-49054819D01*
X39952380Y-49054819D02*
X40095237Y-49007200D01*
X40095237Y-49007200D02*
X40190475Y-48911961D01*
X40190475Y-48911961D02*
X40238094Y-48816723D01*
X40238094Y-48816723D02*
X40285713Y-48626247D01*
X40285713Y-48626247D02*
X40285713Y-48483390D01*
X40285713Y-48483390D02*
X40238094Y-48292914D01*
X40238094Y-48292914D02*
X40190475Y-48197676D01*
X40190475Y-48197676D02*
X40095237Y-48102438D01*
X40095237Y-48102438D02*
X39952380Y-48054819D01*
X39952380Y-48054819D02*
X39857142Y-48054819D01*
X39857142Y-48054819D02*
X39714285Y-48102438D01*
X39714285Y-48102438D02*
X39666666Y-48150057D01*
X38761904Y-48054819D02*
X39238094Y-48054819D01*
X39238094Y-48054819D02*
X39285713Y-48531009D01*
X39285713Y-48531009D02*
X39238094Y-48483390D01*
X39238094Y-48483390D02*
X39142856Y-48435771D01*
X39142856Y-48435771D02*
X38904761Y-48435771D01*
X38904761Y-48435771D02*
X38809523Y-48483390D01*
X38809523Y-48483390D02*
X38761904Y-48531009D01*
X38761904Y-48531009D02*
X38714285Y-48626247D01*
X38714285Y-48626247D02*
X38714285Y-48864342D01*
X38714285Y-48864342D02*
X38761904Y-48959580D01*
X38761904Y-48959580D02*
X38809523Y-49007200D01*
X38809523Y-49007200D02*
X38904761Y-49054819D01*
X38904761Y-49054819D02*
X39142856Y-49054819D01*
X39142856Y-49054819D02*
X39238094Y-49007200D01*
X39238094Y-49007200D02*
X39285713Y-48959580D01*
X43166666Y-44059580D02*
X43214285Y-44107200D01*
X43214285Y-44107200D02*
X43357142Y-44154819D01*
X43357142Y-44154819D02*
X43452380Y-44154819D01*
X43452380Y-44154819D02*
X43595237Y-44107200D01*
X43595237Y-44107200D02*
X43690475Y-44011961D01*
X43690475Y-44011961D02*
X43738094Y-43916723D01*
X43738094Y-43916723D02*
X43785713Y-43726247D01*
X43785713Y-43726247D02*
X43785713Y-43583390D01*
X43785713Y-43583390D02*
X43738094Y-43392914D01*
X43738094Y-43392914D02*
X43690475Y-43297676D01*
X43690475Y-43297676D02*
X43595237Y-43202438D01*
X43595237Y-43202438D02*
X43452380Y-43154819D01*
X43452380Y-43154819D02*
X43357142Y-43154819D01*
X43357142Y-43154819D02*
X43214285Y-43202438D01*
X43214285Y-43202438D02*
X43166666Y-43250057D01*
X42833332Y-43154819D02*
X42214285Y-43154819D01*
X42214285Y-43154819D02*
X42547618Y-43535771D01*
X42547618Y-43535771D02*
X42404761Y-43535771D01*
X42404761Y-43535771D02*
X42309523Y-43583390D01*
X42309523Y-43583390D02*
X42261904Y-43631009D01*
X42261904Y-43631009D02*
X42214285Y-43726247D01*
X42214285Y-43726247D02*
X42214285Y-43964342D01*
X42214285Y-43964342D02*
X42261904Y-44059580D01*
X42261904Y-44059580D02*
X42309523Y-44107200D01*
X42309523Y-44107200D02*
X42404761Y-44154819D01*
X42404761Y-44154819D02*
X42690475Y-44154819D01*
X42690475Y-44154819D02*
X42785713Y-44107200D01*
X42785713Y-44107200D02*
X42833332Y-44059580D01*
X43166666Y-56609580D02*
X43214285Y-56657200D01*
X43214285Y-56657200D02*
X43357142Y-56704819D01*
X43357142Y-56704819D02*
X43452380Y-56704819D01*
X43452380Y-56704819D02*
X43595237Y-56657200D01*
X43595237Y-56657200D02*
X43690475Y-56561961D01*
X43690475Y-56561961D02*
X43738094Y-56466723D01*
X43738094Y-56466723D02*
X43785713Y-56276247D01*
X43785713Y-56276247D02*
X43785713Y-56133390D01*
X43785713Y-56133390D02*
X43738094Y-55942914D01*
X43738094Y-55942914D02*
X43690475Y-55847676D01*
X43690475Y-55847676D02*
X43595237Y-55752438D01*
X43595237Y-55752438D02*
X43452380Y-55704819D01*
X43452380Y-55704819D02*
X43357142Y-55704819D01*
X43357142Y-55704819D02*
X43214285Y-55752438D01*
X43214285Y-55752438D02*
X43166666Y-55800057D01*
X42595237Y-56133390D02*
X42690475Y-56085771D01*
X42690475Y-56085771D02*
X42738094Y-56038152D01*
X42738094Y-56038152D02*
X42785713Y-55942914D01*
X42785713Y-55942914D02*
X42785713Y-55895295D01*
X42785713Y-55895295D02*
X42738094Y-55800057D01*
X42738094Y-55800057D02*
X42690475Y-55752438D01*
X42690475Y-55752438D02*
X42595237Y-55704819D01*
X42595237Y-55704819D02*
X42404761Y-55704819D01*
X42404761Y-55704819D02*
X42309523Y-55752438D01*
X42309523Y-55752438D02*
X42261904Y-55800057D01*
X42261904Y-55800057D02*
X42214285Y-55895295D01*
X42214285Y-55895295D02*
X42214285Y-55942914D01*
X42214285Y-55942914D02*
X42261904Y-56038152D01*
X42261904Y-56038152D02*
X42309523Y-56085771D01*
X42309523Y-56085771D02*
X42404761Y-56133390D01*
X42404761Y-56133390D02*
X42595237Y-56133390D01*
X42595237Y-56133390D02*
X42690475Y-56181009D01*
X42690475Y-56181009D02*
X42738094Y-56228628D01*
X42738094Y-56228628D02*
X42785713Y-56323866D01*
X42785713Y-56323866D02*
X42785713Y-56514342D01*
X42785713Y-56514342D02*
X42738094Y-56609580D01*
X42738094Y-56609580D02*
X42690475Y-56657200D01*
X42690475Y-56657200D02*
X42595237Y-56704819D01*
X42595237Y-56704819D02*
X42404761Y-56704819D01*
X42404761Y-56704819D02*
X42309523Y-56657200D01*
X42309523Y-56657200D02*
X42261904Y-56609580D01*
X42261904Y-56609580D02*
X42214285Y-56514342D01*
X42214285Y-56514342D02*
X42214285Y-56323866D01*
X42214285Y-56323866D02*
X42261904Y-56228628D01*
X42261904Y-56228628D02*
X42309523Y-56181009D01*
X42309523Y-56181009D02*
X42404761Y-56133390D01*
X59642857Y-55109580D02*
X59690476Y-55157200D01*
X59690476Y-55157200D02*
X59833333Y-55204819D01*
X59833333Y-55204819D02*
X59928571Y-55204819D01*
X59928571Y-55204819D02*
X60071428Y-55157200D01*
X60071428Y-55157200D02*
X60166666Y-55061961D01*
X60166666Y-55061961D02*
X60214285Y-54966723D01*
X60214285Y-54966723D02*
X60261904Y-54776247D01*
X60261904Y-54776247D02*
X60261904Y-54633390D01*
X60261904Y-54633390D02*
X60214285Y-54442914D01*
X60214285Y-54442914D02*
X60166666Y-54347676D01*
X60166666Y-54347676D02*
X60071428Y-54252438D01*
X60071428Y-54252438D02*
X59928571Y-54204819D01*
X59928571Y-54204819D02*
X59833333Y-54204819D01*
X59833333Y-54204819D02*
X59690476Y-54252438D01*
X59690476Y-54252438D02*
X59642857Y-54300057D01*
X58690476Y-55204819D02*
X59261904Y-55204819D01*
X58976190Y-55204819D02*
X58976190Y-54204819D01*
X58976190Y-54204819D02*
X59071428Y-54347676D01*
X59071428Y-54347676D02*
X59166666Y-54442914D01*
X59166666Y-54442914D02*
X59261904Y-54490533D01*
X57833333Y-54538152D02*
X57833333Y-55204819D01*
X58071428Y-54157200D02*
X58309523Y-54871485D01*
X58309523Y-54871485D02*
X57690476Y-54871485D01*
X55642857Y-58109580D02*
X55690476Y-58157200D01*
X55690476Y-58157200D02*
X55833333Y-58204819D01*
X55833333Y-58204819D02*
X55928571Y-58204819D01*
X55928571Y-58204819D02*
X56071428Y-58157200D01*
X56071428Y-58157200D02*
X56166666Y-58061961D01*
X56166666Y-58061961D02*
X56214285Y-57966723D01*
X56214285Y-57966723D02*
X56261904Y-57776247D01*
X56261904Y-57776247D02*
X56261904Y-57633390D01*
X56261904Y-57633390D02*
X56214285Y-57442914D01*
X56214285Y-57442914D02*
X56166666Y-57347676D01*
X56166666Y-57347676D02*
X56071428Y-57252438D01*
X56071428Y-57252438D02*
X55928571Y-57204819D01*
X55928571Y-57204819D02*
X55833333Y-57204819D01*
X55833333Y-57204819D02*
X55690476Y-57252438D01*
X55690476Y-57252438D02*
X55642857Y-57300057D01*
X54690476Y-58204819D02*
X55261904Y-58204819D01*
X54976190Y-58204819D02*
X54976190Y-57204819D01*
X54976190Y-57204819D02*
X55071428Y-57347676D01*
X55071428Y-57347676D02*
X55166666Y-57442914D01*
X55166666Y-57442914D02*
X55261904Y-57490533D01*
X54309523Y-57300057D02*
X54261904Y-57252438D01*
X54261904Y-57252438D02*
X54166666Y-57204819D01*
X54166666Y-57204819D02*
X53928571Y-57204819D01*
X53928571Y-57204819D02*
X53833333Y-57252438D01*
X53833333Y-57252438D02*
X53785714Y-57300057D01*
X53785714Y-57300057D02*
X53738095Y-57395295D01*
X53738095Y-57395295D02*
X53738095Y-57490533D01*
X53738095Y-57490533D02*
X53785714Y-57633390D01*
X53785714Y-57633390D02*
X54357142Y-58204819D01*
X54357142Y-58204819D02*
X53738095Y-58204819D01*
X53642857Y-59699580D02*
X53690476Y-59747200D01*
X53690476Y-59747200D02*
X53833333Y-59794819D01*
X53833333Y-59794819D02*
X53928571Y-59794819D01*
X53928571Y-59794819D02*
X54071428Y-59747200D01*
X54071428Y-59747200D02*
X54166666Y-59651961D01*
X54166666Y-59651961D02*
X54214285Y-59556723D01*
X54214285Y-59556723D02*
X54261904Y-59366247D01*
X54261904Y-59366247D02*
X54261904Y-59223390D01*
X54261904Y-59223390D02*
X54214285Y-59032914D01*
X54214285Y-59032914D02*
X54166666Y-58937676D01*
X54166666Y-58937676D02*
X54071428Y-58842438D01*
X54071428Y-58842438D02*
X53928571Y-58794819D01*
X53928571Y-58794819D02*
X53833333Y-58794819D01*
X53833333Y-58794819D02*
X53690476Y-58842438D01*
X53690476Y-58842438D02*
X53642857Y-58890057D01*
X52690476Y-59794819D02*
X53261904Y-59794819D01*
X52976190Y-59794819D02*
X52976190Y-58794819D01*
X52976190Y-58794819D02*
X53071428Y-58937676D01*
X53071428Y-58937676D02*
X53166666Y-59032914D01*
X53166666Y-59032914D02*
X53261904Y-59080533D01*
X51738095Y-59794819D02*
X52309523Y-59794819D01*
X52023809Y-59794819D02*
X52023809Y-58794819D01*
X52023809Y-58794819D02*
X52119047Y-58937676D01*
X52119047Y-58937676D02*
X52214285Y-59032914D01*
X52214285Y-59032914D02*
X52309523Y-59080533D01*
X61142857Y-49109580D02*
X61190476Y-49157200D01*
X61190476Y-49157200D02*
X61333333Y-49204819D01*
X61333333Y-49204819D02*
X61428571Y-49204819D01*
X61428571Y-49204819D02*
X61571428Y-49157200D01*
X61571428Y-49157200D02*
X61666666Y-49061961D01*
X61666666Y-49061961D02*
X61714285Y-48966723D01*
X61714285Y-48966723D02*
X61761904Y-48776247D01*
X61761904Y-48776247D02*
X61761904Y-48633390D01*
X61761904Y-48633390D02*
X61714285Y-48442914D01*
X61714285Y-48442914D02*
X61666666Y-48347676D01*
X61666666Y-48347676D02*
X61571428Y-48252438D01*
X61571428Y-48252438D02*
X61428571Y-48204819D01*
X61428571Y-48204819D02*
X61333333Y-48204819D01*
X61333333Y-48204819D02*
X61190476Y-48252438D01*
X61190476Y-48252438D02*
X61142857Y-48300057D01*
X60190476Y-49204819D02*
X60761904Y-49204819D01*
X60476190Y-49204819D02*
X60476190Y-48204819D01*
X60476190Y-48204819D02*
X60571428Y-48347676D01*
X60571428Y-48347676D02*
X60666666Y-48442914D01*
X60666666Y-48442914D02*
X60761904Y-48490533D01*
X59333333Y-48204819D02*
X59523809Y-48204819D01*
X59523809Y-48204819D02*
X59619047Y-48252438D01*
X59619047Y-48252438D02*
X59666666Y-48300057D01*
X59666666Y-48300057D02*
X59761904Y-48442914D01*
X59761904Y-48442914D02*
X59809523Y-48633390D01*
X59809523Y-48633390D02*
X59809523Y-49014342D01*
X59809523Y-49014342D02*
X59761904Y-49109580D01*
X59761904Y-49109580D02*
X59714285Y-49157200D01*
X59714285Y-49157200D02*
X59619047Y-49204819D01*
X59619047Y-49204819D02*
X59428571Y-49204819D01*
X59428571Y-49204819D02*
X59333333Y-49157200D01*
X59333333Y-49157200D02*
X59285714Y-49109580D01*
X59285714Y-49109580D02*
X59238095Y-49014342D01*
X59238095Y-49014342D02*
X59238095Y-48776247D01*
X59238095Y-48776247D02*
X59285714Y-48681009D01*
X59285714Y-48681009D02*
X59333333Y-48633390D01*
X59333333Y-48633390D02*
X59428571Y-48585771D01*
X59428571Y-48585771D02*
X59619047Y-48585771D01*
X59619047Y-48585771D02*
X59714285Y-48633390D01*
X59714285Y-48633390D02*
X59761904Y-48681009D01*
X59761904Y-48681009D02*
X59809523Y-48776247D01*
X53642857Y-41019580D02*
X53690476Y-41067200D01*
X53690476Y-41067200D02*
X53833333Y-41114819D01*
X53833333Y-41114819D02*
X53928571Y-41114819D01*
X53928571Y-41114819D02*
X54071428Y-41067200D01*
X54071428Y-41067200D02*
X54166666Y-40971961D01*
X54166666Y-40971961D02*
X54214285Y-40876723D01*
X54214285Y-40876723D02*
X54261904Y-40686247D01*
X54261904Y-40686247D02*
X54261904Y-40543390D01*
X54261904Y-40543390D02*
X54214285Y-40352914D01*
X54214285Y-40352914D02*
X54166666Y-40257676D01*
X54166666Y-40257676D02*
X54071428Y-40162438D01*
X54071428Y-40162438D02*
X53928571Y-40114819D01*
X53928571Y-40114819D02*
X53833333Y-40114819D01*
X53833333Y-40114819D02*
X53690476Y-40162438D01*
X53690476Y-40162438D02*
X53642857Y-40210057D01*
X53261904Y-40210057D02*
X53214285Y-40162438D01*
X53214285Y-40162438D02*
X53119047Y-40114819D01*
X53119047Y-40114819D02*
X52880952Y-40114819D01*
X52880952Y-40114819D02*
X52785714Y-40162438D01*
X52785714Y-40162438D02*
X52738095Y-40210057D01*
X52738095Y-40210057D02*
X52690476Y-40305295D01*
X52690476Y-40305295D02*
X52690476Y-40400533D01*
X52690476Y-40400533D02*
X52738095Y-40543390D01*
X52738095Y-40543390D02*
X53309523Y-41114819D01*
X53309523Y-41114819D02*
X52690476Y-41114819D01*
X52071428Y-40114819D02*
X51976190Y-40114819D01*
X51976190Y-40114819D02*
X51880952Y-40162438D01*
X51880952Y-40162438D02*
X51833333Y-40210057D01*
X51833333Y-40210057D02*
X51785714Y-40305295D01*
X51785714Y-40305295D02*
X51738095Y-40495771D01*
X51738095Y-40495771D02*
X51738095Y-40733866D01*
X51738095Y-40733866D02*
X51785714Y-40924342D01*
X51785714Y-40924342D02*
X51833333Y-41019580D01*
X51833333Y-41019580D02*
X51880952Y-41067200D01*
X51880952Y-41067200D02*
X51976190Y-41114819D01*
X51976190Y-41114819D02*
X52071428Y-41114819D01*
X52071428Y-41114819D02*
X52166666Y-41067200D01*
X52166666Y-41067200D02*
X52214285Y-41019580D01*
X52214285Y-41019580D02*
X52261904Y-40924342D01*
X52261904Y-40924342D02*
X52309523Y-40733866D01*
X52309523Y-40733866D02*
X52309523Y-40495771D01*
X52309523Y-40495771D02*
X52261904Y-40305295D01*
X52261904Y-40305295D02*
X52214285Y-40210057D01*
X52214285Y-40210057D02*
X52166666Y-40162438D01*
X52166666Y-40162438D02*
X52071428Y-40114819D01*
X44666666Y-58199580D02*
X44714285Y-58247200D01*
X44714285Y-58247200D02*
X44857142Y-58294819D01*
X44857142Y-58294819D02*
X44952380Y-58294819D01*
X44952380Y-58294819D02*
X45095237Y-58247200D01*
X45095237Y-58247200D02*
X45190475Y-58151961D01*
X45190475Y-58151961D02*
X45238094Y-58056723D01*
X45238094Y-58056723D02*
X45285713Y-57866247D01*
X45285713Y-57866247D02*
X45285713Y-57723390D01*
X45285713Y-57723390D02*
X45238094Y-57532914D01*
X45238094Y-57532914D02*
X45190475Y-57437676D01*
X45190475Y-57437676D02*
X45095237Y-57342438D01*
X45095237Y-57342438D02*
X44952380Y-57294819D01*
X44952380Y-57294819D02*
X44857142Y-57294819D01*
X44857142Y-57294819D02*
X44714285Y-57342438D01*
X44714285Y-57342438D02*
X44666666Y-57390057D01*
X44190475Y-58294819D02*
X43999999Y-58294819D01*
X43999999Y-58294819D02*
X43904761Y-58247200D01*
X43904761Y-58247200D02*
X43857142Y-58199580D01*
X43857142Y-58199580D02*
X43761904Y-58056723D01*
X43761904Y-58056723D02*
X43714285Y-57866247D01*
X43714285Y-57866247D02*
X43714285Y-57485295D01*
X43714285Y-57485295D02*
X43761904Y-57390057D01*
X43761904Y-57390057D02*
X43809523Y-57342438D01*
X43809523Y-57342438D02*
X43904761Y-57294819D01*
X43904761Y-57294819D02*
X44095237Y-57294819D01*
X44095237Y-57294819D02*
X44190475Y-57342438D01*
X44190475Y-57342438D02*
X44238094Y-57390057D01*
X44238094Y-57390057D02*
X44285713Y-57485295D01*
X44285713Y-57485295D02*
X44285713Y-57723390D01*
X44285713Y-57723390D02*
X44238094Y-57818628D01*
X44238094Y-57818628D02*
X44190475Y-57866247D01*
X44190475Y-57866247D02*
X44095237Y-57913866D01*
X44095237Y-57913866D02*
X43904761Y-57913866D01*
X43904761Y-57913866D02*
X43809523Y-57866247D01*
X43809523Y-57866247D02*
X43761904Y-57818628D01*
X43761904Y-57818628D02*
X43714285Y-57723390D01*
X44666666Y-42519580D02*
X44714285Y-42567200D01*
X44714285Y-42567200D02*
X44857142Y-42614819D01*
X44857142Y-42614819D02*
X44952380Y-42614819D01*
X44952380Y-42614819D02*
X45095237Y-42567200D01*
X45095237Y-42567200D02*
X45190475Y-42471961D01*
X45190475Y-42471961D02*
X45238094Y-42376723D01*
X45238094Y-42376723D02*
X45285713Y-42186247D01*
X45285713Y-42186247D02*
X45285713Y-42043390D01*
X45285713Y-42043390D02*
X45238094Y-41852914D01*
X45238094Y-41852914D02*
X45190475Y-41757676D01*
X45190475Y-41757676D02*
X45095237Y-41662438D01*
X45095237Y-41662438D02*
X44952380Y-41614819D01*
X44952380Y-41614819D02*
X44857142Y-41614819D01*
X44857142Y-41614819D02*
X44714285Y-41662438D01*
X44714285Y-41662438D02*
X44666666Y-41710057D01*
X44285713Y-41710057D02*
X44238094Y-41662438D01*
X44238094Y-41662438D02*
X44142856Y-41614819D01*
X44142856Y-41614819D02*
X43904761Y-41614819D01*
X43904761Y-41614819D02*
X43809523Y-41662438D01*
X43809523Y-41662438D02*
X43761904Y-41710057D01*
X43761904Y-41710057D02*
X43714285Y-41805295D01*
X43714285Y-41805295D02*
X43714285Y-41900533D01*
X43714285Y-41900533D02*
X43761904Y-42043390D01*
X43761904Y-42043390D02*
X44333332Y-42614819D01*
X44333332Y-42614819D02*
X43714285Y-42614819D01*
X57142857Y-56699580D02*
X57190476Y-56747200D01*
X57190476Y-56747200D02*
X57333333Y-56794819D01*
X57333333Y-56794819D02*
X57428571Y-56794819D01*
X57428571Y-56794819D02*
X57571428Y-56747200D01*
X57571428Y-56747200D02*
X57666666Y-56651961D01*
X57666666Y-56651961D02*
X57714285Y-56556723D01*
X57714285Y-56556723D02*
X57761904Y-56366247D01*
X57761904Y-56366247D02*
X57761904Y-56223390D01*
X57761904Y-56223390D02*
X57714285Y-56032914D01*
X57714285Y-56032914D02*
X57666666Y-55937676D01*
X57666666Y-55937676D02*
X57571428Y-55842438D01*
X57571428Y-55842438D02*
X57428571Y-55794819D01*
X57428571Y-55794819D02*
X57333333Y-55794819D01*
X57333333Y-55794819D02*
X57190476Y-55842438D01*
X57190476Y-55842438D02*
X57142857Y-55890057D01*
X56190476Y-56794819D02*
X56761904Y-56794819D01*
X56476190Y-56794819D02*
X56476190Y-55794819D01*
X56476190Y-55794819D02*
X56571428Y-55937676D01*
X56571428Y-55937676D02*
X56666666Y-56032914D01*
X56666666Y-56032914D02*
X56761904Y-56080533D01*
X55857142Y-55794819D02*
X55238095Y-55794819D01*
X55238095Y-55794819D02*
X55571428Y-56175771D01*
X55571428Y-56175771D02*
X55428571Y-56175771D01*
X55428571Y-56175771D02*
X55333333Y-56223390D01*
X55333333Y-56223390D02*
X55285714Y-56271009D01*
X55285714Y-56271009D02*
X55238095Y-56366247D01*
X55238095Y-56366247D02*
X55238095Y-56604342D01*
X55238095Y-56604342D02*
X55285714Y-56699580D01*
X55285714Y-56699580D02*
X55333333Y-56747200D01*
X55333333Y-56747200D02*
X55428571Y-56794819D01*
X55428571Y-56794819D02*
X55714285Y-56794819D01*
X55714285Y-56794819D02*
X55809523Y-56747200D01*
X55809523Y-56747200D02*
X55857142Y-56699580D01*
X61142857Y-51609580D02*
X61190476Y-51657200D01*
X61190476Y-51657200D02*
X61333333Y-51704819D01*
X61333333Y-51704819D02*
X61428571Y-51704819D01*
X61428571Y-51704819D02*
X61571428Y-51657200D01*
X61571428Y-51657200D02*
X61666666Y-51561961D01*
X61666666Y-51561961D02*
X61714285Y-51466723D01*
X61714285Y-51466723D02*
X61761904Y-51276247D01*
X61761904Y-51276247D02*
X61761904Y-51133390D01*
X61761904Y-51133390D02*
X61714285Y-50942914D01*
X61714285Y-50942914D02*
X61666666Y-50847676D01*
X61666666Y-50847676D02*
X61571428Y-50752438D01*
X61571428Y-50752438D02*
X61428571Y-50704819D01*
X61428571Y-50704819D02*
X61333333Y-50704819D01*
X61333333Y-50704819D02*
X61190476Y-50752438D01*
X61190476Y-50752438D02*
X61142857Y-50800057D01*
X60190476Y-51704819D02*
X60761904Y-51704819D01*
X60476190Y-51704819D02*
X60476190Y-50704819D01*
X60476190Y-50704819D02*
X60571428Y-50847676D01*
X60571428Y-50847676D02*
X60666666Y-50942914D01*
X60666666Y-50942914D02*
X60761904Y-50990533D01*
X59285714Y-50704819D02*
X59761904Y-50704819D01*
X59761904Y-50704819D02*
X59809523Y-51181009D01*
X59809523Y-51181009D02*
X59761904Y-51133390D01*
X59761904Y-51133390D02*
X59666666Y-51085771D01*
X59666666Y-51085771D02*
X59428571Y-51085771D01*
X59428571Y-51085771D02*
X59333333Y-51133390D01*
X59333333Y-51133390D02*
X59285714Y-51181009D01*
X59285714Y-51181009D02*
X59238095Y-51276247D01*
X59238095Y-51276247D02*
X59238095Y-51514342D01*
X59238095Y-51514342D02*
X59285714Y-51609580D01*
X59285714Y-51609580D02*
X59333333Y-51657200D01*
X59333333Y-51657200D02*
X59428571Y-51704819D01*
X59428571Y-51704819D02*
X59666666Y-51704819D01*
X59666666Y-51704819D02*
X59761904Y-51657200D01*
X59761904Y-51657200D02*
X59809523Y-51609580D01*
X50333333Y-39204819D02*
X50333333Y-39919104D01*
X50333333Y-39919104D02*
X50380952Y-40061961D01*
X50380952Y-40061961D02*
X50476190Y-40157200D01*
X50476190Y-40157200D02*
X50619047Y-40204819D01*
X50619047Y-40204819D02*
X50714285Y-40204819D01*
X49333333Y-40204819D02*
X49904761Y-40204819D01*
X49619047Y-40204819D02*
X49619047Y-39204819D01*
X49619047Y-39204819D02*
X49714285Y-39347676D01*
X49714285Y-39347676D02*
X49809523Y-39442914D01*
X49809523Y-39442914D02*
X49904761Y-39490533D01*
X47642857Y-59609580D02*
X47690476Y-59657200D01*
X47690476Y-59657200D02*
X47833333Y-59704819D01*
X47833333Y-59704819D02*
X47928571Y-59704819D01*
X47928571Y-59704819D02*
X48071428Y-59657200D01*
X48071428Y-59657200D02*
X48166666Y-59561961D01*
X48166666Y-59561961D02*
X48214285Y-59466723D01*
X48214285Y-59466723D02*
X48261904Y-59276247D01*
X48261904Y-59276247D02*
X48261904Y-59133390D01*
X48261904Y-59133390D02*
X48214285Y-58942914D01*
X48214285Y-58942914D02*
X48166666Y-58847676D01*
X48166666Y-58847676D02*
X48071428Y-58752438D01*
X48071428Y-58752438D02*
X47928571Y-58704819D01*
X47928571Y-58704819D02*
X47833333Y-58704819D01*
X47833333Y-58704819D02*
X47690476Y-58752438D01*
X47690476Y-58752438D02*
X47642857Y-58800057D01*
X46690476Y-59704819D02*
X47261904Y-59704819D01*
X46976190Y-59704819D02*
X46976190Y-58704819D01*
X46976190Y-58704819D02*
X47071428Y-58847676D01*
X47071428Y-58847676D02*
X47166666Y-58942914D01*
X47166666Y-58942914D02*
X47261904Y-58990533D01*
X46071428Y-58704819D02*
X45976190Y-58704819D01*
X45976190Y-58704819D02*
X45880952Y-58752438D01*
X45880952Y-58752438D02*
X45833333Y-58800057D01*
X45833333Y-58800057D02*
X45785714Y-58895295D01*
X45785714Y-58895295D02*
X45738095Y-59085771D01*
X45738095Y-59085771D02*
X45738095Y-59323866D01*
X45738095Y-59323866D02*
X45785714Y-59514342D01*
X45785714Y-59514342D02*
X45833333Y-59609580D01*
X45833333Y-59609580D02*
X45880952Y-59657200D01*
X45880952Y-59657200D02*
X45976190Y-59704819D01*
X45976190Y-59704819D02*
X46071428Y-59704819D01*
X46071428Y-59704819D02*
X46166666Y-59657200D01*
X46166666Y-59657200D02*
X46214285Y-59609580D01*
X46214285Y-59609580D02*
X46261904Y-59514342D01*
X46261904Y-59514342D02*
X46309523Y-59323866D01*
X46309523Y-59323866D02*
X46309523Y-59085771D01*
X46309523Y-59085771D02*
X46261904Y-58895295D01*
X46261904Y-58895295D02*
X46214285Y-58800057D01*
X46214285Y-58800057D02*
X46166666Y-58752438D01*
X46166666Y-58752438D02*
X46071428Y-58704819D01*
X41166666Y-55199580D02*
X41214285Y-55247200D01*
X41214285Y-55247200D02*
X41357142Y-55294819D01*
X41357142Y-55294819D02*
X41452380Y-55294819D01*
X41452380Y-55294819D02*
X41595237Y-55247200D01*
X41595237Y-55247200D02*
X41690475Y-55151961D01*
X41690475Y-55151961D02*
X41738094Y-55056723D01*
X41738094Y-55056723D02*
X41785713Y-54866247D01*
X41785713Y-54866247D02*
X41785713Y-54723390D01*
X41785713Y-54723390D02*
X41738094Y-54532914D01*
X41738094Y-54532914D02*
X41690475Y-54437676D01*
X41690475Y-54437676D02*
X41595237Y-54342438D01*
X41595237Y-54342438D02*
X41452380Y-54294819D01*
X41452380Y-54294819D02*
X41357142Y-54294819D01*
X41357142Y-54294819D02*
X41214285Y-54342438D01*
X41214285Y-54342438D02*
X41166666Y-54390057D01*
X40833332Y-54294819D02*
X40166666Y-54294819D01*
X40166666Y-54294819D02*
X40595237Y-55294819D01*
X55392857Y-42609580D02*
X55440476Y-42657200D01*
X55440476Y-42657200D02*
X55583333Y-42704819D01*
X55583333Y-42704819D02*
X55678571Y-42704819D01*
X55678571Y-42704819D02*
X55821428Y-42657200D01*
X55821428Y-42657200D02*
X55916666Y-42561961D01*
X55916666Y-42561961D02*
X55964285Y-42466723D01*
X55964285Y-42466723D02*
X56011904Y-42276247D01*
X56011904Y-42276247D02*
X56011904Y-42133390D01*
X56011904Y-42133390D02*
X55964285Y-41942914D01*
X55964285Y-41942914D02*
X55916666Y-41847676D01*
X55916666Y-41847676D02*
X55821428Y-41752438D01*
X55821428Y-41752438D02*
X55678571Y-41704819D01*
X55678571Y-41704819D02*
X55583333Y-41704819D01*
X55583333Y-41704819D02*
X55440476Y-41752438D01*
X55440476Y-41752438D02*
X55392857Y-41800057D01*
X54440476Y-42704819D02*
X55011904Y-42704819D01*
X54726190Y-42704819D02*
X54726190Y-41704819D01*
X54726190Y-41704819D02*
X54821428Y-41847676D01*
X54821428Y-41847676D02*
X54916666Y-41942914D01*
X54916666Y-41942914D02*
X55011904Y-41990533D01*
X53964285Y-42704819D02*
X53773809Y-42704819D01*
X53773809Y-42704819D02*
X53678571Y-42657200D01*
X53678571Y-42657200D02*
X53630952Y-42609580D01*
X53630952Y-42609580D02*
X53535714Y-42466723D01*
X53535714Y-42466723D02*
X53488095Y-42276247D01*
X53488095Y-42276247D02*
X53488095Y-41895295D01*
X53488095Y-41895295D02*
X53535714Y-41800057D01*
X53535714Y-41800057D02*
X53583333Y-41752438D01*
X53583333Y-41752438D02*
X53678571Y-41704819D01*
X53678571Y-41704819D02*
X53869047Y-41704819D01*
X53869047Y-41704819D02*
X53964285Y-41752438D01*
X53964285Y-41752438D02*
X54011904Y-41800057D01*
X54011904Y-41800057D02*
X54059523Y-41895295D01*
X54059523Y-41895295D02*
X54059523Y-42133390D01*
X54059523Y-42133390D02*
X54011904Y-42228628D01*
X54011904Y-42228628D02*
X53964285Y-42276247D01*
X53964285Y-42276247D02*
X53869047Y-42323866D01*
X53869047Y-42323866D02*
X53678571Y-42323866D01*
X53678571Y-42323866D02*
X53583333Y-42276247D01*
X53583333Y-42276247D02*
X53535714Y-42228628D01*
X53535714Y-42228628D02*
X53488095Y-42133390D01*
X39666666Y-51859580D02*
X39714285Y-51907200D01*
X39714285Y-51907200D02*
X39857142Y-51954819D01*
X39857142Y-51954819D02*
X39952380Y-51954819D01*
X39952380Y-51954819D02*
X40095237Y-51907200D01*
X40095237Y-51907200D02*
X40190475Y-51811961D01*
X40190475Y-51811961D02*
X40238094Y-51716723D01*
X40238094Y-51716723D02*
X40285713Y-51526247D01*
X40285713Y-51526247D02*
X40285713Y-51383390D01*
X40285713Y-51383390D02*
X40238094Y-51192914D01*
X40238094Y-51192914D02*
X40190475Y-51097676D01*
X40190475Y-51097676D02*
X40095237Y-51002438D01*
X40095237Y-51002438D02*
X39952380Y-50954819D01*
X39952380Y-50954819D02*
X39857142Y-50954819D01*
X39857142Y-50954819D02*
X39714285Y-51002438D01*
X39714285Y-51002438D02*
X39666666Y-51050057D01*
X38809523Y-50954819D02*
X38999999Y-50954819D01*
X38999999Y-50954819D02*
X39095237Y-51002438D01*
X39095237Y-51002438D02*
X39142856Y-51050057D01*
X39142856Y-51050057D02*
X39238094Y-51192914D01*
X39238094Y-51192914D02*
X39285713Y-51383390D01*
X39285713Y-51383390D02*
X39285713Y-51764342D01*
X39285713Y-51764342D02*
X39238094Y-51859580D01*
X39238094Y-51859580D02*
X39190475Y-51907200D01*
X39190475Y-51907200D02*
X39095237Y-51954819D01*
X39095237Y-51954819D02*
X38904761Y-51954819D01*
X38904761Y-51954819D02*
X38809523Y-51907200D01*
X38809523Y-51907200D02*
X38761904Y-51859580D01*
X38761904Y-51859580D02*
X38714285Y-51764342D01*
X38714285Y-51764342D02*
X38714285Y-51526247D01*
X38714285Y-51526247D02*
X38761904Y-51431009D01*
X38761904Y-51431009D02*
X38809523Y-51383390D01*
X38809523Y-51383390D02*
X38904761Y-51335771D01*
X38904761Y-51335771D02*
X39095237Y-51335771D01*
X39095237Y-51335771D02*
X39190475Y-51383390D01*
X39190475Y-51383390D02*
X39238094Y-51431009D01*
X39238094Y-51431009D02*
X39285713Y-51526247D01*
D12*
%TO.C,C18*%
X57607836Y-42140000D02*
X57392164Y-42140000D01*
X57607836Y-42860000D02*
X57392164Y-42860000D01*
%TO.C,C17*%
X59107836Y-43640000D02*
X58892164Y-43640000D01*
X59107836Y-44360000D02*
X58892164Y-44360000D01*
%TO.C,C4*%
X41107836Y-43640000D02*
X40892164Y-43640000D01*
X41107836Y-44360000D02*
X40892164Y-44360000D01*
%TO.C,C1*%
X46892164Y-39140000D02*
X47107836Y-39140000D01*
X46892164Y-39860000D02*
X47107836Y-39860000D01*
%TO.C,C5*%
X39140000Y-46892164D02*
X39140000Y-47107836D01*
X39860000Y-46892164D02*
X39860000Y-47107836D01*
%TO.C,C3*%
X42392164Y-42140000D02*
X42607836Y-42140000D01*
X42392164Y-42860000D02*
X42607836Y-42860000D01*
%TO.C,C8*%
X42607836Y-57140000D02*
X42392164Y-57140000D01*
X42607836Y-57860000D02*
X42392164Y-57860000D01*
%TO.C,C14*%
X59107836Y-55640000D02*
X58892164Y-55640000D01*
X59107836Y-56360000D02*
X58892164Y-56360000D01*
%TO.C,C12*%
X56107836Y-58640000D02*
X55892164Y-58640000D01*
X56107836Y-59360000D02*
X55892164Y-59360000D01*
%TO.C,C11*%
X52892164Y-60140000D02*
X53107836Y-60140000D01*
X52892164Y-60860000D02*
X53107836Y-60860000D01*
%TO.C,C16*%
X60140000Y-46892164D02*
X60140000Y-47107836D01*
X60860000Y-46892164D02*
X60860000Y-47107836D01*
%TO.C,C20*%
X53107836Y-39140000D02*
X52892164Y-39140000D01*
X53107836Y-39860000D02*
X52892164Y-39860000D01*
%TO.C,C9*%
X43892164Y-58640000D02*
X44107836Y-58640000D01*
X43892164Y-59360000D02*
X44107836Y-59360000D01*
%TO.C,C2*%
X44107836Y-40640000D02*
X43892164Y-40640000D01*
X44107836Y-41360000D02*
X43892164Y-41360000D01*
%TO.C,C13*%
X57392164Y-57140000D02*
X57607836Y-57140000D01*
X57392164Y-57860000D02*
X57607836Y-57860000D01*
%TO.C,C15*%
X60140000Y-52892164D02*
X60140000Y-53107836D01*
X60860000Y-52892164D02*
X60860000Y-53107836D01*
%TO.C,J1*%
X52540000Y-34950000D02*
X53810000Y-34950000D01*
X53810000Y-34950000D02*
X53810000Y-36220000D01*
%TO.C,C10*%
X47107836Y-60140000D02*
X46892164Y-60140000D01*
X47107836Y-60860000D02*
X46892164Y-60860000D01*
%TO.C,C7*%
X40892164Y-55640000D02*
X41107836Y-55640000D01*
X40892164Y-56360000D02*
X41107836Y-56360000D01*
%TO.C,C19*%
X55892164Y-40640000D02*
X56107836Y-40640000D01*
X55892164Y-41360000D02*
X56107836Y-41360000D01*
%TO.C,C6*%
X39140000Y-52892164D02*
X39140000Y-53107836D01*
X39860000Y-52892164D02*
X39860000Y-53107836D01*
%TD*%
M02*
