  0
SECTION
  2
HEADER
  9
$ANGBASE
  50
0.0
  9
$ANGDIR
  70
1
  9
$MEASUREMENT
  70
1
  0
ENDSEC
  0
SECTION
  2
TABLES
  0
TABLE
  2
LTYPE
  70
4
  0
LTYPE
  5
40F
  2
CONTINUOUS
  70
0
  3
Solid line
  72
65
  73
0
  40
0.0
  0
LTYPE
  5
410
  2
DASHDOT
 70
0
  3
Dash Dot ____ _ ____ _
 72
65
 73
4
 40
2.0
 49
1.25
 49
-0.25
 49
0.25
 49
-0.25
  0
LTYPE
  5
411
  2
DASHED
 70
0
  3
Dashed __ __ __ __ __
 72
65
 73
2
 40
0.75
 49
0.5
 49
-0.25
  0
LTYPE
  5
43B
  2
DOTTED
 70
0
  3
Dotted .  .  .  .
 72
65
 73
2
 40
0.2
 49
0.0
 49
-0.2
  0
ENDTAB
  0
TABLE
  2
STYLE
  70
4
  0
STYLE
  2
KICAD
  70
0
  40
0
  41
1
  42
1
  50
0
  71
0
  3
isocp.shx
  0
STYLE
  2
KICADB
  70
0
  40
0
  41
1
  42
1
  50
0
  71
0
  3
isocp.shx
  0
STYLE
  2
KICADI
  70
0
  40
0
  41
1
  42
1
  50
15
  71
0
  3
isocp.shx
  0
STYLE
  2
KICADBI
  70
0
  40
0
  41
1
  42
1
  50
15
  71
0
  3
isocp.shx
  0
ENDTAB
  0
TABLE
  2
LAYER
  70
1
  0
LAYER
  2
BLACK
  70
0
  62
7
  6
CONTINUOUS
  0
ENDTAB
  0
ENDSEC
  0
SECTION
  2
ENTITIES
0
ARC
8
BLACK
10
85.
20
-50.
40
13.3066412307918629
50
-127.22394285
51
-112.57946624
0
ARC
8
BLACK
10
50.
20
-50.
40
15.2830079505328396
50
-217.48046378
51
-142.51953622
0
LINE
8
BLACK
6
CONTINUOUS
10
94.2995710000000003
20
-64.1279969999999935
11
94.2995710000000003
21
-62.1279979999999981
0
ARC
8
BLACK
10
50.
20
-50.
40
13.3036109870923749
50
-127.22394339
51
-52.77605661
0
ARC
8
BLACK
10
50.
20
-50.
40
15.2830079505328396
50
52.51953622
51
127.48046378
0
ARC
8
BLACK
10
85.
20
-50.
40
13.3036109870923749
50
-37.22394339
51
37.22394339
0
ARC
8
BLACK
10
89.2999999999999972
20
-62.1809999999999974
40
0.6944176189081034
50
-63.43417393
51
-26.56339071
0
LINE
8
BLACK
6
CONTINUOUS
10
75.7004289999999997
20
-62.1279979999999981
11
75.7004289999999997
21
-64.1279969999999935
0
ARC
8
BLACK
10
50.
20
-50.
40
15.2830079505328396
50
-37.48046378
51
37.48046378
0
ARC
8
BLACK
10
89.
20
-63.7999999999999972
40
0.5
50
-90.00000000
51
-0.00000000
0
ARC
8
BLACK
10
50.
20
-50.
40
15.2830079505328396
50
-127.48046378
51
-52.51953622
0
ARC
8
BLACK
10
90.200099999999992
20
-62.5588999999999942
40
0.2870029154033109
50
108.44934307
51
166.42494829
0
LINE
8
BLACK
6
CONTINUOUS
10
31.0999999999999979
20
-31.
11
104.
21
-31.
0
LINE
8
BLACK
6
CONTINUOUS
10
104.
20
-31.
11
104.
21
-71.
0
LINE
8
BLACK
6
CONTINUOUS
10
104.
20
-71.
11
31.0999999999999979
21
-71.
0
LINE
8
BLACK
6
CONTINUOUS
10
31.0999999999999979
20
-71.
11
31.0999999999999979
21
-31.
0
ARC
8
BLACK
10
85.
20
-50.
40
15.2830079505328396
50
-37.48046378
51
37.48046378
0
ARC
8
BLACK
10
85.
20
-52.
40
15.2830079505328396
50
-127.48046378
51
-52.51953622
0
ARC
8
BLACK
10
50.
20
-50.
40
13.3036109870923749
50
-37.22394339
51
37.22394339
0
ARC
8
BLACK
10
85.
20
-50.
40
13.3036109870923749
50
52.77605661
51
127.22394339
0
ARC
8
BLACK
10
80.7000000000000028
20
-62.1809999999999974
40
0.6944077799808984
50
-153.43660929
51
-116.56582607
0
LINE
8
BLACK
6
CONTINUOUS
10
89.5
20
-62.9809780000000003
11
89.5
21
-63.7999999999999972
0
ARC
8
BLACK
10
80.2999999999999972
20
-62.9809999999999945
40
0.2000194113030033
50
0.00630254
51
63.43763902
0
ARC
8
BLACK
10
50.
20
-50.
40
13.3036109870923749
50
52.77605661
51
127.22394339
0
ARC
8
BLACK
10
85.
20
-50.
40
13.3066412441746156
50
-67.42053376
51
-52.77605715
0
LINE
8
BLACK
6
CONTINUOUS
10
81.
20
-64.2999999999999972
11
89.
21
-64.2999999999999972
0
ARC
8
BLACK
10
81.
20
-63.7999999999999972
40
0.5
50
-180.00000000
51
-90.00000000
0
ARC
8
BLACK
10
85.
20
-50.
40
13.3036109870923749
50
-217.22394339
51
-142.77605661
0
ARC
8
BLACK
10
89.7000000000000028
20
-62.9809999999999945
40
0.20000000121
50
116.56236098
51
179.99369746
0
ARC
8
BLACK
10
79.7998999999999938
20
-62.5588999999999942
40
0.2869912531942393
50
13.57505171
51
71.55065693
0
LINE
8
BLACK
6
CONTINUOUS
10
80.5
20
-63.7999999999999972
11
80.5
21
-62.9809780000000003
0
ARC
8
BLACK
10
50.
20
-50.
40
13.3036109870923749
50
-217.22394339
51
-142.77605661
0
ARC
8
BLACK
10
85.
20
-50.
40
15.2830079505328396
50
-217.48046378
51
-142.51953622
0
ARC
8
BLACK
10
85.
20
-50.
40
15.2830079505328396
50
52.51953622
51
127.48046378
0
ARC
8
BLACK
10
38.5757879999999957
20
-41.4042120000000011
40
0.995301584890228
50
-33.40793092
51
135.00012212
0
ARC
8
BLACK
10
41.4042139999999961
20
-38.5757860000000008
40
0.9953014901274889
50
-224.99995929
51
-56.59222858
0
ARC
8
BLACK
10
38.5757860000000008
20
-58.5957859999999968
40
0.9953014901274889
50
-134.99995929
51
33.40777142
0
ARC
8
BLACK
10
41.4042120000000011
20
-61.4242119999999971
40
0.995301584890228
50
-303.40793092
51
-134.99987788
0
ARC
8
BLACK
10
93.5957859999999897
20
-61.4242139999999992
40
0.9953014901274889
50
-44.99995929
51
123.40777142
0
ARC
8
BLACK
10
96.4242119999999971
20
-58.5957879999999989
40
0.995301584890228
50
-213.40793092
51
-44.99987788
0
ARC
8
BLACK
10
58.5957859999999968
20
-61.4242139999999992
40
0.9953014901274889
50
-44.99995929
51
123.40777142
0
ARC
8
BLACK
10
61.4242119999999971
20
-58.5957879999999989
40
0.995301584890228
50
-213.40793092
51
-44.99987788
0
ARC
8
BLACK
10
73.5757880000000029
20
-41.4042120000000011
40
0.995301584890228
50
-33.40793092
51
135.00012212
0
ARC
8
BLACK
10
76.4042139999999961
20
-38.5757860000000008
40
0.9953014901274889
50
-224.99995929
51
-56.59222858
0
ARC
8
BLACK
10
73.5757859999999937
20
-58.5957859999999968
40
0.9953014901274889
50
-134.99995929
51
33.40777142
0
ARC
8
BLACK
10
76.4042120000000011
20
-61.4242119999999971
40
0.995301584890228
50
-303.40793092
51
-134.99987788
0
ARC
8
BLACK
10
93.5957879999999989
20
-38.5757879999999957
40
0.995301584890228
50
-123.40793092
51
45.00012212
0
ARC
8
BLACK
10
96.4242139999999921
20
-41.4042139999999961
40
0.9953014901274889
50
-314.99995929
51
-146.59222858
0
ARC
8
BLACK
10
58.5957879999999989
20
-38.5757879999999957
40
0.995301584890228
50
-123.40793092
51
45.00012212
0
ARC
8
BLACK
10
61.4242139999999992
20
-41.4042139999999961
40
0.9953014901274889
50
-314.99995929
51
-146.59222858
0
LINE
8
BLACK
6
CONTINUOUS
10
38.9249999999999972
20
-48.7749999999999986
11
39.2250000000000014
21
-49.0749999999999957
0
LINE
8
BLACK
6
CONTINUOUS
10
39.2250000000000014
20
-48.7749999999999986
11
38.9249999999999972
21
-49.0749999999999957
0
LINE
8
BLACK
6
CONTINUOUS
10
38.9249999999999972
20
-51.7749999999999986
11
39.2250000000000014
21
-52.0749999999999957
0
LINE
8
BLACK
6
CONTINUOUS
10
39.2250000000000014
20
-51.7749999999999986
11
38.9249999999999972
21
-52.0749999999999957
0
LINE
8
BLACK
6
CONTINUOUS
10
40.4249999999999972
20
-44.2749999999999986
11
40.7250000000000014
21
-44.5749999999999957
0
LINE
8
BLACK
6
CONTINUOUS
10
40.7250000000000014
20
-44.2749999999999986
11
40.4249999999999972
21
-44.5749999999999957
0
LINE
8
BLACK
6
CONTINUOUS
10
40.4249999999999972
20
-45.7749999999999986
11
40.7250000000000014
21
-46.0749999999999957
0
LINE
8
BLACK
6
CONTINUOUS
10
40.7250000000000014
20
-45.7749999999999986
11
40.4249999999999972
21
-46.0749999999999957
0
LINE
8
BLACK
6
CONTINUOUS
10
40.4249999999999972
20
-47.2749999999999986
11
40.7250000000000014
21
-47.5749999999999957
0
LINE
8
BLACK
6
CONTINUOUS
10
40.7250000000000014
20
-47.2749999999999986
11
40.4249999999999972
21
-47.5749999999999957
0
LINE
8
BLACK
6
CONTINUOUS
10
40.4249999999999972
20
-53.2749999999999986
11
40.7250000000000014
21
-53.5749999999999957
0
LINE
8
BLACK
6
CONTINUOUS
10
40.7250000000000014
20
-53.2749999999999986
11
40.4249999999999972
21
-53.5749999999999957
0
LINE
8
BLACK
6
CONTINUOUS
10
40.4249999999999972
20
-54.7749999999999986
11
40.7250000000000014
21
-55.0749999999999957
0
LINE
8
BLACK
6
CONTINUOUS
10
40.7250000000000014
20
-54.7749999999999986
11
40.4249999999999972
21
-55.0749999999999957
0
LINE
8
BLACK
6
CONTINUOUS
10
40.4249999999999972
20
-56.2749999999999986
11
40.7250000000000014
21
-56.5749999999999957
0
LINE
8
BLACK
6
CONTINUOUS
10
40.7250000000000014
20
-56.2749999999999986
11
40.4249999999999972
21
-56.5749999999999957
0
LINE
8
BLACK
6
CONTINUOUS
10
41.2749999999999986
20
-43.4249999999999972
11
41.5749999999999957
21
-43.7250000000000014
0
LINE
8
BLACK
6
CONTINUOUS
10
41.5749999999999957
20
-43.4249999999999972
11
41.2749999999999986
21
-43.7250000000000014
0
LINE
8
BLACK
6
CONTINUOUS
10
41.2749999999999986
20
-55.4249999999999972
11
41.5749999999999957
21
-55.7249999999999943
0
LINE
8
BLACK
6
CONTINUOUS
10
41.5749999999999957
20
-55.4249999999999972
11
41.2749999999999986
21
-55.7249999999999943
0
LINE
8
BLACK
6
CONTINUOUS
10
41.9249999999999972
20
-42.7749999999999986
11
42.2250000000000014
21
-43.0749999999999957
0
LINE
8
BLACK
6
CONTINUOUS
10
42.2250000000000014
20
-42.7749999999999986
11
41.9249999999999972
21
-43.0749999999999957
0
LINE
8
BLACK
6
CONTINUOUS
10
41.9249999999999972
20
-50.2749999999999986
11
42.2250000000000014
21
-50.5749999999999957
0
LINE
8
BLACK
6
CONTINUOUS
10
42.2250000000000014
20
-50.2749999999999986
11
41.9249999999999972
21
-50.5749999999999957
0
LINE
8
BLACK
6
CONTINUOUS
10
41.9249999999999972
20
-57.7749999999999986
11
42.2250000000000014
21
-58.0749999999999957
0
LINE
8
BLACK
6
CONTINUOUS
10
42.2250000000000014
20
-57.7749999999999986
11
41.9249999999999972
21
-58.0749999999999957
0
LINE
8
BLACK
6
CONTINUOUS
10
42.7749999999999986
20
-56.9249999999999972
11
43.0749999999999957
21
-57.2249999999999943
0
LINE
8
BLACK
6
CONTINUOUS
10
43.0749999999999957
20
-56.9249999999999972
11
42.7749999999999986
21
-57.2249999999999943
0
LINE
8
BLACK
6
CONTINUOUS
10
43.4249999999999972
20
-41.2749999999999986
11
43.7250000000000014
21
-41.5749999999999957
0
LINE
8
BLACK
6
CONTINUOUS
10
43.7250000000000014
20
-41.2749999999999986
11
43.4249999999999972
21
-41.5749999999999957
0
LINE
8
BLACK
6
CONTINUOUS
10
43.4249999999999972
20
-59.2749999999999986
11
43.7250000000000014
21
-59.5749999999999957
0
LINE
8
BLACK
6
CONTINUOUS
10
43.7250000000000014
20
-59.2749999999999986
11
43.4249999999999972
21
-59.5749999999999957
0
LINE
8
BLACK
6
CONTINUOUS
10
44.2749999999999986
20
-40.4249999999999972
11
44.5749999999999957
21
-40.7250000000000014
0
LINE
8
BLACK
6
CONTINUOUS
10
44.5749999999999957
20
-40.4249999999999972
11
44.2749999999999986
21
-40.7250000000000014
0
LINE
8
BLACK
6
CONTINUOUS
10
44.2749999999999986
20
-58.4249999999999972
11
44.5749999999999957
21
-58.7249999999999943
0
LINE
8
BLACK
6
CONTINUOUS
10
44.5749999999999957
20
-58.4249999999999972
11
44.2749999999999986
21
-58.7249999999999943
0
LINE
8
BLACK
6
CONTINUOUS
10
46.4249999999999972
20
-39.7749999999999986
11
46.7250000000000014
21
-40.0749999999999957
0
LINE
8
BLACK
6
CONTINUOUS
10
46.7250000000000014
20
-39.7749999999999986
11
46.4249999999999972
21
-40.0749999999999957
0
LINE
8
BLACK
6
CONTINUOUS
10
46.4249999999999972
20
-60.7749999999999986
11
46.7250000000000014
21
-61.0749999999999957
0
LINE
8
BLACK
6
CONTINUOUS
10
46.7250000000000014
20
-60.7749999999999986
11
46.4249999999999972
21
-61.0749999999999957
0
LINE
8
BLACK
6
CONTINUOUS
10
47.2749999999999986
20
-38.9249999999999972
11
47.5749999999999957
21
-39.2250000000000014
0
LINE
8
BLACK
6
CONTINUOUS
10
47.5749999999999957
20
-38.9249999999999972
11
47.2749999999999986
21
-39.2250000000000014
0
LINE
8
BLACK
6
CONTINUOUS
10
47.2749999999999986
20
-59.9249999999999972
11
47.5749999999999957
21
-60.2249999999999943
0
LINE
8
BLACK
6
CONTINUOUS
10
47.5749999999999957
20
-59.9249999999999972
11
47.2749999999999986
21
-60.2249999999999943
0
LINE
8
BLACK
6
CONTINUOUS
10
50.9249999999999972
20
-39.7749999999999986
11
51.2249999999999943
21
-40.0749999999999957
0
LINE
8
BLACK
6
CONTINUOUS
10
51.2249999999999943
20
-39.7749999999999986
11
50.9249999999999972
21
-40.0749999999999957
0
LINE
8
BLACK
6
CONTINUOUS
10
51.6749999999999972
20
-38.9249999999999972
11
51.9749999999999943
21
-39.2250000000000014
0
LINE
8
BLACK
6
CONTINUOUS
10
51.9749999999999943
20
-38.9249999999999972
11
51.6749999999999972
21
-39.2250000000000014
0
LINE
8
BLACK
6
CONTINUOUS
10
52.4249999999999972
20
-60.7749999999999986
11
52.7249999999999943
21
-61.0749999999999957
0
LINE
8
BLACK
6
CONTINUOUS
10
52.7249999999999943
20
-60.7749999999999986
11
52.4249999999999972
21
-61.0749999999999957
0
LINE
8
BLACK
6
CONTINUOUS
10
53.1749999999999972
20
-39.7749999999999986
11
53.4749999999999943
21
-40.0749999999999957
0
LINE
8
BLACK
6
CONTINUOUS
10
53.4749999999999943
20
-39.7749999999999986
11
53.1749999999999972
21
-40.0749999999999957
0
LINE
8
BLACK
6
CONTINUOUS
10
53.2749999999999986
20
-59.9249999999999972
11
53.5749999999999957
21
-60.2249999999999943
0
LINE
8
BLACK
6
CONTINUOUS
10
53.5749999999999957
20
-59.9249999999999972
11
53.2749999999999986
21
-60.2249999999999943
0
LINE
8
BLACK
6
CONTINUOUS
10
55.4249999999999972
20
-41.2749999999999986
11
55.7249999999999943
21
-41.5749999999999957
0
LINE
8
BLACK
6
CONTINUOUS
10
55.7249999999999943
20
-41.2749999999999986
11
55.4249999999999972
21
-41.5749999999999957
0
LINE
8
BLACK
6
CONTINUOUS
10
55.4249999999999972
20
-59.2749999999999986
11
55.7249999999999943
21
-59.5749999999999957
0
LINE
8
BLACK
6
CONTINUOUS
10
55.7249999999999943
20
-59.2749999999999986
11
55.4249999999999972
21
-59.5749999999999957
0
LINE
8
BLACK
6
CONTINUOUS
10
56.2749999999999986
20
-40.4249999999999972
11
56.5749999999999957
21
-40.7250000000000014
0
LINE
8
BLACK
6
CONTINUOUS
10
56.5749999999999957
20
-40.4249999999999972
11
56.2749999999999986
21
-40.7250000000000014
0
LINE
8
BLACK
6
CONTINUOUS
10
56.2749999999999986
20
-43.4249999999999972
11
56.5749999999999957
21
-43.7250000000000014
0
LINE
8
BLACK
6
CONTINUOUS
10
56.5749999999999957
20
-43.4249999999999972
11
56.2749999999999986
21
-43.7250000000000014
0
LINE
8
BLACK
6
CONTINUOUS
10
56.2749999999999986
20
-58.4249999999999972
11
56.5749999999999957
21
-58.7249999999999943
0
LINE
8
BLACK
6
CONTINUOUS
10
56.5749999999999957
20
-58.4249999999999972
11
56.2749999999999986
21
-58.7249999999999943
0
LINE
8
BLACK
6
CONTINUOUS
10
56.9249999999999972
20
-47.2749999999999986
11
57.2249999999999943
21
-47.5749999999999957
0
LINE
8
BLACK
6
CONTINUOUS
10
57.2249999999999943
20
-47.2749999999999986
11
56.9249999999999972
21
-47.5749999999999957
0
LINE
8
BLACK
6
CONTINUOUS
10
56.9249999999999972
20
-54.7749999999999986
11
57.2249999999999943
21
-55.0749999999999957
0
LINE
8
BLACK
6
CONTINUOUS
10
57.2249999999999943
20
-54.7749999999999986
11
56.9249999999999972
21
-55.0749999999999957
0
LINE
8
BLACK
6
CONTINUOUS
10
57.7749999999999986
20
-41.9249999999999972
11
58.0749999999999957
21
-42.2250000000000014
0
LINE
8
BLACK
6
CONTINUOUS
10
58.0749999999999957
20
-41.9249999999999972
11
57.7749999999999986
21
-42.2250000000000014
0
LINE
8
BLACK
6
CONTINUOUS
10
58.4249999999999972
20
-44.2749999999999986
11
58.7249999999999943
21
-44.5749999999999957
0
LINE
8
BLACK
6
CONTINUOUS
10
58.7249999999999943
20
-44.2749999999999986
11
58.4249999999999972
21
-44.5749999999999957
0
LINE
8
BLACK
6
CONTINUOUS
10
58.4249999999999972
20
-45.7749999999999986
11
58.7249999999999943
21
-46.0749999999999957
0
LINE
8
BLACK
6
CONTINUOUS
10
58.7249999999999943
20
-45.7749999999999986
11
58.4249999999999972
21
-46.0749999999999957
0
LINE
8
BLACK
6
CONTINUOUS
10
58.4249999999999972
20
-48.7749999999999986
11
58.7249999999999943
21
-49.0749999999999957
0
LINE
8
BLACK
6
CONTINUOUS
10
58.7249999999999943
20
-48.7749999999999986
11
58.4249999999999972
21
-49.0749999999999957
0
LINE
8
BLACK
6
CONTINUOUS
10
58.4249999999999972
20
-50.2749999999999986
11
58.7249999999999943
21
-50.5749999999999957
0
LINE
8
BLACK
6
CONTINUOUS
10
58.7249999999999943
20
-50.2749999999999986
11
58.4249999999999972
21
-50.5749999999999957
0
LINE
8
BLACK
6
CONTINUOUS
10
58.4249999999999972
20
-53.2749999999999986
11
58.7249999999999943
21
-53.5749999999999957
0
LINE
8
BLACK
6
CONTINUOUS
10
58.7249999999999943
20
-53.2749999999999986
11
58.4249999999999972
21
-53.5749999999999957
0
LINE
8
BLACK
6
CONTINUOUS
10
58.4249999999999972
20
-56.2749999999999986
11
58.7249999999999943
21
-56.5749999999999957
0
LINE
8
BLACK
6
CONTINUOUS
10
58.7249999999999943
20
-56.2749999999999986
11
58.4249999999999972
21
-56.5749999999999957
0
LINE
8
BLACK
6
CONTINUOUS
10
59.9249999999999972
20
-51.7749999999999986
11
60.2249999999999943
21
-52.0749999999999957
0
LINE
8
BLACK
6
CONTINUOUS
10
60.2249999999999943
20
-51.7749999999999986
11
59.9249999999999972
21
-52.0749999999999957
0
LINE
8
BLACK
6
CONTINUOUS
10
73.6700000000000017
20
-52.9499999999999957
11
73.9699999999999989
21
-53.25
0
LINE
8
BLACK
6
CONTINUOUS
10
73.9699999999999989
20
-52.9499999999999957
11
73.6700000000000017
21
-53.25
0
LINE
8
BLACK
6
CONTINUOUS
10
74.7000000000000028
20
-43.6499999999999986
11
75.
21
-43.9499999999999957
0
LINE
8
BLACK
6
CONTINUOUS
10
75.
20
-43.6499999999999986
11
74.7000000000000028
21
-43.9499999999999957
0
LINE
8
BLACK
6
CONTINUOUS
10
76.1850000000000023
20
-47.4499999999999957
11
76.4849999999999994
21
-47.75
0
LINE
8
BLACK
6
CONTINUOUS
10
76.4849999999999994
20
-47.4499999999999957
11
76.1850000000000023
21
-47.75
0
LINE
8
BLACK
6
CONTINUOUS
10
76.1850000000000023
20
-55.8499999999999943
11
76.4849999999999994
21
-56.1499999999999986
0
LINE
8
BLACK
6
CONTINUOUS
10
76.4849999999999994
20
-55.8499999999999943
11
76.1850000000000023
21
-56.1499999999999986
0
LINE
8
BLACK
6
CONTINUOUS
10
76.2000000000000028
20
-45.6999999999999957
11
76.5
21
-46.
0
LINE
8
BLACK
6
CONTINUOUS
10
76.5
20
-45.6999999999999957
11
76.2000000000000028
21
-46.
0
LINE
8
BLACK
6
CONTINUOUS
10
76.3999999999999915
20
-43.6499999999999986
11
76.7000000000000028
21
-43.9499999999999957
0
LINE
8
BLACK
6
CONTINUOUS
10
76.7000000000000028
20
-43.6499999999999986
11
76.3999999999999915
21
-43.9499999999999957
0
LINE
8
BLACK
6
CONTINUOUS
10
78.6499999999999915
20
-57.0499999999999972
11
78.9500000000000028
21
-57.3499999999999943
0
LINE
8
BLACK
6
CONTINUOUS
10
78.9500000000000028
20
-57.0499999999999972
11
78.6499999999999915
21
-57.3499999999999943
0
LINE
8
BLACK
6
CONTINUOUS
10
78.8999999999999915
20
-44.8999999999999986
11
79.2000000000000028
21
-45.1999999999999957
0
LINE
8
BLACK
6
CONTINUOUS
10
79.2000000000000028
20
-44.8999999999999986
11
78.8999999999999915
21
-45.1999999999999957
0
LINE
8
BLACK
6
CONTINUOUS
10
78.8999999999999915
20
-54.7999999999999972
11
79.2000000000000028
21
-55.0999999999999943
0
LINE
8
BLACK
6
CONTINUOUS
10
79.2000000000000028
20
-54.7999999999999972
11
78.8999999999999915
21
-55.0999999999999943
0
LINE
8
BLACK
6
CONTINUOUS
10
78.9500000000000028
20
-52.25
11
79.25
21
-52.5499999999999972
0
LINE
8
BLACK
6
CONTINUOUS
10
79.25
20
-52.25
11
78.9500000000000028
21
-52.5499999999999972
0
LINE
8
BLACK
6
CONTINUOUS
10
78.9500000000000028
20
-53.0499999999999972
11
79.25
21
-53.3499999999999943
0
LINE
8
BLACK
6
CONTINUOUS
10
79.25
20
-53.0499999999999972
11
78.9500000000000028
21
-53.3499999999999943
0
LINE
8
BLACK
6
CONTINUOUS
10
80.4500000000000028
20
-49.8499999999999943
11
80.75
21
-50.1499999999999986
0
LINE
8
BLACK
6
CONTINUOUS
10
80.75
20
-49.8499999999999943
11
80.4500000000000028
21
-50.1499999999999986
0
LINE
8
BLACK
6
CONTINUOUS
10
81.3499999999999943
20
-47.6499999999999986
11
81.6499999999999915
21
-47.9499999999999957
0
LINE
8
BLACK
6
CONTINUOUS
10
81.6499999999999915
20
-47.6499999999999986
11
81.3499999999999943
21
-47.9499999999999957
0
LINE
8
BLACK
6
CONTINUOUS
10
81.3499999999999943
20
-48.8299999999999983
11
81.6499999999999915
21
-49.1299999999999955
0
LINE
8
BLACK
6
CONTINUOUS
10
81.6499999999999915
20
-48.8299999999999983
11
81.3499999999999943
21
-49.1299999999999955
0
LINE
8
BLACK
6
CONTINUOUS
10
81.6499999999999915
20
-56.8399999999999963
11
81.9500000000000028
21
-57.1400000000000006
0
LINE
8
BLACK
6
CONTINUOUS
10
81.9500000000000028
20
-56.8399999999999963
11
81.6499999999999915
21
-57.1400000000000006
0
LINE
8
BLACK
6
CONTINUOUS
10
81.6700000000000017
20
-59.3499999999999943
11
81.9699999999999989
21
-59.6499999999999986
0
LINE
8
BLACK
6
CONTINUOUS
10
81.9699999999999989
20
-59.3499999999999943
11
81.6700000000000017
21
-59.6499999999999986
0
LINE
8
BLACK
6
CONTINUOUS
10
81.6700000000000017
20
-61.75
11
81.9699999999999989
21
-62.0499999999999972
0
LINE
8
BLACK
6
CONTINUOUS
10
81.9699999999999989
20
-61.75
11
81.6700000000000017
21
-62.0499999999999972
0
LINE
8
BLACK
6
CONTINUOUS
10
82.4500000000000028
20
-56.8399999999999963
11
82.75
21
-57.1400000000000006
0
LINE
8
BLACK
6
CONTINUOUS
10
82.75
20
-56.8399999999999963
11
82.4500000000000028
21
-57.1400000000000006
0
LINE
8
BLACK
6
CONTINUOUS
10
82.5499999999999972
20
-50.8499999999999943
11
82.8499999999999943
21
-51.1499999999999986
0
LINE
8
BLACK
6
CONTINUOUS
10
82.8499999999999943
20
-50.8499999999999943
11
82.5499999999999972
21
-51.1499999999999986
0
LINE
8
BLACK
6
CONTINUOUS
10
83.8499999999999943
20
-49.8499999999999943
11
84.1499999999999915
21
-50.1499999999999986
0
LINE
8
BLACK
6
CONTINUOUS
10
84.1499999999999915
20
-49.8499999999999943
11
83.8499999999999943
21
-50.1499999999999986
0
LINE
8
BLACK
6
CONTINUOUS
10
83.8999999999999915
20
-61.4874999999999972
11
84.2000000000000028
21
-61.7874999999999943
0
LINE
8
BLACK
6
CONTINUOUS
10
84.2000000000000028
20
-61.4874999999999972
11
83.8999999999999915
21
-61.7874999999999943
0
LINE
8
BLACK
6
CONTINUOUS
10
84.8499999999999943
20
-49.0499999999999972
11
85.1499999999999915
21
-49.3499999999999943
0
LINE
8
BLACK
6
CONTINUOUS
10
85.1499999999999915
20
-49.0499999999999972
11
84.8499999999999943
21
-49.3499999999999943
0
LINE
8
BLACK
6
CONTINUOUS
10
84.8499999999999943
20
-50.6499999999999986
11
85.1499999999999915
21
-50.9499999999999957
0
LINE
8
BLACK
6
CONTINUOUS
10
85.1499999999999915
20
-50.6499999999999986
11
84.8499999999999943
21
-50.9499999999999957
0
LINE
8
BLACK
6
CONTINUOUS
10
84.8499999999999943
20
-58.9124999999999943
11
85.1499999999999915
21
-59.2124999999999986
0
LINE
8
BLACK
6
CONTINUOUS
10
85.1499999999999915
20
-58.9124999999999943
11
84.8499999999999943
21
-59.2124999999999986
0
LINE
8
BLACK
6
CONTINUOUS
10
85.5300000000000011
20
-52.5499999999999972
11
85.8299999999999983
21
-52.8499999999999943
0
LINE
8
BLACK
6
CONTINUOUS
10
85.8299999999999983
20
-52.5499999999999972
11
85.5300000000000011
21
-52.8499999999999943
0
LINE
8
BLACK
6
CONTINUOUS
10
85.8499999999999943
20
-49.8499999999999943
11
86.1499999999999915
21
-50.1499999999999986
0
LINE
8
BLACK
6
CONTINUOUS
10
86.1499999999999915
20
-49.8499999999999943
11
85.8499999999999943
21
-50.1499999999999986
0
LINE
8
BLACK
6
CONTINUOUS
10
86.8250000000000028
20
-49.8499999999999943
11
87.125
21
-50.1499999999999986
0
LINE
8
BLACK
6
CONTINUOUS
10
87.125
20
-49.8499999999999943
11
86.8250000000000028
21
-50.1499999999999986
0
LINE
8
BLACK
6
CONTINUOUS
10
87.25
20
-56.8399999999999963
11
87.5499999999999972
21
-57.1400000000000006
0
LINE
8
BLACK
6
CONTINUOUS
10
87.5499999999999972
20
-56.8399999999999963
11
87.25
21
-57.1400000000000006
0
LINE
8
BLACK
6
CONTINUOUS
10
87.3499999999999943
20
-53.5499999999999972
11
87.6499999999999915
21
-53.8499999999999943
0
LINE
8
BLACK
6
CONTINUOUS
10
87.6499999999999915
20
-53.5499999999999972
11
87.3499999999999943
21
-53.8499999999999943
0
LINE
8
BLACK
6
CONTINUOUS
10
88.0499999999999972
20
-54.75
11
88.3499999999999943
21
-55.0499999999999972
0
LINE
8
BLACK
6
CONTINUOUS
10
88.3499999999999943
20
-54.75
11
88.0499999999999972
21
-55.0499999999999972
0
LINE
8
BLACK
6
CONTINUOUS
10
88.0499999999999972
20
-56.8399999999999963
11
88.3499999999999943
21
-57.1400000000000006
0
LINE
8
BLACK
6
CONTINUOUS
10
88.3499999999999943
20
-56.8399999999999963
11
88.0499999999999972
21
-57.1400000000000006
0
LINE
8
BLACK
6
CONTINUOUS
10
88.3499999999999943
20
-47.9399999999999977
11
88.6499999999999915
21
-48.2399999999999949
0
LINE
8
BLACK
6
CONTINUOUS
10
88.6499999999999915
20
-47.9399999999999977
11
88.3499999999999943
21
-48.2399999999999949
0
LINE
8
BLACK
6
CONTINUOUS
10
88.3499999999999943
20
-48.9600000000000009
11
88.6499999999999915
21
-49.259999999999998
0
LINE
8
BLACK
6
CONTINUOUS
10
88.6499999999999915
20
-48.9600000000000009
11
88.3499999999999943
21
-49.259999999999998
0
LINE
8
BLACK
6
CONTINUOUS
10
88.6499999999999915
20
-53.9499999999999957
11
88.9500000000000028
21
-54.25
0
LINE
8
BLACK
6
CONTINUOUS
10
88.9500000000000028
20
-53.9499999999999957
11
88.6499999999999915
21
-54.25
0
LINE
8
BLACK
6
CONTINUOUS
10
88.8499999999999943
20
-46.0499999999999972
11
89.1499999999999915
21
-46.3500000000000014
0
LINE
8
BLACK
6
CONTINUOUS
10
89.1499999999999915
20
-46.0499999999999972
11
88.8499999999999943
21
-46.3500000000000014
0
LINE
8
BLACK
6
CONTINUOUS
10
88.8499999999999943
20
-53.1681989999999942
11
89.1499999999999915
21
-53.4681989999999985
0
LINE
8
BLACK
6
CONTINUOUS
10
89.1499999999999915
20
-53.1681989999999942
11
88.8499999999999943
21
-53.4681989999999985
0
LINE
8
BLACK
6
CONTINUOUS
10
89.039999999999992
20
-47.3099999999999952
11
89.3399999999999892
21
-47.6099999999999994
0
LINE
8
BLACK
6
CONTINUOUS
10
89.3399999999999892
20
-47.3099999999999952
11
89.039999999999992
21
-47.6099999999999994
0
LINE
8
BLACK
6
CONTINUOUS
10
89.3499999999999943
20
-48.9600000000000009
11
89.6499999999999915
21
-49.259999999999998
0
LINE
8
BLACK
6
CONTINUOUS
10
89.6499999999999915
20
-48.9600000000000009
11
89.3499999999999943
21
-49.259999999999998
0
LINE
8
BLACK
6
CONTINUOUS
10
90.75
20
-47.4499999999999957
11
91.0499999999999972
21
-47.75
0
LINE
8
BLACK
6
CONTINUOUS
10
91.0499999999999972
20
-47.4499999999999957
11
90.75
21
-47.75
0
LINE
8
BLACK
6
CONTINUOUS
10
90.7999999999999972
20
-44.8999999999999986
11
91.0999999999999943
21
-45.1999999999999957
0
LINE
8
BLACK
6
CONTINUOUS
10
91.0999999999999943
20
-44.8999999999999986
11
90.7999999999999972
21
-45.1999999999999957
0
LINE
8
BLACK
6
CONTINUOUS
10
91.0499999999999972
20
-56.1499999999999986
11
91.3499999999999943
21
-56.4499999999999957
0
LINE
8
BLACK
6
CONTINUOUS
10
91.3499999999999943
20
-56.1499999999999986
11
91.0499999999999972
21
-56.4499999999999957
0
LINE
8
BLACK
6
CONTINUOUS
10
91.8499999999999943
20
-51.9499999999999957
11
92.1499999999999915
21
-52.25
0
LINE
8
BLACK
6
CONTINUOUS
10
92.1499999999999915
20
-51.9499999999999957
11
91.8499999999999943
21
-52.25
0
LINE
8
BLACK
6
CONTINUOUS
10
92.1499999999999915
20
-42.769999999999996
11
92.4500000000000028
21
-43.0700000000000003
0
LINE
8
BLACK
6
CONTINUOUS
10
92.4500000000000028
20
-42.769999999999996
11
92.1499999999999915
21
-43.0700000000000003
0
LINE
8
BLACK
6
CONTINUOUS
10
92.1499999999999915
20
-43.7299999999999969
11
92.4500000000000028
21
-44.0300000000000011
0
LINE
8
BLACK
6
CONTINUOUS
10
92.4500000000000028
20
-43.7299999999999969
11
92.1499999999999915
21
-44.0300000000000011
0
LINE
8
BLACK
6
CONTINUOUS
10
94.1499999999999915
20
-49.75
11
94.4499999999999886
21
-50.0499999999999972
0
LINE
8
BLACK
6
CONTINUOUS
10
94.4499999999999886
20
-49.75
11
94.1499999999999915
21
-50.0499999999999972
0
LINE
8
BLACK
6
CONTINUOUS
10
94.3999999999999915
20
-54.3499999999999943
11
94.6999999999999886
21
-54.6499999999999986
0
LINE
8
BLACK
6
CONTINUOUS
10
94.6999999999999886
20
-54.3499999999999943
11
94.3999999999999915
21
-54.6499999999999986
0
LINE
8
BLACK
6
CONTINUOUS
10
95.1850000000000023
20
-48.0499999999999972
11
95.4849999999999994
21
-48.3499999999999943
0
LINE
8
BLACK
6
CONTINUOUS
10
95.4849999999999994
20
-48.0499999999999972
11
95.1850000000000023
21
-48.3499999999999943
0
LINE
8
BLACK
6
CONTINUOUS
10
95.1850000000000023
20
-51.6499999999999986
11
95.4849999999999994
21
-51.9499999999999957
0
LINE
8
BLACK
6
CONTINUOUS
10
95.4849999999999994
20
-51.6499999999999986
11
95.1850000000000023
21
-51.9499999999999957
0
CIRCLE
8
BLACK
10
80.6799999999999926
20
-57.5899999999999963
40
0.3
0
LINE
8
BLACK
6
CONTINUOUS
10
80.3799999999999955
20
-57.0399999999999991
11
80.3799999999999955
21
-58.1400000000000006
0
ARC
8
BLACK
10
80.6799999999999926
20
-58.1400000000000006
40
0.3
50
-180.00000000
51
0.00000000
0
LINE
8
BLACK
6
CONTINUOUS
10
80.9799999999999898
20
-58.1400000000000006
11
80.9799999999999898
21
-57.0399999999999991
0
ARC
8
BLACK
10
80.6799999999999926
20
-57.0399999999999991
40
0.3
50
0.00000000
51
180.00000000
0
CIRCLE
8
BLACK
10
80.6799999999999926
20
-61.769999999999996
40
0.3
0
LINE
8
BLACK
6
CONTINUOUS
10
80.3799999999999955
20
-61.4699999999999989
11
80.3799999999999955
21
-62.0700000000000003
0
ARC
8
BLACK
10
80.6799999999999926
20
-62.0700000000000003
40
0.3
50
-180.00000000
51
0.00000000
0
LINE
8
BLACK
6
CONTINUOUS
10
80.9799999999999898
20
-62.0700000000000003
11
80.9799999999999898
21
-61.4699999999999989
0
ARC
8
BLACK
10
80.6799999999999926
20
-61.4699999999999989
40
0.3
50
0.00000000
51
180.00000000
0
CIRCLE
8
BLACK
10
89.3199999999999932
20
-57.5899999999999963
40
0.3
0
LINE
8
BLACK
6
CONTINUOUS
10
89.019999999999996
20
-57.0399999999999991
11
89.019999999999996
21
-58.1400000000000006
0
ARC
8
BLACK
10
89.3199999999999932
20
-58.1400000000000006
40
0.3
50
-180.00000000
51
0.00000000
0
LINE
8
BLACK
6
CONTINUOUS
10
89.6199999999999903
20
-58.1400000000000006
11
89.6199999999999903
21
-57.0399999999999991
0
ARC
8
BLACK
10
89.3199999999999932
20
-57.0399999999999991
40
0.3
50
0.00000000
51
180.00000000
0
CIRCLE
8
BLACK
10
89.3199999999999932
20
-61.769999999999996
40
0.3
0
LINE
8
BLACK
6
CONTINUOUS
10
89.019999999999996
20
-61.4699999999999989
11
89.019999999999996
21
-62.0700000000000003
0
ARC
8
BLACK
10
89.3199999999999932
20
-62.0700000000000003
40
0.3
50
-180.00000000
51
0.00000000
0
LINE
8
BLACK
6
CONTINUOUS
10
89.6199999999999903
20
-62.0700000000000003
11
89.6199999999999903
21
-61.4699999999999989
0
ARC
8
BLACK
10
89.3199999999999932
20
-61.4699999999999989
40
0.3
50
0.00000000
51
180.00000000
0
LINE
8
BLACK
6
CONTINUOUS
10
33.6827679999999958
20
-74.1398379999999975
11
33.6827679999999958
21
-72.1398379999999975
0
LINE
8
BLACK
6
CONTINUOUS
10
33.6827679999999958
20
-72.1398379999999975
11
34.1589579999999984
21
-72.1398379999999975
0
LINE
8
BLACK
6
CONTINUOUS
10
34.1589579999999984
20
-72.1398379999999975
11
34.4446730000000017
21
-72.2350759999999923
0
LINE
8
BLACK
6
CONTINUOUS
10
34.4446730000000017
20
-72.2350759999999923
11
34.6351489999999984
21
-72.4255519999999962
0
LINE
8
BLACK
6
CONTINUOUS
10
34.6351489999999984
20
-72.4255519999999962
11
34.7303870000000003
21
-72.616028
0
LINE
8
BLACK
6
CONTINUOUS
10
34.7303870000000003
20
-72.616028
11
34.8256249999999952
21
-72.9969799999999935
0
LINE
8
BLACK
6
CONTINUOUS
10
34.8256249999999952
20
-72.9969799999999935
11
34.8256249999999952
21
-73.2826949999999897
0
LINE
8
BLACK
6
CONTINUOUS
10
34.8256249999999952
20
-73.2826949999999897
11
34.7303870000000003
21
-73.6636469999999974
0
LINE
8
BLACK
6
CONTINUOUS
10
34.7303870000000003
20
-73.6636469999999974
11
34.6351489999999984
21
-73.8541230000000013
0
LINE
8
BLACK
6
CONTINUOUS
10
34.6351489999999984
20
-73.8541230000000013
11
34.4446730000000017
21
-74.0446000000000026
0
LINE
8
BLACK
6
CONTINUOUS
10
34.4446730000000017
20
-74.0446000000000026
11
34.1589579999999984
21
-74.1398379999999975
0
LINE
8
BLACK
6
CONTINUOUS
10
34.1589579999999984
20
-74.1398379999999975
11
33.6827679999999958
21
-74.1398379999999975
0
LINE
8
BLACK
6
CONTINUOUS
10
35.6827679999999958
20
-74.1398379999999975
11
35.6827679999999958
21
-72.8065039999999897
0
LINE
8
BLACK
6
CONTINUOUS
10
35.6827679999999958
20
-73.1874569999999949
11
35.7780059999999978
21
-72.9969799999999935
0
LINE
8
BLACK
6
CONTINUOUS
10
35.7780059999999978
20
-72.9969799999999935
11
35.8732439999999997
21
-72.9017419999999987
0
LINE
8
BLACK
6
CONTINUOUS
10
35.8732439999999997
20
-72.9017419999999987
11
36.0637199999999964
21
-72.8065039999999897
0
LINE
8
BLACK
6
CONTINUOUS
10
36.0637199999999964
20
-72.8065039999999897
11
36.2541969999999978
21
-72.8065039999999897
0
LINE
8
BLACK
6
CONTINUOUS
10
36.9208629999999971
20
-74.1398379999999975
11
36.9208629999999971
21
-72.8065039999999897
0
LINE
8
BLACK
6
CONTINUOUS
10
36.9208629999999971
20
-72.1398379999999975
11
36.8256249999999952
21
-72.2350759999999923
0
LINE
8
BLACK
6
CONTINUOUS
10
36.8256249999999952
20
-72.2350759999999923
11
36.9208629999999971
21
-72.3303140000000013
0
LINE
8
BLACK
6
CONTINUOUS
10
36.9208629999999971
20
-72.3303140000000013
11
37.016100999999999
21
-72.2350759999999923
0
LINE
8
BLACK
6
CONTINUOUS
10
37.016100999999999
20
-72.2350759999999923
11
36.9208629999999971
21
-72.1398379999999975
0
LINE
8
BLACK
6
CONTINUOUS
10
36.9208629999999971
20
-72.1398379999999975
11
36.9208629999999971
21
-72.3303140000000013
0
LINE
8
BLACK
6
CONTINUOUS
10
38.1589579999999984
20
-74.1398379999999975
11
37.9684820000000016
21
-74.0446000000000026
0
LINE
8
BLACK
6
CONTINUOUS
10
37.9684820000000016
20
-74.0446000000000026
11
37.8732439999999997
21
-73.8541230000000013
0
LINE
8
BLACK
6
CONTINUOUS
10
37.8732439999999997
20
-73.8541230000000013
11
37.8732439999999997
21
-72.1398379999999975
0
LINE
8
BLACK
6
CONTINUOUS
10
39.2065769999999958
20
-74.1398379999999975
11
39.016100999999999
21
-74.0446000000000026
0
LINE
8
BLACK
6
CONTINUOUS
10
39.016100999999999
20
-74.0446000000000026
11
38.9208629999999971
21
-73.8541230000000013
0
LINE
8
BLACK
6
CONTINUOUS
10
38.9208629999999971
20
-73.8541230000000013
11
38.9208629999999971
21
-72.1398379999999975
0
LINE
8
BLACK
6
CONTINUOUS
10
41.4922919999999991
20
-74.1398379999999975
11
41.4922919999999991
21
-72.1398379999999975
0
LINE
8
BLACK
6
CONTINUOUS
10
41.4922919999999991
20
-72.1398379999999975
11
42.1589589999999959
21
-73.5684090000000026
0
LINE
8
BLACK
6
CONTINUOUS
10
42.1589589999999959
20
-73.5684090000000026
11
42.8256249999999952
21
-72.1398379999999975
0
LINE
8
BLACK
6
CONTINUOUS
10
42.8256249999999952
20
-72.1398379999999975
11
42.8256249999999952
21
-74.1398379999999975
0
LINE
8
BLACK
6
CONTINUOUS
10
44.6351489999999984
20
-74.1398379999999975
11
44.6351489999999984
21
-73.0922190000000001
0
LINE
8
BLACK
6
CONTINUOUS
10
44.6351489999999984
20
-73.0922190000000001
11
44.5399109999999965
21
-72.9017419999999987
0
LINE
8
BLACK
6
CONTINUOUS
10
44.5399109999999965
20
-72.9017419999999987
11
44.3494349999999997
21
-72.8065039999999897
0
LINE
8
BLACK
6
CONTINUOUS
10
44.3494349999999997
20
-72.8065039999999897
11
43.9684819999999945
21
-72.8065039999999897
0
LINE
8
BLACK
6
CONTINUOUS
10
43.9684819999999945
20
-72.8065039999999897
11
43.7780059999999978
21
-72.9017419999999987
0
LINE
8
BLACK
6
CONTINUOUS
10
44.6351489999999984
20
-74.0446000000000026
11
44.4446729999999945
21
-74.1398379999999975
0
LINE
8
BLACK
6
CONTINUOUS
10
44.4446729999999945
20
-74.1398379999999975
11
43.9684819999999945
21
-74.1398379999999975
0
LINE
8
BLACK
6
CONTINUOUS
10
43.9684819999999945
20
-74.1398379999999975
11
43.7780059999999978
21
-74.0446000000000026
0
LINE
8
BLACK
6
CONTINUOUS
10
43.7780059999999978
20
-74.0446000000000026
11
43.6827679999999958
21
-73.8541230000000013
0
LINE
8
BLACK
6
CONTINUOUS
10
43.6827679999999958
20
-73.8541230000000013
11
43.6827679999999958
21
-73.6636469999999974
0
LINE
8
BLACK
6
CONTINUOUS
10
43.6827679999999958
20
-73.6636469999999974
11
43.7780059999999978
21
-73.4731709999999936
0
LINE
8
BLACK
6
CONTINUOUS
10
43.7780059999999978
20
-73.4731709999999936
11
43.9684819999999945
21
-73.3779329999999987
0
LINE
8
BLACK
6
CONTINUOUS
10
43.9684819999999945
20
-73.3779329999999987
11
44.4446729999999945
21
-73.3779329999999987
0
LINE
8
BLACK
6
CONTINUOUS
10
44.4446729999999945
20
-73.3779329999999987
11
44.6351489999999984
21
-73.2826949999999897
0
LINE
8
BLACK
6
CONTINUOUS
10
45.587530000000001
20
-72.8065039999999897
11
45.587530000000001
21
-74.8065039999999897
0
LINE
8
BLACK
6
CONTINUOUS
10
45.587530000000001
20
-72.9017419999999987
11
45.7780059999999978
21
-72.8065039999999897
0
LINE
8
BLACK
6
CONTINUOUS
10
45.7780059999999978
20
-72.8065039999999897
11
46.1589589999999959
21
-72.8065039999999897
0
LINE
8
BLACK
6
CONTINUOUS
10
46.1589589999999959
20
-72.8065039999999897
11
46.3494349999999997
21
-72.9017419999999987
0
LINE
8
BLACK
6
CONTINUOUS
10
46.3494349999999997
20
-72.9017419999999987
11
46.4446729999999945
21
-72.9969799999999935
0
LINE
8
BLACK
6
CONTINUOUS
10
46.4446729999999945
20
-72.9969799999999935
11
46.5399109999999965
21
-73.1874569999999949
0
LINE
8
BLACK
6
CONTINUOUS
10
46.5399109999999965
20
-73.1874569999999949
11
46.5399109999999965
21
-73.7588849999999923
0
LINE
8
BLACK
6
CONTINUOUS
10
46.5399109999999965
20
-73.7588849999999923
11
46.4446729999999945
21
-73.9493609999999961
0
LINE
8
BLACK
6
CONTINUOUS
10
46.4446729999999945
20
-73.9493609999999961
11
46.3494349999999997
21
-74.0446000000000026
0
LINE
8
BLACK
6
CONTINUOUS
10
46.3494349999999997
20
-74.0446000000000026
11
46.1589589999999959
21
-74.1398379999999975
0
LINE
8
BLACK
6
CONTINUOUS
10
46.1589589999999959
20
-74.1398379999999975
11
45.7780059999999978
21
-74.1398379999999975
0
LINE
8
BLACK
6
CONTINUOUS
10
45.7780059999999978
20
-74.1398379999999975
11
45.587530000000001
21
-74.0446000000000026
0
LINE
8
BLACK
6
CONTINUOUS
10
47.3970539999999971
20
-73.9493609999999961
11
47.4922919999999991
21
-74.0446000000000026
0
LINE
8
BLACK
6
CONTINUOUS
10
47.4922919999999991
20
-74.0446000000000026
11
47.3970539999999971
21
-74.1398379999999975
0
LINE
8
BLACK
6
CONTINUOUS
10
47.3970539999999971
20
-74.1398379999999975
11
47.3018159999999952
21
-74.0446000000000026
0
LINE
8
BLACK
6
CONTINUOUS
10
47.3018159999999952
20
-74.0446000000000026
11
47.3970539999999971
21
-73.9493609999999961
0
LINE
8
BLACK
6
CONTINUOUS
10
47.3970539999999971
20
-73.9493609999999961
11
47.3970539999999971
21
-74.1398379999999975
0
LINE
8
BLACK
6
CONTINUOUS
10
47.3970539999999971
20
-72.9017419999999987
11
47.4922919999999991
21
-72.9969799999999935
0
LINE
8
BLACK
6
CONTINUOUS
10
47.4922919999999991
20
-72.9969799999999935
11
47.3970539999999971
21
-73.0922190000000001
0
LINE
8
BLACK
6
CONTINUOUS
10
47.3970539999999971
20
-73.0922190000000001
11
47.3018159999999952
21
-72.9969799999999935
0
LINE
8
BLACK
6
CONTINUOUS
10
47.3018159999999952
20
-72.9969799999999935
11
47.3970539999999971
21
-72.9017419999999987
0
LINE
8
BLACK
6
CONTINUOUS
10
47.3970539999999971
20
-72.9017419999999987
11
47.3970539999999971
21
-73.0922190000000001
0
LINE
8
BLACK
6
CONTINUOUS
10
30.7749999999999986
20
-77.2749999999999915
11
31.0749999999999993
21
-77.5750000000000028
0
LINE
8
BLACK
6
CONTINUOUS
10
31.0749999999999993
20
-77.2749999999999915
11
30.7749999999999986
21
-77.5750000000000028
0
LINE
8
BLACK
6
CONTINUOUS
10
34.0637199999999964
20
-76.3398380000000003
11
34.2541969999999978
21
-76.3398380000000003
0
LINE
8
BLACK
6
CONTINUOUS
10
34.2541969999999978
20
-76.3398380000000003
11
34.4446730000000017
21
-76.4350759999999951
0
LINE
8
BLACK
6
CONTINUOUS
10
34.4446730000000017
20
-76.4350759999999951
11
34.5399109999999965
21
-76.53031399999999
0
LINE
8
BLACK
6
CONTINUOUS
10
34.5399109999999965
20
-76.53031399999999
11
34.6351489999999984
21
-76.7207899999999938
0
LINE
8
BLACK
6
CONTINUOUS
10
34.6351489999999984
20
-76.7207899999999938
11
34.7303870000000003
21
-77.1017420000000016
0
LINE
8
BLACK
6
CONTINUOUS
10
34.7303870000000003
20
-77.1017420000000016
11
34.7303870000000003
21
-77.5779330000000016
0
LINE
8
BLACK
6
CONTINUOUS
10
34.7303870000000003
20
-77.5779330000000016
11
34.6351489999999984
21
-77.9588849999999951
0
LINE
8
BLACK
6
CONTINUOUS
10
34.6351489999999984
20
-77.9588849999999951
11
34.5399109999999965
21
-78.149360999999999
0
LINE
8
BLACK
6
CONTINUOUS
10
34.5399109999999965
20
-78.149360999999999
11
34.4446730000000017
21
-78.2445999999999913
0
LINE
8
BLACK
6
CONTINUOUS
10
34.4446730000000017
20
-78.2445999999999913
11
34.2541969999999978
21
-78.3398380000000003
0
LINE
8
BLACK
6
CONTINUOUS
10
34.2541969999999978
20
-78.3398380000000003
11
34.0637199999999964
21
-78.3398380000000003
0
LINE
8
BLACK
6
CONTINUOUS
10
34.0637199999999964
20
-78.3398380000000003
11
33.8732439999999997
21
-78.2445999999999913
0
LINE
8
BLACK
6
CONTINUOUS
10
33.8732439999999997
20
-78.2445999999999913
11
33.7780059999999978
21
-78.149360999999999
0
LINE
8
BLACK
6
CONTINUOUS
10
33.7780059999999978
20
-78.149360999999999
11
33.6827679999999958
21
-77.9588849999999951
0
LINE
8
BLACK
6
CONTINUOUS
10
33.6827679999999958
20
-77.9588849999999951
11
33.587530000000001
21
-77.5779330000000016
0
LINE
8
BLACK
6
CONTINUOUS
10
33.587530000000001
20
-77.5779330000000016
11
33.587530000000001
21
-77.1017420000000016
0
LINE
8
BLACK
6
CONTINUOUS
10
33.587530000000001
20
-77.1017420000000016
11
33.6827679999999958
21
-76.7207899999999938
0
LINE
8
BLACK
6
CONTINUOUS
10
33.6827679999999958
20
-76.7207899999999938
11
33.7780059999999978
21
-76.53031399999999
0
LINE
8
BLACK
6
CONTINUOUS
10
33.7780059999999978
20
-76.53031399999999
11
33.8732439999999997
21
-76.4350759999999951
0
LINE
8
BLACK
6
CONTINUOUS
10
33.8732439999999997
20
-76.4350759999999951
11
34.0637199999999964
21
-76.3398380000000003
0
LINE
8
BLACK
6
CONTINUOUS
10
35.587530000000001
20
-78.149360999999999
11
35.6827679999999958
21
-78.2445999999999913
0
LINE
8
BLACK
6
CONTINUOUS
10
35.6827679999999958
20
-78.2445999999999913
11
35.587530000000001
21
-78.3398380000000003
0
LINE
8
BLACK
6
CONTINUOUS
10
35.587530000000001
20
-78.3398380000000003
11
35.4922919999999991
21
-78.2445999999999913
0
LINE
8
BLACK
6
CONTINUOUS
10
35.4922919999999991
20
-78.2445999999999913
11
35.587530000000001
21
-78.149360999999999
0
LINE
8
BLACK
6
CONTINUOUS
10
35.587530000000001
20
-78.149360999999999
11
35.587530000000001
21
-78.3398380000000003
0
LINE
8
BLACK
6
CONTINUOUS
10
36.3494349999999997
20
-76.3398380000000003
11
37.587530000000001
21
-76.3398380000000003
0
LINE
8
BLACK
6
CONTINUOUS
10
37.587530000000001
20
-76.3398380000000003
11
36.9208629999999971
21
-77.1017420000000016
0
LINE
8
BLACK
6
CONTINUOUS
10
36.9208629999999971
20
-77.1017420000000016
11
37.2065780000000004
21
-77.1017420000000016
0
LINE
8
BLACK
6
CONTINUOUS
10
37.2065780000000004
20
-77.1017420000000016
11
37.3970539999999971
21
-77.1969799999999964
0
LINE
8
BLACK
6
CONTINUOUS
10
37.3970539999999971
20
-77.1969799999999964
11
37.4922919999999991
21
-77.2922190000000029
0
LINE
8
BLACK
6
CONTINUOUS
10
37.4922919999999991
20
-77.2922190000000029
11
37.587530000000001
21
-77.4826949999999925
0
LINE
8
BLACK
6
CONTINUOUS
10
37.587530000000001
20
-77.4826949999999925
11
37.587530000000001
21
-77.9588849999999951
0
LINE
8
BLACK
6
CONTINUOUS
10
37.587530000000001
20
-77.9588849999999951
11
37.4922919999999991
21
-78.149360999999999
0
LINE
8
BLACK
6
CONTINUOUS
10
37.4922919999999991
20
-78.149360999999999
11
37.3970539999999971
21
-78.2445999999999913
0
LINE
8
BLACK
6
CONTINUOUS
10
37.3970539999999971
20
-78.2445999999999913
11
37.2065780000000004
21
-78.3398380000000003
0
LINE
8
BLACK
6
CONTINUOUS
10
37.2065780000000004
20
-78.3398380000000003
11
36.6351489999999984
21
-78.3398380000000003
0
LINE
8
BLACK
6
CONTINUOUS
10
36.6351489999999984
20
-78.3398380000000003
11
36.4446730000000017
21
-78.2445999999999913
0
LINE
8
BLACK
6
CONTINUOUS
10
36.4446730000000017
20
-78.2445999999999913
11
36.3494349999999997
21
-78.149360999999999
0
LINE
8
BLACK
6
CONTINUOUS
10
38.8256249999999952
20
-76.3398380000000003
11
39.0161019999999965
21
-76.3398380000000003
0
LINE
8
BLACK
6
CONTINUOUS
10
39.0161019999999965
20
-76.3398380000000003
11
39.2065780000000004
21
-76.4350759999999951
0
LINE
8
BLACK
6
CONTINUOUS
10
39.2065780000000004
20
-76.4350759999999951
11
39.3018159999999952
21
-76.53031399999999
0
LINE
8
BLACK
6
CONTINUOUS
10
39.3018159999999952
20
-76.53031399999999
11
39.3970539999999971
21
-76.7207899999999938
0
LINE
8
BLACK
6
CONTINUOUS
10
39.3970539999999971
20
-76.7207899999999938
11
39.4922919999999991
21
-77.1017420000000016
0
LINE
8
BLACK
6
CONTINUOUS
10
39.4922919999999991
20
-77.1017420000000016
11
39.4922919999999991
21
-77.5779330000000016
0
LINE
8
BLACK
6
CONTINUOUS
10
39.4922919999999991
20
-77.5779330000000016
11
39.3970539999999971
21
-77.9588849999999951
0
LINE
8
BLACK
6
CONTINUOUS
10
39.3970539999999971
20
-77.9588849999999951
11
39.3018159999999952
21
-78.149360999999999
0
LINE
8
BLACK
6
CONTINUOUS
10
39.3018159999999952
20
-78.149360999999999
11
39.2065780000000004
21
-78.2445999999999913
0
LINE
8
BLACK
6
CONTINUOUS
10
39.2065780000000004
20
-78.2445999999999913
11
39.0161019999999965
21
-78.3398380000000003
0
LINE
8
BLACK
6
CONTINUOUS
10
39.0161019999999965
20
-78.3398380000000003
11
38.8256249999999952
21
-78.3398380000000003
0
LINE
8
BLACK
6
CONTINUOUS
10
38.8256249999999952
20
-78.3398380000000003
11
38.6351489999999984
21
-78.2445999999999913
0
LINE
8
BLACK
6
CONTINUOUS
10
38.6351489999999984
20
-78.2445999999999913
11
38.5399109999999965
21
-78.149360999999999
0
LINE
8
BLACK
6
CONTINUOUS
10
38.5399109999999965
20
-78.149360999999999
11
38.4446730000000017
21
-77.9588849999999951
0
LINE
8
BLACK
6
CONTINUOUS
10
38.4446730000000017
20
-77.9588849999999951
11
38.3494349999999997
21
-77.5779330000000016
0
LINE
8
BLACK
6
CONTINUOUS
10
38.3494349999999997
20
-77.5779330000000016
11
38.3494349999999997
21
-77.1017420000000016
0
LINE
8
BLACK
6
CONTINUOUS
10
38.3494349999999997
20
-77.1017420000000016
11
38.4446730000000017
21
-76.7207899999999938
0
LINE
8
BLACK
6
CONTINUOUS
10
38.4446730000000017
20
-76.7207899999999938
11
38.5399109999999965
21
-76.53031399999999
0
LINE
8
BLACK
6
CONTINUOUS
10
38.5399109999999965
20
-76.53031399999999
11
38.6351489999999984
21
-76.4350759999999951
0
LINE
8
BLACK
6
CONTINUOUS
10
38.6351489999999984
20
-76.4350759999999951
11
38.8256249999999952
21
-76.3398380000000003
0
LINE
8
BLACK
6
CONTINUOUS
10
40.7303870000000003
20
-76.3398380000000003
11
40.9208640000000017
21
-76.3398380000000003
0
LINE
8
BLACK
6
CONTINUOUS
10
40.9208640000000017
20
-76.3398380000000003
11
41.1113399999999984
21
-76.4350759999999951
0
LINE
8
BLACK
6
CONTINUOUS
10
41.1113399999999984
20
-76.4350759999999951
11
41.2065780000000004
21
-76.53031399999999
0
LINE
8
BLACK
6
CONTINUOUS
10
41.2065780000000004
20
-76.53031399999999
11
41.3018159999999952
21
-76.7207899999999938
0
LINE
8
BLACK
6
CONTINUOUS
10
41.3018159999999952
20
-76.7207899999999938
11
41.3970539999999971
21
-77.1017420000000016
0
LINE
8
BLACK
6
CONTINUOUS
10
41.3970539999999971
20
-77.1017420000000016
11
41.3970539999999971
21
-77.5779330000000016
0
LINE
8
BLACK
6
CONTINUOUS
10
41.3970539999999971
20
-77.5779330000000016
11
41.3018159999999952
21
-77.9588849999999951
0
LINE
8
BLACK
6
CONTINUOUS
10
41.3018159999999952
20
-77.9588849999999951
11
41.2065780000000004
21
-78.149360999999999
0
LINE
8
BLACK
6
CONTINUOUS
10
41.2065780000000004
20
-78.149360999999999
11
41.1113399999999984
21
-78.2445999999999913
0
LINE
8
BLACK
6
CONTINUOUS
10
41.1113399999999984
20
-78.2445999999999913
11
40.9208640000000017
21
-78.3398380000000003
0
LINE
8
BLACK
6
CONTINUOUS
10
40.9208640000000017
20
-78.3398380000000003
11
40.7303870000000003
21
-78.3398380000000003
0
LINE
8
BLACK
6
CONTINUOUS
10
40.7303870000000003
20
-78.3398380000000003
11
40.5399109999999965
21
-78.2445999999999913
0
LINE
8
BLACK
6
CONTINUOUS
10
40.5399109999999965
20
-78.2445999999999913
11
40.4446730000000017
21
-78.149360999999999
0
LINE
8
BLACK
6
CONTINUOUS
10
40.4446730000000017
20
-78.149360999999999
11
40.3494349999999997
21
-77.9588849999999951
0
LINE
8
BLACK
6
CONTINUOUS
10
40.3494349999999997
20
-77.9588849999999951
11
40.2541969999999978
21
-77.5779330000000016
0
LINE
8
BLACK
6
CONTINUOUS
10
40.2541969999999978
20
-77.5779330000000016
11
40.2541969999999978
21
-77.1017420000000016
0
LINE
8
BLACK
6
CONTINUOUS
10
40.2541969999999978
20
-77.1017420000000016
11
40.3494349999999997
21
-76.7207899999999938
0
LINE
8
BLACK
6
CONTINUOUS
10
40.3494349999999997
20
-76.7207899999999938
11
40.4446730000000017
21
-76.53031399999999
0
LINE
8
BLACK
6
CONTINUOUS
10
40.4446730000000017
20
-76.53031399999999
11
40.5399109999999965
21
-76.4350759999999951
0
LINE
8
BLACK
6
CONTINUOUS
10
40.5399109999999965
20
-76.4350759999999951
11
40.7303870000000003
21
-76.3398380000000003
0
LINE
8
BLACK
6
CONTINUOUS
10
42.2541969999999978
20
-78.3398380000000003
11
42.2541969999999978
21
-77.0065039999999925
0
LINE
8
BLACK
6
CONTINUOUS
10
42.2541969999999978
20
-77.1969799999999964
11
42.3494349999999997
21
-77.1017420000000016
0
LINE
8
BLACK
6
CONTINUOUS
10
42.3494349999999997
20
-77.1017420000000016
11
42.5399109999999965
21
-77.0065039999999925
0
LINE
8
BLACK
6
CONTINUOUS
10
42.5399109999999965
20
-77.0065039999999925
11
42.8256259999999997
21
-77.0065039999999925
0
LINE
8
BLACK
6
CONTINUOUS
10
42.8256259999999997
20
-77.0065039999999925
11
43.0161019999999965
21
-77.1017420000000016
0
LINE
8
BLACK
6
CONTINUOUS
10
43.0161019999999965
20
-77.1017420000000016
11
43.1113399999999984
21
-77.2922190000000029
0
LINE
8
BLACK
6
CONTINUOUS
10
43.1113399999999984
20
-77.2922190000000029
11
43.1113399999999984
21
-78.3398380000000003
0
LINE
8
BLACK
6
CONTINUOUS
10
43.1113399999999984
20
-77.2922190000000029
11
43.2065780000000004
21
-77.1017420000000016
0
LINE
8
BLACK
6
CONTINUOUS
10
43.2065780000000004
20
-77.1017420000000016
11
43.3970539999999971
21
-77.0065039999999925
0
LINE
8
BLACK
6
CONTINUOUS
10
43.3970539999999971
20
-77.0065039999999925
11
43.6827679999999958
21
-77.0065039999999925
0
LINE
8
BLACK
6
CONTINUOUS
10
43.6827679999999958
20
-77.0065039999999925
11
43.8732449999999972
21
-77.1017420000000016
0
LINE
8
BLACK
6
CONTINUOUS
10
43.8732449999999972
20
-77.1017420000000016
11
43.9684829999999991
21
-77.2922190000000029
0
LINE
8
BLACK
6
CONTINUOUS
10
43.9684829999999991
20
-77.2922190000000029
11
43.9684829999999991
21
-78.3398380000000003
0
LINE
8
BLACK
6
CONTINUOUS
10
44.9208639999999946
20
-78.3398380000000003
11
44.9208639999999946
21
-77.0065039999999925
0
LINE
8
BLACK
6
CONTINUOUS
10
44.9208639999999946
20
-77.1969799999999964
11
45.0161019999999965
21
-77.1017420000000016
0
LINE
8
BLACK
6
CONTINUOUS
10
45.0161019999999965
20
-77.1017420000000016
11
45.2065780000000004
21
-77.0065039999999925
0
LINE
8
BLACK
6
CONTINUOUS
10
45.2065780000000004
20
-77.0065039999999925
11
45.4922929999999965
21
-77.0065039999999925
0
LINE
8
BLACK
6
CONTINUOUS
10
45.4922929999999965
20
-77.0065039999999925
11
45.6827690000000004
21
-77.1017420000000016
0
LINE
8
BLACK
6
CONTINUOUS
10
45.6827690000000004
20
-77.1017420000000016
11
45.7780069999999952
21
-77.2922190000000029
0
LINE
8
BLACK
6
CONTINUOUS
10
45.7780069999999952
20
-77.2922190000000029
11
45.7780069999999952
21
-78.3398380000000003
0
LINE
8
BLACK
6
CONTINUOUS
10
45.7780069999999952
20
-77.2922190000000029
11
45.8732449999999972
21
-77.1017420000000016
0
LINE
8
BLACK
6
CONTINUOUS
10
45.8732449999999972
20
-77.1017420000000016
11
46.063721000000001
21
-77.0065039999999925
0
LINE
8
BLACK
6
CONTINUOUS
10
46.063721000000001
20
-77.0065039999999925
11
46.3494349999999997
21
-77.0065039999999925
0
LINE
8
BLACK
6
CONTINUOUS
10
46.3494349999999997
20
-77.0065039999999925
11
46.5399120000000011
21
-77.1017420000000016
0
LINE
8
BLACK
6
CONTINUOUS
10
46.5399120000000011
20
-77.1017420000000016
11
46.6351499999999959
21
-77.2922190000000029
0
LINE
8
BLACK
6
CONTINUOUS
10
46.6351499999999959
20
-77.2922190000000029
11
46.6351499999999959
21
-78.3398380000000003
0
LINE
8
BLACK
6
CONTINUOUS
10
50.5399120000000011
20
-76.2445999999999913
11
48.8256269999999972
21
-78.8160280000000029
0
LINE
8
BLACK
6
CONTINUOUS
10
53.1113409999999959
20
-76.3398380000000003
11
53.3018179999999973
21
-76.3398380000000003
0
LINE
8
BLACK
6
CONTINUOUS
10
53.3018179999999973
20
-76.3398380000000003
11
53.4922940000000011
21
-76.4350759999999951
0
LINE
8
BLACK
6
CONTINUOUS
10
53.4922940000000011
20
-76.4350759999999951
11
53.5875319999999959
21
-76.53031399999999
0
LINE
8
BLACK
6
CONTINUOUS
10
53.5875319999999959
20
-76.53031399999999
11
53.6827699999999979
21
-76.7207899999999938
0
LINE
8
BLACK
6
CONTINUOUS
10
53.6827699999999979
20
-76.7207899999999938
11
53.7780079999999998
21
-77.1017420000000016
0
LINE
8
BLACK
6
CONTINUOUS
10
53.7780079999999998
20
-77.1017420000000016
11
53.7780079999999998
21
-77.5779330000000016
0
LINE
8
BLACK
6
CONTINUOUS
10
53.7780079999999998
20
-77.5779330000000016
11
53.6827699999999979
21
-77.9588849999999951
0
LINE
8
BLACK
6
CONTINUOUS
10
53.6827699999999979
20
-77.9588849999999951
11
53.5875319999999959
21
-78.149360999999999
0
LINE
8
BLACK
6
CONTINUOUS
10
53.5875319999999959
20
-78.149360999999999
11
53.4922940000000011
21
-78.2445999999999913
0
LINE
8
BLACK
6
CONTINUOUS
10
53.4922940000000011
20
-78.2445999999999913
11
53.3018179999999973
21
-78.3398380000000003
0
LINE
8
BLACK
6
CONTINUOUS
10
53.3018179999999973
20
-78.3398380000000003
11
53.1113409999999959
21
-78.3398380000000003
0
LINE
8
BLACK
6
CONTINUOUS
10
53.1113409999999959
20
-78.3398380000000003
11
52.9208649999999992
21
-78.2445999999999913
0
LINE
8
BLACK
6
CONTINUOUS
10
52.9208649999999992
20
-78.2445999999999913
11
52.8256269999999972
21
-78.149360999999999
0
LINE
8
BLACK
6
CONTINUOUS
10
52.8256269999999972
20
-78.149360999999999
11
52.7303889999999953
21
-77.9588849999999951
0
LINE
8
BLACK
6
CONTINUOUS
10
52.7303889999999953
20
-77.9588849999999951
11
52.6351510000000005
21
-77.5779330000000016
0
LINE
8
BLACK
6
CONTINUOUS
10
52.6351510000000005
20
-77.5779330000000016
11
52.6351510000000005
21
-77.1017420000000016
0
LINE
8
BLACK
6
CONTINUOUS
10
52.6351510000000005
20
-77.1017420000000016
11
52.7303889999999953
21
-76.7207899999999938
0
LINE
8
BLACK
6
CONTINUOUS
10
52.7303889999999953
20
-76.7207899999999938
11
52.8256269999999972
21
-76.53031399999999
0
LINE
8
BLACK
6
CONTINUOUS
10
52.8256269999999972
20
-76.53031399999999
11
52.9208649999999992
21
-76.4350759999999951
0
LINE
8
BLACK
6
CONTINUOUS
10
52.9208649999999992
20
-76.4350759999999951
11
53.1113409999999959
21
-76.3398380000000003
0
LINE
8
BLACK
6
CONTINUOUS
10
54.6351510000000005
20
-78.149360999999999
11
54.7303889999999953
21
-78.2445999999999913
0
LINE
8
BLACK
6
CONTINUOUS
10
54.7303889999999953
20
-78.2445999999999913
11
54.6351510000000005
21
-78.3398380000000003
0
LINE
8
BLACK
6
CONTINUOUS
10
54.6351510000000005
20
-78.3398380000000003
11
54.5399129999999985
21
-78.2445999999999913
0
LINE
8
BLACK
6
CONTINUOUS
10
54.5399129999999985
20
-78.2445999999999913
11
54.6351510000000005
21
-78.149360999999999
0
LINE
8
BLACK
6
CONTINUOUS
10
54.6351510000000005
20
-78.149360999999999
11
54.6351510000000005
21
-78.3398380000000003
0
LINE
8
BLACK
6
CONTINUOUS
10
55.9684839999999966
20
-76.3398380000000003
11
56.1589609999999979
21
-76.3398380000000003
0
LINE
8
BLACK
6
CONTINUOUS
10
56.1589609999999979
20
-76.3398380000000003
11
56.3494369999999947
21
-76.4350759999999951
0
LINE
8
BLACK
6
CONTINUOUS
10
56.3494369999999947
20
-76.4350759999999951
11
56.4446749999999966
21
-76.53031399999999
0
LINE
8
BLACK
6
CONTINUOUS
10
56.4446749999999966
20
-76.53031399999999
11
56.5399129999999985
21
-76.7207899999999938
0
LINE
8
BLACK
6
CONTINUOUS
10
56.5399129999999985
20
-76.7207899999999938
11
56.6351510000000005
21
-77.1017420000000016
0
LINE
8
BLACK
6
CONTINUOUS
10
56.6351510000000005
20
-77.1017420000000016
11
56.6351510000000005
21
-77.5779330000000016
0
LINE
8
BLACK
6
CONTINUOUS
10
56.6351510000000005
20
-77.5779330000000016
11
56.5399129999999985
21
-77.9588849999999951
0
LINE
8
BLACK
6
CONTINUOUS
10
56.5399129999999985
20
-77.9588849999999951
11
56.4446749999999966
21
-78.149360999999999
0
LINE
8
BLACK
6
CONTINUOUS
10
56.4446749999999966
20
-78.149360999999999
11
56.3494369999999947
21
-78.2445999999999913
0
LINE
8
BLACK
6
CONTINUOUS
10
56.3494369999999947
20
-78.2445999999999913
11
56.1589609999999979
21
-78.3398380000000003
0
LINE
8
BLACK
6
CONTINUOUS
10
56.1589609999999979
20
-78.3398380000000003
11
55.9684839999999966
21
-78.3398380000000003
0
LINE
8
BLACK
6
CONTINUOUS
10
55.9684839999999966
20
-78.3398380000000003
11
55.7780079999999998
21
-78.2445999999999913
0
LINE
8
BLACK
6
CONTINUOUS
10
55.7780079999999998
20
-78.2445999999999913
11
55.6827699999999979
21
-78.149360999999999
0
LINE
8
BLACK
6
CONTINUOUS
10
55.6827699999999979
20
-78.149360999999999
11
55.5875319999999959
21
-77.9588849999999951
0
LINE
8
BLACK
6
CONTINUOUS
10
55.5875319999999959
20
-77.9588849999999951
11
55.492293999999994
21
-77.5779330000000016
0
LINE
8
BLACK
6
CONTINUOUS
10
55.492293999999994
20
-77.5779330000000016
11
55.492293999999994
21
-77.1017420000000016
0
LINE
8
BLACK
6
CONTINUOUS
10
55.492293999999994
20
-77.1017420000000016
11
55.5875319999999959
21
-76.7207899999999938
0
LINE
8
BLACK
6
CONTINUOUS
10
55.5875319999999959
20
-76.7207899999999938
11
55.6827699999999979
21
-76.53031399999999
0
LINE
8
BLACK
6
CONTINUOUS
10
55.6827699999999979
20
-76.53031399999999
11
55.7780079999999998
21
-76.4350759999999951
0
LINE
8
BLACK
6
CONTINUOUS
10
55.7780079999999998
20
-76.4350759999999951
11
55.9684839999999966
21
-76.3398380000000003
0
LINE
8
BLACK
6
CONTINUOUS
10
58.5399129999999985
20
-78.3398380000000003
11
57.3970559999999992
21
-78.3398380000000003
0
LINE
8
BLACK
6
CONTINUOUS
10
57.9684839999999966
20
-78.3398380000000003
11
57.9684839999999966
21
-76.3398380000000003
0
LINE
8
BLACK
6
CONTINUOUS
10
57.9684839999999966
20
-76.3398380000000003
11
57.7780079999999998
21
-76.625551999999999
0
LINE
8
BLACK
6
CONTINUOUS
10
57.7780079999999998
20
-76.625551999999999
11
57.5875319999999959
21
-76.8160280000000029
0
LINE
8
BLACK
6
CONTINUOUS
10
57.5875319999999959
20
-76.8160280000000029
11
57.3970559999999992
21
-76.9112659999999977
0
LINE
8
BLACK
6
CONTINUOUS
10
60.4446749999999966
20
-78.3398380000000003
11
59.3018179999999973
21
-78.3398380000000003
0
LINE
8
BLACK
6
CONTINUOUS
10
59.8732459999999946
20
-78.3398380000000003
11
59.8732459999999946
21
-76.3398380000000003
0
LINE
8
BLACK
6
CONTINUOUS
10
59.8732459999999946
20
-76.3398380000000003
11
59.6827699999999979
21
-76.625551999999999
0
LINE
8
BLACK
6
CONTINUOUS
10
59.6827699999999979
20
-76.625551999999999
11
59.492293999999994
21
-76.8160280000000029
0
LINE
8
BLACK
6
CONTINUOUS
10
59.492293999999994
20
-76.8160280000000029
11
59.3018179999999973
21
-76.9112659999999977
0
LINE
8
BLACK
6
CONTINUOUS
10
61.5875319999999959
20
-77.1969799999999964
11
61.3970559999999992
21
-77.1017420000000016
0
LINE
8
BLACK
6
CONTINUOUS
10
61.3970559999999992
20
-77.1017420000000016
11
61.3018179999999973
21
-77.0065039999999925
0
LINE
8
BLACK
6
CONTINUOUS
10
61.3018179999999973
20
-77.0065039999999925
11
61.2065799999999953
21
-76.8160280000000029
0
LINE
8
BLACK
6
CONTINUOUS
10
61.2065799999999953
20
-76.8160280000000029
11
61.2065799999999953
21
-76.7207899999999938
0
LINE
8
BLACK
6
CONTINUOUS
10
61.2065799999999953
20
-76.7207899999999938
11
61.3018179999999973
21
-76.53031399999999
0
LINE
8
BLACK
6
CONTINUOUS
10
61.3018179999999973
20
-76.53031399999999
11
61.3970559999999992
21
-76.4350759999999951
0
LINE
8
BLACK
6
CONTINUOUS
10
61.3970559999999992
20
-76.4350759999999951
11
61.5875319999999959
21
-76.3398380000000003
0
LINE
8
BLACK
6
CONTINUOUS
10
61.5875319999999959
20
-76.3398380000000003
11
61.968484999999994
21
-76.3398380000000003
0
LINE
8
BLACK
6
CONTINUOUS
10
61.968484999999994
20
-76.3398380000000003
11
62.1589609999999979
21
-76.4350759999999951
0
LINE
8
BLACK
6
CONTINUOUS
10
62.1589609999999979
20
-76.4350759999999951
11
62.2541989999999998
21
-76.53031399999999
0
LINE
8
BLACK
6
CONTINUOUS
10
62.2541989999999998
20
-76.53031399999999
11
62.3494369999999947
21
-76.7207899999999938
0
LINE
8
BLACK
6
CONTINUOUS
10
62.3494369999999947
20
-76.7207899999999938
11
62.3494369999999947
21
-76.8160280000000029
0
LINE
8
BLACK
6
CONTINUOUS
10
62.3494369999999947
20
-76.8160280000000029
11
62.2541989999999998
21
-77.0065039999999925
0
LINE
8
BLACK
6
CONTINUOUS
10
62.2541989999999998
20
-77.0065039999999925
11
62.1589609999999979
21
-77.1017420000000016
0
LINE
8
BLACK
6
CONTINUOUS
10
62.1589609999999979
20
-77.1017420000000016
11
61.968484999999994
21
-77.1969799999999964
0
LINE
8
BLACK
6
CONTINUOUS
10
61.968484999999994
20
-77.1969799999999964
11
61.5875319999999959
21
-77.1969799999999964
0
LINE
8
BLACK
6
CONTINUOUS
10
61.5875319999999959
20
-77.1969799999999964
11
61.3970559999999992
21
-77.2922190000000029
0
LINE
8
BLACK
6
CONTINUOUS
10
61.3970559999999992
20
-77.2922190000000029
11
61.3018179999999973
21
-77.3874569999999977
0
LINE
8
BLACK
6
CONTINUOUS
10
61.3018179999999973
20
-77.3874569999999977
11
61.2065799999999953
21
-77.5779330000000016
0
LINE
8
BLACK
6
CONTINUOUS
10
61.2065799999999953
20
-77.5779330000000016
11
61.2065799999999953
21
-77.9588849999999951
0
LINE
8
BLACK
6
CONTINUOUS
10
61.2065799999999953
20
-77.9588849999999951
11
61.3018179999999973
21
-78.149360999999999
0
LINE
8
BLACK
6
CONTINUOUS
10
61.3018179999999973
20
-78.149360999999999
11
61.3970559999999992
21
-78.2445999999999913
0
LINE
8
BLACK
6
CONTINUOUS
10
61.3970559999999992
20
-78.2445999999999913
11
61.5875319999999959
21
-78.3398380000000003
0
LINE
8
BLACK
6
CONTINUOUS
10
61.5875319999999959
20
-78.3398380000000003
11
61.968484999999994
21
-78.3398380000000003
0
LINE
8
BLACK
6
CONTINUOUS
10
61.968484999999994
20
-78.3398380000000003
11
62.1589609999999979
21
-78.2445999999999913
0
LINE
8
BLACK
6
CONTINUOUS
10
62.1589609999999979
20
-78.2445999999999913
11
62.2541989999999998
21
-78.149360999999999
0
LINE
8
BLACK
6
CONTINUOUS
10
62.2541989999999998
20
-78.149360999999999
11
62.3494369999999947
21
-77.9588849999999951
0
LINE
8
BLACK
6
CONTINUOUS
10
62.3494369999999947
20
-77.9588849999999951
11
62.3494369999999947
21
-77.5779330000000016
0
LINE
8
BLACK
6
CONTINUOUS
10
62.3494369999999947
20
-77.5779330000000016
11
62.2541989999999998
21
-77.3874569999999977
0
LINE
8
BLACK
6
CONTINUOUS
10
62.2541989999999998
20
-77.3874569999999977
11
62.1589609999999979
21
-77.2922190000000029
0
LINE
8
BLACK
6
CONTINUOUS
10
62.1589609999999979
20
-77.2922190000000029
11
61.968484999999994
21
-77.1969799999999964
0
LINE
8
BLACK
6
CONTINUOUS
10
63.1113420000000005
20
-76.3398380000000003
11
63.1113420000000005
21
-76.7207899999999938
0
LINE
8
BLACK
6
CONTINUOUS
10
63.8732469999999992
20
-76.3398380000000003
11
63.8732469999999992
21
-76.7207899999999938
0
LINE
8
BLACK
6
CONTINUOUS
10
66.8256289999999922
20
-79.1017420000000016
11
66.7303899999999999
21
-79.0065039999999925
0
LINE
8
BLACK
6
CONTINUOUS
10
66.7303899999999999
20
-79.0065039999999925
11
66.539913999999996
21
-78.7207899999999938
0
LINE
8
BLACK
6
CONTINUOUS
10
66.539913999999996
20
-78.7207899999999938
11
66.4446760000000012
21
-78.53031399999999
0
LINE
8
BLACK
6
CONTINUOUS
10
66.4446760000000012
20
-78.53031399999999
11
66.3494379999999921
21
-78.2445999999999913
0
LINE
8
BLACK
6
CONTINUOUS
10
66.3494379999999921
20
-78.2445999999999913
11
66.2541999999999973
21
-77.7684089999999912
0
LINE
8
BLACK
6
CONTINUOUS
10
66.2541999999999973
20
-77.7684089999999912
11
66.2541999999999973
21
-77.3874569999999977
0
LINE
8
BLACK
6
CONTINUOUS
10
66.2541999999999973
20
-77.3874569999999977
11
66.3494379999999921
21
-76.9112659999999977
0
LINE
8
BLACK
6
CONTINUOUS
10
66.3494379999999921
20
-76.9112659999999977
11
66.4446760000000012
21
-76.625551999999999
0
LINE
8
BLACK
6
CONTINUOUS
10
66.4446760000000012
20
-76.625551999999999
11
66.539913999999996
21
-76.4350759999999951
0
LINE
8
BLACK
6
CONTINUOUS
10
66.539913999999996
20
-76.4350759999999951
11
66.7303899999999999
21
-76.149360999999999
0
LINE
8
BLACK
6
CONTINUOUS
10
66.7303899999999999
20
-76.149360999999999
11
66.8256289999999922
21
-76.0541229999999899
0
LINE
8
BLACK
6
CONTINUOUS
10
67.6827710000000025
20
-78.3398380000000003
11
68.063722999999996
21
-78.3398380000000003
0
LINE
8
BLACK
6
CONTINUOUS
10
68.063722999999996
20
-78.3398380000000003
11
68.2541999999999973
21
-78.2445999999999913
0
LINE
8
BLACK
6
CONTINUOUS
10
68.2541999999999973
20
-78.2445999999999913
11
68.3494379999999921
21
-78.149360999999999
0
LINE
8
BLACK
6
CONTINUOUS
10
68.3494379999999921
20
-78.149360999999999
11
68.539913999999996
21
-77.8636470000000003
0
LINE
8
BLACK
6
CONTINUOUS
10
68.539913999999996
20
-77.8636470000000003
11
68.6351519999999908
21
-77.4826949999999925
0
LINE
8
BLACK
6
CONTINUOUS
10
68.6351519999999908
20
-77.4826949999999925
11
68.6351519999999908
21
-76.7207899999999938
0
LINE
8
BLACK
6
CONTINUOUS
10
68.6351519999999908
20
-76.7207899999999938
11
68.539913999999996
21
-76.53031399999999
0
LINE
8
BLACK
6
CONTINUOUS
10
68.539913999999996
20
-76.53031399999999
11
68.4446760000000012
21
-76.4350759999999951
0
LINE
8
BLACK
6
CONTINUOUS
10
68.4446760000000012
20
-76.4350759999999951
11
68.2541999999999973
21
-76.3398380000000003
0
LINE
8
BLACK
6
CONTINUOUS
10
68.2541999999999973
20
-76.3398380000000003
11
67.8732469999999921
21
-76.3398380000000003
0
LINE
8
BLACK
6
CONTINUOUS
10
67.8732469999999921
20
-76.3398380000000003
11
67.6827710000000025
21
-76.4350759999999951
0
LINE
8
BLACK
6
CONTINUOUS
10
67.6827710000000025
20
-76.4350759999999951
11
67.5875329999999934
21
-76.53031399999999
0
LINE
8
BLACK
6
CONTINUOUS
10
67.5875329999999934
20
-76.53031399999999
11
67.4922949999999986
21
-76.7207899999999938
0
LINE
8
BLACK
6
CONTINUOUS
10
67.4922949999999986
20
-76.7207899999999938
11
67.4922949999999986
21
-77.1969799999999964
0
LINE
8
BLACK
6
CONTINUOUS
10
67.4922949999999986
20
-77.1969799999999964
11
67.5875329999999934
21
-77.3874569999999977
0
LINE
8
BLACK
6
CONTINUOUS
10
67.5875329999999934
20
-77.3874569999999977
11
67.6827710000000025
21
-77.4826949999999925
0
LINE
8
BLACK
6
CONTINUOUS
10
67.6827710000000025
20
-77.4826949999999925
11
67.8732469999999921
21
-77.5779330000000016
0
LINE
8
BLACK
6
CONTINUOUS
10
67.8732469999999921
20
-77.5779330000000016
11
68.2541999999999973
21
-77.5779330000000016
0
LINE
8
BLACK
6
CONTINUOUS
10
68.2541999999999973
20
-77.5779330000000016
11
68.4446760000000012
21
-77.4826949999999925
0
LINE
8
BLACK
6
CONTINUOUS
10
68.4446760000000012
20
-77.4826949999999925
11
68.539913999999996
21
-77.3874569999999977
0
LINE
8
BLACK
6
CONTINUOUS
10
68.539913999999996
20
-77.3874569999999977
11
68.6351519999999908
21
-77.1969799999999964
0
LINE
8
BLACK
6
CONTINUOUS
10
69.8732469999999921
20
-76.3398380000000003
11
70.0637239999999935
21
-76.3398380000000003
0
LINE
8
BLACK
6
CONTINUOUS
10
70.0637239999999935
20
-76.3398380000000003
11
70.2541999999999973
21
-76.4350759999999951
0
LINE
8
BLACK
6
CONTINUOUS
10
70.2541999999999973
20
-76.4350759999999951
11
70.3494379999999921
21
-76.53031399999999
0
LINE
8
BLACK
6
CONTINUOUS
10
70.3494379999999921
20
-76.53031399999999
11
70.4446760000000012
21
-76.7207899999999938
0
LINE
8
BLACK
6
CONTINUOUS
10
70.4446760000000012
20
-76.7207899999999938
11
70.539913999999996
21
-77.1017420000000016
0
LINE
8
BLACK
6
CONTINUOUS
10
70.539913999999996
20
-77.1017420000000016
11
70.539913999999996
21
-77.5779330000000016
0
LINE
8
BLACK
6
CONTINUOUS
10
70.539913999999996
20
-77.5779330000000016
11
70.4446760000000012
21
-77.9588849999999951
0
LINE
8
BLACK
6
CONTINUOUS
10
70.4446760000000012
20
-77.9588849999999951
11
70.3494379999999921
21
-78.149360999999999
0
LINE
8
BLACK
6
CONTINUOUS
10
70.3494379999999921
20
-78.149360999999999
11
70.2541999999999973
21
-78.2445999999999913
0
LINE
8
BLACK
6
CONTINUOUS
10
70.2541999999999973
20
-78.2445999999999913
11
70.0637239999999935
21
-78.3398380000000003
0
LINE
8
BLACK
6
CONTINUOUS
10
70.0637239999999935
20
-78.3398380000000003
11
69.8732469999999921
21
-78.3398380000000003
0
LINE
8
BLACK
6
CONTINUOUS
10
69.8732469999999921
20
-78.3398380000000003
11
69.6827710000000025
21
-78.2445999999999913
0
LINE
8
BLACK
6
CONTINUOUS
10
69.6827710000000025
20
-78.2445999999999913
11
69.5875329999999934
21
-78.149360999999999
0
LINE
8
BLACK
6
CONTINUOUS
10
69.5875329999999934
20
-78.149360999999999
11
69.4922949999999986
21
-77.9588849999999951
0
LINE
8
BLACK
6
CONTINUOUS
10
69.4922949999999986
20
-77.9588849999999951
11
69.3970570000000038
21
-77.5779330000000016
0
LINE
8
BLACK
6
CONTINUOUS
10
69.3970570000000038
20
-77.5779330000000016
11
69.3970570000000038
21
-77.1017420000000016
0
LINE
8
BLACK
6
CONTINUOUS
10
69.3970570000000038
20
-77.1017420000000016
11
69.4922949999999986
21
-76.7207899999999938
0
LINE
8
BLACK
6
CONTINUOUS
10
69.4922949999999986
20
-76.7207899999999938
11
69.5875329999999934
21
-76.53031399999999
0
LINE
8
BLACK
6
CONTINUOUS
10
69.5875329999999934
20
-76.53031399999999
11
69.6827710000000025
21
-76.4350759999999951
0
LINE
8
BLACK
6
CONTINUOUS
10
69.6827710000000025
20
-76.4350759999999951
11
69.8732469999999921
21
-76.3398380000000003
0
LINE
8
BLACK
6
CONTINUOUS
10
72.9208670000000012
20
-78.3398380000000003
11
72.9208670000000012
21
-76.3398380000000003
0
LINE
8
BLACK
6
CONTINUOUS
10
73.7780099999999948
20
-78.3398380000000003
11
73.7780099999999948
21
-77.2922190000000029
0
LINE
8
BLACK
6
CONTINUOUS
10
73.7780099999999948
20
-77.2922190000000029
11
73.6827719999999999
21
-77.1017420000000016
0
LINE
8
BLACK
6
CONTINUOUS
10
73.6827719999999999
20
-77.1017420000000016
11
73.4922959999999961
21
-77.0065039999999925
0
LINE
8
BLACK
6
CONTINUOUS
10
73.4922959999999961
20
-77.0065039999999925
11
73.2065809999999999
21
-77.0065039999999925
0
LINE
8
BLACK
6
CONTINUOUS
10
73.2065809999999999
20
-77.0065039999999925
11
73.016104999999996
21
-77.1017420000000016
0
LINE
8
BLACK
6
CONTINUOUS
10
73.016104999999996
20
-77.1017420000000016
11
72.9208670000000012
21
-77.1969799999999964
0
LINE
8
BLACK
6
CONTINUOUS
10
75.016104999999996
20
-78.3398380000000003
11
74.8256289999999922
21
-78.2445999999999913
0
LINE
8
BLACK
6
CONTINUOUS
10
74.8256289999999922
20
-78.2445999999999913
11
74.7303909999999973
21
-78.149360999999999
0
LINE
8
BLACK
6
CONTINUOUS
10
74.7303909999999973
20
-78.149360999999999
11
74.6351530000000025
21
-77.9588849999999951
0
LINE
8
BLACK
6
CONTINUOUS
10
74.6351530000000025
20
-77.9588849999999951
11
74.6351530000000025
21
-77.3874569999999977
0
LINE
8
BLACK
6
CONTINUOUS
10
74.6351530000000025
20
-77.3874569999999977
11
74.7303909999999973
21
-77.1969799999999964
0
LINE
8
BLACK
6
CONTINUOUS
10
74.7303909999999973
20
-77.1969799999999964
11
74.8256289999999922
21
-77.1017420000000016
0
LINE
8
BLACK
6
CONTINUOUS
10
74.8256289999999922
20
-77.1017420000000016
11
75.016104999999996
21
-77.0065039999999925
0
LINE
8
BLACK
6
CONTINUOUS
10
75.016104999999996
20
-77.0065039999999925
11
75.3018199999999922
21
-77.0065039999999925
0
LINE
8
BLACK
6
CONTINUOUS
10
75.3018199999999922
20
-77.0065039999999925
11
75.4922959999999961
21
-77.1017420000000016
0
LINE
8
BLACK
6
CONTINUOUS
10
75.4922959999999961
20
-77.1017420000000016
11
75.5875339999999909
21
-77.1969799999999964
0
LINE
8
BLACK
6
CONTINUOUS
10
75.5875339999999909
20
-77.1969799999999964
11
75.6827719999999999
21
-77.3874569999999977
0
LINE
8
BLACK
6
CONTINUOUS
10
75.6827719999999999
20
-77.3874569999999977
11
75.6827719999999999
21
-77.9588849999999951
0
LINE
8
BLACK
6
CONTINUOUS
10
75.6827719999999999
20
-77.9588849999999951
11
75.5875339999999909
21
-78.149360999999999
0
LINE
8
BLACK
6
CONTINUOUS
10
75.5875339999999909
20
-78.149360999999999
11
75.4922959999999961
21
-78.2445999999999913
0
LINE
8
BLACK
6
CONTINUOUS
10
75.4922959999999961
20
-78.2445999999999913
11
75.3018199999999922
21
-78.3398380000000003
0
LINE
8
BLACK
6
CONTINUOUS
10
75.3018199999999922
20
-78.3398380000000003
11
75.016104999999996
21
-78.3398380000000003
0
LINE
8
BLACK
6
CONTINUOUS
10
76.8256289999999922
20
-78.3398380000000003
11
76.6351530000000025
21
-78.2445999999999913
0
LINE
8
BLACK
6
CONTINUOUS
10
76.6351530000000025
20
-78.2445999999999913
11
76.5399149999999935
21
-78.0541229999999899
0
LINE
8
BLACK
6
CONTINUOUS
10
76.5399149999999935
20
-78.0541229999999899
11
76.5399149999999935
21
-76.3398380000000003
0
LINE
8
BLACK
6
CONTINUOUS
10
78.3494389999999896
20
-78.2445999999999913
11
78.158963
21
-78.3398380000000003
0
LINE
8
BLACK
6
CONTINUOUS
10
78.158963
20
-78.3398380000000003
11
77.7780099999999948
21
-78.3398380000000003
0
LINE
8
BLACK
6
CONTINUOUS
10
77.7780099999999948
20
-78.3398380000000003
11
77.5875339999999909
21
-78.2445999999999913
0
LINE
8
BLACK
6
CONTINUOUS
10
77.5875339999999909
20
-78.2445999999999913
11
77.4922959999999961
21
-78.0541229999999899
0
LINE
8
BLACK
6
CONTINUOUS
10
77.4922959999999961
20
-78.0541229999999899
11
77.4922959999999961
21
-77.2922190000000029
0
LINE
8
BLACK
6
CONTINUOUS
10
77.4922959999999961
20
-77.2922190000000029
11
77.5875339999999909
21
-77.1017420000000016
0
LINE
8
BLACK
6
CONTINUOUS
10
77.5875339999999909
20
-77.1017420000000016
11
77.7780099999999948
21
-77.0065039999999925
0
LINE
8
BLACK
6
CONTINUOUS
10
77.7780099999999948
20
-77.0065039999999925
11
78.158963
21
-77.0065039999999925
0
LINE
8
BLACK
6
CONTINUOUS
10
78.158963
20
-77.0065039999999925
11
78.3494389999999896
21
-77.1017420000000016
0
LINE
8
BLACK
6
CONTINUOUS
10
78.3494389999999896
20
-77.1017420000000016
11
78.4446769999999987
21
-77.2922190000000029
0
LINE
8
BLACK
6
CONTINUOUS
10
78.4446769999999987
20
-77.2922190000000029
11
78.4446769999999987
21
-77.4826949999999925
0
LINE
8
BLACK
6
CONTINUOUS
10
78.4446769999999987
20
-77.4826949999999925
11
77.4922959999999961
21
-77.6731709999999964
0
LINE
8
BLACK
6
CONTINUOUS
10
79.2065819999999974
20
-78.2445999999999913
11
79.3970580000000012
21
-78.3398380000000003
0
LINE
8
BLACK
6
CONTINUOUS
10
79.3970580000000012
20
-78.3398380000000003
11
79.7780099999999948
21
-78.3398380000000003
0
LINE
8
BLACK
6
CONTINUOUS
10
79.7780099999999948
20
-78.3398380000000003
11
79.9684869999999961
21
-78.2445999999999913
0
LINE
8
BLACK
6
CONTINUOUS
10
79.9684869999999961
20
-78.2445999999999913
11
80.0637249999999909
21
-78.0541229999999899
0
LINE
8
BLACK
6
CONTINUOUS
10
80.0637249999999909
20
-78.0541229999999899
11
80.0637249999999909
21
-77.9588849999999951
0
LINE
8
BLACK
6
CONTINUOUS
10
80.0637249999999909
20
-77.9588849999999951
11
79.9684869999999961
21
-77.7684089999999912
0
LINE
8
BLACK
6
CONTINUOUS
10
79.9684869999999961
20
-77.7684089999999912
11
79.7780099999999948
21
-77.6731709999999964
0
LINE
8
BLACK
6
CONTINUOUS
10
79.7780099999999948
20
-77.6731709999999964
11
79.4922959999999961
21
-77.6731709999999964
0
LINE
8
BLACK
6
CONTINUOUS
10
79.4922959999999961
20
-77.6731709999999964
11
79.3018199999999922
21
-77.5779330000000016
0
LINE
8
BLACK
6
CONTINUOUS
10
79.3018199999999922
20
-77.5779330000000016
11
79.2065819999999974
21
-77.3874569999999977
0
LINE
8
BLACK
6
CONTINUOUS
10
79.2065819999999974
20
-77.3874569999999977
11
79.2065819999999974
21
-77.2922190000000029
0
LINE
8
BLACK
6
CONTINUOUS
10
79.2065819999999974
20
-77.2922190000000029
11
79.3018199999999922
21
-77.1017420000000016
0
LINE
8
BLACK
6
CONTINUOUS
10
79.3018199999999922
20
-77.1017420000000016
11
79.4922959999999961
21
-77.0065039999999925
0
LINE
8
BLACK
6
CONTINUOUS
10
79.4922959999999961
20
-77.0065039999999925
11
79.7780099999999948
21
-77.0065039999999925
0
LINE
8
BLACK
6
CONTINUOUS
10
79.7780099999999948
20
-77.0065039999999925
11
79.9684869999999961
21
-77.1017420000000016
0
LINE
8
BLACK
6
CONTINUOUS
10
80.7303919999999948
20
-79.1017420000000016
11
80.8256299999999896
21
-79.0065039999999925
0
LINE
8
BLACK
6
CONTINUOUS
10
80.8256299999999896
20
-79.0065039999999925
11
81.0161059999999935
21
-78.7207899999999938
0
LINE
8
BLACK
6
CONTINUOUS
10
81.0161059999999935
20
-78.7207899999999938
11
81.1113440000000026
21
-78.53031399999999
0
LINE
8
BLACK
6
CONTINUOUS
10
81.1113440000000026
20
-78.53031399999999
11
81.2065819999999974
21
-78.2445999999999913
0
LINE
8
BLACK
6
CONTINUOUS
10
81.2065819999999974
20
-78.2445999999999913
11
81.3018199999999922
21
-77.7684089999999912
0
LINE
8
BLACK
6
CONTINUOUS
10
81.3018199999999922
20
-77.7684089999999912
11
81.3018199999999922
21
-77.3874569999999977
0
LINE
8
BLACK
6
CONTINUOUS
10
81.3018199999999922
20
-77.3874569999999977
11
81.2065819999999974
21
-76.9112659999999977
0
LINE
8
BLACK
6
CONTINUOUS
10
81.2065819999999974
20
-76.9112659999999977
11
81.1113440000000026
21
-76.625551999999999
0
LINE
8
BLACK
6
CONTINUOUS
10
81.1113440000000026
20
-76.625551999999999
11
81.0161059999999935
21
-76.4350759999999951
0
LINE
8
BLACK
6
CONTINUOUS
10
81.0161059999999935
20
-76.4350759999999951
11
80.8256299999999896
21
-76.149360999999999
0
LINE
8
BLACK
6
CONTINUOUS
10
80.8256299999999896
20
-76.149360999999999
11
80.7303919999999948
21
-76.0541229999999899
0
CIRCLE
8
BLACK
10
30.7749999999999986
20
-80.0649999999999977
40
0.3
0
LINE
8
BLACK
6
CONTINUOUS
10
34.0637199999999964
20
-78.9798380000000009
11
34.2541969999999978
21
-78.9798380000000009
0
LINE
8
BLACK
6
CONTINUOUS
10
34.2541969999999978
20
-78.9798380000000009
11
34.4446730000000017
21
-79.0750759999999957
0
LINE
8
BLACK
6
CONTINUOUS
10
34.4446730000000017
20
-79.0750759999999957
11
34.5399109999999965
21
-79.1703139999999905
0
LINE
8
BLACK
6
CONTINUOUS
10
34.5399109999999965
20
-79.1703139999999905
11
34.6351489999999984
21
-79.3607899999999944
0
LINE
8
BLACK
6
CONTINUOUS
10
34.6351489999999984
20
-79.3607899999999944
11
34.7303870000000003
21
-79.7417420000000021
0
LINE
8
BLACK
6
CONTINUOUS
10
34.7303870000000003
20
-79.7417420000000021
11
34.7303870000000003
21
-80.2179330000000022
0
LINE
8
BLACK
6
CONTINUOUS
10
34.7303870000000003
20
-80.2179330000000022
11
34.6351489999999984
21
-80.5988849999999957
0
LINE
8
BLACK
6
CONTINUOUS
10
34.6351489999999984
20
-80.5988849999999957
11
34.5399109999999965
21
-80.7893609999999995
0
LINE
8
BLACK
6
CONTINUOUS
10
34.5399109999999965
20
-80.7893609999999995
11
34.4446730000000017
21
-80.8845999999999918
0
LINE
8
BLACK
6
CONTINUOUS
10
34.4446730000000017
20
-80.8845999999999918
11
34.2541969999999978
21
-80.9798380000000009
0
LINE
8
BLACK
6
CONTINUOUS
10
34.2541969999999978
20
-80.9798380000000009
11
34.0637199999999964
21
-80.9798380000000009
0
LINE
8
BLACK
6
CONTINUOUS
10
34.0637199999999964
20
-80.9798380000000009
11
33.8732439999999997
21
-80.8845999999999918
0
LINE
8
BLACK
6
CONTINUOUS
10
33.8732439999999997
20
-80.8845999999999918
11
33.7780059999999978
21
-80.7893609999999995
0
LINE
8
BLACK
6
CONTINUOUS
10
33.7780059999999978
20
-80.7893609999999995
11
33.6827679999999958
21
-80.5988849999999957
0
LINE
8
BLACK
6
CONTINUOUS
10
33.6827679999999958
20
-80.5988849999999957
11
33.587530000000001
21
-80.2179330000000022
0
LINE
8
BLACK
6
CONTINUOUS
10
33.587530000000001
20
-80.2179330000000022
11
33.587530000000001
21
-79.7417420000000021
0
LINE
8
BLACK
6
CONTINUOUS
10
33.587530000000001
20
-79.7417420000000021
11
33.6827679999999958
21
-79.3607899999999944
0
LINE
8
BLACK
6
CONTINUOUS
10
33.6827679999999958
20
-79.3607899999999944
11
33.7780059999999978
21
-79.1703139999999905
0
LINE
8
BLACK
6
CONTINUOUS
10
33.7780059999999978
20
-79.1703139999999905
11
33.8732439999999997
21
-79.0750759999999957
0
LINE
8
BLACK
6
CONTINUOUS
10
33.8732439999999997
20
-79.0750759999999957
11
34.0637199999999964
21
-78.9798380000000009
0
LINE
8
BLACK
6
CONTINUOUS
10
35.587530000000001
20
-80.7893609999999995
11
35.6827679999999958
21
-80.8845999999999918
0
LINE
8
BLACK
6
CONTINUOUS
10
35.6827679999999958
20
-80.8845999999999918
11
35.587530000000001
21
-80.9798380000000009
0
LINE
8
BLACK
6
CONTINUOUS
10
35.587530000000001
20
-80.9798380000000009
11
35.4922919999999991
21
-80.8845999999999918
0
LINE
8
BLACK
6
CONTINUOUS
10
35.4922919999999991
20
-80.8845999999999918
11
35.587530000000001
21
-80.7893609999999995
0
LINE
8
BLACK
6
CONTINUOUS
10
35.587530000000001
20
-80.7893609999999995
11
35.587530000000001
21
-80.9798380000000009
0
LINE
8
BLACK
6
CONTINUOUS
10
37.3970539999999971
20
-78.9798380000000009
11
37.016100999999999
21
-78.9798380000000009
0
LINE
8
BLACK
6
CONTINUOUS
10
37.016100999999999
20
-78.9798380000000009
11
36.8256249999999952
21
-79.0750759999999957
0
LINE
8
BLACK
6
CONTINUOUS
10
36.8256249999999952
20
-79.0750759999999957
11
36.7303870000000003
21
-79.1703139999999905
0
LINE
8
BLACK
6
CONTINUOUS
10
36.7303870000000003
20
-79.1703139999999905
11
36.5399109999999965
21
-79.4560280000000034
0
LINE
8
BLACK
6
CONTINUOUS
10
36.5399109999999965
20
-79.4560280000000034
11
36.4446730000000017
21
-79.8369799999999969
0
LINE
8
BLACK
6
CONTINUOUS
10
36.4446730000000017
20
-79.8369799999999969
11
36.4446730000000017
21
-80.5988849999999957
0
LINE
8
BLACK
6
CONTINUOUS
10
36.4446730000000017
20
-80.5988849999999957
11
36.5399109999999965
21
-80.7893609999999995
0
LINE
8
BLACK
6
CONTINUOUS
10
36.5399109999999965
20
-80.7893609999999995
11
36.6351489999999984
21
-80.8845999999999918
0
LINE
8
BLACK
6
CONTINUOUS
10
36.6351489999999984
20
-80.8845999999999918
11
36.8256249999999952
21
-80.9798380000000009
0
LINE
8
BLACK
6
CONTINUOUS
10
36.8256249999999952
20
-80.9798380000000009
11
37.2065780000000004
21
-80.9798380000000009
0
LINE
8
BLACK
6
CONTINUOUS
10
37.2065780000000004
20
-80.9798380000000009
11
37.3970539999999971
21
-80.8845999999999918
0
LINE
8
BLACK
6
CONTINUOUS
10
37.3970539999999971
20
-80.8845999999999918
11
37.4922919999999991
21
-80.7893609999999995
0
LINE
8
BLACK
6
CONTINUOUS
10
37.4922919999999991
20
-80.7893609999999995
11
37.587530000000001
21
-80.5988849999999957
0
LINE
8
BLACK
6
CONTINUOUS
10
37.587530000000001
20
-80.5988849999999957
11
37.587530000000001
21
-80.1226949999999931
0
LINE
8
BLACK
6
CONTINUOUS
10
37.587530000000001
20
-80.1226949999999931
11
37.4922919999999991
21
-79.9322190000000035
0
LINE
8
BLACK
6
CONTINUOUS
10
37.4922919999999991
20
-79.9322190000000035
11
37.3970539999999971
21
-79.8369799999999969
0
LINE
8
BLACK
6
CONTINUOUS
10
37.3970539999999971
20
-79.8369799999999969
11
37.2065780000000004
21
-79.7417420000000021
0
LINE
8
BLACK
6
CONTINUOUS
10
37.2065780000000004
20
-79.7417420000000021
11
36.8256249999999952
21
-79.7417420000000021
0
LINE
8
BLACK
6
CONTINUOUS
10
36.8256249999999952
20
-79.7417420000000021
11
36.6351489999999984
21
-79.8369799999999969
0
LINE
8
BLACK
6
CONTINUOUS
10
36.6351489999999984
20
-79.8369799999999969
11
36.5399109999999965
21
-79.9322190000000035
0
LINE
8
BLACK
6
CONTINUOUS
10
36.5399109999999965
20
-79.9322190000000035
11
36.4446730000000017
21
-80.1226949999999931
0
LINE
8
BLACK
6
CONTINUOUS
10
38.8256249999999952
20
-78.9798380000000009
11
39.0161019999999965
21
-78.9798380000000009
0
LINE
8
BLACK
6
CONTINUOUS
10
39.0161019999999965
20
-78.9798380000000009
11
39.2065780000000004
21
-79.0750759999999957
0
LINE
8
BLACK
6
CONTINUOUS
10
39.2065780000000004
20
-79.0750759999999957
11
39.3018159999999952
21
-79.1703139999999905
0
LINE
8
BLACK
6
CONTINUOUS
10
39.3018159999999952
20
-79.1703139999999905
11
39.3970539999999971
21
-79.3607899999999944
0
LINE
8
BLACK
6
CONTINUOUS
10
39.3970539999999971
20
-79.3607899999999944
11
39.4922919999999991
21
-79.7417420000000021
0
LINE
8
BLACK
6
CONTINUOUS
10
39.4922919999999991
20
-79.7417420000000021
11
39.4922919999999991
21
-80.2179330000000022
0
LINE
8
BLACK
6
CONTINUOUS
10
39.4922919999999991
20
-80.2179330000000022
11
39.3970539999999971
21
-80.5988849999999957
0
LINE
8
BLACK
6
CONTINUOUS
10
39.3970539999999971
20
-80.5988849999999957
11
39.3018159999999952
21
-80.7893609999999995
0
LINE
8
BLACK
6
CONTINUOUS
10
39.3018159999999952
20
-80.7893609999999995
11
39.2065780000000004
21
-80.8845999999999918
0
LINE
8
BLACK
6
CONTINUOUS
10
39.2065780000000004
20
-80.8845999999999918
11
39.0161019999999965
21
-80.9798380000000009
0
LINE
8
BLACK
6
CONTINUOUS
10
39.0161019999999965
20
-80.9798380000000009
11
38.8256249999999952
21
-80.9798380000000009
0
LINE
8
BLACK
6
CONTINUOUS
10
38.8256249999999952
20
-80.9798380000000009
11
38.6351489999999984
21
-80.8845999999999918
0
LINE
8
BLACK
6
CONTINUOUS
10
38.6351489999999984
20
-80.8845999999999918
11
38.5399109999999965
21
-80.7893609999999995
0
LINE
8
BLACK
6
CONTINUOUS
10
38.5399109999999965
20
-80.7893609999999995
11
38.4446730000000017
21
-80.5988849999999957
0
LINE
8
BLACK
6
CONTINUOUS
10
38.4446730000000017
20
-80.5988849999999957
11
38.3494349999999997
21
-80.2179330000000022
0
LINE
8
BLACK
6
CONTINUOUS
10
38.3494349999999997
20
-80.2179330000000022
11
38.3494349999999997
21
-79.7417420000000021
0
LINE
8
BLACK
6
CONTINUOUS
10
38.3494349999999997
20
-79.7417420000000021
11
38.4446730000000017
21
-79.3607899999999944
0
LINE
8
BLACK
6
CONTINUOUS
10
38.4446730000000017
20
-79.3607899999999944
11
38.5399109999999965
21
-79.1703139999999905
0
LINE
8
BLACK
6
CONTINUOUS
10
38.5399109999999965
20
-79.1703139999999905
11
38.6351489999999984
21
-79.0750759999999957
0
LINE
8
BLACK
6
CONTINUOUS
10
38.6351489999999984
20
-79.0750759999999957
11
38.8256249999999952
21
-78.9798380000000009
0
LINE
8
BLACK
6
CONTINUOUS
10
40.7303870000000003
20
-78.9798380000000009
11
40.9208640000000017
21
-78.9798380000000009
0
LINE
8
BLACK
6
CONTINUOUS
10
40.9208640000000017
20
-78.9798380000000009
11
41.1113399999999984
21
-79.0750759999999957
0
LINE
8
BLACK
6
CONTINUOUS
10
41.1113399999999984
20
-79.0750759999999957
11
41.2065780000000004
21
-79.1703139999999905
0
LINE
8
BLACK
6
CONTINUOUS
10
41.2065780000000004
20
-79.1703139999999905
11
41.3018159999999952
21
-79.3607899999999944
0
LINE
8
BLACK
6
CONTINUOUS
10
41.3018159999999952
20
-79.3607899999999944
11
41.3970539999999971
21
-79.7417420000000021
0
LINE
8
BLACK
6
CONTINUOUS
10
41.3970539999999971
20
-79.7417420000000021
11
41.3970539999999971
21
-80.2179330000000022
0
LINE
8
BLACK
6
CONTINUOUS
10
41.3970539999999971
20
-80.2179330000000022
11
41.3018159999999952
21
-80.5988849999999957
0
LINE
8
BLACK
6
CONTINUOUS
10
41.3018159999999952
20
-80.5988849999999957
11
41.2065780000000004
21
-80.7893609999999995
0
LINE
8
BLACK
6
CONTINUOUS
10
41.2065780000000004
20
-80.7893609999999995
11
41.1113399999999984
21
-80.8845999999999918
0
LINE
8
BLACK
6
CONTINUOUS
10
41.1113399999999984
20
-80.8845999999999918
11
40.9208640000000017
21
-80.9798380000000009
0
LINE
8
BLACK
6
CONTINUOUS
10
40.9208640000000017
20
-80.9798380000000009
11
40.7303870000000003
21
-80.9798380000000009
0
LINE
8
BLACK
6
CONTINUOUS
10
40.7303870000000003
20
-80.9798380000000009
11
40.5399109999999965
21
-80.8845999999999918
0
LINE
8
BLACK
6
CONTINUOUS
10
40.5399109999999965
20
-80.8845999999999918
11
40.4446730000000017
21
-80.7893609999999995
0
LINE
8
BLACK
6
CONTINUOUS
10
40.4446730000000017
20
-80.7893609999999995
11
40.3494349999999997
21
-80.5988849999999957
0
LINE
8
BLACK
6
CONTINUOUS
10
40.3494349999999997
20
-80.5988849999999957
11
40.2541969999999978
21
-80.2179330000000022
0
LINE
8
BLACK
6
CONTINUOUS
10
40.2541969999999978
20
-80.2179330000000022
11
40.2541969999999978
21
-79.7417420000000021
0
LINE
8
BLACK
6
CONTINUOUS
10
40.2541969999999978
20
-79.7417420000000021
11
40.3494349999999997
21
-79.3607899999999944
0
LINE
8
BLACK
6
CONTINUOUS
10
40.3494349999999997
20
-79.3607899999999944
11
40.4446730000000017
21
-79.1703139999999905
0
LINE
8
BLACK
6
CONTINUOUS
10
40.4446730000000017
20
-79.1703139999999905
11
40.5399109999999965
21
-79.0750759999999957
0
LINE
8
BLACK
6
CONTINUOUS
10
40.5399109999999965
20
-79.0750759999999957
11
40.7303870000000003
21
-78.9798380000000009
0
LINE
8
BLACK
6
CONTINUOUS
10
42.2541969999999978
20
-80.9798380000000009
11
42.2541969999999978
21
-79.6465039999999931
0
LINE
8
BLACK
6
CONTINUOUS
10
42.2541969999999978
20
-79.8369799999999969
11
42.3494349999999997
21
-79.7417420000000021
0
LINE
8
BLACK
6
CONTINUOUS
10
42.3494349999999997
20
-79.7417420000000021
11
42.5399109999999965
21
-79.6465039999999931
0
LINE
8
BLACK
6
CONTINUOUS
10
42.5399109999999965
20
-79.6465039999999931
11
42.8256259999999997
21
-79.6465039999999931
0
LINE
8
BLACK
6
CONTINUOUS
10
42.8256259999999997
20
-79.6465039999999931
11
43.0161019999999965
21
-79.7417420000000021
0
LINE
8
BLACK
6
CONTINUOUS
10
43.0161019999999965
20
-79.7417420000000021
11
43.1113399999999984
21
-79.9322190000000035
0
LINE
8
BLACK
6
CONTINUOUS
10
43.1113399999999984
20
-79.9322190000000035
11
43.1113399999999984
21
-80.9798380000000009
0
LINE
8
BLACK
6
CONTINUOUS
10
43.1113399999999984
20
-79.9322190000000035
11
43.2065780000000004
21
-79.7417420000000021
0
LINE
8
BLACK
6
CONTINUOUS
10
43.2065780000000004
20
-79.7417420000000021
11
43.3970539999999971
21
-79.6465039999999931
0
LINE
8
BLACK
6
CONTINUOUS
10
43.3970539999999971
20
-79.6465039999999931
11
43.6827679999999958
21
-79.6465039999999931
0
LINE
8
BLACK
6
CONTINUOUS
10
43.6827679999999958
20
-79.6465039999999931
11
43.8732449999999972
21
-79.7417420000000021
0
LINE
8
BLACK
6
CONTINUOUS
10
43.8732449999999972
20
-79.7417420000000021
11
43.9684829999999991
21
-79.9322190000000035
0
LINE
8
BLACK
6
CONTINUOUS
10
43.9684829999999991
20
-79.9322190000000035
11
43.9684829999999991
21
-80.9798380000000009
0
LINE
8
BLACK
6
CONTINUOUS
10
44.9208639999999946
20
-80.9798380000000009
11
44.9208639999999946
21
-79.6465039999999931
0
LINE
8
BLACK
6
CONTINUOUS
10
44.9208639999999946
20
-79.8369799999999969
11
45.0161019999999965
21
-79.7417420000000021
0
LINE
8
BLACK
6
CONTINUOUS
10
45.0161019999999965
20
-79.7417420000000021
11
45.2065780000000004
21
-79.6465039999999931
0
LINE
8
BLACK
6
CONTINUOUS
10
45.2065780000000004
20
-79.6465039999999931
11
45.4922929999999965
21
-79.6465039999999931
0
LINE
8
BLACK
6
CONTINUOUS
10
45.4922929999999965
20
-79.6465039999999931
11
45.6827690000000004
21
-79.7417420000000021
0
LINE
8
BLACK
6
CONTINUOUS
10
45.6827690000000004
20
-79.7417420000000021
11
45.7780069999999952
21
-79.9322190000000035
0
LINE
8
BLACK
6
CONTINUOUS
10
45.7780069999999952
20
-79.9322190000000035
11
45.7780069999999952
21
-80.9798380000000009
0
LINE
8
BLACK
6
CONTINUOUS
10
45.7780069999999952
20
-79.9322190000000035
11
45.8732449999999972
21
-79.7417420000000021
0
LINE
8
BLACK
6
CONTINUOUS
10
45.8732449999999972
20
-79.7417420000000021
11
46.063721000000001
21
-79.6465039999999931
0
LINE
8
BLACK
6
CONTINUOUS
10
46.063721000000001
20
-79.6465039999999931
11
46.3494349999999997
21
-79.6465039999999931
0
LINE
8
BLACK
6
CONTINUOUS
10
46.3494349999999997
20
-79.6465039999999931
11
46.5399120000000011
21
-79.7417420000000021
0
LINE
8
BLACK
6
CONTINUOUS
10
46.5399120000000011
20
-79.7417420000000021
11
46.6351499999999959
21
-79.9322190000000035
0
LINE
8
BLACK
6
CONTINUOUS
10
46.6351499999999959
20
-79.9322190000000035
11
46.6351499999999959
21
-80.9798380000000009
0
LINE
8
BLACK
6
CONTINUOUS
10
50.5399120000000011
20
-78.8845999999999918
11
48.8256269999999972
21
-81.4560279999999892
0
LINE
8
BLACK
6
CONTINUOUS
10
53.1113409999999959
20
-78.9798380000000009
11
53.3018179999999973
21
-78.9798380000000009
0
LINE
8
BLACK
6
CONTINUOUS
10
53.3018179999999973
20
-78.9798380000000009
11
53.4922940000000011
21
-79.0750759999999957
0
LINE
8
BLACK
6
CONTINUOUS
10
53.4922940000000011
20
-79.0750759999999957
11
53.5875319999999959
21
-79.1703139999999905
0
LINE
8
BLACK
6
CONTINUOUS
10
53.5875319999999959
20
-79.1703139999999905
11
53.6827699999999979
21
-79.3607899999999944
0
LINE
8
BLACK
6
CONTINUOUS
10
53.6827699999999979
20
-79.3607899999999944
11
53.7780079999999998
21
-79.7417420000000021
0
LINE
8
BLACK
6
CONTINUOUS
10
53.7780079999999998
20
-79.7417420000000021
11
53.7780079999999998
21
-80.2179330000000022
0
LINE
8
BLACK
6
CONTINUOUS
10
53.7780079999999998
20
-80.2179330000000022
11
53.6827699999999979
21
-80.5988849999999957
0
LINE
8
BLACK
6
CONTINUOUS
10
53.6827699999999979
20
-80.5988849999999957
11
53.5875319999999959
21
-80.7893609999999995
0
LINE
8
BLACK
6
CONTINUOUS
10
53.5875319999999959
20
-80.7893609999999995
11
53.4922940000000011
21
-80.8845999999999918
0
LINE
8
BLACK
6
CONTINUOUS
10
53.4922940000000011
20
-80.8845999999999918
11
53.3018179999999973
21
-80.9798380000000009
0
LINE
8
BLACK
6
CONTINUOUS
10
53.3018179999999973
20
-80.9798380000000009
11
53.1113409999999959
21
-80.9798380000000009
0
LINE
8
BLACK
6
CONTINUOUS
10
53.1113409999999959
20
-80.9798380000000009
11
52.9208649999999992
21
-80.8845999999999918
0
LINE
8
BLACK
6
CONTINUOUS
10
52.9208649999999992
20
-80.8845999999999918
11
52.8256269999999972
21
-80.7893609999999995
0
LINE
8
BLACK
6
CONTINUOUS
10
52.8256269999999972
20
-80.7893609999999995
11
52.7303889999999953
21
-80.5988849999999957
0
LINE
8
BLACK
6
CONTINUOUS
10
52.7303889999999953
20
-80.5988849999999957
11
52.6351510000000005
21
-80.2179330000000022
0
LINE
8
BLACK
6
CONTINUOUS
10
52.6351510000000005
20
-80.2179330000000022
11
52.6351510000000005
21
-79.7417420000000021
0
LINE
8
BLACK
6
CONTINUOUS
10
52.6351510000000005
20
-79.7417420000000021
11
52.7303889999999953
21
-79.3607899999999944
0
LINE
8
BLACK
6
CONTINUOUS
10
52.7303889999999953
20
-79.3607899999999944
11
52.8256269999999972
21
-79.1703139999999905
0
LINE
8
BLACK
6
CONTINUOUS
10
52.8256269999999972
20
-79.1703139999999905
11
52.9208649999999992
21
-79.0750759999999957
0
LINE
8
BLACK
6
CONTINUOUS
10
52.9208649999999992
20
-79.0750759999999957
11
53.1113409999999959
21
-78.9798380000000009
0
LINE
8
BLACK
6
CONTINUOUS
10
54.6351510000000005
20
-80.7893609999999995
11
54.7303889999999953
21
-80.8845999999999918
0
LINE
8
BLACK
6
CONTINUOUS
10
54.7303889999999953
20
-80.8845999999999918
11
54.6351510000000005
21
-80.9798380000000009
0
LINE
8
BLACK
6
CONTINUOUS
10
54.6351510000000005
20
-80.9798380000000009
11
54.5399129999999985
21
-80.8845999999999918
0
LINE
8
BLACK
6
CONTINUOUS
10
54.5399129999999985
20
-80.8845999999999918
11
54.6351510000000005
21
-80.7893609999999995
0
LINE
8
BLACK
6
CONTINUOUS
10
54.6351510000000005
20
-80.7893609999999995
11
54.6351510000000005
21
-80.9798380000000009
0
LINE
8
BLACK
6
CONTINUOUS
10
55.9684839999999966
20
-78.9798380000000009
11
56.1589609999999979
21
-78.9798380000000009
0
LINE
8
BLACK
6
CONTINUOUS
10
56.1589609999999979
20
-78.9798380000000009
11
56.3494369999999947
21
-79.0750759999999957
0
LINE
8
BLACK
6
CONTINUOUS
10
56.3494369999999947
20
-79.0750759999999957
11
56.4446749999999966
21
-79.1703139999999905
0
LINE
8
BLACK
6
CONTINUOUS
10
56.4446749999999966
20
-79.1703139999999905
11
56.5399129999999985
21
-79.3607899999999944
0
LINE
8
BLACK
6
CONTINUOUS
10
56.5399129999999985
20
-79.3607899999999944
11
56.6351510000000005
21
-79.7417420000000021
0
LINE
8
BLACK
6
CONTINUOUS
10
56.6351510000000005
20
-79.7417420000000021
11
56.6351510000000005
21
-80.2179330000000022
0
LINE
8
BLACK
6
CONTINUOUS
10
56.6351510000000005
20
-80.2179330000000022
11
56.5399129999999985
21
-80.5988849999999957
0
LINE
8
BLACK
6
CONTINUOUS
10
56.5399129999999985
20
-80.5988849999999957
11
56.4446749999999966
21
-80.7893609999999995
0
LINE
8
BLACK
6
CONTINUOUS
10
56.4446749999999966
20
-80.7893609999999995
11
56.3494369999999947
21
-80.8845999999999918
0
LINE
8
BLACK
6
CONTINUOUS
10
56.3494369999999947
20
-80.8845999999999918
11
56.1589609999999979
21
-80.9798380000000009
0
LINE
8
BLACK
6
CONTINUOUS
10
56.1589609999999979
20
-80.9798380000000009
11
55.9684839999999966
21
-80.9798380000000009
0
LINE
8
BLACK
6
CONTINUOUS
10
55.9684839999999966
20
-80.9798380000000009
11
55.7780079999999998
21
-80.8845999999999918
0
LINE
8
BLACK
6
CONTINUOUS
10
55.7780079999999998
20
-80.8845999999999918
11
55.6827699999999979
21
-80.7893609999999995
0
LINE
8
BLACK
6
CONTINUOUS
10
55.6827699999999979
20
-80.7893609999999995
11
55.5875319999999959
21
-80.5988849999999957
0
LINE
8
BLACK
6
CONTINUOUS
10
55.5875319999999959
20
-80.5988849999999957
11
55.492293999999994
21
-80.2179330000000022
0
LINE
8
BLACK
6
CONTINUOUS
10
55.492293999999994
20
-80.2179330000000022
11
55.492293999999994
21
-79.7417420000000021
0
LINE
8
BLACK
6
CONTINUOUS
10
55.492293999999994
20
-79.7417420000000021
11
55.5875319999999959
21
-79.3607899999999944
0
LINE
8
BLACK
6
CONTINUOUS
10
55.5875319999999959
20
-79.3607899999999944
11
55.6827699999999979
21
-79.1703139999999905
0
LINE
8
BLACK
6
CONTINUOUS
10
55.6827699999999979
20
-79.1703139999999905
11
55.7780079999999998
21
-79.0750759999999957
0
LINE
8
BLACK
6
CONTINUOUS
10
55.7780079999999998
20
-79.0750759999999957
11
55.9684839999999966
21
-78.9798380000000009
0
LINE
8
BLACK
6
CONTINUOUS
10
57.3970559999999992
20
-79.1703139999999905
11
57.492293999999994
21
-79.0750759999999957
0
LINE
8
BLACK
6
CONTINUOUS
10
57.492293999999994
20
-79.0750759999999957
11
57.6827699999999979
21
-78.9798380000000009
0
LINE
8
BLACK
6
CONTINUOUS
10
57.6827699999999979
20
-78.9798380000000009
11
58.1589609999999979
21
-78.9798380000000009
0
LINE
8
BLACK
6
CONTINUOUS
10
58.1589609999999979
20
-78.9798380000000009
11
58.3494369999999947
21
-79.0750759999999957
0
LINE
8
BLACK
6
CONTINUOUS
10
58.3494369999999947
20
-79.0750759999999957
11
58.4446749999999966
21
-79.1703139999999905
0
LINE
8
BLACK
6
CONTINUOUS
10
58.4446749999999966
20
-79.1703139999999905
11
58.5399129999999985
21
-79.3607899999999944
0
LINE
8
BLACK
6
CONTINUOUS
10
58.5399129999999985
20
-79.3607899999999944
11
58.5399129999999985
21
-79.5512659999999983
0
LINE
8
BLACK
6
CONTINUOUS
10
58.5399129999999985
20
-79.5512659999999983
11
58.4446749999999966
21
-79.8369799999999969
0
LINE
8
BLACK
6
CONTINUOUS
10
58.4446749999999966
20
-79.8369799999999969
11
57.3018179999999973
21
-80.9798380000000009
0
LINE
8
BLACK
6
CONTINUOUS
10
57.3018179999999973
20
-80.9798380000000009
11
58.5399129999999985
21
-80.9798380000000009
0
LINE
8
BLACK
6
CONTINUOUS
10
59.2065799999999953
20
-78.9798380000000009
11
60.4446749999999966
21
-78.9798380000000009
0
LINE
8
BLACK
6
CONTINUOUS
10
60.4446749999999966
20
-78.9798380000000009
11
59.7780079999999998
21
-79.7417420000000021
0
LINE
8
BLACK
6
CONTINUOUS
10
59.7780079999999998
20
-79.7417420000000021
11
60.063722999999996
21
-79.7417420000000021
0
LINE
8
BLACK
6
CONTINUOUS
10
60.063722999999996
20
-79.7417420000000021
11
60.2541989999999998
21
-79.8369799999999969
0
LINE
8
BLACK
6
CONTINUOUS
10
60.2541989999999998
20
-79.8369799999999969
11
60.3494369999999947
21
-79.9322190000000035
0
LINE
8
BLACK
6
CONTINUOUS
10
60.3494369999999947
20
-79.9322190000000035
11
60.4446749999999966
21
-80.1226949999999931
0
LINE
8
BLACK
6
CONTINUOUS
10
60.4446749999999966
20
-80.1226949999999931
11
60.4446749999999966
21
-80.5988849999999957
0
LINE
8
BLACK
6
CONTINUOUS
10
60.4446749999999966
20
-80.5988849999999957
11
60.3494369999999947
21
-80.7893609999999995
0
LINE
8
BLACK
6
CONTINUOUS
10
60.3494369999999947
20
-80.7893609999999995
11
60.2541989999999998
21
-80.8845999999999918
0
LINE
8
BLACK
6
CONTINUOUS
10
60.2541989999999998
20
-80.8845999999999918
11
60.063722999999996
21
-80.9798380000000009
0
LINE
8
BLACK
6
CONTINUOUS
10
60.063722999999996
20
-80.9798380000000009
11
59.492293999999994
21
-80.9798380000000009
0
LINE
8
BLACK
6
CONTINUOUS
10
59.492293999999994
20
-80.9798380000000009
11
59.3018179999999973
21
-80.8845999999999918
0
LINE
8
BLACK
6
CONTINUOUS
10
59.3018179999999973
20
-80.8845999999999918
11
59.2065799999999953
21
-80.7893609999999995
0
LINE
8
BLACK
6
CONTINUOUS
10
62.1589609999999979
20
-78.9798380000000009
11
61.7780079999999998
21
-78.9798380000000009
0
LINE
8
BLACK
6
CONTINUOUS
10
61.7780079999999998
20
-78.9798380000000009
11
61.5875319999999959
21
-79.0750759999999957
0
LINE
8
BLACK
6
CONTINUOUS
10
61.5875319999999959
20
-79.0750759999999957
11
61.492293999999994
21
-79.1703139999999905
0
LINE
8
BLACK
6
CONTINUOUS
10
61.492293999999994
20
-79.1703139999999905
11
61.3018179999999973
21
-79.4560280000000034
0
LINE
8
BLACK
6
CONTINUOUS
10
61.3018179999999973
20
-79.4560280000000034
11
61.2065799999999953
21
-79.8369799999999969
0
LINE
8
BLACK
6
CONTINUOUS
10
61.2065799999999953
20
-79.8369799999999969
11
61.2065799999999953
21
-80.5988849999999957
0
LINE
8
BLACK
6
CONTINUOUS
10
61.2065799999999953
20
-80.5988849999999957
11
61.3018179999999973
21
-80.7893609999999995
0
LINE
8
BLACK
6
CONTINUOUS
10
61.3018179999999973
20
-80.7893609999999995
11
61.3970559999999992
21
-80.8845999999999918
0
LINE
8
BLACK
6
CONTINUOUS
10
61.3970559999999992
20
-80.8845999999999918
11
61.5875319999999959
21
-80.9798380000000009
0
LINE
8
BLACK
6
CONTINUOUS
10
61.5875319999999959
20
-80.9798380000000009
11
61.968484999999994
21
-80.9798380000000009
0
LINE
8
BLACK
6
CONTINUOUS
10
61.968484999999994
20
-80.9798380000000009
11
62.1589609999999979
21
-80.8845999999999918
0
LINE
8
BLACK
6
CONTINUOUS
10
62.1589609999999979
20
-80.8845999999999918
11
62.2541989999999998
21
-80.7893609999999995
0
LINE
8
BLACK
6
CONTINUOUS
10
62.2541989999999998
20
-80.7893609999999995
11
62.3494369999999947
21
-80.5988849999999957
0
LINE
8
BLACK
6
CONTINUOUS
10
62.3494369999999947
20
-80.5988849999999957
11
62.3494369999999947
21
-80.1226949999999931
0
LINE
8
BLACK
6
CONTINUOUS
10
62.3494369999999947
20
-80.1226949999999931
11
62.2541989999999998
21
-79.9322190000000035
0
LINE
8
BLACK
6
CONTINUOUS
10
62.2541989999999998
20
-79.9322190000000035
11
62.1589609999999979
21
-79.8369799999999969
0
LINE
8
BLACK
6
CONTINUOUS
10
62.1589609999999979
20
-79.8369799999999969
11
61.968484999999994
21
-79.7417420000000021
0
LINE
8
BLACK
6
CONTINUOUS
10
61.968484999999994
20
-79.7417420000000021
11
61.5875319999999959
21
-79.7417420000000021
0
LINE
8
BLACK
6
CONTINUOUS
10
61.5875319999999959
20
-79.7417420000000021
11
61.3970559999999992
21
-79.8369799999999969
0
LINE
8
BLACK
6
CONTINUOUS
10
61.3970559999999992
20
-79.8369799999999969
11
61.3018179999999973
21
-79.9322190000000035
0
LINE
8
BLACK
6
CONTINUOUS
10
61.3018179999999973
20
-79.9322190000000035
11
61.2065799999999953
21
-80.1226949999999931
0
LINE
8
BLACK
6
CONTINUOUS
10
63.1113420000000005
20
-78.9798380000000009
11
63.1113420000000005
21
-79.3607899999999944
0
LINE
8
BLACK
6
CONTINUOUS
10
63.8732469999999992
20
-78.9798380000000009
11
63.8732469999999992
21
-79.3607899999999944
0
LINE
8
BLACK
6
CONTINUOUS
10
66.8256289999999922
20
-81.7417420000000021
11
66.7303899999999999
21
-81.6465039999999931
0
LINE
8
BLACK
6
CONTINUOUS
10
66.7303899999999999
20
-81.6465039999999931
11
66.539913999999996
21
-81.3607899999999944
0
LINE
8
BLACK
6
CONTINUOUS
10
66.539913999999996
20
-81.3607899999999944
11
66.4446760000000012
21
-81.1703139999999905
0
LINE
8
BLACK
6
CONTINUOUS
10
66.4446760000000012
20
-81.1703139999999905
11
66.3494379999999921
21
-80.8845999999999918
0
LINE
8
BLACK
6
CONTINUOUS
10
66.3494379999999921
20
-80.8845999999999918
11
66.2541999999999973
21
-80.4084089999999918
0
LINE
8
BLACK
6
CONTINUOUS
10
66.2541999999999973
20
-80.4084089999999918
11
66.2541999999999973
21
-80.0274569999999983
0
LINE
8
BLACK
6
CONTINUOUS
10
66.2541999999999973
20
-80.0274569999999983
11
66.3494379999999921
21
-79.5512659999999983
0
LINE
8
BLACK
6
CONTINUOUS
10
66.3494379999999921
20
-79.5512659999999983
11
66.4446760000000012
21
-79.2655519999999996
0
LINE
8
BLACK
6
CONTINUOUS
10
66.4446760000000012
20
-79.2655519999999996
11
66.539913999999996
21
-79.0750759999999957
0
LINE
8
BLACK
6
CONTINUOUS
10
66.539913999999996
20
-79.0750759999999957
11
66.7303899999999999
21
-78.7893609999999995
0
LINE
8
BLACK
6
CONTINUOUS
10
66.7303899999999999
20
-78.7893609999999995
11
66.8256289999999922
21
-78.6941229999999905
0
LINE
8
BLACK
6
CONTINUOUS
10
67.9684850000000012
20
-78.9798380000000009
11
68.1589620000000025
21
-78.9798380000000009
0
LINE
8
BLACK
6
CONTINUOUS
10
68.1589620000000025
20
-78.9798380000000009
11
68.3494379999999921
21
-79.0750759999999957
0
LINE
8
BLACK
6
CONTINUOUS
10
68.3494379999999921
20
-79.0750759999999957
11
68.4446760000000012
21
-79.1703139999999905
0
LINE
8
BLACK
6
CONTINUOUS
10
68.4446760000000012
20
-79.1703139999999905
11
68.539913999999996
21
-79.3607899999999944
0
LINE
8
BLACK
6
CONTINUOUS
10
68.539913999999996
20
-79.3607899999999944
11
68.6351519999999908
21
-79.7417420000000021
0
LINE
8
BLACK
6
CONTINUOUS
10
68.6351519999999908
20
-79.7417420000000021
11
68.6351519999999908
21
-80.2179330000000022
0
LINE
8
BLACK
6
CONTINUOUS
10
68.6351519999999908
20
-80.2179330000000022
11
68.539913999999996
21
-80.5988849999999957
0
LINE
8
BLACK
6
CONTINUOUS
10
68.539913999999996
20
-80.5988849999999957
11
68.4446760000000012
21
-80.7893609999999995
0
LINE
8
BLACK
6
CONTINUOUS
10
68.4446760000000012
20
-80.7893609999999995
11
68.3494379999999921
21
-80.8845999999999918
0
LINE
8
BLACK
6
CONTINUOUS
10
68.3494379999999921
20
-80.8845999999999918
11
68.1589620000000025
21
-80.9798380000000009
0
LINE
8
BLACK
6
CONTINUOUS
10
68.1589620000000025
20
-80.9798380000000009
11
67.9684850000000012
21
-80.9798380000000009
0
LINE
8
BLACK
6
CONTINUOUS
10
67.9684850000000012
20
-80.9798380000000009
11
67.7780089999999973
21
-80.8845999999999918
0
LINE
8
BLACK
6
CONTINUOUS
10
67.7780089999999973
20
-80.8845999999999918
11
67.6827710000000025
21
-80.7893609999999995
0
LINE
8
BLACK
6
CONTINUOUS
10
67.6827710000000025
20
-80.7893609999999995
11
67.5875329999999934
21
-80.5988849999999957
0
LINE
8
BLACK
6
CONTINUOUS
10
67.5875329999999934
20
-80.5988849999999957
11
67.4922949999999986
21
-80.2179330000000022
0
LINE
8
BLACK
6
CONTINUOUS
10
67.4922949999999986
20
-80.2179330000000022
11
67.4922949999999986
21
-79.7417420000000021
0
LINE
8
BLACK
6
CONTINUOUS
10
67.4922949999999986
20
-79.7417420000000021
11
67.5875329999999934
21
-79.3607899999999944
0
LINE
8
BLACK
6
CONTINUOUS
10
67.5875329999999934
20
-79.3607899999999944
11
67.6827710000000025
21
-79.1703139999999905
0
LINE
8
BLACK
6
CONTINUOUS
10
67.6827710000000025
20
-79.1703139999999905
11
67.7780089999999973
21
-79.0750759999999957
0
LINE
8
BLACK
6
CONTINUOUS
10
67.7780089999999973
20
-79.0750759999999957
11
67.9684850000000012
21
-78.9798380000000009
0
LINE
8
BLACK
6
CONTINUOUS
10
71.016104999999996
20
-80.9798380000000009
11
71.016104999999996
21
-78.9798380000000009
0
LINE
8
BLACK
6
CONTINUOUS
10
71.8732480000000038
20
-80.9798380000000009
11
71.8732480000000038
21
-79.9322190000000035
0
LINE
8
BLACK
6
CONTINUOUS
10
71.8732480000000038
20
-79.9322190000000035
11
71.7780099999999948
21
-79.7417420000000021
0
LINE
8
BLACK
6
CONTINUOUS
10
71.7780099999999948
20
-79.7417420000000021
11
71.5875339999999909
21
-79.6465039999999931
0
LINE
8
BLACK
6
CONTINUOUS
10
71.5875339999999909
20
-79.6465039999999931
11
71.3018189999999947
21
-79.6465039999999931
0
LINE
8
BLACK
6
CONTINUOUS
10
71.3018189999999947
20
-79.6465039999999931
11
71.1113429999999909
21
-79.7417420000000021
0
LINE
8
BLACK
6
CONTINUOUS
10
71.1113429999999909
20
-79.7417420000000021
11
71.016104999999996
21
-79.8369799999999969
0
LINE
8
BLACK
6
CONTINUOUS
10
73.1113429999999909
20
-80.9798380000000009
11
72.9208670000000012
21
-80.8845999999999918
0
LINE
8
BLACK
6
CONTINUOUS
10
72.9208670000000012
20
-80.8845999999999918
11
72.8256289999999922
21
-80.7893609999999995
0
LINE
8
BLACK
6
CONTINUOUS
10
72.8256289999999922
20
-80.7893609999999995
11
72.7303909999999973
21
-80.5988849999999957
0
LINE
8
BLACK
6
CONTINUOUS
10
72.7303909999999973
20
-80.5988849999999957
11
72.7303909999999973
21
-80.0274569999999983
0
LINE
8
BLACK
6
CONTINUOUS
10
72.7303909999999973
20
-80.0274569999999983
11
72.8256289999999922
21
-79.8369799999999969
0
LINE
8
BLACK
6
CONTINUOUS
10
72.8256289999999922
20
-79.8369799999999969
11
72.9208670000000012
21
-79.7417420000000021
0
LINE
8
BLACK
6
CONTINUOUS
10
72.9208670000000012
20
-79.7417420000000021
11
73.1113429999999909
21
-79.6465039999999931
0
LINE
8
BLACK
6
CONTINUOUS
10
73.1113429999999909
20
-79.6465039999999931
11
73.3970580000000012
21
-79.6465039999999931
0
LINE
8
BLACK
6
CONTINUOUS
10
73.3970580000000012
20
-79.6465039999999931
11
73.5875339999999909
21
-79.7417420000000021
0
LINE
8
BLACK
6
CONTINUOUS
10
73.5875339999999909
20
-79.7417420000000021
11
73.6827719999999999
21
-79.8369799999999969
0
LINE
8
BLACK
6
CONTINUOUS
10
73.6827719999999999
20
-79.8369799999999969
11
73.7780099999999948
21
-80.0274569999999983
0
LINE
8
BLACK
6
CONTINUOUS
10
73.7780099999999948
20
-80.0274569999999983
11
73.7780099999999948
21
-80.5988849999999957
0
LINE
8
BLACK
6
CONTINUOUS
10
73.7780099999999948
20
-80.5988849999999957
11
73.6827719999999999
21
-80.7893609999999995
0
LINE
8
BLACK
6
CONTINUOUS
10
73.6827719999999999
20
-80.7893609999999995
11
73.5875339999999909
21
-80.8845999999999918
0
LINE
8
BLACK
6
CONTINUOUS
10
73.5875339999999909
20
-80.8845999999999918
11
73.3970580000000012
21
-80.9798380000000009
0
LINE
8
BLACK
6
CONTINUOUS
10
73.3970580000000012
20
-80.9798380000000009
11
73.1113429999999909
21
-80.9798380000000009
0
LINE
8
BLACK
6
CONTINUOUS
10
74.9208670000000012
20
-80.9798380000000009
11
74.7303909999999973
21
-80.8845999999999918
0
LINE
8
BLACK
6
CONTINUOUS
10
74.7303909999999973
20
-80.8845999999999918
11
74.6351530000000025
21
-80.6941229999999905
0
LINE
8
BLACK
6
CONTINUOUS
10
74.6351530000000025
20
-80.6941229999999905
11
74.6351530000000025
21
-78.9798380000000009
0
LINE
8
BLACK
6
CONTINUOUS
10
76.4446769999999987
20
-80.8845999999999918
11
76.2542009999999948
21
-80.9798380000000009
0
LINE
8
BLACK
6
CONTINUOUS
10
76.2542009999999948
20
-80.9798380000000009
11
75.8732479999999896
21
-80.9798380000000009
0
LINE
8
BLACK
6
CONTINUOUS
10
75.8732479999999896
20
-80.9798380000000009
11
75.6827719999999999
21
-80.8845999999999918
0
LINE
8
BLACK
6
CONTINUOUS
10
75.6827719999999999
20
-80.8845999999999918
11
75.5875339999999909
21
-80.6941229999999905
0
LINE
8
BLACK
6
CONTINUOUS
10
75.5875339999999909
20
-80.6941229999999905
11
75.5875339999999909
21
-79.9322190000000035
0
LINE
8
BLACK
6
CONTINUOUS
10
75.5875339999999909
20
-79.9322190000000035
11
75.6827719999999999
21
-79.7417420000000021
0
LINE
8
BLACK
6
CONTINUOUS
10
75.6827719999999999
20
-79.7417420000000021
11
75.8732479999999896
21
-79.6465039999999931
0
LINE
8
BLACK
6
CONTINUOUS
10
75.8732479999999896
20
-79.6465039999999931
11
76.2542009999999948
21
-79.6465039999999931
0
LINE
8
BLACK
6
CONTINUOUS
10
76.2542009999999948
20
-79.6465039999999931
11
76.4446769999999987
21
-79.7417420000000021
0
LINE
8
BLACK
6
CONTINUOUS
10
76.4446769999999987
20
-79.7417420000000021
11
76.5399149999999935
21
-79.9322190000000035
0
LINE
8
BLACK
6
CONTINUOUS
10
76.5399149999999935
20
-79.9322190000000035
11
76.5399149999999935
21
-80.1226949999999931
0
LINE
8
BLACK
6
CONTINUOUS
10
76.5399149999999935
20
-80.1226949999999931
11
75.5875339999999909
21
-80.313170999999997
0
LINE
8
BLACK
6
CONTINUOUS
10
77.3018199999999922
20
-80.8845999999999918
11
77.4922959999999961
21
-80.9798380000000009
0
LINE
8
BLACK
6
CONTINUOUS
10
77.4922959999999961
20
-80.9798380000000009
11
77.8732479999999896
21
-80.9798380000000009
0
LINE
8
BLACK
6
CONTINUOUS
10
77.8732479999999896
20
-80.9798380000000009
11
78.0637249999999909
21
-80.8845999999999918
0
LINE
8
BLACK
6
CONTINUOUS
10
78.0637249999999909
20
-80.8845999999999918
11
78.158963
21
-80.6941229999999905
0
LINE
8
BLACK
6
CONTINUOUS
10
78.158963
20
-80.6941229999999905
11
78.158963
21
-80.5988849999999957
0
LINE
8
BLACK
6
CONTINUOUS
10
78.158963
20
-80.5988849999999957
11
78.0637249999999909
21
-80.4084089999999918
0
LINE
8
BLACK
6
CONTINUOUS
10
78.0637249999999909
20
-80.4084089999999918
11
77.8732479999999896
21
-80.313170999999997
0
LINE
8
BLACK
6
CONTINUOUS
10
77.8732479999999896
20
-80.313170999999997
11
77.5875339999999909
21
-80.313170999999997
0
LINE
8
BLACK
6
CONTINUOUS
10
77.5875339999999909
20
-80.313170999999997
11
77.3970580000000012
21
-80.2179330000000022
0
LINE
8
BLACK
6
CONTINUOUS
10
77.3970580000000012
20
-80.2179330000000022
11
77.3018199999999922
21
-80.0274569999999983
0
LINE
8
BLACK
6
CONTINUOUS
10
77.3018199999999922
20
-80.0274569999999983
11
77.3018199999999922
21
-79.9322190000000035
0
LINE
8
BLACK
6
CONTINUOUS
10
77.3018199999999922
20
-79.9322190000000035
11
77.3970580000000012
21
-79.7417420000000021
0
LINE
8
BLACK
6
CONTINUOUS
10
77.3970580000000012
20
-79.7417420000000021
11
77.5875339999999909
21
-79.6465039999999931
0
LINE
8
BLACK
6
CONTINUOUS
10
77.5875339999999909
20
-79.6465039999999931
11
77.8732479999999896
21
-79.6465039999999931
0
LINE
8
BLACK
6
CONTINUOUS
10
77.8732479999999896
20
-79.6465039999999931
11
78.0637249999999909
21
-79.7417420000000021
0
LINE
8
BLACK
6
CONTINUOUS
10
80.539915999999991
20
-80.2179330000000022
11
82.0637260000000026
21
-80.2179330000000022
0
LINE
8
BLACK
6
CONTINUOUS
10
81.3018209999999897
20
-80.9798380000000009
11
81.3018209999999897
21
-79.4560280000000034
0
LINE
8
BLACK
6
CONTINUOUS
10
85.3970589999999987
20
-79.6465039999999931
11
85.3970589999999987
21
-80.9798380000000009
0
LINE
8
BLACK
6
CONTINUOUS
10
84.9208679999999987
20
-78.8845999999999918
11
84.4446779999999961
21
-80.313170999999997
0
LINE
8
BLACK
6
CONTINUOUS
10
84.4446779999999961
20
-80.313170999999997
11
85.6827729999999974
21
-80.313170999999997
0
LINE
8
BLACK
6
CONTINUOUS
10
87.8732499999999987
20
-80.8845999999999918
11
88.0637260000000026
21
-80.9798380000000009
0
LINE
8
BLACK
6
CONTINUOUS
10
88.0637260000000026
20
-80.9798380000000009
11
88.4446779999999961
21
-80.9798380000000009
0
LINE
8
BLACK
6
CONTINUOUS
10
88.4446779999999961
20
-80.9798380000000009
11
88.6351549999999975
21
-80.8845999999999918
0
LINE
8
BLACK
6
CONTINUOUS
10
88.6351549999999975
20
-80.8845999999999918
11
88.7303929999999923
21
-80.6941229999999905
0
LINE
8
BLACK
6
CONTINUOUS
10
88.7303929999999923
20
-80.6941229999999905
11
88.7303929999999923
21
-80.5988849999999957
0
LINE
8
BLACK
6
CONTINUOUS
10
88.7303929999999923
20
-80.5988849999999957
11
88.6351549999999975
21
-80.4084089999999918
0
LINE
8
BLACK
6
CONTINUOUS
10
88.6351549999999975
20
-80.4084089999999918
11
88.4446779999999961
21
-80.313170999999997
0
LINE
8
BLACK
6
CONTINUOUS
10
88.4446779999999961
20
-80.313170999999997
11
88.1589639999999974
21
-80.313170999999997
0
LINE
8
BLACK
6
CONTINUOUS
10
88.1589639999999974
20
-80.313170999999997
11
87.9684879999999936
21
-80.2179330000000022
0
LINE
8
BLACK
6
CONTINUOUS
10
87.9684879999999936
20
-80.2179330000000022
11
87.8732499999999987
21
-80.0274569999999983
0
LINE
8
BLACK
6
CONTINUOUS
10
87.8732499999999987
20
-80.0274569999999983
11
87.8732499999999987
21
-79.9322190000000035
0
LINE
8
BLACK
6
CONTINUOUS
10
87.8732499999999987
20
-79.9322190000000035
11
87.9684879999999936
21
-79.7417420000000021
0
LINE
8
BLACK
6
CONTINUOUS
10
87.9684879999999936
20
-79.7417420000000021
11
88.1589639999999974
21
-79.6465039999999931
0
LINE
8
BLACK
6
CONTINUOUS
10
88.1589639999999974
20
-79.6465039999999931
11
88.4446779999999961
21
-79.6465039999999931
0
LINE
8
BLACK
6
CONTINUOUS
10
88.4446779999999961
20
-79.6465039999999931
11
88.6351549999999975
21
-79.7417420000000021
0
LINE
8
BLACK
6
CONTINUOUS
10
89.8732499999999987
20
-80.9798380000000009
11
89.6827739999999949
21
-80.8845999999999918
0
LINE
8
BLACK
6
CONTINUOUS
10
89.6827739999999949
20
-80.8845999999999918
11
89.5875360000000001
21
-80.6941229999999905
0
LINE
8
BLACK
6
CONTINUOUS
10
89.5875360000000001
20
-80.6941229999999905
11
89.5875360000000001
21
-78.9798380000000009
0
LINE
8
BLACK
6
CONTINUOUS
10
90.9208689999999962
20
-80.9798380000000009
11
90.7303929999999923
21
-80.8845999999999918
0
LINE
8
BLACK
6
CONTINUOUS
10
90.7303929999999923
20
-80.8845999999999918
11
90.6351549999999975
21
-80.7893609999999995
0
LINE
8
BLACK
6
CONTINUOUS
10
90.6351549999999975
20
-80.7893609999999995
11
90.5399170000000026
21
-80.5988849999999957
0
LINE
8
BLACK
6
CONTINUOUS
10
90.5399170000000026
20
-80.5988849999999957
11
90.5399170000000026
21
-80.0274569999999983
0
LINE
8
BLACK
6
CONTINUOUS
10
90.5399170000000026
20
-80.0274569999999983
11
90.6351549999999975
21
-79.8369799999999969
0
LINE
8
BLACK
6
CONTINUOUS
10
90.6351549999999975
20
-79.8369799999999969
11
90.7303929999999923
21
-79.7417420000000021
0
LINE
8
BLACK
6
CONTINUOUS
10
90.7303929999999923
20
-79.7417420000000021
11
90.9208689999999962
21
-79.6465039999999931
0
LINE
8
BLACK
6
CONTINUOUS
10
90.9208689999999962
20
-79.6465039999999931
11
91.2065839999999923
21
-79.6465039999999931
0
LINE
8
BLACK
6
CONTINUOUS
10
91.2065839999999923
20
-79.6465039999999931
11
91.3970599999999962
21
-79.7417420000000021
0
LINE
8
BLACK
6
CONTINUOUS
10
91.3970599999999962
20
-79.7417420000000021
11
91.492297999999991
21
-79.8369799999999969
0
LINE
8
BLACK
6
CONTINUOUS
10
91.492297999999991
20
-79.8369799999999969
11
91.5875360000000001
21
-80.0274569999999983
0
LINE
8
BLACK
6
CONTINUOUS
10
91.5875360000000001
20
-80.0274569999999983
11
91.5875360000000001
21
-80.5988849999999957
0
LINE
8
BLACK
6
CONTINUOUS
10
91.5875360000000001
20
-80.5988849999999957
11
91.492297999999991
21
-80.7893609999999995
0
LINE
8
BLACK
6
CONTINUOUS
10
91.492297999999991
20
-80.7893609999999995
11
91.3970599999999962
21
-80.8845999999999918
0
LINE
8
BLACK
6
CONTINUOUS
10
91.3970599999999962
20
-80.8845999999999918
11
91.2065839999999923
21
-80.9798380000000009
0
LINE
8
BLACK
6
CONTINUOUS
10
91.2065839999999923
20
-80.9798380000000009
11
90.9208689999999962
21
-80.9798380000000009
0
LINE
8
BLACK
6
CONTINUOUS
10
92.1589649999999949
20
-79.6465039999999931
11
92.9208689999999962
21
-79.6465039999999931
0
LINE
8
BLACK
6
CONTINUOUS
10
92.4446789999999936
20
-78.9798380000000009
11
92.4446789999999936
21
-80.6941229999999905
0
LINE
8
BLACK
6
CONTINUOUS
10
92.4446789999999936
20
-80.6941229999999905
11
92.5399170000000026
21
-80.8845999999999918
0
LINE
8
BLACK
6
CONTINUOUS
10
92.5399170000000026
20
-80.8845999999999918
11
92.7303929999999923
21
-80.9798380000000009
0
LINE
8
BLACK
6
CONTINUOUS
10
92.7303929999999923
20
-80.9798380000000009
11
92.9208689999999962
21
-80.9798380000000009
0
LINE
8
BLACK
6
CONTINUOUS
10
93.492297999999991
20
-80.8845999999999918
11
93.6827739999999949
21
-80.9798380000000009
0
LINE
8
BLACK
6
CONTINUOUS
10
93.6827739999999949
20
-80.9798380000000009
11
94.0637260000000026
21
-80.9798380000000009
0
LINE
8
BLACK
6
CONTINUOUS
10
94.0637260000000026
20
-80.9798380000000009
11
94.2542029999999897
21
-80.8845999999999918
0
LINE
8
BLACK
6
CONTINUOUS
10
94.2542029999999897
20
-80.8845999999999918
11
94.3494409999999988
21
-80.6941229999999905
0
LINE
8
BLACK
6
CONTINUOUS
10
94.3494409999999988
20
-80.6941229999999905
11
94.3494409999999988
21
-80.5988849999999957
0
LINE
8
BLACK
6
CONTINUOUS
10
94.3494409999999988
20
-80.5988849999999957
11
94.2542029999999897
21
-80.4084089999999918
0
LINE
8
BLACK
6
CONTINUOUS
10
94.2542029999999897
20
-80.4084089999999918
11
94.0637260000000026
21
-80.313170999999997
0
LINE
8
BLACK
6
CONTINUOUS
10
94.0637260000000026
20
-80.313170999999997
11
93.7780119999999897
21
-80.313170999999997
0
LINE
8
BLACK
6
CONTINUOUS
10
93.7780119999999897
20
-80.313170999999997
11
93.5875360000000001
21
-80.2179330000000022
0
LINE
8
BLACK
6
CONTINUOUS
10
93.5875360000000001
20
-80.2179330000000022
11
93.492297999999991
21
-80.0274569999999983
0
LINE
8
BLACK
6
CONTINUOUS
10
93.492297999999991
20
-80.0274569999999983
11
93.492297999999991
21
-79.9322190000000035
0
LINE
8
BLACK
6
CONTINUOUS
10
93.492297999999991
20
-79.9322190000000035
11
93.5875360000000001
21
-79.7417420000000021
0
LINE
8
BLACK
6
CONTINUOUS
10
93.5875360000000001
20
-79.7417420000000021
11
93.7780119999999897
21
-79.6465039999999931
0
LINE
8
BLACK
6
CONTINUOUS
10
93.7780119999999897
20
-79.6465039999999931
11
94.0637260000000026
21
-79.6465039999999931
0
LINE
8
BLACK
6
CONTINUOUS
10
94.0637260000000026
20
-79.6465039999999931
11
94.2542029999999897
21
-79.7417420000000021
0
LINE
8
BLACK
6
CONTINUOUS
10
95.0161080000000027
20
-81.7417420000000021
11
95.1113459999999975
21
-81.6465039999999931
0
LINE
8
BLACK
6
CONTINUOUS
10
95.1113459999999975
20
-81.6465039999999931
11
95.3018220000000014
21
-81.3607899999999944
0
LINE
8
BLACK
6
CONTINUOUS
10
95.3018220000000014
20
-81.3607899999999944
11
95.3970599999999962
21
-81.1703139999999905
0
LINE
8
BLACK
6
CONTINUOUS
10
95.3970599999999962
20
-81.1703139999999905
11
95.492297999999991
21
-80.8845999999999918
0
LINE
8
BLACK
6
CONTINUOUS
10
95.492297999999991
20
-80.8845999999999918
11
95.5875360000000001
21
-80.4084089999999918
0
LINE
8
BLACK
6
CONTINUOUS
10
95.5875360000000001
20
-80.4084089999999918
11
95.5875360000000001
21
-80.0274569999999983
0
LINE
8
BLACK
6
CONTINUOUS
10
95.5875360000000001
20
-80.0274569999999983
11
95.492297999999991
21
-79.5512659999999983
0
LINE
8
BLACK
6
CONTINUOUS
10
95.492297999999991
20
-79.5512659999999983
11
95.3970599999999962
21
-79.2655519999999996
0
LINE
8
BLACK
6
CONTINUOUS
10
95.3970599999999962
20
-79.2655519999999996
11
95.3018220000000014
21
-79.0750759999999957
0
LINE
8
BLACK
6
CONTINUOUS
10
95.3018220000000014
20
-79.0750759999999957
11
95.1113459999999975
21
-78.7893609999999995
0
LINE
8
BLACK
6
CONTINUOUS
10
95.1113459999999975
20
-78.7893609999999995
11
95.0161080000000027
21
-78.6941229999999905
  0
ENDSEC
  0
EOF
