%TF.GenerationSoftware,KiCad,Pcbnew,8.0.2-1*%
%TF.CreationDate,2025-04-12T14:57:52-07:00*%
%TF.ProjectId,Small_Pendant,536d616c-6c5f-4506-956e-64616e742e6b,rev?*%
%TF.SameCoordinates,Original*%
%TF.FileFunction,Copper,L4,Bot*%
%TF.FilePolarity,Positive*%
%FSLAX46Y46*%
G04 Gerber Fmt 4.6, Leading zero omitted, Abs format (unit mm)*
G04 Created by KiCad (PCBNEW 8.0.2-1) date 2025-04-12 14:57:52*
%MOMM*%
%LPD*%
G01*
G04 APERTURE LIST*
G04 Aperture macros list*
%AMRoundRect*
0 Rectangle with rounded corners*
0 $1 Rounding radius*
0 $2 $3 $4 $5 $6 $7 $8 $9 X,Y pos of 4 corners*
0 Add a 4 corners polygon primitive as box body*
4,1,4,$2,$3,$4,$5,$6,$7,$8,$9,$2,$3,0*
0 Add four circle primitives for the rounded corners*
1,1,$1+$1,$2,$3*
1,1,$1+$1,$4,$5*
1,1,$1+$1,$6,$7*
1,1,$1+$1,$8,$9*
0 Add four rect primitives between the rounded corners*
20,1,$1+$1,$2,$3,$4,$5,0*
20,1,$1+$1,$4,$5,$6,$7,0*
20,1,$1+$1,$6,$7,$8,$9,0*
20,1,$1+$1,$8,$9,$2,$3,0*%
%AMFreePoly0*
4,1,14,0.765355,0.765355,0.780000,0.730000,0.780000,-0.720000,0.765355,-0.755355,0.730000,-0.770000,-0.120000,-0.770000,-0.155355,-0.755355,-0.755355,-0.155355,-0.770000,-0.120000,-0.770000,0.730000,-0.755355,0.765355,-0.720000,0.780000,0.730000,0.780000,0.765355,0.765355,0.765355,0.765355,$1*%
G04 Aperture macros list end*
%TA.AperFunction,Conductor*%
%ADD10C,0.200000*%
%TD*%
%TA.AperFunction,SMDPad,CuDef*%
%ADD11C,1.000000*%
%TD*%
%TA.AperFunction,ComponentPad*%
%ADD12O,1.000000X2.100000*%
%TD*%
%TA.AperFunction,ComponentPad*%
%ADD13O,1.000000X1.600000*%
%TD*%
%TA.AperFunction,SMDPad,CuDef*%
%ADD14RoundRect,0.140000X-0.140000X-0.170000X0.140000X-0.170000X0.140000X0.170000X-0.140000X0.170000X0*%
%TD*%
%TA.AperFunction,SMDPad,CuDef*%
%ADD15RoundRect,0.135000X0.135000X0.185000X-0.135000X0.185000X-0.135000X-0.185000X0.135000X-0.185000X0*%
%TD*%
%TA.AperFunction,SMDPad,CuDef*%
%ADD16R,0.800000X0.400000*%
%TD*%
%TA.AperFunction,SMDPad,CuDef*%
%ADD17R,0.400000X0.800000*%
%TD*%
%TA.AperFunction,SMDPad,CuDef*%
%ADD18R,1.450000X1.450000*%
%TD*%
%TA.AperFunction,SMDPad,CuDef*%
%ADD19FreePoly0,180.000000*%
%TD*%
%TA.AperFunction,SMDPad,CuDef*%
%ADD20R,0.700000X0.700000*%
%TD*%
%TA.AperFunction,SMDPad,CuDef*%
%ADD21RoundRect,0.140000X0.140000X0.170000X-0.140000X0.170000X-0.140000X-0.170000X0.140000X-0.170000X0*%
%TD*%
%TA.AperFunction,SMDPad,CuDef*%
%ADD22R,0.620000X1.100000*%
%TD*%
%TA.AperFunction,SMDPad,CuDef*%
%ADD23R,0.500000X0.500000*%
%TD*%
%TA.AperFunction,SMDPad,CuDef*%
%ADD24RoundRect,0.185000X0.185000X-0.915000X0.185000X0.915000X-0.185000X0.915000X-0.185000X-0.915000X0*%
%TD*%
%TA.AperFunction,SMDPad,CuDef*%
%ADD25RoundRect,0.190000X0.190000X1.060000X-0.190000X1.060000X-0.190000X-1.060000X0.190000X-1.060000X0*%
%TD*%
%TA.AperFunction,SMDPad,CuDef*%
%ADD26RoundRect,0.185000X-0.185000X1.115000X-0.185000X-1.115000X0.185000X-1.115000X0.185000X1.115000X0*%
%TD*%
%TA.AperFunction,SMDPad,CuDef*%
%ADD27RoundRect,0.185000X-0.185000X0.915000X-0.185000X-0.915000X0.185000X-0.915000X0.185000X0.915000X0*%
%TD*%
%TA.AperFunction,SMDPad,CuDef*%
%ADD28RoundRect,0.135000X0.185000X-0.135000X0.185000X0.135000X-0.185000X0.135000X-0.185000X-0.135000X0*%
%TD*%
%TA.AperFunction,SMDPad,CuDef*%
%ADD29R,0.200000X0.350000*%
%TD*%
%TA.AperFunction,ViaPad*%
%ADD30C,0.600000*%
%TD*%
%TA.AperFunction,Conductor*%
%ADD31C,0.500000*%
%TD*%
%TA.AperFunction,Conductor*%
%ADD32C,0.150000*%
%TD*%
%TA.AperFunction,Conductor*%
%ADD33C,0.250000*%
%TD*%
%TA.AperFunction,Conductor*%
%ADD34C,0.100000*%
%TD*%
G04 APERTURE END LIST*
D10*
%TO.N,Earth*%
X74900000Y-69000000D02*
X74200000Y-68300000D01*
X74900000Y-67600000D01*
X74900000Y-69000000D01*
%TA.AperFunction,Conductor*%
G36*
X74900000Y-69000000D02*
G01*
X74200000Y-68300000D01*
X74900000Y-67600000D01*
X74900000Y-69000000D01*
G37*
%TD.AperFunction*%
%TD*%
D11*
%TO.P,REF\u002A\u002A,*%
%TO.N,*%
X34000000Y-34000000D03*
%TD*%
%TO.P,REF\u002A\u002A,*%
%TO.N,*%
X34000000Y-96000000D03*
%TD*%
%TO.P,REF\u002A\u002A,*%
%TO.N,*%
X101000000Y-96000000D03*
%TD*%
%TO.P,REF\u002A\u002A,*%
%TO.N,*%
X101000000Y-34000000D03*
%TD*%
D12*
%TO.P,J1,S1,SHIELD*%
%TO.N,unconnected-(J1-SHIELD-PadS1)*%
X80680000Y-72590000D03*
%TO.P,J1,S2,SHIELD*%
%TO.N,unconnected-(J1-SHIELD-PadS2)*%
X89320000Y-72590000D03*
D13*
%TO.P,J1,S3,SHIELD*%
%TO.N,unconnected-(J1-SHIELD-PadS3)*%
X89320000Y-76770000D03*
%TO.P,J1,S4,SHIELD*%
%TO.N,unconnected-(J1-SHIELD-PadS4)*%
X80680000Y-76770000D03*
%TD*%
D14*
%TO.P,C20,1*%
%TO.N,+5VL*%
X40520000Y-59000000D03*
%TO.P,C20,2*%
%TO.N,GND*%
X41480000Y-59000000D03*
%TD*%
D15*
%TO.P,R12,1*%
%TO.N,Net-(J5-Pin_3)*%
X56510000Y-57500000D03*
%TO.P,R12,2*%
%TO.N,DATA_IN*%
X55490000Y-57500000D03*
%TD*%
D16*
%TO.P,U1,1,GND*%
%TO.N,Earth*%
X90900000Y-61000000D03*
%TO.P,U1,2,GND*%
X90900000Y-61800000D03*
%TO.P,U1,3,3V3*%
%TO.N,+3V3*%
X90900000Y-62600000D03*
%TO.P,U1,4,NC*%
%TO.N,unconnected-(U1-NC-Pad4)*%
X90900000Y-63400000D03*
%TO.P,U1,5,GPIO2/ADC1_CH2*%
%TO.N,SDA*%
X90900000Y-64200000D03*
%TO.P,U1,6,GPIO3/ADC1_CH3*%
%TO.N,SCL*%
X90900000Y-65000000D03*
%TO.P,U1,7,NC*%
%TO.N,unconnected-(U1-NC-Pad7)*%
X90900000Y-65800000D03*
%TO.P,U1,8,EN/CHIP_PU*%
%TO.N,CHIP_EN*%
X90900000Y-66600000D03*
%TO.P,U1,9,NC*%
%TO.N,unconnected-(U1-NC-Pad9)*%
X90900000Y-67400000D03*
%TO.P,U1,10,NC*%
%TO.N,unconnected-(U1-NC-Pad10)*%
X90900000Y-68200000D03*
%TO.P,U1,11,GND*%
%TO.N,Earth*%
X90900000Y-69000000D03*
D17*
%TO.P,U1,12,GPIO0/ADC1_CH0/XTAL_32K_P*%
%TO.N,USR_BTN*%
X89800000Y-69900000D03*
%TO.P,U1,13,GPIO1/ADC1_CH1/XTAL_32K_N*%
%TO.N,/MCU/LED_BUILTIN*%
X89000000Y-69900000D03*
%TO.P,U1,14,GND*%
%TO.N,Earth*%
X88200000Y-69900000D03*
%TO.P,U1,15,NC*%
%TO.N,unconnected-(U1-NC-Pad15)*%
X87400000Y-69900000D03*
%TO.P,U1,16,GPIO10*%
%TO.N,IMU_INT*%
X86600000Y-69900000D03*
%TO.P,U1,17,NC*%
%TO.N,unconnected-(U1-NC-Pad17)*%
X85800000Y-69900000D03*
%TO.P,U1,18,GPIO4/ADC1_CH4*%
%TO.N,unconnected-(U1-GPIO4{slash}ADC1_CH4-Pad18)*%
X85000000Y-69900000D03*
%TO.P,U1,19,GPIO5/ADC2_CH0*%
%TO.N,unconnected-(U1-GPIO5{slash}ADC2_CH0-Pad19)*%
X84200000Y-69900000D03*
%TO.P,U1,20,GPIO6*%
%TO.N,unconnected-(U1-GPIO6-Pad20)*%
X83400000Y-69900000D03*
%TO.P,U1,21,GPIO7*%
%TO.N,unconnected-(U1-GPIO7-Pad21)*%
X82600000Y-69900000D03*
%TO.P,U1,22,GPIO8*%
%TO.N,LED_DATA*%
X81800000Y-69900000D03*
%TO.P,U1,23,GPIO9*%
%TO.N,GPIO9{slash}BOOT*%
X81000000Y-69900000D03*
%TO.P,U1,24,NC*%
%TO.N,unconnected-(U1-NC-Pad24)*%
X80200000Y-69900000D03*
D16*
%TO.P,U1,25,NC*%
%TO.N,unconnected-(U1-NC-Pad25)*%
X79100000Y-69000000D03*
%TO.P,U1,26,GPIO18/USB_D-*%
%TO.N,/MCU/USB_D'-*%
X79100000Y-68200000D03*
%TO.P,U1,27,GPIO19/USB_D+*%
%TO.N,/MCU/USB_D'+*%
X79100000Y-67400000D03*
%TO.P,U1,28,NC*%
%TO.N,unconnected-(U1-NC-Pad28)*%
X79100000Y-66600000D03*
%TO.P,U1,29,NC*%
%TO.N,unconnected-(U1-NC-Pad29)*%
X79100000Y-65800000D03*
%TO.P,U1,30,GPIO20/U0RXD*%
%TO.N,Net-(U1-GPIO20{slash}U0RXD)*%
X79100000Y-65000000D03*
%TO.P,U1,31,GPIO21/U0TXD*%
%TO.N,Net-(U1-GPIO21{slash}U0TXD)*%
X79100000Y-64200000D03*
%TO.P,U1,32,NC*%
%TO.N,unconnected-(U1-NC-Pad32)*%
X79100000Y-63400000D03*
%TO.P,U1,33,NC*%
%TO.N,unconnected-(U1-NC-Pad33)*%
X79100000Y-62600000D03*
%TO.P,U1,34,NC*%
%TO.N,unconnected-(U1-NC-Pad34)*%
X79100000Y-61800000D03*
%TO.P,U1,35,NC*%
%TO.N,unconnected-(U1-NC-Pad35)*%
X79100000Y-61000000D03*
D17*
%TO.P,U1,36,GND*%
%TO.N,Earth*%
X80200000Y-60100000D03*
%TO.P,U1,37,GND*%
X81000000Y-60100000D03*
%TO.P,U1,38,GND*%
X81800000Y-60100000D03*
%TO.P,U1,39,GND*%
X82600000Y-60100000D03*
%TO.P,U1,40,GND*%
X83400000Y-60100000D03*
%TO.P,U1,41,GND*%
X84200000Y-60100000D03*
%TO.P,U1,42,GND*%
X85000000Y-60100000D03*
%TO.P,U1,43,GND*%
X85800000Y-60100000D03*
%TO.P,U1,44,GND*%
X86600000Y-60100000D03*
%TO.P,U1,45,GND*%
X87400000Y-60100000D03*
%TO.P,U1,46,GND*%
X88200000Y-60100000D03*
%TO.P,U1,47,GND*%
X89000000Y-60100000D03*
%TO.P,U1,48,GND*%
X89800000Y-60100000D03*
D18*
%TO.P,U1,49,GND*%
X83030000Y-63030000D03*
X83030000Y-65000000D03*
X83030000Y-66980000D03*
X85000000Y-63030000D03*
X85000000Y-65000000D03*
X85000000Y-66980000D03*
D19*
X86980000Y-63020000D03*
D18*
X86980000Y-65000000D03*
X86980000Y-66980000D03*
D20*
%TO.P,U1,50,GND*%
X79050000Y-60050000D03*
%TO.P,U1,51,GND*%
X79050000Y-69950000D03*
%TO.P,U1,52,GND*%
X90950000Y-69950000D03*
%TO.P,U1,53,GND*%
X90950000Y-60050000D03*
%TD*%
D21*
%TO.P,C17,1*%
%TO.N,+5VL*%
X47480000Y-54500000D03*
%TO.P,C17,2*%
%TO.N,GND*%
X46520000Y-54500000D03*
%TD*%
D14*
%TO.P,C21,1*%
%TO.N,+5VL*%
X40520000Y-71000000D03*
%TO.P,C21,2*%
%TO.N,GND*%
X41480000Y-71000000D03*
%TD*%
D21*
%TO.P,C28,1*%
%TO.N,+5VL*%
X51980000Y-54500000D03*
%TO.P,C28,2*%
%TO.N,GND*%
X51020000Y-54500000D03*
%TD*%
D22*
%TO.P,U2,1,VIN*%
%TO.N,+5V*%
X84050000Y-74200000D03*
%TO.P,U2,2,GND*%
%TO.N,Earth*%
X85000000Y-74200000D03*
%TO.P,U2,3,EN*%
%TO.N,Net-(U2-EN)*%
X85950000Y-74200000D03*
%TO.P,U2,4,NC*%
%TO.N,unconnected-(U2-NC-Pad4)*%
X85950000Y-76800000D03*
%TO.P,U2,5,VOUT*%
%TO.N,+3V3*%
X84050000Y-76800000D03*
%TD*%
D23*
%TO.P,TP3,1,1*%
%TO.N,+3V3*%
X95100000Y-71900000D03*
%TD*%
D14*
%TO.P,C16,1*%
%TO.N,+5V*%
X87270000Y-71990000D03*
%TO.P,C16,2*%
%TO.N,Earth*%
X88230000Y-71990000D03*
%TD*%
%TO.P,C27,1*%
%TO.N,+5VL*%
X55520000Y-56000000D03*
%TO.P,C27,2*%
%TO.N,GND*%
X56480000Y-56000000D03*
%TD*%
D24*
%TO.P,J2,1,Pin_1*%
%TO.N,+5V*%
X76330000Y-59000000D03*
%TO.P,J2,2,Pin_2*%
%TO.N,Earth*%
X76330000Y-62600000D03*
%TO.P,J2,3,Pin_3*%
%TO.N,LED_DATA_5V*%
X75070000Y-59000000D03*
%TO.P,J2,4,Pin_4*%
X75070000Y-62600000D03*
%TD*%
D21*
%TO.P,C22,1*%
%TO.N,+5VL*%
X42980000Y-72500000D03*
%TO.P,C22,2*%
%TO.N,GND*%
X42020000Y-72500000D03*
%TD*%
%TO.P,C15,1*%
%TO.N,+5V*%
X82730000Y-71990000D03*
%TO.P,C15,2*%
%TO.N,Earth*%
X81770000Y-71990000D03*
%TD*%
D25*
%TO.P,J7,1,Pin_1*%
%TO.N,+5VL*%
X42000000Y-67250000D03*
%TO.P,J7,2,Pin_2*%
X42000000Y-62750000D03*
%TO.P,J7,3,Pin_3*%
X40730000Y-67250000D03*
%TO.P,J7,4,Pin_4*%
X40730000Y-62750000D03*
%TO.P,J7,5,Pin_5*%
%TO.N,GND*%
X39460000Y-67250000D03*
%TO.P,J7,6,Pin_6*%
X39460000Y-62750000D03*
%TO.P,J7,7,Pin_7*%
X38190000Y-67250000D03*
%TO.P,J7,8,Pin_8*%
X38190000Y-62750000D03*
%TD*%
D21*
%TO.P,C25,1*%
%TO.N,+5VL*%
X53480000Y-75500000D03*
%TO.P,C25,2*%
%TO.N,GND*%
X52520000Y-75500000D03*
%TD*%
D23*
%TO.P,TP4,1,1*%
%TO.N,+5V*%
X96100000Y-70500000D03*
%TD*%
%TO.P,TP5,1,1*%
%TO.N,Earth*%
X94100000Y-73300000D03*
%TD*%
%TO.P,TP2,1,1*%
%TO.N,Net-(U1-GPIO20{slash}U0RXD)*%
X72900000Y-65400000D03*
%TD*%
D26*
%TO.P,J5,1,Pin_1*%
%TO.N,+5VL*%
X58670000Y-58900000D03*
%TO.P,J5,2,Pin_2*%
%TO.N,GND*%
X58670000Y-62700000D03*
%TO.P,J5,3,Pin_3*%
%TO.N,Net-(J5-Pin_3)*%
X59930000Y-58900000D03*
%TO.P,J5,4,Pin_4*%
X59930000Y-62700000D03*
%TD*%
D21*
%TO.P,C19,1*%
%TO.N,+5VL*%
X42980000Y-57500000D03*
%TO.P,C19,2*%
%TO.N,GND*%
X42020000Y-57500000D03*
%TD*%
D27*
%TO.P,J4,1,Pin_1*%
%TO.N,+5V*%
X93000000Y-63200000D03*
%TO.P,J4,2,Pin_2*%
X93000000Y-66800000D03*
%TO.P,J4,3,Pin_3*%
X94270000Y-63200000D03*
%TO.P,J4,4,Pin_4*%
X94270000Y-66800000D03*
%TO.P,J4,5,Pin_5*%
%TO.N,Earth*%
X95530000Y-63200000D03*
%TO.P,J4,6,Pin_6*%
X95530000Y-66800000D03*
%TO.P,J4,7,Pin_7*%
X96800000Y-63200000D03*
%TO.P,J4,8,Pin_8*%
X96800000Y-66800000D03*
%TD*%
D21*
%TO.P,C9,1*%
%TO.N,+3V3*%
X82780000Y-76900000D03*
%TO.P,C9,2*%
%TO.N,Earth*%
X81820000Y-76900000D03*
%TD*%
%TO.P,C24,1*%
%TO.N,+5VL*%
X47480000Y-75500000D03*
%TO.P,C24,2*%
%TO.N,GND*%
X46520000Y-75500000D03*
%TD*%
D28*
%TO.P,R7,1*%
%TO.N,+5V*%
X87300000Y-75410000D03*
%TO.P,R7,2*%
%TO.N,Net-(U2-EN)*%
X87300000Y-74390000D03*
%TD*%
D24*
%TO.P,J3,1,Pin_1*%
%TO.N,+5V*%
X76330000Y-71000000D03*
%TO.P,J3,2,Pin_2*%
X76330000Y-67400000D03*
%TO.P,J3,3,Pin_3*%
%TO.N,Earth*%
X75070000Y-71000000D03*
%TO.P,J3,4,Pin_4*%
X75070000Y-67400000D03*
%TD*%
D14*
%TO.P,C18,1*%
%TO.N,+5VL*%
X43520000Y-56000000D03*
%TO.P,C18,2*%
%TO.N,GND*%
X44480000Y-56000000D03*
%TD*%
D29*
%TO.P,D2,1,K*%
%TO.N,+5V*%
X86800000Y-73100000D03*
%TO.P,D2,2,A*%
%TO.N,Earth*%
X86340000Y-73100000D03*
%TD*%
D14*
%TO.P,C23,1*%
%TO.N,+5VL*%
X43520000Y-74000000D03*
%TO.P,C23,2*%
%TO.N,GND*%
X44480000Y-74000000D03*
%TD*%
%TO.P,C26,1*%
%TO.N,+5VL*%
X55520000Y-74000000D03*
%TO.P,C26,2*%
%TO.N,GND*%
X56480000Y-74000000D03*
%TD*%
D23*
%TO.P,TP1,1,1*%
%TO.N,Net-(U1-GPIO21{slash}U0TXD)*%
X72900000Y-64500000D03*
%TD*%
D26*
%TO.P,J6,1,Pin_1*%
%TO.N,+5VL*%
X58670000Y-67300000D03*
%TO.P,J6,2,Pin_2*%
X58670000Y-71100000D03*
%TO.P,J6,3,Pin_3*%
%TO.N,GND*%
X59930000Y-67300000D03*
%TO.P,J6,4,Pin_4*%
X59930000Y-71100000D03*
%TD*%
D21*
%TO.P,C8,1*%
%TO.N,+5V*%
X82780000Y-74500000D03*
%TO.P,C8,2*%
%TO.N,Earth*%
X81820000Y-74500000D03*
%TD*%
D30*
%TO.N,+5V*%
X76550000Y-58800000D03*
X82600000Y-71990000D03*
X76335000Y-71000000D03*
X94300000Y-64900000D03*
X87400000Y-71990000D03*
%TO.N,DATA_IN*%
X53325000Y-54925000D03*
%TO.N,Earth*%
X88200000Y-69900000D03*
X86975000Y-65000000D03*
X85000000Y-64200000D03*
X90950000Y-60050000D03*
X88200000Y-71990000D03*
X81820000Y-74500000D03*
X85000000Y-74062500D03*
X79050000Y-60050000D03*
X95335000Y-66800000D03*
X86000000Y-65000000D03*
X85000000Y-65800000D03*
X92300000Y-57920000D03*
X82700000Y-66000000D03*
X91200000Y-71300000D03*
X73820000Y-68100000D03*
X79050000Y-69950000D03*
X85680000Y-67700000D03*
X76335000Y-62600000D03*
X81800000Y-71990000D03*
X81820000Y-76900000D03*
X95335000Y-63200000D03*
X81500000Y-62800000D03*
X84000000Y-65000000D03*
X89000000Y-61200000D03*
%TO.N,/MCU/USB_D'-*%
X79100000Y-68200000D03*
%TO.N,/MCU/USB_D'+*%
X79100000Y-67400000D03*
%TO.N,+3V3*%
X92000000Y-67100000D03*
X76350000Y-60850000D03*
X89190000Y-62460000D03*
X88500000Y-64110000D03*
X81500000Y-63980000D03*
X94550000Y-69500000D03*
X84050000Y-76637500D03*
X90900000Y-62600000D03*
%TO.N,LED_DATA*%
X80600000Y-65000000D03*
%TO.N,USR_BTN*%
X89000000Y-68318199D03*
%TO.N,CHIP_EN*%
X92300000Y-58880000D03*
%TO.N,LED_DATA_5V*%
X74850000Y-58800000D03*
%TO.N,SDA*%
X88500000Y-63090000D03*
%TO.N,SCL*%
X89500000Y-64110000D03*
%TO.N,/MCU/LED_BUILTIN*%
X88800000Y-69100000D03*
%TO.N,IMU_INT*%
X87500000Y-68700000D03*
%TO.N,GPIO9{slash}BOOT*%
X78800000Y-72200000D03*
%TO.N,GND*%
X44425000Y-55575000D03*
X44425000Y-73575000D03*
X52575000Y-75925000D03*
X39075000Y-63925000D03*
X42075000Y-72925000D03*
X58575000Y-60925000D03*
X46575000Y-54925000D03*
X58575000Y-63925000D03*
X40575000Y-69925000D03*
X56425000Y-55575000D03*
X51075000Y-54925000D03*
X41425000Y-58575000D03*
X56425000Y-58575000D03*
X41425000Y-70575000D03*
X56425000Y-73575000D03*
X40575000Y-60925000D03*
X57075000Y-69925000D03*
X39075000Y-66925000D03*
X60075000Y-66925000D03*
X42075000Y-57925000D03*
X46575000Y-75925000D03*
%TO.N,+5VL*%
X53425000Y-75075000D03*
X42075000Y-65425000D03*
X40575000Y-59425000D03*
X43575000Y-74425000D03*
X47425000Y-54075000D03*
X58575000Y-65425000D03*
X58575000Y-71425000D03*
X47425000Y-75075000D03*
X43575000Y-56425000D03*
X51825000Y-54075000D03*
X58575000Y-59425000D03*
X55575000Y-56425000D03*
X40575000Y-68425000D03*
X40575000Y-62425000D03*
X40575000Y-71425000D03*
X42925000Y-72075000D03*
X58575000Y-68425000D03*
X57925000Y-57075000D03*
X55575000Y-74425000D03*
X57075000Y-62425000D03*
%TD*%
D31*
%TO.N,+5V*%
X76335000Y-71000000D02*
X76335000Y-67400000D01*
X84050000Y-74362500D02*
X84050000Y-73310000D01*
D10*
X86800000Y-73100000D02*
X87000000Y-73100000D01*
X95100000Y-69500000D02*
X95100000Y-68400000D01*
X82780000Y-74500000D02*
X83912500Y-74500000D01*
D31*
X92995000Y-66800000D02*
X92995000Y-63200000D01*
X94300000Y-64900000D02*
X94265000Y-64935000D01*
X84050000Y-73310000D02*
X82730000Y-71990000D01*
D10*
X87000000Y-73100000D02*
X87400000Y-72700000D01*
D31*
X94265000Y-64865000D02*
X94300000Y-64900000D01*
X76550000Y-58800000D02*
X76535000Y-58800000D01*
X76535000Y-58800000D02*
X76335000Y-59000000D01*
X94265000Y-66800000D02*
X92995000Y-66800000D01*
X94265000Y-64935000D02*
X94265000Y-66800000D01*
D10*
X87300000Y-75410000D02*
X84435001Y-75410000D01*
D31*
X94265000Y-63200000D02*
X94265000Y-64865000D01*
D10*
X84050000Y-75024999D02*
X84050000Y-74362500D01*
D31*
X92995000Y-63200000D02*
X94265000Y-63200000D01*
D10*
X87400000Y-72700000D02*
X87400000Y-72020000D01*
X94265000Y-67565000D02*
X94265000Y-66800000D01*
X96100000Y-70500000D02*
X95100000Y-69500000D01*
X95100000Y-68400000D02*
X94265000Y-67565000D01*
X84435001Y-75410000D02*
X84050000Y-75024999D01*
D32*
%TO.N,DATA_IN*%
X53325000Y-56125000D02*
X54700000Y-57500000D01*
X54700000Y-57500000D02*
X55490000Y-57500000D01*
X53325000Y-54925000D02*
X53325000Y-56125000D01*
D31*
%TO.N,Earth*%
X96805000Y-63200000D02*
X95535000Y-63200000D01*
X85000000Y-65000000D02*
X86975000Y-65000000D01*
D10*
X90200000Y-70700000D02*
X88600000Y-70700000D01*
X85680000Y-67655000D02*
X85000000Y-66975000D01*
D31*
X74365000Y-68100000D02*
X75065000Y-67400000D01*
D33*
X94100000Y-73300000D02*
X92400000Y-73300000D01*
D31*
X86975000Y-65000000D02*
X86975000Y-66975000D01*
X96805000Y-66800000D02*
X95535000Y-66800000D01*
X73820000Y-68100000D02*
X74365000Y-68100000D01*
X85000000Y-66975000D02*
X83025000Y-66975000D01*
X86975000Y-63025000D02*
X86975000Y-65000000D01*
D10*
X86340000Y-73100000D02*
X85300001Y-73100000D01*
X90950000Y-69950000D02*
X90950000Y-71050000D01*
D31*
X96805000Y-63200000D02*
X96805000Y-66800000D01*
D33*
X92400000Y-73300000D02*
X91200000Y-72100000D01*
D31*
X75065000Y-71000000D02*
X75065000Y-69345000D01*
X85000000Y-63025000D02*
X86975000Y-63025000D01*
X86975000Y-66975000D02*
X85000000Y-66975000D01*
X75065000Y-69345000D02*
X73820000Y-68100000D01*
D10*
X85680000Y-67700000D02*
X85680000Y-67655000D01*
D31*
X85000000Y-65000000D02*
X85000000Y-66975000D01*
X95535000Y-63200000D02*
X95535000Y-66800000D01*
D10*
X88200000Y-70300000D02*
X88200000Y-69900000D01*
D33*
X91200000Y-72100000D02*
X91200000Y-71300000D01*
D31*
X83025000Y-66975000D02*
X83025000Y-65000000D01*
D10*
X90950000Y-69950000D02*
X90200000Y-70700000D01*
X85000000Y-73400001D02*
X85000000Y-74062500D01*
X88600000Y-70700000D02*
X88200000Y-70300000D01*
D31*
X83025000Y-63025000D02*
X85000000Y-63025000D01*
X83025000Y-65000000D02*
X84000000Y-65000000D01*
X83025000Y-65000000D02*
X83025000Y-63025000D01*
X75065000Y-67400000D02*
X75065000Y-69345000D01*
X84000000Y-65000000D02*
X85000000Y-65000000D01*
D10*
X85300001Y-73100000D02*
X85000000Y-73400001D01*
X90950000Y-71050000D02*
X91200000Y-71300000D01*
D31*
X85000000Y-65000000D02*
X85000000Y-63025000D01*
D34*
%TO.N,Net-(U1-GPIO21{slash}U0TXD)*%
X79000000Y-64300000D02*
X79100000Y-64200000D01*
X72900000Y-64500000D02*
X73100000Y-64300000D01*
X73100000Y-64300000D02*
X79000000Y-64300000D01*
%TO.N,Net-(U1-GPIO20{slash}U0RXD)*%
X73200000Y-65700000D02*
X77150000Y-65700000D01*
X77850000Y-65000000D02*
X79100000Y-65000000D01*
X77150000Y-65700000D02*
X77850000Y-65000000D01*
X72900000Y-65400000D02*
X73200000Y-65700000D01*
D10*
%TO.N,+3V3*%
X83787500Y-76600000D02*
X84050000Y-76337500D01*
X94550000Y-69500000D02*
X94550000Y-71350000D01*
X82780000Y-76900000D02*
X83787500Y-76900000D01*
X94550000Y-71350000D02*
X95100000Y-71900000D01*
D34*
%TO.N,LED_DATA*%
X80600000Y-65000000D02*
X80600000Y-68600000D01*
X80600000Y-68600000D02*
X81800000Y-69800000D01*
%TO.N,USR_BTN*%
X89018199Y-68318199D02*
X89800000Y-69100000D01*
X89800000Y-69100000D02*
X89800000Y-69900000D01*
X89000000Y-68318199D02*
X89018199Y-68318199D01*
%TO.N,CHIP_EN*%
X90900000Y-66600000D02*
X91900000Y-66600000D01*
X91900000Y-66600000D02*
X92300000Y-66200000D01*
X92300000Y-66200000D02*
X92300000Y-58900000D01*
D32*
%TO.N,LED_DATA_5V*%
X75065000Y-59015000D02*
X75065000Y-62600000D01*
D34*
%TO.N,SDA*%
X90040000Y-63540000D02*
X90700000Y-64200000D01*
X88950000Y-63540000D02*
X90040000Y-63540000D01*
X88500000Y-63090000D02*
X88950000Y-63540000D01*
%TO.N,SCL*%
X89500000Y-64110000D02*
X90390000Y-65000000D01*
X90390000Y-65000000D02*
X90900000Y-65000000D01*
D32*
%TO.N,/MCU/LED_BUILTIN*%
X88800000Y-69100000D02*
X89000000Y-69300000D01*
X89000000Y-69300000D02*
X89000000Y-69900000D01*
D34*
%TO.N,IMU_INT*%
X87500000Y-68700000D02*
X86600000Y-69600000D01*
%TO.N,GPIO9{slash}BOOT*%
X79400000Y-72200000D02*
X81000000Y-70600000D01*
X81000000Y-70600000D02*
X81000000Y-69900000D01*
X78800000Y-72200000D02*
X79400000Y-72200000D01*
D33*
%TO.N,Net-(U2-EN)*%
X85950000Y-74362500D02*
X87272500Y-74362500D01*
D10*
%TO.N,GND*%
X46575000Y-54925000D02*
X46575000Y-54555000D01*
D31*
X57075000Y-69925000D02*
X57075000Y-72275000D01*
D10*
X41425000Y-70575000D02*
X41425000Y-70945000D01*
X41480000Y-59000000D02*
X41480000Y-58630000D01*
X44425000Y-55575000D02*
X44425000Y-55945000D01*
D31*
X57800000Y-73000000D02*
X59300000Y-73000000D01*
X57075000Y-72275000D02*
X57800000Y-73000000D01*
D10*
X52575000Y-75925000D02*
X52575000Y-75555000D01*
X56480000Y-73630000D02*
X56425000Y-73575000D01*
X46575000Y-75925000D02*
X46575000Y-75555000D01*
X41425000Y-70945000D02*
X41480000Y-71000000D01*
X44425000Y-73575000D02*
X44425000Y-73945000D01*
X44425000Y-73945000D02*
X44480000Y-74000000D01*
X41480000Y-58630000D02*
X41425000Y-58575000D01*
D31*
X39465000Y-66950000D02*
X39465000Y-63050000D01*
D10*
X52575000Y-75555000D02*
X52520000Y-75500000D01*
X44425000Y-55945000D02*
X44480000Y-56000000D01*
D31*
X59935000Y-72365000D02*
X59935000Y-71150000D01*
X59935000Y-67250000D02*
X59935000Y-71150000D01*
X38195000Y-63050000D02*
X38195000Y-66950000D01*
D10*
X46575000Y-75555000D02*
X46520000Y-75500000D01*
X46575000Y-54555000D02*
X46520000Y-54500000D01*
D31*
X58665000Y-61015000D02*
X58575000Y-60925000D01*
X38195000Y-66950000D02*
X39465000Y-66950000D01*
D10*
X50975000Y-54545000D02*
X51020000Y-54500000D01*
D31*
X39465000Y-63050000D02*
X38195000Y-63050000D01*
X59300000Y-73000000D02*
X59935000Y-72365000D01*
X58665000Y-62750000D02*
X58665000Y-61015000D01*
D10*
X56480000Y-74000000D02*
X56480000Y-73630000D01*
X50975000Y-54925000D02*
X50975000Y-54545000D01*
D31*
%TO.N,+5VL*%
X58665000Y-71150000D02*
X58665000Y-68515000D01*
X42005000Y-63050000D02*
X40735000Y-63050000D01*
X42005000Y-66950000D02*
X40735000Y-66950000D01*
X58665000Y-68515000D02*
X58575000Y-68425000D01*
D10*
X55575000Y-56055000D02*
X55575000Y-56425000D01*
D31*
X40735000Y-66950000D02*
X40735000Y-68265000D01*
X42005000Y-65355000D02*
X42005000Y-63050000D01*
D10*
X55575000Y-74055000D02*
X55520000Y-74000000D01*
X40575000Y-71055000D02*
X40520000Y-71000000D01*
D31*
X58665000Y-68335000D02*
X58665000Y-67250000D01*
D10*
X42980000Y-72130000D02*
X42925000Y-72075000D01*
D31*
X58665000Y-58850000D02*
X58665000Y-57815000D01*
D10*
X42980000Y-72500000D02*
X42980000Y-72130000D01*
X43575000Y-56425000D02*
X43575000Y-56905000D01*
X55575000Y-74425000D02*
X55575000Y-74055000D01*
X43575000Y-56905000D02*
X42980000Y-57500000D01*
X53480000Y-75130000D02*
X53425000Y-75075000D01*
D31*
X42075000Y-65425000D02*
X42005000Y-65355000D01*
X42005000Y-66950000D02*
X42005000Y-65495000D01*
D10*
X51980000Y-54230000D02*
X51825000Y-54075000D01*
D31*
X40735000Y-63050000D02*
X40735000Y-66950000D01*
X58665000Y-57815000D02*
X57925000Y-57075000D01*
X40735000Y-68265000D02*
X40575000Y-68425000D01*
X42005000Y-65495000D02*
X42075000Y-65425000D01*
X58575000Y-68425000D02*
X58665000Y-68335000D01*
D10*
X53480000Y-75500000D02*
X53480000Y-75130000D01*
X47425000Y-54075000D02*
X47425000Y-54445000D01*
D31*
X58575000Y-65425000D02*
X58575000Y-67160000D01*
D10*
X47425000Y-75075000D02*
X47425000Y-75445000D01*
X40575000Y-71425000D02*
X40575000Y-71055000D01*
X47425000Y-75445000D02*
X47480000Y-75500000D01*
X55520000Y-56000000D02*
X55575000Y-56055000D01*
X47425000Y-54445000D02*
X47480000Y-54500000D01*
X51980000Y-54500000D02*
X51980000Y-54230000D01*
D32*
%TO.N,Net-(J5-Pin_3)*%
X59935000Y-57835000D02*
X59935000Y-58850000D01*
X59935000Y-58850000D02*
X59935000Y-62750000D01*
X57710000Y-56300000D02*
X58400000Y-56300000D01*
X56510000Y-57500000D02*
X57710000Y-56300000D01*
X58400000Y-56300000D02*
X59935000Y-57835000D01*
%TD*%
%TA.AperFunction,Conductor*%
%TO.N,LED_DATA*%
G36*
X80865904Y-65110100D02*
G01*
X80872216Y-65116452D01*
X80872189Y-65125407D01*
X80871989Y-65125857D01*
X80653155Y-65593261D01*
X80646544Y-65599301D01*
X80642559Y-65600000D01*
X80557441Y-65600000D01*
X80549168Y-65596573D01*
X80546845Y-65593261D01*
X80328010Y-65125857D01*
X80327605Y-65116911D01*
X80333645Y-65110300D01*
X80334066Y-65110112D01*
X80595490Y-65000883D01*
X80604444Y-65000857D01*
X80865904Y-65110100D01*
G37*
%TD.AperFunction*%
%TD*%
%TA.AperFunction,Conductor*%
%TO.N,+5V*%
G36*
X84298620Y-73343427D02*
G01*
X84301834Y-73349477D01*
X84359183Y-73645783D01*
X84357893Y-73653743D01*
X84060197Y-74182875D01*
X84053154Y-74188405D01*
X84044263Y-74187335D01*
X84039803Y-74182875D01*
X83742106Y-73653743D01*
X83740816Y-73645783D01*
X83798166Y-73349477D01*
X83803103Y-73342005D01*
X83809653Y-73340000D01*
X84290347Y-73340000D01*
X84298620Y-73343427D01*
G37*
%TD.AperFunction*%
%TD*%
%TA.AperFunction,Conductor*%
%TO.N,+5VL*%
G36*
X58910742Y-67846329D02*
G01*
X58914169Y-67854602D01*
X58914141Y-67855404D01*
X58875746Y-68414138D01*
X58871761Y-68422157D01*
X58864113Y-68425036D01*
X58577367Y-68425992D01*
X58572817Y-68425088D01*
X58572606Y-68425000D01*
X58524784Y-68405018D01*
X58307121Y-68314074D01*
X58300809Y-68307722D01*
X58300283Y-68300434D01*
X58384562Y-67964299D01*
X58412780Y-67851757D01*
X58418116Y-67844565D01*
X58424129Y-67842902D01*
X58902469Y-67842902D01*
X58910742Y-67846329D01*
G37*
%TD.AperFunction*%
%TD*%
%TA.AperFunction,Conductor*%
%TO.N,+5VL*%
G36*
X40597346Y-70939200D02*
G01*
X40598691Y-70940811D01*
X40781589Y-71204865D01*
X40783483Y-71213617D01*
X40780272Y-71219773D01*
X40581243Y-71420133D01*
X40572981Y-71423587D01*
X40568452Y-71422691D01*
X40416959Y-71359715D01*
X40310651Y-71315522D01*
X40304327Y-71309182D01*
X40304338Y-71300227D01*
X40305249Y-71298471D01*
X40448598Y-71071804D01*
X40450205Y-71069795D01*
X40580801Y-70939199D01*
X40589073Y-70935773D01*
X40597346Y-70939200D01*
G37*
%TD.AperFunction*%
%TD*%
%TA.AperFunction,Conductor*%
%TO.N,Earth*%
G36*
X95906804Y-62832207D02*
G01*
X96261909Y-62947376D01*
X96268722Y-62953188D01*
X96270000Y-62958505D01*
X96270000Y-63441494D01*
X96266573Y-63449767D01*
X96261909Y-63452623D01*
X95906804Y-63567792D01*
X95897878Y-63567085D01*
X95894933Y-63564947D01*
X95537305Y-63208283D01*
X95533868Y-63200016D01*
X95537284Y-63191738D01*
X95537306Y-63191716D01*
X95894935Y-62835051D01*
X95903211Y-62831636D01*
X95906804Y-62832207D01*
G37*
%TD.AperFunction*%
%TD*%
%TA.AperFunction,Conductor*%
%TO.N,Earth*%
G36*
X95783760Y-65333427D02*
G01*
X95786941Y-65339313D01*
X95885242Y-65810962D01*
X95884794Y-65817319D01*
X95541006Y-66770485D01*
X95534975Y-66777104D01*
X95526030Y-66777521D01*
X95519411Y-66771490D01*
X95518994Y-66770485D01*
X95175248Y-65817437D01*
X95174849Y-65810855D01*
X95282918Y-65339087D01*
X95288106Y-65331788D01*
X95294323Y-65330000D01*
X95775487Y-65330000D01*
X95783760Y-65333427D01*
G37*
%TD.AperFunction*%
%TD*%
%TA.AperFunction,Conductor*%
%TO.N,GND*%
G36*
X52528724Y-75506274D02*
G01*
X52781834Y-75717315D01*
X52785993Y-75725245D01*
X52784516Y-75732077D01*
X52678363Y-75919076D01*
X52671299Y-75924579D01*
X52668188Y-75925000D01*
X52479121Y-75925000D01*
X52471789Y-75922418D01*
X52290564Y-75776682D01*
X52286264Y-75768827D01*
X52288778Y-75760232D01*
X52289108Y-75759840D01*
X52512472Y-75507503D01*
X52520520Y-75503582D01*
X52528724Y-75506274D01*
G37*
%TD.AperFunction*%
%TD*%
%TA.AperFunction,Conductor*%
%TO.N,Earth*%
G36*
X83762935Y-62310144D02*
G01*
X84474664Y-62771541D01*
X84479742Y-62778916D01*
X84480000Y-62781358D01*
X84480000Y-63268696D01*
X84476573Y-63276969D01*
X84474735Y-63278467D01*
X83762944Y-63747269D01*
X83754150Y-63748958D01*
X83748257Y-63745791D01*
X83037317Y-63038277D01*
X83033871Y-63030013D01*
X83037277Y-63021734D01*
X83748307Y-62311683D01*
X83756581Y-62308263D01*
X83762935Y-62310144D01*
G37*
%TD.AperFunction*%
%TD*%
%TA.AperFunction,Conductor*%
%TO.N,+5V*%
G36*
X83011286Y-71877195D02*
G01*
X83015511Y-71880208D01*
X83348432Y-72253978D01*
X83351376Y-72262434D01*
X83347968Y-72270032D01*
X83009992Y-72608008D01*
X83001719Y-72611435D01*
X82993983Y-72608512D01*
X82649499Y-72304830D01*
X82645559Y-72296788D01*
X82645953Y-72292956D01*
X82727772Y-71994832D01*
X82733265Y-71987764D01*
X82734602Y-71987112D01*
X83002334Y-71877168D01*
X83011286Y-71877195D01*
G37*
%TD.AperFunction*%
%TD*%
%TA.AperFunction,Conductor*%
%TO.N,+5VL*%
G36*
X55597346Y-55939200D02*
G01*
X55598691Y-55940811D01*
X55781589Y-56204865D01*
X55783483Y-56213617D01*
X55780272Y-56219773D01*
X55581243Y-56420133D01*
X55572981Y-56423587D01*
X55568452Y-56422691D01*
X55416959Y-56359715D01*
X55310651Y-56315522D01*
X55304327Y-56309182D01*
X55304338Y-56300227D01*
X55305249Y-56298471D01*
X55448598Y-56071804D01*
X55450205Y-56069795D01*
X55580801Y-55939199D01*
X55589073Y-55935773D01*
X55597346Y-55939200D01*
G37*
%TD.AperFunction*%
%TD*%
%TA.AperFunction,Conductor*%
%TO.N,Earth*%
G36*
X84281693Y-66261684D02*
G01*
X84992695Y-66971706D01*
X84996128Y-66979977D01*
X84992707Y-66988252D01*
X84992681Y-66988278D01*
X84281743Y-67695791D01*
X84273462Y-67699198D01*
X84267055Y-67697269D01*
X83555265Y-67228467D01*
X83550240Y-67221055D01*
X83550000Y-67218696D01*
X83550000Y-66731358D01*
X83553427Y-66723085D01*
X83555331Y-66721544D01*
X84267064Y-66260144D01*
X84275868Y-66258521D01*
X84281693Y-66261684D01*
G37*
%TD.AperFunction*%
%TD*%
%TA.AperFunction,Conductor*%
%TO.N,GND*%
G36*
X59940301Y-67334182D02*
G01*
X59941207Y-67336369D01*
X60285065Y-68482953D01*
X60285312Y-68488701D01*
X60186941Y-68960687D01*
X60181898Y-68968087D01*
X60175487Y-68970000D01*
X59694323Y-68970000D01*
X59686050Y-68966573D01*
X59682918Y-68960913D01*
X59574771Y-68488804D01*
X59574968Y-68482838D01*
X59918793Y-67336368D01*
X59924452Y-67329429D01*
X59933361Y-67328523D01*
X59940301Y-67334182D01*
G37*
%TD.AperFunction*%
%TD*%
%TA.AperFunction,Conductor*%
%TO.N,Earth*%
G36*
X83762935Y-66260144D02*
G01*
X84474664Y-66721541D01*
X84479742Y-66728916D01*
X84480000Y-66731358D01*
X84480000Y-67218696D01*
X84476573Y-67226969D01*
X84474735Y-67228467D01*
X83762944Y-67697269D01*
X83754150Y-67698958D01*
X83748257Y-67695791D01*
X83037317Y-66988277D01*
X83033871Y-66980013D01*
X83037277Y-66971734D01*
X83748307Y-66261683D01*
X83756581Y-66258263D01*
X83762935Y-66260144D01*
G37*
%TD.AperFunction*%
%TD*%
%TA.AperFunction,Conductor*%
%TO.N,Earth*%
G36*
X96810589Y-63228509D02*
G01*
X96811006Y-63229514D01*
X97154794Y-64182680D01*
X97155242Y-64189037D01*
X97056941Y-64660687D01*
X97051898Y-64668087D01*
X97045487Y-64670000D01*
X96564323Y-64670000D01*
X96556050Y-64666573D01*
X96552918Y-64660912D01*
X96552866Y-64660687D01*
X96444849Y-64189144D01*
X96445248Y-64182562D01*
X96788994Y-63229514D01*
X96795025Y-63222895D01*
X96803970Y-63222478D01*
X96810589Y-63228509D01*
G37*
%TD.AperFunction*%
%TD*%
%TA.AperFunction,Conductor*%
%TO.N,Net-(U1-GPIO20{slash}U0RXD)*%
G36*
X78706460Y-64803222D02*
G01*
X78921828Y-64910637D01*
X79080007Y-64989530D01*
X79085881Y-64996289D01*
X79085255Y-65005222D01*
X79080007Y-65010470D01*
X78706463Y-65196776D01*
X78697530Y-65197402D01*
X78694221Y-65195666D01*
X78504680Y-65053510D01*
X78500118Y-65045805D01*
X78500000Y-65044150D01*
X78500000Y-64955850D01*
X78503427Y-64947577D01*
X78504680Y-64946490D01*
X78694223Y-64804332D01*
X78702896Y-64802111D01*
X78706460Y-64803222D01*
G37*
%TD.AperFunction*%
%TD*%
%TA.AperFunction,Conductor*%
%TO.N,+5V*%
G36*
X83011106Y-74224577D02*
G01*
X83333806Y-74396696D01*
X83339493Y-74403613D01*
X83340000Y-74407019D01*
X83340000Y-74592980D01*
X83336573Y-74601253D01*
X83333806Y-74603303D01*
X83011106Y-74775422D01*
X83002194Y-74776292D01*
X82996456Y-74772398D01*
X82861467Y-74603303D01*
X82784825Y-74507297D01*
X82782343Y-74498696D01*
X82784825Y-74492703D01*
X82996457Y-74227599D01*
X83004296Y-74223273D01*
X83011106Y-74224577D01*
G37*
%TD.AperFunction*%
%TD*%
%TA.AperFunction,Conductor*%
%TO.N,Earth*%
G36*
X91265677Y-59519685D02*
G01*
X91286319Y-59536319D01*
X91463681Y-59713681D01*
X91497166Y-59775004D01*
X91500000Y-59801362D01*
X91500000Y-61898638D01*
X91480315Y-61965677D01*
X91463681Y-61986319D01*
X91286319Y-62163681D01*
X91224996Y-62197166D01*
X91198638Y-62200000D01*
X91146709Y-62200000D01*
X91095201Y-62188796D01*
X91089067Y-62185995D01*
X90964774Y-62149500D01*
X90964772Y-62149500D01*
X90835228Y-62149500D01*
X90835226Y-62149500D01*
X90710932Y-62185995D01*
X90704799Y-62188796D01*
X90653291Y-62200000D01*
X90601362Y-62200000D01*
X90534323Y-62180315D01*
X90513681Y-62163681D01*
X90336319Y-61986319D01*
X90302834Y-61924996D01*
X90300000Y-61898638D01*
X90300000Y-60850000D01*
X90050000Y-60600000D01*
X78801362Y-60600000D01*
X78734323Y-60580315D01*
X78713681Y-60563681D01*
X78536319Y-60386319D01*
X78502834Y-60324996D01*
X78500000Y-60298638D01*
X78500000Y-59801362D01*
X78519685Y-59734323D01*
X78536319Y-59713681D01*
X78713681Y-59536319D01*
X78775004Y-59502834D01*
X78801362Y-59500000D01*
X91198638Y-59500000D01*
X91265677Y-59519685D01*
G37*
%TD.AperFunction*%
%TD*%
%TA.AperFunction,Conductor*%
%TO.N,SCL*%
G36*
X90506378Y-64803194D02*
G01*
X90859282Y-64979958D01*
X90877167Y-64988916D01*
X90883029Y-64995685D01*
X90882388Y-65004617D01*
X90876180Y-65010277D01*
X90506663Y-65154465D01*
X90497710Y-65154280D01*
X90494647Y-65152318D01*
X90323695Y-65000707D01*
X90300298Y-64979957D01*
X90296383Y-64971905D01*
X90299309Y-64963442D01*
X90299773Y-64962949D01*
X90361080Y-64901641D01*
X90362439Y-64900477D01*
X90494239Y-64804207D01*
X90502940Y-64802095D01*
X90506378Y-64803194D01*
G37*
%TD.AperFunction*%
%TD*%
%TA.AperFunction,Conductor*%
%TO.N,+5VL*%
G36*
X58824963Y-65633427D02*
G01*
X58827737Y-65637846D01*
X58967948Y-66039769D01*
X58968284Y-66046329D01*
X58679526Y-67260927D01*
X58674278Y-67268183D01*
X58665437Y-67269604D01*
X58658181Y-67264356D01*
X58657039Y-67261908D01*
X58300679Y-66187048D01*
X58300097Y-66182839D01*
X58324497Y-65641173D01*
X58328293Y-65633063D01*
X58336185Y-65630000D01*
X58816690Y-65630000D01*
X58824963Y-65633427D01*
G37*
%TD.AperFunction*%
%TD*%
%TA.AperFunction,Conductor*%
%TO.N,+5V*%
G36*
X87278756Y-71994347D02*
G01*
X87543592Y-72156086D01*
X87548867Y-72163322D01*
X87549112Y-72167454D01*
X87501228Y-72569683D01*
X87496847Y-72577493D01*
X87489610Y-72580000D01*
X87305542Y-72580000D01*
X87297269Y-72576573D01*
X87296489Y-72575711D01*
X87050734Y-72275510D01*
X87048145Y-72266938D01*
X87050680Y-72260753D01*
X87263556Y-71996984D01*
X87271418Y-71992699D01*
X87278756Y-71994347D01*
G37*
%TD.AperFunction*%
%TD*%
%TA.AperFunction,Conductor*%
%TO.N,Net-(U2-EN)*%
G36*
X86267231Y-73967394D02*
G01*
X86566089Y-74234011D01*
X86569981Y-74242075D01*
X86570000Y-74242741D01*
X86570000Y-74479344D01*
X86566573Y-74487617D01*
X86562348Y-74490321D01*
X86268049Y-74598849D01*
X86259101Y-74598497D01*
X86254749Y-74595033D01*
X86150652Y-74460539D01*
X85956183Y-74209281D01*
X85953830Y-74200643D01*
X85958274Y-74192871D01*
X86252316Y-73966849D01*
X86260961Y-73964525D01*
X86267231Y-73967394D01*
G37*
%TD.AperFunction*%
%TD*%
%TA.AperFunction,Conductor*%
%TO.N,Earth*%
G36*
X86261693Y-66261684D02*
G01*
X86972695Y-66971706D01*
X86976128Y-66979977D01*
X86972707Y-66988252D01*
X86972681Y-66988278D01*
X86261743Y-67695791D01*
X86253462Y-67699198D01*
X86247055Y-67697269D01*
X85535265Y-67228467D01*
X85530240Y-67221055D01*
X85530000Y-67218696D01*
X85530000Y-66731358D01*
X85533427Y-66723085D01*
X85535331Y-66721544D01*
X86247064Y-66260144D01*
X86255868Y-66258521D01*
X86261693Y-66261684D01*
G37*
%TD.AperFunction*%
%TD*%
%TA.AperFunction,Conductor*%
%TO.N,Earth*%
G36*
X91467318Y-71410691D02*
G01*
X91473629Y-71417042D01*
X91473970Y-71424987D01*
X91327571Y-71891801D01*
X91321825Y-71898670D01*
X91316407Y-71900000D01*
X91083593Y-71900000D01*
X91075320Y-71896573D01*
X91072429Y-71891801D01*
X90926029Y-71424987D01*
X90926823Y-71416068D01*
X90932679Y-71410692D01*
X91195490Y-71300883D01*
X91204444Y-71300857D01*
X91467318Y-71410691D01*
G37*
%TD.AperFunction*%
%TD*%
%TA.AperFunction,Conductor*%
%TO.N,Earth*%
G36*
X96432121Y-62832914D02*
G01*
X96435066Y-62835052D01*
X96792693Y-63191716D01*
X96796131Y-63199984D01*
X96792715Y-63208262D01*
X96792693Y-63208284D01*
X96435066Y-63564947D01*
X96426788Y-63568363D01*
X96423194Y-63567792D01*
X96068090Y-63452623D01*
X96061278Y-63446811D01*
X96060000Y-63441494D01*
X96060000Y-62958505D01*
X96063427Y-62950232D01*
X96068089Y-62947376D01*
X96423194Y-62832207D01*
X96432121Y-62832914D01*
G37*
%TD.AperFunction*%
%TD*%
%TA.AperFunction,Conductor*%
%TO.N,Net-(J5-Pin_3)*%
G36*
X60011474Y-61033427D02*
G01*
X60013366Y-61035907D01*
X60283436Y-61509849D01*
X60284555Y-61518734D01*
X60284478Y-61519003D01*
X59941207Y-62663630D01*
X59935548Y-62670570D01*
X59926639Y-62671476D01*
X59919699Y-62665817D01*
X59918793Y-62663630D01*
X59575552Y-61519106D01*
X59576458Y-61510197D01*
X59576665Y-61509828D01*
X59856604Y-61035750D01*
X59863762Y-61030370D01*
X59866679Y-61030000D01*
X60003201Y-61030000D01*
X60011474Y-61033427D01*
G37*
%TD.AperFunction*%
%TD*%
%TA.AperFunction,Conductor*%
%TO.N,+5VL*%
G36*
X42932252Y-72077030D02*
G01*
X43191588Y-72185386D01*
X43197900Y-72191738D01*
X43197963Y-72200469D01*
X43082919Y-72492587D01*
X43076699Y-72499029D01*
X43072033Y-72500000D01*
X42885688Y-72500000D01*
X42877415Y-72496573D01*
X42876486Y-72495525D01*
X42874179Y-72492587D01*
X42719261Y-72295274D01*
X42716847Y-72286651D01*
X42720169Y-72279796D01*
X42919453Y-72079572D01*
X42927717Y-72076127D01*
X42932252Y-72077030D01*
G37*
%TD.AperFunction*%
%TD*%
%TA.AperFunction,Conductor*%
%TO.N,GND*%
G36*
X41503920Y-58512626D02*
G01*
X41503983Y-58512689D01*
X41711335Y-58723228D01*
X41714699Y-58731527D01*
X41711767Y-58739185D01*
X41489448Y-58990812D01*
X41481402Y-58994743D01*
X41472933Y-58991833D01*
X41471935Y-58990837D01*
X41249435Y-58740490D01*
X41246500Y-58732030D01*
X41250408Y-58723973D01*
X41251128Y-58723382D01*
X41354290Y-58645711D01*
X41487375Y-58512625D01*
X41495647Y-58509199D01*
X41503920Y-58512626D01*
G37*
%TD.AperFunction*%
%TD*%
%TA.AperFunction,Conductor*%
%TO.N,LED_DATA_5V*%
G36*
X75141594Y-61133427D02*
G01*
X75143395Y-61135750D01*
X75423119Y-61609464D01*
X75424374Y-61618329D01*
X75424050Y-61619382D01*
X75081006Y-62570485D01*
X75074975Y-62577104D01*
X75066030Y-62577521D01*
X75059411Y-62571490D01*
X75058994Y-62570485D01*
X74715912Y-61619278D01*
X74716329Y-61610333D01*
X74716743Y-61609533D01*
X74986634Y-61135907D01*
X74993707Y-61130416D01*
X74996799Y-61130000D01*
X75133321Y-61130000D01*
X75141594Y-61133427D01*
G37*
%TD.AperFunction*%
%TD*%
%TA.AperFunction,Conductor*%
%TO.N,SCL*%
G36*
X89774829Y-63999857D02*
G01*
X89781141Y-64006209D01*
X89781319Y-64006668D01*
X89957084Y-64491912D01*
X89956679Y-64500858D01*
X89954356Y-64504170D01*
X89894170Y-64564356D01*
X89885897Y-64567783D01*
X89881912Y-64567084D01*
X89396668Y-64391319D01*
X89390057Y-64385279D01*
X89389652Y-64376333D01*
X89389815Y-64375910D01*
X89497436Y-64113814D01*
X89503746Y-64107464D01*
X89765876Y-63999830D01*
X89774829Y-63999857D01*
G37*
%TD.AperFunction*%
%TD*%
%TA.AperFunction,Conductor*%
%TO.N,+5VL*%
G36*
X58680301Y-67334182D02*
G01*
X58681207Y-67336369D01*
X59025030Y-68482835D01*
X59025228Y-68488808D01*
X58917134Y-68960687D01*
X58917082Y-68960912D01*
X58911894Y-68968212D01*
X58905677Y-68970000D01*
X58424513Y-68970000D01*
X58416240Y-68966573D01*
X58413059Y-68960687D01*
X58409098Y-68941685D01*
X58314687Y-68488699D01*
X58314933Y-68482955D01*
X58658793Y-67336368D01*
X58664452Y-67329429D01*
X58673361Y-67328523D01*
X58680301Y-67334182D01*
G37*
%TD.AperFunction*%
%TD*%
%TA.AperFunction,Conductor*%
%TO.N,Earth*%
G36*
X74223711Y-67883617D02*
G01*
X74229574Y-67886792D01*
X74565483Y-68222701D01*
X74568910Y-68230974D01*
X74565483Y-68239247D01*
X74559676Y-68242411D01*
X73944316Y-68375112D01*
X73935507Y-68373506D01*
X73931054Y-68368186D01*
X73873722Y-68230974D01*
X73821171Y-68105204D01*
X73821145Y-68096251D01*
X73931083Y-67831788D01*
X73937422Y-67825466D01*
X73944293Y-67824832D01*
X74223711Y-67883617D01*
G37*
%TD.AperFunction*%
%TD*%
%TA.AperFunction,Conductor*%
%TO.N,+5V*%
G36*
X87666851Y-72100496D02*
G01*
X87673163Y-72106848D01*
X87673330Y-72115305D01*
X87502807Y-72582313D01*
X87496751Y-72588909D01*
X87491817Y-72590000D01*
X87308183Y-72590000D01*
X87299910Y-72586573D01*
X87297193Y-72582313D01*
X87126669Y-72115302D01*
X87127050Y-72106358D01*
X87133147Y-72100496D01*
X87395490Y-71990883D01*
X87404444Y-71990857D01*
X87666851Y-72100496D01*
G37*
%TD.AperFunction*%
%TD*%
%TA.AperFunction,Conductor*%
%TO.N,GND*%
G36*
X46597346Y-54439200D02*
G01*
X46598691Y-54440811D01*
X46781589Y-54704865D01*
X46783483Y-54713617D01*
X46780272Y-54719773D01*
X46581243Y-54920133D01*
X46572981Y-54923587D01*
X46568452Y-54922691D01*
X46416959Y-54859715D01*
X46310651Y-54815522D01*
X46304327Y-54809182D01*
X46304338Y-54800227D01*
X46305249Y-54798471D01*
X46448598Y-54571804D01*
X46450205Y-54569795D01*
X46580801Y-54439199D01*
X46589073Y-54435773D01*
X46597346Y-54439200D01*
G37*
%TD.AperFunction*%
%TD*%
%TA.AperFunction,Conductor*%
%TO.N,GND*%
G36*
X44528211Y-73577582D02*
G01*
X44709435Y-73723317D01*
X44713735Y-73731172D01*
X44711221Y-73739767D01*
X44710864Y-73740190D01*
X44487529Y-73992494D01*
X44479479Y-73996417D01*
X44471275Y-73993725D01*
X44218165Y-73782684D01*
X44214006Y-73774754D01*
X44215483Y-73767922D01*
X44321637Y-73580924D01*
X44328702Y-73575421D01*
X44331812Y-73575000D01*
X44520879Y-73575000D01*
X44528211Y-73577582D01*
G37*
%TD.AperFunction*%
%TD*%
%TA.AperFunction,Conductor*%
%TO.N,+5V*%
G36*
X93902121Y-66432914D02*
G01*
X93905066Y-66435052D01*
X94262693Y-66791716D01*
X94266131Y-66799984D01*
X94262715Y-66808262D01*
X94262693Y-66808284D01*
X93905066Y-67164947D01*
X93896788Y-67168363D01*
X93893194Y-67167792D01*
X93538090Y-67052623D01*
X93531278Y-67046811D01*
X93530000Y-67041494D01*
X93530000Y-66558505D01*
X93533427Y-66550232D01*
X93538089Y-66547376D01*
X93893194Y-66432207D01*
X93902121Y-66432914D01*
G37*
%TD.AperFunction*%
%TD*%
%TA.AperFunction,Conductor*%
%TO.N,Earth*%
G36*
X83038252Y-63037292D02*
G01*
X83745792Y-63748256D01*
X83749199Y-63756537D01*
X83747270Y-63762944D01*
X83408729Y-64276956D01*
X83278515Y-64474664D01*
X83278468Y-64474735D01*
X83271056Y-64479760D01*
X83268697Y-64480000D01*
X82781359Y-64480000D01*
X82773086Y-64476573D01*
X82771541Y-64474664D01*
X82310145Y-63762937D01*
X82308521Y-63754131D01*
X82311683Y-63748307D01*
X83021708Y-63037302D01*
X83029977Y-63033871D01*
X83038252Y-63037292D01*
G37*
%TD.AperFunction*%
%TD*%
%TA.AperFunction,Conductor*%
%TO.N,Earth*%
G36*
X87262327Y-64999957D02*
G01*
X87270588Y-65003411D01*
X87273987Y-65011696D01*
X87273947Y-65012629D01*
X87225894Y-65589272D01*
X87221792Y-65597232D01*
X87214234Y-65600000D01*
X86735766Y-65600000D01*
X86727493Y-65596573D01*
X86724106Y-65589272D01*
X86676052Y-65012629D01*
X86678780Y-65004099D01*
X86686740Y-64999997D01*
X86687653Y-64999957D01*
X86975000Y-64999000D01*
X87262327Y-64999957D01*
G37*
%TD.AperFunction*%
%TD*%
%TA.AperFunction,Conductor*%
%TO.N,GND*%
G36*
X56432252Y-73577030D02*
G01*
X56691588Y-73685386D01*
X56697900Y-73691738D01*
X56697963Y-73700469D01*
X56582919Y-73992587D01*
X56576699Y-73999029D01*
X56572033Y-74000000D01*
X56385688Y-74000000D01*
X56377415Y-73996573D01*
X56376486Y-73995525D01*
X56374179Y-73992587D01*
X56219261Y-73795274D01*
X56216847Y-73786651D01*
X56220169Y-73779796D01*
X56419453Y-73579572D01*
X56427717Y-73576127D01*
X56432252Y-73577030D01*
G37*
%TD.AperFunction*%
%TD*%
%TA.AperFunction,Conductor*%
%TO.N,+5VL*%
G36*
X58910742Y-70846329D02*
G01*
X58914169Y-70854602D01*
X58914141Y-70855404D01*
X58875746Y-71414138D01*
X58871761Y-71422157D01*
X58864113Y-71425036D01*
X58577367Y-71425992D01*
X58572817Y-71425088D01*
X58572606Y-71425000D01*
X58524784Y-71405018D01*
X58307121Y-71314074D01*
X58300809Y-71307722D01*
X58300283Y-71300434D01*
X58384562Y-70964299D01*
X58412780Y-70851757D01*
X58418116Y-70844565D01*
X58424129Y-70842902D01*
X58902469Y-70842902D01*
X58910742Y-70846329D01*
G37*
%TD.AperFunction*%
%TD*%
%TA.AperFunction,Conductor*%
%TO.N,Net-(U1-GPIO21{slash}U0TXD)*%
G36*
X73396573Y-64253427D02*
G01*
X73400000Y-64261700D01*
X73400000Y-64345961D01*
X73397509Y-64353178D01*
X73156714Y-64660417D01*
X73148913Y-64664815D01*
X73140971Y-64662905D01*
X72903037Y-64502718D01*
X72898088Y-64495255D01*
X72898086Y-64495249D01*
X72853618Y-64263909D01*
X72855422Y-64255137D01*
X72862899Y-64250210D01*
X72865108Y-64250000D01*
X73388300Y-64250000D01*
X73396573Y-64253427D01*
G37*
%TD.AperFunction*%
%TD*%
%TA.AperFunction,Conductor*%
%TO.N,/MCU/LED_BUILTIN*%
G36*
X89076788Y-69303427D02*
G01*
X89078437Y-69305499D01*
X89196526Y-69494442D01*
X89198004Y-69503274D01*
X89197074Y-69505865D01*
X89010470Y-69880007D01*
X89003711Y-69885881D01*
X88994778Y-69885255D01*
X88989530Y-69880007D01*
X88802925Y-69505865D01*
X88802299Y-69496932D01*
X88803470Y-69494446D01*
X88921563Y-69305498D01*
X88928854Y-69300300D01*
X88931485Y-69300000D01*
X89068515Y-69300000D01*
X89076788Y-69303427D01*
G37*
%TD.AperFunction*%
%TD*%
%TA.AperFunction,Conductor*%
%TO.N,GND*%
G36*
X44431543Y-55577307D02*
G01*
X44689348Y-55684477D01*
X44695672Y-55690817D01*
X44695661Y-55699772D01*
X44694745Y-55701535D01*
X44551405Y-55928189D01*
X44549790Y-55930208D01*
X44419199Y-56060799D01*
X44410926Y-56064226D01*
X44402653Y-56060799D01*
X44401308Y-56059188D01*
X44310571Y-55928189D01*
X44218409Y-55795132D01*
X44216516Y-55786382D01*
X44219725Y-55780228D01*
X44418757Y-55579865D01*
X44427018Y-55576412D01*
X44431543Y-55577307D01*
G37*
%TD.AperFunction*%
%TD*%
%TA.AperFunction,Conductor*%
%TO.N,+5V*%
G36*
X84055087Y-74213292D02*
G01*
X84059772Y-74217867D01*
X84355780Y-74742520D01*
X84356861Y-74751409D01*
X84354129Y-74756267D01*
X84145593Y-74978895D01*
X84145327Y-74979170D01*
X84014103Y-75110394D01*
X84005830Y-75113821D01*
X83997557Y-75110394D01*
X83996112Y-75108637D01*
X83759547Y-74755828D01*
X83757786Y-74747048D01*
X83758941Y-74743807D01*
X84039259Y-74218110D01*
X84046175Y-74212423D01*
X84055087Y-74213292D01*
G37*
%TD.AperFunction*%
%TD*%
%TA.AperFunction,Conductor*%
%TO.N,+5VL*%
G36*
X51903779Y-54010063D02*
G01*
X52159815Y-54193302D01*
X52164549Y-54200903D01*
X52162929Y-54209015D01*
X51987802Y-54489348D01*
X51980512Y-54494549D01*
X51971680Y-54493072D01*
X51970404Y-54492150D01*
X51716814Y-54281537D01*
X51712639Y-54273615D01*
X51713190Y-54268833D01*
X51753417Y-54148325D01*
X51756239Y-54143762D01*
X51888698Y-54011303D01*
X51896970Y-54007877D01*
X51903779Y-54010063D01*
G37*
%TD.AperFunction*%
%TD*%
%TA.AperFunction,Conductor*%
%TO.N,GND*%
G36*
X46528724Y-54506274D02*
G01*
X46781834Y-54717315D01*
X46785993Y-54725245D01*
X46784516Y-54732077D01*
X46678363Y-54919076D01*
X46671299Y-54924579D01*
X46668188Y-54925000D01*
X46479121Y-54925000D01*
X46471789Y-54922418D01*
X46290564Y-54776682D01*
X46286264Y-54768827D01*
X46288778Y-54760232D01*
X46289108Y-54759840D01*
X46512472Y-54507503D01*
X46520520Y-54503582D01*
X46528724Y-54506274D01*
G37*
%TD.AperFunction*%
%TD*%
%TA.AperFunction,Conductor*%
%TO.N,Earth*%
G36*
X97053760Y-65333427D02*
G01*
X97056941Y-65339313D01*
X97155242Y-65810962D01*
X97154794Y-65817319D01*
X96811006Y-66770485D01*
X96804975Y-66777104D01*
X96796030Y-66777521D01*
X96789411Y-66771490D01*
X96788994Y-66770485D01*
X96445248Y-65817437D01*
X96444849Y-65810855D01*
X96552918Y-65339087D01*
X96558106Y-65331788D01*
X96564323Y-65330000D01*
X97045487Y-65330000D01*
X97053760Y-65333427D01*
G37*
%TD.AperFunction*%
%TD*%
%TA.AperFunction,Conductor*%
%TO.N,+5VL*%
G36*
X40978991Y-67881461D02*
G01*
X40982418Y-67889734D01*
X40982189Y-67892037D01*
X40854955Y-68525896D01*
X40849967Y-68533333D01*
X40841181Y-68535064D01*
X40839040Y-68534416D01*
X40575066Y-68426027D01*
X40575011Y-68425972D01*
X40575000Y-68426000D01*
X40308770Y-68314763D01*
X40302459Y-68308412D01*
X40302485Y-68299458D01*
X40431640Y-68001241D01*
X40481947Y-67885084D01*
X40488379Y-67878854D01*
X40492683Y-67878034D01*
X40970718Y-67878034D01*
X40978991Y-67881461D01*
G37*
%TD.AperFunction*%
%TD*%
%TA.AperFunction,Conductor*%
%TO.N,SDA*%
G36*
X88774829Y-62979857D02*
G01*
X88781141Y-62986209D01*
X88781319Y-62986668D01*
X88957084Y-63471912D01*
X88956679Y-63480858D01*
X88954356Y-63484170D01*
X88894170Y-63544356D01*
X88885897Y-63547783D01*
X88881912Y-63547084D01*
X88396668Y-63371319D01*
X88390057Y-63365279D01*
X88389652Y-63356333D01*
X88389815Y-63355910D01*
X88497436Y-63093814D01*
X88503746Y-63087464D01*
X88765876Y-62979830D01*
X88774829Y-62979857D01*
G37*
%TD.AperFunction*%
%TD*%
%TA.AperFunction,Conductor*%
%TO.N,GND*%
G36*
X44528211Y-55577582D02*
G01*
X44709435Y-55723317D01*
X44713735Y-55731172D01*
X44711221Y-55739767D01*
X44710864Y-55740190D01*
X44487529Y-55992494D01*
X44479479Y-55996417D01*
X44471275Y-55993725D01*
X44218165Y-55782684D01*
X44214006Y-55774754D01*
X44215483Y-55767922D01*
X44321637Y-55580924D01*
X44328702Y-55575421D01*
X44331812Y-55575000D01*
X44520879Y-55575000D01*
X44528211Y-55577582D01*
G37*
%TD.AperFunction*%
%TD*%
%TA.AperFunction,Conductor*%
%TO.N,Earth*%
G36*
X87226970Y-65533427D02*
G01*
X87228466Y-65535262D01*
X87510300Y-65963176D01*
X87697270Y-66247055D01*
X87698959Y-66255849D01*
X87695792Y-66261743D01*
X86988278Y-66972681D01*
X86980013Y-66976128D01*
X86971732Y-66972721D01*
X86971706Y-66972695D01*
X86261684Y-66261693D01*
X86258263Y-66253418D01*
X86260144Y-66247064D01*
X86721541Y-65535336D01*
X86728917Y-65530258D01*
X86731359Y-65530000D01*
X87218697Y-65530000D01*
X87226970Y-65533427D01*
G37*
%TD.AperFunction*%
%TD*%
%TA.AperFunction,Conductor*%
%TO.N,Earth*%
G36*
X84980014Y-73295410D02*
G01*
X84981569Y-73296716D01*
X85112890Y-73428037D01*
X85113366Y-73428542D01*
X85304455Y-73643755D01*
X85307385Y-73652216D01*
X85305896Y-73657272D01*
X85009977Y-74181768D01*
X85002927Y-74187290D01*
X84994038Y-74186209D01*
X84989375Y-74181355D01*
X84720277Y-73656277D01*
X84719554Y-73647353D01*
X84721109Y-73644226D01*
X84963718Y-73298270D01*
X84971273Y-73293465D01*
X84980014Y-73295410D01*
G37*
%TD.AperFunction*%
%TD*%
%TA.AperFunction,Conductor*%
%TO.N,DATA_IN*%
G36*
X55259207Y-57237536D02*
G01*
X55484160Y-57492255D01*
X55487068Y-57500725D01*
X55484160Y-57507745D01*
X55259207Y-57762463D01*
X55251162Y-57766396D01*
X55244099Y-57764552D01*
X54955362Y-57578455D01*
X54950264Y-57571093D01*
X54950000Y-57568621D01*
X54950000Y-57431378D01*
X54953427Y-57423105D01*
X54955362Y-57421544D01*
X55244101Y-57235446D01*
X55252909Y-57233845D01*
X55259207Y-57237536D01*
G37*
%TD.AperFunction*%
%TD*%
%TA.AperFunction,Conductor*%
%TO.N,GND*%
G36*
X46597346Y-75439200D02*
G01*
X46598691Y-75440811D01*
X46781589Y-75704865D01*
X46783483Y-75713617D01*
X46780272Y-75719773D01*
X46581243Y-75920133D01*
X46572981Y-75923587D01*
X46568452Y-75922691D01*
X46416959Y-75859715D01*
X46310651Y-75815522D01*
X46304327Y-75809182D01*
X46304338Y-75800227D01*
X46305249Y-75798471D01*
X46448598Y-75571804D01*
X46450205Y-75569795D01*
X46580801Y-75439199D01*
X46589073Y-75435773D01*
X46597346Y-75439200D01*
G37*
%TD.AperFunction*%
%TD*%
%TA.AperFunction,Conductor*%
%TO.N,+5VL*%
G36*
X42253739Y-64842351D02*
G01*
X42256925Y-64848261D01*
X42350217Y-65300752D01*
X42348531Y-65309547D01*
X42343269Y-65313911D01*
X42077182Y-65425088D01*
X42072632Y-65425992D01*
X41786269Y-65425037D01*
X41778007Y-65421583D01*
X41774615Y-65413737D01*
X41755413Y-64851023D01*
X41758556Y-64842638D01*
X41766707Y-64838931D01*
X41767106Y-64838924D01*
X42245466Y-64838924D01*
X42253739Y-64842351D01*
G37*
%TD.AperFunction*%
%TD*%
%TA.AperFunction,Conductor*%
%TO.N,Earth*%
G36*
X93855962Y-73055938D02*
G01*
X94092676Y-73291710D01*
X94096119Y-73299977D01*
X94092709Y-73308257D01*
X94092676Y-73308290D01*
X93855962Y-73544061D01*
X93847682Y-73547471D01*
X93842473Y-73546236D01*
X93606468Y-73428234D01*
X93600600Y-73421469D01*
X93600000Y-73417769D01*
X93600000Y-73182231D01*
X93603427Y-73173958D01*
X93606468Y-73171766D01*
X93842474Y-73053762D01*
X93851405Y-73053128D01*
X93855962Y-73055938D01*
G37*
%TD.AperFunction*%
%TD*%
%TA.AperFunction,Conductor*%
%TO.N,Net-(U2-EN)*%
G36*
X87065196Y-74133293D02*
G01*
X87068314Y-74135714D01*
X87293753Y-74382080D01*
X87296810Y-74390496D01*
X87293732Y-74397899D01*
X87068306Y-74642936D01*
X87060182Y-74646705D01*
X87054817Y-74645650D01*
X86716822Y-74490628D01*
X86710731Y-74484064D01*
X86710000Y-74479993D01*
X86710000Y-74246176D01*
X86713427Y-74237903D01*
X86718301Y-74234980D01*
X87056285Y-74132416D01*
X87065196Y-74133293D01*
G37*
%TD.AperFunction*%
%TD*%
%TA.AperFunction,Conductor*%
%TO.N,GND*%
G36*
X41432252Y-58577030D02*
G01*
X41691588Y-58685386D01*
X41697900Y-58691738D01*
X41697963Y-58700469D01*
X41582919Y-58992587D01*
X41576699Y-58999029D01*
X41572033Y-59000000D01*
X41385688Y-59000000D01*
X41377415Y-58996573D01*
X41376486Y-58995525D01*
X41374179Y-58992587D01*
X41219261Y-58795274D01*
X41216847Y-58786651D01*
X41220169Y-58779796D01*
X41419453Y-58579572D01*
X41427717Y-58576127D01*
X41432252Y-58577030D01*
G37*
%TD.AperFunction*%
%TD*%
%TA.AperFunction,Conductor*%
%TO.N,Earth*%
G36*
X85732935Y-62310144D02*
G01*
X86444664Y-62771541D01*
X86449742Y-62778916D01*
X86450000Y-62781358D01*
X86450000Y-63268696D01*
X86446573Y-63276969D01*
X86444735Y-63278467D01*
X85732944Y-63747269D01*
X85724150Y-63748958D01*
X85718257Y-63745791D01*
X85007317Y-63038277D01*
X85003871Y-63030013D01*
X85007277Y-63021734D01*
X85718307Y-62311683D01*
X85726581Y-62308263D01*
X85732935Y-62310144D01*
G37*
%TD.AperFunction*%
%TD*%
%TA.AperFunction,Conductor*%
%TO.N,Earth*%
G36*
X84012618Y-64701051D02*
G01*
X84589272Y-64749106D01*
X84597232Y-64753208D01*
X84600000Y-64760766D01*
X84600000Y-65239234D01*
X84596573Y-65247507D01*
X84589272Y-65250894D01*
X84012629Y-65298947D01*
X84004099Y-65296219D01*
X83999997Y-65288259D01*
X83999957Y-65287345D01*
X83999000Y-65000000D01*
X83999957Y-64712671D01*
X84003411Y-64704411D01*
X84011696Y-64701012D01*
X84012618Y-64701051D01*
G37*
%TD.AperFunction*%
%TD*%
%TA.AperFunction,Conductor*%
%TO.N,GND*%
G36*
X56503920Y-73512626D02*
G01*
X56503983Y-73512689D01*
X56711335Y-73723228D01*
X56714699Y-73731527D01*
X56711767Y-73739185D01*
X56489448Y-73990812D01*
X56481402Y-73994743D01*
X56472933Y-73991833D01*
X56471935Y-73990837D01*
X56249435Y-73740490D01*
X56246500Y-73732030D01*
X56250408Y-73723973D01*
X56251128Y-73723382D01*
X56354290Y-73645711D01*
X56487375Y-73512625D01*
X56495647Y-73509199D01*
X56503920Y-73512626D01*
G37*
%TD.AperFunction*%
%TD*%
%TA.AperFunction,Conductor*%
%TO.N,+5V*%
G36*
X95751595Y-70006638D02*
G01*
X96194278Y-70245005D01*
X96199937Y-70251944D01*
X96199555Y-70259747D01*
X96102564Y-70496180D01*
X96096253Y-70502533D01*
X96096180Y-70502564D01*
X95859747Y-70599555D01*
X95850792Y-70599524D01*
X95845005Y-70594278D01*
X95606638Y-70151596D01*
X95605734Y-70142689D01*
X95608666Y-70137780D01*
X95737779Y-70008667D01*
X95746051Y-70005241D01*
X95751595Y-70006638D01*
G37*
%TD.AperFunction*%
%TD*%
%TA.AperFunction,Conductor*%
%TO.N,Earth*%
G36*
X88485949Y-69899966D02*
G01*
X88494213Y-69903412D01*
X88497620Y-69911693D01*
X88497421Y-69913813D01*
X88412797Y-70367146D01*
X88409569Y-70373272D01*
X88280523Y-70502318D01*
X88272250Y-70505745D01*
X88263977Y-70502318D01*
X88262697Y-70500800D01*
X87993543Y-70120158D01*
X87991564Y-70111424D01*
X87994793Y-70105160D01*
X88195851Y-69902757D01*
X88204111Y-69899304D01*
X88485949Y-69899966D01*
G37*
%TD.AperFunction*%
%TD*%
%TA.AperFunction,Conductor*%
%TO.N,Earth*%
G36*
X95906804Y-66432207D02*
G01*
X96261909Y-66547376D01*
X96268722Y-66553188D01*
X96270000Y-66558505D01*
X96270000Y-67041494D01*
X96266573Y-67049767D01*
X96261909Y-67052623D01*
X95906804Y-67167792D01*
X95897878Y-67167085D01*
X95894933Y-67164947D01*
X95537305Y-66808283D01*
X95533868Y-66800016D01*
X95537284Y-66791738D01*
X95537306Y-66791716D01*
X95894935Y-66435051D01*
X95903211Y-66431636D01*
X95906804Y-66432207D01*
G37*
%TD.AperFunction*%
%TD*%
%TA.AperFunction,Conductor*%
%TO.N,Earth*%
G36*
X95347618Y-62901051D02*
G01*
X95924272Y-62949106D01*
X95932232Y-62953208D01*
X95935000Y-62960766D01*
X95935000Y-63439234D01*
X95931573Y-63447507D01*
X95924272Y-63450894D01*
X95347629Y-63498947D01*
X95339099Y-63496219D01*
X95334997Y-63488259D01*
X95334957Y-63487345D01*
X95334000Y-63200000D01*
X95334957Y-62912671D01*
X95338411Y-62904411D01*
X95346696Y-62901012D01*
X95347618Y-62901051D01*
G37*
%TD.AperFunction*%
%TD*%
%TA.AperFunction,Conductor*%
%TO.N,/MCU/LED_BUILTIN*%
G36*
X89087764Y-69099959D02*
G01*
X89096026Y-69103413D01*
X89099425Y-69111698D01*
X89099412Y-69112221D01*
X89075535Y-69609100D01*
X89071715Y-69617199D01*
X89063848Y-69620238D01*
X88929541Y-69620238D01*
X88921648Y-69617175D01*
X88912812Y-69609100D01*
X88596881Y-69320369D01*
X88593086Y-69312258D01*
X88596137Y-69303839D01*
X88596481Y-69303478D01*
X88796555Y-69102461D01*
X88804817Y-69099016D01*
X89087764Y-69099959D01*
G37*
%TD.AperFunction*%
%TD*%
%TA.AperFunction,Conductor*%
%TO.N,Earth*%
G36*
X87226970Y-63553427D02*
G01*
X87228466Y-63555262D01*
X87510300Y-63983176D01*
X87697270Y-64267055D01*
X87698959Y-64275849D01*
X87695792Y-64281743D01*
X86988278Y-64992681D01*
X86980013Y-64996128D01*
X86971732Y-64992721D01*
X86971706Y-64992695D01*
X86261684Y-64281693D01*
X86258263Y-64273418D01*
X86260144Y-64267064D01*
X86721541Y-63555336D01*
X86728917Y-63550258D01*
X86731359Y-63550000D01*
X87218697Y-63550000D01*
X87226970Y-63553427D01*
G37*
%TD.AperFunction*%
%TD*%
%TA.AperFunction,Conductor*%
%TO.N,Earth*%
G36*
X95540589Y-63228509D02*
G01*
X95541006Y-63229514D01*
X95884794Y-64182680D01*
X95885242Y-64189037D01*
X95786941Y-64660687D01*
X95781898Y-64668087D01*
X95775487Y-64670000D01*
X95294323Y-64670000D01*
X95286050Y-64666573D01*
X95282918Y-64660912D01*
X95282866Y-64660687D01*
X95174849Y-64189144D01*
X95175248Y-64182562D01*
X95518994Y-63229514D01*
X95525025Y-63222895D01*
X95533970Y-63222478D01*
X95540589Y-63228509D01*
G37*
%TD.AperFunction*%
%TD*%
%TA.AperFunction,Conductor*%
%TO.N,GND*%
G36*
X41528211Y-70577582D02*
G01*
X41709435Y-70723317D01*
X41713735Y-70731172D01*
X41711221Y-70739767D01*
X41710864Y-70740190D01*
X41487529Y-70992494D01*
X41479479Y-70996417D01*
X41471275Y-70993725D01*
X41218165Y-70782684D01*
X41214006Y-70774754D01*
X41215483Y-70767922D01*
X41321637Y-70580924D01*
X41328702Y-70575421D01*
X41331812Y-70575000D01*
X41520879Y-70575000D01*
X41528211Y-70577582D01*
G37*
%TD.AperFunction*%
%TD*%
%TA.AperFunction,Conductor*%
%TO.N,+5VL*%
G36*
X42077178Y-65424910D02*
G01*
X42343269Y-65536088D01*
X42349581Y-65542440D01*
X42350217Y-65549247D01*
X42256925Y-66001739D01*
X42251898Y-66009149D01*
X42245466Y-66011076D01*
X41767106Y-66011076D01*
X41758833Y-66007649D01*
X41755406Y-65999376D01*
X41755413Y-65998977D01*
X41771209Y-65536088D01*
X41774615Y-65436261D01*
X41778322Y-65428112D01*
X41786267Y-65424962D01*
X42072636Y-65424007D01*
X42077178Y-65424910D01*
G37*
%TD.AperFunction*%
%TD*%
%TA.AperFunction,Conductor*%
%TO.N,Earth*%
G36*
X84281693Y-62311684D02*
G01*
X84992695Y-63021706D01*
X84996128Y-63029977D01*
X84992707Y-63038252D01*
X84992681Y-63038278D01*
X84281743Y-63745791D01*
X84273462Y-63749198D01*
X84267055Y-63747269D01*
X83555265Y-63278467D01*
X83550240Y-63271055D01*
X83550000Y-63268696D01*
X83550000Y-62781358D01*
X83553427Y-62773085D01*
X83555331Y-62771544D01*
X84267064Y-62310144D01*
X84275868Y-62308521D01*
X84281693Y-62311684D01*
G37*
%TD.AperFunction*%
%TD*%
%TA.AperFunction,Conductor*%
%TO.N,Earth*%
G36*
X91265677Y-68619685D02*
G01*
X91286319Y-68636319D01*
X91463681Y-68813681D01*
X91497166Y-68875004D01*
X91500000Y-68901362D01*
X91500000Y-70198638D01*
X91480315Y-70265677D01*
X91463681Y-70286319D01*
X91286319Y-70463681D01*
X91224996Y-70497166D01*
X91198638Y-70500000D01*
X90601362Y-70500000D01*
X90534323Y-70480315D01*
X90513681Y-70463681D01*
X90336319Y-70286319D01*
X90302834Y-70224996D01*
X90300000Y-70198638D01*
X90300000Y-68901362D01*
X90319685Y-68834323D01*
X90336319Y-68813681D01*
X90513681Y-68636319D01*
X90575004Y-68602834D01*
X90601362Y-68600000D01*
X91198638Y-68600000D01*
X91265677Y-68619685D01*
G37*
%TD.AperFunction*%
%TD*%
%TA.AperFunction,Conductor*%
%TO.N,+5VL*%
G36*
X43779392Y-56509399D02*
G01*
X43840058Y-56534747D01*
X43846370Y-56541099D01*
X43846343Y-56550054D01*
X43845758Y-56551255D01*
X43568407Y-57047067D01*
X43561377Y-57052614D01*
X43552484Y-57051566D01*
X43549923Y-57049628D01*
X43421441Y-56921146D01*
X43418572Y-56916445D01*
X43301120Y-56550050D01*
X43301858Y-56541125D01*
X43307769Y-56535675D01*
X43571206Y-56426163D01*
X43580159Y-56426153D01*
X43779392Y-56509399D01*
G37*
%TD.AperFunction*%
%TD*%
%TA.AperFunction,Conductor*%
%TO.N,Net-(U1-GPIO21{slash}U0TXD)*%
G36*
X78706611Y-64066214D02*
G01*
X79074413Y-64190981D01*
X79081145Y-64196883D01*
X79081733Y-64205819D01*
X79075875Y-64212530D01*
X78703867Y-64398070D01*
X78695807Y-64398951D01*
X78508862Y-64352215D01*
X78501667Y-64346884D01*
X78500000Y-64340864D01*
X78500000Y-64255095D01*
X78503427Y-64246822D01*
X78503710Y-64246548D01*
X78694887Y-64068727D01*
X78703277Y-64065603D01*
X78706611Y-64066214D01*
G37*
%TD.AperFunction*%
%TD*%
%TA.AperFunction,Conductor*%
%TO.N,GND*%
G36*
X58913950Y-61033427D02*
G01*
X58917081Y-61039087D01*
X58917133Y-61039313D01*
X59025228Y-61511191D01*
X59025030Y-61517164D01*
X58681207Y-62663630D01*
X58675548Y-62670570D01*
X58666639Y-62671476D01*
X58659699Y-62665817D01*
X58658793Y-62663630D01*
X58525691Y-62219809D01*
X58314933Y-61517044D01*
X58314687Y-61511300D01*
X58413059Y-61039313D01*
X58418102Y-61031913D01*
X58424513Y-61030000D01*
X58905677Y-61030000D01*
X58913950Y-61033427D01*
G37*
%TD.AperFunction*%
%TD*%
%TA.AperFunction,Conductor*%
%TO.N,Earth*%
G36*
X85251951Y-63553427D02*
G01*
X85253465Y-63555288D01*
X85719790Y-64267048D01*
X85721457Y-64275846D01*
X85718282Y-64281727D01*
X85008279Y-64992709D01*
X85000008Y-64996142D01*
X84991733Y-64992721D01*
X84991721Y-64992709D01*
X84678396Y-64678952D01*
X84281716Y-64281725D01*
X84278296Y-64273452D01*
X84280208Y-64267050D01*
X84746535Y-63555287D01*
X84753936Y-63550246D01*
X84756322Y-63550000D01*
X85243678Y-63550000D01*
X85251951Y-63553427D01*
G37*
%TD.AperFunction*%
%TD*%
%TA.AperFunction,Conductor*%
%TO.N,Earth*%
G36*
X85149565Y-64203427D02*
G01*
X85152992Y-64211700D01*
X85149565Y-64219973D01*
X85143782Y-64223132D01*
X84740989Y-64310851D01*
X84734917Y-64309757D01*
X84732176Y-64309263D01*
X84727067Y-64301909D01*
X84727112Y-64296728D01*
X84747869Y-64209005D01*
X84753109Y-64201744D01*
X84759255Y-64200000D01*
X84997607Y-64200000D01*
X85141292Y-64200000D01*
X85149565Y-64203427D01*
G37*
%TD.AperFunction*%
%TD*%
%TA.AperFunction,Conductor*%
%TO.N,+5VL*%
G36*
X58864114Y-68424963D02*
G01*
X58872375Y-68428417D01*
X58875746Y-68435861D01*
X58914141Y-68994596D01*
X58911290Y-69003085D01*
X58903271Y-69007070D01*
X58902469Y-69007098D01*
X58424129Y-69007098D01*
X58415856Y-69003671D01*
X58412780Y-68998243D01*
X58300283Y-68549566D01*
X58301595Y-68540708D01*
X58307119Y-68535926D01*
X58572822Y-68424909D01*
X58577362Y-68424007D01*
X58864114Y-68424963D01*
G37*
%TD.AperFunction*%
%TD*%
%TA.AperFunction,Conductor*%
%TO.N,+5V*%
G36*
X93243950Y-65333427D02*
G01*
X93247081Y-65339087D01*
X93266748Y-65424943D01*
X93355150Y-65810855D01*
X93354751Y-65817437D01*
X93011006Y-66770485D01*
X93004975Y-66777104D01*
X92996030Y-66777521D01*
X92989411Y-66771490D01*
X92988994Y-66770485D01*
X92645248Y-65817437D01*
X92645204Y-65817317D01*
X92644757Y-65810964D01*
X92743059Y-65339313D01*
X92748102Y-65331913D01*
X92754513Y-65330000D01*
X93235677Y-65330000D01*
X93243950Y-65333427D01*
G37*
%TD.AperFunction*%
%TD*%
%TA.AperFunction,Conductor*%
%TO.N,Earth*%
G36*
X83276970Y-65533427D02*
G01*
X83278466Y-65535262D01*
X83560300Y-65963176D01*
X83747270Y-66247055D01*
X83748959Y-66255849D01*
X83745792Y-66261743D01*
X83038278Y-66972681D01*
X83030013Y-66976128D01*
X83021732Y-66972721D01*
X83021706Y-66972695D01*
X82311684Y-66261693D01*
X82308263Y-66253418D01*
X82310144Y-66247064D01*
X82771541Y-65535336D01*
X82778917Y-65530258D01*
X82781359Y-65530000D01*
X83268697Y-65530000D01*
X83276970Y-65533427D01*
G37*
%TD.AperFunction*%
%TD*%
%TA.AperFunction,Conductor*%
%TO.N,Earth*%
G36*
X86970900Y-64703780D02*
G01*
X86975002Y-64711740D01*
X86975042Y-64712673D01*
X86976000Y-65000000D01*
X86976000Y-65000078D01*
X86975042Y-65287326D01*
X86971588Y-65295588D01*
X86963303Y-65298987D01*
X86962370Y-65298947D01*
X86385728Y-65250894D01*
X86377768Y-65246792D01*
X86375000Y-65239234D01*
X86375000Y-64760766D01*
X86378427Y-64752493D01*
X86385728Y-64749106D01*
X86962371Y-64701052D01*
X86970900Y-64703780D01*
G37*
%TD.AperFunction*%
%TD*%
%TA.AperFunction,Conductor*%
%TO.N,Earth*%
G36*
X75080589Y-67428509D02*
G01*
X75081006Y-67429514D01*
X75424751Y-68382562D01*
X75425150Y-68389144D01*
X75333144Y-68790792D01*
X75317134Y-68860687D01*
X75317082Y-68860912D01*
X75311894Y-68868212D01*
X75305677Y-68870000D01*
X74824513Y-68870000D01*
X74816240Y-68866573D01*
X74813059Y-68860687D01*
X74809328Y-68842788D01*
X74714757Y-68389035D01*
X74715204Y-68382683D01*
X75058994Y-67429513D01*
X75065025Y-67422895D01*
X75073970Y-67422478D01*
X75080589Y-67428509D01*
G37*
%TD.AperFunction*%
%TD*%
%TA.AperFunction,Conductor*%
%TO.N,GND*%
G36*
X59571799Y-71069725D02*
G01*
X59921019Y-71098494D01*
X59928981Y-71102588D01*
X59931696Y-71108964D01*
X60063367Y-72396285D01*
X60061906Y-72403246D01*
X59822730Y-72825035D01*
X59815668Y-72830541D01*
X59806781Y-72829442D01*
X59804279Y-72827537D01*
X59465362Y-72488620D01*
X59461935Y-72480347D01*
X59461963Y-72479536D01*
X59559178Y-71080573D01*
X59563170Y-71072559D01*
X59571661Y-71069714D01*
X59571799Y-71069725D01*
G37*
%TD.AperFunction*%
%TD*%
%TA.AperFunction,Conductor*%
%TO.N,Earth*%
G36*
X83038252Y-65007292D02*
G01*
X83745792Y-65718256D01*
X83749199Y-65726537D01*
X83747270Y-65732944D01*
X83408729Y-66246956D01*
X83278515Y-66444664D01*
X83278468Y-66444735D01*
X83271056Y-66449760D01*
X83268697Y-66450000D01*
X82781359Y-66450000D01*
X82773086Y-66446573D01*
X82771541Y-66444664D01*
X82310145Y-65732937D01*
X82308521Y-65724131D01*
X82311683Y-65718307D01*
X83021708Y-65007302D01*
X83029977Y-65003871D01*
X83038252Y-65007292D01*
G37*
%TD.AperFunction*%
%TD*%
%TA.AperFunction,Conductor*%
%TO.N,Earth*%
G36*
X84281725Y-64281716D02*
G01*
X84678952Y-64678396D01*
X84992709Y-64991721D01*
X84996142Y-64999992D01*
X84992721Y-65008267D01*
X84992709Y-65008279D01*
X84281727Y-65718282D01*
X84273452Y-65721703D01*
X84267048Y-65719790D01*
X83555288Y-65253464D01*
X83550246Y-65246063D01*
X83550000Y-65243677D01*
X83550000Y-64756322D01*
X83553427Y-64748049D01*
X83555285Y-64746537D01*
X84267049Y-64280208D01*
X84275846Y-64278542D01*
X84281725Y-64281716D01*
G37*
%TD.AperFunction*%
%TD*%
%TA.AperFunction,Conductor*%
%TO.N,+5VL*%
G36*
X55597346Y-73939200D02*
G01*
X55598691Y-73940811D01*
X55781589Y-74204865D01*
X55783483Y-74213617D01*
X55780272Y-74219773D01*
X55581243Y-74420133D01*
X55572981Y-74423587D01*
X55568452Y-74422691D01*
X55416959Y-74359715D01*
X55310651Y-74315522D01*
X55304327Y-74309182D01*
X55304338Y-74300227D01*
X55305249Y-74298471D01*
X55448598Y-74071804D01*
X55450205Y-74069795D01*
X55580801Y-73939199D01*
X55589073Y-73935773D01*
X55597346Y-73939200D01*
G37*
%TD.AperFunction*%
%TD*%
%TA.AperFunction,Conductor*%
%TO.N,+5V*%
G36*
X76340589Y-67428509D02*
G01*
X76341006Y-67429514D01*
X76684794Y-68382680D01*
X76685242Y-68389037D01*
X76586941Y-68860687D01*
X76581898Y-68868087D01*
X76575487Y-68870000D01*
X76094323Y-68870000D01*
X76086050Y-68866573D01*
X76082918Y-68860912D01*
X76082866Y-68860687D01*
X75974849Y-68389144D01*
X75975248Y-68382562D01*
X76318994Y-67429514D01*
X76325025Y-67422895D01*
X76333970Y-67422478D01*
X76340589Y-67428509D01*
G37*
%TD.AperFunction*%
%TD*%
%TA.AperFunction,Conductor*%
%TO.N,+5VL*%
G36*
X43003920Y-72012626D02*
G01*
X43003983Y-72012689D01*
X43211335Y-72223228D01*
X43214699Y-72231527D01*
X43211767Y-72239185D01*
X42989448Y-72490812D01*
X42981402Y-72494743D01*
X42972933Y-72491833D01*
X42971935Y-72490837D01*
X42749435Y-72240490D01*
X42746500Y-72232030D01*
X42750408Y-72223973D01*
X42751128Y-72223382D01*
X42854290Y-72145711D01*
X42987375Y-72012625D01*
X42995647Y-72009199D01*
X43003920Y-72012626D01*
G37*
%TD.AperFunction*%
%TD*%
%TA.AperFunction,Conductor*%
%TO.N,GND*%
G36*
X46528724Y-75506274D02*
G01*
X46781834Y-75717315D01*
X46785993Y-75725245D01*
X46784516Y-75732077D01*
X46678363Y-75919076D01*
X46671299Y-75924579D01*
X46668188Y-75925000D01*
X46479121Y-75925000D01*
X46471789Y-75922418D01*
X46290564Y-75776682D01*
X46286264Y-75768827D01*
X46288778Y-75760232D01*
X46289108Y-75759840D01*
X46512472Y-75507503D01*
X46520520Y-75503582D01*
X46528724Y-75506274D01*
G37*
%TD.AperFunction*%
%TD*%
%TA.AperFunction,Conductor*%
%TO.N,+5V*%
G36*
X93010589Y-63228509D02*
G01*
X93011006Y-63229514D01*
X93354751Y-64182562D01*
X93355150Y-64189144D01*
X93263144Y-64590792D01*
X93247134Y-64660687D01*
X93247082Y-64660912D01*
X93241894Y-64668212D01*
X93235677Y-64670000D01*
X92754513Y-64670000D01*
X92746240Y-64666573D01*
X92743059Y-64660687D01*
X92739328Y-64642788D01*
X92644757Y-64189035D01*
X92645204Y-64182683D01*
X92988994Y-63229513D01*
X92995025Y-63222895D01*
X93003970Y-63222478D01*
X93010589Y-63228509D01*
G37*
%TD.AperFunction*%
%TD*%
%TA.AperFunction,Conductor*%
%TO.N,GPIO9{slash}BOOT*%
G36*
X81005222Y-69914744D02*
G01*
X81010470Y-69919992D01*
X81196776Y-70293536D01*
X81197402Y-70302469D01*
X81195666Y-70305778D01*
X81053510Y-70495320D01*
X81045805Y-70499882D01*
X81044150Y-70500000D01*
X80955850Y-70500000D01*
X80947577Y-70496573D01*
X80946490Y-70495320D01*
X80804332Y-70305776D01*
X80802111Y-70297103D01*
X80803221Y-70293541D01*
X80989530Y-69919991D01*
X80996289Y-69914118D01*
X81005222Y-69914744D01*
G37*
%TD.AperFunction*%
%TD*%
%TA.AperFunction,Conductor*%
%TO.N,+5V*%
G36*
X76582507Y-70403427D02*
G01*
X76585894Y-70410728D01*
X76633947Y-70987370D01*
X76631219Y-70995900D01*
X76623259Y-71000002D01*
X76622326Y-71000042D01*
X76335039Y-71000999D01*
X76334961Y-71000999D01*
X76047673Y-71000042D01*
X76039411Y-70996588D01*
X76036012Y-70988303D01*
X76036052Y-70987370D01*
X76084106Y-70410728D01*
X76088208Y-70402768D01*
X76095766Y-70400000D01*
X76574234Y-70400000D01*
X76582507Y-70403427D01*
G37*
%TD.AperFunction*%
%TD*%
%TA.AperFunction,Conductor*%
%TO.N,USR_BTN*%
G36*
X89852423Y-69303427D02*
G01*
X89853510Y-69304680D01*
X89995666Y-69494221D01*
X89997888Y-69502896D01*
X89996776Y-69506463D01*
X89810470Y-69880007D01*
X89803711Y-69885881D01*
X89794778Y-69885255D01*
X89789530Y-69880007D01*
X89603223Y-69506463D01*
X89602597Y-69497530D01*
X89604330Y-69494226D01*
X89746490Y-69304680D01*
X89754195Y-69300118D01*
X89755850Y-69300000D01*
X89844150Y-69300000D01*
X89852423Y-69303427D01*
G37*
%TD.AperFunction*%
%TD*%
%TA.AperFunction,Conductor*%
%TO.N,Earth*%
G36*
X85251951Y-65533427D02*
G01*
X85253465Y-65535288D01*
X85719790Y-66247048D01*
X85721457Y-66255846D01*
X85718282Y-66261727D01*
X85008279Y-66972709D01*
X85000008Y-66976142D01*
X84991733Y-66972721D01*
X84991721Y-66972709D01*
X84678396Y-66658952D01*
X84281716Y-66261725D01*
X84278296Y-66253452D01*
X84280208Y-66247050D01*
X84746535Y-65535287D01*
X84753936Y-65530246D01*
X84756322Y-65530000D01*
X85243678Y-65530000D01*
X85251951Y-65533427D01*
G37*
%TD.AperFunction*%
%TD*%
%TA.AperFunction,Conductor*%
%TO.N,Earth*%
G36*
X83995900Y-64703780D02*
G01*
X84000002Y-64711740D01*
X84000042Y-64712673D01*
X84001000Y-65000000D01*
X84001000Y-65000078D01*
X84000042Y-65287326D01*
X83996588Y-65295588D01*
X83988303Y-65298987D01*
X83987370Y-65298947D01*
X83410728Y-65250894D01*
X83402768Y-65246792D01*
X83400000Y-65239234D01*
X83400000Y-64760766D01*
X83403427Y-64752493D01*
X83410728Y-64749106D01*
X83987371Y-64701052D01*
X83995900Y-64703780D01*
G37*
%TD.AperFunction*%
%TD*%
%TA.AperFunction,Conductor*%
%TO.N,IMU_INT*%
G36*
X86813082Y-69330240D02*
G01*
X86872652Y-69389810D01*
X86876079Y-69398083D01*
X86875966Y-69399707D01*
X86801728Y-69929421D01*
X86797186Y-69937138D01*
X86788517Y-69939384D01*
X86787797Y-69939260D01*
X86607733Y-69902433D01*
X86600314Y-69897418D01*
X86598435Y-69892136D01*
X86559891Y-69506732D01*
X86562478Y-69498161D01*
X86564715Y-69496062D01*
X86798000Y-69329000D01*
X86806718Y-69326970D01*
X86813082Y-69330240D01*
G37*
%TD.AperFunction*%
%TD*%
%TA.AperFunction,Conductor*%
%TO.N,+5VL*%
G36*
X47431543Y-54077307D02*
G01*
X47689348Y-54184477D01*
X47695672Y-54190817D01*
X47695661Y-54199772D01*
X47694745Y-54201535D01*
X47551405Y-54428189D01*
X47549790Y-54430208D01*
X47419199Y-54560799D01*
X47410926Y-54564226D01*
X47402653Y-54560799D01*
X47401308Y-54559188D01*
X47310571Y-54428189D01*
X47218409Y-54295132D01*
X47216516Y-54286382D01*
X47219725Y-54280228D01*
X47418757Y-54079865D01*
X47427018Y-54076412D01*
X47431543Y-54077307D01*
G37*
%TD.AperFunction*%
%TD*%
%TA.AperFunction,Conductor*%
%TO.N,GND*%
G36*
X41431543Y-70577307D02*
G01*
X41689348Y-70684477D01*
X41695672Y-70690817D01*
X41695661Y-70699772D01*
X41694745Y-70701535D01*
X41551405Y-70928189D01*
X41549790Y-70930208D01*
X41419199Y-71060799D01*
X41410926Y-71064226D01*
X41402653Y-71060799D01*
X41401308Y-71059188D01*
X41310571Y-70928189D01*
X41218409Y-70795132D01*
X41216516Y-70786382D01*
X41219725Y-70780228D01*
X41418757Y-70579865D01*
X41427018Y-70576412D01*
X41431543Y-70577307D01*
G37*
%TD.AperFunction*%
%TD*%
%TA.AperFunction,Conductor*%
%TO.N,+5VL*%
G36*
X43364009Y-56986008D02*
G01*
X43493823Y-57115822D01*
X43497250Y-57124095D01*
X43496077Y-57129201D01*
X43264798Y-57606085D01*
X43258105Y-57612033D01*
X43249827Y-57611802D01*
X42984610Y-57502890D01*
X42978258Y-57496577D01*
X42977771Y-57495163D01*
X42896667Y-57199642D01*
X42897782Y-57190757D01*
X42903132Y-57185884D01*
X43350920Y-56983617D01*
X43359870Y-56983336D01*
X43364009Y-56986008D01*
G37*
%TD.AperFunction*%
%TD*%
%TA.AperFunction,Conductor*%
%TO.N,+5VL*%
G36*
X53432252Y-75077030D02*
G01*
X53691588Y-75185386D01*
X53697900Y-75191738D01*
X53697963Y-75200469D01*
X53582919Y-75492587D01*
X53576699Y-75499029D01*
X53572033Y-75500000D01*
X53385688Y-75500000D01*
X53377415Y-75496573D01*
X53376486Y-75495525D01*
X53374179Y-75492587D01*
X53219261Y-75295274D01*
X53216847Y-75286651D01*
X53220169Y-75279796D01*
X53419453Y-75079572D01*
X53427717Y-75076127D01*
X53432252Y-75077030D01*
G37*
%TD.AperFunction*%
%TD*%
%TA.AperFunction,Conductor*%
%TO.N,+5V*%
G36*
X82820335Y-71784968D02*
G01*
X83243604Y-72151329D01*
X83247617Y-72159334D01*
X83244793Y-72167832D01*
X83244220Y-72168448D01*
X82905985Y-72506683D01*
X82897712Y-72510110D01*
X82891741Y-72508471D01*
X82689324Y-72388326D01*
X82493884Y-72272321D01*
X82488519Y-72265152D01*
X82489033Y-72257816D01*
X82525982Y-72167832D01*
X82598394Y-71991480D01*
X82600967Y-71987629D01*
X82804435Y-71785513D01*
X82812719Y-71782115D01*
X82820335Y-71784968D01*
G37*
%TD.AperFunction*%
%TD*%
%TA.AperFunction,Conductor*%
%TO.N,+5V*%
G36*
X94637249Y-66730711D02*
G01*
X94642202Y-66738171D01*
X94642211Y-66738217D01*
X94893009Y-68046664D01*
X94891201Y-68055435D01*
X94889791Y-68057140D01*
X94759667Y-68187264D01*
X94751394Y-68190691D01*
X94744723Y-68188603D01*
X94333551Y-67903263D01*
X94328708Y-67895731D01*
X94328540Y-67894293D01*
X94269842Y-66809449D01*
X94272817Y-66801005D01*
X94279274Y-66797337D01*
X94628471Y-66728938D01*
X94637249Y-66730711D01*
G37*
%TD.AperFunction*%
%TD*%
%TA.AperFunction,Conductor*%
%TO.N,GND*%
G36*
X39065642Y-66724189D02*
G01*
X39069956Y-66732036D01*
X39070027Y-66733321D01*
X39070027Y-66927465D01*
X39070027Y-67179538D01*
X39066600Y-67187811D01*
X39058327Y-67191238D01*
X39052393Y-67189621D01*
X38809480Y-67046658D01*
X38804088Y-67039509D01*
X38804427Y-67037084D01*
X38805331Y-67030641D01*
X38806277Y-67029266D01*
X39049196Y-66726005D01*
X39057042Y-66721692D01*
X39065642Y-66724189D01*
G37*
%TD.AperFunction*%
%TD*%
%TA.AperFunction,Conductor*%
%TO.N,Net-(J5-Pin_3)*%
G36*
X59506975Y-57298821D02*
G01*
X59908023Y-57596552D01*
X59912623Y-57604234D01*
X59912748Y-57605783D01*
X59930564Y-58890449D01*
X59927252Y-58898769D01*
X59920554Y-58902188D01*
X59572023Y-58953036D01*
X59563342Y-58950840D01*
X59558757Y-58943148D01*
X59558705Y-58942743D01*
X59393402Y-57404434D01*
X59395925Y-57395842D01*
X59396753Y-57394920D01*
X59491731Y-57299942D01*
X59500003Y-57296516D01*
X59506975Y-57298821D01*
G37*
%TD.AperFunction*%
%TD*%
%TA.AperFunction,Conductor*%
%TO.N,Earth*%
G36*
X85732950Y-64280208D02*
G01*
X86444712Y-64746535D01*
X86449754Y-64753936D01*
X86450000Y-64756322D01*
X86450000Y-65243677D01*
X86446573Y-65251950D01*
X86444712Y-65253464D01*
X85732951Y-65719790D01*
X85724153Y-65721457D01*
X85718273Y-65718282D01*
X85007289Y-65008278D01*
X85003857Y-65000008D01*
X85007278Y-64991733D01*
X85007290Y-64991721D01*
X85718274Y-64281715D01*
X85726547Y-64278296D01*
X85732950Y-64280208D01*
G37*
%TD.AperFunction*%
%TD*%
%TA.AperFunction,Conductor*%
%TO.N,+5VL*%
G36*
X55528724Y-56006274D02*
G01*
X55781834Y-56217315D01*
X55785993Y-56225245D01*
X55784516Y-56232077D01*
X55678363Y-56419076D01*
X55671299Y-56424579D01*
X55668188Y-56425000D01*
X55479121Y-56425000D01*
X55471789Y-56422418D01*
X55290564Y-56276682D01*
X55286264Y-56268827D01*
X55288778Y-56260232D01*
X55289108Y-56259840D01*
X55512472Y-56007503D01*
X55520520Y-56003582D01*
X55528724Y-56006274D01*
G37*
%TD.AperFunction*%
%TD*%
%TA.AperFunction,Conductor*%
%TO.N,IMU_INT*%
G36*
X87234106Y-68589822D02*
G01*
X87410110Y-68662092D01*
X87496184Y-68697436D01*
X87502536Y-68703748D01*
X87502563Y-68703815D01*
X87610169Y-68965874D01*
X87610142Y-68974829D01*
X87603790Y-68981141D01*
X87603331Y-68981319D01*
X87118087Y-69157084D01*
X87109141Y-69156679D01*
X87105829Y-69154356D01*
X87045643Y-69094170D01*
X87042216Y-69085897D01*
X87042915Y-69081912D01*
X87218680Y-68596668D01*
X87224720Y-68590057D01*
X87233666Y-68589652D01*
X87234106Y-68589822D01*
G37*
%TD.AperFunction*%
%TD*%
%TA.AperFunction,Conductor*%
%TO.N,CHIP_EN*%
G36*
X91305775Y-66404331D02*
G01*
X91495320Y-66546490D01*
X91499882Y-66554195D01*
X91500000Y-66555850D01*
X91500000Y-66644150D01*
X91496573Y-66652423D01*
X91495320Y-66653510D01*
X91305778Y-66795666D01*
X91297103Y-66797888D01*
X91293536Y-66796776D01*
X91198163Y-66749208D01*
X90919991Y-66610469D01*
X90914118Y-66603711D01*
X90914744Y-66594778D01*
X90919992Y-66589530D01*
X91293538Y-66403222D01*
X91302469Y-66402597D01*
X91305775Y-66404331D01*
G37*
%TD.AperFunction*%
%TD*%
%TA.AperFunction,Conductor*%
%TO.N,LED_DATA*%
G36*
X81500660Y-69425293D02*
G01*
X81736424Y-69497817D01*
X81743324Y-69503525D01*
X81744567Y-69507347D01*
X81799330Y-69891065D01*
X81797106Y-69899739D01*
X81791473Y-69903809D01*
X81610733Y-69964532D01*
X81601799Y-69963918D01*
X81596044Y-69957528D01*
X81425849Y-69500975D01*
X81426170Y-69492029D01*
X81428536Y-69488621D01*
X81488954Y-69428203D01*
X81497226Y-69424777D01*
X81500660Y-69425293D01*
G37*
%TD.AperFunction*%
%TD*%
%TA.AperFunction,Conductor*%
%TO.N,+5V*%
G36*
X93902121Y-62832914D02*
G01*
X93905066Y-62835052D01*
X94262693Y-63191716D01*
X94266131Y-63199984D01*
X94262715Y-63208262D01*
X94262693Y-63208284D01*
X93905066Y-63564947D01*
X93896788Y-63568363D01*
X93893194Y-63567792D01*
X93538090Y-63452623D01*
X93531278Y-63446811D01*
X93530000Y-63441494D01*
X93530000Y-62958505D01*
X93533427Y-62950232D01*
X93538089Y-62947376D01*
X93893194Y-62832207D01*
X93902121Y-62832914D01*
G37*
%TD.AperFunction*%
%TD*%
%TA.AperFunction,Conductor*%
%TO.N,+5V*%
G36*
X94513130Y-64310389D02*
G01*
X94516439Y-64317002D01*
X94598091Y-64886684D01*
X94595872Y-64895360D01*
X94588169Y-64899926D01*
X94586548Y-64900044D01*
X94300039Y-64900999D01*
X94299961Y-64900999D01*
X94011959Y-64900039D01*
X94003697Y-64896585D01*
X94000298Y-64888300D01*
X94000302Y-64888043D01*
X94000337Y-64886684D01*
X94014712Y-64318366D01*
X94018347Y-64310182D01*
X94026408Y-64306962D01*
X94504857Y-64306962D01*
X94513130Y-64310389D01*
G37*
%TD.AperFunction*%
%TD*%
%TA.AperFunction,Conductor*%
%TO.N,Earth*%
G36*
X83762950Y-64280208D02*
G01*
X84474712Y-64746535D01*
X84479754Y-64753936D01*
X84480000Y-64756322D01*
X84480000Y-65243677D01*
X84476573Y-65251950D01*
X84474712Y-65253464D01*
X83762951Y-65719790D01*
X83754153Y-65721457D01*
X83748273Y-65718282D01*
X83037289Y-65008278D01*
X83033857Y-65000008D01*
X83037278Y-64991733D01*
X83037290Y-64991721D01*
X83748274Y-64281715D01*
X83756547Y-64278296D01*
X83762950Y-64280208D01*
G37*
%TD.AperFunction*%
%TD*%
%TA.AperFunction,Conductor*%
%TO.N,+5V*%
G36*
X93376804Y-62832207D02*
G01*
X93731909Y-62947376D01*
X93738722Y-62953188D01*
X93740000Y-62958505D01*
X93740000Y-63441494D01*
X93736573Y-63449767D01*
X93731909Y-63452623D01*
X93376804Y-63567792D01*
X93367878Y-63567085D01*
X93364933Y-63564947D01*
X93007305Y-63208283D01*
X93003868Y-63200016D01*
X93007284Y-63191738D01*
X93007306Y-63191716D01*
X93364935Y-62835051D01*
X93373211Y-62831636D01*
X93376804Y-62832207D01*
G37*
%TD.AperFunction*%
%TD*%
%TA.AperFunction,Conductor*%
%TO.N,+3V3*%
G36*
X94751595Y-71406638D02*
G01*
X95194278Y-71645005D01*
X95199937Y-71651944D01*
X95199555Y-71659747D01*
X95102564Y-71896180D01*
X95096253Y-71902533D01*
X95096180Y-71902564D01*
X94859747Y-71999555D01*
X94850792Y-71999524D01*
X94845005Y-71994278D01*
X94606638Y-71551596D01*
X94605734Y-71542689D01*
X94608666Y-71537780D01*
X94737779Y-71408667D01*
X94746051Y-71405241D01*
X94751595Y-71406638D01*
G37*
%TD.AperFunction*%
%TD*%
%TA.AperFunction,Conductor*%
%TO.N,Earth*%
G36*
X87222507Y-64403427D02*
G01*
X87225894Y-64410728D01*
X87273947Y-64987370D01*
X87271219Y-64995900D01*
X87263259Y-65000002D01*
X87262326Y-65000042D01*
X86975039Y-65000999D01*
X86974961Y-65000999D01*
X86687673Y-65000042D01*
X86679411Y-64996588D01*
X86676012Y-64988303D01*
X86676052Y-64987370D01*
X86724106Y-64410728D01*
X86728208Y-64402768D01*
X86735766Y-64400000D01*
X87214234Y-64400000D01*
X87222507Y-64403427D01*
G37*
%TD.AperFunction*%
%TD*%
%TA.AperFunction,Conductor*%
%TO.N,+5VL*%
G36*
X58862327Y-65424957D02*
G01*
X58870588Y-65428411D01*
X58873987Y-65436696D01*
X58873947Y-65437629D01*
X58825894Y-66014272D01*
X58821792Y-66022232D01*
X58814234Y-66025000D01*
X58335766Y-66025000D01*
X58327493Y-66021573D01*
X58324106Y-66014272D01*
X58276052Y-65437629D01*
X58278780Y-65429099D01*
X58286740Y-65424997D01*
X58287653Y-65424957D01*
X58575000Y-65424000D01*
X58862327Y-65424957D01*
G37*
%TD.AperFunction*%
%TD*%
%TA.AperFunction,Conductor*%
%TO.N,+5V*%
G36*
X94586548Y-64899955D02*
G01*
X94594810Y-64903409D01*
X94598209Y-64911694D01*
X94598091Y-64913315D01*
X94516439Y-65482998D01*
X94511873Y-65490701D01*
X94504857Y-65493038D01*
X94026408Y-65493038D01*
X94018135Y-65489611D01*
X94014712Y-65481634D01*
X94007187Y-65184150D01*
X94000302Y-64911955D01*
X94003518Y-64903599D01*
X94011702Y-64899964D01*
X94011947Y-64899960D01*
X94300000Y-64899000D01*
X94586548Y-64899955D01*
G37*
%TD.AperFunction*%
%TD*%
%TA.AperFunction,Conductor*%
%TO.N,+5V*%
G36*
X94280589Y-63228509D02*
G01*
X94281006Y-63229514D01*
X94624751Y-64182562D01*
X94625150Y-64189144D01*
X94533144Y-64590792D01*
X94517134Y-64660687D01*
X94517082Y-64660912D01*
X94511894Y-64668212D01*
X94505677Y-64670000D01*
X94024513Y-64670000D01*
X94016240Y-64666573D01*
X94013059Y-64660687D01*
X94009328Y-64642788D01*
X93914757Y-64189035D01*
X93915204Y-64182683D01*
X94258994Y-63229513D01*
X94265025Y-63222895D01*
X94273970Y-63222478D01*
X94280589Y-63228509D01*
G37*
%TD.AperFunction*%
%TD*%
%TA.AperFunction,Conductor*%
%TO.N,Earth*%
G36*
X95777963Y-66283189D02*
G01*
X95781390Y-66291462D01*
X95780979Y-66294535D01*
X95615642Y-66902023D01*
X95610163Y-66909105D01*
X95601280Y-66910239D01*
X95599909Y-66909773D01*
X95335066Y-66801027D01*
X95335011Y-66800972D01*
X95335000Y-66801000D01*
X95069949Y-66690256D01*
X95063637Y-66683904D01*
X95063664Y-66674949D01*
X95064248Y-66673750D01*
X95276723Y-66294535D01*
X95281649Y-66285743D01*
X95288683Y-66280201D01*
X95291856Y-66279762D01*
X95769690Y-66279762D01*
X95777963Y-66283189D01*
G37*
%TD.AperFunction*%
%TD*%
%TA.AperFunction,Conductor*%
%TO.N,SDA*%
G36*
X90400693Y-63825344D02*
G01*
X90946570Y-63996596D01*
X90953438Y-64002343D01*
X90954327Y-64010941D01*
X90903217Y-64191820D01*
X90897670Y-64198850D01*
X90891480Y-64200329D01*
X90506259Y-64184579D01*
X90498133Y-64180817D01*
X90496743Y-64178973D01*
X90328005Y-63901788D01*
X90326630Y-63892939D01*
X90329724Y-63887433D01*
X90388922Y-63828235D01*
X90397194Y-63824809D01*
X90400693Y-63825344D01*
G37*
%TD.AperFunction*%
%TD*%
%TA.AperFunction,Conductor*%
%TO.N,Earth*%
G36*
X86261725Y-64281716D02*
G01*
X86658952Y-64678396D01*
X86972709Y-64991721D01*
X86976142Y-64999992D01*
X86972721Y-65008267D01*
X86972709Y-65008279D01*
X86261727Y-65718282D01*
X86253452Y-65721703D01*
X86247048Y-65719790D01*
X85535288Y-65253464D01*
X85530246Y-65246063D01*
X85530000Y-65243677D01*
X85530000Y-64756322D01*
X85533427Y-64748049D01*
X85535285Y-64746537D01*
X86247049Y-64280208D01*
X86255846Y-64278542D01*
X86261725Y-64281716D01*
G37*
%TD.AperFunction*%
%TD*%
%TA.AperFunction,Conductor*%
%TO.N,Earth*%
G36*
X95608864Y-63090253D02*
G01*
X95615176Y-63096605D01*
X95615642Y-63097976D01*
X95780979Y-63705465D01*
X95779845Y-63714348D01*
X95772763Y-63719827D01*
X95769690Y-63720238D01*
X95291856Y-63720238D01*
X95283583Y-63716811D01*
X95281649Y-63714257D01*
X95064253Y-63326258D01*
X95063199Y-63317365D01*
X95068741Y-63310332D01*
X95069935Y-63309749D01*
X95335000Y-63199000D01*
X95335005Y-63199012D01*
X95335062Y-63198974D01*
X95599911Y-63090226D01*
X95608864Y-63090253D01*
G37*
%TD.AperFunction*%
%TD*%
%TA.AperFunction,Conductor*%
%TO.N,Earth*%
G36*
X95347618Y-66501051D02*
G01*
X95924272Y-66549106D01*
X95932232Y-66553208D01*
X95935000Y-66560766D01*
X95935000Y-67039234D01*
X95931573Y-67047507D01*
X95924272Y-67050894D01*
X95347629Y-67098947D01*
X95339099Y-67096219D01*
X95334997Y-67088259D01*
X95334957Y-67087345D01*
X95334000Y-66800000D01*
X95334957Y-66512671D01*
X95338411Y-66504411D01*
X95346696Y-66501012D01*
X95347618Y-66501051D01*
G37*
%TD.AperFunction*%
%TD*%
%TA.AperFunction,Conductor*%
%TO.N,CHIP_EN*%
G36*
X92565904Y-58990100D02*
G01*
X92572216Y-58996452D01*
X92572189Y-59005407D01*
X92571989Y-59005857D01*
X92353155Y-59473261D01*
X92346544Y-59479301D01*
X92342559Y-59480000D01*
X92257441Y-59480000D01*
X92249168Y-59476573D01*
X92246845Y-59473261D01*
X92028010Y-59005857D01*
X92027605Y-58996911D01*
X92033645Y-58990300D01*
X92034066Y-58990112D01*
X92295490Y-58880883D01*
X92304444Y-58880857D01*
X92565904Y-58990100D01*
G37*
%TD.AperFunction*%
%TD*%
%TA.AperFunction,Conductor*%
%TO.N,Earth*%
G36*
X91053180Y-70806050D02*
G01*
X91401779Y-71079740D01*
X91406170Y-71087544D01*
X91403757Y-71096167D01*
X91402847Y-71097196D01*
X91203446Y-71297537D01*
X91195181Y-71300983D01*
X91195114Y-71300983D01*
X90910545Y-71300035D01*
X90902283Y-71296581D01*
X90898943Y-71289507D01*
X90851296Y-70816425D01*
X90853876Y-70807851D01*
X90861765Y-70803612D01*
X90862937Y-70803553D01*
X91045955Y-70803553D01*
X91053180Y-70806050D01*
G37*
%TD.AperFunction*%
%TD*%
%TA.AperFunction,Conductor*%
%TO.N,+5VL*%
G36*
X53503920Y-75012626D02*
G01*
X53503983Y-75012689D01*
X53711335Y-75223228D01*
X53714699Y-75231527D01*
X53711767Y-75239185D01*
X53489448Y-75490812D01*
X53481402Y-75494743D01*
X53472933Y-75491833D01*
X53471935Y-75490837D01*
X53249435Y-75240490D01*
X53246500Y-75232030D01*
X53250408Y-75223973D01*
X53251128Y-75223382D01*
X53354290Y-75145711D01*
X53487375Y-75012625D01*
X53495647Y-75009199D01*
X53503920Y-75012626D01*
G37*
%TD.AperFunction*%
%TD*%
%TA.AperFunction,Conductor*%
%TO.N,Net-(U1-GPIO20{slash}U0RXD)*%
G36*
X73155769Y-65271780D02*
G01*
X73377663Y-65647247D01*
X73379290Y-65653199D01*
X73379290Y-65735989D01*
X73375863Y-65744262D01*
X73367590Y-65747689D01*
X73365504Y-65747502D01*
X72840061Y-65652305D01*
X72832532Y-65647458D01*
X72830634Y-65638706D01*
X72830897Y-65637580D01*
X72897658Y-65404680D01*
X72903229Y-65397674D01*
X73140062Y-65267480D01*
X73148961Y-65266499D01*
X73155769Y-65271780D01*
G37*
%TD.AperFunction*%
%TD*%
%TA.AperFunction,Conductor*%
%TO.N,+5VL*%
G36*
X58377411Y-57177490D02*
G01*
X58378872Y-57179272D01*
X58657512Y-57597097D01*
X58659478Y-57603487D01*
X58670618Y-58890474D01*
X58667262Y-58898776D01*
X58660576Y-58902157D01*
X58310988Y-58952194D01*
X58302313Y-58949974D01*
X58297852Y-58942878D01*
X58018608Y-57527076D01*
X58020369Y-57518298D01*
X58021809Y-57516546D01*
X58360866Y-57177489D01*
X58369138Y-57174063D01*
X58377411Y-57177490D01*
G37*
%TD.AperFunction*%
%TD*%
%TA.AperFunction,Conductor*%
%TO.N,GND*%
G36*
X57362327Y-69924957D02*
G01*
X57370588Y-69928411D01*
X57373987Y-69936696D01*
X57373947Y-69937629D01*
X57325894Y-70514272D01*
X57321792Y-70522232D01*
X57314234Y-70525000D01*
X56835766Y-70525000D01*
X56827493Y-70521573D01*
X56824106Y-70514272D01*
X56776052Y-69937629D01*
X56778780Y-69929099D01*
X56786740Y-69924997D01*
X56787653Y-69924957D01*
X57075000Y-69924000D01*
X57362327Y-69924957D01*
G37*
%TD.AperFunction*%
%TD*%
%TA.AperFunction,Conductor*%
%TO.N,Earth*%
G36*
X85008266Y-65007277D02*
G01*
X85718282Y-65718273D01*
X85721703Y-65726547D01*
X85719790Y-65732951D01*
X85253465Y-66444712D01*
X85246064Y-66449754D01*
X85243678Y-66450000D01*
X84756322Y-66450000D01*
X84748049Y-66446573D01*
X84746535Y-66444712D01*
X84280209Y-65732951D01*
X84278542Y-65724153D01*
X84281714Y-65718275D01*
X84991721Y-65007289D01*
X84999992Y-65003857D01*
X85008266Y-65007277D01*
G37*
%TD.AperFunction*%
%TD*%
%TA.AperFunction,Conductor*%
%TO.N,USR_BTN*%
G36*
X89275053Y-68207964D02*
G01*
X89281365Y-68214316D01*
X89281461Y-68214556D01*
X89321095Y-68317492D01*
X89427350Y-68593457D01*
X89464176Y-68689099D01*
X89463950Y-68698051D01*
X89461530Y-68701576D01*
X89401323Y-68761783D01*
X89393050Y-68765210D01*
X89389326Y-68764602D01*
X88897040Y-68599339D01*
X88890288Y-68593457D01*
X88889672Y-68584523D01*
X88889933Y-68583822D01*
X88997436Y-68322013D01*
X89003746Y-68315663D01*
X89266100Y-68207937D01*
X89275053Y-68207964D01*
G37*
%TD.AperFunction*%
%TD*%
%TA.AperFunction,Conductor*%
%TO.N,+5V*%
G36*
X87069062Y-75156531D02*
G01*
X87293772Y-75402102D01*
X87296829Y-75410518D01*
X87293772Y-75417898D01*
X87069062Y-75663468D01*
X87060948Y-75667259D01*
X87055611Y-75666231D01*
X86716881Y-75513110D01*
X86710753Y-75506580D01*
X86710000Y-75502449D01*
X86710000Y-75317550D01*
X86713427Y-75309277D01*
X86716878Y-75306890D01*
X87055613Y-75153767D01*
X87064561Y-75153482D01*
X87069062Y-75156531D01*
G37*
%TD.AperFunction*%
%TD*%
%TA.AperFunction,Conductor*%
%TO.N,Earth*%
G36*
X85995378Y-64775423D02*
G01*
X85999892Y-64783156D01*
X86000000Y-64784739D01*
X86000000Y-65000412D01*
X86000000Y-65231275D01*
X85996573Y-65239548D01*
X85988300Y-65242975D01*
X85983171Y-65241791D01*
X85735643Y-65121052D01*
X85729709Y-65114345D01*
X85729858Y-65111906D01*
X85730256Y-65105407D01*
X85731451Y-65103464D01*
X85978984Y-64777660D01*
X85986717Y-64773147D01*
X85995378Y-64775423D01*
G37*
%TD.AperFunction*%
%TD*%
%TA.AperFunction,Conductor*%
%TO.N,+5VL*%
G36*
X47528211Y-75077582D02*
G01*
X47709435Y-75223317D01*
X47713735Y-75231172D01*
X47711221Y-75239767D01*
X47710864Y-75240190D01*
X47487529Y-75492494D01*
X47479479Y-75496417D01*
X47471275Y-75493725D01*
X47218165Y-75282684D01*
X47214006Y-75274754D01*
X47215483Y-75267922D01*
X47321637Y-75080924D01*
X47328702Y-75075421D01*
X47331812Y-75075000D01*
X47520879Y-75075000D01*
X47528211Y-75077582D01*
G37*
%TD.AperFunction*%
%TD*%
%TA.AperFunction,Conductor*%
%TO.N,GPIO9{slash}BOOT*%
G36*
X78925407Y-71927810D02*
G01*
X78925838Y-71928001D01*
X79393262Y-72146845D01*
X79399301Y-72153455D01*
X79400000Y-72157440D01*
X79400000Y-72242559D01*
X79396573Y-72250832D01*
X79393261Y-72253155D01*
X78925857Y-72471989D01*
X78916911Y-72472394D01*
X78910300Y-72466354D01*
X78910100Y-72465904D01*
X78821209Y-72253155D01*
X78800883Y-72204509D01*
X78800857Y-72195556D01*
X78800862Y-72195542D01*
X78910101Y-71934093D01*
X78916452Y-71927783D01*
X78925407Y-71927810D01*
G37*
%TD.AperFunction*%
%TD*%
%TA.AperFunction,Conductor*%
%TO.N,+5VL*%
G36*
X52112040Y-54074956D02*
G01*
X52120301Y-54078410D01*
X52123700Y-54086695D01*
X52123635Y-54087888D01*
X52081108Y-54489532D01*
X52076829Y-54497398D01*
X52069473Y-54500000D01*
X51884091Y-54500000D01*
X51876800Y-54497450D01*
X51623087Y-54295275D01*
X51618752Y-54287439D01*
X51621228Y-54278834D01*
X51622080Y-54277876D01*
X51821555Y-54077461D01*
X51829817Y-54074016D01*
X52112040Y-54074956D01*
G37*
%TD.AperFunction*%
%TD*%
%TA.AperFunction,Conductor*%
%TO.N,GND*%
G36*
X44431543Y-73577307D02*
G01*
X44689348Y-73684477D01*
X44695672Y-73690817D01*
X44695661Y-73699772D01*
X44694745Y-73701535D01*
X44551405Y-73928189D01*
X44549790Y-73930208D01*
X44419199Y-74060799D01*
X44410926Y-74064226D01*
X44402653Y-74060799D01*
X44401308Y-74059188D01*
X44310571Y-73928189D01*
X44218409Y-73795132D01*
X44216516Y-73786382D01*
X44219725Y-73780228D01*
X44418757Y-73579865D01*
X44427018Y-73576412D01*
X44431543Y-73577307D01*
G37*
%TD.AperFunction*%
%TD*%
%TA.AperFunction,Conductor*%
%TO.N,+5VL*%
G36*
X40528724Y-71006274D02*
G01*
X40781834Y-71217315D01*
X40785993Y-71225245D01*
X40784516Y-71232077D01*
X40678363Y-71419076D01*
X40671299Y-71424579D01*
X40668188Y-71425000D01*
X40479121Y-71425000D01*
X40471789Y-71422418D01*
X40290564Y-71276682D01*
X40286264Y-71268827D01*
X40288778Y-71260232D01*
X40289108Y-71259840D01*
X40512472Y-71007503D01*
X40520520Y-71003582D01*
X40528724Y-71006274D01*
G37*
%TD.AperFunction*%
%TD*%
%TA.AperFunction,Conductor*%
%TO.N,Earth*%
G36*
X85361072Y-67191088D02*
G01*
X85631445Y-67335551D01*
X85785479Y-67417853D01*
X85791161Y-67424774D01*
X85790788Y-67432616D01*
X85682563Y-67696184D01*
X85676251Y-67702536D01*
X85676184Y-67702563D01*
X85413830Y-67810290D01*
X85404875Y-67810263D01*
X85398563Y-67803911D01*
X85398515Y-67803792D01*
X85214798Y-67335550D01*
X85214967Y-67326598D01*
X85217414Y-67323008D01*
X85347288Y-67193134D01*
X85355560Y-67189708D01*
X85361072Y-67191088D01*
G37*
%TD.AperFunction*%
%TD*%
%TA.AperFunction,Conductor*%
%TO.N,+5VL*%
G36*
X55528724Y-74006274D02*
G01*
X55781834Y-74217315D01*
X55785993Y-74225245D01*
X55784516Y-74232077D01*
X55678363Y-74419076D01*
X55671299Y-74424579D01*
X55668188Y-74425000D01*
X55479121Y-74425000D01*
X55471789Y-74422418D01*
X55290564Y-74276682D01*
X55286264Y-74268827D01*
X55288778Y-74260232D01*
X55289108Y-74259840D01*
X55512472Y-74007503D01*
X55520520Y-74003582D01*
X55528724Y-74006274D01*
G37*
%TD.AperFunction*%
%TD*%
%TA.AperFunction,Conductor*%
%TO.N,+5V*%
G36*
X94513950Y-65333427D02*
G01*
X94517081Y-65339087D01*
X94536748Y-65424943D01*
X94625150Y-65810855D01*
X94624751Y-65817437D01*
X94281006Y-66770485D01*
X94274975Y-66777104D01*
X94266030Y-66777521D01*
X94259411Y-66771490D01*
X94258994Y-66770485D01*
X93915248Y-65817437D01*
X93915204Y-65817317D01*
X93914757Y-65810964D01*
X94013059Y-65339313D01*
X94018102Y-65331913D01*
X94024513Y-65330000D01*
X94505677Y-65330000D01*
X94513950Y-65333427D01*
G37*
%TD.AperFunction*%
%TD*%
%TA.AperFunction,Conductor*%
%TO.N,Net-(J5-Pin_3)*%
G36*
X59940301Y-58934182D02*
G01*
X59941207Y-58936369D01*
X60284478Y-60080996D01*
X60283572Y-60089905D01*
X60283436Y-60090150D01*
X60013366Y-60564093D01*
X60006293Y-60569584D01*
X60003201Y-60570000D01*
X59866679Y-60570000D01*
X59858406Y-60566573D01*
X59856604Y-60564249D01*
X59576684Y-60090203D01*
X59575429Y-60081337D01*
X59575552Y-60080893D01*
X59918793Y-58936369D01*
X59924452Y-58929429D01*
X59933361Y-58928523D01*
X59940301Y-58934182D01*
G37*
%TD.AperFunction*%
%TD*%
%TA.AperFunction,Conductor*%
%TO.N,GND*%
G36*
X50961863Y-54441864D02*
G01*
X51090710Y-54570711D01*
X51276014Y-54704821D01*
X51280707Y-54712447D01*
X51278632Y-54721159D01*
X51277427Y-54722572D01*
X51079839Y-54920160D01*
X51071566Y-54923587D01*
X51067056Y-54922683D01*
X50808444Y-54814627D01*
X50802133Y-54808276D01*
X50802084Y-54799511D01*
X50942719Y-54445812D01*
X50948959Y-54439393D01*
X50957913Y-54439265D01*
X50961863Y-54441864D01*
G37*
%TD.AperFunction*%
%TD*%
%TA.AperFunction,Conductor*%
%TO.N,+5V*%
G36*
X76583760Y-69533427D02*
G01*
X76586941Y-69539313D01*
X76685242Y-70010962D01*
X76684794Y-70017319D01*
X76341006Y-70970485D01*
X76334975Y-70977104D01*
X76326030Y-70977521D01*
X76319411Y-70971490D01*
X76318994Y-70970485D01*
X75975248Y-70017437D01*
X75974849Y-70010855D01*
X76082918Y-69539087D01*
X76088106Y-69531788D01*
X76094323Y-69530000D01*
X76575487Y-69530000D01*
X76583760Y-69533427D01*
G37*
%TD.AperFunction*%
%TD*%
%TA.AperFunction,Conductor*%
%TO.N,Earth*%
G36*
X86988252Y-65007292D02*
G01*
X87695792Y-65718256D01*
X87699199Y-65726537D01*
X87697270Y-65732944D01*
X87358729Y-66246956D01*
X87228515Y-66444664D01*
X87228468Y-66444735D01*
X87221056Y-66449760D01*
X87218697Y-66450000D01*
X86731359Y-66450000D01*
X86723086Y-66446573D01*
X86721541Y-66444664D01*
X86260145Y-65732937D01*
X86258521Y-65724131D01*
X86261683Y-65718307D01*
X86971708Y-65007302D01*
X86979977Y-65003871D01*
X86988252Y-65007292D01*
G37*
%TD.AperFunction*%
%TD*%
%TA.AperFunction,Conductor*%
%TO.N,Earth*%
G36*
X85008266Y-63037277D02*
G01*
X85718282Y-63748273D01*
X85721703Y-63756547D01*
X85719790Y-63762951D01*
X85253465Y-64474712D01*
X85246064Y-64479754D01*
X85243678Y-64480000D01*
X84756322Y-64480000D01*
X84748049Y-64476573D01*
X84746535Y-64474712D01*
X84280209Y-63762951D01*
X84278542Y-63754153D01*
X84281714Y-63748275D01*
X84991721Y-63037289D01*
X84999992Y-63033857D01*
X85008266Y-63037277D01*
G37*
%TD.AperFunction*%
%TD*%
%TA.AperFunction,Conductor*%
%TO.N,+5V*%
G36*
X93376804Y-66432207D02*
G01*
X93731909Y-66547376D01*
X93738722Y-66553188D01*
X93740000Y-66558505D01*
X93740000Y-67041494D01*
X93736573Y-67049767D01*
X93731909Y-67052623D01*
X93376804Y-67167792D01*
X93367878Y-67167085D01*
X93364933Y-67164947D01*
X93007305Y-66808283D01*
X93003868Y-66800016D01*
X93007284Y-66791738D01*
X93007306Y-66791716D01*
X93364935Y-66435051D01*
X93373211Y-66431636D01*
X93376804Y-66432207D01*
G37*
%TD.AperFunction*%
%TD*%
%TA.AperFunction,Conductor*%
%TO.N,Earth*%
G36*
X96432121Y-66432914D02*
G01*
X96435066Y-66435052D01*
X96792693Y-66791716D01*
X96796131Y-66799984D01*
X96792715Y-66808262D01*
X96792693Y-66808284D01*
X96435066Y-67164947D01*
X96426788Y-67168363D01*
X96423194Y-67167792D01*
X96068090Y-67052623D01*
X96061278Y-67046811D01*
X96060000Y-67041494D01*
X96060000Y-66558505D01*
X96063427Y-66550232D01*
X96068089Y-66547376D01*
X96423194Y-66432207D01*
X96432121Y-66432914D01*
G37*
%TD.AperFunction*%
%TD*%
%TA.AperFunction,Conductor*%
%TO.N,GND*%
G36*
X51027528Y-54507504D02*
G01*
X51213039Y-54717078D01*
X51251073Y-54760045D01*
X51253990Y-54768511D01*
X51250067Y-54776561D01*
X51249879Y-54776724D01*
X51078273Y-54922224D01*
X51070708Y-54925000D01*
X50881527Y-54925000D01*
X50873254Y-54921573D01*
X50871571Y-54919446D01*
X50755987Y-54732210D01*
X50754557Y-54723370D01*
X50758450Y-54717078D01*
X51011276Y-54506273D01*
X51019824Y-54503608D01*
X51027528Y-54507504D01*
G37*
%TD.AperFunction*%
%TD*%
%TA.AperFunction,Conductor*%
%TO.N,Earth*%
G36*
X85732935Y-66260144D02*
G01*
X86444664Y-66721541D01*
X86449742Y-66728916D01*
X86450000Y-66731358D01*
X86450000Y-67218696D01*
X86446573Y-67226969D01*
X86444735Y-67228467D01*
X85732944Y-67697269D01*
X85724150Y-67698958D01*
X85718257Y-67695791D01*
X85007317Y-66988277D01*
X85003871Y-66980013D01*
X85007277Y-66971734D01*
X85718307Y-66261683D01*
X85726581Y-66258263D01*
X85732935Y-66260144D01*
G37*
%TD.AperFunction*%
%TD*%
%TA.AperFunction,Conductor*%
%TO.N,DATA_IN*%
G36*
X53591380Y-55035299D02*
G01*
X53597691Y-55041650D01*
X53597668Y-55050594D01*
X53403000Y-55517800D01*
X53396655Y-55524119D01*
X53392200Y-55525000D01*
X53257800Y-55525000D01*
X53249527Y-55521573D01*
X53247000Y-55517800D01*
X53052331Y-55050594D01*
X53052312Y-55041639D01*
X53058617Y-55035300D01*
X53320490Y-54925883D01*
X53329444Y-54925857D01*
X53591380Y-55035299D01*
G37*
%TD.AperFunction*%
%TD*%
%TA.AperFunction,Conductor*%
%TO.N,+3V3*%
G36*
X83011106Y-76624577D02*
G01*
X83333806Y-76796696D01*
X83339493Y-76803613D01*
X83340000Y-76807019D01*
X83340000Y-76992980D01*
X83336573Y-77001253D01*
X83333806Y-77003303D01*
X83011106Y-77175422D01*
X83002194Y-77176292D01*
X82996456Y-77172398D01*
X82861467Y-77003303D01*
X82784825Y-76907297D01*
X82782343Y-76898696D01*
X82784825Y-76892703D01*
X82996457Y-76627599D01*
X83004296Y-76623273D01*
X83011106Y-76624577D01*
G37*
%TD.AperFunction*%
%TD*%
%TA.AperFunction,Conductor*%
%TO.N,Earth*%
G36*
X83276970Y-63553427D02*
G01*
X83278466Y-63555262D01*
X83560300Y-63983176D01*
X83747270Y-64267055D01*
X83748959Y-64275849D01*
X83745792Y-64281743D01*
X83038278Y-64992681D01*
X83030013Y-64996128D01*
X83021732Y-64992721D01*
X83021706Y-64992695D01*
X82311684Y-64281693D01*
X82308263Y-64273418D01*
X82310144Y-64267064D01*
X82771541Y-63555336D01*
X82778917Y-63550258D01*
X82781359Y-63550000D01*
X83268697Y-63550000D01*
X83276970Y-63553427D01*
G37*
%TD.AperFunction*%
%TD*%
%TA.AperFunction,Conductor*%
%TO.N,+5VL*%
G36*
X58913950Y-69433427D02*
G01*
X58917081Y-69439087D01*
X58917133Y-69439313D01*
X59025228Y-69911191D01*
X59025030Y-69917164D01*
X58681207Y-71063630D01*
X58675548Y-71070570D01*
X58666639Y-71071476D01*
X58659699Y-71065817D01*
X58658793Y-71063630D01*
X58525691Y-70619809D01*
X58314933Y-69917044D01*
X58314687Y-69911300D01*
X58413059Y-69439313D01*
X58418102Y-69431913D01*
X58424513Y-69430000D01*
X58905677Y-69430000D01*
X58913950Y-69433427D01*
G37*
%TD.AperFunction*%
%TD*%
%TA.AperFunction,Conductor*%
%TO.N,+5VL*%
G36*
X47528211Y-54077582D02*
G01*
X47709435Y-54223317D01*
X47713735Y-54231172D01*
X47711221Y-54239767D01*
X47710864Y-54240190D01*
X47487529Y-54492494D01*
X47479479Y-54496417D01*
X47471275Y-54493725D01*
X47218165Y-54282684D01*
X47214006Y-54274754D01*
X47215483Y-54267922D01*
X47321637Y-54080924D01*
X47328702Y-54075421D01*
X47331812Y-54075000D01*
X47520879Y-54075000D01*
X47528211Y-54077582D01*
G37*
%TD.AperFunction*%
%TD*%
%TA.AperFunction,Conductor*%
%TO.N,+3V3*%
G36*
X83747582Y-76542521D02*
G01*
X84042049Y-76792405D01*
X84046140Y-76800371D01*
X84043400Y-76808896D01*
X84043375Y-76808925D01*
X83746086Y-77156947D01*
X83738107Y-77161012D01*
X83731717Y-77159689D01*
X83436227Y-77003295D01*
X83430518Y-76996396D01*
X83430000Y-76992954D01*
X83430000Y-76805404D01*
X83433427Y-76797131D01*
X83434103Y-76796506D01*
X83732428Y-76542532D01*
X83740949Y-76539780D01*
X83747582Y-76542521D01*
G37*
%TD.AperFunction*%
%TD*%
%TA.AperFunction,Conductor*%
%TO.N,Net-(J5-Pin_3)*%
G36*
X56900215Y-57008523D02*
G01*
X56903763Y-57010953D01*
X56998734Y-57105924D01*
X57002161Y-57114197D01*
X57001136Y-57118987D01*
X56784637Y-57601501D01*
X56778123Y-57607646D01*
X56769519Y-57607534D01*
X56515156Y-57503114D01*
X56508804Y-57496803D01*
X56508106Y-57494482D01*
X56449988Y-57189576D01*
X56451805Y-57180809D01*
X56457252Y-57176478D01*
X56891264Y-57008316D01*
X56900215Y-57008523D01*
G37*
%TD.AperFunction*%
%TD*%
%TA.AperFunction,Conductor*%
%TO.N,+3V3*%
G36*
X94816851Y-69610496D02*
G01*
X94823163Y-69616848D01*
X94823330Y-69625305D01*
X94652807Y-70092313D01*
X94646751Y-70098909D01*
X94641817Y-70100000D01*
X94458183Y-70100000D01*
X94449910Y-70096573D01*
X94447193Y-70092313D01*
X94276669Y-69625302D01*
X94277050Y-69616358D01*
X94283147Y-69610496D01*
X94545490Y-69500883D01*
X94554444Y-69500857D01*
X94816851Y-69610496D01*
G37*
%TD.AperFunction*%
%TD*%
%TA.AperFunction,Conductor*%
%TO.N,+5VL*%
G36*
X47431543Y-75077307D02*
G01*
X47689348Y-75184477D01*
X47695672Y-75190817D01*
X47695661Y-75199772D01*
X47694745Y-75201535D01*
X47551405Y-75428189D01*
X47549790Y-75430208D01*
X47419199Y-75560799D01*
X47410926Y-75564226D01*
X47402653Y-75560799D01*
X47401308Y-75559188D01*
X47310571Y-75428189D01*
X47218409Y-75295132D01*
X47216516Y-75286382D01*
X47219725Y-75280228D01*
X47418757Y-75079865D01*
X47427018Y-75076412D01*
X47431543Y-75077307D01*
G37*
%TD.AperFunction*%
%TD*%
%TA.AperFunction,Conductor*%
%TO.N,+5VL*%
G36*
X58144687Y-56871854D02*
G01*
X58145313Y-56872537D01*
X58519086Y-57314269D01*
X58521814Y-57322798D01*
X58518427Y-57330099D01*
X58180099Y-57668427D01*
X58171826Y-57671854D01*
X58164269Y-57669086D01*
X57722541Y-57295317D01*
X57718440Y-57287358D01*
X57721168Y-57278828D01*
X57721783Y-57278156D01*
X57924293Y-57074293D01*
X58128142Y-56871798D01*
X58136425Y-56868400D01*
X58144687Y-56871854D01*
G37*
%TD.AperFunction*%
%TD*%
%TA.AperFunction,Conductor*%
%TO.N,Earth*%
G36*
X85149565Y-65803427D02*
G01*
X85152992Y-65811700D01*
X85149565Y-65819973D01*
X85143782Y-65823132D01*
X84740989Y-65910851D01*
X84732176Y-65909263D01*
X84727067Y-65901909D01*
X84727112Y-65896728D01*
X84747869Y-65809005D01*
X84753109Y-65801744D01*
X84759255Y-65800000D01*
X85141292Y-65800000D01*
X85149565Y-65803427D01*
G37*
%TD.AperFunction*%
%TD*%
%TA.AperFunction,Conductor*%
%TO.N,GND*%
G36*
X52597346Y-75439200D02*
G01*
X52598691Y-75440811D01*
X52781589Y-75704865D01*
X52783483Y-75713617D01*
X52780272Y-75719773D01*
X52581243Y-75920133D01*
X52572981Y-75923587D01*
X52568452Y-75922691D01*
X52416959Y-75859715D01*
X52310651Y-75815522D01*
X52304327Y-75809182D01*
X52304338Y-75800227D01*
X52305249Y-75798471D01*
X52448598Y-75571804D01*
X52450205Y-75569795D01*
X52580801Y-75439199D01*
X52589073Y-75435773D01*
X52597346Y-75439200D01*
G37*
%TD.AperFunction*%
%TD*%
%TA.AperFunction,Conductor*%
%TO.N,GND*%
G36*
X60183760Y-69433427D02*
G01*
X60186941Y-69439313D01*
X60285312Y-69911298D01*
X60285065Y-69917046D01*
X59941207Y-71063630D01*
X59935548Y-71070570D01*
X59926639Y-71071476D01*
X59919699Y-71065817D01*
X59918793Y-71063630D01*
X59843403Y-70812246D01*
X59574968Y-69917161D01*
X59574771Y-69911195D01*
X59682918Y-69439086D01*
X59688106Y-69431788D01*
X59694323Y-69430000D01*
X60175487Y-69430000D01*
X60183760Y-69433427D01*
G37*
%TD.AperFunction*%
%TD*%
%TA.AperFunction,Conductor*%
%TO.N,Earth*%
G36*
X85100090Y-73465927D02*
G01*
X85102807Y-73470187D01*
X85273330Y-73937194D01*
X85272949Y-73946141D01*
X85266851Y-73952003D01*
X85004511Y-74061615D01*
X84995556Y-74061642D01*
X84995489Y-74061615D01*
X84733148Y-73952003D01*
X84726836Y-73945651D01*
X84726669Y-73937197D01*
X84897193Y-73470186D01*
X84903249Y-73463591D01*
X84908183Y-73462500D01*
X85091817Y-73462500D01*
X85100090Y-73465927D01*
G37*
%TD.AperFunction*%
%TD*%
%TA.AperFunction,Conductor*%
%TO.N,Earth*%
G36*
X88395892Y-69880130D02*
G01*
X88400241Y-69887957D01*
X88400314Y-69889007D01*
X88412008Y-70365696D01*
X88408786Y-70374051D01*
X88408585Y-70374256D01*
X88279863Y-70502978D01*
X88271590Y-70506405D01*
X88263317Y-70502978D01*
X88262526Y-70502103D01*
X88101311Y-70304564D01*
X88098735Y-70295987D01*
X88099033Y-70294298D01*
X88197307Y-69907113D01*
X88202663Y-69899939D01*
X88207305Y-69898371D01*
X88387283Y-69877671D01*
X88395892Y-69880130D01*
G37*
%TD.AperFunction*%
%TD*%
%TA.AperFunction,Conductor*%
%TO.N,+5V*%
G36*
X83748899Y-74011515D02*
G01*
X84041038Y-74193785D01*
X84046243Y-74201070D01*
X84044771Y-74209903D01*
X84044749Y-74209939D01*
X83744760Y-74686949D01*
X83737455Y-74692128D01*
X83731444Y-74691911D01*
X83438288Y-74602527D01*
X83431374Y-74596837D01*
X83430000Y-74591336D01*
X83430000Y-74404049D01*
X83432504Y-74396816D01*
X83733513Y-74014207D01*
X83741321Y-74009824D01*
X83748899Y-74011515D01*
G37*
%TD.AperFunction*%
%TD*%
%TA.AperFunction,Conductor*%
%TO.N,Earth*%
G36*
X74708522Y-67249401D02*
G01*
X75059866Y-67394806D01*
X75066200Y-67401136D01*
X75066203Y-67410091D01*
X75066191Y-67410120D01*
X74706722Y-68272142D01*
X74700375Y-68278459D01*
X74691420Y-68278438D01*
X74687650Y-68275912D01*
X74615148Y-68203406D01*
X74268657Y-67856915D01*
X74265230Y-67848642D01*
X74267461Y-67841769D01*
X74694582Y-67253338D01*
X74702214Y-67248658D01*
X74708522Y-67249401D01*
G37*
%TD.AperFunction*%
%TD*%
%TA.AperFunction,Conductor*%
%TO.N,LED_DATA_5V*%
G36*
X75080589Y-59028509D02*
G01*
X75081006Y-59029514D01*
X75424050Y-59980617D01*
X75423633Y-59989562D01*
X75423119Y-59990536D01*
X75143396Y-60464249D01*
X75136238Y-60469630D01*
X75133321Y-60470000D01*
X74996799Y-60470000D01*
X74988526Y-60466573D01*
X74986634Y-60464093D01*
X74716753Y-59990484D01*
X74715634Y-59981599D01*
X74715912Y-59980721D01*
X75058994Y-59029514D01*
X75065025Y-59022895D01*
X75073970Y-59022478D01*
X75080589Y-59028509D01*
G37*
%TD.AperFunction*%
%TD*%
%TA.AperFunction,Conductor*%
%TO.N,Earth*%
G36*
X88395892Y-69880130D02*
G01*
X88400241Y-69887957D01*
X88400314Y-69889007D01*
X88412008Y-70365696D01*
X88408786Y-70374051D01*
X88408585Y-70374256D01*
X88279863Y-70502978D01*
X88271590Y-70506405D01*
X88263317Y-70502978D01*
X88262526Y-70502103D01*
X88101311Y-70304564D01*
X88098735Y-70295987D01*
X88099033Y-70294298D01*
X88197307Y-69907113D01*
X88202663Y-69899939D01*
X88207305Y-69898371D01*
X88387283Y-69877671D01*
X88395892Y-69880130D01*
G37*
%TD.AperFunction*%
%TD*%
%TA.AperFunction,Conductor*%
%TO.N,GND*%
G36*
X58864114Y-60924963D02*
G01*
X58872375Y-60928417D01*
X58875746Y-60935861D01*
X58914141Y-61494596D01*
X58911290Y-61503085D01*
X58903271Y-61507070D01*
X58902469Y-61507098D01*
X58424129Y-61507098D01*
X58415856Y-61503671D01*
X58412780Y-61498243D01*
X58300283Y-61049566D01*
X58301595Y-61040708D01*
X58307119Y-61035926D01*
X58572822Y-60924909D01*
X58577362Y-60924007D01*
X58864114Y-60924963D01*
G37*
%TD.AperFunction*%
%TD*%
%TA.AperFunction,Conductor*%
%TO.N,Earth*%
G36*
X74039687Y-67896854D02*
G01*
X74040313Y-67897537D01*
X74414086Y-68339269D01*
X74416814Y-68347798D01*
X74413427Y-68355099D01*
X74075099Y-68693427D01*
X74066826Y-68696854D01*
X74059269Y-68694086D01*
X73617541Y-68320317D01*
X73613440Y-68312358D01*
X73616168Y-68303828D01*
X73616783Y-68303156D01*
X73819293Y-68099293D01*
X74023142Y-67896798D01*
X74031425Y-67893400D01*
X74039687Y-67896854D01*
G37*
%TD.AperFunction*%
%TD*%
%TA.AperFunction,Conductor*%
%TO.N,Earth*%
G36*
X75313950Y-69533427D02*
G01*
X75317081Y-69539087D01*
X75336748Y-69624943D01*
X75425150Y-70010855D01*
X75424751Y-70017437D01*
X75081006Y-70970485D01*
X75074975Y-70977104D01*
X75066030Y-70977521D01*
X75059411Y-70971490D01*
X75058994Y-70970485D01*
X74715248Y-70017437D01*
X74715204Y-70017317D01*
X74714757Y-70010964D01*
X74813059Y-69539313D01*
X74818102Y-69531913D01*
X74824513Y-69530000D01*
X75305677Y-69530000D01*
X75313950Y-69533427D01*
G37*
%TD.AperFunction*%
%TD*%
M02*
