  0
SECTION
  2
HEADER
  9
$ANGBASE
  50
0.0
  9
$ANGDIR
  70
1
  9
$MEASUREMENT
  70
1
  0
ENDSEC
  0
SECTION
  2
TABLES
  0
TABLE
  2
LTYPE
  70
4
  0
LTYPE
  5
40F
  2
CONTINUOUS
  70
0
  3
Solid line
  72
65
  73
0
  40
0.0
  0
LTYPE
  5
410
  2
DASHDOT
 70
0
  3
Dash Dot ____ _ ____ _
 72
65
 73
4
 40
2.0
 49
1.25
 49
-0.25
 49
0.25
 49
-0.25
  0
LTYPE
  5
411
  2
DASHED
 70
0
  3
Dashed __ __ __ __ __
 72
65
 73
2
 40
0.75
 49
0.5
 49
-0.25
  0
LTYPE
  5
43B
  2
DOTTED
 70
0
  3
Dotted .  .  .  .
 72
65
 73
2
 40
0.2
 49
0.0
 49
-0.2
  0
ENDTAB
  0
TABLE
  2
STYLE
  70
4
  0
STYLE
  2
KICAD
  70
0
  40
0
  41
1
  42
1
  50
0
  71
0
  3
isocp.shx
  0
STYLE
  2
KICADB
  70
0
  40
0
  41
1
  42
1
  50
0
  71
0
  3
isocp.shx
  0
STYLE
  2
KICADI
  70
0
  40
0
  41
1
  42
1
  50
15
  71
0
  3
isocp.shx
  0
STYLE
  2
KICADBI
  70
0
  40
0
  41
1
  42
1
  50
15
  71
0
  3
isocp.shx
  0
ENDTAB
  0
TABLE
  2
LAYER
  70
1
  0
LAYER
  2
BLACK
  70
0
  62
7
  6
CONTINUOUS
  0
ENDTAB
  0
ENDSEC
  0
SECTION
  2
ENTITIES
0
ARC
8
BLACK
10
85.
20
-65.
40
13.3140058478170271
50
-127.22095491
51
-112.57946740
0
LINE
8
BLACK
6
CONTINUOUS
10
105.
20
-34.
11
105.
21
-96.
0
LINE
8
BLACK
6
CONTINUOUS
10
72.9999979999999908
20
-79.1999989999999912
11
75.4849749999999915
21
-76.0706610000000012
0
LINE
8
BLACK
6
CONTINUOUS
10
96.0706619999999987
20
-55.4849770000000007
11
99.1999999999999886
21
-53.
0
ARC
8
BLACK
10
50.
20
-65.
40
13.314005703948343
50
-127.22394326
51
-52.77905112
0
LINE
8
BLACK
6
CONTINUOUS
10
73.7999980000000022
20
-80.7999989999999997
11
78.2000000000000028
21
-80.7999999999999972
0
LINE
8
BLACK
6
CONTINUOUS
10
61.2000019999999978
20
-49.2000010000000003
11
38.7999999999999972
21
-49.1999999999999957
0
LINE
8
BLACK
6
CONTINUOUS
10
38.9293380000000013
20
-74.5150229999999993
11
35.7999999999999972
21
-77.
0
ARC
8
BLACK
10
64.7999999999999972
20
-53.7999999999999972
40
1.
50
0.00000000
51
126.86989765
0
ARC
8
BLACK
10
85.
20
-65.
40
13.3140071051474589
50
-37.22394408
51
37.22094970
0
ARC
8
BLACK
10
38.7999999999999972
20
-50.1999999999999957
40
1.
50
-270.00000000
51
-143.13010235
0
LINE
8
BLACK
6
CONTINUOUS
10
62.000001999999995
20
-50.8000009999999946
11
59.5150249999999943
21
-53.9293389999999988
0
ARC
8
BLACK
10
89.3029999999999973
20
-77.1880000000000024
40
0.694174345156892
50
-63.43948916
51
-26.55497417
0
LINE
8
BLACK
6
CONTINUOUS
10
96.2000019999999978
20
-49.2000010000000003
11
73.7999999999999972
21
-49.1999999999999957
0
ARC
8
BLACK
10
78.2000000000000028
20
-81.7999999999999972
40
1.
50
0.00000000
51
90.00000000
0
ARC
8
BLACK
10
89.0027999999999935
20
-78.8067999999999955
40
0.500028
50
-89.99679144
51
-0.00000000
0
LINE
8
BLACK
6
CONTINUOUS
10
75.4849770000000007
20
-53.9293379999999942
11
73.
21
-50.7999999999999972
0
ARC
8
BLACK
10
90.2028999999999996
20
-77.5656999999999925
40
0.2869756977062692
50
108.44404020
51
166.42363614
0
LINE
8
BLACK
6
CONTINUOUS
10
89.7999980000000022
20
-82.8000009999999946
11
80.2000000000000028
21
-82.7999999999999972
0
ARC
8
BLACK
10
99.7999999999999972
20
-53.7999999999999972
40
1.
50
0.00000000
51
126.86989765
0
ARC
8
BLACK
10
61.1999999999999957
20
-50.1999999999999957
40
0.9999990000019999
50
-36.86987473
51
89.99988541
0
ARC
8
BLACK
10
64.7999999999999972
20
-76.2000000000000028
40
0.9999990000019999
50
-126.86987473
51
-0.00011459
0
LINE
8
BLACK
6
CONTINUOUS
10
97.000001999999995
20
-50.8000009999999946
11
94.5150249999999943
21
-53.9293389999999988
0
ARC
8
BLACK
10
50.
20
-65.
40
13.3140071051474589
50
-37.22394408
51
37.22094970
0
LINE
8
BLACK
6
CONTINUOUS
10
30.
20
-96.
11
30.
21
-34.
0
ARC
8
BLACK
10
85.
20
-65.
40
13.314005703948343
50
52.77605674
51
127.22094888
0
ARC
8
BLACK
10
35.1999999999999957
20
-76.2000000000000028
40
1.
50
-180.00000000
51
-53.13010235
0
ARC
8
BLACK
10
101.
20
-34.
40
4.
50
0.00000000
51
90.00000000
0
ARC
8
BLACK
10
80.6972999999999985
20
-77.1876000000000033
40
0.694643909549346
50
-153.42657516
51
-116.56789149
0
LINE
8
BLACK
6
CONTINUOUS
10
100.7999989999999997
20
-76.2000019999999978
11
100.7999999999999972
21
-53.7999999999999972
0
LINE
8
BLACK
6
CONTINUOUS
10
89.5028279999999938
20
-77.9877779999999916
11
89.5028279999999938
21
-78.8067999999999955
0
ARC
8
BLACK
10
99.7999999999999972
20
-76.2000000000000028
40
0.9999990000019999
50
-126.86987473
51
-0.00011459
0
ARC
8
BLACK
10
80.2971999999999895
20
-77.9877999999999929
40
0.2000068920662485
50
0.00630342
51
63.44481351
0
LINE
8
BLACK
6
CONTINUOUS
10
35.8000010000000017
20
-52.9999979999999979
11
38.9293389999999988
21
-55.4849749999999986
0
LINE
8
BLACK
6
CONTINUOUS
10
99.1999989999999912
20
-77.000001999999995
11
96.0706610000000012
21
-74.5150249999999943
0
LINE
8
BLACK
6
CONTINUOUS
10
94.5150229999999993
20
-76.0706619999999987
11
97.
21
-79.2000000000000028
0
ARC
8
BLACK
10
91.7999999999999972
20
-81.7999999999999972
40
1.0000020000004999
50
-269.99988541
51
-179.99994270
0
LINE
8
BLACK
6
CONTINUOUS
10
40.4849770000000007
20
-53.9293379999999942
11
38.
21
-50.7999999999999972
0
LINE
8
BLACK
6
CONTINUOUS
10
38.7999979999999951
20
-80.7999989999999997
11
61.1999999999999957
21
-80.7999999999999972
0
ARC
8
BLACK
10
50.
20
-65.
40
13.314005703948343
50
52.77605674
51
127.22094888
0
ARC
8
BLACK
10
35.1999999999999957
20
-53.7999999999999972
40
0.9999990000019999
50
53.13012527
51
179.99988541
0
LINE
8
BLACK
6
CONTINUOUS
10
101.
20
-100.
11
34.
21
-100.
0
ARC
8
BLACK
10
85.
20
-65.
40
13.314005703948343
50
-67.42053260
51
-52.77905112
0
LINE
8
BLACK
6
CONTINUOUS
10
80.997171999999992
20
-79.3067999999999955
11
89.0028279999999938
21
-79.3067999999999955
0
ARC
8
BLACK
10
70.2000000000000028
20
-53.7999999999999972
40
0.9999990000019999
50
53.13012527
51
179.99988541
0
LINE
8
BLACK
6
CONTINUOUS
10
37.9999979999999979
20
-79.1999989999999912
11
40.4849749999999986
21
-76.0706610000000012
0
ARC
8
BLACK
10
96.1999999999999886
20
-79.7999999999999972
40
1.
50
-90.00000000
51
36.86989765
0
ARC
8
BLACK
10
80.2000000000000028
20
-81.7999999999999972
40
1.
50
-180.00000000
51
-90.00000000
0
LINE
8
BLACK
6
CONTINUOUS
10
64.1999989999999912
20
-77.000001999999995
11
61.0706609999999941
21
-74.5150249999999943
0
ARC
8
BLACK
10
96.1999999999999886
20
-50.1999999999999957
40
0.9999990000019999
50
-36.86987473
51
89.99988541
0
LINE
8
BLACK
6
CONTINUOUS
10
59.5150229999999993
20
-76.0706619999999987
11
62.
21
-79.2000000000000028
0
LINE
8
BLACK
6
CONTINUOUS
10
70.8000009999999946
20
-52.9999979999999979
11
73.9293389999999988
21
-55.4849749999999986
0
ARC
8
BLACK
10
101.
20
-96.
40
4.
50
-90.00000000
51
-0.00000000
0
LINE
8
BLACK
6
CONTINUOUS
10
91.7999980000000022
20
-80.8000009999999946
11
96.1999999999999886
21
-80.7999999999999972
0
LINE
8
BLACK
6
CONTINUOUS
10
73.9293380000000013
20
-74.5150229999999993
11
70.7999999999999972
21
-77.
0
ARC
8
BLACK
10
73.7999999999999972
20
-79.7999999999999972
40
0.9999990000019999
50
-216.86987473
51
-90.00011459
0
ARC
8
BLACK
10
73.7999999999999972
20
-50.1999999999999957
40
1.
50
-270.00000000
51
-143.13010235
0
ARC
8
BLACK
10
80.9971999999999923
20
-78.8067999999999955
40
0.500000000784
50
-180.00000000
51
-90.00320856
0
ARC
8
BLACK
10
85.
20
-65.
40
13.314005585352966
50
-217.22095491
51
-142.77605674
0
LINE
8
BLACK
6
CONTINUOUS
10
69.2000010000000003
20
-53.7999979999999951
11
69.2000000000000028
21
-76.2000000000000028
0
ARC
8
BLACK
10
89.7027999999999963
20
-77.9877999999999929
40
0.1999720012101694
50
116.55518649
51
179.99369658
0
LINE
8
BLACK
6
CONTINUOUS
10
34.2000010000000003
20
-53.7999979999999951
11
34.1999999999999957
21
-76.2000000000000028
0
ARC
8
BLACK
10
89.7999999999999972
20
-81.7999999999999972
40
0.9999980000005
50
-90.00011459
51
-0.00005730
0
ARC
8
BLACK
10
34.
20
-96.
40
4.
50
-180.00000000
51
-90.00000000
0
ARC
8
BLACK
10
61.1999999999999957
20
-79.7999999999999972
40
1.
50
-90.00000000
51
36.86989765
0
ARC
8
BLACK
10
70.2000000000000028
20
-76.2000000000000028
40
1.
50
-180.00000000
51
-53.13010235
0
ARC
8
BLACK
10
38.7999999999999972
20
-79.7999999999999972
40
0.9999990000019999
50
-216.86987473
51
-90.00011459
0
ARC
8
BLACK
10
79.796999999999997
20
-77.5656999999999925
40
0.2870140468792425
50
13.57167875
51
71.53702251
0
LINE
8
BLACK
6
CONTINUOUS
10
61.0706619999999987
20
-55.4849770000000007
11
64.2000000000000028
21
-53.
0
LINE
8
BLACK
6
CONTINUOUS
10
80.497171999999992
20
-78.8067999999999955
11
80.497171999999992
21
-77.9877779999999916
0
ARC
8
BLACK
10
50.
20
-65.
40
13.314005703948343
50
-217.22394326
51
-142.77905112
0
LINE
8
BLACK
6
CONTINUOUS
10
65.7999989999999997
20
-76.2000019999999978
11
65.7999999999999972
21
-53.7999999999999972
0
ARC
8
BLACK
10
34.
20
-34.
40
4.
50
90.00000000
51
180.00000000
0
LINE
8
BLACK
6
CONTINUOUS
10
34.
20
-30.
11
101.
21
-30.
0
ARC
8
BLACK
10
38.5757879999999957
20
-56.404211999999994
40
0.9848832274792783
50
-33.40794755
51
68.96258086
0
ARC
8
BLACK
10
41.4042139999999961
20
-53.5757860000000008
40
0.9848829764967003
50
-158.96252657
51
-56.59213305
0
ARC
8
BLACK
10
38.5757860000000008
20
-73.5957859999999897
40
0.9848829764967003
50
-68.96252657
51
33.40786695
0
ARC
8
BLACK
10
41.4042120000000011
20
-76.4242119999999971
40
0.9848832274792783
50
56.59205245
51
158.96258086
0
ARC
8
BLACK
10
93.5957859999999897
20
-76.4242139999999921
40
0.9848829764967003
50
21.03747343
51
123.40786695
0
ARC
8
BLACK
10
96.4242119999999971
20
-73.5957879999999989
40
0.9848832274792783
50
-213.40794755
51
-111.03741914
0
ARC
8
BLACK
10
58.5957859999999968
20
-76.4242139999999921
40
0.9848829764967003
50
21.03747343
51
123.40786695
0
ARC
8
BLACK
10
61.4242119999999971
20
-73.5957879999999989
40
0.9848832274792783
50
-213.40794755
51
-111.03741914
0
ARC
8
BLACK
10
73.5757880000000029
20
-56.404211999999994
40
0.9848832274792783
50
-33.40794755
51
68.96258086
0
ARC
8
BLACK
10
76.4042139999999961
20
-53.5757860000000008
40
0.9848829764967003
50
-158.96252657
51
-56.59213305
0
ARC
8
BLACK
10
73.5757859999999937
20
-73.5957859999999897
40
0.9848829764967003
50
-68.96252657
51
33.40786695
0
ARC
8
BLACK
10
76.4042120000000011
20
-76.4242119999999971
40
0.9848832274792783
50
56.59205245
51
158.96258086
0
ARC
8
BLACK
10
93.5957879999999989
20
-53.5757879999999957
40
0.9848832274792783
50
-123.40794755
51
-21.03741914
0
ARC
8
BLACK
10
96.4242139999999921
20
-56.4042139999999961
40
0.9848829764967003
50
-248.96252657
51
-146.59213305
0
ARC
8
BLACK
10
58.5957879999999989
20
-53.5757879999999957
40
0.9848832274792783
50
-123.40794755
51
-21.03741914
0
ARC
8
BLACK
10
61.4242139999999992
20
-56.4042139999999961
40
0.9848829764967003
50
-248.96252657
51
-146.59213305
0
LINE
8
BLACK
6
CONTINUOUS
10
38.9249999999999972
20
-63.7749999999999986
11
39.2250000000000014
21
-64.0750000000000028
0
LINE
8
BLACK
6
CONTINUOUS
10
39.2250000000000014
20
-63.7749999999999986
11
38.9249999999999972
21
-64.0750000000000028
0
LINE
8
BLACK
6
CONTINUOUS
10
38.9249999999999972
20
-66.7749999999999915
11
39.2250000000000014
21
-67.0750000000000028
0
LINE
8
BLACK
6
CONTINUOUS
10
39.2250000000000014
20
-66.7749999999999915
11
38.9249999999999972
21
-67.0750000000000028
0
LINE
8
BLACK
6
CONTINUOUS
10
40.4249999999999972
20
-59.2749999999999986
11
40.7250000000000014
21
-59.5749999999999957
0
LINE
8
BLACK
6
CONTINUOUS
10
40.7250000000000014
20
-59.2749999999999986
11
40.4249999999999972
21
-59.5749999999999957
0
LINE
8
BLACK
6
CONTINUOUS
10
40.4249999999999972
20
-60.7749999999999986
11
40.7250000000000014
21
-61.0749999999999957
0
LINE
8
BLACK
6
CONTINUOUS
10
40.7250000000000014
20
-60.7749999999999986
11
40.4249999999999972
21
-61.0749999999999957
0
LINE
8
BLACK
6
CONTINUOUS
10
40.4249999999999972
20
-62.2749999999999986
11
40.7250000000000014
21
-62.5749999999999957
0
LINE
8
BLACK
6
CONTINUOUS
10
40.7250000000000014
20
-62.2749999999999986
11
40.4249999999999972
21
-62.5749999999999957
0
LINE
8
BLACK
6
CONTINUOUS
10
40.4249999999999972
20
-68.2749999999999915
11
40.7250000000000014
21
-68.5750000000000028
0
LINE
8
BLACK
6
CONTINUOUS
10
40.7250000000000014
20
-68.2749999999999915
11
40.4249999999999972
21
-68.5750000000000028
0
LINE
8
BLACK
6
CONTINUOUS
10
40.4249999999999972
20
-69.7749999999999915
11
40.7250000000000014
21
-70.0750000000000028
0
LINE
8
BLACK
6
CONTINUOUS
10
40.7250000000000014
20
-69.7749999999999915
11
40.4249999999999972
21
-70.0750000000000028
0
LINE
8
BLACK
6
CONTINUOUS
10
40.4249999999999972
20
-71.2749999999999915
11
40.7250000000000014
21
-71.5750000000000028
0
LINE
8
BLACK
6
CONTINUOUS
10
40.7250000000000014
20
-71.2749999999999915
11
40.4249999999999972
21
-71.5750000000000028
0
LINE
8
BLACK
6
CONTINUOUS
10
41.2749999999999986
20
-58.4249999999999972
11
41.5749999999999957
21
-58.7249999999999943
0
LINE
8
BLACK
6
CONTINUOUS
10
41.5749999999999957
20
-58.4249999999999972
11
41.2749999999999986
21
-58.7249999999999943
0
LINE
8
BLACK
6
CONTINUOUS
10
41.2749999999999986
20
-70.4249999999999972
11
41.5749999999999957
21
-70.7249999999999943
0
LINE
8
BLACK
6
CONTINUOUS
10
41.5749999999999957
20
-70.4249999999999972
11
41.2749999999999986
21
-70.7249999999999943
0
LINE
8
BLACK
6
CONTINUOUS
10
41.9249999999999972
20
-57.7749999999999986
11
42.2250000000000014
21
-58.0749999999999957
0
LINE
8
BLACK
6
CONTINUOUS
10
42.2250000000000014
20
-57.7749999999999986
11
41.9249999999999972
21
-58.0749999999999957
0
LINE
8
BLACK
6
CONTINUOUS
10
41.9249999999999972
20
-65.2749999999999915
11
42.2250000000000014
21
-65.5750000000000028
0
LINE
8
BLACK
6
CONTINUOUS
10
42.2250000000000014
20
-65.2749999999999915
11
41.9249999999999972
21
-65.5750000000000028
0
LINE
8
BLACK
6
CONTINUOUS
10
41.9249999999999972
20
-72.7749999999999915
11
42.2250000000000014
21
-73.0750000000000028
0
LINE
8
BLACK
6
CONTINUOUS
10
42.2250000000000014
20
-72.7749999999999915
11
41.9249999999999972
21
-73.0750000000000028
0
LINE
8
BLACK
6
CONTINUOUS
10
42.7749999999999986
20
-71.9249999999999972
11
43.0749999999999957
21
-72.2249999999999943
0
LINE
8
BLACK
6
CONTINUOUS
10
43.0749999999999957
20
-71.9249999999999972
11
42.7749999999999986
21
-72.2249999999999943
0
LINE
8
BLACK
6
CONTINUOUS
10
43.4249999999999972
20
-56.2749999999999986
11
43.7250000000000014
21
-56.5749999999999957
0
LINE
8
BLACK
6
CONTINUOUS
10
43.7250000000000014
20
-56.2749999999999986
11
43.4249999999999972
21
-56.5749999999999957
0
LINE
8
BLACK
6
CONTINUOUS
10
43.4249999999999972
20
-74.2749999999999915
11
43.7250000000000014
21
-74.5750000000000028
0
LINE
8
BLACK
6
CONTINUOUS
10
43.7250000000000014
20
-74.2749999999999915
11
43.4249999999999972
21
-74.5750000000000028
0
LINE
8
BLACK
6
CONTINUOUS
10
44.2749999999999986
20
-55.4249999999999972
11
44.5749999999999957
21
-55.7249999999999943
0
LINE
8
BLACK
6
CONTINUOUS
10
44.5749999999999957
20
-55.4249999999999972
11
44.2749999999999986
21
-55.7249999999999943
0
LINE
8
BLACK
6
CONTINUOUS
10
44.2749999999999986
20
-73.4249999999999972
11
44.5749999999999957
21
-73.7249999999999943
0
LINE
8
BLACK
6
CONTINUOUS
10
44.5749999999999957
20
-73.4249999999999972
11
44.2749999999999986
21
-73.7249999999999943
0
LINE
8
BLACK
6
CONTINUOUS
10
46.4249999999999972
20
-54.7749999999999986
11
46.7250000000000014
21
-55.0749999999999957
0
LINE
8
BLACK
6
CONTINUOUS
10
46.7250000000000014
20
-54.7749999999999986
11
46.4249999999999972
21
-55.0749999999999957
0
LINE
8
BLACK
6
CONTINUOUS
10
46.4249999999999972
20
-75.7749999999999915
11
46.7250000000000014
21
-76.0750000000000028
0
LINE
8
BLACK
6
CONTINUOUS
10
46.7250000000000014
20
-75.7749999999999915
11
46.4249999999999972
21
-76.0750000000000028
0
LINE
8
BLACK
6
CONTINUOUS
10
47.2749999999999986
20
-53.9249999999999972
11
47.5749999999999957
21
-54.2249999999999943
0
LINE
8
BLACK
6
CONTINUOUS
10
47.5749999999999957
20
-53.9249999999999972
11
47.2749999999999986
21
-54.2249999999999943
0
LINE
8
BLACK
6
CONTINUOUS
10
47.2749999999999986
20
-74.9249999999999972
11
47.5749999999999957
21
-75.2249999999999943
0
LINE
8
BLACK
6
CONTINUOUS
10
47.5749999999999957
20
-74.9249999999999972
11
47.2749999999999986
21
-75.2249999999999943
0
LINE
8
BLACK
6
CONTINUOUS
10
50.9249999999999972
20
-54.7749999999999986
11
51.2249999999999943
21
-55.0749999999999957
0
LINE
8
BLACK
6
CONTINUOUS
10
51.2249999999999943
20
-54.7749999999999986
11
50.9249999999999972
21
-55.0749999999999957
0
LINE
8
BLACK
6
CONTINUOUS
10
51.6749999999999972
20
-53.9249999999999972
11
51.9749999999999943
21
-54.2249999999999943
0
LINE
8
BLACK
6
CONTINUOUS
10
51.9749999999999943
20
-53.9249999999999972
11
51.6749999999999972
21
-54.2249999999999943
0
LINE
8
BLACK
6
CONTINUOUS
10
52.4249999999999972
20
-75.7749999999999915
11
52.7249999999999943
21
-76.0750000000000028
0
LINE
8
BLACK
6
CONTINUOUS
10
52.7249999999999943
20
-75.7749999999999915
11
52.4249999999999972
21
-76.0750000000000028
0
LINE
8
BLACK
6
CONTINUOUS
10
53.1749999999999972
20
-54.7749999999999986
11
53.4749999999999943
21
-55.0749999999999957
0
LINE
8
BLACK
6
CONTINUOUS
10
53.4749999999999943
20
-54.7749999999999986
11
53.1749999999999972
21
-55.0749999999999957
0
LINE
8
BLACK
6
CONTINUOUS
10
53.2749999999999986
20
-74.9249999999999972
11
53.5749999999999957
21
-75.2249999999999943
0
LINE
8
BLACK
6
CONTINUOUS
10
53.5749999999999957
20
-74.9249999999999972
11
53.2749999999999986
21
-75.2249999999999943
0
LINE
8
BLACK
6
CONTINUOUS
10
55.4249999999999972
20
-56.2749999999999986
11
55.7249999999999943
21
-56.5749999999999957
0
LINE
8
BLACK
6
CONTINUOUS
10
55.7249999999999943
20
-56.2749999999999986
11
55.4249999999999972
21
-56.5749999999999957
0
LINE
8
BLACK
6
CONTINUOUS
10
55.4249999999999972
20
-74.2749999999999915
11
55.7249999999999943
21
-74.5750000000000028
0
LINE
8
BLACK
6
CONTINUOUS
10
55.7249999999999943
20
-74.2749999999999915
11
55.4249999999999972
21
-74.5750000000000028
0
LINE
8
BLACK
6
CONTINUOUS
10
56.2749999999999986
20
-55.4249999999999972
11
56.5749999999999957
21
-55.7249999999999943
0
LINE
8
BLACK
6
CONTINUOUS
10
56.5749999999999957
20
-55.4249999999999972
11
56.2749999999999986
21
-55.7249999999999943
0
LINE
8
BLACK
6
CONTINUOUS
10
56.2749999999999986
20
-58.4249999999999972
11
56.5749999999999957
21
-58.7249999999999943
0
LINE
8
BLACK
6
CONTINUOUS
10
56.5749999999999957
20
-58.4249999999999972
11
56.2749999999999986
21
-58.7249999999999943
0
LINE
8
BLACK
6
CONTINUOUS
10
56.2749999999999986
20
-73.4249999999999972
11
56.5749999999999957
21
-73.7249999999999943
0
LINE
8
BLACK
6
CONTINUOUS
10
56.5749999999999957
20
-73.4249999999999972
11
56.2749999999999986
21
-73.7249999999999943
0
LINE
8
BLACK
6
CONTINUOUS
10
56.9249999999999972
20
-62.2749999999999986
11
57.2249999999999943
21
-62.5749999999999957
0
LINE
8
BLACK
6
CONTINUOUS
10
57.2249999999999943
20
-62.2749999999999986
11
56.9249999999999972
21
-62.5749999999999957
0
LINE
8
BLACK
6
CONTINUOUS
10
56.9249999999999972
20
-69.7749999999999915
11
57.2249999999999943
21
-70.0750000000000028
0
LINE
8
BLACK
6
CONTINUOUS
10
57.2249999999999943
20
-69.7749999999999915
11
56.9249999999999972
21
-70.0750000000000028
0
LINE
8
BLACK
6
CONTINUOUS
10
57.7749999999999986
20
-56.9249999999999972
11
58.0749999999999957
21
-57.2249999999999943
0
LINE
8
BLACK
6
CONTINUOUS
10
58.0749999999999957
20
-56.9249999999999972
11
57.7749999999999986
21
-57.2249999999999943
0
LINE
8
BLACK
6
CONTINUOUS
10
58.4249999999999972
20
-59.2749999999999986
11
58.7249999999999943
21
-59.5749999999999957
0
LINE
8
BLACK
6
CONTINUOUS
10
58.7249999999999943
20
-59.2749999999999986
11
58.4249999999999972
21
-59.5749999999999957
0
LINE
8
BLACK
6
CONTINUOUS
10
58.4249999999999972
20
-60.7749999999999986
11
58.7249999999999943
21
-61.0749999999999957
0
LINE
8
BLACK
6
CONTINUOUS
10
58.7249999999999943
20
-60.7749999999999986
11
58.4249999999999972
21
-61.0749999999999957
0
LINE
8
BLACK
6
CONTINUOUS
10
58.4249999999999972
20
-63.7749999999999986
11
58.7249999999999943
21
-64.0750000000000028
0
LINE
8
BLACK
6
CONTINUOUS
10
58.7249999999999943
20
-63.7749999999999986
11
58.4249999999999972
21
-64.0750000000000028
0
LINE
8
BLACK
6
CONTINUOUS
10
58.4249999999999972
20
-65.2749999999999915
11
58.7249999999999943
21
-65.5750000000000028
0
LINE
8
BLACK
6
CONTINUOUS
10
58.7249999999999943
20
-65.2749999999999915
11
58.4249999999999972
21
-65.5750000000000028
0
LINE
8
BLACK
6
CONTINUOUS
10
58.4249999999999972
20
-68.2749999999999915
11
58.7249999999999943
21
-68.5750000000000028
0
LINE
8
BLACK
6
CONTINUOUS
10
58.7249999999999943
20
-68.2749999999999915
11
58.4249999999999972
21
-68.5750000000000028
0
LINE
8
BLACK
6
CONTINUOUS
10
58.4249999999999972
20
-71.2749999999999915
11
58.7249999999999943
21
-71.5750000000000028
0
LINE
8
BLACK
6
CONTINUOUS
10
58.7249999999999943
20
-71.2749999999999915
11
58.4249999999999972
21
-71.5750000000000028
0
LINE
8
BLACK
6
CONTINUOUS
10
59.9249999999999972
20
-66.7749999999999915
11
60.2249999999999943
21
-67.0750000000000028
0
LINE
8
BLACK
6
CONTINUOUS
10
60.2249999999999943
20
-66.7749999999999915
11
59.9249999999999972
21
-67.0750000000000028
0
LINE
8
BLACK
6
CONTINUOUS
10
73.6700000000000017
20
-67.9500000000000028
11
73.9699999999999989
21
-68.25
0
LINE
8
BLACK
6
CONTINUOUS
10
73.9699999999999989
20
-67.9500000000000028
11
73.6700000000000017
21
-68.25
0
LINE
8
BLACK
6
CONTINUOUS
10
74.7000000000000028
20
-58.6499999999999986
11
75.
21
-58.9499999999999957
0
LINE
8
BLACK
6
CONTINUOUS
10
75.
20
-58.6499999999999986
11
74.7000000000000028
21
-58.9499999999999957
0
LINE
8
BLACK
6
CONTINUOUS
10
76.1850000000000023
20
-62.4499999999999957
11
76.4849999999999994
21
-62.75
0
LINE
8
BLACK
6
CONTINUOUS
10
76.4849999999999994
20
-62.4499999999999957
11
76.1850000000000023
21
-62.75
0
LINE
8
BLACK
6
CONTINUOUS
10
76.1850000000000023
20
-70.8499999999999943
11
76.4849999999999994
21
-71.1499999999999915
0
LINE
8
BLACK
6
CONTINUOUS
10
76.4849999999999994
20
-70.8499999999999943
11
76.1850000000000023
21
-71.1499999999999915
0
LINE
8
BLACK
6
CONTINUOUS
10
76.2000000000000028
20
-60.6999999999999957
11
76.5
21
-61.
0
LINE
8
BLACK
6
CONTINUOUS
10
76.5
20
-60.6999999999999957
11
76.2000000000000028
21
-61.
0
LINE
8
BLACK
6
CONTINUOUS
10
76.3999999999999915
20
-58.6499999999999986
11
76.7000000000000028
21
-58.9499999999999957
0
LINE
8
BLACK
6
CONTINUOUS
10
76.7000000000000028
20
-58.6499999999999986
11
76.3999999999999915
21
-58.9499999999999957
0
LINE
8
BLACK
6
CONTINUOUS
10
77.1499999999999915
20
-72.1499999999999915
11
77.4500000000000028
21
-72.4500000000000028
0
LINE
8
BLACK
6
CONTINUOUS
10
77.4500000000000028
20
-72.1499999999999915
11
77.1499999999999915
21
-72.4500000000000028
0
LINE
8
BLACK
6
CONTINUOUS
10
78.8999999999999915
20
-59.8999999999999986
11
79.2000000000000028
21
-60.1999999999999957
0
LINE
8
BLACK
6
CONTINUOUS
10
79.2000000000000028
20
-59.8999999999999986
11
78.8999999999999915
21
-60.1999999999999957
0
LINE
8
BLACK
6
CONTINUOUS
10
78.8999999999999915
20
-69.7999999999999972
11
79.2000000000000028
21
-70.0999999999999943
0
LINE
8
BLACK
6
CONTINUOUS
10
79.2000000000000028
20
-69.7999999999999972
11
78.8999999999999915
21
-70.0999999999999943
0
LINE
8
BLACK
6
CONTINUOUS
10
78.9500000000000028
20
-67.25
11
79.25
21
-67.5499999999999972
0
LINE
8
BLACK
6
CONTINUOUS
10
79.25
20
-67.25
11
78.9500000000000028
21
-67.5499999999999972
0
LINE
8
BLACK
6
CONTINUOUS
10
78.9500000000000028
20
-68.0499999999999972
11
79.25
21
-68.3499999999999943
0
LINE
8
BLACK
6
CONTINUOUS
10
79.25
20
-68.0499999999999972
11
78.9500000000000028
21
-68.3499999999999943
0
LINE
8
BLACK
6
CONTINUOUS
10
79.25
20
-73.9500000000000028
11
79.5499999999999972
21
-74.25
0
LINE
8
BLACK
6
CONTINUOUS
10
79.5499999999999972
20
-73.9500000000000028
11
79.25
21
-74.25
0
LINE
8
BLACK
6
CONTINUOUS
10
80.4500000000000028
20
-64.8499999999999943
11
80.75
21
-65.1499999999999915
0
LINE
8
BLACK
6
CONTINUOUS
10
80.75
20
-64.8499999999999943
11
80.4500000000000028
21
-65.1499999999999915
0
LINE
8
BLACK
6
CONTINUOUS
10
81.3499999999999943
20
-62.6499999999999986
11
81.6499999999999915
21
-62.9499999999999957
0
LINE
8
BLACK
6
CONTINUOUS
10
81.6499999999999915
20
-62.6499999999999986
11
81.3499999999999943
21
-62.9499999999999957
0
LINE
8
BLACK
6
CONTINUOUS
10
81.3499999999999943
20
-63.8299999999999983
11
81.6499999999999915
21
-64.1299999999999955
0
LINE
8
BLACK
6
CONTINUOUS
10
81.6499999999999915
20
-63.8299999999999983
11
81.3499999999999943
21
-64.1299999999999955
0
LINE
8
BLACK
6
CONTINUOUS
10
81.6499999999999915
20
-71.8400000000000034
11
81.9500000000000028
21
-72.1400000000000006
0
LINE
8
BLACK
6
CONTINUOUS
10
81.9500000000000028
20
-71.8400000000000034
11
81.6499999999999915
21
-72.1400000000000006
0
LINE
8
BLACK
6
CONTINUOUS
10
81.6700000000000017
20
-74.3499999999999943
11
81.9699999999999989
21
-74.6499999999999915
0
LINE
8
BLACK
6
CONTINUOUS
10
81.9699999999999989
20
-74.3499999999999943
11
81.6700000000000017
21
-74.6499999999999915
0
LINE
8
BLACK
6
CONTINUOUS
10
81.6700000000000017
20
-76.75
11
81.9699999999999989
21
-77.0499999999999972
0
LINE
8
BLACK
6
CONTINUOUS
10
81.9699999999999989
20
-76.75
11
81.6700000000000017
21
-77.0499999999999972
0
LINE
8
BLACK
6
CONTINUOUS
10
82.4500000000000028
20
-71.8400000000000034
11
82.75
21
-72.1400000000000006
0
LINE
8
BLACK
6
CONTINUOUS
10
82.75
20
-71.8400000000000034
11
82.4500000000000028
21
-72.1400000000000006
0
LINE
8
BLACK
6
CONTINUOUS
10
82.5499999999999972
20
-65.8499999999999943
11
82.8499999999999943
21
-66.1499999999999915
0
LINE
8
BLACK
6
CONTINUOUS
10
82.8499999999999943
20
-65.8499999999999943
11
82.5499999999999972
21
-66.1499999999999915
0
LINE
8
BLACK
6
CONTINUOUS
10
83.8499999999999943
20
-64.8499999999999943
11
84.1499999999999915
21
-65.1499999999999915
0
LINE
8
BLACK
6
CONTINUOUS
10
84.1499999999999915
20
-64.8499999999999943
11
83.8499999999999943
21
-65.1499999999999915
0
LINE
8
BLACK
6
CONTINUOUS
10
83.8999999999999915
20
-76.4874999999999972
11
84.2000000000000028
21
-76.7874999999999943
0
LINE
8
BLACK
6
CONTINUOUS
10
84.2000000000000028
20
-76.4874999999999972
11
83.8999999999999915
21
-76.7874999999999943
0
LINE
8
BLACK
6
CONTINUOUS
10
84.8499999999999943
20
-64.0499999999999972
11
85.1499999999999915
21
-64.3499999999999943
0
LINE
8
BLACK
6
CONTINUOUS
10
85.1499999999999915
20
-64.0499999999999972
11
84.8499999999999943
21
-64.3499999999999943
0
LINE
8
BLACK
6
CONTINUOUS
10
84.8499999999999943
20
-65.6499999999999915
11
85.1499999999999915
21
-65.9500000000000028
0
LINE
8
BLACK
6
CONTINUOUS
10
85.1499999999999915
20
-65.6499999999999915
11
84.8499999999999943
21
-65.9500000000000028
0
LINE
8
BLACK
6
CONTINUOUS
10
84.8499999999999943
20
-73.9124999999999943
11
85.1499999999999915
21
-74.2124999999999915
0
LINE
8
BLACK
6
CONTINUOUS
10
85.1499999999999915
20
-73.9124999999999943
11
84.8499999999999943
21
-74.2124999999999915
0
LINE
8
BLACK
6
CONTINUOUS
10
85.5300000000000011
20
-67.5499999999999972
11
85.8299999999999983
21
-67.8499999999999943
0
LINE
8
BLACK
6
CONTINUOUS
10
85.8299999999999983
20
-67.5499999999999972
11
85.5300000000000011
21
-67.8499999999999943
0
LINE
8
BLACK
6
CONTINUOUS
10
85.8499999999999943
20
-64.8499999999999943
11
86.1499999999999915
21
-65.1499999999999915
0
LINE
8
BLACK
6
CONTINUOUS
10
86.1499999999999915
20
-64.8499999999999943
11
85.8499999999999943
21
-65.1499999999999915
0
LINE
8
BLACK
6
CONTINUOUS
10
86.8250000000000028
20
-64.8499999999999943
11
87.125
21
-65.1499999999999915
0
LINE
8
BLACK
6
CONTINUOUS
10
87.125
20
-64.8499999999999943
11
86.8250000000000028
21
-65.1499999999999915
0
LINE
8
BLACK
6
CONTINUOUS
10
87.25
20
-71.8400000000000034
11
87.5499999999999972
21
-72.1400000000000006
0
LINE
8
BLACK
6
CONTINUOUS
10
87.5499999999999972
20
-71.8400000000000034
11
87.25
21
-72.1400000000000006
0
LINE
8
BLACK
6
CONTINUOUS
10
87.3499999999999943
20
-68.5499999999999972
11
87.6499999999999915
21
-68.8499999999999943
0
LINE
8
BLACK
6
CONTINUOUS
10
87.6499999999999915
20
-68.5499999999999972
11
87.3499999999999943
21
-68.8499999999999943
0
LINE
8
BLACK
6
CONTINUOUS
10
88.0499999999999972
20
-69.75
11
88.3499999999999943
21
-70.0499999999999972
0
LINE
8
BLACK
6
CONTINUOUS
10
88.3499999999999943
20
-69.75
11
88.0499999999999972
21
-70.0499999999999972
0
LINE
8
BLACK
6
CONTINUOUS
10
88.0499999999999972
20
-71.8400000000000034
11
88.3499999999999943
21
-72.1400000000000006
0
LINE
8
BLACK
6
CONTINUOUS
10
88.3499999999999943
20
-71.8400000000000034
11
88.0499999999999972
21
-72.1400000000000006
0
LINE
8
BLACK
6
CONTINUOUS
10
88.3499999999999943
20
-62.9399999999999977
11
88.6499999999999915
21
-63.2399999999999949
0
LINE
8
BLACK
6
CONTINUOUS
10
88.6499999999999915
20
-62.9399999999999977
11
88.3499999999999943
21
-63.2399999999999949
0
LINE
8
BLACK
6
CONTINUOUS
10
88.3499999999999943
20
-63.9599999999999937
11
88.6499999999999915
21
-64.2599999999999909
0
LINE
8
BLACK
6
CONTINUOUS
10
88.6499999999999915
20
-63.9599999999999937
11
88.3499999999999943
21
-64.2599999999999909
0
LINE
8
BLACK
6
CONTINUOUS
10
88.6499999999999915
20
-68.9500000000000028
11
88.9500000000000028
21
-69.25
0
LINE
8
BLACK
6
CONTINUOUS
10
88.9500000000000028
20
-68.9500000000000028
11
88.6499999999999915
21
-69.25
0
LINE
8
BLACK
6
CONTINUOUS
10
88.8499999999999943
20
-61.0499999999999972
11
89.1499999999999915
21
-61.3499999999999943
0
LINE
8
BLACK
6
CONTINUOUS
10
89.1499999999999915
20
-61.0499999999999972
11
88.8499999999999943
21
-61.3499999999999943
0
LINE
8
BLACK
6
CONTINUOUS
10
88.8499999999999943
20
-68.1681990000000013
11
89.1499999999999915
21
-68.4681989999999985
0
LINE
8
BLACK
6
CONTINUOUS
10
89.1499999999999915
20
-68.1681990000000013
11
88.8499999999999943
21
-68.4681989999999985
0
LINE
8
BLACK
6
CONTINUOUS
10
89.039999999999992
20
-62.3099999999999952
11
89.3399999999999892
21
-62.6099999999999994
0
LINE
8
BLACK
6
CONTINUOUS
10
89.3399999999999892
20
-62.3099999999999952
11
89.039999999999992
21
-62.6099999999999994
0
LINE
8
BLACK
6
CONTINUOUS
10
89.3499999999999943
20
-63.9599999999999937
11
89.6499999999999915
21
-64.2599999999999909
0
LINE
8
BLACK
6
CONTINUOUS
10
89.6499999999999915
20
-63.9599999999999937
11
89.3499999999999943
21
-64.2599999999999909
0
LINE
8
BLACK
6
CONTINUOUS
10
90.75
20
-62.4499999999999957
11
91.0499999999999972
21
-62.75
0
LINE
8
BLACK
6
CONTINUOUS
10
91.0499999999999972
20
-62.4499999999999957
11
90.75
21
-62.75
0
LINE
8
BLACK
6
CONTINUOUS
10
90.7999999999999972
20
-59.8999999999999986
11
91.0999999999999943
21
-60.1999999999999957
0
LINE
8
BLACK
6
CONTINUOUS
10
91.0999999999999943
20
-59.8999999999999986
11
90.7999999999999972
21
-60.1999999999999957
0
LINE
8
BLACK
6
CONTINUOUS
10
91.0499999999999972
20
-71.1499999999999915
11
91.3499999999999943
21
-71.4500000000000028
0
LINE
8
BLACK
6
CONTINUOUS
10
91.3499999999999943
20
-71.1499999999999915
11
91.0499999999999972
21
-71.4500000000000028
0
LINE
8
BLACK
6
CONTINUOUS
10
91.8499999999999943
20
-66.9500000000000028
11
92.1499999999999915
21
-67.25
0
LINE
8
BLACK
6
CONTINUOUS
10
92.1499999999999915
20
-66.9500000000000028
11
91.8499999999999943
21
-67.25
0
LINE
8
BLACK
6
CONTINUOUS
10
92.1499999999999915
20
-57.769999999999996
11
92.4500000000000028
21
-58.0700000000000003
0
LINE
8
BLACK
6
CONTINUOUS
10
92.4500000000000028
20
-57.769999999999996
11
92.1499999999999915
21
-58.0700000000000003
0
LINE
8
BLACK
6
CONTINUOUS
10
92.1499999999999915
20
-58.7299999999999969
11
92.4500000000000028
21
-59.029999999999994
0
LINE
8
BLACK
6
CONTINUOUS
10
92.4500000000000028
20
-58.7299999999999969
11
92.1499999999999915
21
-59.029999999999994
0
LINE
8
BLACK
6
CONTINUOUS
10
94.1499999999999915
20
-64.75
11
94.4499999999999886
21
-65.0499999999999972
0
LINE
8
BLACK
6
CONTINUOUS
10
94.4499999999999886
20
-64.75
11
94.1499999999999915
21
-65.0499999999999972
0
LINE
8
BLACK
6
CONTINUOUS
10
94.3999999999999915
20
-69.3499999999999943
11
94.6999999999999886
21
-69.6499999999999915
0
LINE
8
BLACK
6
CONTINUOUS
10
94.6999999999999886
20
-69.3499999999999943
11
94.3999999999999915
21
-69.6499999999999915
0
LINE
8
BLACK
6
CONTINUOUS
10
95.1850000000000023
20
-63.0499999999999972
11
95.4849999999999994
21
-63.3499999999999943
0
LINE
8
BLACK
6
CONTINUOUS
10
95.4849999999999994
20
-63.0499999999999972
11
95.1850000000000023
21
-63.3499999999999943
0
LINE
8
BLACK
6
CONTINUOUS
10
95.1850000000000023
20
-66.6499999999999915
11
95.4849999999999994
21
-66.9500000000000028
0
LINE
8
BLACK
6
CONTINUOUS
10
95.4849999999999994
20
-66.6499999999999915
11
95.1850000000000023
21
-66.9500000000000028
0
CIRCLE
8
BLACK
10
80.6799999999999926
20
-72.5900000000000034
40
0.3
0
LINE
8
BLACK
6
CONTINUOUS
10
80.3799999999999955
20
-72.039999999999992
11
80.3799999999999955
21
-73.1400000000000006
0
ARC
8
BLACK
10
80.6799999999999926
20
-73.1400000000000006
40
0.3
50
-180.00000000
51
0.00000000
0
LINE
8
BLACK
6
CONTINUOUS
10
80.9799999999999898
20
-73.1400000000000006
11
80.9799999999999898
21
-72.039999999999992
0
ARC
8
BLACK
10
80.6799999999999926
20
-72.039999999999992
40
0.3
50
0.00000000
51
180.00000000
0
CIRCLE
8
BLACK
10
80.6799999999999926
20
-76.769999999999996
40
0.3
0
LINE
8
BLACK
6
CONTINUOUS
10
80.3799999999999955
20
-76.4699999999999989
11
80.3799999999999955
21
-77.0699999999999932
0
ARC
8
BLACK
10
80.6799999999999926
20
-77.0699999999999932
40
0.3
50
-180.00000000
51
0.00000000
0
LINE
8
BLACK
6
CONTINUOUS
10
80.9799999999999898
20
-77.0699999999999932
11
80.9799999999999898
21
-76.4699999999999989
0
ARC
8
BLACK
10
80.6799999999999926
20
-76.4699999999999989
40
0.3
50
0.00000000
51
180.00000000
0
CIRCLE
8
BLACK
10
89.3199999999999932
20
-72.5900000000000034
40
0.3
0
LINE
8
BLACK
6
CONTINUOUS
10
89.019999999999996
20
-72.039999999999992
11
89.019999999999996
21
-73.1400000000000006
0
ARC
8
BLACK
10
89.3199999999999932
20
-73.1400000000000006
40
0.3
50
-180.00000000
51
0.00000000
0
LINE
8
BLACK
6
CONTINUOUS
10
89.6199999999999903
20
-73.1400000000000006
11
89.6199999999999903
21
-72.039999999999992
0
ARC
8
BLACK
10
89.3199999999999932
20
-72.039999999999992
40
0.3
50
0.00000000
51
180.00000000
0
CIRCLE
8
BLACK
10
89.3199999999999932
20
-76.769999999999996
40
0.3
0
LINE
8
BLACK
6
CONTINUOUS
10
89.019999999999996
20
-76.4699999999999989
11
89.019999999999996
21
-77.0699999999999932
0
ARC
8
BLACK
10
89.3199999999999932
20
-77.0699999999999932
40
0.3
50
-180.00000000
51
0.00000000
0
LINE
8
BLACK
6
CONTINUOUS
10
89.6199999999999903
20
-77.0699999999999932
11
89.6199999999999903
21
-76.4699999999999989
0
ARC
8
BLACK
10
89.3199999999999932
20
-76.4699999999999989
40
0.3
50
0.00000000
51
180.00000000
0
LINE
8
BLACK
6
CONTINUOUS
10
32.5827680000000015
20
-103.1398379999999975
11
32.5827680000000015
21
-101.1398379999999975
0
LINE
8
BLACK
6
CONTINUOUS
10
32.5827680000000015
20
-101.1398379999999975
11
33.058957999999997
21
-101.1398379999999975
0
LINE
8
BLACK
6
CONTINUOUS
10
33.058957999999997
20
-101.1398379999999975
11
33.3446730000000002
21
-101.2350759999999923
0
LINE
8
BLACK
6
CONTINUOUS
10
33.3446730000000002
20
-101.2350759999999923
11
33.535148999999997
21
-101.4255519999999962
0
LINE
8
BLACK
6
CONTINUOUS
10
33.535148999999997
20
-101.4255519999999962
11
33.6303869999999989
21
-101.616028
0
LINE
8
BLACK
6
CONTINUOUS
10
33.6303869999999989
20
-101.616028
11
33.7256250000000009
21
-101.9969799999999935
0
LINE
8
BLACK
6
CONTINUOUS
10
33.7256250000000009
20
-101.9969799999999935
11
33.7256250000000009
21
-102.2826949999999897
0
LINE
8
BLACK
6
CONTINUOUS
10
33.7256250000000009
20
-102.2826949999999897
11
33.6303869999999989
21
-102.6636469999999974
0
LINE
8
BLACK
6
CONTINUOUS
10
33.6303869999999989
20
-102.6636469999999974
11
33.535148999999997
21
-102.8541230000000013
0
LINE
8
BLACK
6
CONTINUOUS
10
33.535148999999997
20
-102.8541230000000013
11
33.3446730000000002
21
-103.0445999999999884
0
LINE
8
BLACK
6
CONTINUOUS
10
33.3446730000000002
20
-103.0445999999999884
11
33.058957999999997
21
-103.1398379999999975
0
LINE
8
BLACK
6
CONTINUOUS
10
33.058957999999997
20
-103.1398379999999975
11
32.5827680000000015
21
-103.1398379999999975
0
LINE
8
BLACK
6
CONTINUOUS
10
34.5827680000000015
20
-103.1398379999999975
11
34.5827680000000015
21
-101.8065039999999897
0
LINE
8
BLACK
6
CONTINUOUS
10
34.5827680000000015
20
-102.1874569999999949
11
34.6780059999999963
21
-101.9969799999999935
0
LINE
8
BLACK
6
CONTINUOUS
10
34.6780059999999963
20
-101.9969799999999935
11
34.7732439999999983
21
-101.9017419999999987
0
LINE
8
BLACK
6
CONTINUOUS
10
34.7732439999999983
20
-101.9017419999999987
11
34.963719999999995
21
-101.8065039999999897
0
LINE
8
BLACK
6
CONTINUOUS
10
34.963719999999995
20
-101.8065039999999897
11
35.1541969999999964
21
-101.8065039999999897
0
LINE
8
BLACK
6
CONTINUOUS
10
35.8208629999999957
20
-103.1398379999999975
11
35.8208629999999957
21
-101.8065039999999897
0
LINE
8
BLACK
6
CONTINUOUS
10
35.8208629999999957
20
-101.1398379999999975
11
35.7256250000000009
21
-101.2350759999999923
0
LINE
8
BLACK
6
CONTINUOUS
10
35.7256250000000009
20
-101.2350759999999923
11
35.8208629999999957
21
-101.3303140000000013
0
LINE
8
BLACK
6
CONTINUOUS
10
35.8208629999999957
20
-101.3303140000000013
11
35.9161009999999976
21
-101.2350759999999923
0
LINE
8
BLACK
6
CONTINUOUS
10
35.9161009999999976
20
-101.2350759999999923
11
35.8208629999999957
21
-101.1398379999999975
0
LINE
8
BLACK
6
CONTINUOUS
10
35.8208629999999957
20
-101.1398379999999975
11
35.8208629999999957
21
-101.3303140000000013
0
LINE
8
BLACK
6
CONTINUOUS
10
37.058957999999997
20
-103.1398379999999975
11
36.8684820000000002
21
-103.0445999999999884
0
LINE
8
BLACK
6
CONTINUOUS
10
36.8684820000000002
20
-103.0445999999999884
11
36.7732439999999983
21
-102.8541230000000013
0
LINE
8
BLACK
6
CONTINUOUS
10
36.7732439999999983
20
-102.8541230000000013
11
36.7732439999999983
21
-101.1398379999999975
0
LINE
8
BLACK
6
CONTINUOUS
10
38.1065770000000015
20
-103.1398379999999975
11
37.9161009999999976
21
-103.0445999999999884
0
LINE
8
BLACK
6
CONTINUOUS
10
37.9161009999999976
20
-103.0445999999999884
11
37.8208629999999957
21
-102.8541230000000013
0
LINE
8
BLACK
6
CONTINUOUS
10
37.8208629999999957
20
-102.8541230000000013
11
37.8208629999999957
21
-101.1398379999999975
0
LINE
8
BLACK
6
CONTINUOUS
10
40.3922919999999976
20
-103.1398379999999975
11
40.3922919999999976
21
-101.1398379999999975
0
LINE
8
BLACK
6
CONTINUOUS
10
40.3922919999999976
20
-101.1398379999999975
11
41.0589590000000015
21
-102.5684089999999884
0
LINE
8
BLACK
6
CONTINUOUS
10
41.0589590000000015
20
-102.5684089999999884
11
41.7256250000000009
21
-101.1398379999999975
0
LINE
8
BLACK
6
CONTINUOUS
10
41.7256250000000009
20
-101.1398379999999975
11
41.7256250000000009
21
-103.1398379999999975
0
LINE
8
BLACK
6
CONTINUOUS
10
43.535148999999997
20
-103.1398379999999975
11
43.535148999999997
21
-102.0922190000000001
0
LINE
8
BLACK
6
CONTINUOUS
10
43.535148999999997
20
-102.0922190000000001
11
43.4399109999999951
21
-101.9017419999999987
0
LINE
8
BLACK
6
CONTINUOUS
10
43.4399109999999951
20
-101.9017419999999987
11
43.2494349999999983
21
-101.8065039999999897
0
LINE
8
BLACK
6
CONTINUOUS
10
43.2494349999999983
20
-101.8065039999999897
11
42.8684820000000002
21
-101.8065039999999897
0
LINE
8
BLACK
6
CONTINUOUS
10
42.8684820000000002
20
-101.8065039999999897
11
42.6780059999999963
21
-101.9017419999999987
0
LINE
8
BLACK
6
CONTINUOUS
10
43.535148999999997
20
-103.0445999999999884
11
43.3446730000000002
21
-103.1398379999999975
0
LINE
8
BLACK
6
CONTINUOUS
10
43.3446730000000002
20
-103.1398379999999975
11
42.8684820000000002
21
-103.1398379999999975
0
LINE
8
BLACK
6
CONTINUOUS
10
42.8684820000000002
20
-103.1398379999999975
11
42.6780059999999963
21
-103.0445999999999884
0
LINE
8
BLACK
6
CONTINUOUS
10
42.6780059999999963
20
-103.0445999999999884
11
42.5827680000000015
21
-102.8541230000000013
0
LINE
8
BLACK
6
CONTINUOUS
10
42.5827680000000015
20
-102.8541230000000013
11
42.5827680000000015
21
-102.6636469999999974
0
LINE
8
BLACK
6
CONTINUOUS
10
42.5827680000000015
20
-102.6636469999999974
11
42.6780059999999963
21
-102.4731709999999936
0
LINE
8
BLACK
6
CONTINUOUS
10
42.6780059999999963
20
-102.4731709999999936
11
42.8684820000000002
21
-102.3779329999999987
0
LINE
8
BLACK
6
CONTINUOUS
10
42.8684820000000002
20
-102.3779329999999987
11
43.3446730000000002
21
-102.3779329999999987
0
LINE
8
BLACK
6
CONTINUOUS
10
43.3446730000000002
20
-102.3779329999999987
11
43.535148999999997
21
-102.2826949999999897
0
LINE
8
BLACK
6
CONTINUOUS
10
44.4875299999999996
20
-101.8065039999999897
11
44.4875299999999996
21
-103.8065039999999897
0
LINE
8
BLACK
6
CONTINUOUS
10
44.4875299999999996
20
-101.9017419999999987
11
44.6780059999999963
21
-101.8065039999999897
0
LINE
8
BLACK
6
CONTINUOUS
10
44.6780059999999963
20
-101.8065039999999897
11
45.0589589999999944
21
-101.8065039999999897
0
LINE
8
BLACK
6
CONTINUOUS
10
45.0589589999999944
20
-101.8065039999999897
11
45.2494349999999983
21
-101.9017419999999987
0
LINE
8
BLACK
6
CONTINUOUS
10
45.2494349999999983
20
-101.9017419999999987
11
45.3446730000000002
21
-101.9969799999999935
0
LINE
8
BLACK
6
CONTINUOUS
10
45.3446730000000002
20
-101.9969799999999935
11
45.4399109999999951
21
-102.1874569999999949
0
LINE
8
BLACK
6
CONTINUOUS
10
45.4399109999999951
20
-102.1874569999999949
11
45.4399109999999951
21
-102.7588849999999923
0
LINE
8
BLACK
6
CONTINUOUS
10
45.4399109999999951
20
-102.7588849999999923
11
45.3446730000000002
21
-102.9493609999999961
0
LINE
8
BLACK
6
CONTINUOUS
10
45.3446730000000002
20
-102.9493609999999961
11
45.2494349999999983
21
-103.0445999999999884
0
LINE
8
BLACK
6
CONTINUOUS
10
45.2494349999999983
20
-103.0445999999999884
11
45.0589589999999944
21
-103.1398379999999975
0
LINE
8
BLACK
6
CONTINUOUS
10
45.0589589999999944
20
-103.1398379999999975
11
44.6780059999999963
21
-103.1398379999999975
0
LINE
8
BLACK
6
CONTINUOUS
10
44.6780059999999963
20
-103.1398379999999975
11
44.4875299999999996
21
-103.0445999999999884
0
LINE
8
BLACK
6
CONTINUOUS
10
46.2970539999999957
20
-102.9493609999999961
11
46.3922919999999976
21
-103.0445999999999884
0
LINE
8
BLACK
6
CONTINUOUS
10
46.3922919999999976
20
-103.0445999999999884
11
46.2970539999999957
21
-103.1398379999999975
0
LINE
8
BLACK
6
CONTINUOUS
10
46.2970539999999957
20
-103.1398379999999975
11
46.2018160000000009
21
-103.0445999999999884
0
LINE
8
BLACK
6
CONTINUOUS
10
46.2018160000000009
20
-103.0445999999999884
11
46.2970539999999957
21
-102.9493609999999961
0
LINE
8
BLACK
6
CONTINUOUS
10
46.2970539999999957
20
-102.9493609999999961
11
46.2970539999999957
21
-103.1398379999999975
0
LINE
8
BLACK
6
CONTINUOUS
10
46.2970539999999957
20
-101.9017419999999987
11
46.3922919999999976
21
-101.9969799999999935
0
LINE
8
BLACK
6
CONTINUOUS
10
46.3922919999999976
20
-101.9969799999999935
11
46.2970539999999957
21
-102.0922190000000001
0
LINE
8
BLACK
6
CONTINUOUS
10
46.2970539999999957
20
-102.0922190000000001
11
46.2018160000000009
21
-101.9969799999999935
0
LINE
8
BLACK
6
CONTINUOUS
10
46.2018160000000009
20
-101.9969799999999935
11
46.2970539999999957
21
-101.9017419999999987
0
LINE
8
BLACK
6
CONTINUOUS
10
46.2970539999999957
20
-101.9017419999999987
11
46.2970539999999957
21
-102.0922190000000001
0
LINE
8
BLACK
6
CONTINUOUS
10
29.6749999999999972
20
-106.2749999999999915
11
29.9749999999999979
21
-106.5749999999999886
0
LINE
8
BLACK
6
CONTINUOUS
10
29.9749999999999979
20
-106.2749999999999915
11
29.6749999999999972
21
-106.5749999999999886
0
LINE
8
BLACK
6
CONTINUOUS
10
32.963719999999995
20
-105.3398380000000003
11
33.1541969999999964
21
-105.3398380000000003
0
LINE
8
BLACK
6
CONTINUOUS
10
33.1541969999999964
20
-105.3398380000000003
11
33.3446730000000002
21
-105.4350759999999951
0
LINE
8
BLACK
6
CONTINUOUS
10
33.3446730000000002
20
-105.4350759999999951
11
33.4399109999999951
21
-105.53031399999999
0
LINE
8
BLACK
6
CONTINUOUS
10
33.4399109999999951
20
-105.53031399999999
11
33.535148999999997
21
-105.7207899999999938
0
LINE
8
BLACK
6
CONTINUOUS
10
33.535148999999997
20
-105.7207899999999938
11
33.6303869999999989
21
-106.1017420000000016
0
LINE
8
BLACK
6
CONTINUOUS
10
33.6303869999999989
20
-106.1017420000000016
11
33.6303869999999989
21
-106.5779330000000016
0
LINE
8
BLACK
6
CONTINUOUS
10
33.6303869999999989
20
-106.5779330000000016
11
33.535148999999997
21
-106.9588849999999951
0
LINE
8
BLACK
6
CONTINUOUS
10
33.535148999999997
20
-106.9588849999999951
11
33.4399109999999951
21
-107.149360999999999
0
LINE
8
BLACK
6
CONTINUOUS
10
33.4399109999999951
20
-107.149360999999999
11
33.3446730000000002
21
-107.2445999999999913
0
LINE
8
BLACK
6
CONTINUOUS
10
33.3446730000000002
20
-107.2445999999999913
11
33.1541969999999964
21
-107.3398380000000003
0
LINE
8
BLACK
6
CONTINUOUS
10
33.1541969999999964
20
-107.3398380000000003
11
32.963719999999995
21
-107.3398380000000003
0
LINE
8
BLACK
6
CONTINUOUS
10
32.963719999999995
20
-107.3398380000000003
11
32.7732439999999983
21
-107.2445999999999913
0
LINE
8
BLACK
6
CONTINUOUS
10
32.7732439999999983
20
-107.2445999999999913
11
32.6780059999999963
21
-107.149360999999999
0
LINE
8
BLACK
6
CONTINUOUS
10
32.6780059999999963
20
-107.149360999999999
11
32.5827680000000015
21
-106.9588849999999951
0
LINE
8
BLACK
6
CONTINUOUS
10
32.5827680000000015
20
-106.9588849999999951
11
32.4875299999999996
21
-106.5779330000000016
0
LINE
8
BLACK
6
CONTINUOUS
10
32.4875299999999996
20
-106.5779330000000016
11
32.4875299999999996
21
-106.1017420000000016
0
LINE
8
BLACK
6
CONTINUOUS
10
32.4875299999999996
20
-106.1017420000000016
11
32.5827680000000015
21
-105.7207899999999938
0
LINE
8
BLACK
6
CONTINUOUS
10
32.5827680000000015
20
-105.7207899999999938
11
32.6780059999999963
21
-105.53031399999999
0
LINE
8
BLACK
6
CONTINUOUS
10
32.6780059999999963
20
-105.53031399999999
11
32.7732439999999983
21
-105.4350759999999951
0
LINE
8
BLACK
6
CONTINUOUS
10
32.7732439999999983
20
-105.4350759999999951
11
32.963719999999995
21
-105.3398380000000003
0
LINE
8
BLACK
6
CONTINUOUS
10
34.4875299999999996
20
-107.149360999999999
11
34.5827680000000015
21
-107.2445999999999913
0
LINE
8
BLACK
6
CONTINUOUS
10
34.5827680000000015
20
-107.2445999999999913
11
34.4875299999999996
21
-107.3398380000000003
0
LINE
8
BLACK
6
CONTINUOUS
10
34.4875299999999996
20
-107.3398380000000003
11
34.3922919999999976
21
-107.2445999999999913
0
LINE
8
BLACK
6
CONTINUOUS
10
34.3922919999999976
20
-107.2445999999999913
11
34.4875299999999996
21
-107.149360999999999
0
LINE
8
BLACK
6
CONTINUOUS
10
34.4875299999999996
20
-107.149360999999999
11
34.4875299999999996
21
-107.3398380000000003
0
LINE
8
BLACK
6
CONTINUOUS
10
35.2494349999999983
20
-105.3398380000000003
11
36.4875299999999996
21
-105.3398380000000003
0
LINE
8
BLACK
6
CONTINUOUS
10
36.4875299999999996
20
-105.3398380000000003
11
35.8208629999999957
21
-106.1017420000000016
0
LINE
8
BLACK
6
CONTINUOUS
10
35.8208629999999957
20
-106.1017420000000016
11
36.106577999999999
21
-106.1017420000000016
0
LINE
8
BLACK
6
CONTINUOUS
10
36.106577999999999
20
-106.1017420000000016
11
36.2970539999999957
21
-106.1969799999999964
0
LINE
8
BLACK
6
CONTINUOUS
10
36.2970539999999957
20
-106.1969799999999964
11
36.3922919999999976
21
-106.2922189999999887
0
LINE
8
BLACK
6
CONTINUOUS
10
36.3922919999999976
20
-106.2922189999999887
11
36.4875299999999996
21
-106.4826949999999925
0
LINE
8
BLACK
6
CONTINUOUS
10
36.4875299999999996
20
-106.4826949999999925
11
36.4875299999999996
21
-106.9588849999999951
0
LINE
8
BLACK
6
CONTINUOUS
10
36.4875299999999996
20
-106.9588849999999951
11
36.3922919999999976
21
-107.149360999999999
0
LINE
8
BLACK
6
CONTINUOUS
10
36.3922919999999976
20
-107.149360999999999
11
36.2970539999999957
21
-107.2445999999999913
0
LINE
8
BLACK
6
CONTINUOUS
10
36.2970539999999957
20
-107.2445999999999913
11
36.106577999999999
21
-107.3398380000000003
0
LINE
8
BLACK
6
CONTINUOUS
10
36.106577999999999
20
-107.3398380000000003
11
35.535148999999997
21
-107.3398380000000003
0
LINE
8
BLACK
6
CONTINUOUS
10
35.535148999999997
20
-107.3398380000000003
11
35.3446730000000002
21
-107.2445999999999913
0
LINE
8
BLACK
6
CONTINUOUS
10
35.3446730000000002
20
-107.2445999999999913
11
35.2494349999999983
21
-107.149360999999999
0
LINE
8
BLACK
6
CONTINUOUS
10
37.7256250000000009
20
-105.3398380000000003
11
37.9161019999999951
21
-105.3398380000000003
0
LINE
8
BLACK
6
CONTINUOUS
10
37.9161019999999951
20
-105.3398380000000003
11
38.106577999999999
21
-105.4350759999999951
0
LINE
8
BLACK
6
CONTINUOUS
10
38.106577999999999
20
-105.4350759999999951
11
38.2018160000000009
21
-105.53031399999999
0
LINE
8
BLACK
6
CONTINUOUS
10
38.2018160000000009
20
-105.53031399999999
11
38.2970539999999957
21
-105.7207899999999938
0
LINE
8
BLACK
6
CONTINUOUS
10
38.2970539999999957
20
-105.7207899999999938
11
38.3922919999999976
21
-106.1017420000000016
0
LINE
8
BLACK
6
CONTINUOUS
10
38.3922919999999976
20
-106.1017420000000016
11
38.3922919999999976
21
-106.5779330000000016
0
LINE
8
BLACK
6
CONTINUOUS
10
38.3922919999999976
20
-106.5779330000000016
11
38.2970539999999957
21
-106.9588849999999951
0
LINE
8
BLACK
6
CONTINUOUS
10
38.2970539999999957
20
-106.9588849999999951
11
38.2018160000000009
21
-107.149360999999999
0
LINE
8
BLACK
6
CONTINUOUS
10
38.2018160000000009
20
-107.149360999999999
11
38.106577999999999
21
-107.2445999999999913
0
LINE
8
BLACK
6
CONTINUOUS
10
38.106577999999999
20
-107.2445999999999913
11
37.9161019999999951
21
-107.3398380000000003
0
LINE
8
BLACK
6
CONTINUOUS
10
37.9161019999999951
20
-107.3398380000000003
11
37.7256250000000009
21
-107.3398380000000003
0
LINE
8
BLACK
6
CONTINUOUS
10
37.7256250000000009
20
-107.3398380000000003
11
37.535148999999997
21
-107.2445999999999913
0
LINE
8
BLACK
6
CONTINUOUS
10
37.535148999999997
20
-107.2445999999999913
11
37.4399109999999951
21
-107.149360999999999
0
LINE
8
BLACK
6
CONTINUOUS
10
37.4399109999999951
20
-107.149360999999999
11
37.3446730000000002
21
-106.9588849999999951
0
LINE
8
BLACK
6
CONTINUOUS
10
37.3446730000000002
20
-106.9588849999999951
11
37.2494349999999983
21
-106.5779330000000016
0
LINE
8
BLACK
6
CONTINUOUS
10
37.2494349999999983
20
-106.5779330000000016
11
37.2494349999999983
21
-106.1017420000000016
0
LINE
8
BLACK
6
CONTINUOUS
10
37.2494349999999983
20
-106.1017420000000016
11
37.3446730000000002
21
-105.7207899999999938
0
LINE
8
BLACK
6
CONTINUOUS
10
37.3446730000000002
20
-105.7207899999999938
11
37.4399109999999951
21
-105.53031399999999
0
LINE
8
BLACK
6
CONTINUOUS
10
37.4399109999999951
20
-105.53031399999999
11
37.535148999999997
21
-105.4350759999999951
0
LINE
8
BLACK
6
CONTINUOUS
10
37.535148999999997
20
-105.4350759999999951
11
37.7256250000000009
21
-105.3398380000000003
0
LINE
8
BLACK
6
CONTINUOUS
10
39.6303869999999989
20
-105.3398380000000003
11
39.8208640000000003
21
-105.3398380000000003
0
LINE
8
BLACK
6
CONTINUOUS
10
39.8208640000000003
20
-105.3398380000000003
11
40.011339999999997
21
-105.4350759999999951
0
LINE
8
BLACK
6
CONTINUOUS
10
40.011339999999997
20
-105.4350759999999951
11
40.106577999999999
21
-105.53031399999999
0
LINE
8
BLACK
6
CONTINUOUS
10
40.106577999999999
20
-105.53031399999999
11
40.2018160000000009
21
-105.7207899999999938
0
LINE
8
BLACK
6
CONTINUOUS
10
40.2018160000000009
20
-105.7207899999999938
11
40.2970539999999957
21
-106.1017420000000016
0
LINE
8
BLACK
6
CONTINUOUS
10
40.2970539999999957
20
-106.1017420000000016
11
40.2970539999999957
21
-106.5779330000000016
0
LINE
8
BLACK
6
CONTINUOUS
10
40.2970539999999957
20
-106.5779330000000016
11
40.2018160000000009
21
-106.9588849999999951
0
LINE
8
BLACK
6
CONTINUOUS
10
40.2018160000000009
20
-106.9588849999999951
11
40.106577999999999
21
-107.149360999999999
0
LINE
8
BLACK
6
CONTINUOUS
10
40.106577999999999
20
-107.149360999999999
11
40.011339999999997
21
-107.2445999999999913
0
LINE
8
BLACK
6
CONTINUOUS
10
40.011339999999997
20
-107.2445999999999913
11
39.8208640000000003
21
-107.3398380000000003
0
LINE
8
BLACK
6
CONTINUOUS
10
39.8208640000000003
20
-107.3398380000000003
11
39.6303869999999989
21
-107.3398380000000003
0
LINE
8
BLACK
6
CONTINUOUS
10
39.6303869999999989
20
-107.3398380000000003
11
39.4399109999999951
21
-107.2445999999999913
0
LINE
8
BLACK
6
CONTINUOUS
10
39.4399109999999951
20
-107.2445999999999913
11
39.3446730000000002
21
-107.149360999999999
0
LINE
8
BLACK
6
CONTINUOUS
10
39.3446730000000002
20
-107.149360999999999
11
39.2494349999999983
21
-106.9588849999999951
0
LINE
8
BLACK
6
CONTINUOUS
10
39.2494349999999983
20
-106.9588849999999951
11
39.1541969999999964
21
-106.5779330000000016
0
LINE
8
BLACK
6
CONTINUOUS
10
39.1541969999999964
20
-106.5779330000000016
11
39.1541969999999964
21
-106.1017420000000016
0
LINE
8
BLACK
6
CONTINUOUS
10
39.1541969999999964
20
-106.1017420000000016
11
39.2494349999999983
21
-105.7207899999999938
0
LINE
8
BLACK
6
CONTINUOUS
10
39.2494349999999983
20
-105.7207899999999938
11
39.3446730000000002
21
-105.53031399999999
0
LINE
8
BLACK
6
CONTINUOUS
10
39.3446730000000002
20
-105.53031399999999
11
39.4399109999999951
21
-105.4350759999999951
0
LINE
8
BLACK
6
CONTINUOUS
10
39.4399109999999951
20
-105.4350759999999951
11
39.6303869999999989
21
-105.3398380000000003
0
LINE
8
BLACK
6
CONTINUOUS
10
41.1541969999999964
20
-107.3398380000000003
11
41.1541969999999964
21
-106.0065039999999925
0
LINE
8
BLACK
6
CONTINUOUS
10
41.1541969999999964
20
-106.1969799999999964
11
41.2494349999999983
21
-106.1017420000000016
0
LINE
8
BLACK
6
CONTINUOUS
10
41.2494349999999983
20
-106.1017420000000016
11
41.4399109999999951
21
-106.0065039999999925
0
LINE
8
BLACK
6
CONTINUOUS
10
41.4399109999999951
20
-106.0065039999999925
11
41.7256259999999983
21
-106.0065039999999925
0
LINE
8
BLACK
6
CONTINUOUS
10
41.7256259999999983
20
-106.0065039999999925
11
41.9161019999999951
21
-106.1017420000000016
0
LINE
8
BLACK
6
CONTINUOUS
10
41.9161019999999951
20
-106.1017420000000016
11
42.011339999999997
21
-106.2922189999999887
0
LINE
8
BLACK
6
CONTINUOUS
10
42.011339999999997
20
-106.2922189999999887
11
42.011339999999997
21
-107.3398380000000003
0
LINE
8
BLACK
6
CONTINUOUS
10
42.011339999999997
20
-106.2922189999999887
11
42.106577999999999
21
-106.1017420000000016
0
LINE
8
BLACK
6
CONTINUOUS
10
42.106577999999999
20
-106.1017420000000016
11
42.2970539999999957
21
-106.0065039999999925
0
LINE
8
BLACK
6
CONTINUOUS
10
42.2970539999999957
20
-106.0065039999999925
11
42.5827680000000015
21
-106.0065039999999925
0
LINE
8
BLACK
6
CONTINUOUS
10
42.5827680000000015
20
-106.0065039999999925
11
42.7732449999999957
21
-106.1017420000000016
0
LINE
8
BLACK
6
CONTINUOUS
10
42.7732449999999957
20
-106.1017420000000016
11
42.8684829999999977
21
-106.2922189999999887
0
LINE
8
BLACK
6
CONTINUOUS
10
42.8684829999999977
20
-106.2922189999999887
11
42.8684829999999977
21
-107.3398380000000003
0
LINE
8
BLACK
6
CONTINUOUS
10
43.8208640000000003
20
-107.3398380000000003
11
43.8208640000000003
21
-106.0065039999999925
0
LINE
8
BLACK
6
CONTINUOUS
10
43.8208640000000003
20
-106.1969799999999964
11
43.9161019999999951
21
-106.1017420000000016
0
LINE
8
BLACK
6
CONTINUOUS
10
43.9161019999999951
20
-106.1017420000000016
11
44.106577999999999
21
-106.0065039999999925
0
LINE
8
BLACK
6
CONTINUOUS
10
44.106577999999999
20
-106.0065039999999925
11
44.3922929999999951
21
-106.0065039999999925
0
LINE
8
BLACK
6
CONTINUOUS
10
44.3922929999999951
20
-106.0065039999999925
11
44.582768999999999
21
-106.1017420000000016
0
LINE
8
BLACK
6
CONTINUOUS
10
44.582768999999999
20
-106.1017420000000016
11
44.6780070000000009
21
-106.2922189999999887
0
LINE
8
BLACK
6
CONTINUOUS
10
44.6780070000000009
20
-106.2922189999999887
11
44.6780070000000009
21
-107.3398380000000003
0
LINE
8
BLACK
6
CONTINUOUS
10
44.6780070000000009
20
-106.2922189999999887
11
44.7732449999999957
21
-106.1017420000000016
0
LINE
8
BLACK
6
CONTINUOUS
10
44.7732449999999957
20
-106.1017420000000016
11
44.9637209999999996
21
-106.0065039999999925
0
LINE
8
BLACK
6
CONTINUOUS
10
44.9637209999999996
20
-106.0065039999999925
11
45.2494349999999983
21
-106.0065039999999925
0
LINE
8
BLACK
6
CONTINUOUS
10
45.2494349999999983
20
-106.0065039999999925
11
45.4399119999999996
21
-106.1017420000000016
0
LINE
8
BLACK
6
CONTINUOUS
10
45.4399119999999996
20
-106.1017420000000016
11
45.5351499999999945
21
-106.2922189999999887
0
LINE
8
BLACK
6
CONTINUOUS
10
45.5351499999999945
20
-106.2922189999999887
11
45.5351499999999945
21
-107.3398380000000003
0
LINE
8
BLACK
6
CONTINUOUS
10
49.4399119999999996
20
-105.2445999999999913
11
47.7256269999999958
21
-107.8160279999999887
0
LINE
8
BLACK
6
CONTINUOUS
10
52.0113409999999945
20
-105.3398380000000003
11
52.2018179999999958
21
-105.3398380000000003
0
LINE
8
BLACK
6
CONTINUOUS
10
52.2018179999999958
20
-105.3398380000000003
11
52.3922939999999997
21
-105.4350759999999951
0
LINE
8
BLACK
6
CONTINUOUS
10
52.3922939999999997
20
-105.4350759999999951
11
52.4875319999999945
21
-105.53031399999999
0
LINE
8
BLACK
6
CONTINUOUS
10
52.4875319999999945
20
-105.53031399999999
11
52.5827699999999965
21
-105.7207899999999938
0
LINE
8
BLACK
6
CONTINUOUS
10
52.5827699999999965
20
-105.7207899999999938
11
52.6780079999999984
21
-106.1017420000000016
0
LINE
8
BLACK
6
CONTINUOUS
10
52.6780079999999984
20
-106.1017420000000016
11
52.6780079999999984
21
-106.5779330000000016
0
LINE
8
BLACK
6
CONTINUOUS
10
52.6780079999999984
20
-106.5779330000000016
11
52.5827699999999965
21
-106.9588849999999951
0
LINE
8
BLACK
6
CONTINUOUS
10
52.5827699999999965
20
-106.9588849999999951
11
52.4875319999999945
21
-107.149360999999999
0
LINE
8
BLACK
6
CONTINUOUS
10
52.4875319999999945
20
-107.149360999999999
11
52.3922939999999997
21
-107.2445999999999913
0
LINE
8
BLACK
6
CONTINUOUS
10
52.3922939999999997
20
-107.2445999999999913
11
52.2018179999999958
21
-107.3398380000000003
0
LINE
8
BLACK
6
CONTINUOUS
10
52.2018179999999958
20
-107.3398380000000003
11
52.0113409999999945
21
-107.3398380000000003
0
LINE
8
BLACK
6
CONTINUOUS
10
52.0113409999999945
20
-107.3398380000000003
11
51.8208649999999977
21
-107.2445999999999913
0
LINE
8
BLACK
6
CONTINUOUS
10
51.8208649999999977
20
-107.2445999999999913
11
51.7256269999999958
21
-107.149360999999999
0
LINE
8
BLACK
6
CONTINUOUS
10
51.7256269999999958
20
-107.149360999999999
11
51.630389000000001
21
-106.9588849999999951
0
LINE
8
BLACK
6
CONTINUOUS
10
51.630389000000001
20
-106.9588849999999951
11
51.535150999999999
21
-106.5779330000000016
0
LINE
8
BLACK
6
CONTINUOUS
10
51.535150999999999
20
-106.5779330000000016
11
51.535150999999999
21
-106.1017420000000016
0
LINE
8
BLACK
6
CONTINUOUS
10
51.535150999999999
20
-106.1017420000000016
11
51.630389000000001
21
-105.7207899999999938
0
LINE
8
BLACK
6
CONTINUOUS
10
51.630389000000001
20
-105.7207899999999938
11
51.7256269999999958
21
-105.53031399999999
0
LINE
8
BLACK
6
CONTINUOUS
10
51.7256269999999958
20
-105.53031399999999
11
51.8208649999999977
21
-105.4350759999999951
0
LINE
8
BLACK
6
CONTINUOUS
10
51.8208649999999977
20
-105.4350759999999951
11
52.0113409999999945
21
-105.3398380000000003
0
LINE
8
BLACK
6
CONTINUOUS
10
53.535150999999999
20
-107.149360999999999
11
53.630389000000001
21
-107.2445999999999913
0
LINE
8
BLACK
6
CONTINUOUS
10
53.630389000000001
20
-107.2445999999999913
11
53.535150999999999
21
-107.3398380000000003
0
LINE
8
BLACK
6
CONTINUOUS
10
53.535150999999999
20
-107.3398380000000003
11
53.4399129999999971
21
-107.2445999999999913
0
LINE
8
BLACK
6
CONTINUOUS
10
53.4399129999999971
20
-107.2445999999999913
11
53.535150999999999
21
-107.149360999999999
0
LINE
8
BLACK
6
CONTINUOUS
10
53.535150999999999
20
-107.149360999999999
11
53.535150999999999
21
-107.3398380000000003
0
LINE
8
BLACK
6
CONTINUOUS
10
54.8684839999999951
20
-105.3398380000000003
11
55.0589609999999965
21
-105.3398380000000003
0
LINE
8
BLACK
6
CONTINUOUS
10
55.0589609999999965
20
-105.3398380000000003
11
55.2494370000000004
21
-105.4350759999999951
0
LINE
8
BLACK
6
CONTINUOUS
10
55.2494370000000004
20
-105.4350759999999951
11
55.3446749999999952
21
-105.53031399999999
0
LINE
8
BLACK
6
CONTINUOUS
10
55.3446749999999952
20
-105.53031399999999
11
55.4399129999999971
21
-105.7207899999999938
0
LINE
8
BLACK
6
CONTINUOUS
10
55.4399129999999971
20
-105.7207899999999938
11
55.535150999999999
21
-106.1017420000000016
0
LINE
8
BLACK
6
CONTINUOUS
10
55.535150999999999
20
-106.1017420000000016
11
55.535150999999999
21
-106.5779330000000016
0
LINE
8
BLACK
6
CONTINUOUS
10
55.535150999999999
20
-106.5779330000000016
11
55.4399129999999971
21
-106.9588849999999951
0
LINE
8
BLACK
6
CONTINUOUS
10
55.4399129999999971
20
-106.9588849999999951
11
55.3446749999999952
21
-107.149360999999999
0
LINE
8
BLACK
6
CONTINUOUS
10
55.3446749999999952
20
-107.149360999999999
11
55.2494370000000004
21
-107.2445999999999913
0
LINE
8
BLACK
6
CONTINUOUS
10
55.2494370000000004
20
-107.2445999999999913
11
55.0589609999999965
21
-107.3398380000000003
0
LINE
8
BLACK
6
CONTINUOUS
10
55.0589609999999965
20
-107.3398380000000003
11
54.8684839999999951
21
-107.3398380000000003
0
LINE
8
BLACK
6
CONTINUOUS
10
54.8684839999999951
20
-107.3398380000000003
11
54.6780079999999984
21
-107.2445999999999913
0
LINE
8
BLACK
6
CONTINUOUS
10
54.6780079999999984
20
-107.2445999999999913
11
54.5827699999999965
21
-107.149360999999999
0
LINE
8
BLACK
6
CONTINUOUS
10
54.5827699999999965
20
-107.149360999999999
11
54.4875319999999945
21
-106.9588849999999951
0
LINE
8
BLACK
6
CONTINUOUS
10
54.4875319999999945
20
-106.9588849999999951
11
54.3922939999999997
21
-106.5779330000000016
0
LINE
8
BLACK
6
CONTINUOUS
10
54.3922939999999997
20
-106.5779330000000016
11
54.3922939999999997
21
-106.1017420000000016
0
LINE
8
BLACK
6
CONTINUOUS
10
54.3922939999999997
20
-106.1017420000000016
11
54.4875319999999945
21
-105.7207899999999938
0
LINE
8
BLACK
6
CONTINUOUS
10
54.4875319999999945
20
-105.7207899999999938
11
54.5827699999999965
21
-105.53031399999999
0
LINE
8
BLACK
6
CONTINUOUS
10
54.5827699999999965
20
-105.53031399999999
11
54.6780079999999984
21
-105.4350759999999951
0
LINE
8
BLACK
6
CONTINUOUS
10
54.6780079999999984
20
-105.4350759999999951
11
54.8684839999999951
21
-105.3398380000000003
0
LINE
8
BLACK
6
CONTINUOUS
10
57.4399129999999971
20
-107.3398380000000003
11
56.2970559999999978
21
-107.3398380000000003
0
LINE
8
BLACK
6
CONTINUOUS
10
56.8684839999999951
20
-107.3398380000000003
11
56.8684839999999951
21
-105.3398380000000003
0
LINE
8
BLACK
6
CONTINUOUS
10
56.8684839999999951
20
-105.3398380000000003
11
56.6780079999999984
21
-105.625551999999999
0
LINE
8
BLACK
6
CONTINUOUS
10
56.6780079999999984
20
-105.625551999999999
11
56.4875319999999945
21
-105.8160279999999887
0
LINE
8
BLACK
6
CONTINUOUS
10
56.4875319999999945
20
-105.8160279999999887
11
56.2970559999999978
21
-105.9112659999999977
0
LINE
8
BLACK
6
CONTINUOUS
10
59.3446749999999952
20
-107.3398380000000003
11
58.2018179999999958
21
-107.3398380000000003
0
LINE
8
BLACK
6
CONTINUOUS
10
58.7732460000000003
20
-107.3398380000000003
11
58.7732460000000003
21
-105.3398380000000003
0
LINE
8
BLACK
6
CONTINUOUS
10
58.7732460000000003
20
-105.3398380000000003
11
58.5827699999999965
21
-105.625551999999999
0
LINE
8
BLACK
6
CONTINUOUS
10
58.5827699999999965
20
-105.625551999999999
11
58.3922939999999997
21
-105.8160279999999887
0
LINE
8
BLACK
6
CONTINUOUS
10
58.3922939999999997
20
-105.8160279999999887
11
58.2018179999999958
21
-105.9112659999999977
0
LINE
8
BLACK
6
CONTINUOUS
10
60.4875319999999945
20
-106.1969799999999964
11
60.2970559999999978
21
-106.1017420000000016
0
LINE
8
BLACK
6
CONTINUOUS
10
60.2970559999999978
20
-106.1017420000000016
11
60.2018179999999958
21
-106.0065039999999925
0
LINE
8
BLACK
6
CONTINUOUS
10
60.2018179999999958
20
-106.0065039999999925
11
60.1065799999999939
21
-105.8160279999999887
0
LINE
8
BLACK
6
CONTINUOUS
10
60.1065799999999939
20
-105.8160279999999887
11
60.1065799999999939
21
-105.7207899999999938
0
LINE
8
BLACK
6
CONTINUOUS
10
60.1065799999999939
20
-105.7207899999999938
11
60.2018179999999958
21
-105.53031399999999
0
LINE
8
BLACK
6
CONTINUOUS
10
60.2018179999999958
20
-105.53031399999999
11
60.2970559999999978
21
-105.4350759999999951
0
LINE
8
BLACK
6
CONTINUOUS
10
60.2970559999999978
20
-105.4350759999999951
11
60.4875319999999945
21
-105.3398380000000003
0
LINE
8
BLACK
6
CONTINUOUS
10
60.4875319999999945
20
-105.3398380000000003
11
60.8684849999999997
21
-105.3398380000000003
0
LINE
8
BLACK
6
CONTINUOUS
10
60.8684849999999997
20
-105.3398380000000003
11
61.0589609999999965
21
-105.4350759999999951
0
LINE
8
BLACK
6
CONTINUOUS
10
61.0589609999999965
20
-105.4350759999999951
11
61.1541989999999984
21
-105.53031399999999
0
LINE
8
BLACK
6
CONTINUOUS
10
61.1541989999999984
20
-105.53031399999999
11
61.2494370000000004
21
-105.7207899999999938
0
LINE
8
BLACK
6
CONTINUOUS
10
61.2494370000000004
20
-105.7207899999999938
11
61.2494370000000004
21
-105.8160279999999887
0
LINE
8
BLACK
6
CONTINUOUS
10
61.2494370000000004
20
-105.8160279999999887
11
61.1541989999999984
21
-106.0065039999999925
0
LINE
8
BLACK
6
CONTINUOUS
10
61.1541989999999984
20
-106.0065039999999925
11
61.0589609999999965
21
-106.1017420000000016
0
LINE
8
BLACK
6
CONTINUOUS
10
61.0589609999999965
20
-106.1017420000000016
11
60.8684849999999997
21
-106.1969799999999964
0
LINE
8
BLACK
6
CONTINUOUS
10
60.8684849999999997
20
-106.1969799999999964
11
60.4875319999999945
21
-106.1969799999999964
0
LINE
8
BLACK
6
CONTINUOUS
10
60.4875319999999945
20
-106.1969799999999964
11
60.2970559999999978
21
-106.2922189999999887
0
LINE
8
BLACK
6
CONTINUOUS
10
60.2970559999999978
20
-106.2922189999999887
11
60.2018179999999958
21
-106.3874569999999977
0
LINE
8
BLACK
6
CONTINUOUS
10
60.2018179999999958
20
-106.3874569999999977
11
60.1065799999999939
21
-106.5779330000000016
0
LINE
8
BLACK
6
CONTINUOUS
10
60.1065799999999939
20
-106.5779330000000016
11
60.1065799999999939
21
-106.9588849999999951
0
LINE
8
BLACK
6
CONTINUOUS
10
60.1065799999999939
20
-106.9588849999999951
11
60.2018179999999958
21
-107.149360999999999
0
LINE
8
BLACK
6
CONTINUOUS
10
60.2018179999999958
20
-107.149360999999999
11
60.2970559999999978
21
-107.2445999999999913
0
LINE
8
BLACK
6
CONTINUOUS
10
60.2970559999999978
20
-107.2445999999999913
11
60.4875319999999945
21
-107.3398380000000003
0
LINE
8
BLACK
6
CONTINUOUS
10
60.4875319999999945
20
-107.3398380000000003
11
60.8684849999999997
21
-107.3398380000000003
0
LINE
8
BLACK
6
CONTINUOUS
10
60.8684849999999997
20
-107.3398380000000003
11
61.0589609999999965
21
-107.2445999999999913
0
LINE
8
BLACK
6
CONTINUOUS
10
61.0589609999999965
20
-107.2445999999999913
11
61.1541989999999984
21
-107.149360999999999
0
LINE
8
BLACK
6
CONTINUOUS
10
61.1541989999999984
20
-107.149360999999999
11
61.2494370000000004
21
-106.9588849999999951
0
LINE
8
BLACK
6
CONTINUOUS
10
61.2494370000000004
20
-106.9588849999999951
11
61.2494370000000004
21
-106.5779330000000016
0
LINE
8
BLACK
6
CONTINUOUS
10
61.2494370000000004
20
-106.5779330000000016
11
61.1541989999999984
21
-106.3874569999999977
0
LINE
8
BLACK
6
CONTINUOUS
10
61.1541989999999984
20
-106.3874569999999977
11
61.0589609999999965
21
-106.2922189999999887
0
LINE
8
BLACK
6
CONTINUOUS
10
61.0589609999999965
20
-106.2922189999999887
11
60.8684849999999997
21
-106.1969799999999964
0
LINE
8
BLACK
6
CONTINUOUS
10
62.0113419999999991
20
-105.3398380000000003
11
62.0113419999999991
21
-105.7207899999999938
0
LINE
8
BLACK
6
CONTINUOUS
10
62.7732469999999978
20
-105.3398380000000003
11
62.7732469999999978
21
-105.7207899999999938
0
LINE
8
BLACK
6
CONTINUOUS
10
65.7256289999999979
20
-108.1017420000000016
11
65.6303899999999913
21
-108.0065039999999925
0
LINE
8
BLACK
6
CONTINUOUS
10
65.6303899999999913
20
-108.0065039999999925
11
65.4399140000000017
21
-107.7207899999999938
0
LINE
8
BLACK
6
CONTINUOUS
10
65.4399140000000017
20
-107.7207899999999938
11
65.3446759999999927
21
-107.53031399999999
0
LINE
8
BLACK
6
CONTINUOUS
10
65.3446759999999927
20
-107.53031399999999
11
65.2494379999999978
21
-107.2445999999999913
0
LINE
8
BLACK
6
CONTINUOUS
10
65.2494379999999978
20
-107.2445999999999913
11
65.154200000000003
21
-106.7684089999999912
0
LINE
8
BLACK
6
CONTINUOUS
10
65.154200000000003
20
-106.7684089999999912
11
65.154200000000003
21
-106.3874569999999977
0
LINE
8
BLACK
6
CONTINUOUS
10
65.154200000000003
20
-106.3874569999999977
11
65.2494379999999978
21
-105.9112659999999977
0
LINE
8
BLACK
6
CONTINUOUS
10
65.2494379999999978
20
-105.9112659999999977
11
65.3446759999999927
21
-105.625551999999999
0
LINE
8
BLACK
6
CONTINUOUS
10
65.3446759999999927
20
-105.625551999999999
11
65.4399140000000017
21
-105.4350759999999951
0
LINE
8
BLACK
6
CONTINUOUS
10
65.4399140000000017
20
-105.4350759999999951
11
65.6303899999999913
21
-105.149360999999999
0
LINE
8
BLACK
6
CONTINUOUS
10
65.6303899999999913
20
-105.149360999999999
11
65.7256289999999979
21
-105.0541229999999899
0
LINE
8
BLACK
6
CONTINUOUS
10
66.5827709999999939
20
-107.3398380000000003
11
66.9637230000000017
21
-107.3398380000000003
0
LINE
8
BLACK
6
CONTINUOUS
10
66.9637230000000017
20
-107.3398380000000003
11
67.154200000000003
21
-107.2445999999999913
0
LINE
8
BLACK
6
CONTINUOUS
10
67.154200000000003
20
-107.2445999999999913
11
67.2494379999999978
21
-107.149360999999999
0
LINE
8
BLACK
6
CONTINUOUS
10
67.2494379999999978
20
-107.149360999999999
11
67.4399140000000017
21
-106.8636470000000003
0
LINE
8
BLACK
6
CONTINUOUS
10
67.4399140000000017
20
-106.8636470000000003
11
67.5351519999999965
21
-106.4826949999999925
0
LINE
8
BLACK
6
CONTINUOUS
10
67.5351519999999965
20
-106.4826949999999925
11
67.5351519999999965
21
-105.7207899999999938
0
LINE
8
BLACK
6
CONTINUOUS
10
67.5351519999999965
20
-105.7207899999999938
11
67.4399140000000017
21
-105.53031399999999
0
LINE
8
BLACK
6
CONTINUOUS
10
67.4399140000000017
20
-105.53031399999999
11
67.3446759999999927
21
-105.4350759999999951
0
LINE
8
BLACK
6
CONTINUOUS
10
67.3446759999999927
20
-105.4350759999999951
11
67.154200000000003
21
-105.3398380000000003
0
LINE
8
BLACK
6
CONTINUOUS
10
67.154200000000003
20
-105.3398380000000003
11
66.7732469999999978
21
-105.3398380000000003
0
LINE
8
BLACK
6
CONTINUOUS
10
66.7732469999999978
20
-105.3398380000000003
11
66.5827709999999939
21
-105.4350759999999951
0
LINE
8
BLACK
6
CONTINUOUS
10
66.5827709999999939
20
-105.4350759999999951
11
66.4875329999999991
21
-105.53031399999999
0
LINE
8
BLACK
6
CONTINUOUS
10
66.4875329999999991
20
-105.53031399999999
11
66.3922949999999901
21
-105.7207899999999938
0
LINE
8
BLACK
6
CONTINUOUS
10
66.3922949999999901
20
-105.7207899999999938
11
66.3922949999999901
21
-106.1969799999999964
0
LINE
8
BLACK
6
CONTINUOUS
10
66.3922949999999901
20
-106.1969799999999964
11
66.4875329999999991
21
-106.3874569999999977
0
LINE
8
BLACK
6
CONTINUOUS
10
66.4875329999999991
20
-106.3874569999999977
11
66.5827709999999939
21
-106.4826949999999925
0
LINE
8
BLACK
6
CONTINUOUS
10
66.5827709999999939
20
-106.4826949999999925
11
66.7732469999999978
21
-106.5779330000000016
0
LINE
8
BLACK
6
CONTINUOUS
10
66.7732469999999978
20
-106.5779330000000016
11
67.154200000000003
21
-106.5779330000000016
0
LINE
8
BLACK
6
CONTINUOUS
10
67.154200000000003
20
-106.5779330000000016
11
67.3446759999999927
21
-106.4826949999999925
0
LINE
8
BLACK
6
CONTINUOUS
10
67.3446759999999927
20
-106.4826949999999925
11
67.4399140000000017
21
-106.3874569999999977
0
LINE
8
BLACK
6
CONTINUOUS
10
67.4399140000000017
20
-106.3874569999999977
11
67.5351519999999965
21
-106.1969799999999964
0
LINE
8
BLACK
6
CONTINUOUS
10
69.4399140000000017
20
-107.3398380000000003
11
68.2970569999999952
21
-107.3398380000000003
0
LINE
8
BLACK
6
CONTINUOUS
10
68.8684849999999926
20
-107.3398380000000003
11
68.8684849999999926
21
-105.3398380000000003
0
LINE
8
BLACK
6
CONTINUOUS
10
68.8684849999999926
20
-105.3398380000000003
11
68.678009000000003
21
-105.625551999999999
0
LINE
8
BLACK
6
CONTINUOUS
10
68.678009000000003
20
-105.625551999999999
11
68.4875329999999991
21
-105.8160279999999887
0
LINE
8
BLACK
6
CONTINUOUS
10
68.4875329999999991
20
-105.8160279999999887
11
68.2970569999999952
21
-105.9112659999999977
0
LINE
8
BLACK
6
CONTINUOUS
10
71.8208669999999927
20
-107.3398380000000003
11
71.8208669999999927
21
-105.3398380000000003
0
LINE
8
BLACK
6
CONTINUOUS
10
72.6780100000000004
20
-107.3398380000000003
11
72.6780100000000004
21
-106.2922189999999887
0
LINE
8
BLACK
6
CONTINUOUS
10
72.6780100000000004
20
-106.2922189999999887
11
72.5827719999999914
21
-106.1017420000000016
0
LINE
8
BLACK
6
CONTINUOUS
10
72.5827719999999914
20
-106.1017420000000016
11
72.3922960000000018
21
-106.0065039999999925
0
LINE
8
BLACK
6
CONTINUOUS
10
72.3922960000000018
20
-106.0065039999999925
11
72.1065809999999914
21
-106.0065039999999925
0
LINE
8
BLACK
6
CONTINUOUS
10
72.1065809999999914
20
-106.0065039999999925
11
71.9161050000000017
21
-106.1017420000000016
0
LINE
8
BLACK
6
CONTINUOUS
10
71.9161050000000017
20
-106.1017420000000016
11
71.8208669999999927
21
-106.1969799999999964
0
LINE
8
BLACK
6
CONTINUOUS
10
73.9161050000000017
20
-107.3398380000000003
11
73.7256289999999979
21
-107.2445999999999913
0
LINE
8
BLACK
6
CONTINUOUS
10
73.7256289999999979
20
-107.2445999999999913
11
73.630391000000003
21
-107.149360999999999
0
LINE
8
BLACK
6
CONTINUOUS
10
73.630391000000003
20
-107.149360999999999
11
73.535152999999994
21
-106.9588849999999951
0
LINE
8
BLACK
6
CONTINUOUS
10
73.535152999999994
20
-106.9588849999999951
11
73.535152999999994
21
-106.3874569999999977
0
LINE
8
BLACK
6
CONTINUOUS
10
73.535152999999994
20
-106.3874569999999977
11
73.630391000000003
21
-106.1969799999999964
0
LINE
8
BLACK
6
CONTINUOUS
10
73.630391000000003
20
-106.1969799999999964
11
73.7256289999999979
21
-106.1017420000000016
0
LINE
8
BLACK
6
CONTINUOUS
10
73.7256289999999979
20
-106.1017420000000016
11
73.9161050000000017
21
-106.0065039999999925
0
LINE
8
BLACK
6
CONTINUOUS
10
73.9161050000000017
20
-106.0065039999999925
11
74.2018199999999979
21
-106.0065039999999925
0
LINE
8
BLACK
6
CONTINUOUS
10
74.2018199999999979
20
-106.0065039999999925
11
74.3922960000000018
21
-106.1017420000000016
0
LINE
8
BLACK
6
CONTINUOUS
10
74.3922960000000018
20
-106.1017420000000016
11
74.4875339999999966
21
-106.1969799999999964
0
LINE
8
BLACK
6
CONTINUOUS
10
74.4875339999999966
20
-106.1969799999999964
11
74.5827719999999914
21
-106.3874569999999977
0
LINE
8
BLACK
6
CONTINUOUS
10
74.5827719999999914
20
-106.3874569999999977
11
74.5827719999999914
21
-106.9588849999999951
0
LINE
8
BLACK
6
CONTINUOUS
10
74.5827719999999914
20
-106.9588849999999951
11
74.4875339999999966
21
-107.149360999999999
0
LINE
8
BLACK
6
CONTINUOUS
10
74.4875339999999966
20
-107.149360999999999
11
74.3922960000000018
21
-107.2445999999999913
0
LINE
8
BLACK
6
CONTINUOUS
10
74.3922960000000018
20
-107.2445999999999913
11
74.2018199999999979
21
-107.3398380000000003
0
LINE
8
BLACK
6
CONTINUOUS
10
74.2018199999999979
20
-107.3398380000000003
11
73.9161050000000017
21
-107.3398380000000003
0
LINE
8
BLACK
6
CONTINUOUS
10
75.7256289999999979
20
-107.3398380000000003
11
75.535152999999994
21
-107.2445999999999913
0
LINE
8
BLACK
6
CONTINUOUS
10
75.535152999999994
20
-107.2445999999999913
11
75.4399149999999992
21
-107.0541229999999899
0
LINE
8
BLACK
6
CONTINUOUS
10
75.4399149999999992
20
-107.0541229999999899
11
75.4399149999999992
21
-105.3398380000000003
0
LINE
8
BLACK
6
CONTINUOUS
10
77.2494389999999953
20
-107.2445999999999913
11
77.0589629999999914
21
-107.3398380000000003
0
LINE
8
BLACK
6
CONTINUOUS
10
77.0589629999999914
20
-107.3398380000000003
11
76.6780100000000004
21
-107.3398380000000003
0
LINE
8
BLACK
6
CONTINUOUS
10
76.6780100000000004
20
-107.3398380000000003
11
76.4875339999999966
21
-107.2445999999999913
0
LINE
8
BLACK
6
CONTINUOUS
10
76.4875339999999966
20
-107.2445999999999913
11
76.3922960000000018
21
-107.0541229999999899
0
LINE
8
BLACK
6
CONTINUOUS
10
76.3922960000000018
20
-107.0541229999999899
11
76.3922960000000018
21
-106.2922189999999887
0
LINE
8
BLACK
6
CONTINUOUS
10
76.3922960000000018
20
-106.2922189999999887
11
76.4875339999999966
21
-106.1017420000000016
0
LINE
8
BLACK
6
CONTINUOUS
10
76.4875339999999966
20
-106.1017420000000016
11
76.6780100000000004
21
-106.0065039999999925
0
LINE
8
BLACK
6
CONTINUOUS
10
76.6780100000000004
20
-106.0065039999999925
11
77.0589629999999914
21
-106.0065039999999925
0
LINE
8
BLACK
6
CONTINUOUS
10
77.0589629999999914
20
-106.0065039999999925
11
77.2494389999999953
21
-106.1017420000000016
0
LINE
8
BLACK
6
CONTINUOUS
10
77.2494389999999953
20
-106.1017420000000016
11
77.3446769999999901
21
-106.2922189999999887
0
LINE
8
BLACK
6
CONTINUOUS
10
77.3446769999999901
20
-106.2922189999999887
11
77.3446769999999901
21
-106.4826949999999925
0
LINE
8
BLACK
6
CONTINUOUS
10
77.3446769999999901
20
-106.4826949999999925
11
76.3922960000000018
21
-106.6731709999999964
0
LINE
8
BLACK
6
CONTINUOUS
10
78.1065820000000031
20
-107.2445999999999913
11
78.2970579999999927
21
-107.3398380000000003
0
LINE
8
BLACK
6
CONTINUOUS
10
78.2970579999999927
20
-107.3398380000000003
11
78.6780100000000004
21
-107.3398380000000003
0
LINE
8
BLACK
6
CONTINUOUS
10
78.6780100000000004
20
-107.3398380000000003
11
78.8684870000000018
21
-107.2445999999999913
0
LINE
8
BLACK
6
CONTINUOUS
10
78.8684870000000018
20
-107.2445999999999913
11
78.9637249999999966
21
-107.0541229999999899
0
LINE
8
BLACK
6
CONTINUOUS
10
78.9637249999999966
20
-107.0541229999999899
11
78.9637249999999966
21
-106.9588849999999951
0
LINE
8
BLACK
6
CONTINUOUS
10
78.9637249999999966
20
-106.9588849999999951
11
78.8684870000000018
21
-106.7684089999999912
0
LINE
8
BLACK
6
CONTINUOUS
10
78.8684870000000018
20
-106.7684089999999912
11
78.6780100000000004
21
-106.6731709999999964
0
LINE
8
BLACK
6
CONTINUOUS
10
78.6780100000000004
20
-106.6731709999999964
11
78.3922960000000018
21
-106.6731709999999964
0
LINE
8
BLACK
6
CONTINUOUS
10
78.3922960000000018
20
-106.6731709999999964
11
78.2018199999999979
21
-106.5779330000000016
0
LINE
8
BLACK
6
CONTINUOUS
10
78.2018199999999979
20
-106.5779330000000016
11
78.1065820000000031
21
-106.3874569999999977
0
LINE
8
BLACK
6
CONTINUOUS
10
78.1065820000000031
20
-106.3874569999999977
11
78.1065820000000031
21
-106.2922189999999887
0
LINE
8
BLACK
6
CONTINUOUS
10
78.1065820000000031
20
-106.2922189999999887
11
78.2018199999999979
21
-106.1017420000000016
0
LINE
8
BLACK
6
CONTINUOUS
10
78.2018199999999979
20
-106.1017420000000016
11
78.3922960000000018
21
-106.0065039999999925
0
LINE
8
BLACK
6
CONTINUOUS
10
78.3922960000000018
20
-106.0065039999999925
11
78.6780100000000004
21
-106.0065039999999925
0
LINE
8
BLACK
6
CONTINUOUS
10
78.6780100000000004
20
-106.0065039999999925
11
78.8684870000000018
21
-106.1017420000000016
0
LINE
8
BLACK
6
CONTINUOUS
10
79.6303920000000005
20
-108.1017420000000016
11
79.7256299999999953
21
-108.0065039999999925
0
LINE
8
BLACK
6
CONTINUOUS
10
79.7256299999999953
20
-108.0065039999999925
11
79.9161059999999992
21
-107.7207899999999938
0
LINE
8
BLACK
6
CONTINUOUS
10
79.9161059999999992
20
-107.7207899999999938
11
80.011343999999994
21
-107.53031399999999
0
LINE
8
BLACK
6
CONTINUOUS
10
80.011343999999994
20
-107.53031399999999
11
80.1065820000000031
21
-107.2445999999999913
0
LINE
8
BLACK
6
CONTINUOUS
10
80.1065820000000031
20
-107.2445999999999913
11
80.2018199999999979
21
-106.7684089999999912
0
LINE
8
BLACK
6
CONTINUOUS
10
80.2018199999999979
20
-106.7684089999999912
11
80.2018199999999979
21
-106.3874569999999977
0
LINE
8
BLACK
6
CONTINUOUS
10
80.2018199999999979
20
-106.3874569999999977
11
80.1065820000000031
21
-105.9112659999999977
0
LINE
8
BLACK
6
CONTINUOUS
10
80.1065820000000031
20
-105.9112659999999977
11
80.011343999999994
21
-105.625551999999999
0
LINE
8
BLACK
6
CONTINUOUS
10
80.011343999999994
20
-105.625551999999999
11
79.9161059999999992
21
-105.4350759999999951
0
LINE
8
BLACK
6
CONTINUOUS
10
79.9161059999999992
20
-105.4350759999999951
11
79.7256299999999953
21
-105.149360999999999
0
LINE
8
BLACK
6
CONTINUOUS
10
79.7256299999999953
20
-105.149360999999999
11
79.6303920000000005
21
-105.0541229999999899
0
CIRCLE
8
BLACK
10
29.6749999999999972
20
-109.0649999999999977
40
0.3
0
LINE
8
BLACK
6
CONTINUOUS
10
32.963719999999995
20
-107.9798380000000009
11
33.1541969999999964
21
-107.9798380000000009
0
LINE
8
BLACK
6
CONTINUOUS
10
33.1541969999999964
20
-107.9798380000000009
11
33.3446730000000002
21
-108.0750759999999957
0
LINE
8
BLACK
6
CONTINUOUS
10
33.3446730000000002
20
-108.0750759999999957
11
33.4399109999999951
21
-108.1703139999999905
0
LINE
8
BLACK
6
CONTINUOUS
10
33.4399109999999951
20
-108.1703139999999905
11
33.535148999999997
21
-108.3607899999999944
0
LINE
8
BLACK
6
CONTINUOUS
10
33.535148999999997
20
-108.3607899999999944
11
33.6303869999999989
21
-108.7417420000000021
0
LINE
8
BLACK
6
CONTINUOUS
10
33.6303869999999989
20
-108.7417420000000021
11
33.6303869999999989
21
-109.2179330000000022
0
LINE
8
BLACK
6
CONTINUOUS
10
33.6303869999999989
20
-109.2179330000000022
11
33.535148999999997
21
-109.5988849999999957
0
LINE
8
BLACK
6
CONTINUOUS
10
33.535148999999997
20
-109.5988849999999957
11
33.4399109999999951
21
-109.7893609999999995
0
LINE
8
BLACK
6
CONTINUOUS
10
33.4399109999999951
20
-109.7893609999999995
11
33.3446730000000002
21
-109.8845999999999918
0
LINE
8
BLACK
6
CONTINUOUS
10
33.3446730000000002
20
-109.8845999999999918
11
33.1541969999999964
21
-109.9798380000000009
0
LINE
8
BLACK
6
CONTINUOUS
10
33.1541969999999964
20
-109.9798380000000009
11
32.963719999999995
21
-109.9798380000000009
0
LINE
8
BLACK
6
CONTINUOUS
10
32.963719999999995
20
-109.9798380000000009
11
32.7732439999999983
21
-109.8845999999999918
0
LINE
8
BLACK
6
CONTINUOUS
10
32.7732439999999983
20
-109.8845999999999918
11
32.6780059999999963
21
-109.7893609999999995
0
LINE
8
BLACK
6
CONTINUOUS
10
32.6780059999999963
20
-109.7893609999999995
11
32.5827680000000015
21
-109.5988849999999957
0
LINE
8
BLACK
6
CONTINUOUS
10
32.5827680000000015
20
-109.5988849999999957
11
32.4875299999999996
21
-109.2179330000000022
0
LINE
8
BLACK
6
CONTINUOUS
10
32.4875299999999996
20
-109.2179330000000022
11
32.4875299999999996
21
-108.7417420000000021
0
LINE
8
BLACK
6
CONTINUOUS
10
32.4875299999999996
20
-108.7417420000000021
11
32.5827680000000015
21
-108.3607899999999944
0
LINE
8
BLACK
6
CONTINUOUS
10
32.5827680000000015
20
-108.3607899999999944
11
32.6780059999999963
21
-108.1703139999999905
0
LINE
8
BLACK
6
CONTINUOUS
10
32.6780059999999963
20
-108.1703139999999905
11
32.7732439999999983
21
-108.0750759999999957
0
LINE
8
BLACK
6
CONTINUOUS
10
32.7732439999999983
20
-108.0750759999999957
11
32.963719999999995
21
-107.9798380000000009
0
LINE
8
BLACK
6
CONTINUOUS
10
34.4875299999999996
20
-109.7893609999999995
11
34.5827680000000015
21
-109.8845999999999918
0
LINE
8
BLACK
6
CONTINUOUS
10
34.5827680000000015
20
-109.8845999999999918
11
34.4875299999999996
21
-109.9798380000000009
0
LINE
8
BLACK
6
CONTINUOUS
10
34.4875299999999996
20
-109.9798380000000009
11
34.3922919999999976
21
-109.8845999999999918
0
LINE
8
BLACK
6
CONTINUOUS
10
34.3922919999999976
20
-109.8845999999999918
11
34.4875299999999996
21
-109.7893609999999995
0
LINE
8
BLACK
6
CONTINUOUS
10
34.4875299999999996
20
-109.7893609999999995
11
34.4875299999999996
21
-109.9798380000000009
0
LINE
8
BLACK
6
CONTINUOUS
10
36.2970539999999957
20
-107.9798380000000009
11
35.9161009999999976
21
-107.9798380000000009
0
LINE
8
BLACK
6
CONTINUOUS
10
35.9161009999999976
20
-107.9798380000000009
11
35.7256250000000009
21
-108.0750759999999957
0
LINE
8
BLACK
6
CONTINUOUS
10
35.7256250000000009
20
-108.0750759999999957
11
35.6303869999999989
21
-108.1703139999999905
0
LINE
8
BLACK
6
CONTINUOUS
10
35.6303869999999989
20
-108.1703139999999905
11
35.4399109999999951
21
-108.4560279999999892
0
LINE
8
BLACK
6
CONTINUOUS
10
35.4399109999999951
20
-108.4560279999999892
11
35.3446730000000002
21
-108.8369799999999969
0
LINE
8
BLACK
6
CONTINUOUS
10
35.3446730000000002
20
-108.8369799999999969
11
35.3446730000000002
21
-109.5988849999999957
0
LINE
8
BLACK
6
CONTINUOUS
10
35.3446730000000002
20
-109.5988849999999957
11
35.4399109999999951
21
-109.7893609999999995
0
LINE
8
BLACK
6
CONTINUOUS
10
35.4399109999999951
20
-109.7893609999999995
11
35.535148999999997
21
-109.8845999999999918
0
LINE
8
BLACK
6
CONTINUOUS
10
35.535148999999997
20
-109.8845999999999918
11
35.7256250000000009
21
-109.9798380000000009
0
LINE
8
BLACK
6
CONTINUOUS
10
35.7256250000000009
20
-109.9798380000000009
11
36.106577999999999
21
-109.9798380000000009
0
LINE
8
BLACK
6
CONTINUOUS
10
36.106577999999999
20
-109.9798380000000009
11
36.2970539999999957
21
-109.8845999999999918
0
LINE
8
BLACK
6
CONTINUOUS
10
36.2970539999999957
20
-109.8845999999999918
11
36.3922919999999976
21
-109.7893609999999995
0
LINE
8
BLACK
6
CONTINUOUS
10
36.3922919999999976
20
-109.7893609999999995
11
36.4875299999999996
21
-109.5988849999999957
0
LINE
8
BLACK
6
CONTINUOUS
10
36.4875299999999996
20
-109.5988849999999957
11
36.4875299999999996
21
-109.1226949999999931
0
LINE
8
BLACK
6
CONTINUOUS
10
36.4875299999999996
20
-109.1226949999999931
11
36.3922919999999976
21
-108.9322189999999893
0
LINE
8
BLACK
6
CONTINUOUS
10
36.3922919999999976
20
-108.9322189999999893
11
36.2970539999999957
21
-108.8369799999999969
0
LINE
8
BLACK
6
CONTINUOUS
10
36.2970539999999957
20
-108.8369799999999969
11
36.106577999999999
21
-108.7417420000000021
0
LINE
8
BLACK
6
CONTINUOUS
10
36.106577999999999
20
-108.7417420000000021
11
35.7256250000000009
21
-108.7417420000000021
0
LINE
8
BLACK
6
CONTINUOUS
10
35.7256250000000009
20
-108.7417420000000021
11
35.535148999999997
21
-108.8369799999999969
0
LINE
8
BLACK
6
CONTINUOUS
10
35.535148999999997
20
-108.8369799999999969
11
35.4399109999999951
21
-108.9322189999999893
0
LINE
8
BLACK
6
CONTINUOUS
10
35.4399109999999951
20
-108.9322189999999893
11
35.3446730000000002
21
-109.1226949999999931
0
LINE
8
BLACK
6
CONTINUOUS
10
37.7256250000000009
20
-107.9798380000000009
11
37.9161019999999951
21
-107.9798380000000009
0
LINE
8
BLACK
6
CONTINUOUS
10
37.9161019999999951
20
-107.9798380000000009
11
38.106577999999999
21
-108.0750759999999957
0
LINE
8
BLACK
6
CONTINUOUS
10
38.106577999999999
20
-108.0750759999999957
11
38.2018160000000009
21
-108.1703139999999905
0
LINE
8
BLACK
6
CONTINUOUS
10
38.2018160000000009
20
-108.1703139999999905
11
38.2970539999999957
21
-108.3607899999999944
0
LINE
8
BLACK
6
CONTINUOUS
10
38.2970539999999957
20
-108.3607899999999944
11
38.3922919999999976
21
-108.7417420000000021
0
LINE
8
BLACK
6
CONTINUOUS
10
38.3922919999999976
20
-108.7417420000000021
11
38.3922919999999976
21
-109.2179330000000022
0
LINE
8
BLACK
6
CONTINUOUS
10
38.3922919999999976
20
-109.2179330000000022
11
38.2970539999999957
21
-109.5988849999999957
0
LINE
8
BLACK
6
CONTINUOUS
10
38.2970539999999957
20
-109.5988849999999957
11
38.2018160000000009
21
-109.7893609999999995
0
LINE
8
BLACK
6
CONTINUOUS
10
38.2018160000000009
20
-109.7893609999999995
11
38.106577999999999
21
-109.8845999999999918
0
LINE
8
BLACK
6
CONTINUOUS
10
38.106577999999999
20
-109.8845999999999918
11
37.9161019999999951
21
-109.9798380000000009
0
LINE
8
BLACK
6
CONTINUOUS
10
37.9161019999999951
20
-109.9798380000000009
11
37.7256250000000009
21
-109.9798380000000009
0
LINE
8
BLACK
6
CONTINUOUS
10
37.7256250000000009
20
-109.9798380000000009
11
37.535148999999997
21
-109.8845999999999918
0
LINE
8
BLACK
6
CONTINUOUS
10
37.535148999999997
20
-109.8845999999999918
11
37.4399109999999951
21
-109.7893609999999995
0
LINE
8
BLACK
6
CONTINUOUS
10
37.4399109999999951
20
-109.7893609999999995
11
37.3446730000000002
21
-109.5988849999999957
0
LINE
8
BLACK
6
CONTINUOUS
10
37.3446730000000002
20
-109.5988849999999957
11
37.2494349999999983
21
-109.2179330000000022
0
LINE
8
BLACK
6
CONTINUOUS
10
37.2494349999999983
20
-109.2179330000000022
11
37.2494349999999983
21
-108.7417420000000021
0
LINE
8
BLACK
6
CONTINUOUS
10
37.2494349999999983
20
-108.7417420000000021
11
37.3446730000000002
21
-108.3607899999999944
0
LINE
8
BLACK
6
CONTINUOUS
10
37.3446730000000002
20
-108.3607899999999944
11
37.4399109999999951
21
-108.1703139999999905
0
LINE
8
BLACK
6
CONTINUOUS
10
37.4399109999999951
20
-108.1703139999999905
11
37.535148999999997
21
-108.0750759999999957
0
LINE
8
BLACK
6
CONTINUOUS
10
37.535148999999997
20
-108.0750759999999957
11
37.7256250000000009
21
-107.9798380000000009
0
LINE
8
BLACK
6
CONTINUOUS
10
39.6303869999999989
20
-107.9798380000000009
11
39.8208640000000003
21
-107.9798380000000009
0
LINE
8
BLACK
6
CONTINUOUS
10
39.8208640000000003
20
-107.9798380000000009
11
40.011339999999997
21
-108.0750759999999957
0
LINE
8
BLACK
6
CONTINUOUS
10
40.011339999999997
20
-108.0750759999999957
11
40.106577999999999
21
-108.1703139999999905
0
LINE
8
BLACK
6
CONTINUOUS
10
40.106577999999999
20
-108.1703139999999905
11
40.2018160000000009
21
-108.3607899999999944
0
LINE
8
BLACK
6
CONTINUOUS
10
40.2018160000000009
20
-108.3607899999999944
11
40.2970539999999957
21
-108.7417420000000021
0
LINE
8
BLACK
6
CONTINUOUS
10
40.2970539999999957
20
-108.7417420000000021
11
40.2970539999999957
21
-109.2179330000000022
0
LINE
8
BLACK
6
CONTINUOUS
10
40.2970539999999957
20
-109.2179330000000022
11
40.2018160000000009
21
-109.5988849999999957
0
LINE
8
BLACK
6
CONTINUOUS
10
40.2018160000000009
20
-109.5988849999999957
11
40.106577999999999
21
-109.7893609999999995
0
LINE
8
BLACK
6
CONTINUOUS
10
40.106577999999999
20
-109.7893609999999995
11
40.011339999999997
21
-109.8845999999999918
0
LINE
8
BLACK
6
CONTINUOUS
10
40.011339999999997
20
-109.8845999999999918
11
39.8208640000000003
21
-109.9798380000000009
0
LINE
8
BLACK
6
CONTINUOUS
10
39.8208640000000003
20
-109.9798380000000009
11
39.6303869999999989
21
-109.9798380000000009
0
LINE
8
BLACK
6
CONTINUOUS
10
39.6303869999999989
20
-109.9798380000000009
11
39.4399109999999951
21
-109.8845999999999918
0
LINE
8
BLACK
6
CONTINUOUS
10
39.4399109999999951
20
-109.8845999999999918
11
39.3446730000000002
21
-109.7893609999999995
0
LINE
8
BLACK
6
CONTINUOUS
10
39.3446730000000002
20
-109.7893609999999995
11
39.2494349999999983
21
-109.5988849999999957
0
LINE
8
BLACK
6
CONTINUOUS
10
39.2494349999999983
20
-109.5988849999999957
11
39.1541969999999964
21
-109.2179330000000022
0
LINE
8
BLACK
6
CONTINUOUS
10
39.1541969999999964
20
-109.2179330000000022
11
39.1541969999999964
21
-108.7417420000000021
0
LINE
8
BLACK
6
CONTINUOUS
10
39.1541969999999964
20
-108.7417420000000021
11
39.2494349999999983
21
-108.3607899999999944
0
LINE
8
BLACK
6
CONTINUOUS
10
39.2494349999999983
20
-108.3607899999999944
11
39.3446730000000002
21
-108.1703139999999905
0
LINE
8
BLACK
6
CONTINUOUS
10
39.3446730000000002
20
-108.1703139999999905
11
39.4399109999999951
21
-108.0750759999999957
0
LINE
8
BLACK
6
CONTINUOUS
10
39.4399109999999951
20
-108.0750759999999957
11
39.6303869999999989
21
-107.9798380000000009
0
LINE
8
BLACK
6
CONTINUOUS
10
41.1541969999999964
20
-109.9798380000000009
11
41.1541969999999964
21
-108.6465039999999931
0
LINE
8
BLACK
6
CONTINUOUS
10
41.1541969999999964
20
-108.8369799999999969
11
41.2494349999999983
21
-108.7417420000000021
0
LINE
8
BLACK
6
CONTINUOUS
10
41.2494349999999983
20
-108.7417420000000021
11
41.4399109999999951
21
-108.6465039999999931
0
LINE
8
BLACK
6
CONTINUOUS
10
41.4399109999999951
20
-108.6465039999999931
11
41.7256259999999983
21
-108.6465039999999931
0
LINE
8
BLACK
6
CONTINUOUS
10
41.7256259999999983
20
-108.6465039999999931
11
41.9161019999999951
21
-108.7417420000000021
0
LINE
8
BLACK
6
CONTINUOUS
10
41.9161019999999951
20
-108.7417420000000021
11
42.011339999999997
21
-108.9322189999999893
0
LINE
8
BLACK
6
CONTINUOUS
10
42.011339999999997
20
-108.9322189999999893
11
42.011339999999997
21
-109.9798380000000009
0
LINE
8
BLACK
6
CONTINUOUS
10
42.011339999999997
20
-108.9322189999999893
11
42.106577999999999
21
-108.7417420000000021
0
LINE
8
BLACK
6
CONTINUOUS
10
42.106577999999999
20
-108.7417420000000021
11
42.2970539999999957
21
-108.6465039999999931
0
LINE
8
BLACK
6
CONTINUOUS
10
42.2970539999999957
20
-108.6465039999999931
11
42.5827680000000015
21
-108.6465039999999931
0
LINE
8
BLACK
6
CONTINUOUS
10
42.5827680000000015
20
-108.6465039999999931
11
42.7732449999999957
21
-108.7417420000000021
0
LINE
8
BLACK
6
CONTINUOUS
10
42.7732449999999957
20
-108.7417420000000021
11
42.8684829999999977
21
-108.9322189999999893
0
LINE
8
BLACK
6
CONTINUOUS
10
42.8684829999999977
20
-108.9322189999999893
11
42.8684829999999977
21
-109.9798380000000009
0
LINE
8
BLACK
6
CONTINUOUS
10
43.8208640000000003
20
-109.9798380000000009
11
43.8208640000000003
21
-108.6465039999999931
0
LINE
8
BLACK
6
CONTINUOUS
10
43.8208640000000003
20
-108.8369799999999969
11
43.9161019999999951
21
-108.7417420000000021
0
LINE
8
BLACK
6
CONTINUOUS
10
43.9161019999999951
20
-108.7417420000000021
11
44.106577999999999
21
-108.6465039999999931
0
LINE
8
BLACK
6
CONTINUOUS
10
44.106577999999999
20
-108.6465039999999931
11
44.3922929999999951
21
-108.6465039999999931
0
LINE
8
BLACK
6
CONTINUOUS
10
44.3922929999999951
20
-108.6465039999999931
11
44.582768999999999
21
-108.7417420000000021
0
LINE
8
BLACK
6
CONTINUOUS
10
44.582768999999999
20
-108.7417420000000021
11
44.6780070000000009
21
-108.9322189999999893
0
LINE
8
BLACK
6
CONTINUOUS
10
44.6780070000000009
20
-108.9322189999999893
11
44.6780070000000009
21
-109.9798380000000009
0
LINE
8
BLACK
6
CONTINUOUS
10
44.6780070000000009
20
-108.9322189999999893
11
44.7732449999999957
21
-108.7417420000000021
0
LINE
8
BLACK
6
CONTINUOUS
10
44.7732449999999957
20
-108.7417420000000021
11
44.9637209999999996
21
-108.6465039999999931
0
LINE
8
BLACK
6
CONTINUOUS
10
44.9637209999999996
20
-108.6465039999999931
11
45.2494349999999983
21
-108.6465039999999931
0
LINE
8
BLACK
6
CONTINUOUS
10
45.2494349999999983
20
-108.6465039999999931
11
45.4399119999999996
21
-108.7417420000000021
0
LINE
8
BLACK
6
CONTINUOUS
10
45.4399119999999996
20
-108.7417420000000021
11
45.5351499999999945
21
-108.9322189999999893
0
LINE
8
BLACK
6
CONTINUOUS
10
45.5351499999999945
20
-108.9322189999999893
11
45.5351499999999945
21
-109.9798380000000009
0
LINE
8
BLACK
6
CONTINUOUS
10
49.4399119999999996
20
-107.8845999999999918
11
47.7256269999999958
21
-110.4560279999999892
0
LINE
8
BLACK
6
CONTINUOUS
10
52.0113409999999945
20
-107.9798380000000009
11
52.2018179999999958
21
-107.9798380000000009
0
LINE
8
BLACK
6
CONTINUOUS
10
52.2018179999999958
20
-107.9798380000000009
11
52.3922939999999997
21
-108.0750759999999957
0
LINE
8
BLACK
6
CONTINUOUS
10
52.3922939999999997
20
-108.0750759999999957
11
52.4875319999999945
21
-108.1703139999999905
0
LINE
8
BLACK
6
CONTINUOUS
10
52.4875319999999945
20
-108.1703139999999905
11
52.5827699999999965
21
-108.3607899999999944
0
LINE
8
BLACK
6
CONTINUOUS
10
52.5827699999999965
20
-108.3607899999999944
11
52.6780079999999984
21
-108.7417420000000021
0
LINE
8
BLACK
6
CONTINUOUS
10
52.6780079999999984
20
-108.7417420000000021
11
52.6780079999999984
21
-109.2179330000000022
0
LINE
8
BLACK
6
CONTINUOUS
10
52.6780079999999984
20
-109.2179330000000022
11
52.5827699999999965
21
-109.5988849999999957
0
LINE
8
BLACK
6
CONTINUOUS
10
52.5827699999999965
20
-109.5988849999999957
11
52.4875319999999945
21
-109.7893609999999995
0
LINE
8
BLACK
6
CONTINUOUS
10
52.4875319999999945
20
-109.7893609999999995
11
52.3922939999999997
21
-109.8845999999999918
0
LINE
8
BLACK
6
CONTINUOUS
10
52.3922939999999997
20
-109.8845999999999918
11
52.2018179999999958
21
-109.9798380000000009
0
LINE
8
BLACK
6
CONTINUOUS
10
52.2018179999999958
20
-109.9798380000000009
11
52.0113409999999945
21
-109.9798380000000009
0
LINE
8
BLACK
6
CONTINUOUS
10
52.0113409999999945
20
-109.9798380000000009
11
51.8208649999999977
21
-109.8845999999999918
0
LINE
8
BLACK
6
CONTINUOUS
10
51.8208649999999977
20
-109.8845999999999918
11
51.7256269999999958
21
-109.7893609999999995
0
LINE
8
BLACK
6
CONTINUOUS
10
51.7256269999999958
20
-109.7893609999999995
11
51.630389000000001
21
-109.5988849999999957
0
LINE
8
BLACK
6
CONTINUOUS
10
51.630389000000001
20
-109.5988849999999957
11
51.535150999999999
21
-109.2179330000000022
0
LINE
8
BLACK
6
CONTINUOUS
10
51.535150999999999
20
-109.2179330000000022
11
51.535150999999999
21
-108.7417420000000021
0
LINE
8
BLACK
6
CONTINUOUS
10
51.535150999999999
20
-108.7417420000000021
11
51.630389000000001
21
-108.3607899999999944
0
LINE
8
BLACK
6
CONTINUOUS
10
51.630389000000001
20
-108.3607899999999944
11
51.7256269999999958
21
-108.1703139999999905
0
LINE
8
BLACK
6
CONTINUOUS
10
51.7256269999999958
20
-108.1703139999999905
11
51.8208649999999977
21
-108.0750759999999957
0
LINE
8
BLACK
6
CONTINUOUS
10
51.8208649999999977
20
-108.0750759999999957
11
52.0113409999999945
21
-107.9798380000000009
0
LINE
8
BLACK
6
CONTINUOUS
10
53.535150999999999
20
-109.7893609999999995
11
53.630389000000001
21
-109.8845999999999918
0
LINE
8
BLACK
6
CONTINUOUS
10
53.630389000000001
20
-109.8845999999999918
11
53.535150999999999
21
-109.9798380000000009
0
LINE
8
BLACK
6
CONTINUOUS
10
53.535150999999999
20
-109.9798380000000009
11
53.4399129999999971
21
-109.8845999999999918
0
LINE
8
BLACK
6
CONTINUOUS
10
53.4399129999999971
20
-109.8845999999999918
11
53.535150999999999
21
-109.7893609999999995
0
LINE
8
BLACK
6
CONTINUOUS
10
53.535150999999999
20
-109.7893609999999995
11
53.535150999999999
21
-109.9798380000000009
0
LINE
8
BLACK
6
CONTINUOUS
10
54.8684839999999951
20
-107.9798380000000009
11
55.0589609999999965
21
-107.9798380000000009
0
LINE
8
BLACK
6
CONTINUOUS
10
55.0589609999999965
20
-107.9798380000000009
11
55.2494370000000004
21
-108.0750759999999957
0
LINE
8
BLACK
6
CONTINUOUS
10
55.2494370000000004
20
-108.0750759999999957
11
55.3446749999999952
21
-108.1703139999999905
0
LINE
8
BLACK
6
CONTINUOUS
10
55.3446749999999952
20
-108.1703139999999905
11
55.4399129999999971
21
-108.3607899999999944
0
LINE
8
BLACK
6
CONTINUOUS
10
55.4399129999999971
20
-108.3607899999999944
11
55.535150999999999
21
-108.7417420000000021
0
LINE
8
BLACK
6
CONTINUOUS
10
55.535150999999999
20
-108.7417420000000021
11
55.535150999999999
21
-109.2179330000000022
0
LINE
8
BLACK
6
CONTINUOUS
10
55.535150999999999
20
-109.2179330000000022
11
55.4399129999999971
21
-109.5988849999999957
0
LINE
8
BLACK
6
CONTINUOUS
10
55.4399129999999971
20
-109.5988849999999957
11
55.3446749999999952
21
-109.7893609999999995
0
LINE
8
BLACK
6
CONTINUOUS
10
55.3446749999999952
20
-109.7893609999999995
11
55.2494370000000004
21
-109.8845999999999918
0
LINE
8
BLACK
6
CONTINUOUS
10
55.2494370000000004
20
-109.8845999999999918
11
55.0589609999999965
21
-109.9798380000000009
0
LINE
8
BLACK
6
CONTINUOUS
10
55.0589609999999965
20
-109.9798380000000009
11
54.8684839999999951
21
-109.9798380000000009
0
LINE
8
BLACK
6
CONTINUOUS
10
54.8684839999999951
20
-109.9798380000000009
11
54.6780079999999984
21
-109.8845999999999918
0
LINE
8
BLACK
6
CONTINUOUS
10
54.6780079999999984
20
-109.8845999999999918
11
54.5827699999999965
21
-109.7893609999999995
0
LINE
8
BLACK
6
CONTINUOUS
10
54.5827699999999965
20
-109.7893609999999995
11
54.4875319999999945
21
-109.5988849999999957
0
LINE
8
BLACK
6
CONTINUOUS
10
54.4875319999999945
20
-109.5988849999999957
11
54.3922939999999997
21
-109.2179330000000022
0
LINE
8
BLACK
6
CONTINUOUS
10
54.3922939999999997
20
-109.2179330000000022
11
54.3922939999999997
21
-108.7417420000000021
0
LINE
8
BLACK
6
CONTINUOUS
10
54.3922939999999997
20
-108.7417420000000021
11
54.4875319999999945
21
-108.3607899999999944
0
LINE
8
BLACK
6
CONTINUOUS
10
54.4875319999999945
20
-108.3607899999999944
11
54.5827699999999965
21
-108.1703139999999905
0
LINE
8
BLACK
6
CONTINUOUS
10
54.5827699999999965
20
-108.1703139999999905
11
54.6780079999999984
21
-108.0750759999999957
0
LINE
8
BLACK
6
CONTINUOUS
10
54.6780079999999984
20
-108.0750759999999957
11
54.8684839999999951
21
-107.9798380000000009
0
LINE
8
BLACK
6
CONTINUOUS
10
56.2970559999999978
20
-108.1703139999999905
11
56.3922939999999997
21
-108.0750759999999957
0
LINE
8
BLACK
6
CONTINUOUS
10
56.3922939999999997
20
-108.0750759999999957
11
56.5827699999999965
21
-107.9798380000000009
0
LINE
8
BLACK
6
CONTINUOUS
10
56.5827699999999965
20
-107.9798380000000009
11
57.0589609999999965
21
-107.9798380000000009
0
LINE
8
BLACK
6
CONTINUOUS
10
57.0589609999999965
20
-107.9798380000000009
11
57.2494370000000004
21
-108.0750759999999957
0
LINE
8
BLACK
6
CONTINUOUS
10
57.2494370000000004
20
-108.0750759999999957
11
57.3446749999999952
21
-108.1703139999999905
0
LINE
8
BLACK
6
CONTINUOUS
10
57.3446749999999952
20
-108.1703139999999905
11
57.4399129999999971
21
-108.3607899999999944
0
LINE
8
BLACK
6
CONTINUOUS
10
57.4399129999999971
20
-108.3607899999999944
11
57.4399129999999971
21
-108.5512659999999983
0
LINE
8
BLACK
6
CONTINUOUS
10
57.4399129999999971
20
-108.5512659999999983
11
57.3446749999999952
21
-108.8369799999999969
0
LINE
8
BLACK
6
CONTINUOUS
10
57.3446749999999952
20
-108.8369799999999969
11
56.2018179999999958
21
-109.9798380000000009
0
LINE
8
BLACK
6
CONTINUOUS
10
56.2018179999999958
20
-109.9798380000000009
11
57.4399129999999971
21
-109.9798380000000009
0
LINE
8
BLACK
6
CONTINUOUS
10
58.1065799999999939
20
-107.9798380000000009
11
59.3446749999999952
21
-107.9798380000000009
0
LINE
8
BLACK
6
CONTINUOUS
10
59.3446749999999952
20
-107.9798380000000009
11
58.6780079999999984
21
-108.7417420000000021
0
LINE
8
BLACK
6
CONTINUOUS
10
58.6780079999999984
20
-108.7417420000000021
11
58.9637229999999946
21
-108.7417420000000021
0
LINE
8
BLACK
6
CONTINUOUS
10
58.9637229999999946
20
-108.7417420000000021
11
59.1541989999999984
21
-108.8369799999999969
0
LINE
8
BLACK
6
CONTINUOUS
10
59.1541989999999984
20
-108.8369799999999969
11
59.2494370000000004
21
-108.9322189999999893
0
LINE
8
BLACK
6
CONTINUOUS
10
59.2494370000000004
20
-108.9322189999999893
11
59.3446749999999952
21
-109.1226949999999931
0
LINE
8
BLACK
6
CONTINUOUS
10
59.3446749999999952
20
-109.1226949999999931
11
59.3446749999999952
21
-109.5988849999999957
0
LINE
8
BLACK
6
CONTINUOUS
10
59.3446749999999952
20
-109.5988849999999957
11
59.2494370000000004
21
-109.7893609999999995
0
LINE
8
BLACK
6
CONTINUOUS
10
59.2494370000000004
20
-109.7893609999999995
11
59.1541989999999984
21
-109.8845999999999918
0
LINE
8
BLACK
6
CONTINUOUS
10
59.1541989999999984
20
-109.8845999999999918
11
58.9637229999999946
21
-109.9798380000000009
0
LINE
8
BLACK
6
CONTINUOUS
10
58.9637229999999946
20
-109.9798380000000009
11
58.3922939999999997
21
-109.9798380000000009
0
LINE
8
BLACK
6
CONTINUOUS
10
58.3922939999999997
20
-109.9798380000000009
11
58.2018179999999958
21
-109.8845999999999918
0
LINE
8
BLACK
6
CONTINUOUS
10
58.2018179999999958
20
-109.8845999999999918
11
58.1065799999999939
21
-109.7893609999999995
0
LINE
8
BLACK
6
CONTINUOUS
10
61.0589609999999965
20
-107.9798380000000009
11
60.6780079999999984
21
-107.9798380000000009
0
LINE
8
BLACK
6
CONTINUOUS
10
60.6780079999999984
20
-107.9798380000000009
11
60.4875319999999945
21
-108.0750759999999957
0
LINE
8
BLACK
6
CONTINUOUS
10
60.4875319999999945
20
-108.0750759999999957
11
60.3922939999999997
21
-108.1703139999999905
0
LINE
8
BLACK
6
CONTINUOUS
10
60.3922939999999997
20
-108.1703139999999905
11
60.2018179999999958
21
-108.4560279999999892
0
LINE
8
BLACK
6
CONTINUOUS
10
60.2018179999999958
20
-108.4560279999999892
11
60.1065799999999939
21
-108.8369799999999969
0
LINE
8
BLACK
6
CONTINUOUS
10
60.1065799999999939
20
-108.8369799999999969
11
60.1065799999999939
21
-109.5988849999999957
0
LINE
8
BLACK
6
CONTINUOUS
10
60.1065799999999939
20
-109.5988849999999957
11
60.2018179999999958
21
-109.7893609999999995
0
LINE
8
BLACK
6
CONTINUOUS
10
60.2018179999999958
20
-109.7893609999999995
11
60.2970559999999978
21
-109.8845999999999918
0
LINE
8
BLACK
6
CONTINUOUS
10
60.2970559999999978
20
-109.8845999999999918
11
60.4875319999999945
21
-109.9798380000000009
0
LINE
8
BLACK
6
CONTINUOUS
10
60.4875319999999945
20
-109.9798380000000009
11
60.8684849999999997
21
-109.9798380000000009
0
LINE
8
BLACK
6
CONTINUOUS
10
60.8684849999999997
20
-109.9798380000000009
11
61.0589609999999965
21
-109.8845999999999918
0
LINE
8
BLACK
6
CONTINUOUS
10
61.0589609999999965
20
-109.8845999999999918
11
61.1541989999999984
21
-109.7893609999999995
0
LINE
8
BLACK
6
CONTINUOUS
10
61.1541989999999984
20
-109.7893609999999995
11
61.2494370000000004
21
-109.5988849999999957
0
LINE
8
BLACK
6
CONTINUOUS
10
61.2494370000000004
20
-109.5988849999999957
11
61.2494370000000004
21
-109.1226949999999931
0
LINE
8
BLACK
6
CONTINUOUS
10
61.2494370000000004
20
-109.1226949999999931
11
61.1541989999999984
21
-108.9322189999999893
0
LINE
8
BLACK
6
CONTINUOUS
10
61.1541989999999984
20
-108.9322189999999893
11
61.0589609999999965
21
-108.8369799999999969
0
LINE
8
BLACK
6
CONTINUOUS
10
61.0589609999999965
20
-108.8369799999999969
11
60.8684849999999997
21
-108.7417420000000021
0
LINE
8
BLACK
6
CONTINUOUS
10
60.8684849999999997
20
-108.7417420000000021
11
60.4875319999999945
21
-108.7417420000000021
0
LINE
8
BLACK
6
CONTINUOUS
10
60.4875319999999945
20
-108.7417420000000021
11
60.2970559999999978
21
-108.8369799999999969
0
LINE
8
BLACK
6
CONTINUOUS
10
60.2970559999999978
20
-108.8369799999999969
11
60.2018179999999958
21
-108.9322189999999893
0
LINE
8
BLACK
6
CONTINUOUS
10
60.2018179999999958
20
-108.9322189999999893
11
60.1065799999999939
21
-109.1226949999999931
0
LINE
8
BLACK
6
CONTINUOUS
10
62.0113419999999991
20
-107.9798380000000009
11
62.0113419999999991
21
-108.3607899999999944
0
LINE
8
BLACK
6
CONTINUOUS
10
62.7732469999999978
20
-107.9798380000000009
11
62.7732469999999978
21
-108.3607899999999944
0
LINE
8
BLACK
6
CONTINUOUS
10
65.7256289999999979
20
-110.7417419999999879
11
65.6303899999999913
21
-110.6465039999999931
0
LINE
8
BLACK
6
CONTINUOUS
10
65.6303899999999913
20
-110.6465039999999931
11
65.4399140000000017
21
-110.3607899999999944
0
LINE
8
BLACK
6
CONTINUOUS
10
65.4399140000000017
20
-110.3607899999999944
11
65.3446759999999927
21
-110.1703139999999905
0
LINE
8
BLACK
6
CONTINUOUS
10
65.3446759999999927
20
-110.1703139999999905
11
65.2494379999999978
21
-109.8845999999999918
0
LINE
8
BLACK
6
CONTINUOUS
10
65.2494379999999978
20
-109.8845999999999918
11
65.154200000000003
21
-109.4084089999999918
0
LINE
8
BLACK
6
CONTINUOUS
10
65.154200000000003
20
-109.4084089999999918
11
65.154200000000003
21
-109.0274569999999983
0
LINE
8
BLACK
6
CONTINUOUS
10
65.154200000000003
20
-109.0274569999999983
11
65.2494379999999978
21
-108.5512659999999983
0
LINE
8
BLACK
6
CONTINUOUS
10
65.2494379999999978
20
-108.5512659999999983
11
65.3446759999999927
21
-108.2655519999999996
0
LINE
8
BLACK
6
CONTINUOUS
10
65.3446759999999927
20
-108.2655519999999996
11
65.4399140000000017
21
-108.0750759999999957
0
LINE
8
BLACK
6
CONTINUOUS
10
65.4399140000000017
20
-108.0750759999999957
11
65.6303899999999913
21
-107.7893609999999995
0
LINE
8
BLACK
6
CONTINUOUS
10
65.6303899999999913
20
-107.7893609999999995
11
65.7256289999999979
21
-107.6941229999999905
0
LINE
8
BLACK
6
CONTINUOUS
10
66.8684849999999926
20
-107.9798380000000009
11
67.058961999999994
21
-107.9798380000000009
0
LINE
8
BLACK
6
CONTINUOUS
10
67.058961999999994
20
-107.9798380000000009
11
67.2494379999999978
21
-108.0750759999999957
0
LINE
8
BLACK
6
CONTINUOUS
10
67.2494379999999978
20
-108.0750759999999957
11
67.3446759999999927
21
-108.1703139999999905
0
LINE
8
BLACK
6
CONTINUOUS
10
67.3446759999999927
20
-108.1703139999999905
11
67.4399140000000017
21
-108.3607899999999944
0
LINE
8
BLACK
6
CONTINUOUS
10
67.4399140000000017
20
-108.3607899999999944
11
67.5351519999999965
21
-108.7417420000000021
0
LINE
8
BLACK
6
CONTINUOUS
10
67.5351519999999965
20
-108.7417420000000021
11
67.5351519999999965
21
-109.2179330000000022
0
LINE
8
BLACK
6
CONTINUOUS
10
67.5351519999999965
20
-109.2179330000000022
11
67.4399140000000017
21
-109.5988849999999957
0
LINE
8
BLACK
6
CONTINUOUS
10
67.4399140000000017
20
-109.5988849999999957
11
67.3446759999999927
21
-109.7893609999999995
0
LINE
8
BLACK
6
CONTINUOUS
10
67.3446759999999927
20
-109.7893609999999995
11
67.2494379999999978
21
-109.8845999999999918
0
LINE
8
BLACK
6
CONTINUOUS
10
67.2494379999999978
20
-109.8845999999999918
11
67.058961999999994
21
-109.9798380000000009
0
LINE
8
BLACK
6
CONTINUOUS
10
67.058961999999994
20
-109.9798380000000009
11
66.8684849999999926
21
-109.9798380000000009
0
LINE
8
BLACK
6
CONTINUOUS
10
66.8684849999999926
20
-109.9798380000000009
11
66.678009000000003
21
-109.8845999999999918
0
LINE
8
BLACK
6
CONTINUOUS
10
66.678009000000003
20
-109.8845999999999918
11
66.5827709999999939
21
-109.7893609999999995
0
LINE
8
BLACK
6
CONTINUOUS
10
66.5827709999999939
20
-109.7893609999999995
11
66.4875329999999991
21
-109.5988849999999957
0
LINE
8
BLACK
6
CONTINUOUS
10
66.4875329999999991
20
-109.5988849999999957
11
66.3922949999999901
21
-109.2179330000000022
0
LINE
8
BLACK
6
CONTINUOUS
10
66.3922949999999901
20
-109.2179330000000022
11
66.3922949999999901
21
-108.7417420000000021
0
LINE
8
BLACK
6
CONTINUOUS
10
66.3922949999999901
20
-108.7417420000000021
11
66.4875329999999991
21
-108.3607899999999944
0
LINE
8
BLACK
6
CONTINUOUS
10
66.4875329999999991
20
-108.3607899999999944
11
66.5827709999999939
21
-108.1703139999999905
0
LINE
8
BLACK
6
CONTINUOUS
10
66.5827709999999939
20
-108.1703139999999905
11
66.678009000000003
21
-108.0750759999999957
0
LINE
8
BLACK
6
CONTINUOUS
10
66.678009000000003
20
-108.0750759999999957
11
66.8684849999999926
21
-107.9798380000000009
0
LINE
8
BLACK
6
CONTINUOUS
10
69.9161050000000017
20
-109.9798380000000009
11
69.9161050000000017
21
-107.9798380000000009
0
LINE
8
BLACK
6
CONTINUOUS
10
70.7732479999999953
20
-109.9798380000000009
11
70.7732479999999953
21
-108.9322189999999893
0
LINE
8
BLACK
6
CONTINUOUS
10
70.7732479999999953
20
-108.9322189999999893
11
70.6780100000000004
21
-108.7417420000000021
0
LINE
8
BLACK
6
CONTINUOUS
10
70.6780100000000004
20
-108.7417420000000021
11
70.4875339999999966
21
-108.6465039999999931
0
LINE
8
BLACK
6
CONTINUOUS
10
70.4875339999999966
20
-108.6465039999999931
11
70.2018190000000004
21
-108.6465039999999931
0
LINE
8
BLACK
6
CONTINUOUS
10
70.2018190000000004
20
-108.6465039999999931
11
70.0113429999999966
21
-108.7417420000000021
0
LINE
8
BLACK
6
CONTINUOUS
10
70.0113429999999966
20
-108.7417420000000021
11
69.9161050000000017
21
-108.8369799999999969
0
LINE
8
BLACK
6
CONTINUOUS
10
72.0113429999999966
20
-109.9798380000000009
11
71.8208669999999927
21
-109.8845999999999918
0
LINE
8
BLACK
6
CONTINUOUS
10
71.8208669999999927
20
-109.8845999999999918
11
71.7256289999999979
21
-109.7893609999999995
0
LINE
8
BLACK
6
CONTINUOUS
10
71.7256289999999979
20
-109.7893609999999995
11
71.630391000000003
21
-109.5988849999999957
0
LINE
8
BLACK
6
CONTINUOUS
10
71.630391000000003
20
-109.5988849999999957
11
71.630391000000003
21
-109.0274569999999983
0
LINE
8
BLACK
6
CONTINUOUS
10
71.630391000000003
20
-109.0274569999999983
11
71.7256289999999979
21
-108.8369799999999969
0
LINE
8
BLACK
6
CONTINUOUS
10
71.7256289999999979
20
-108.8369799999999969
11
71.8208669999999927
21
-108.7417420000000021
0
LINE
8
BLACK
6
CONTINUOUS
10
71.8208669999999927
20
-108.7417420000000021
11
72.0113429999999966
21
-108.6465039999999931
0
LINE
8
BLACK
6
CONTINUOUS
10
72.0113429999999966
20
-108.6465039999999931
11
72.2970579999999927
21
-108.6465039999999931
0
LINE
8
BLACK
6
CONTINUOUS
10
72.2970579999999927
20
-108.6465039999999931
11
72.4875339999999966
21
-108.7417420000000021
0
LINE
8
BLACK
6
CONTINUOUS
10
72.4875339999999966
20
-108.7417420000000021
11
72.5827719999999914
21
-108.8369799999999969
0
LINE
8
BLACK
6
CONTINUOUS
10
72.5827719999999914
20
-108.8369799999999969
11
72.6780100000000004
21
-109.0274569999999983
0
LINE
8
BLACK
6
CONTINUOUS
10
72.6780100000000004
20
-109.0274569999999983
11
72.6780100000000004
21
-109.5988849999999957
0
LINE
8
BLACK
6
CONTINUOUS
10
72.6780100000000004
20
-109.5988849999999957
11
72.5827719999999914
21
-109.7893609999999995
0
LINE
8
BLACK
6
CONTINUOUS
10
72.5827719999999914
20
-109.7893609999999995
11
72.4875339999999966
21
-109.8845999999999918
0
LINE
8
BLACK
6
CONTINUOUS
10
72.4875339999999966
20
-109.8845999999999918
11
72.2970579999999927
21
-109.9798380000000009
0
LINE
8
BLACK
6
CONTINUOUS
10
72.2970579999999927
20
-109.9798380000000009
11
72.0113429999999966
21
-109.9798380000000009
0
LINE
8
BLACK
6
CONTINUOUS
10
73.8208669999999927
20
-109.9798380000000009
11
73.630391000000003
21
-109.8845999999999918
0
LINE
8
BLACK
6
CONTINUOUS
10
73.630391000000003
20
-109.8845999999999918
11
73.535152999999994
21
-109.6941229999999905
0
LINE
8
BLACK
6
CONTINUOUS
10
73.535152999999994
20
-109.6941229999999905
11
73.535152999999994
21
-107.9798380000000009
0
LINE
8
BLACK
6
CONTINUOUS
10
75.3446769999999901
20
-109.8845999999999918
11
75.1542010000000005
21
-109.9798380000000009
0
LINE
8
BLACK
6
CONTINUOUS
10
75.1542010000000005
20
-109.9798380000000009
11
74.7732479999999953
21
-109.9798380000000009
0
LINE
8
BLACK
6
CONTINUOUS
10
74.7732479999999953
20
-109.9798380000000009
11
74.5827719999999914
21
-109.8845999999999918
0
LINE
8
BLACK
6
CONTINUOUS
10
74.5827719999999914
20
-109.8845999999999918
11
74.4875339999999966
21
-109.6941229999999905
0
LINE
8
BLACK
6
CONTINUOUS
10
74.4875339999999966
20
-109.6941229999999905
11
74.4875339999999966
21
-108.9322189999999893
0
LINE
8
BLACK
6
CONTINUOUS
10
74.4875339999999966
20
-108.9322189999999893
11
74.5827719999999914
21
-108.7417420000000021
0
LINE
8
BLACK
6
CONTINUOUS
10
74.5827719999999914
20
-108.7417420000000021
11
74.7732479999999953
21
-108.6465039999999931
0
LINE
8
BLACK
6
CONTINUOUS
10
74.7732479999999953
20
-108.6465039999999931
11
75.1542010000000005
21
-108.6465039999999931
0
LINE
8
BLACK
6
CONTINUOUS
10
75.1542010000000005
20
-108.6465039999999931
11
75.3446769999999901
21
-108.7417420000000021
0
LINE
8
BLACK
6
CONTINUOUS
10
75.3446769999999901
20
-108.7417420000000021
11
75.4399149999999992
21
-108.9322189999999893
0
LINE
8
BLACK
6
CONTINUOUS
10
75.4399149999999992
20
-108.9322189999999893
11
75.4399149999999992
21
-109.1226949999999931
0
LINE
8
BLACK
6
CONTINUOUS
10
75.4399149999999992
20
-109.1226949999999931
11
74.4875339999999966
21
-109.313170999999997
0
LINE
8
BLACK
6
CONTINUOUS
10
76.2018199999999979
20
-109.8845999999999918
11
76.3922960000000018
21
-109.9798380000000009
0
LINE
8
BLACK
6
CONTINUOUS
10
76.3922960000000018
20
-109.9798380000000009
11
76.7732479999999953
21
-109.9798380000000009
0
LINE
8
BLACK
6
CONTINUOUS
10
76.7732479999999953
20
-109.9798380000000009
11
76.9637249999999966
21
-109.8845999999999918
0
LINE
8
BLACK
6
CONTINUOUS
10
76.9637249999999966
20
-109.8845999999999918
11
77.0589629999999914
21
-109.6941229999999905
0
LINE
8
BLACK
6
CONTINUOUS
10
77.0589629999999914
20
-109.6941229999999905
11
77.0589629999999914
21
-109.5988849999999957
0
LINE
8
BLACK
6
CONTINUOUS
10
77.0589629999999914
20
-109.5988849999999957
11
76.9637249999999966
21
-109.4084089999999918
0
LINE
8
BLACK
6
CONTINUOUS
10
76.9637249999999966
20
-109.4084089999999918
11
76.7732479999999953
21
-109.313170999999997
0
LINE
8
BLACK
6
CONTINUOUS
10
76.7732479999999953
20
-109.313170999999997
11
76.4875339999999966
21
-109.313170999999997
0
LINE
8
BLACK
6
CONTINUOUS
10
76.4875339999999966
20
-109.313170999999997
11
76.2970579999999927
21
-109.2179330000000022
0
LINE
8
BLACK
6
CONTINUOUS
10
76.2970579999999927
20
-109.2179330000000022
11
76.2018199999999979
21
-109.0274569999999983
0
LINE
8
BLACK
6
CONTINUOUS
10
76.2018199999999979
20
-109.0274569999999983
11
76.2018199999999979
21
-108.9322189999999893
0
LINE
8
BLACK
6
CONTINUOUS
10
76.2018199999999979
20
-108.9322189999999893
11
76.2970579999999927
21
-108.7417420000000021
0
LINE
8
BLACK
6
CONTINUOUS
10
76.2970579999999927
20
-108.7417420000000021
11
76.4875339999999966
21
-108.6465039999999931
0
LINE
8
BLACK
6
CONTINUOUS
10
76.4875339999999966
20
-108.6465039999999931
11
76.7732479999999953
21
-108.6465039999999931
0
LINE
8
BLACK
6
CONTINUOUS
10
76.7732479999999953
20
-108.6465039999999931
11
76.9637249999999966
21
-108.7417420000000021
0
LINE
8
BLACK
6
CONTINUOUS
10
79.4399159999999966
20
-109.2179330000000022
11
80.9637259999999941
21
-109.2179330000000022
0
LINE
8
BLACK
6
CONTINUOUS
10
80.2018209999999954
20
-109.9798380000000009
11
80.2018209999999954
21
-108.4560279999999892
0
LINE
8
BLACK
6
CONTINUOUS
10
84.2970589999999902
20
-108.6465039999999931
11
84.2970589999999902
21
-109.9798380000000009
0
LINE
8
BLACK
6
CONTINUOUS
10
83.8208679999999902
20
-107.8845999999999918
11
83.3446780000000018
21
-109.313170999999997
0
LINE
8
BLACK
6
CONTINUOUS
10
83.3446780000000018
20
-109.313170999999997
11
84.5827730000000031
21
-109.313170999999997
0
LINE
8
BLACK
6
CONTINUOUS
10
86.7732499999999902
20
-109.8845999999999918
11
86.9637259999999941
21
-109.9798380000000009
0
LINE
8
BLACK
6
CONTINUOUS
10
86.9637259999999941
20
-109.9798380000000009
11
87.3446780000000018
21
-109.9798380000000009
0
LINE
8
BLACK
6
CONTINUOUS
10
87.3446780000000018
20
-109.9798380000000009
11
87.5351549999999889
21
-109.8845999999999918
0
LINE
8
BLACK
6
CONTINUOUS
10
87.5351549999999889
20
-109.8845999999999918
11
87.630392999999998
21
-109.6941229999999905
0
LINE
8
BLACK
6
CONTINUOUS
10
87.630392999999998
20
-109.6941229999999905
11
87.630392999999998
21
-109.5988849999999957
0
LINE
8
BLACK
6
CONTINUOUS
10
87.630392999999998
20
-109.5988849999999957
11
87.5351549999999889
21
-109.4084089999999918
0
LINE
8
BLACK
6
CONTINUOUS
10
87.5351549999999889
20
-109.4084089999999918
11
87.3446780000000018
21
-109.313170999999997
0
LINE
8
BLACK
6
CONTINUOUS
10
87.3446780000000018
20
-109.313170999999997
11
87.0589640000000031
21
-109.313170999999997
0
LINE
8
BLACK
6
CONTINUOUS
10
87.0589640000000031
20
-109.313170999999997
11
86.8684879999999993
21
-109.2179330000000022
0
LINE
8
BLACK
6
CONTINUOUS
10
86.8684879999999993
20
-109.2179330000000022
11
86.7732499999999902
21
-109.0274569999999983
0
LINE
8
BLACK
6
CONTINUOUS
10
86.7732499999999902
20
-109.0274569999999983
11
86.7732499999999902
21
-108.9322189999999893
0
LINE
8
BLACK
6
CONTINUOUS
10
86.7732499999999902
20
-108.9322189999999893
11
86.8684879999999993
21
-108.7417420000000021
0
LINE
8
BLACK
6
CONTINUOUS
10
86.8684879999999993
20
-108.7417420000000021
11
87.0589640000000031
21
-108.6465039999999931
0
LINE
8
BLACK
6
CONTINUOUS
10
87.0589640000000031
20
-108.6465039999999931
11
87.3446780000000018
21
-108.6465039999999931
0
LINE
8
BLACK
6
CONTINUOUS
10
87.3446780000000018
20
-108.6465039999999931
11
87.5351549999999889
21
-108.7417420000000021
0
LINE
8
BLACK
6
CONTINUOUS
10
88.7732499999999902
20
-109.9798380000000009
11
88.5827740000000006
21
-109.8845999999999918
0
LINE
8
BLACK
6
CONTINUOUS
10
88.5827740000000006
20
-109.8845999999999918
11
88.4875359999999915
21
-109.6941229999999905
0
LINE
8
BLACK
6
CONTINUOUS
10
88.4875359999999915
20
-109.6941229999999905
11
88.4875359999999915
21
-107.9798380000000009
0
LINE
8
BLACK
6
CONTINUOUS
10
89.8208690000000018
20
-109.9798380000000009
11
89.630392999999998
21
-109.8845999999999918
0
LINE
8
BLACK
6
CONTINUOUS
10
89.630392999999998
20
-109.8845999999999918
11
89.5351549999999889
21
-109.7893609999999995
0
LINE
8
BLACK
6
CONTINUOUS
10
89.5351549999999889
20
-109.7893609999999995
11
89.4399169999999941
21
-109.5988849999999957
0
LINE
8
BLACK
6
CONTINUOUS
10
89.4399169999999941
20
-109.5988849999999957
11
89.4399169999999941
21
-109.0274569999999983
0
LINE
8
BLACK
6
CONTINUOUS
10
89.4399169999999941
20
-109.0274569999999983
11
89.5351549999999889
21
-108.8369799999999969
0
LINE
8
BLACK
6
CONTINUOUS
10
89.5351549999999889
20
-108.8369799999999969
11
89.630392999999998
21
-108.7417420000000021
0
LINE
8
BLACK
6
CONTINUOUS
10
89.630392999999998
20
-108.7417420000000021
11
89.8208690000000018
21
-108.6465039999999931
0
LINE
8
BLACK
6
CONTINUOUS
10
89.8208690000000018
20
-108.6465039999999931
11
90.106583999999998
21
-108.6465039999999931
0
LINE
8
BLACK
6
CONTINUOUS
10
90.106583999999998
20
-108.6465039999999931
11
90.2970600000000019
21
-108.7417420000000021
0
LINE
8
BLACK
6
CONTINUOUS
10
90.2970600000000019
20
-108.7417420000000021
11
90.3922979999999967
21
-108.8369799999999969
0
LINE
8
BLACK
6
CONTINUOUS
10
90.3922979999999967
20
-108.8369799999999969
11
90.4875359999999915
21
-109.0274569999999983
0
LINE
8
BLACK
6
CONTINUOUS
10
90.4875359999999915
20
-109.0274569999999983
11
90.4875359999999915
21
-109.5988849999999957
0
LINE
8
BLACK
6
CONTINUOUS
10
90.4875359999999915
20
-109.5988849999999957
11
90.3922979999999967
21
-109.7893609999999995
0
LINE
8
BLACK
6
CONTINUOUS
10
90.3922979999999967
20
-109.7893609999999995
11
90.2970600000000019
21
-109.8845999999999918
0
LINE
8
BLACK
6
CONTINUOUS
10
90.2970600000000019
20
-109.8845999999999918
11
90.106583999999998
21
-109.9798380000000009
0
LINE
8
BLACK
6
CONTINUOUS
10
90.106583999999998
20
-109.9798380000000009
11
89.8208690000000018
21
-109.9798380000000009
0
LINE
8
BLACK
6
CONTINUOUS
10
91.0589650000000006
20
-108.6465039999999931
11
91.8208690000000018
21
-108.6465039999999931
0
LINE
8
BLACK
6
CONTINUOUS
10
91.3446789999999993
20
-107.9798380000000009
11
91.3446789999999993
21
-109.6941229999999905
0
LINE
8
BLACK
6
CONTINUOUS
10
91.3446789999999993
20
-109.6941229999999905
11
91.4399169999999941
21
-109.8845999999999918
0
LINE
8
BLACK
6
CONTINUOUS
10
91.4399169999999941
20
-109.8845999999999918
11
91.630392999999998
21
-109.9798380000000009
0
LINE
8
BLACK
6
CONTINUOUS
10
91.630392999999998
20
-109.9798380000000009
11
91.8208690000000018
21
-109.9798380000000009
0
LINE
8
BLACK
6
CONTINUOUS
10
92.3922979999999967
20
-109.8845999999999918
11
92.5827740000000006
21
-109.9798380000000009
0
LINE
8
BLACK
6
CONTINUOUS
10
92.5827740000000006
20
-109.9798380000000009
11
92.9637259999999941
21
-109.9798380000000009
0
LINE
8
BLACK
6
CONTINUOUS
10
92.9637259999999941
20
-109.9798380000000009
11
93.1542029999999954
21
-109.8845999999999918
0
LINE
8
BLACK
6
CONTINUOUS
10
93.1542029999999954
20
-109.8845999999999918
11
93.2494409999999903
21
-109.6941229999999905
0
LINE
8
BLACK
6
CONTINUOUS
10
93.2494409999999903
20
-109.6941229999999905
11
93.2494409999999903
21
-109.5988849999999957
0
LINE
8
BLACK
6
CONTINUOUS
10
93.2494409999999903
20
-109.5988849999999957
11
93.1542029999999954
21
-109.4084089999999918
0
LINE
8
BLACK
6
CONTINUOUS
10
93.1542029999999954
20
-109.4084089999999918
11
92.9637259999999941
21
-109.313170999999997
0
LINE
8
BLACK
6
CONTINUOUS
10
92.9637259999999941
20
-109.313170999999997
11
92.6780119999999954
21
-109.313170999999997
0
LINE
8
BLACK
6
CONTINUOUS
10
92.6780119999999954
20
-109.313170999999997
11
92.4875359999999915
21
-109.2179330000000022
0
LINE
8
BLACK
6
CONTINUOUS
10
92.4875359999999915
20
-109.2179330000000022
11
92.3922979999999967
21
-109.0274569999999983
0
LINE
8
BLACK
6
CONTINUOUS
10
92.3922979999999967
20
-109.0274569999999983
11
92.3922979999999967
21
-108.9322189999999893
0
LINE
8
BLACK
6
CONTINUOUS
10
92.3922979999999967
20
-108.9322189999999893
11
92.4875359999999915
21
-108.7417420000000021
0
LINE
8
BLACK
6
CONTINUOUS
10
92.4875359999999915
20
-108.7417420000000021
11
92.6780119999999954
21
-108.6465039999999931
0
LINE
8
BLACK
6
CONTINUOUS
10
92.6780119999999954
20
-108.6465039999999931
11
92.9637259999999941
21
-108.6465039999999931
0
LINE
8
BLACK
6
CONTINUOUS
10
92.9637259999999941
20
-108.6465039999999931
11
93.1542029999999954
21
-108.7417420000000021
0
LINE
8
BLACK
6
CONTINUOUS
10
93.9161079999999941
20
-110.7417419999999879
11
94.011345999999989
21
-110.6465039999999931
0
LINE
8
BLACK
6
CONTINUOUS
10
94.011345999999989
20
-110.6465039999999931
11
94.2018219999999928
21
-110.3607899999999944
0
LINE
8
BLACK
6
CONTINUOUS
10
94.2018219999999928
20
-110.3607899999999944
11
94.2970600000000019
21
-110.1703139999999905
0
LINE
8
BLACK
6
CONTINUOUS
10
94.2970600000000019
20
-110.1703139999999905
11
94.3922979999999967
21
-109.8845999999999918
0
LINE
8
BLACK
6
CONTINUOUS
10
94.3922979999999967
20
-109.8845999999999918
11
94.4875359999999915
21
-109.4084089999999918
0
LINE
8
BLACK
6
CONTINUOUS
10
94.4875359999999915
20
-109.4084089999999918
11
94.4875359999999915
21
-109.0274569999999983
0
LINE
8
BLACK
6
CONTINUOUS
10
94.4875359999999915
20
-109.0274569999999983
11
94.3922979999999967
21
-108.5512659999999983
0
LINE
8
BLACK
6
CONTINUOUS
10
94.3922979999999967
20
-108.5512659999999983
11
94.2970600000000019
21
-108.2655519999999996
0
LINE
8
BLACK
6
CONTINUOUS
10
94.2970600000000019
20
-108.2655519999999996
11
94.2018219999999928
21
-108.0750759999999957
0
LINE
8
BLACK
6
CONTINUOUS
10
94.2018219999999928
20
-108.0750759999999957
11
94.011345999999989
21
-107.7893609999999995
0
LINE
8
BLACK
6
CONTINUOUS
10
94.011345999999989
20
-107.7893609999999995
11
93.9161079999999941
21
-107.6941229999999905
  0
ENDSEC
  0
EOF
