%TF.GenerationSoftware,KiCad,Pcbnew,8.0.2-1*%
%TF.CreationDate,2025-02-11T08:26:35-08:00*%
%TF.ProjectId,Small_Pendant,536d616c-6c5f-4506-956e-64616e742e6b,rev?*%
%TF.SameCoordinates,Original*%
%TF.FileFunction,Soldermask,Bot*%
%TF.FilePolarity,Negative*%
%FSLAX46Y46*%
G04 Gerber Fmt 4.6, Leading zero omitted, Abs format (unit mm)*
G04 Created by KiCad (PCBNEW 8.0.2-1) date 2025-02-11 08:26:35*
%MOMM*%
%LPD*%
G01*
G04 APERTURE LIST*
G04 Aperture macros list*
%AMRoundRect*
0 Rectangle with rounded corners*
0 $1 Rounding radius*
0 $2 $3 $4 $5 $6 $7 $8 $9 X,Y pos of 4 corners*
0 Add a 4 corners polygon primitive as box body*
4,1,4,$2,$3,$4,$5,$6,$7,$8,$9,$2,$3,0*
0 Add four circle primitives for the rounded corners*
1,1,$1+$1,$2,$3*
1,1,$1+$1,$4,$5*
1,1,$1+$1,$6,$7*
1,1,$1+$1,$8,$9*
0 Add four rect primitives between the rounded corners*
20,1,$1+$1,$2,$3,$4,$5,0*
20,1,$1+$1,$4,$5,$6,$7,0*
20,1,$1+$1,$6,$7,$8,$9,0*
20,1,$1+$1,$8,$9,$2,$3,0*%
G04 Aperture macros list end*
%ADD10RoundRect,0.140000X-0.140000X-0.170000X0.140000X-0.170000X0.140000X0.170000X-0.140000X0.170000X0*%
%ADD11RoundRect,0.140000X0.140000X0.170000X-0.140000X0.170000X-0.140000X-0.170000X0.140000X-0.170000X0*%
%ADD12RoundRect,0.140000X0.170000X-0.140000X0.170000X0.140000X-0.170000X0.140000X-0.170000X-0.140000X0*%
%ADD13R,1.700000X1.700000*%
%ADD14O,1.700000X1.700000*%
G04 APERTURE END LIST*
D10*
%TO.C,C18*%
X57020000Y-42500000D03*
X57980000Y-42500000D03*
%TD*%
%TO.C,C17*%
X58520000Y-44000000D03*
X59480000Y-44000000D03*
%TD*%
%TO.C,C4*%
X40520000Y-44000000D03*
X41480000Y-44000000D03*
%TD*%
D11*
%TO.C,C1*%
X47480000Y-39500000D03*
X46520000Y-39500000D03*
%TD*%
D12*
%TO.C,C5*%
X39500000Y-47480000D03*
X39500000Y-46520000D03*
%TD*%
D11*
%TO.C,C3*%
X42980000Y-42500000D03*
X42020000Y-42500000D03*
%TD*%
D10*
%TO.C,C8*%
X42020000Y-57500000D03*
X42980000Y-57500000D03*
%TD*%
%TO.C,C14*%
X58520000Y-56000000D03*
X59480000Y-56000000D03*
%TD*%
%TO.C,C12*%
X55520000Y-59000000D03*
X56480000Y-59000000D03*
%TD*%
D11*
%TO.C,C11*%
X53480000Y-60500000D03*
X52520000Y-60500000D03*
%TD*%
D12*
%TO.C,C16*%
X60500000Y-47480000D03*
X60500000Y-46520000D03*
%TD*%
D10*
%TO.C,C20*%
X52520000Y-39500000D03*
X53480000Y-39500000D03*
%TD*%
D11*
%TO.C,C9*%
X44480000Y-59000000D03*
X43520000Y-59000000D03*
%TD*%
D10*
%TO.C,C2*%
X43520000Y-41000000D03*
X44480000Y-41000000D03*
%TD*%
D11*
%TO.C,C13*%
X57980000Y-57500000D03*
X57020000Y-57500000D03*
%TD*%
D12*
%TO.C,C15*%
X60500000Y-53480000D03*
X60500000Y-52520000D03*
%TD*%
D13*
%TO.C,J1*%
X52540000Y-36200000D03*
D14*
X50000000Y-36200000D03*
X47460000Y-36200000D03*
%TD*%
D10*
%TO.C,C10*%
X46520000Y-60500000D03*
X47480000Y-60500000D03*
%TD*%
D11*
%TO.C,C7*%
X41480000Y-56000000D03*
X40520000Y-56000000D03*
%TD*%
%TO.C,C19*%
X56480000Y-41000000D03*
X55520000Y-41000000D03*
%TD*%
D12*
%TO.C,C6*%
X39500000Y-53480000D03*
X39500000Y-52520000D03*
%TD*%
M02*
