%TF.GenerationSoftware,KiCad,Pcbnew,8.0.2-1*%
%TF.CreationDate,2025-05-16T10:32:14-07:00*%
%TF.ProjectId,Small_Pendant,536d616c-6c5f-4506-956e-64616e742e6b,rev?*%
%TF.SameCoordinates,Original*%
%TF.FileFunction,Soldermask,Bot*%
%TF.FilePolarity,Negative*%
%FSLAX46Y46*%
G04 Gerber Fmt 4.6, Leading zero omitted, Abs format (unit mm)*
G04 Created by KiCad (PCBNEW 8.0.2-1) date 2025-05-16 10:32:14*
%MOMM*%
%LPD*%
G01*
G04 APERTURE LIST*
G04 Aperture macros list*
%AMRoundRect*
0 Rectangle with rounded corners*
0 $1 Rounding radius*
0 $2 $3 $4 $5 $6 $7 $8 $9 X,Y pos of 4 corners*
0 Add a 4 corners polygon primitive as box body*
4,1,4,$2,$3,$4,$5,$6,$7,$8,$9,$2,$3,0*
0 Add four circle primitives for the rounded corners*
1,1,$1+$1,$2,$3*
1,1,$1+$1,$4,$5*
1,1,$1+$1,$6,$7*
1,1,$1+$1,$8,$9*
0 Add four rect primitives between the rounded corners*
20,1,$1+$1,$2,$3,$4,$5,0*
20,1,$1+$1,$4,$5,$6,$7,0*
20,1,$1+$1,$6,$7,$8,$9,0*
20,1,$1+$1,$8,$9,$2,$3,0*%
%AMFreePoly0*
4,1,14,0.765355,0.765355,0.780000,0.730000,0.780000,-0.720000,0.765355,-0.755355,0.730000,-0.770000,-0.120000,-0.770000,-0.155355,-0.755355,-0.755355,-0.155355,-0.770000,-0.120000,-0.770000,0.730000,-0.755355,0.765355,-0.720000,0.780000,0.730000,0.780000,0.765355,0.765355,0.765355,0.765355,$1*%
G04 Aperture macros list end*
%ADD10C,0.700000*%
%ADD11C,0.650000*%
%ADD12O,1.000000X2.100000*%
%ADD13O,1.000000X1.600000*%
%ADD14C,0.500000*%
%ADD15RoundRect,0.140000X-0.140000X-0.170000X0.140000X-0.170000X0.140000X0.170000X-0.140000X0.170000X0*%
%ADD16RoundRect,0.135000X-0.185000X0.135000X-0.185000X-0.135000X0.185000X-0.135000X0.185000X0.135000X0*%
%ADD17R,0.800000X0.400000*%
%ADD18R,0.400000X0.800000*%
%ADD19R,1.450000X1.450000*%
%ADD20FreePoly0,180.000000*%
%ADD21R,0.700000X0.700000*%
%ADD22C,2.000000*%
%ADD23RoundRect,0.140000X0.140000X0.170000X-0.140000X0.170000X-0.140000X-0.170000X0.140000X-0.170000X0*%
%ADD24R,0.620000X1.100000*%
%ADD25R,0.500000X0.500000*%
%ADD26RoundRect,0.185000X0.185000X-0.915000X0.185000X0.915000X-0.185000X0.915000X-0.185000X-0.915000X0*%
%ADD27RoundRect,0.190000X0.190000X1.060000X-0.190000X1.060000X-0.190000X-1.060000X0.190000X-1.060000X0*%
%ADD28RoundRect,0.185000X-0.185000X1.115000X-0.185000X-1.115000X0.185000X-1.115000X0.185000X1.115000X0*%
%ADD29RoundRect,0.185000X-0.185000X0.915000X-0.185000X-0.915000X0.185000X-0.915000X0.185000X0.915000X0*%
%ADD30RoundRect,0.135000X0.185000X-0.135000X0.185000X0.135000X-0.185000X0.135000X-0.185000X-0.135000X0*%
%ADD31R,0.200000X0.350000*%
%ADD32RoundRect,0.135000X0.135000X0.185000X-0.135000X0.185000X-0.135000X-0.185000X0.135000X-0.185000X0*%
G04 APERTURE END LIST*
D10*
%TO.C,SW2*%
X94200000Y-61300000D03*
X96000000Y-61300000D03*
%TD*%
D11*
%TO.C,J1*%
X82110000Y-73090000D03*
X87890000Y-73090000D03*
D12*
X80680000Y-72590000D03*
X89320000Y-72590000D03*
D13*
X89320000Y-76770000D03*
X80680000Y-76770000D03*
%TD*%
D14*
%TO.C,mouse-bite-2mm-slot*%
X39919289Y-55979949D03*
X40431942Y-55431942D03*
X40979949Y-54919289D03*
%TD*%
%TO.C,mouse-bite-2mm-slot*%
X40979949Y-75080711D03*
X40431942Y-74568058D03*
X39919289Y-74020051D03*
%TD*%
D10*
%TO.C,SW3*%
X96000000Y-68700000D03*
X94200000Y-68700000D03*
%TD*%
D14*
%TO.C,mouse-bite-2mm-slot*%
X95080711Y-74020051D03*
X94568058Y-74568058D03*
X94020051Y-75080711D03*
%TD*%
%TO.C,mouse-bite-2mm-slot*%
X60080711Y-74020051D03*
X59568058Y-74568058D03*
X59020051Y-75080711D03*
%TD*%
%TO.C,mouse-bite-2mm-slot*%
X74919289Y-55979949D03*
X75431942Y-55431942D03*
X75979949Y-54919289D03*
%TD*%
%TO.C,mouse-bite-2mm-slot*%
X75979949Y-75080711D03*
X75431942Y-74568058D03*
X74919289Y-74020051D03*
%TD*%
%TO.C,mouse-bite-2mm-slot*%
X94020051Y-54919289D03*
X94568058Y-55431942D03*
X95080711Y-55979949D03*
%TD*%
%TO.C,mouse-bite-2mm-slot*%
X59020051Y-54919289D03*
X59568058Y-55431942D03*
X60080711Y-55979949D03*
%TD*%
D10*
%TO.C,SW1*%
X76200000Y-65000000D03*
X74400000Y-65000000D03*
%TD*%
D15*
%TO.C,C20*%
X40520000Y-59000000D03*
X41480000Y-59000000D03*
%TD*%
D16*
%TO.C,R12*%
X79400000Y-73090000D03*
X79400000Y-74110000D03*
%TD*%
D17*
%TO.C,U1*%
X90900000Y-61000000D03*
X90900000Y-61800000D03*
X90900000Y-62600000D03*
X90900000Y-63400000D03*
X90900000Y-64200000D03*
X90900000Y-65000000D03*
X90900000Y-65800000D03*
X90900000Y-66600000D03*
X90900000Y-67400000D03*
X90900000Y-68200000D03*
X90900000Y-69000000D03*
D18*
X89800000Y-69900000D03*
X89000000Y-69900000D03*
X88200000Y-69900000D03*
X87400000Y-69900000D03*
X86600000Y-69900000D03*
X85800000Y-69900000D03*
X85000000Y-69900000D03*
X84200000Y-69900000D03*
X83400000Y-69900000D03*
X82600000Y-69900000D03*
X81800000Y-69900000D03*
X81000000Y-69900000D03*
X80200000Y-69900000D03*
D17*
X79100000Y-69000000D03*
X79100000Y-68200000D03*
X79100000Y-67400000D03*
X79100000Y-66600000D03*
X79100000Y-65800000D03*
X79100000Y-65000000D03*
X79100000Y-64200000D03*
X79100000Y-63400000D03*
X79100000Y-62600000D03*
X79100000Y-61800000D03*
X79100000Y-61000000D03*
D18*
X80200000Y-60100000D03*
X81000000Y-60100000D03*
X81800000Y-60100000D03*
X82600000Y-60100000D03*
X83400000Y-60100000D03*
X84200000Y-60100000D03*
X85000000Y-60100000D03*
X85800000Y-60100000D03*
X86600000Y-60100000D03*
X87400000Y-60100000D03*
X88200000Y-60100000D03*
X89000000Y-60100000D03*
X89800000Y-60100000D03*
D19*
X83030000Y-63030000D03*
X83030000Y-65000000D03*
X83030000Y-66980000D03*
X85000000Y-63030000D03*
X85000000Y-65000000D03*
X85000000Y-66980000D03*
D20*
X86980000Y-63020000D03*
D19*
X86980000Y-65000000D03*
X86980000Y-66980000D03*
D21*
X79050000Y-60050000D03*
X79050000Y-69950000D03*
X90950000Y-69950000D03*
X90950000Y-60050000D03*
%TD*%
D22*
%TO.C,REF\u002A\u002A*%
X34000000Y-96000000D03*
%TD*%
D23*
%TO.C,C17*%
X47480000Y-54500000D03*
X46520000Y-54500000D03*
%TD*%
D15*
%TO.C,C21*%
X40520000Y-71000000D03*
X41480000Y-71000000D03*
%TD*%
D23*
%TO.C,C28*%
X51980000Y-54500000D03*
X51020000Y-54500000D03*
%TD*%
D24*
%TO.C,U2*%
X84050000Y-74200000D03*
X85000000Y-74200000D03*
X85950000Y-74200000D03*
X85950000Y-76800000D03*
X84050000Y-76800000D03*
%TD*%
D25*
%TO.C,TP3*%
X95100000Y-71900000D03*
%TD*%
D15*
%TO.C,C16*%
X87270000Y-71990000D03*
X88230000Y-71990000D03*
%TD*%
%TO.C,C27*%
X55520000Y-56000000D03*
X56480000Y-56000000D03*
%TD*%
D26*
%TO.C,J2*%
X76330000Y-59000000D03*
X76330000Y-62600000D03*
X75070000Y-59000000D03*
X75070000Y-62600000D03*
%TD*%
D22*
%TO.C,REF\u002A\u002A*%
X101000000Y-96000000D03*
%TD*%
D23*
%TO.C,C22*%
X42980000Y-72500000D03*
X42020000Y-72500000D03*
%TD*%
%TO.C,C15*%
X82730000Y-71990000D03*
X81770000Y-71990000D03*
%TD*%
D27*
%TO.C,J7*%
X42000000Y-67250000D03*
X42000000Y-62750000D03*
X40730000Y-67250000D03*
X40730000Y-62750000D03*
X39460000Y-67250000D03*
X39460000Y-62750000D03*
X38190000Y-67250000D03*
X38190000Y-62750000D03*
%TD*%
D23*
%TO.C,C25*%
X53480000Y-75500000D03*
X52520000Y-75500000D03*
%TD*%
D25*
%TO.C,TP4*%
X96100000Y-70500000D03*
%TD*%
D22*
%TO.C,REF\u002A\u002A*%
X34000000Y-34000000D03*
%TD*%
D25*
%TO.C,TP5*%
X94100000Y-73300000D03*
%TD*%
%TO.C,TP2*%
X72900000Y-65400000D03*
%TD*%
D28*
%TO.C,J5*%
X58670000Y-58900000D03*
X58670000Y-62700000D03*
X59930000Y-58900000D03*
X59930000Y-62700000D03*
%TD*%
D23*
%TO.C,C19*%
X42980000Y-57500000D03*
X42020000Y-57500000D03*
%TD*%
D29*
%TO.C,J4*%
X93000000Y-63200000D03*
X93000000Y-66800000D03*
X94270000Y-63200000D03*
X94270000Y-66800000D03*
X95530000Y-63200000D03*
X95530000Y-66800000D03*
X96800000Y-63200000D03*
X96800000Y-66800000D03*
%TD*%
D23*
%TO.C,C9*%
X82780000Y-76900000D03*
X81820000Y-76900000D03*
%TD*%
%TO.C,C24*%
X47480000Y-75500000D03*
X46520000Y-75500000D03*
%TD*%
D30*
%TO.C,R7*%
X87300000Y-75410000D03*
X87300000Y-74390000D03*
%TD*%
D26*
%TO.C,J3*%
X76330000Y-71000000D03*
X76330000Y-67400000D03*
X75070000Y-71000000D03*
X75070000Y-67400000D03*
%TD*%
D15*
%TO.C,C18*%
X43520000Y-56000000D03*
X44480000Y-56000000D03*
%TD*%
D22*
%TO.C,REF\u002A\u002A*%
X101000000Y-34000000D03*
%TD*%
D31*
%TO.C,D2*%
X86800000Y-73100000D03*
X86340000Y-73100000D03*
%TD*%
D15*
%TO.C,C23*%
X43520000Y-74000000D03*
X44480000Y-74000000D03*
%TD*%
%TO.C,C26*%
X55520000Y-74000000D03*
X56480000Y-74000000D03*
%TD*%
D25*
%TO.C,TP1*%
X72900000Y-64500000D03*
%TD*%
D32*
%TO.C,R13*%
X56510000Y-57500000D03*
X55490000Y-57500000D03*
%TD*%
D28*
%TO.C,J6*%
X58670000Y-67300000D03*
X58670000Y-71100000D03*
X59930000Y-67300000D03*
X59930000Y-71100000D03*
%TD*%
D23*
%TO.C,C8*%
X82780000Y-74500000D03*
X81820000Y-74500000D03*
%TD*%
M02*
