%TF.GenerationSoftware,KiCad,Pcbnew,8.0.2-1*%
%TF.CreationDate,2025-04-11T08:42:29-07:00*%
%TF.ProjectId,Small_Pendant,536d616c-6c5f-4506-956e-64616e742e6b,rev?*%
%TF.SameCoordinates,Original*%
%TF.FileFunction,Copper,L4,Bot*%
%TF.FilePolarity,Positive*%
%FSLAX46Y46*%
G04 Gerber Fmt 4.6, Leading zero omitted, Abs format (unit mm)*
G04 Created by KiCad (PCBNEW 8.0.2-1) date 2025-04-11 08:42:29*
%MOMM*%
%LPD*%
G01*
G04 APERTURE LIST*
G04 Aperture macros list*
%AMRoundRect*
0 Rectangle with rounded corners*
0 $1 Rounding radius*
0 $2 $3 $4 $5 $6 $7 $8 $9 X,Y pos of 4 corners*
0 Add a 4 corners polygon primitive as box body*
4,1,4,$2,$3,$4,$5,$6,$7,$8,$9,$2,$3,0*
0 Add four circle primitives for the rounded corners*
1,1,$1+$1,$2,$3*
1,1,$1+$1,$4,$5*
1,1,$1+$1,$6,$7*
1,1,$1+$1,$8,$9*
0 Add four rect primitives between the rounded corners*
20,1,$1+$1,$2,$3,$4,$5,0*
20,1,$1+$1,$4,$5,$6,$7,0*
20,1,$1+$1,$6,$7,$8,$9,0*
20,1,$1+$1,$8,$9,$2,$3,0*%
%AMFreePoly0*
4,1,14,0.765355,0.765355,0.780000,0.730000,0.780000,-0.720000,0.765355,-0.755355,0.730000,-0.770000,-0.120000,-0.770000,-0.155355,-0.755355,-0.755355,-0.155355,-0.770000,-0.120000,-0.770000,0.730000,-0.755355,0.765355,-0.720000,0.780000,0.730000,0.780000,0.765355,0.765355,0.765355,0.765355,$1*%
G04 Aperture macros list end*
%TA.AperFunction,Conductor*%
%ADD10C,0.200000*%
%TD*%
%TA.AperFunction,ComponentPad*%
%ADD11O,1.000000X2.100000*%
%TD*%
%TA.AperFunction,ComponentPad*%
%ADD12O,1.000000X1.600000*%
%TD*%
%TA.AperFunction,SMDPad,CuDef*%
%ADD13RoundRect,0.140000X-0.140000X-0.170000X0.140000X-0.170000X0.140000X0.170000X-0.140000X0.170000X0*%
%TD*%
%TA.AperFunction,SMDPad,CuDef*%
%ADD14RoundRect,0.135000X0.135000X0.185000X-0.135000X0.185000X-0.135000X-0.185000X0.135000X-0.185000X0*%
%TD*%
%TA.AperFunction,SMDPad,CuDef*%
%ADD15R,0.800000X0.400000*%
%TD*%
%TA.AperFunction,SMDPad,CuDef*%
%ADD16R,0.400000X0.800000*%
%TD*%
%TA.AperFunction,SMDPad,CuDef*%
%ADD17R,1.450000X1.450000*%
%TD*%
%TA.AperFunction,SMDPad,CuDef*%
%ADD18FreePoly0,180.000000*%
%TD*%
%TA.AperFunction,SMDPad,CuDef*%
%ADD19R,0.700000X0.700000*%
%TD*%
%TA.AperFunction,SMDPad,CuDef*%
%ADD20RoundRect,0.140000X0.140000X0.170000X-0.140000X0.170000X-0.140000X-0.170000X0.140000X-0.170000X0*%
%TD*%
%TA.AperFunction,SMDPad,CuDef*%
%ADD21R,0.620000X1.100000*%
%TD*%
%TA.AperFunction,SMDPad,CuDef*%
%ADD22R,0.500000X0.500000*%
%TD*%
%TA.AperFunction,SMDPad,CuDef*%
%ADD23RoundRect,0.185000X0.185000X-0.915000X0.185000X0.915000X-0.185000X0.915000X-0.185000X-0.915000X0*%
%TD*%
%TA.AperFunction,SMDPad,CuDef*%
%ADD24RoundRect,0.190000X0.190000X1.060000X-0.190000X1.060000X-0.190000X-1.060000X0.190000X-1.060000X0*%
%TD*%
%TA.AperFunction,SMDPad,CuDef*%
%ADD25RoundRect,0.185000X-0.185000X1.115000X-0.185000X-1.115000X0.185000X-1.115000X0.185000X1.115000X0*%
%TD*%
%TA.AperFunction,SMDPad,CuDef*%
%ADD26RoundRect,0.185000X-0.185000X0.915000X-0.185000X-0.915000X0.185000X-0.915000X0.185000X0.915000X0*%
%TD*%
%TA.AperFunction,SMDPad,CuDef*%
%ADD27RoundRect,0.135000X0.185000X-0.135000X0.185000X0.135000X-0.185000X0.135000X-0.185000X-0.135000X0*%
%TD*%
%TA.AperFunction,SMDPad,CuDef*%
%ADD28R,0.200000X0.350000*%
%TD*%
%TA.AperFunction,ViaPad*%
%ADD29C,0.600000*%
%TD*%
%TA.AperFunction,Conductor*%
%ADD30C,0.500000*%
%TD*%
%TA.AperFunction,Conductor*%
%ADD31C,0.150000*%
%TD*%
%TA.AperFunction,Conductor*%
%ADD32C,0.250000*%
%TD*%
%TA.AperFunction,Conductor*%
%ADD33C,0.100000*%
%TD*%
G04 APERTURE END LIST*
D10*
%TO.N,Earth*%
X74900000Y-54000000D02*
X74200000Y-53300000D01*
X74900000Y-52600000D01*
X74900000Y-54000000D01*
%TA.AperFunction,Conductor*%
G36*
X74900000Y-54000000D02*
G01*
X74200000Y-53300000D01*
X74900000Y-52600000D01*
X74900000Y-54000000D01*
G37*
%TD.AperFunction*%
%TD*%
D11*
%TO.P,J1,S1,SHIELD*%
%TO.N,unconnected-(J1-SHIELD-PadS1)*%
X80680000Y-57590000D03*
%TO.P,J1,S2,SHIELD*%
%TO.N,unconnected-(J1-SHIELD-PadS2)*%
X89320000Y-57590000D03*
D12*
%TO.P,J1,S3,SHIELD*%
%TO.N,unconnected-(J1-SHIELD-PadS3)*%
X89320000Y-61770000D03*
%TO.P,J1,S4,SHIELD*%
%TO.N,unconnected-(J1-SHIELD-PadS4)*%
X80680000Y-61770000D03*
%TD*%
D13*
%TO.P,C20,1*%
%TO.N,+5VL*%
X40520000Y-44000000D03*
%TO.P,C20,2*%
%TO.N,GND*%
X41480000Y-44000000D03*
%TD*%
D14*
%TO.P,R12,1*%
%TO.N,Net-(J5-Pin_3)*%
X56510000Y-42500000D03*
%TO.P,R12,2*%
%TO.N,DATA_IN*%
X55490000Y-42500000D03*
%TD*%
D15*
%TO.P,U1,1,GND*%
%TO.N,Earth*%
X90900000Y-46000000D03*
%TO.P,U1,2,GND*%
X90900000Y-46800000D03*
%TO.P,U1,3,3V3*%
%TO.N,+3V3*%
X90900000Y-47600000D03*
%TO.P,U1,4,NC*%
%TO.N,unconnected-(U1-NC-Pad4)*%
X90900000Y-48400000D03*
%TO.P,U1,5,GPIO2/ADC1_CH2*%
%TO.N,SDA*%
X90900000Y-49200000D03*
%TO.P,U1,6,GPIO3/ADC1_CH3*%
%TO.N,SCL*%
X90900000Y-50000000D03*
%TO.P,U1,7,NC*%
%TO.N,unconnected-(U1-NC-Pad7)*%
X90900000Y-50800000D03*
%TO.P,U1,8,EN/CHIP_PU*%
%TO.N,CHIP_EN*%
X90900000Y-51600000D03*
%TO.P,U1,9,NC*%
%TO.N,unconnected-(U1-NC-Pad9)*%
X90900000Y-52400000D03*
%TO.P,U1,10,NC*%
%TO.N,unconnected-(U1-NC-Pad10)*%
X90900000Y-53200000D03*
%TO.P,U1,11,GND*%
%TO.N,Earth*%
X90900000Y-54000000D03*
D16*
%TO.P,U1,12,GPIO0/ADC1_CH0/XTAL_32K_P*%
%TO.N,USR_BTN*%
X89800000Y-54900000D03*
%TO.P,U1,13,GPIO1/ADC1_CH1/XTAL_32K_N*%
%TO.N,/MCU/LED_BUILTIN*%
X89000000Y-54900000D03*
%TO.P,U1,14,GND*%
%TO.N,Earth*%
X88200000Y-54900000D03*
%TO.P,U1,15,NC*%
%TO.N,unconnected-(U1-NC-Pad15)*%
X87400000Y-54900000D03*
%TO.P,U1,16,GPIO10*%
%TO.N,IMU_INT*%
X86600000Y-54900000D03*
%TO.P,U1,17,NC*%
%TO.N,unconnected-(U1-NC-Pad17)*%
X85800000Y-54900000D03*
%TO.P,U1,18,GPIO4/ADC1_CH4*%
%TO.N,unconnected-(U1-GPIO4{slash}ADC1_CH4-Pad18)*%
X85000000Y-54900000D03*
%TO.P,U1,19,GPIO5/ADC2_CH0*%
%TO.N,unconnected-(U1-GPIO5{slash}ADC2_CH0-Pad19)*%
X84200000Y-54900000D03*
%TO.P,U1,20,GPIO6*%
%TO.N,unconnected-(U1-GPIO6-Pad20)*%
X83400000Y-54900000D03*
%TO.P,U1,21,GPIO7*%
%TO.N,unconnected-(U1-GPIO7-Pad21)*%
X82600000Y-54900000D03*
%TO.P,U1,22,GPIO8*%
%TO.N,LED_DATA*%
X81800000Y-54900000D03*
%TO.P,U1,23,GPIO9*%
%TO.N,GPIO9{slash}BOOT*%
X81000000Y-54900000D03*
%TO.P,U1,24,NC*%
%TO.N,unconnected-(U1-NC-Pad24)*%
X80200000Y-54900000D03*
D15*
%TO.P,U1,25,NC*%
%TO.N,unconnected-(U1-NC-Pad25)*%
X79100000Y-54000000D03*
%TO.P,U1,26,GPIO18/USB_D-*%
%TO.N,/MCU/USB_D'-*%
X79100000Y-53200000D03*
%TO.P,U1,27,GPIO19/USB_D+*%
%TO.N,/MCU/USB_D'+*%
X79100000Y-52400000D03*
%TO.P,U1,28,NC*%
%TO.N,unconnected-(U1-NC-Pad28)*%
X79100000Y-51600000D03*
%TO.P,U1,29,NC*%
%TO.N,unconnected-(U1-NC-Pad29)*%
X79100000Y-50800000D03*
%TO.P,U1,30,GPIO20/U0RXD*%
%TO.N,Net-(U1-GPIO20{slash}U0RXD)*%
X79100000Y-50000000D03*
%TO.P,U1,31,GPIO21/U0TXD*%
%TO.N,Net-(U1-GPIO21{slash}U0TXD)*%
X79100000Y-49200000D03*
%TO.P,U1,32,NC*%
%TO.N,unconnected-(U1-NC-Pad32)*%
X79100000Y-48400000D03*
%TO.P,U1,33,NC*%
%TO.N,unconnected-(U1-NC-Pad33)*%
X79100000Y-47600000D03*
%TO.P,U1,34,NC*%
%TO.N,unconnected-(U1-NC-Pad34)*%
X79100000Y-46800000D03*
%TO.P,U1,35,NC*%
%TO.N,unconnected-(U1-NC-Pad35)*%
X79100000Y-46000000D03*
D16*
%TO.P,U1,36,GND*%
%TO.N,Earth*%
X80200000Y-45100000D03*
%TO.P,U1,37,GND*%
X81000000Y-45100000D03*
%TO.P,U1,38,GND*%
X81800000Y-45100000D03*
%TO.P,U1,39,GND*%
X82600000Y-45100000D03*
%TO.P,U1,40,GND*%
X83400000Y-45100000D03*
%TO.P,U1,41,GND*%
X84200000Y-45100000D03*
%TO.P,U1,42,GND*%
X85000000Y-45100000D03*
%TO.P,U1,43,GND*%
X85800000Y-45100000D03*
%TO.P,U1,44,GND*%
X86600000Y-45100000D03*
%TO.P,U1,45,GND*%
X87400000Y-45100000D03*
%TO.P,U1,46,GND*%
X88200000Y-45100000D03*
%TO.P,U1,47,GND*%
X89000000Y-45100000D03*
%TO.P,U1,48,GND*%
X89800000Y-45100000D03*
D17*
%TO.P,U1,49,GND*%
X83030000Y-48030000D03*
X83030000Y-50000000D03*
X83030000Y-51980000D03*
X85000000Y-48030000D03*
X85000000Y-50000000D03*
X85000000Y-51980000D03*
D18*
X86980000Y-48020000D03*
D17*
X86980000Y-50000000D03*
X86980000Y-51980000D03*
D19*
%TO.P,U1,50,GND*%
X79050000Y-45050000D03*
%TO.P,U1,51,GND*%
X79050000Y-54950000D03*
%TO.P,U1,52,GND*%
X90950000Y-54950000D03*
%TO.P,U1,53,GND*%
X90950000Y-45050000D03*
%TD*%
D20*
%TO.P,C17,1*%
%TO.N,+5VL*%
X47480000Y-39500000D03*
%TO.P,C17,2*%
%TO.N,GND*%
X46520000Y-39500000D03*
%TD*%
D13*
%TO.P,C21,1*%
%TO.N,+5VL*%
X40520000Y-56000000D03*
%TO.P,C21,2*%
%TO.N,GND*%
X41480000Y-56000000D03*
%TD*%
D20*
%TO.P,C28,1*%
%TO.N,+5VL*%
X51980000Y-39500000D03*
%TO.P,C28,2*%
%TO.N,GND*%
X51020000Y-39500000D03*
%TD*%
D21*
%TO.P,U2,1,VIN*%
%TO.N,+5V*%
X84050000Y-59200000D03*
%TO.P,U2,2,GND*%
%TO.N,Earth*%
X85000000Y-59200000D03*
%TO.P,U2,3,EN*%
%TO.N,Net-(U2-EN)*%
X85950000Y-59200000D03*
%TO.P,U2,4,NC*%
%TO.N,unconnected-(U2-NC-Pad4)*%
X85950000Y-61800000D03*
%TO.P,U2,5,VOUT*%
%TO.N,+3V3*%
X84050000Y-61800000D03*
%TD*%
D22*
%TO.P,TP3,1,1*%
%TO.N,+3V3*%
X95100000Y-56900000D03*
%TD*%
D13*
%TO.P,C16,1*%
%TO.N,+5V*%
X87270000Y-56990000D03*
%TO.P,C16,2*%
%TO.N,Earth*%
X88230000Y-56990000D03*
%TD*%
%TO.P,C27,1*%
%TO.N,+5VL*%
X55520000Y-41000000D03*
%TO.P,C27,2*%
%TO.N,GND*%
X56480000Y-41000000D03*
%TD*%
D23*
%TO.P,J2,1,Pin_1*%
%TO.N,+5V*%
X76330000Y-44000000D03*
%TO.P,J2,2,Pin_2*%
%TO.N,Earth*%
X76330000Y-47600000D03*
%TO.P,J2,3,Pin_3*%
%TO.N,LED_DATA_5V*%
X75070000Y-44000000D03*
%TO.P,J2,4,Pin_4*%
X75070000Y-47600000D03*
%TD*%
D20*
%TO.P,C22,1*%
%TO.N,+5VL*%
X42980000Y-57500000D03*
%TO.P,C22,2*%
%TO.N,GND*%
X42020000Y-57500000D03*
%TD*%
%TO.P,C15,1*%
%TO.N,+5V*%
X82730000Y-56990000D03*
%TO.P,C15,2*%
%TO.N,Earth*%
X81770000Y-56990000D03*
%TD*%
D24*
%TO.P,J7,1,Pin_1*%
%TO.N,+5VL*%
X42000000Y-52250000D03*
%TO.P,J7,2,Pin_2*%
X42000000Y-47750000D03*
%TO.P,J7,3,Pin_3*%
X40730000Y-52250000D03*
%TO.P,J7,4,Pin_4*%
X40730000Y-47750000D03*
%TO.P,J7,5,Pin_5*%
%TO.N,GND*%
X39460000Y-52250000D03*
%TO.P,J7,6,Pin_6*%
X39460000Y-47750000D03*
%TO.P,J7,7,Pin_7*%
X38190000Y-52250000D03*
%TO.P,J7,8,Pin_8*%
X38190000Y-47750000D03*
%TD*%
D20*
%TO.P,C25,1*%
%TO.N,+5VL*%
X53480000Y-60500000D03*
%TO.P,C25,2*%
%TO.N,GND*%
X52520000Y-60500000D03*
%TD*%
D22*
%TO.P,TP4,1,1*%
%TO.N,+5V*%
X96100000Y-55500000D03*
%TD*%
%TO.P,TP5,1,1*%
%TO.N,Earth*%
X94100000Y-58300000D03*
%TD*%
%TO.P,TP2,1,1*%
%TO.N,Net-(U1-GPIO20{slash}U0RXD)*%
X72900000Y-50400000D03*
%TD*%
D25*
%TO.P,J5,1,Pin_1*%
%TO.N,+5VL*%
X58670000Y-43900000D03*
%TO.P,J5,2,Pin_2*%
%TO.N,GND*%
X58670000Y-47700000D03*
%TO.P,J5,3,Pin_3*%
%TO.N,Net-(J5-Pin_3)*%
X59930000Y-43900000D03*
%TO.P,J5,4,Pin_4*%
X59930000Y-47700000D03*
%TD*%
D20*
%TO.P,C19,1*%
%TO.N,+5VL*%
X42980000Y-42500000D03*
%TO.P,C19,2*%
%TO.N,GND*%
X42020000Y-42500000D03*
%TD*%
D26*
%TO.P,J4,1,Pin_1*%
%TO.N,+5V*%
X93000000Y-48200000D03*
%TO.P,J4,2,Pin_2*%
X93000000Y-51800000D03*
%TO.P,J4,3,Pin_3*%
X94270000Y-48200000D03*
%TO.P,J4,4,Pin_4*%
X94270000Y-51800000D03*
%TO.P,J4,5,Pin_5*%
%TO.N,Earth*%
X95530000Y-48200000D03*
%TO.P,J4,6,Pin_6*%
X95530000Y-51800000D03*
%TO.P,J4,7,Pin_7*%
X96800000Y-48200000D03*
%TO.P,J4,8,Pin_8*%
X96800000Y-51800000D03*
%TD*%
D20*
%TO.P,C9,1*%
%TO.N,+3V3*%
X82780000Y-61900000D03*
%TO.P,C9,2*%
%TO.N,Earth*%
X81820000Y-61900000D03*
%TD*%
%TO.P,C24,1*%
%TO.N,+5VL*%
X47480000Y-60500000D03*
%TO.P,C24,2*%
%TO.N,GND*%
X46520000Y-60500000D03*
%TD*%
D27*
%TO.P,R7,1*%
%TO.N,+5V*%
X87300000Y-60410000D03*
%TO.P,R7,2*%
%TO.N,Net-(U2-EN)*%
X87300000Y-59390000D03*
%TD*%
D23*
%TO.P,J3,1,Pin_1*%
%TO.N,+5V*%
X76330000Y-56000000D03*
%TO.P,J3,2,Pin_2*%
X76330000Y-52400000D03*
%TO.P,J3,3,Pin_3*%
%TO.N,Earth*%
X75070000Y-56000000D03*
%TO.P,J3,4,Pin_4*%
X75070000Y-52400000D03*
%TD*%
D13*
%TO.P,C18,1*%
%TO.N,+5VL*%
X43520000Y-41000000D03*
%TO.P,C18,2*%
%TO.N,GND*%
X44480000Y-41000000D03*
%TD*%
D28*
%TO.P,D2,1,K*%
%TO.N,+5V*%
X86800000Y-58100000D03*
%TO.P,D2,2,A*%
%TO.N,Earth*%
X86340000Y-58100000D03*
%TD*%
D13*
%TO.P,C23,1*%
%TO.N,+5VL*%
X43520000Y-59000000D03*
%TO.P,C23,2*%
%TO.N,GND*%
X44480000Y-59000000D03*
%TD*%
%TO.P,C26,1*%
%TO.N,+5VL*%
X55520000Y-59000000D03*
%TO.P,C26,2*%
%TO.N,GND*%
X56480000Y-59000000D03*
%TD*%
D22*
%TO.P,TP1,1,1*%
%TO.N,Net-(U1-GPIO21{slash}U0TXD)*%
X72900000Y-49500000D03*
%TD*%
D25*
%TO.P,J6,1,Pin_1*%
%TO.N,+5VL*%
X58670000Y-52300000D03*
%TO.P,J6,2,Pin_2*%
X58670000Y-56100000D03*
%TO.P,J6,3,Pin_3*%
%TO.N,GND*%
X59930000Y-52300000D03*
%TO.P,J6,4,Pin_4*%
X59930000Y-56100000D03*
%TD*%
D20*
%TO.P,C8,1*%
%TO.N,+5V*%
X82780000Y-59500000D03*
%TO.P,C8,2*%
%TO.N,Earth*%
X81820000Y-59500000D03*
%TD*%
D29*
%TO.N,+5V*%
X76550000Y-43800000D03*
X82600000Y-56990000D03*
X76335000Y-56000000D03*
X94300000Y-49900000D03*
X87400000Y-56990000D03*
%TO.N,DATA_IN*%
X53325000Y-39925000D03*
%TO.N,Earth*%
X88200000Y-54900000D03*
X86975000Y-50000000D03*
X85000000Y-49200000D03*
X90950000Y-45050000D03*
X88200000Y-56990000D03*
X81820000Y-59500000D03*
X85000000Y-59062500D03*
X79050000Y-45050000D03*
X95335000Y-51800000D03*
X86000000Y-50000000D03*
X85000000Y-50800000D03*
X92300000Y-42920000D03*
X82700000Y-51000000D03*
X91200000Y-56300000D03*
X73820000Y-53100000D03*
X79050000Y-54950000D03*
X85680000Y-52700000D03*
X76335000Y-47600000D03*
X81800000Y-56990000D03*
X81820000Y-61900000D03*
X95335000Y-48200000D03*
X81500000Y-47800000D03*
X84000000Y-50000000D03*
X89000000Y-46200000D03*
%TO.N,/MCU/USB_D'-*%
X79100000Y-53200000D03*
%TO.N,/MCU/USB_D'+*%
X79100000Y-52400000D03*
%TO.N,+3V3*%
X92000000Y-52100000D03*
X76350000Y-45850000D03*
X89190000Y-47460000D03*
X88500000Y-49110000D03*
X81500000Y-48980000D03*
X94550000Y-54500000D03*
X84050000Y-61637500D03*
X90900000Y-47600000D03*
%TO.N,LED_DATA*%
X80600000Y-50000000D03*
%TO.N,USR_BTN*%
X89000000Y-53318199D03*
%TO.N,CHIP_EN*%
X92300000Y-43880000D03*
%TO.N,LED_DATA_5V*%
X74850000Y-43800000D03*
%TO.N,SDA*%
X88500000Y-48090000D03*
%TO.N,SCL*%
X89500000Y-49110000D03*
%TO.N,/MCU/LED_BUILTIN*%
X88800000Y-54100000D03*
%TO.N,IMU_INT*%
X87500000Y-53700000D03*
%TO.N,GPIO9{slash}BOOT*%
X78800000Y-57200000D03*
%TO.N,GND*%
X44425000Y-40575000D03*
X44425000Y-58575000D03*
X52575000Y-60925000D03*
X39075000Y-48925000D03*
X42075000Y-57925000D03*
X58575000Y-45925000D03*
X46575000Y-39925000D03*
X58575000Y-48925000D03*
X40575000Y-54925000D03*
X56425000Y-40575000D03*
X51075000Y-39925000D03*
X41425000Y-43575000D03*
X56425000Y-43575000D03*
X41425000Y-55575000D03*
X56425000Y-58575000D03*
X40575000Y-45925000D03*
X57075000Y-54925000D03*
X39075000Y-51925000D03*
X60075000Y-51925000D03*
X42075000Y-42925000D03*
X46575000Y-60925000D03*
%TO.N,+5VL*%
X53425000Y-60075000D03*
X42075000Y-50425000D03*
X40575000Y-44425000D03*
X43575000Y-59425000D03*
X47425000Y-39075000D03*
X58575000Y-50425000D03*
X58575000Y-56425000D03*
X47425000Y-60075000D03*
X43575000Y-41425000D03*
X51825000Y-39075000D03*
X58575000Y-44425000D03*
X55575000Y-41425000D03*
X40575000Y-53425000D03*
X40575000Y-47425000D03*
X40575000Y-56425000D03*
X42925000Y-57075000D03*
X58575000Y-53425000D03*
X57925000Y-42075000D03*
X55575000Y-59425000D03*
X57075000Y-47425000D03*
%TD*%
D30*
%TO.N,+5V*%
X76335000Y-56000000D02*
X76335000Y-52400000D01*
X84050000Y-59362500D02*
X84050000Y-58310000D01*
D10*
X86800000Y-58100000D02*
X87000000Y-58100000D01*
X95100000Y-54500000D02*
X95100000Y-53400000D01*
X82780000Y-59500000D02*
X83912500Y-59500000D01*
D30*
X92995000Y-51800000D02*
X92995000Y-48200000D01*
X94300000Y-49900000D02*
X94265000Y-49935000D01*
X84050000Y-58310000D02*
X82730000Y-56990000D01*
D10*
X87000000Y-58100000D02*
X87400000Y-57700000D01*
D30*
X94265000Y-49865000D02*
X94300000Y-49900000D01*
X76550000Y-43800000D02*
X76535000Y-43800000D01*
X76535000Y-43800000D02*
X76335000Y-44000000D01*
X94265000Y-51800000D02*
X92995000Y-51800000D01*
X94265000Y-49935000D02*
X94265000Y-51800000D01*
D10*
X87300000Y-60410000D02*
X84435001Y-60410000D01*
D30*
X94265000Y-48200000D02*
X94265000Y-49865000D01*
D10*
X84050000Y-60024999D02*
X84050000Y-59362500D01*
D30*
X92995000Y-48200000D02*
X94265000Y-48200000D01*
D10*
X87400000Y-57700000D02*
X87400000Y-57020000D01*
X94265000Y-52565000D02*
X94265000Y-51800000D01*
X96100000Y-55500000D02*
X95100000Y-54500000D01*
X95100000Y-53400000D02*
X94265000Y-52565000D01*
X84435001Y-60410000D02*
X84050000Y-60024999D01*
D31*
%TO.N,DATA_IN*%
X53325000Y-41125000D02*
X54700000Y-42500000D01*
X54700000Y-42500000D02*
X55490000Y-42500000D01*
X53325000Y-39925000D02*
X53325000Y-41125000D01*
D30*
%TO.N,Earth*%
X96805000Y-48200000D02*
X95535000Y-48200000D01*
X85000000Y-50000000D02*
X86975000Y-50000000D01*
D10*
X90200000Y-55700000D02*
X88600000Y-55700000D01*
X85680000Y-52655000D02*
X85000000Y-51975000D01*
D30*
X74365000Y-53100000D02*
X75065000Y-52400000D01*
D32*
X94100000Y-58300000D02*
X92400000Y-58300000D01*
D30*
X86975000Y-50000000D02*
X86975000Y-51975000D01*
X96805000Y-51800000D02*
X95535000Y-51800000D01*
X73820000Y-53100000D02*
X74365000Y-53100000D01*
X85000000Y-51975000D02*
X83025000Y-51975000D01*
X86975000Y-48025000D02*
X86975000Y-50000000D01*
D10*
X86340000Y-58100000D02*
X85300001Y-58100000D01*
X90950000Y-54950000D02*
X90950000Y-56050000D01*
D30*
X96805000Y-48200000D02*
X96805000Y-51800000D01*
D32*
X92400000Y-58300000D02*
X91200000Y-57100000D01*
D30*
X75065000Y-56000000D02*
X75065000Y-54345000D01*
X85000000Y-48025000D02*
X86975000Y-48025000D01*
X86975000Y-51975000D02*
X85000000Y-51975000D01*
X75065000Y-54345000D02*
X73820000Y-53100000D01*
D10*
X85680000Y-52700000D02*
X85680000Y-52655000D01*
D30*
X85000000Y-50000000D02*
X85000000Y-51975000D01*
X95535000Y-48200000D02*
X95535000Y-51800000D01*
D10*
X88200000Y-55300000D02*
X88200000Y-54900000D01*
D32*
X91200000Y-57100000D02*
X91200000Y-56300000D01*
D30*
X83025000Y-51975000D02*
X83025000Y-50000000D01*
D10*
X90950000Y-54950000D02*
X90200000Y-55700000D01*
X85000000Y-58400001D02*
X85000000Y-59062500D01*
X88600000Y-55700000D02*
X88200000Y-55300000D01*
D30*
X83025000Y-48025000D02*
X85000000Y-48025000D01*
X83025000Y-50000000D02*
X84000000Y-50000000D01*
X83025000Y-50000000D02*
X83025000Y-48025000D01*
X75065000Y-52400000D02*
X75065000Y-54345000D01*
X84000000Y-50000000D02*
X85000000Y-50000000D01*
D10*
X85300001Y-58100000D02*
X85000000Y-58400001D01*
X90950000Y-56050000D02*
X91200000Y-56300000D01*
D30*
X85000000Y-50000000D02*
X85000000Y-48025000D01*
D33*
%TO.N,Net-(U1-GPIO21{slash}U0TXD)*%
X79000000Y-49300000D02*
X79100000Y-49200000D01*
X72900000Y-49500000D02*
X73100000Y-49300000D01*
X73100000Y-49300000D02*
X79000000Y-49300000D01*
%TO.N,Net-(U1-GPIO20{slash}U0RXD)*%
X73200000Y-50700000D02*
X77150000Y-50700000D01*
X77850000Y-50000000D02*
X79100000Y-50000000D01*
X77150000Y-50700000D02*
X77850000Y-50000000D01*
X72900000Y-50400000D02*
X73200000Y-50700000D01*
D10*
%TO.N,+3V3*%
X83787500Y-61600000D02*
X84050000Y-61337500D01*
X94550000Y-54500000D02*
X94550000Y-56350000D01*
X82780000Y-61900000D02*
X83787500Y-61900000D01*
X94550000Y-56350000D02*
X95100000Y-56900000D01*
D33*
%TO.N,LED_DATA*%
X80600000Y-50000000D02*
X80600000Y-53600000D01*
X80600000Y-53600000D02*
X81800000Y-54800000D01*
%TO.N,USR_BTN*%
X89018199Y-53318199D02*
X89800000Y-54100000D01*
X89800000Y-54100000D02*
X89800000Y-54900000D01*
X89000000Y-53318199D02*
X89018199Y-53318199D01*
%TO.N,CHIP_EN*%
X90900000Y-51600000D02*
X91900000Y-51600000D01*
X91900000Y-51600000D02*
X92300000Y-51200000D01*
X92300000Y-51200000D02*
X92300000Y-43900000D01*
D31*
%TO.N,LED_DATA_5V*%
X75065000Y-44015000D02*
X75065000Y-47600000D01*
D33*
%TO.N,SDA*%
X90040000Y-48540000D02*
X90700000Y-49200000D01*
X88950000Y-48540000D02*
X90040000Y-48540000D01*
X88500000Y-48090000D02*
X88950000Y-48540000D01*
%TO.N,SCL*%
X89500000Y-49110000D02*
X90390000Y-50000000D01*
X90390000Y-50000000D02*
X90900000Y-50000000D01*
D31*
%TO.N,/MCU/LED_BUILTIN*%
X88800000Y-54100000D02*
X89000000Y-54300000D01*
X89000000Y-54300000D02*
X89000000Y-54900000D01*
D33*
%TO.N,IMU_INT*%
X87500000Y-53700000D02*
X86600000Y-54600000D01*
%TO.N,GPIO9{slash}BOOT*%
X79400000Y-57200000D02*
X81000000Y-55600000D01*
X81000000Y-55600000D02*
X81000000Y-54900000D01*
X78800000Y-57200000D02*
X79400000Y-57200000D01*
D32*
%TO.N,Net-(U2-EN)*%
X85950000Y-59362500D02*
X87272500Y-59362500D01*
D10*
%TO.N,GND*%
X46575000Y-39925000D02*
X46575000Y-39555000D01*
D30*
X57075000Y-54925000D02*
X57075000Y-57275000D01*
D10*
X41425000Y-55575000D02*
X41425000Y-55945000D01*
X41480000Y-44000000D02*
X41480000Y-43630000D01*
X44425000Y-40575000D02*
X44425000Y-40945000D01*
D30*
X57800000Y-58000000D02*
X59300000Y-58000000D01*
X57075000Y-57275000D02*
X57800000Y-58000000D01*
D10*
X52575000Y-60925000D02*
X52575000Y-60555000D01*
X56480000Y-58630000D02*
X56425000Y-58575000D01*
X46575000Y-60925000D02*
X46575000Y-60555000D01*
X41425000Y-55945000D02*
X41480000Y-56000000D01*
X44425000Y-58575000D02*
X44425000Y-58945000D01*
X44425000Y-58945000D02*
X44480000Y-59000000D01*
X41480000Y-43630000D02*
X41425000Y-43575000D01*
D30*
X39465000Y-51950000D02*
X39465000Y-48050000D01*
D10*
X52575000Y-60555000D02*
X52520000Y-60500000D01*
X44425000Y-40945000D02*
X44480000Y-41000000D01*
D30*
X59935000Y-57365000D02*
X59935000Y-56150000D01*
X59935000Y-52250000D02*
X59935000Y-56150000D01*
X38195000Y-48050000D02*
X38195000Y-51950000D01*
D10*
X46575000Y-60555000D02*
X46520000Y-60500000D01*
X46575000Y-39555000D02*
X46520000Y-39500000D01*
D30*
X58665000Y-46015000D02*
X58575000Y-45925000D01*
X38195000Y-51950000D02*
X39465000Y-51950000D01*
D10*
X50975000Y-39545000D02*
X51020000Y-39500000D01*
D30*
X39465000Y-48050000D02*
X38195000Y-48050000D01*
X59300000Y-58000000D02*
X59935000Y-57365000D01*
X58665000Y-47750000D02*
X58665000Y-46015000D01*
D10*
X56480000Y-59000000D02*
X56480000Y-58630000D01*
X50975000Y-39925000D02*
X50975000Y-39545000D01*
D30*
%TO.N,+5VL*%
X58665000Y-56150000D02*
X58665000Y-53515000D01*
X42005000Y-48050000D02*
X40735000Y-48050000D01*
X42005000Y-51950000D02*
X40735000Y-51950000D01*
X58665000Y-53515000D02*
X58575000Y-53425000D01*
D10*
X55575000Y-41055000D02*
X55575000Y-41425000D01*
D30*
X40735000Y-51950000D02*
X40735000Y-53265000D01*
X42005000Y-50355000D02*
X42005000Y-48050000D01*
D10*
X55575000Y-59055000D02*
X55520000Y-59000000D01*
X40575000Y-56055000D02*
X40520000Y-56000000D01*
D30*
X58665000Y-53335000D02*
X58665000Y-52250000D01*
D10*
X42980000Y-57130000D02*
X42925000Y-57075000D01*
D30*
X58665000Y-43850000D02*
X58665000Y-42815000D01*
D10*
X42980000Y-57500000D02*
X42980000Y-57130000D01*
X43575000Y-41425000D02*
X43575000Y-41905000D01*
X55575000Y-59425000D02*
X55575000Y-59055000D01*
X43575000Y-41905000D02*
X42980000Y-42500000D01*
X53480000Y-60130000D02*
X53425000Y-60075000D01*
D30*
X42075000Y-50425000D02*
X42005000Y-50355000D01*
X42005000Y-51950000D02*
X42005000Y-50495000D01*
D10*
X51980000Y-39230000D02*
X51825000Y-39075000D01*
D30*
X40735000Y-48050000D02*
X40735000Y-51950000D01*
X58665000Y-42815000D02*
X57925000Y-42075000D01*
X40735000Y-53265000D02*
X40575000Y-53425000D01*
X42005000Y-50495000D02*
X42075000Y-50425000D01*
X58575000Y-53425000D02*
X58665000Y-53335000D01*
D10*
X53480000Y-60500000D02*
X53480000Y-60130000D01*
X47425000Y-39075000D02*
X47425000Y-39445000D01*
D30*
X58575000Y-50425000D02*
X58575000Y-52160000D01*
D10*
X47425000Y-60075000D02*
X47425000Y-60445000D01*
X40575000Y-56425000D02*
X40575000Y-56055000D01*
X47425000Y-60445000D02*
X47480000Y-60500000D01*
X55520000Y-41000000D02*
X55575000Y-41055000D01*
X47425000Y-39445000D02*
X47480000Y-39500000D01*
X51980000Y-39500000D02*
X51980000Y-39230000D01*
D31*
%TO.N,Net-(J5-Pin_3)*%
X59935000Y-42835000D02*
X59935000Y-43850000D01*
X59935000Y-43850000D02*
X59935000Y-47750000D01*
X57710000Y-41300000D02*
X58400000Y-41300000D01*
X56510000Y-42500000D02*
X57710000Y-41300000D01*
X58400000Y-41300000D02*
X59935000Y-42835000D01*
%TD*%
%TA.AperFunction,Conductor*%
%TO.N,USR_BTN*%
G36*
X89275053Y-53207964D02*
G01*
X89281365Y-53214316D01*
X89281461Y-53214556D01*
X89321095Y-53317492D01*
X89427350Y-53593457D01*
X89464176Y-53689099D01*
X89463950Y-53698051D01*
X89461530Y-53701576D01*
X89401323Y-53761783D01*
X89393050Y-53765210D01*
X89389326Y-53764602D01*
X88897040Y-53599339D01*
X88890288Y-53593457D01*
X88889672Y-53584523D01*
X88889933Y-53583822D01*
X88997436Y-53322013D01*
X89003746Y-53315663D01*
X89266100Y-53207937D01*
X89275053Y-53207964D01*
G37*
%TD.AperFunction*%
%TD*%
%TA.AperFunction,Conductor*%
%TO.N,+5VL*%
G36*
X52112040Y-39074956D02*
G01*
X52120301Y-39078410D01*
X52123700Y-39086695D01*
X52123635Y-39087888D01*
X52081108Y-39489532D01*
X52076829Y-39497398D01*
X52069473Y-39500000D01*
X51884091Y-39500000D01*
X51876800Y-39497450D01*
X51623087Y-39295275D01*
X51618752Y-39287439D01*
X51621228Y-39278834D01*
X51622080Y-39277876D01*
X51821555Y-39077461D01*
X51829817Y-39074016D01*
X52112040Y-39074956D01*
G37*
%TD.AperFunction*%
%TD*%
%TA.AperFunction,Conductor*%
%TO.N,Net-(U1-GPIO21{slash}U0TXD)*%
G36*
X73396573Y-49253427D02*
G01*
X73400000Y-49261700D01*
X73400000Y-49345961D01*
X73397509Y-49353178D01*
X73156714Y-49660417D01*
X73148913Y-49664815D01*
X73140971Y-49662905D01*
X72903037Y-49502718D01*
X72898088Y-49495255D01*
X72898086Y-49495249D01*
X72853618Y-49263909D01*
X72855422Y-49255137D01*
X72862899Y-49250210D01*
X72865108Y-49250000D01*
X73388300Y-49250000D01*
X73396573Y-49253427D01*
G37*
%TD.AperFunction*%
%TD*%
%TA.AperFunction,Conductor*%
%TO.N,SDA*%
G36*
X90400693Y-48825344D02*
G01*
X90946570Y-48996596D01*
X90953438Y-49002343D01*
X90954327Y-49010941D01*
X90903217Y-49191820D01*
X90897670Y-49198850D01*
X90891480Y-49200329D01*
X90506259Y-49184579D01*
X90498133Y-49180817D01*
X90496743Y-49178973D01*
X90328005Y-48901788D01*
X90326630Y-48892939D01*
X90329724Y-48887433D01*
X90388922Y-48828235D01*
X90397194Y-48824809D01*
X90400693Y-48825344D01*
G37*
%TD.AperFunction*%
%TD*%
%TA.AperFunction,Conductor*%
%TO.N,Net-(U1-GPIO21{slash}U0TXD)*%
G36*
X78706611Y-49066214D02*
G01*
X79074413Y-49190981D01*
X79081145Y-49196883D01*
X79081733Y-49205819D01*
X79075875Y-49212530D01*
X78703867Y-49398070D01*
X78695807Y-49398951D01*
X78508862Y-49352215D01*
X78501667Y-49346884D01*
X78500000Y-49340864D01*
X78500000Y-49255095D01*
X78503427Y-49246822D01*
X78503710Y-49246548D01*
X78694887Y-49068727D01*
X78703277Y-49065603D01*
X78706611Y-49066214D01*
G37*
%TD.AperFunction*%
%TD*%
%TA.AperFunction,Conductor*%
%TO.N,Earth*%
G36*
X91053180Y-55806050D02*
G01*
X91401779Y-56079740D01*
X91406170Y-56087544D01*
X91403757Y-56096167D01*
X91402847Y-56097196D01*
X91203446Y-56297537D01*
X91195181Y-56300983D01*
X91195114Y-56300983D01*
X90910545Y-56300035D01*
X90902283Y-56296581D01*
X90898943Y-56289507D01*
X90851296Y-55816425D01*
X90853876Y-55807851D01*
X90861765Y-55803612D01*
X90862937Y-55803553D01*
X91045955Y-55803553D01*
X91053180Y-55806050D01*
G37*
%TD.AperFunction*%
%TD*%
%TA.AperFunction,Conductor*%
%TO.N,Earth*%
G36*
X83038252Y-50007292D02*
G01*
X83745792Y-50718256D01*
X83749199Y-50726537D01*
X83747270Y-50732944D01*
X83408729Y-51246956D01*
X83278515Y-51444664D01*
X83278468Y-51444735D01*
X83271056Y-51449760D01*
X83268697Y-51450000D01*
X82781359Y-51450000D01*
X82773086Y-51446573D01*
X82771541Y-51444664D01*
X82310145Y-50732937D01*
X82308521Y-50724131D01*
X82311683Y-50718307D01*
X83021708Y-50007302D01*
X83029977Y-50003871D01*
X83038252Y-50007292D01*
G37*
%TD.AperFunction*%
%TD*%
%TA.AperFunction,Conductor*%
%TO.N,GND*%
G36*
X57362327Y-54924957D02*
G01*
X57370588Y-54928411D01*
X57373987Y-54936696D01*
X57373947Y-54937629D01*
X57325894Y-55514272D01*
X57321792Y-55522232D01*
X57314234Y-55525000D01*
X56835766Y-55525000D01*
X56827493Y-55521573D01*
X56824106Y-55514272D01*
X56776052Y-54937629D01*
X56778780Y-54929099D01*
X56786740Y-54924997D01*
X56787653Y-54924957D01*
X57075000Y-54924000D01*
X57362327Y-54924957D01*
G37*
%TD.AperFunction*%
%TD*%
%TA.AperFunction,Conductor*%
%TO.N,Earth*%
G36*
X83762950Y-49280208D02*
G01*
X84474712Y-49746535D01*
X84479754Y-49753936D01*
X84480000Y-49756322D01*
X84480000Y-50243677D01*
X84476573Y-50251950D01*
X84474712Y-50253464D01*
X83762951Y-50719790D01*
X83754153Y-50721457D01*
X83748273Y-50718282D01*
X83037289Y-50008278D01*
X83033857Y-50000008D01*
X83037278Y-49991733D01*
X83037290Y-49991721D01*
X83748274Y-49281715D01*
X83756547Y-49278296D01*
X83762950Y-49280208D01*
G37*
%TD.AperFunction*%
%TD*%
%TA.AperFunction,Conductor*%
%TO.N,Earth*%
G36*
X91265677Y-44519685D02*
G01*
X91286319Y-44536319D01*
X91463681Y-44713681D01*
X91497166Y-44775004D01*
X91500000Y-44801362D01*
X91500000Y-46898638D01*
X91480315Y-46965677D01*
X91463681Y-46986319D01*
X91286319Y-47163681D01*
X91224996Y-47197166D01*
X91198638Y-47200000D01*
X91146709Y-47200000D01*
X91095201Y-47188796D01*
X91089067Y-47185995D01*
X90964774Y-47149500D01*
X90964772Y-47149500D01*
X90835228Y-47149500D01*
X90835226Y-47149500D01*
X90710932Y-47185995D01*
X90704799Y-47188796D01*
X90653291Y-47200000D01*
X90601362Y-47200000D01*
X90534323Y-47180315D01*
X90513681Y-47163681D01*
X90336319Y-46986319D01*
X90302834Y-46924996D01*
X90300000Y-46898638D01*
X90300000Y-45850000D01*
X90050000Y-45600000D01*
X78801362Y-45600000D01*
X78734323Y-45580315D01*
X78713681Y-45563681D01*
X78536319Y-45386319D01*
X78502834Y-45324996D01*
X78500000Y-45298638D01*
X78500000Y-44801362D01*
X78519685Y-44734323D01*
X78536319Y-44713681D01*
X78713681Y-44536319D01*
X78775004Y-44502834D01*
X78801362Y-44500000D01*
X91198638Y-44500000D01*
X91265677Y-44519685D01*
G37*
%TD.AperFunction*%
%TD*%
%TA.AperFunction,Conductor*%
%TO.N,GND*%
G36*
X58913950Y-46033427D02*
G01*
X58917081Y-46039087D01*
X58917133Y-46039313D01*
X59025228Y-46511191D01*
X59025030Y-46517164D01*
X58681207Y-47663630D01*
X58675548Y-47670570D01*
X58666639Y-47671476D01*
X58659699Y-47665817D01*
X58658793Y-47663630D01*
X58525691Y-47219809D01*
X58314933Y-46517044D01*
X58314687Y-46511300D01*
X58413059Y-46039313D01*
X58418102Y-46031913D01*
X58424513Y-46030000D01*
X58905677Y-46030000D01*
X58913950Y-46033427D01*
G37*
%TD.AperFunction*%
%TD*%
%TA.AperFunction,Conductor*%
%TO.N,Earth*%
G36*
X95608864Y-48090253D02*
G01*
X95615176Y-48096605D01*
X95615642Y-48097976D01*
X95780979Y-48705465D01*
X95779845Y-48714348D01*
X95772763Y-48719827D01*
X95769690Y-48720238D01*
X95291856Y-48720238D01*
X95283583Y-48716811D01*
X95281649Y-48714257D01*
X95064253Y-48326258D01*
X95063199Y-48317365D01*
X95068741Y-48310332D01*
X95069935Y-48309749D01*
X95335000Y-48199000D01*
X95335005Y-48199012D01*
X95335062Y-48198974D01*
X95599911Y-48090226D01*
X95608864Y-48090253D01*
G37*
%TD.AperFunction*%
%TD*%
%TA.AperFunction,Conductor*%
%TO.N,Earth*%
G36*
X85008266Y-50007277D02*
G01*
X85718282Y-50718273D01*
X85721703Y-50726547D01*
X85719790Y-50732951D01*
X85253465Y-51444712D01*
X85246064Y-51449754D01*
X85243678Y-51450000D01*
X84756322Y-51450000D01*
X84748049Y-51446573D01*
X84746535Y-51444712D01*
X84280209Y-50732951D01*
X84278542Y-50724153D01*
X84281714Y-50718275D01*
X84991721Y-50007289D01*
X84999992Y-50003857D01*
X85008266Y-50007277D01*
G37*
%TD.AperFunction*%
%TD*%
%TA.AperFunction,Conductor*%
%TO.N,Net-(J5-Pin_3)*%
G36*
X59940301Y-43934182D02*
G01*
X59941207Y-43936369D01*
X60284478Y-45080996D01*
X60283572Y-45089905D01*
X60283436Y-45090150D01*
X60013366Y-45564093D01*
X60006293Y-45569584D01*
X60003201Y-45570000D01*
X59866679Y-45570000D01*
X59858406Y-45566573D01*
X59856604Y-45564249D01*
X59576684Y-45090203D01*
X59575429Y-45081337D01*
X59575552Y-45080893D01*
X59918793Y-43936369D01*
X59924452Y-43929429D01*
X59933361Y-43928523D01*
X59940301Y-43934182D01*
G37*
%TD.AperFunction*%
%TD*%
%TA.AperFunction,Conductor*%
%TO.N,Earth*%
G36*
X84980014Y-58295410D02*
G01*
X84981569Y-58296716D01*
X85112890Y-58428037D01*
X85113366Y-58428542D01*
X85304455Y-58643755D01*
X85307385Y-58652216D01*
X85305896Y-58657272D01*
X85009977Y-59181768D01*
X85002927Y-59187290D01*
X84994038Y-59186209D01*
X84989375Y-59181355D01*
X84720277Y-58656277D01*
X84719554Y-58647353D01*
X84721109Y-58644226D01*
X84963718Y-58298270D01*
X84971273Y-58293465D01*
X84980014Y-58295410D01*
G37*
%TD.AperFunction*%
%TD*%
%TA.AperFunction,Conductor*%
%TO.N,+5V*%
G36*
X93902121Y-51432914D02*
G01*
X93905066Y-51435052D01*
X94262693Y-51791716D01*
X94266131Y-51799984D01*
X94262715Y-51808262D01*
X94262693Y-51808284D01*
X93905066Y-52164947D01*
X93896788Y-52168363D01*
X93893194Y-52167792D01*
X93538090Y-52052623D01*
X93531278Y-52046811D01*
X93530000Y-52041494D01*
X93530000Y-51558505D01*
X93533427Y-51550232D01*
X93538089Y-51547376D01*
X93893194Y-51432207D01*
X93902121Y-51432914D01*
G37*
%TD.AperFunction*%
%TD*%
%TA.AperFunction,Conductor*%
%TO.N,Earth*%
G36*
X75080589Y-52428509D02*
G01*
X75081006Y-52429514D01*
X75424751Y-53382562D01*
X75425150Y-53389144D01*
X75333144Y-53790792D01*
X75317134Y-53860687D01*
X75317082Y-53860912D01*
X75311894Y-53868212D01*
X75305677Y-53870000D01*
X74824513Y-53870000D01*
X74816240Y-53866573D01*
X74813059Y-53860687D01*
X74809328Y-53842788D01*
X74714757Y-53389035D01*
X74715204Y-53382683D01*
X75058994Y-52429513D01*
X75065025Y-52422895D01*
X75073970Y-52422478D01*
X75080589Y-52428509D01*
G37*
%TD.AperFunction*%
%TD*%
%TA.AperFunction,Conductor*%
%TO.N,GND*%
G36*
X52528724Y-60506274D02*
G01*
X52781834Y-60717315D01*
X52785993Y-60725245D01*
X52784516Y-60732077D01*
X52678363Y-60919076D01*
X52671299Y-60924579D01*
X52668188Y-60925000D01*
X52479121Y-60925000D01*
X52471789Y-60922418D01*
X52290564Y-60776682D01*
X52286264Y-60768827D01*
X52288778Y-60760232D01*
X52289108Y-60759840D01*
X52512472Y-60507503D01*
X52520520Y-60503582D01*
X52528724Y-60506274D01*
G37*
%TD.AperFunction*%
%TD*%
%TA.AperFunction,Conductor*%
%TO.N,+5V*%
G36*
X87069062Y-60156531D02*
G01*
X87293772Y-60402102D01*
X87296829Y-60410518D01*
X87293772Y-60417898D01*
X87069062Y-60663468D01*
X87060948Y-60667259D01*
X87055611Y-60666231D01*
X86716881Y-60513110D01*
X86710753Y-60506580D01*
X86710000Y-60502449D01*
X86710000Y-60317550D01*
X86713427Y-60309277D01*
X86716878Y-60306890D01*
X87055613Y-60153767D01*
X87064561Y-60153482D01*
X87069062Y-60156531D01*
G37*
%TD.AperFunction*%
%TD*%
%TA.AperFunction,Conductor*%
%TO.N,+5V*%
G36*
X76583760Y-54533427D02*
G01*
X76586941Y-54539313D01*
X76685242Y-55010962D01*
X76684794Y-55017319D01*
X76341006Y-55970485D01*
X76334975Y-55977104D01*
X76326030Y-55977521D01*
X76319411Y-55971490D01*
X76318994Y-55970485D01*
X75975248Y-55017437D01*
X75974849Y-55010855D01*
X76082918Y-54539087D01*
X76088106Y-54531788D01*
X76094323Y-54530000D01*
X76575487Y-54530000D01*
X76583760Y-54533427D01*
G37*
%TD.AperFunction*%
%TD*%
%TA.AperFunction,Conductor*%
%TO.N,SCL*%
G36*
X89774829Y-48999857D02*
G01*
X89781141Y-49006209D01*
X89781319Y-49006668D01*
X89957084Y-49491912D01*
X89956679Y-49500858D01*
X89954356Y-49504170D01*
X89894170Y-49564356D01*
X89885897Y-49567783D01*
X89881912Y-49567084D01*
X89396668Y-49391319D01*
X89390057Y-49385279D01*
X89389652Y-49376333D01*
X89389815Y-49375910D01*
X89497436Y-49113814D01*
X89503746Y-49107464D01*
X89765876Y-48999830D01*
X89774829Y-48999857D01*
G37*
%TD.AperFunction*%
%TD*%
%TA.AperFunction,Conductor*%
%TO.N,GND*%
G36*
X41528211Y-55577582D02*
G01*
X41709435Y-55723317D01*
X41713735Y-55731172D01*
X41711221Y-55739767D01*
X41710864Y-55740190D01*
X41487529Y-55992494D01*
X41479479Y-55996417D01*
X41471275Y-55993725D01*
X41218165Y-55782684D01*
X41214006Y-55774754D01*
X41215483Y-55767922D01*
X41321637Y-55580924D01*
X41328702Y-55575421D01*
X41331812Y-55575000D01*
X41520879Y-55575000D01*
X41528211Y-55577582D01*
G37*
%TD.AperFunction*%
%TD*%
%TA.AperFunction,Conductor*%
%TO.N,LED_DATA_5V*%
G36*
X75141594Y-46133427D02*
G01*
X75143395Y-46135750D01*
X75423119Y-46609464D01*
X75424374Y-46618329D01*
X75424050Y-46619382D01*
X75081006Y-47570485D01*
X75074975Y-47577104D01*
X75066030Y-47577521D01*
X75059411Y-47571490D01*
X75058994Y-47570485D01*
X74715912Y-46619278D01*
X74716329Y-46610333D01*
X74716743Y-46609533D01*
X74986634Y-46135907D01*
X74993707Y-46130416D01*
X74996799Y-46130000D01*
X75133321Y-46130000D01*
X75141594Y-46133427D01*
G37*
%TD.AperFunction*%
%TD*%
%TA.AperFunction,Conductor*%
%TO.N,GND*%
G36*
X56503920Y-58512626D02*
G01*
X56503983Y-58512689D01*
X56711335Y-58723228D01*
X56714699Y-58731527D01*
X56711767Y-58739185D01*
X56489448Y-58990812D01*
X56481402Y-58994743D01*
X56472933Y-58991833D01*
X56471935Y-58990837D01*
X56249435Y-58740490D01*
X56246500Y-58732030D01*
X56250408Y-58723973D01*
X56251128Y-58723382D01*
X56354290Y-58645711D01*
X56487375Y-58512625D01*
X56495647Y-58509199D01*
X56503920Y-58512626D01*
G37*
%TD.AperFunction*%
%TD*%
%TA.AperFunction,Conductor*%
%TO.N,Earth*%
G36*
X85361072Y-52191088D02*
G01*
X85631445Y-52335551D01*
X85785479Y-52417853D01*
X85791161Y-52424774D01*
X85790788Y-52432616D01*
X85682563Y-52696184D01*
X85676251Y-52702536D01*
X85676184Y-52702563D01*
X85413830Y-52810290D01*
X85404875Y-52810263D01*
X85398563Y-52803911D01*
X85398515Y-52803792D01*
X85214798Y-52335550D01*
X85214967Y-52326598D01*
X85217414Y-52323008D01*
X85347288Y-52193134D01*
X85355560Y-52189708D01*
X85361072Y-52191088D01*
G37*
%TD.AperFunction*%
%TD*%
%TA.AperFunction,Conductor*%
%TO.N,Earth*%
G36*
X85008266Y-48037277D02*
G01*
X85718282Y-48748273D01*
X85721703Y-48756547D01*
X85719790Y-48762951D01*
X85253465Y-49474712D01*
X85246064Y-49479754D01*
X85243678Y-49480000D01*
X84756322Y-49480000D01*
X84748049Y-49476573D01*
X84746535Y-49474712D01*
X84280209Y-48762951D01*
X84278542Y-48754153D01*
X84281714Y-48748275D01*
X84991721Y-48037289D01*
X84999992Y-48033857D01*
X85008266Y-48037277D01*
G37*
%TD.AperFunction*%
%TD*%
%TA.AperFunction,Conductor*%
%TO.N,Earth*%
G36*
X83276970Y-48553427D02*
G01*
X83278466Y-48555262D01*
X83560300Y-48983176D01*
X83747270Y-49267055D01*
X83748959Y-49275849D01*
X83745792Y-49281743D01*
X83038278Y-49992681D01*
X83030013Y-49996128D01*
X83021732Y-49992721D01*
X83021706Y-49992695D01*
X82311684Y-49281693D01*
X82308263Y-49273418D01*
X82310144Y-49267064D01*
X82771541Y-48555336D01*
X82778917Y-48550258D01*
X82781359Y-48550000D01*
X83268697Y-48550000D01*
X83276970Y-48553427D01*
G37*
%TD.AperFunction*%
%TD*%
%TA.AperFunction,Conductor*%
%TO.N,GND*%
G36*
X46528724Y-39506274D02*
G01*
X46781834Y-39717315D01*
X46785993Y-39725245D01*
X46784516Y-39732077D01*
X46678363Y-39919076D01*
X46671299Y-39924579D01*
X46668188Y-39925000D01*
X46479121Y-39925000D01*
X46471789Y-39922418D01*
X46290564Y-39776682D01*
X46286264Y-39768827D01*
X46288778Y-39760232D01*
X46289108Y-39759840D01*
X46512472Y-39507503D01*
X46520520Y-39503582D01*
X46528724Y-39506274D01*
G37*
%TD.AperFunction*%
%TD*%
%TA.AperFunction,Conductor*%
%TO.N,GND*%
G36*
X46528724Y-60506274D02*
G01*
X46781834Y-60717315D01*
X46785993Y-60725245D01*
X46784516Y-60732077D01*
X46678363Y-60919076D01*
X46671299Y-60924579D01*
X46668188Y-60925000D01*
X46479121Y-60925000D01*
X46471789Y-60922418D01*
X46290564Y-60776682D01*
X46286264Y-60768827D01*
X46288778Y-60760232D01*
X46289108Y-60759840D01*
X46512472Y-60507503D01*
X46520520Y-60503582D01*
X46528724Y-60506274D01*
G37*
%TD.AperFunction*%
%TD*%
%TA.AperFunction,Conductor*%
%TO.N,Net-(J5-Pin_3)*%
G36*
X59506975Y-42298821D02*
G01*
X59908023Y-42596552D01*
X59912623Y-42604234D01*
X59912748Y-42605783D01*
X59930564Y-43890449D01*
X59927252Y-43898769D01*
X59920554Y-43902188D01*
X59572023Y-43953036D01*
X59563342Y-43950840D01*
X59558757Y-43943148D01*
X59558705Y-43942743D01*
X59393402Y-42404434D01*
X59395925Y-42395842D01*
X59396753Y-42394920D01*
X59491731Y-42299942D01*
X59500003Y-42296516D01*
X59506975Y-42298821D01*
G37*
%TD.AperFunction*%
%TD*%
%TA.AperFunction,Conductor*%
%TO.N,Earth*%
G36*
X85251951Y-48553427D02*
G01*
X85253465Y-48555288D01*
X85719790Y-49267048D01*
X85721457Y-49275846D01*
X85718282Y-49281727D01*
X85008279Y-49992709D01*
X85000008Y-49996142D01*
X84991733Y-49992721D01*
X84991721Y-49992709D01*
X84678396Y-49678952D01*
X84281716Y-49281725D01*
X84278296Y-49273452D01*
X84280208Y-49267050D01*
X84746535Y-48555287D01*
X84753936Y-48550246D01*
X84756322Y-48550000D01*
X85243678Y-48550000D01*
X85251951Y-48553427D01*
G37*
%TD.AperFunction*%
%TD*%
%TA.AperFunction,Conductor*%
%TO.N,+5VL*%
G36*
X58824963Y-50633427D02*
G01*
X58827737Y-50637846D01*
X58967948Y-51039769D01*
X58968284Y-51046329D01*
X58679526Y-52260927D01*
X58674278Y-52268183D01*
X58665437Y-52269604D01*
X58658181Y-52264356D01*
X58657039Y-52261908D01*
X58300679Y-51187048D01*
X58300097Y-51182839D01*
X58324497Y-50641173D01*
X58328293Y-50633063D01*
X58336185Y-50630000D01*
X58816690Y-50630000D01*
X58824963Y-50633427D01*
G37*
%TD.AperFunction*%
%TD*%
%TA.AperFunction,Conductor*%
%TO.N,Earth*%
G36*
X95783760Y-50333427D02*
G01*
X95786941Y-50339313D01*
X95885242Y-50810962D01*
X95884794Y-50817319D01*
X95541006Y-51770485D01*
X95534975Y-51777104D01*
X95526030Y-51777521D01*
X95519411Y-51771490D01*
X95518994Y-51770485D01*
X95175248Y-50817437D01*
X95174849Y-50810855D01*
X95282918Y-50339087D01*
X95288106Y-50331788D01*
X95294323Y-50330000D01*
X95775487Y-50330000D01*
X95783760Y-50333427D01*
G37*
%TD.AperFunction*%
%TD*%
%TA.AperFunction,Conductor*%
%TO.N,+5VL*%
G36*
X58377411Y-42177490D02*
G01*
X58378872Y-42179272D01*
X58657512Y-42597097D01*
X58659478Y-42603487D01*
X58670618Y-43890474D01*
X58667262Y-43898776D01*
X58660576Y-43902157D01*
X58310988Y-43952194D01*
X58302313Y-43949974D01*
X58297852Y-43942878D01*
X58018608Y-42527076D01*
X58020369Y-42518298D01*
X58021809Y-42516546D01*
X58360866Y-42177489D01*
X58369138Y-42174063D01*
X58377411Y-42177490D01*
G37*
%TD.AperFunction*%
%TD*%
%TA.AperFunction,Conductor*%
%TO.N,+5V*%
G36*
X93010589Y-48228509D02*
G01*
X93011006Y-48229514D01*
X93354751Y-49182562D01*
X93355150Y-49189144D01*
X93263144Y-49590792D01*
X93247134Y-49660687D01*
X93247082Y-49660912D01*
X93241894Y-49668212D01*
X93235677Y-49670000D01*
X92754513Y-49670000D01*
X92746240Y-49666573D01*
X92743059Y-49660687D01*
X92739328Y-49642788D01*
X92644757Y-49189035D01*
X92645204Y-49182683D01*
X92988994Y-48229513D01*
X92995025Y-48222895D01*
X93003970Y-48222478D01*
X93010589Y-48228509D01*
G37*
%TD.AperFunction*%
%TD*%
%TA.AperFunction,Conductor*%
%TO.N,CHIP_EN*%
G36*
X92565904Y-43990100D02*
G01*
X92572216Y-43996452D01*
X92572189Y-44005407D01*
X92571989Y-44005857D01*
X92353155Y-44473261D01*
X92346544Y-44479301D01*
X92342559Y-44480000D01*
X92257441Y-44480000D01*
X92249168Y-44476573D01*
X92246845Y-44473261D01*
X92028010Y-44005857D01*
X92027605Y-43996911D01*
X92033645Y-43990300D01*
X92034066Y-43990112D01*
X92295490Y-43880883D01*
X92304444Y-43880857D01*
X92565904Y-43990100D01*
G37*
%TD.AperFunction*%
%TD*%
%TA.AperFunction,Conductor*%
%TO.N,+3V3*%
G36*
X83747582Y-61542521D02*
G01*
X84042049Y-61792405D01*
X84046140Y-61800371D01*
X84043400Y-61808896D01*
X84043375Y-61808925D01*
X83746086Y-62156947D01*
X83738107Y-62161012D01*
X83731717Y-62159689D01*
X83436227Y-62003295D01*
X83430518Y-61996396D01*
X83430000Y-61992954D01*
X83430000Y-61805404D01*
X83433427Y-61797131D01*
X83434103Y-61796506D01*
X83732428Y-61542532D01*
X83740949Y-61539780D01*
X83747582Y-61542521D01*
G37*
%TD.AperFunction*%
%TD*%
%TA.AperFunction,Conductor*%
%TO.N,Earth*%
G36*
X88485949Y-54899966D02*
G01*
X88494213Y-54903412D01*
X88497620Y-54911693D01*
X88497421Y-54913813D01*
X88412797Y-55367146D01*
X88409569Y-55373272D01*
X88280523Y-55502318D01*
X88272250Y-55505745D01*
X88263977Y-55502318D01*
X88262697Y-55500800D01*
X87993543Y-55120158D01*
X87991564Y-55111424D01*
X87994793Y-55105160D01*
X88195851Y-54902757D01*
X88204111Y-54899304D01*
X88485949Y-54899966D01*
G37*
%TD.AperFunction*%
%TD*%
%TA.AperFunction,Conductor*%
%TO.N,GND*%
G36*
X59571799Y-56069725D02*
G01*
X59921019Y-56098494D01*
X59928981Y-56102588D01*
X59931696Y-56108964D01*
X60063367Y-57396285D01*
X60061906Y-57403246D01*
X59822730Y-57825035D01*
X59815668Y-57830541D01*
X59806781Y-57829442D01*
X59804279Y-57827537D01*
X59465362Y-57488620D01*
X59461935Y-57480347D01*
X59461963Y-57479536D01*
X59559178Y-56080573D01*
X59563170Y-56072559D01*
X59571661Y-56069714D01*
X59571799Y-56069725D01*
G37*
%TD.AperFunction*%
%TD*%
%TA.AperFunction,Conductor*%
%TO.N,Earth*%
G36*
X86988252Y-50007292D02*
G01*
X87695792Y-50718256D01*
X87699199Y-50726537D01*
X87697270Y-50732944D01*
X87358729Y-51246956D01*
X87228515Y-51444664D01*
X87228468Y-51444735D01*
X87221056Y-51449760D01*
X87218697Y-51450000D01*
X86731359Y-51450000D01*
X86723086Y-51446573D01*
X86721541Y-51444664D01*
X86260145Y-50732937D01*
X86258521Y-50724131D01*
X86261683Y-50718307D01*
X86971708Y-50007302D01*
X86979977Y-50003871D01*
X86988252Y-50007292D01*
G37*
%TD.AperFunction*%
%TD*%
%TA.AperFunction,Conductor*%
%TO.N,/MCU/LED_BUILTIN*%
G36*
X89076788Y-54303427D02*
G01*
X89078437Y-54305499D01*
X89196526Y-54494442D01*
X89198004Y-54503274D01*
X89197074Y-54505865D01*
X89010470Y-54880007D01*
X89003711Y-54885881D01*
X88994778Y-54885255D01*
X88989530Y-54880007D01*
X88802925Y-54505865D01*
X88802299Y-54496932D01*
X88803470Y-54494446D01*
X88921563Y-54305498D01*
X88928854Y-54300300D01*
X88931485Y-54300000D01*
X89068515Y-54300000D01*
X89076788Y-54303427D01*
G37*
%TD.AperFunction*%
%TD*%
%TA.AperFunction,Conductor*%
%TO.N,Earth*%
G36*
X87262327Y-49999957D02*
G01*
X87270588Y-50003411D01*
X87273987Y-50011696D01*
X87273947Y-50012629D01*
X87225894Y-50589272D01*
X87221792Y-50597232D01*
X87214234Y-50600000D01*
X86735766Y-50600000D01*
X86727493Y-50596573D01*
X86724106Y-50589272D01*
X86676052Y-50012629D01*
X86678780Y-50004099D01*
X86686740Y-49999997D01*
X86687653Y-49999957D01*
X86975000Y-49999000D01*
X87262327Y-49999957D01*
G37*
%TD.AperFunction*%
%TD*%
%TA.AperFunction,Conductor*%
%TO.N,+5V*%
G36*
X94280589Y-48228509D02*
G01*
X94281006Y-48229514D01*
X94624751Y-49182562D01*
X94625150Y-49189144D01*
X94533144Y-49590792D01*
X94517134Y-49660687D01*
X94517082Y-49660912D01*
X94511894Y-49668212D01*
X94505677Y-49670000D01*
X94024513Y-49670000D01*
X94016240Y-49666573D01*
X94013059Y-49660687D01*
X94009328Y-49642788D01*
X93914757Y-49189035D01*
X93915204Y-49182683D01*
X94258994Y-48229513D01*
X94265025Y-48222895D01*
X94273970Y-48222478D01*
X94280589Y-48228509D01*
G37*
%TD.AperFunction*%
%TD*%
%TA.AperFunction,Conductor*%
%TO.N,Net-(U2-EN)*%
G36*
X86267231Y-58967394D02*
G01*
X86566089Y-59234011D01*
X86569981Y-59242075D01*
X86570000Y-59242741D01*
X86570000Y-59479344D01*
X86566573Y-59487617D01*
X86562348Y-59490321D01*
X86268049Y-59598849D01*
X86259101Y-59598497D01*
X86254749Y-59595033D01*
X86150652Y-59460539D01*
X85956183Y-59209281D01*
X85953830Y-59200643D01*
X85958274Y-59192871D01*
X86252316Y-58966849D01*
X86260961Y-58964525D01*
X86267231Y-58967394D01*
G37*
%TD.AperFunction*%
%TD*%
%TA.AperFunction,Conductor*%
%TO.N,+5VL*%
G36*
X58910742Y-52846329D02*
G01*
X58914169Y-52854602D01*
X58914141Y-52855404D01*
X58875746Y-53414138D01*
X58871761Y-53422157D01*
X58864113Y-53425036D01*
X58577367Y-53425992D01*
X58572817Y-53425088D01*
X58572606Y-53425000D01*
X58524784Y-53405018D01*
X58307121Y-53314074D01*
X58300809Y-53307722D01*
X58300283Y-53300434D01*
X58384562Y-52964299D01*
X58412780Y-52851757D01*
X58418116Y-52844565D01*
X58424129Y-52842902D01*
X58902469Y-52842902D01*
X58910742Y-52846329D01*
G37*
%TD.AperFunction*%
%TD*%
%TA.AperFunction,Conductor*%
%TO.N,+5V*%
G36*
X82820335Y-56784968D02*
G01*
X83243604Y-57151329D01*
X83247617Y-57159334D01*
X83244793Y-57167832D01*
X83244220Y-57168448D01*
X82905985Y-57506683D01*
X82897712Y-57510110D01*
X82891741Y-57508471D01*
X82689324Y-57388326D01*
X82493884Y-57272321D01*
X82488519Y-57265152D01*
X82489033Y-57257816D01*
X82525982Y-57167832D01*
X82598394Y-56991480D01*
X82600967Y-56987629D01*
X82804435Y-56785513D01*
X82812719Y-56782115D01*
X82820335Y-56784968D01*
G37*
%TD.AperFunction*%
%TD*%
%TA.AperFunction,Conductor*%
%TO.N,Earth*%
G36*
X74708522Y-52249401D02*
G01*
X75059866Y-52394806D01*
X75066200Y-52401136D01*
X75066203Y-52410091D01*
X75066191Y-52410120D01*
X74706722Y-53272142D01*
X74700375Y-53278459D01*
X74691420Y-53278438D01*
X74687650Y-53275912D01*
X74615148Y-53203406D01*
X74268657Y-52856915D01*
X74265230Y-52848642D01*
X74267461Y-52841769D01*
X74694582Y-52253338D01*
X74702214Y-52248658D01*
X74708522Y-52249401D01*
G37*
%TD.AperFunction*%
%TD*%
%TA.AperFunction,Conductor*%
%TO.N,Net-(U2-EN)*%
G36*
X87065196Y-59133293D02*
G01*
X87068314Y-59135714D01*
X87293753Y-59382080D01*
X87296810Y-59390496D01*
X87293732Y-59397899D01*
X87068306Y-59642936D01*
X87060182Y-59646705D01*
X87054817Y-59645650D01*
X86716822Y-59490628D01*
X86710731Y-59484064D01*
X86710000Y-59479993D01*
X86710000Y-59246176D01*
X86713427Y-59237903D01*
X86718301Y-59234980D01*
X87056285Y-59132416D01*
X87065196Y-59133293D01*
G37*
%TD.AperFunction*%
%TD*%
%TA.AperFunction,Conductor*%
%TO.N,+5V*%
G36*
X95751595Y-55006638D02*
G01*
X96194278Y-55245005D01*
X96199937Y-55251944D01*
X96199555Y-55259747D01*
X96102564Y-55496180D01*
X96096253Y-55502533D01*
X96096180Y-55502564D01*
X95859747Y-55599555D01*
X95850792Y-55599524D01*
X95845005Y-55594278D01*
X95606638Y-55151596D01*
X95605734Y-55142689D01*
X95608666Y-55137780D01*
X95737779Y-55008667D01*
X95746051Y-55005241D01*
X95751595Y-55006638D01*
G37*
%TD.AperFunction*%
%TD*%
%TA.AperFunction,Conductor*%
%TO.N,Earth*%
G36*
X85149565Y-49203427D02*
G01*
X85152992Y-49211700D01*
X85149565Y-49219973D01*
X85143782Y-49223132D01*
X84740989Y-49310851D01*
X84732176Y-49309263D01*
X84727067Y-49301909D01*
X84727112Y-49296728D01*
X84747869Y-49209005D01*
X84753109Y-49201744D01*
X84759255Y-49200000D01*
X85141292Y-49200000D01*
X85149565Y-49203427D01*
G37*
%TD.AperFunction*%
%TD*%
%TA.AperFunction,Conductor*%
%TO.N,CHIP_EN*%
G36*
X91305775Y-51404331D02*
G01*
X91495320Y-51546490D01*
X91499882Y-51554195D01*
X91500000Y-51555850D01*
X91500000Y-51644150D01*
X91496573Y-51652423D01*
X91495320Y-51653510D01*
X91305778Y-51795666D01*
X91297103Y-51797888D01*
X91293536Y-51796776D01*
X91198163Y-51749208D01*
X90919991Y-51610469D01*
X90914118Y-51603711D01*
X90914744Y-51594778D01*
X90919992Y-51589530D01*
X91293538Y-51403222D01*
X91302469Y-51402597D01*
X91305775Y-51404331D01*
G37*
%TD.AperFunction*%
%TD*%
%TA.AperFunction,Conductor*%
%TO.N,Earth*%
G36*
X86970900Y-49703780D02*
G01*
X86975002Y-49711740D01*
X86975042Y-49712673D01*
X86976000Y-50000000D01*
X86976000Y-50000078D01*
X86975042Y-50287326D01*
X86971588Y-50295588D01*
X86963303Y-50298987D01*
X86962370Y-50298947D01*
X86385728Y-50250894D01*
X86377768Y-50246792D01*
X86375000Y-50239234D01*
X86375000Y-49760766D01*
X86378427Y-49752493D01*
X86385728Y-49749106D01*
X86962371Y-49701052D01*
X86970900Y-49703780D01*
G37*
%TD.AperFunction*%
%TD*%
%TA.AperFunction,Conductor*%
%TO.N,SCL*%
G36*
X90506378Y-49803194D02*
G01*
X90859282Y-49979958D01*
X90877167Y-49988916D01*
X90883029Y-49995685D01*
X90882388Y-50004617D01*
X90876180Y-50010277D01*
X90506663Y-50154465D01*
X90497710Y-50154280D01*
X90494647Y-50152318D01*
X90323695Y-50000707D01*
X90300298Y-49979957D01*
X90296383Y-49971905D01*
X90299309Y-49963442D01*
X90299773Y-49962949D01*
X90361080Y-49901641D01*
X90362439Y-49900477D01*
X90494239Y-49804207D01*
X90502940Y-49802095D01*
X90506378Y-49803194D01*
G37*
%TD.AperFunction*%
%TD*%
%TA.AperFunction,Conductor*%
%TO.N,+5V*%
G36*
X93376804Y-47832207D02*
G01*
X93731909Y-47947376D01*
X93738722Y-47953188D01*
X93740000Y-47958505D01*
X93740000Y-48441494D01*
X93736573Y-48449767D01*
X93731909Y-48452623D01*
X93376804Y-48567792D01*
X93367878Y-48567085D01*
X93364933Y-48564947D01*
X93007305Y-48208283D01*
X93003868Y-48200016D01*
X93007284Y-48191738D01*
X93007306Y-48191716D01*
X93364935Y-47835051D01*
X93373211Y-47831636D01*
X93376804Y-47832207D01*
G37*
%TD.AperFunction*%
%TD*%
%TA.AperFunction,Conductor*%
%TO.N,Earth*%
G36*
X87222507Y-49403427D02*
G01*
X87225894Y-49410728D01*
X87273947Y-49987370D01*
X87271219Y-49995900D01*
X87263259Y-50000002D01*
X87262326Y-50000042D01*
X86975039Y-50000999D01*
X86974961Y-50000999D01*
X86687673Y-50000042D01*
X86679411Y-49996588D01*
X86676012Y-49988303D01*
X86676052Y-49987370D01*
X86724106Y-49410728D01*
X86728208Y-49402768D01*
X86735766Y-49400000D01*
X87214234Y-49400000D01*
X87222507Y-49403427D01*
G37*
%TD.AperFunction*%
%TD*%
%TA.AperFunction,Conductor*%
%TO.N,GPIO9{slash}BOOT*%
G36*
X81005222Y-54914744D02*
G01*
X81010470Y-54919992D01*
X81196776Y-55293536D01*
X81197402Y-55302469D01*
X81195666Y-55305778D01*
X81053510Y-55495320D01*
X81045805Y-55499882D01*
X81044150Y-55500000D01*
X80955850Y-55500000D01*
X80947577Y-55496573D01*
X80946490Y-55495320D01*
X80804332Y-55305776D01*
X80802111Y-55297103D01*
X80803221Y-55293541D01*
X80989530Y-54919991D01*
X80996289Y-54914118D01*
X81005222Y-54914744D01*
G37*
%TD.AperFunction*%
%TD*%
%TA.AperFunction,Conductor*%
%TO.N,Earth*%
G36*
X91265677Y-53619685D02*
G01*
X91286319Y-53636319D01*
X91463681Y-53813681D01*
X91497166Y-53875004D01*
X91500000Y-53901362D01*
X91500000Y-55198638D01*
X91480315Y-55265677D01*
X91463681Y-55286319D01*
X91286319Y-55463681D01*
X91224996Y-55497166D01*
X91198638Y-55500000D01*
X90601362Y-55500000D01*
X90534323Y-55480315D01*
X90513681Y-55463681D01*
X90336319Y-55286319D01*
X90302834Y-55224996D01*
X90300000Y-55198638D01*
X90300000Y-53901362D01*
X90319685Y-53834323D01*
X90336319Y-53813681D01*
X90513681Y-53636319D01*
X90575004Y-53602834D01*
X90601362Y-53600000D01*
X91198638Y-53600000D01*
X91265677Y-53619685D01*
G37*
%TD.AperFunction*%
%TD*%
%TA.AperFunction,Conductor*%
%TO.N,Earth*%
G36*
X96810589Y-48228509D02*
G01*
X96811006Y-48229514D01*
X97154794Y-49182680D01*
X97155242Y-49189037D01*
X97056941Y-49660687D01*
X97051898Y-49668087D01*
X97045487Y-49670000D01*
X96564323Y-49670000D01*
X96556050Y-49666573D01*
X96552918Y-49660912D01*
X96552866Y-49660687D01*
X96444849Y-49189144D01*
X96445248Y-49182562D01*
X96788994Y-48229514D01*
X96795025Y-48222895D01*
X96803970Y-48222478D01*
X96810589Y-48228509D01*
G37*
%TD.AperFunction*%
%TD*%
%TA.AperFunction,Conductor*%
%TO.N,Net-(U1-GPIO20{slash}U0RXD)*%
G36*
X73155769Y-50271780D02*
G01*
X73377663Y-50647247D01*
X73379290Y-50653199D01*
X73379290Y-50735989D01*
X73375863Y-50744262D01*
X73367590Y-50747689D01*
X73365504Y-50747502D01*
X72840061Y-50652305D01*
X72832532Y-50647458D01*
X72830634Y-50638706D01*
X72830897Y-50637580D01*
X72897658Y-50404680D01*
X72903229Y-50397674D01*
X73140062Y-50267480D01*
X73148961Y-50266499D01*
X73155769Y-50271780D01*
G37*
%TD.AperFunction*%
%TD*%
%TA.AperFunction,Conductor*%
%TO.N,+5VL*%
G36*
X58862327Y-50424957D02*
G01*
X58870588Y-50428411D01*
X58873987Y-50436696D01*
X58873947Y-50437629D01*
X58825894Y-51014272D01*
X58821792Y-51022232D01*
X58814234Y-51025000D01*
X58335766Y-51025000D01*
X58327493Y-51021573D01*
X58324106Y-51014272D01*
X58276052Y-50437629D01*
X58278780Y-50429099D01*
X58286740Y-50424997D01*
X58287653Y-50424957D01*
X58575000Y-50424000D01*
X58862327Y-50424957D01*
G37*
%TD.AperFunction*%
%TD*%
%TA.AperFunction,Conductor*%
%TO.N,+5V*%
G36*
X84298620Y-58343427D02*
G01*
X84301834Y-58349477D01*
X84359183Y-58645783D01*
X84357893Y-58653743D01*
X84060197Y-59182875D01*
X84053154Y-59188405D01*
X84044263Y-59187335D01*
X84039803Y-59182875D01*
X83742106Y-58653743D01*
X83740816Y-58645783D01*
X83798166Y-58349477D01*
X83803103Y-58342005D01*
X83809653Y-58340000D01*
X84290347Y-58340000D01*
X84298620Y-58343427D01*
G37*
%TD.AperFunction*%
%TD*%
%TA.AperFunction,Conductor*%
%TO.N,Earth*%
G36*
X87226970Y-48553427D02*
G01*
X87228466Y-48555262D01*
X87510300Y-48983176D01*
X87697270Y-49267055D01*
X87698959Y-49275849D01*
X87695792Y-49281743D01*
X86988278Y-49992681D01*
X86980013Y-49996128D01*
X86971732Y-49992721D01*
X86971706Y-49992695D01*
X86261684Y-49281693D01*
X86258263Y-49273418D01*
X86260144Y-49267064D01*
X86721541Y-48555336D01*
X86728917Y-48550258D01*
X86731359Y-48550000D01*
X87218697Y-48550000D01*
X87226970Y-48553427D01*
G37*
%TD.AperFunction*%
%TD*%
%TA.AperFunction,Conductor*%
%TO.N,+5VL*%
G36*
X53432252Y-60077030D02*
G01*
X53691588Y-60185386D01*
X53697900Y-60191738D01*
X53697963Y-60200469D01*
X53582919Y-60492587D01*
X53576699Y-60499029D01*
X53572033Y-60500000D01*
X53385688Y-60500000D01*
X53377415Y-60496573D01*
X53376486Y-60495525D01*
X53374179Y-60492587D01*
X53219261Y-60295274D01*
X53216847Y-60286651D01*
X53220169Y-60279796D01*
X53419453Y-60079572D01*
X53427717Y-60076127D01*
X53432252Y-60077030D01*
G37*
%TD.AperFunction*%
%TD*%
%TA.AperFunction,Conductor*%
%TO.N,GND*%
G36*
X56432252Y-58577030D02*
G01*
X56691588Y-58685386D01*
X56697900Y-58691738D01*
X56697963Y-58700469D01*
X56582919Y-58992587D01*
X56576699Y-58999029D01*
X56572033Y-59000000D01*
X56385688Y-59000000D01*
X56377415Y-58996573D01*
X56376486Y-58995525D01*
X56374179Y-58992587D01*
X56219261Y-58795274D01*
X56216847Y-58786651D01*
X56220169Y-58779796D01*
X56419453Y-58579572D01*
X56427717Y-58576127D01*
X56432252Y-58577030D01*
G37*
%TD.AperFunction*%
%TD*%
%TA.AperFunction,Conductor*%
%TO.N,Earth*%
G36*
X83762935Y-51260144D02*
G01*
X84474664Y-51721541D01*
X84479742Y-51728916D01*
X84480000Y-51731358D01*
X84480000Y-52218696D01*
X84476573Y-52226969D01*
X84474735Y-52228467D01*
X83762944Y-52697269D01*
X83754150Y-52698958D01*
X83748257Y-52695791D01*
X83037317Y-51988277D01*
X83033871Y-51980013D01*
X83037277Y-51971734D01*
X83748307Y-51261683D01*
X83756581Y-51258263D01*
X83762935Y-51260144D01*
G37*
%TD.AperFunction*%
%TD*%
%TA.AperFunction,Conductor*%
%TO.N,+5VL*%
G36*
X43779392Y-41509399D02*
G01*
X43840058Y-41534747D01*
X43846370Y-41541099D01*
X43846343Y-41550054D01*
X43845758Y-41551255D01*
X43568407Y-42047067D01*
X43561377Y-42052614D01*
X43552484Y-42051566D01*
X43549923Y-42049628D01*
X43421441Y-41921146D01*
X43418572Y-41916445D01*
X43301120Y-41550050D01*
X43301858Y-41541125D01*
X43307769Y-41535675D01*
X43571206Y-41426163D01*
X43580159Y-41426153D01*
X43779392Y-41509399D01*
G37*
%TD.AperFunction*%
%TD*%
%TA.AperFunction,Conductor*%
%TO.N,+5VL*%
G36*
X43364009Y-41986008D02*
G01*
X43493823Y-42115822D01*
X43497250Y-42124095D01*
X43496077Y-42129201D01*
X43264798Y-42606085D01*
X43258105Y-42612033D01*
X43249827Y-42611802D01*
X42984610Y-42502890D01*
X42978258Y-42496577D01*
X42977771Y-42495163D01*
X42896667Y-42199642D01*
X42897782Y-42190757D01*
X42903132Y-42185884D01*
X43350920Y-41983617D01*
X43359870Y-41983336D01*
X43364009Y-41986008D01*
G37*
%TD.AperFunction*%
%TD*%
%TA.AperFunction,Conductor*%
%TO.N,+5VL*%
G36*
X43003920Y-57012626D02*
G01*
X43003983Y-57012689D01*
X43211335Y-57223228D01*
X43214699Y-57231527D01*
X43211767Y-57239185D01*
X42989448Y-57490812D01*
X42981402Y-57494743D01*
X42972933Y-57491833D01*
X42971935Y-57490837D01*
X42749435Y-57240490D01*
X42746500Y-57232030D01*
X42750408Y-57223973D01*
X42751128Y-57223382D01*
X42854290Y-57145711D01*
X42987375Y-57012625D01*
X42995647Y-57009199D01*
X43003920Y-57012626D01*
G37*
%TD.AperFunction*%
%TD*%
%TA.AperFunction,Conductor*%
%TO.N,DATA_IN*%
G36*
X53591380Y-40035299D02*
G01*
X53597691Y-40041650D01*
X53597668Y-40050594D01*
X53403000Y-40517800D01*
X53396655Y-40524119D01*
X53392200Y-40525000D01*
X53257800Y-40525000D01*
X53249527Y-40521573D01*
X53247000Y-40517800D01*
X53052331Y-40050594D01*
X53052312Y-40041639D01*
X53058617Y-40035300D01*
X53320490Y-39925883D01*
X53329444Y-39925857D01*
X53591380Y-40035299D01*
G37*
%TD.AperFunction*%
%TD*%
%TA.AperFunction,Conductor*%
%TO.N,GND*%
G36*
X44431543Y-40577307D02*
G01*
X44689348Y-40684477D01*
X44695672Y-40690817D01*
X44695661Y-40699772D01*
X44694745Y-40701535D01*
X44551405Y-40928189D01*
X44549790Y-40930208D01*
X44419199Y-41060799D01*
X44410926Y-41064226D01*
X44402653Y-41060799D01*
X44401308Y-41059188D01*
X44310571Y-40928189D01*
X44218409Y-40795132D01*
X44216516Y-40786382D01*
X44219725Y-40780228D01*
X44418757Y-40579865D01*
X44427018Y-40576412D01*
X44431543Y-40577307D01*
G37*
%TD.AperFunction*%
%TD*%
%TA.AperFunction,Conductor*%
%TO.N,Earth*%
G36*
X85995378Y-49775423D02*
G01*
X85999892Y-49783156D01*
X86000000Y-49784739D01*
X86000000Y-50231275D01*
X85996573Y-50239548D01*
X85988300Y-50242975D01*
X85983171Y-50241791D01*
X85735643Y-50121052D01*
X85729709Y-50114345D01*
X85730256Y-50105407D01*
X85731451Y-50103464D01*
X85978984Y-49777660D01*
X85986717Y-49773147D01*
X85995378Y-49775423D01*
G37*
%TD.AperFunction*%
%TD*%
%TA.AperFunction,Conductor*%
%TO.N,GND*%
G36*
X60183760Y-54433427D02*
G01*
X60186941Y-54439313D01*
X60285312Y-54911298D01*
X60285065Y-54917046D01*
X59941207Y-56063630D01*
X59935548Y-56070570D01*
X59926639Y-56071476D01*
X59919699Y-56065817D01*
X59918793Y-56063630D01*
X59843403Y-55812246D01*
X59574968Y-54917161D01*
X59574771Y-54911195D01*
X59682918Y-54439086D01*
X59688106Y-54431788D01*
X59694323Y-54430000D01*
X60175487Y-54430000D01*
X60183760Y-54433427D01*
G37*
%TD.AperFunction*%
%TD*%
%TA.AperFunction,Conductor*%
%TO.N,+5VL*%
G36*
X47528211Y-39077582D02*
G01*
X47709435Y-39223317D01*
X47713735Y-39231172D01*
X47711221Y-39239767D01*
X47710864Y-39240190D01*
X47487529Y-39492494D01*
X47479479Y-39496417D01*
X47471275Y-39493725D01*
X47218165Y-39282684D01*
X47214006Y-39274754D01*
X47215483Y-39267922D01*
X47321637Y-39080924D01*
X47328702Y-39075421D01*
X47331812Y-39075000D01*
X47520879Y-39075000D01*
X47528211Y-39077582D01*
G37*
%TD.AperFunction*%
%TD*%
%TA.AperFunction,Conductor*%
%TO.N,GND*%
G36*
X44528211Y-58577582D02*
G01*
X44709435Y-58723317D01*
X44713735Y-58731172D01*
X44711221Y-58739767D01*
X44710864Y-58740190D01*
X44487529Y-58992494D01*
X44479479Y-58996417D01*
X44471275Y-58993725D01*
X44218165Y-58782684D01*
X44214006Y-58774754D01*
X44215483Y-58767922D01*
X44321637Y-58580924D01*
X44328702Y-58575421D01*
X44331812Y-58575000D01*
X44520879Y-58575000D01*
X44528211Y-58577582D01*
G37*
%TD.AperFunction*%
%TD*%
%TA.AperFunction,Conductor*%
%TO.N,+5VL*%
G36*
X58913950Y-54433427D02*
G01*
X58917081Y-54439087D01*
X58917133Y-54439313D01*
X59025228Y-54911191D01*
X59025030Y-54917164D01*
X58681207Y-56063630D01*
X58675548Y-56070570D01*
X58666639Y-56071476D01*
X58659699Y-56065817D01*
X58658793Y-56063630D01*
X58525691Y-55619809D01*
X58314933Y-54917044D01*
X58314687Y-54911300D01*
X58413059Y-54439313D01*
X58418102Y-54431913D01*
X58424513Y-54430000D01*
X58905677Y-54430000D01*
X58913950Y-54433427D01*
G37*
%TD.AperFunction*%
%TD*%
%TA.AperFunction,Conductor*%
%TO.N,+5V*%
G36*
X83011106Y-59224577D02*
G01*
X83333806Y-59396696D01*
X83339493Y-59403613D01*
X83340000Y-59407019D01*
X83340000Y-59592980D01*
X83336573Y-59601253D01*
X83333806Y-59603303D01*
X83011106Y-59775422D01*
X83002194Y-59776292D01*
X82996456Y-59772398D01*
X82861467Y-59603303D01*
X82784825Y-59507297D01*
X82782343Y-59498696D01*
X82784825Y-59492703D01*
X82996457Y-59227599D01*
X83004296Y-59223273D01*
X83011106Y-59224577D01*
G37*
%TD.AperFunction*%
%TD*%
%TA.AperFunction,Conductor*%
%TO.N,Earth*%
G36*
X95347618Y-47901051D02*
G01*
X95924272Y-47949106D01*
X95932232Y-47953208D01*
X95935000Y-47960766D01*
X95935000Y-48439234D01*
X95931573Y-48447507D01*
X95924272Y-48450894D01*
X95347629Y-48498947D01*
X95339099Y-48496219D01*
X95334997Y-48488259D01*
X95334957Y-48487345D01*
X95334000Y-48200000D01*
X95334957Y-47912671D01*
X95338411Y-47904411D01*
X95346696Y-47901012D01*
X95347618Y-47901051D01*
G37*
%TD.AperFunction*%
%TD*%
%TA.AperFunction,Conductor*%
%TO.N,Earth*%
G36*
X88395892Y-54880130D02*
G01*
X88400241Y-54887957D01*
X88400314Y-54889007D01*
X88412008Y-55365696D01*
X88408786Y-55374051D01*
X88408585Y-55374256D01*
X88279863Y-55502978D01*
X88271590Y-55506405D01*
X88263317Y-55502978D01*
X88262526Y-55502103D01*
X88101311Y-55304564D01*
X88098735Y-55295987D01*
X88099033Y-55294298D01*
X88197307Y-54907113D01*
X88202663Y-54899939D01*
X88207305Y-54898371D01*
X88387283Y-54877671D01*
X88395892Y-54880130D01*
G37*
%TD.AperFunction*%
%TD*%
%TA.AperFunction,Conductor*%
%TO.N,+3V3*%
G36*
X94751595Y-56406638D02*
G01*
X95194278Y-56645005D01*
X95199937Y-56651944D01*
X95199555Y-56659747D01*
X95102564Y-56896180D01*
X95096253Y-56902533D01*
X95096180Y-56902564D01*
X94859747Y-56999555D01*
X94850792Y-56999524D01*
X94845005Y-56994278D01*
X94606638Y-56551596D01*
X94605734Y-56542689D01*
X94608666Y-56537780D01*
X94737779Y-56408667D01*
X94746051Y-56405241D01*
X94751595Y-56406638D01*
G37*
%TD.AperFunction*%
%TD*%
%TA.AperFunction,Conductor*%
%TO.N,GND*%
G36*
X58864114Y-45924963D02*
G01*
X58872375Y-45928417D01*
X58875746Y-45935861D01*
X58914141Y-46494596D01*
X58911290Y-46503085D01*
X58903271Y-46507070D01*
X58902469Y-46507098D01*
X58424129Y-46507098D01*
X58415856Y-46503671D01*
X58412780Y-46498243D01*
X58300283Y-46049566D01*
X58301595Y-46040708D01*
X58307119Y-46035926D01*
X58572822Y-45924909D01*
X58577362Y-45924007D01*
X58864114Y-45924963D01*
G37*
%TD.AperFunction*%
%TD*%
%TA.AperFunction,Conductor*%
%TO.N,GND*%
G36*
X46597346Y-39439200D02*
G01*
X46598691Y-39440811D01*
X46781589Y-39704865D01*
X46783483Y-39713617D01*
X46780272Y-39719773D01*
X46581243Y-39920133D01*
X46572981Y-39923587D01*
X46568452Y-39922691D01*
X46416959Y-39859715D01*
X46310651Y-39815522D01*
X46304327Y-39809182D01*
X46304338Y-39800227D01*
X46305249Y-39798471D01*
X46448598Y-39571804D01*
X46450205Y-39569795D01*
X46580801Y-39439199D01*
X46589073Y-39435773D01*
X46597346Y-39439200D01*
G37*
%TD.AperFunction*%
%TD*%
%TA.AperFunction,Conductor*%
%TO.N,/MCU/LED_BUILTIN*%
G36*
X89087764Y-54099959D02*
G01*
X89096026Y-54103413D01*
X89099425Y-54111698D01*
X89099412Y-54112221D01*
X89075535Y-54609100D01*
X89071715Y-54617199D01*
X89063848Y-54620238D01*
X88929541Y-54620238D01*
X88921648Y-54617175D01*
X88912812Y-54609100D01*
X88596881Y-54320369D01*
X88593086Y-54312258D01*
X88596137Y-54303839D01*
X88596481Y-54303478D01*
X88796555Y-54102461D01*
X88804817Y-54099016D01*
X89087764Y-54099959D01*
G37*
%TD.AperFunction*%
%TD*%
%TA.AperFunction,Conductor*%
%TO.N,IMU_INT*%
G36*
X87234106Y-53589822D02*
G01*
X87410110Y-53662092D01*
X87496184Y-53697436D01*
X87502536Y-53703748D01*
X87502563Y-53703815D01*
X87610169Y-53965874D01*
X87610142Y-53974829D01*
X87603790Y-53981141D01*
X87603331Y-53981319D01*
X87118087Y-54157084D01*
X87109141Y-54156679D01*
X87105829Y-54154356D01*
X87045643Y-54094170D01*
X87042216Y-54085897D01*
X87042915Y-54081912D01*
X87218680Y-53596668D01*
X87224720Y-53590057D01*
X87233666Y-53589652D01*
X87234106Y-53589822D01*
G37*
%TD.AperFunction*%
%TD*%
%TA.AperFunction,Conductor*%
%TO.N,Earth*%
G36*
X95906804Y-51432207D02*
G01*
X96261909Y-51547376D01*
X96268722Y-51553188D01*
X96270000Y-51558505D01*
X96270000Y-52041494D01*
X96266573Y-52049767D01*
X96261909Y-52052623D01*
X95906804Y-52167792D01*
X95897878Y-52167085D01*
X95894933Y-52164947D01*
X95537305Y-51808283D01*
X95533868Y-51800016D01*
X95537284Y-51791738D01*
X95537306Y-51791716D01*
X95894935Y-51435051D01*
X95903211Y-51431636D01*
X95906804Y-51432207D01*
G37*
%TD.AperFunction*%
%TD*%
%TA.AperFunction,Conductor*%
%TO.N,Earth*%
G36*
X86261693Y-51261684D02*
G01*
X86972695Y-51971706D01*
X86976128Y-51979977D01*
X86972707Y-51988252D01*
X86972681Y-51988278D01*
X86261743Y-52695791D01*
X86253462Y-52699198D01*
X86247055Y-52697269D01*
X85535265Y-52228467D01*
X85530240Y-52221055D01*
X85530000Y-52218696D01*
X85530000Y-51731358D01*
X85533427Y-51723085D01*
X85535331Y-51721544D01*
X86247064Y-51260144D01*
X86255868Y-51258521D01*
X86261693Y-51261684D01*
G37*
%TD.AperFunction*%
%TD*%
%TA.AperFunction,Conductor*%
%TO.N,Earth*%
G36*
X83276970Y-50533427D02*
G01*
X83278466Y-50535262D01*
X83560300Y-50963176D01*
X83747270Y-51247055D01*
X83748959Y-51255849D01*
X83745792Y-51261743D01*
X83038278Y-51972681D01*
X83030013Y-51976128D01*
X83021732Y-51972721D01*
X83021706Y-51972695D01*
X82311684Y-51261693D01*
X82308263Y-51253418D01*
X82310144Y-51247064D01*
X82771541Y-50535336D01*
X82778917Y-50530258D01*
X82781359Y-50530000D01*
X83268697Y-50530000D01*
X83276970Y-50533427D01*
G37*
%TD.AperFunction*%
%TD*%
%TA.AperFunction,Conductor*%
%TO.N,GND*%
G36*
X41432252Y-43577030D02*
G01*
X41691588Y-43685386D01*
X41697900Y-43691738D01*
X41697963Y-43700469D01*
X41582919Y-43992587D01*
X41576699Y-43999029D01*
X41572033Y-44000000D01*
X41385688Y-44000000D01*
X41377415Y-43996573D01*
X41376486Y-43995525D01*
X41374179Y-43992587D01*
X41219261Y-43795274D01*
X41216847Y-43786651D01*
X41220169Y-43779796D01*
X41419453Y-43579572D01*
X41427717Y-43576127D01*
X41432252Y-43577030D01*
G37*
%TD.AperFunction*%
%TD*%
%TA.AperFunction,Conductor*%
%TO.N,LED_DATA*%
G36*
X81500660Y-54425293D02*
G01*
X81736424Y-54497817D01*
X81743324Y-54503525D01*
X81744567Y-54507347D01*
X81799330Y-54891065D01*
X81797106Y-54899739D01*
X81791473Y-54903809D01*
X81610733Y-54964532D01*
X81601799Y-54963918D01*
X81596044Y-54957528D01*
X81425849Y-54500975D01*
X81426170Y-54492029D01*
X81428536Y-54488621D01*
X81488954Y-54428203D01*
X81497226Y-54424777D01*
X81500660Y-54425293D01*
G37*
%TD.AperFunction*%
%TD*%
%TA.AperFunction,Conductor*%
%TO.N,Earth*%
G36*
X85732935Y-51260144D02*
G01*
X86444664Y-51721541D01*
X86449742Y-51728916D01*
X86450000Y-51731358D01*
X86450000Y-52218696D01*
X86446573Y-52226969D01*
X86444735Y-52228467D01*
X85732944Y-52697269D01*
X85724150Y-52698958D01*
X85718257Y-52695791D01*
X85007317Y-51988277D01*
X85003871Y-51980013D01*
X85007277Y-51971734D01*
X85718307Y-51261683D01*
X85726581Y-51258263D01*
X85732935Y-51260144D01*
G37*
%TD.AperFunction*%
%TD*%
%TA.AperFunction,Conductor*%
%TO.N,+5V*%
G36*
X87666851Y-57100496D02*
G01*
X87673163Y-57106848D01*
X87673330Y-57115305D01*
X87502807Y-57582313D01*
X87496751Y-57588909D01*
X87491817Y-57590000D01*
X87308183Y-57590000D01*
X87299910Y-57586573D01*
X87297193Y-57582313D01*
X87126669Y-57115302D01*
X87127050Y-57106358D01*
X87133147Y-57100496D01*
X87395490Y-56990883D01*
X87404444Y-56990857D01*
X87666851Y-57100496D01*
G37*
%TD.AperFunction*%
%TD*%
%TA.AperFunction,Conductor*%
%TO.N,LED_DATA*%
G36*
X80865904Y-50110100D02*
G01*
X80872216Y-50116452D01*
X80872189Y-50125407D01*
X80871989Y-50125857D01*
X80653155Y-50593261D01*
X80646544Y-50599301D01*
X80642559Y-50600000D01*
X80557441Y-50600000D01*
X80549168Y-50596573D01*
X80546845Y-50593261D01*
X80328010Y-50125857D01*
X80327605Y-50116911D01*
X80333645Y-50110300D01*
X80334066Y-50110112D01*
X80595490Y-50000883D01*
X80604444Y-50000857D01*
X80865904Y-50110100D01*
G37*
%TD.AperFunction*%
%TD*%
%TA.AperFunction,Conductor*%
%TO.N,+5VL*%
G36*
X42932252Y-57077030D02*
G01*
X43191588Y-57185386D01*
X43197900Y-57191738D01*
X43197963Y-57200469D01*
X43082919Y-57492587D01*
X43076699Y-57499029D01*
X43072033Y-57500000D01*
X42885688Y-57500000D01*
X42877415Y-57496573D01*
X42876486Y-57495525D01*
X42874179Y-57492587D01*
X42719261Y-57295274D01*
X42716847Y-57286651D01*
X42720169Y-57279796D01*
X42919453Y-57079572D01*
X42927717Y-57076127D01*
X42932252Y-57077030D01*
G37*
%TD.AperFunction*%
%TD*%
%TA.AperFunction,Conductor*%
%TO.N,+5V*%
G36*
X76582507Y-55403427D02*
G01*
X76585894Y-55410728D01*
X76633947Y-55987370D01*
X76631219Y-55995900D01*
X76623259Y-56000002D01*
X76622326Y-56000042D01*
X76335039Y-56000999D01*
X76334961Y-56000999D01*
X76047673Y-56000042D01*
X76039411Y-55996588D01*
X76036012Y-55988303D01*
X76036052Y-55987370D01*
X76084106Y-55410728D01*
X76088208Y-55402768D01*
X76095766Y-55400000D01*
X76574234Y-55400000D01*
X76582507Y-55403427D01*
G37*
%TD.AperFunction*%
%TD*%
%TA.AperFunction,Conductor*%
%TO.N,GND*%
G36*
X52597346Y-60439200D02*
G01*
X52598691Y-60440811D01*
X52781589Y-60704865D01*
X52783483Y-60713617D01*
X52780272Y-60719773D01*
X52581243Y-60920133D01*
X52572981Y-60923587D01*
X52568452Y-60922691D01*
X52416959Y-60859715D01*
X52310651Y-60815522D01*
X52304327Y-60809182D01*
X52304338Y-60800227D01*
X52305249Y-60798471D01*
X52448598Y-60571804D01*
X52450205Y-60569795D01*
X52580801Y-60439199D01*
X52589073Y-60435773D01*
X52597346Y-60439200D01*
G37*
%TD.AperFunction*%
%TD*%
%TA.AperFunction,Conductor*%
%TO.N,+5VL*%
G36*
X40597346Y-55939200D02*
G01*
X40598691Y-55940811D01*
X40781589Y-56204865D01*
X40783483Y-56213617D01*
X40780272Y-56219773D01*
X40581243Y-56420133D01*
X40572981Y-56423587D01*
X40568452Y-56422691D01*
X40416959Y-56359715D01*
X40310651Y-56315522D01*
X40304327Y-56309182D01*
X40304338Y-56300227D01*
X40305249Y-56298471D01*
X40448598Y-56071804D01*
X40450205Y-56069795D01*
X40580801Y-55939199D01*
X40589073Y-55935773D01*
X40597346Y-55939200D01*
G37*
%TD.AperFunction*%
%TD*%
%TA.AperFunction,Conductor*%
%TO.N,Earth*%
G36*
X93855962Y-58055938D02*
G01*
X94092676Y-58291710D01*
X94096119Y-58299977D01*
X94092709Y-58308257D01*
X94092676Y-58308290D01*
X93855962Y-58544061D01*
X93847682Y-58547471D01*
X93842473Y-58546236D01*
X93606468Y-58428234D01*
X93600600Y-58421469D01*
X93600000Y-58417769D01*
X93600000Y-58182231D01*
X93603427Y-58173958D01*
X93606468Y-58171766D01*
X93842474Y-58053762D01*
X93851405Y-58053128D01*
X93855962Y-58055938D01*
G37*
%TD.AperFunction*%
%TD*%
%TA.AperFunction,Conductor*%
%TO.N,Earth*%
G36*
X91467318Y-56410691D02*
G01*
X91473629Y-56417042D01*
X91473970Y-56424987D01*
X91327571Y-56891801D01*
X91321825Y-56898670D01*
X91316407Y-56900000D01*
X91083593Y-56900000D01*
X91075320Y-56896573D01*
X91072429Y-56891801D01*
X90926029Y-56424987D01*
X90926823Y-56416068D01*
X90932679Y-56410692D01*
X91195490Y-56300883D01*
X91204444Y-56300857D01*
X91467318Y-56410691D01*
G37*
%TD.AperFunction*%
%TD*%
%TA.AperFunction,Conductor*%
%TO.N,GND*%
G36*
X46597346Y-60439200D02*
G01*
X46598691Y-60440811D01*
X46781589Y-60704865D01*
X46783483Y-60713617D01*
X46780272Y-60719773D01*
X46581243Y-60920133D01*
X46572981Y-60923587D01*
X46568452Y-60922691D01*
X46416959Y-60859715D01*
X46310651Y-60815522D01*
X46304327Y-60809182D01*
X46304338Y-60800227D01*
X46305249Y-60798471D01*
X46448598Y-60571804D01*
X46450205Y-60569795D01*
X46580801Y-60439199D01*
X46589073Y-60435773D01*
X46597346Y-60439200D01*
G37*
%TD.AperFunction*%
%TD*%
%TA.AperFunction,Conductor*%
%TO.N,+5VL*%
G36*
X55528724Y-41006274D02*
G01*
X55781834Y-41217315D01*
X55785993Y-41225245D01*
X55784516Y-41232077D01*
X55678363Y-41419076D01*
X55671299Y-41424579D01*
X55668188Y-41425000D01*
X55479121Y-41425000D01*
X55471789Y-41422418D01*
X55290564Y-41276682D01*
X55286264Y-41268827D01*
X55288778Y-41260232D01*
X55289108Y-41259840D01*
X55512472Y-41007503D01*
X55520520Y-41003582D01*
X55528724Y-41006274D01*
G37*
%TD.AperFunction*%
%TD*%
%TA.AperFunction,Conductor*%
%TO.N,+5VL*%
G36*
X58910742Y-55846329D02*
G01*
X58914169Y-55854602D01*
X58914141Y-55855404D01*
X58875746Y-56414138D01*
X58871761Y-56422157D01*
X58864113Y-56425036D01*
X58577367Y-56425992D01*
X58572817Y-56425088D01*
X58572606Y-56425000D01*
X58524784Y-56405018D01*
X58307121Y-56314074D01*
X58300809Y-56307722D01*
X58300283Y-56300434D01*
X58384562Y-55964299D01*
X58412780Y-55851757D01*
X58418116Y-55844565D01*
X58424129Y-55842902D01*
X58902469Y-55842902D01*
X58910742Y-55846329D01*
G37*
%TD.AperFunction*%
%TD*%
%TA.AperFunction,Conductor*%
%TO.N,Earth*%
G36*
X86261725Y-49281716D02*
G01*
X86658952Y-49678396D01*
X86972709Y-49991721D01*
X86976142Y-49999992D01*
X86972721Y-50008267D01*
X86972709Y-50008279D01*
X86261727Y-50718282D01*
X86253452Y-50721703D01*
X86247048Y-50719790D01*
X85535288Y-50253464D01*
X85530246Y-50246063D01*
X85530000Y-50243677D01*
X85530000Y-49756322D01*
X85533427Y-49748049D01*
X85535285Y-49746537D01*
X86247049Y-49280208D01*
X86255846Y-49278542D01*
X86261725Y-49281716D01*
G37*
%TD.AperFunction*%
%TD*%
%TA.AperFunction,Conductor*%
%TO.N,Net-(U1-GPIO20{slash}U0RXD)*%
G36*
X78706460Y-49803222D02*
G01*
X78921828Y-49910637D01*
X79080007Y-49989530D01*
X79085881Y-49996289D01*
X79085255Y-50005222D01*
X79080007Y-50010470D01*
X78706463Y-50196776D01*
X78697530Y-50197402D01*
X78694221Y-50195666D01*
X78504680Y-50053510D01*
X78500118Y-50045805D01*
X78500000Y-50044150D01*
X78500000Y-49955850D01*
X78503427Y-49947577D01*
X78504680Y-49946490D01*
X78694223Y-49804332D01*
X78702896Y-49802111D01*
X78706460Y-49803222D01*
G37*
%TD.AperFunction*%
%TD*%
%TA.AperFunction,Conductor*%
%TO.N,+5VL*%
G36*
X40528724Y-56006274D02*
G01*
X40781834Y-56217315D01*
X40785993Y-56225245D01*
X40784516Y-56232077D01*
X40678363Y-56419076D01*
X40671299Y-56424579D01*
X40668188Y-56425000D01*
X40479121Y-56425000D01*
X40471789Y-56422418D01*
X40290564Y-56276682D01*
X40286264Y-56268827D01*
X40288778Y-56260232D01*
X40289108Y-56259840D01*
X40512472Y-56007503D01*
X40520520Y-56003582D01*
X40528724Y-56006274D01*
G37*
%TD.AperFunction*%
%TD*%
%TA.AperFunction,Conductor*%
%TO.N,+5VL*%
G36*
X58680301Y-52334182D02*
G01*
X58681207Y-52336369D01*
X59025030Y-53482835D01*
X59025228Y-53488808D01*
X58917134Y-53960687D01*
X58917082Y-53960912D01*
X58911894Y-53968212D01*
X58905677Y-53970000D01*
X58424513Y-53970000D01*
X58416240Y-53966573D01*
X58413059Y-53960687D01*
X58409098Y-53941685D01*
X58314687Y-53488699D01*
X58314933Y-53482955D01*
X58658793Y-52336368D01*
X58664452Y-52329429D01*
X58673361Y-52328523D01*
X58680301Y-52334182D01*
G37*
%TD.AperFunction*%
%TD*%
%TA.AperFunction,Conductor*%
%TO.N,+5V*%
G36*
X76340589Y-52428509D02*
G01*
X76341006Y-52429514D01*
X76684794Y-53382680D01*
X76685242Y-53389037D01*
X76586941Y-53860687D01*
X76581898Y-53868087D01*
X76575487Y-53870000D01*
X76094323Y-53870000D01*
X76086050Y-53866573D01*
X76082918Y-53860912D01*
X76082866Y-53860687D01*
X75974849Y-53389144D01*
X75975248Y-53382562D01*
X76318994Y-52429514D01*
X76325025Y-52422895D01*
X76333970Y-52422478D01*
X76340589Y-52428509D01*
G37*
%TD.AperFunction*%
%TD*%
%TA.AperFunction,Conductor*%
%TO.N,+5VL*%
G36*
X53503920Y-60012626D02*
G01*
X53503983Y-60012689D01*
X53711335Y-60223228D01*
X53714699Y-60231527D01*
X53711767Y-60239185D01*
X53489448Y-60490812D01*
X53481402Y-60494743D01*
X53472933Y-60491833D01*
X53471935Y-60490837D01*
X53249435Y-60240490D01*
X53246500Y-60232030D01*
X53250408Y-60223973D01*
X53251128Y-60223382D01*
X53354290Y-60145711D01*
X53487375Y-60012625D01*
X53495647Y-60009199D01*
X53503920Y-60012626D01*
G37*
%TD.AperFunction*%
%TD*%
%TA.AperFunction,Conductor*%
%TO.N,Earth*%
G36*
X84012618Y-49701051D02*
G01*
X84589272Y-49749106D01*
X84597232Y-49753208D01*
X84600000Y-49760766D01*
X84600000Y-50239234D01*
X84596573Y-50247507D01*
X84589272Y-50250894D01*
X84012629Y-50298947D01*
X84004099Y-50296219D01*
X83999997Y-50288259D01*
X83999957Y-50287345D01*
X83999000Y-50000000D01*
X83999957Y-49712671D01*
X84003411Y-49704411D01*
X84011696Y-49701012D01*
X84012618Y-49701051D01*
G37*
%TD.AperFunction*%
%TD*%
%TA.AperFunction,Conductor*%
%TO.N,Earth*%
G36*
X83995900Y-49703780D02*
G01*
X84000002Y-49711740D01*
X84000042Y-49712673D01*
X84001000Y-50000000D01*
X84001000Y-50000078D01*
X84000042Y-50287326D01*
X83996588Y-50295588D01*
X83988303Y-50298987D01*
X83987370Y-50298947D01*
X83410728Y-50250894D01*
X83402768Y-50246792D01*
X83400000Y-50239234D01*
X83400000Y-49760766D01*
X83403427Y-49752493D01*
X83410728Y-49749106D01*
X83987371Y-49701052D01*
X83995900Y-49703780D01*
G37*
%TD.AperFunction*%
%TD*%
%TA.AperFunction,Conductor*%
%TO.N,+5VL*%
G36*
X55597346Y-58939200D02*
G01*
X55598691Y-58940811D01*
X55781589Y-59204865D01*
X55783483Y-59213617D01*
X55780272Y-59219773D01*
X55581243Y-59420133D01*
X55572981Y-59423587D01*
X55568452Y-59422691D01*
X55416959Y-59359715D01*
X55310651Y-59315522D01*
X55304327Y-59309182D01*
X55304338Y-59300227D01*
X55305249Y-59298471D01*
X55448598Y-59071804D01*
X55450205Y-59069795D01*
X55580801Y-58939199D01*
X55589073Y-58935773D01*
X55597346Y-58939200D01*
G37*
%TD.AperFunction*%
%TD*%
%TA.AperFunction,Conductor*%
%TO.N,+3V3*%
G36*
X94816851Y-54610496D02*
G01*
X94823163Y-54616848D01*
X94823330Y-54625305D01*
X94652807Y-55092313D01*
X94646751Y-55098909D01*
X94641817Y-55100000D01*
X94458183Y-55100000D01*
X94449910Y-55096573D01*
X94447193Y-55092313D01*
X94276669Y-54625302D01*
X94277050Y-54616358D01*
X94283147Y-54610496D01*
X94545490Y-54500883D01*
X94554444Y-54500857D01*
X94816851Y-54610496D01*
G37*
%TD.AperFunction*%
%TD*%
%TA.AperFunction,Conductor*%
%TO.N,+3V3*%
G36*
X83011106Y-61624577D02*
G01*
X83333806Y-61796696D01*
X83339493Y-61803613D01*
X83340000Y-61807019D01*
X83340000Y-61992980D01*
X83336573Y-62001253D01*
X83333806Y-62003303D01*
X83011106Y-62175422D01*
X83002194Y-62176292D01*
X82996456Y-62172398D01*
X82861467Y-62003303D01*
X82784825Y-61907297D01*
X82782343Y-61898696D01*
X82784825Y-61892703D01*
X82996457Y-61627599D01*
X83004296Y-61623273D01*
X83011106Y-61624577D01*
G37*
%TD.AperFunction*%
%TD*%
%TA.AperFunction,Conductor*%
%TO.N,Earth*%
G36*
X85732950Y-49280208D02*
G01*
X86444712Y-49746535D01*
X86449754Y-49753936D01*
X86450000Y-49756322D01*
X86450000Y-50243677D01*
X86446573Y-50251950D01*
X86444712Y-50253464D01*
X85732951Y-50719790D01*
X85724153Y-50721457D01*
X85718273Y-50718282D01*
X85007289Y-50008278D01*
X85003857Y-50000008D01*
X85007278Y-49991733D01*
X85007290Y-49991721D01*
X85718274Y-49281715D01*
X85726547Y-49278296D01*
X85732950Y-49280208D01*
G37*
%TD.AperFunction*%
%TD*%
%TA.AperFunction,Conductor*%
%TO.N,+5VL*%
G36*
X40978991Y-52881461D02*
G01*
X40982418Y-52889734D01*
X40982189Y-52892037D01*
X40854955Y-53525896D01*
X40849967Y-53533333D01*
X40841181Y-53535064D01*
X40839040Y-53534416D01*
X40575066Y-53426027D01*
X40575011Y-53425972D01*
X40575000Y-53426000D01*
X40308770Y-53314763D01*
X40302459Y-53308412D01*
X40302485Y-53299458D01*
X40431640Y-53001241D01*
X40481947Y-52885084D01*
X40488379Y-52878854D01*
X40492683Y-52878034D01*
X40970718Y-52878034D01*
X40978991Y-52881461D01*
G37*
%TD.AperFunction*%
%TD*%
%TA.AperFunction,Conductor*%
%TO.N,Earth*%
G36*
X96432121Y-47832914D02*
G01*
X96435066Y-47835052D01*
X96792693Y-48191716D01*
X96796131Y-48199984D01*
X96792715Y-48208262D01*
X96792693Y-48208284D01*
X96435066Y-48564947D01*
X96426788Y-48568363D01*
X96423194Y-48567792D01*
X96068090Y-48452623D01*
X96061278Y-48446811D01*
X96060000Y-48441494D01*
X96060000Y-47958505D01*
X96063427Y-47950232D01*
X96068089Y-47947376D01*
X96423194Y-47832207D01*
X96432121Y-47832914D01*
G37*
%TD.AperFunction*%
%TD*%
%TA.AperFunction,Conductor*%
%TO.N,GND*%
G36*
X39065642Y-51724189D02*
G01*
X39069956Y-51732036D01*
X39070027Y-51733321D01*
X39070027Y-52179538D01*
X39066600Y-52187811D01*
X39058327Y-52191238D01*
X39052393Y-52189621D01*
X38809480Y-52046658D01*
X38804088Y-52039509D01*
X38805331Y-52030641D01*
X38806277Y-52029266D01*
X39049196Y-51726005D01*
X39057042Y-51721692D01*
X39065642Y-51724189D01*
G37*
%TD.AperFunction*%
%TD*%
%TA.AperFunction,Conductor*%
%TO.N,GND*%
G36*
X50961863Y-39441864D02*
G01*
X51090710Y-39570711D01*
X51276014Y-39704821D01*
X51280707Y-39712447D01*
X51278632Y-39721159D01*
X51277427Y-39722572D01*
X51079839Y-39920160D01*
X51071566Y-39923587D01*
X51067056Y-39922683D01*
X50808444Y-39814627D01*
X50802133Y-39808276D01*
X50802084Y-39799511D01*
X50942719Y-39445812D01*
X50948959Y-39439393D01*
X50957913Y-39439265D01*
X50961863Y-39441864D01*
G37*
%TD.AperFunction*%
%TD*%
%TA.AperFunction,Conductor*%
%TO.N,Earth*%
G36*
X85732935Y-47310144D02*
G01*
X86444664Y-47771541D01*
X86449742Y-47778916D01*
X86450000Y-47781358D01*
X86450000Y-48268696D01*
X86446573Y-48276969D01*
X86444735Y-48278467D01*
X85732944Y-48747269D01*
X85724150Y-48748958D01*
X85718257Y-48745791D01*
X85007317Y-48038277D01*
X85003871Y-48030013D01*
X85007277Y-48021734D01*
X85718307Y-47311683D01*
X85726581Y-47308263D01*
X85732935Y-47310144D01*
G37*
%TD.AperFunction*%
%TD*%
%TA.AperFunction,Conductor*%
%TO.N,Earth*%
G36*
X83762935Y-47310144D02*
G01*
X84474664Y-47771541D01*
X84479742Y-47778916D01*
X84480000Y-47781358D01*
X84480000Y-48268696D01*
X84476573Y-48276969D01*
X84474735Y-48278467D01*
X83762944Y-48747269D01*
X83754150Y-48748958D01*
X83748257Y-48745791D01*
X83037317Y-48038277D01*
X83033871Y-48030013D01*
X83037277Y-48021734D01*
X83748307Y-47311683D01*
X83756581Y-47308263D01*
X83762935Y-47310144D01*
G37*
%TD.AperFunction*%
%TD*%
%TA.AperFunction,Conductor*%
%TO.N,GND*%
G36*
X51027528Y-39507504D02*
G01*
X51213039Y-39717078D01*
X51251073Y-39760045D01*
X51253990Y-39768511D01*
X51250067Y-39776561D01*
X51249879Y-39776724D01*
X51078273Y-39922224D01*
X51070708Y-39925000D01*
X50881527Y-39925000D01*
X50873254Y-39921573D01*
X50871571Y-39919446D01*
X50755987Y-39732210D01*
X50754557Y-39723370D01*
X50758450Y-39717078D01*
X51011276Y-39506273D01*
X51019824Y-39503608D01*
X51027528Y-39507504D01*
G37*
%TD.AperFunction*%
%TD*%
%TA.AperFunction,Conductor*%
%TO.N,Earth*%
G36*
X74039687Y-52896854D02*
G01*
X74040313Y-52897537D01*
X74414086Y-53339269D01*
X74416814Y-53347798D01*
X74413427Y-53355099D01*
X74075099Y-53693427D01*
X74066826Y-53696854D01*
X74059269Y-53694086D01*
X73617541Y-53320317D01*
X73613440Y-53312358D01*
X73616168Y-53303828D01*
X73616783Y-53303156D01*
X73819293Y-53099293D01*
X74023142Y-52896798D01*
X74031425Y-52893400D01*
X74039687Y-52896854D01*
G37*
%TD.AperFunction*%
%TD*%
%TA.AperFunction,Conductor*%
%TO.N,Earth*%
G36*
X84281693Y-51261684D02*
G01*
X84992695Y-51971706D01*
X84996128Y-51979977D01*
X84992707Y-51988252D01*
X84992681Y-51988278D01*
X84281743Y-52695791D01*
X84273462Y-52699198D01*
X84267055Y-52697269D01*
X83555265Y-52228467D01*
X83550240Y-52221055D01*
X83550000Y-52218696D01*
X83550000Y-51731358D01*
X83553427Y-51723085D01*
X83555331Y-51721544D01*
X84267064Y-51260144D01*
X84275868Y-51258521D01*
X84281693Y-51261684D01*
G37*
%TD.AperFunction*%
%TD*%
%TA.AperFunction,Conductor*%
%TO.N,+5VL*%
G36*
X47528211Y-60077582D02*
G01*
X47709435Y-60223317D01*
X47713735Y-60231172D01*
X47711221Y-60239767D01*
X47710864Y-60240190D01*
X47487529Y-60492494D01*
X47479479Y-60496417D01*
X47471275Y-60493725D01*
X47218165Y-60282684D01*
X47214006Y-60274754D01*
X47215483Y-60267922D01*
X47321637Y-60080924D01*
X47328702Y-60075421D01*
X47331812Y-60075000D01*
X47520879Y-60075000D01*
X47528211Y-60077582D01*
G37*
%TD.AperFunction*%
%TD*%
%TA.AperFunction,Conductor*%
%TO.N,+5VL*%
G36*
X58864114Y-53424963D02*
G01*
X58872375Y-53428417D01*
X58875746Y-53435861D01*
X58914141Y-53994596D01*
X58911290Y-54003085D01*
X58903271Y-54007070D01*
X58902469Y-54007098D01*
X58424129Y-54007098D01*
X58415856Y-54003671D01*
X58412780Y-53998243D01*
X58300283Y-53549566D01*
X58301595Y-53540708D01*
X58307119Y-53535926D01*
X58572822Y-53424909D01*
X58577362Y-53424007D01*
X58864114Y-53424963D01*
G37*
%TD.AperFunction*%
%TD*%
%TA.AperFunction,Conductor*%
%TO.N,GND*%
G36*
X41431543Y-55577307D02*
G01*
X41689348Y-55684477D01*
X41695672Y-55690817D01*
X41695661Y-55699772D01*
X41694745Y-55701535D01*
X41551405Y-55928189D01*
X41549790Y-55930208D01*
X41419199Y-56060799D01*
X41410926Y-56064226D01*
X41402653Y-56060799D01*
X41401308Y-56059188D01*
X41310571Y-55928189D01*
X41218409Y-55795132D01*
X41216516Y-55786382D01*
X41219725Y-55780228D01*
X41418757Y-55579865D01*
X41427018Y-55576412D01*
X41431543Y-55577307D01*
G37*
%TD.AperFunction*%
%TD*%
%TA.AperFunction,Conductor*%
%TO.N,+5V*%
G36*
X83011286Y-56877195D02*
G01*
X83015511Y-56880208D01*
X83348432Y-57253978D01*
X83351376Y-57262434D01*
X83347968Y-57270032D01*
X83009992Y-57608008D01*
X83001719Y-57611435D01*
X82993983Y-57608512D01*
X82649499Y-57304830D01*
X82645559Y-57296788D01*
X82645953Y-57292956D01*
X82727772Y-56994832D01*
X82733265Y-56987764D01*
X82734602Y-56987112D01*
X83002334Y-56877168D01*
X83011286Y-56877195D01*
G37*
%TD.AperFunction*%
%TD*%
%TA.AperFunction,Conductor*%
%TO.N,GND*%
G36*
X44528211Y-40577582D02*
G01*
X44709435Y-40723317D01*
X44713735Y-40731172D01*
X44711221Y-40739767D01*
X44710864Y-40740190D01*
X44487529Y-40992494D01*
X44479479Y-40996417D01*
X44471275Y-40993725D01*
X44218165Y-40782684D01*
X44214006Y-40774754D01*
X44215483Y-40767922D01*
X44321637Y-40580924D01*
X44328702Y-40575421D01*
X44331812Y-40575000D01*
X44520879Y-40575000D01*
X44528211Y-40577582D01*
G37*
%TD.AperFunction*%
%TD*%
%TA.AperFunction,Conductor*%
%TO.N,+5VL*%
G36*
X55597346Y-40939200D02*
G01*
X55598691Y-40940811D01*
X55781589Y-41204865D01*
X55783483Y-41213617D01*
X55780272Y-41219773D01*
X55581243Y-41420133D01*
X55572981Y-41423587D01*
X55568452Y-41422691D01*
X55416959Y-41359715D01*
X55310651Y-41315522D01*
X55304327Y-41309182D01*
X55304338Y-41300227D01*
X55305249Y-41298471D01*
X55448598Y-41071804D01*
X55450205Y-41069795D01*
X55580801Y-40939199D01*
X55589073Y-40935773D01*
X55597346Y-40939200D01*
G37*
%TD.AperFunction*%
%TD*%
%TA.AperFunction,Conductor*%
%TO.N,+5VL*%
G36*
X42077178Y-50424910D02*
G01*
X42343269Y-50536088D01*
X42349581Y-50542440D01*
X42350217Y-50549247D01*
X42256925Y-51001739D01*
X42251898Y-51009149D01*
X42245466Y-51011076D01*
X41767106Y-51011076D01*
X41758833Y-51007649D01*
X41755406Y-50999376D01*
X41755413Y-50998977D01*
X41771209Y-50536088D01*
X41774615Y-50436261D01*
X41778322Y-50428112D01*
X41786267Y-50424962D01*
X42072636Y-50424007D01*
X42077178Y-50424910D01*
G37*
%TD.AperFunction*%
%TD*%
%TA.AperFunction,Conductor*%
%TO.N,+5V*%
G36*
X94513950Y-50333427D02*
G01*
X94517081Y-50339087D01*
X94536748Y-50424943D01*
X94625150Y-50810855D01*
X94624751Y-50817437D01*
X94281006Y-51770485D01*
X94274975Y-51777104D01*
X94266030Y-51777521D01*
X94259411Y-51771490D01*
X94258994Y-51770485D01*
X93915248Y-50817437D01*
X93915204Y-50817317D01*
X93914757Y-50810964D01*
X94013059Y-50339313D01*
X94018102Y-50331913D01*
X94024513Y-50330000D01*
X94505677Y-50330000D01*
X94513950Y-50333427D01*
G37*
%TD.AperFunction*%
%TD*%
%TA.AperFunction,Conductor*%
%TO.N,Earth*%
G36*
X83038252Y-48037292D02*
G01*
X83745792Y-48748256D01*
X83749199Y-48756537D01*
X83747270Y-48762944D01*
X83408729Y-49276956D01*
X83278515Y-49474664D01*
X83278468Y-49474735D01*
X83271056Y-49479760D01*
X83268697Y-49480000D01*
X82781359Y-49480000D01*
X82773086Y-49476573D01*
X82771541Y-49474664D01*
X82310145Y-48762937D01*
X82308521Y-48754131D01*
X82311683Y-48748307D01*
X83021708Y-48037302D01*
X83029977Y-48033871D01*
X83038252Y-48037292D01*
G37*
%TD.AperFunction*%
%TD*%
%TA.AperFunction,Conductor*%
%TO.N,Earth*%
G36*
X88395892Y-54880130D02*
G01*
X88400241Y-54887957D01*
X88400314Y-54889007D01*
X88412008Y-55365696D01*
X88408786Y-55374051D01*
X88408585Y-55374256D01*
X88279863Y-55502978D01*
X88271590Y-55506405D01*
X88263317Y-55502978D01*
X88262526Y-55502103D01*
X88101311Y-55304564D01*
X88098735Y-55295987D01*
X88099033Y-55294298D01*
X88197307Y-54907113D01*
X88202663Y-54899939D01*
X88207305Y-54898371D01*
X88387283Y-54877671D01*
X88395892Y-54880130D01*
G37*
%TD.AperFunction*%
%TD*%
%TA.AperFunction,Conductor*%
%TO.N,GND*%
G36*
X59940301Y-52334182D02*
G01*
X59941207Y-52336369D01*
X60285065Y-53482953D01*
X60285312Y-53488701D01*
X60186941Y-53960687D01*
X60181898Y-53968087D01*
X60175487Y-53970000D01*
X59694323Y-53970000D01*
X59686050Y-53966573D01*
X59682918Y-53960913D01*
X59574771Y-53488804D01*
X59574968Y-53482838D01*
X59918793Y-52336368D01*
X59924452Y-52329429D01*
X59933361Y-52328523D01*
X59940301Y-52334182D01*
G37*
%TD.AperFunction*%
%TD*%
%TA.AperFunction,Conductor*%
%TO.N,Earth*%
G36*
X75313950Y-54533427D02*
G01*
X75317081Y-54539087D01*
X75336748Y-54624943D01*
X75425150Y-55010855D01*
X75424751Y-55017437D01*
X75081006Y-55970485D01*
X75074975Y-55977104D01*
X75066030Y-55977521D01*
X75059411Y-55971490D01*
X75058994Y-55970485D01*
X74715248Y-55017437D01*
X74715204Y-55017317D01*
X74714757Y-55010964D01*
X74813059Y-54539313D01*
X74818102Y-54531913D01*
X74824513Y-54530000D01*
X75305677Y-54530000D01*
X75313950Y-54533427D01*
G37*
%TD.AperFunction*%
%TD*%
%TA.AperFunction,Conductor*%
%TO.N,+5V*%
G36*
X84055087Y-59213292D02*
G01*
X84059772Y-59217867D01*
X84355780Y-59742520D01*
X84356861Y-59751409D01*
X84354129Y-59756267D01*
X84145593Y-59978895D01*
X84145327Y-59979170D01*
X84014103Y-60110394D01*
X84005830Y-60113821D01*
X83997557Y-60110394D01*
X83996112Y-60108637D01*
X83759547Y-59755828D01*
X83757786Y-59747048D01*
X83758941Y-59743807D01*
X84039259Y-59218110D01*
X84046175Y-59212423D01*
X84055087Y-59213292D01*
G37*
%TD.AperFunction*%
%TD*%
%TA.AperFunction,Conductor*%
%TO.N,DATA_IN*%
G36*
X55259207Y-42237536D02*
G01*
X55484160Y-42492255D01*
X55487068Y-42500725D01*
X55484160Y-42507745D01*
X55259207Y-42762463D01*
X55251162Y-42766396D01*
X55244099Y-42764552D01*
X54955362Y-42578455D01*
X54950264Y-42571093D01*
X54950000Y-42568621D01*
X54950000Y-42431378D01*
X54953427Y-42423105D01*
X54955362Y-42421544D01*
X55244101Y-42235446D01*
X55252909Y-42233845D01*
X55259207Y-42237536D01*
G37*
%TD.AperFunction*%
%TD*%
%TA.AperFunction,Conductor*%
%TO.N,Earth*%
G36*
X97053760Y-50333427D02*
G01*
X97056941Y-50339313D01*
X97155242Y-50810962D01*
X97154794Y-50817319D01*
X96811006Y-51770485D01*
X96804975Y-51777104D01*
X96796030Y-51777521D01*
X96789411Y-51771490D01*
X96788994Y-51770485D01*
X96445248Y-50817437D01*
X96444849Y-50810855D01*
X96552918Y-50339087D01*
X96558106Y-50331788D01*
X96564323Y-50330000D01*
X97045487Y-50330000D01*
X97053760Y-50333427D01*
G37*
%TD.AperFunction*%
%TD*%
%TA.AperFunction,Conductor*%
%TO.N,+5V*%
G36*
X83748899Y-59011515D02*
G01*
X84041038Y-59193785D01*
X84046243Y-59201070D01*
X84044771Y-59209903D01*
X84044749Y-59209939D01*
X83744760Y-59686949D01*
X83737455Y-59692128D01*
X83731444Y-59691911D01*
X83438288Y-59602527D01*
X83431374Y-59596837D01*
X83430000Y-59591336D01*
X83430000Y-59404049D01*
X83432504Y-59396816D01*
X83733513Y-59014207D01*
X83741321Y-59009824D01*
X83748899Y-59011515D01*
G37*
%TD.AperFunction*%
%TD*%
%TA.AperFunction,Conductor*%
%TO.N,Earth*%
G36*
X96432121Y-51432914D02*
G01*
X96435066Y-51435052D01*
X96792693Y-51791716D01*
X96796131Y-51799984D01*
X96792715Y-51808262D01*
X96792693Y-51808284D01*
X96435066Y-52164947D01*
X96426788Y-52168363D01*
X96423194Y-52167792D01*
X96068090Y-52052623D01*
X96061278Y-52046811D01*
X96060000Y-52041494D01*
X96060000Y-51558505D01*
X96063427Y-51550232D01*
X96068089Y-51547376D01*
X96423194Y-51432207D01*
X96432121Y-51432914D01*
G37*
%TD.AperFunction*%
%TD*%
%TA.AperFunction,Conductor*%
%TO.N,+5V*%
G36*
X94637249Y-51730711D02*
G01*
X94642202Y-51738171D01*
X94642211Y-51738217D01*
X94893009Y-53046664D01*
X94891201Y-53055435D01*
X94889791Y-53057140D01*
X94759667Y-53187264D01*
X94751394Y-53190691D01*
X94744723Y-53188603D01*
X94333551Y-52903263D01*
X94328708Y-52895731D01*
X94328540Y-52894293D01*
X94269842Y-51809449D01*
X94272817Y-51801005D01*
X94279274Y-51797337D01*
X94628471Y-51728938D01*
X94637249Y-51730711D01*
G37*
%TD.AperFunction*%
%TD*%
%TA.AperFunction,Conductor*%
%TO.N,Earth*%
G36*
X95906804Y-47832207D02*
G01*
X96261909Y-47947376D01*
X96268722Y-47953188D01*
X96270000Y-47958505D01*
X96270000Y-48441494D01*
X96266573Y-48449767D01*
X96261909Y-48452623D01*
X95906804Y-48567792D01*
X95897878Y-48567085D01*
X95894933Y-48564947D01*
X95537305Y-48208283D01*
X95533868Y-48200016D01*
X95537284Y-48191738D01*
X95537306Y-48191716D01*
X95894935Y-47835051D01*
X95903211Y-47831636D01*
X95906804Y-47832207D01*
G37*
%TD.AperFunction*%
%TD*%
%TA.AperFunction,Conductor*%
%TO.N,Earth*%
G36*
X84281693Y-47311684D02*
G01*
X84992695Y-48021706D01*
X84996128Y-48029977D01*
X84992707Y-48038252D01*
X84992681Y-48038278D01*
X84281743Y-48745791D01*
X84273462Y-48749198D01*
X84267055Y-48747269D01*
X83555265Y-48278467D01*
X83550240Y-48271055D01*
X83550000Y-48268696D01*
X83550000Y-47781358D01*
X83553427Y-47773085D01*
X83555331Y-47771544D01*
X84267064Y-47310144D01*
X84275868Y-47308521D01*
X84281693Y-47311684D01*
G37*
%TD.AperFunction*%
%TD*%
%TA.AperFunction,Conductor*%
%TO.N,Earth*%
G36*
X95347618Y-51501051D02*
G01*
X95924272Y-51549106D01*
X95932232Y-51553208D01*
X95935000Y-51560766D01*
X95935000Y-52039234D01*
X95931573Y-52047507D01*
X95924272Y-52050894D01*
X95347629Y-52098947D01*
X95339099Y-52096219D01*
X95334997Y-52088259D01*
X95334957Y-52087345D01*
X95334000Y-51800000D01*
X95334957Y-51512671D01*
X95338411Y-51504411D01*
X95346696Y-51501012D01*
X95347618Y-51501051D01*
G37*
%TD.AperFunction*%
%TD*%
%TA.AperFunction,Conductor*%
%TO.N,Earth*%
G36*
X74223711Y-52883617D02*
G01*
X74229574Y-52886792D01*
X74565483Y-53222701D01*
X74568910Y-53230974D01*
X74565483Y-53239247D01*
X74559676Y-53242411D01*
X73944316Y-53375112D01*
X73935507Y-53373506D01*
X73931054Y-53368186D01*
X73873722Y-53230974D01*
X73821171Y-53105204D01*
X73821145Y-53096251D01*
X73931083Y-52831788D01*
X73937422Y-52825466D01*
X73944293Y-52824832D01*
X74223711Y-52883617D01*
G37*
%TD.AperFunction*%
%TD*%
%TA.AperFunction,Conductor*%
%TO.N,Net-(J5-Pin_3)*%
G36*
X60011474Y-46033427D02*
G01*
X60013366Y-46035907D01*
X60283436Y-46509849D01*
X60284555Y-46518734D01*
X60284478Y-46519003D01*
X59941207Y-47663630D01*
X59935548Y-47670570D01*
X59926639Y-47671476D01*
X59919699Y-47665817D01*
X59918793Y-47663630D01*
X59575552Y-46519106D01*
X59576458Y-46510197D01*
X59576665Y-46509828D01*
X59856604Y-46035750D01*
X59863762Y-46030370D01*
X59866679Y-46030000D01*
X60003201Y-46030000D01*
X60011474Y-46033427D01*
G37*
%TD.AperFunction*%
%TD*%
%TA.AperFunction,Conductor*%
%TO.N,+5V*%
G36*
X94586548Y-49899955D02*
G01*
X94594810Y-49903409D01*
X94598209Y-49911694D01*
X94598091Y-49913315D01*
X94516439Y-50482998D01*
X94511873Y-50490701D01*
X94504857Y-50493038D01*
X94026408Y-50493038D01*
X94018135Y-50489611D01*
X94014712Y-50481634D01*
X94007187Y-50184150D01*
X94000302Y-49911955D01*
X94003518Y-49903599D01*
X94011702Y-49899964D01*
X94011947Y-49899960D01*
X94300000Y-49899000D01*
X94586548Y-49899955D01*
G37*
%TD.AperFunction*%
%TD*%
%TA.AperFunction,Conductor*%
%TO.N,Earth*%
G36*
X95777963Y-51283189D02*
G01*
X95781390Y-51291462D01*
X95780979Y-51294535D01*
X95615642Y-51902023D01*
X95610163Y-51909105D01*
X95601280Y-51910239D01*
X95599909Y-51909773D01*
X95335066Y-51801027D01*
X95335011Y-51800972D01*
X95335000Y-51801000D01*
X95069949Y-51690256D01*
X95063637Y-51683904D01*
X95063664Y-51674949D01*
X95064248Y-51673750D01*
X95276723Y-51294535D01*
X95281649Y-51285743D01*
X95288683Y-51280201D01*
X95291856Y-51279762D01*
X95769690Y-51279762D01*
X95777963Y-51283189D01*
G37*
%TD.AperFunction*%
%TD*%
%TA.AperFunction,Conductor*%
%TO.N,Earth*%
G36*
X95540589Y-48228509D02*
G01*
X95541006Y-48229514D01*
X95884794Y-49182680D01*
X95885242Y-49189037D01*
X95786941Y-49660687D01*
X95781898Y-49668087D01*
X95775487Y-49670000D01*
X95294323Y-49670000D01*
X95286050Y-49666573D01*
X95282918Y-49660912D01*
X95282866Y-49660687D01*
X95174849Y-49189144D01*
X95175248Y-49182562D01*
X95518994Y-48229514D01*
X95525025Y-48222895D01*
X95533970Y-48222478D01*
X95540589Y-48228509D01*
G37*
%TD.AperFunction*%
%TD*%
%TA.AperFunction,Conductor*%
%TO.N,LED_DATA_5V*%
G36*
X75080589Y-44028509D02*
G01*
X75081006Y-44029514D01*
X75424050Y-44980617D01*
X75423633Y-44989562D01*
X75423119Y-44990536D01*
X75143396Y-45464249D01*
X75136238Y-45469630D01*
X75133321Y-45470000D01*
X74996799Y-45470000D01*
X74988526Y-45466573D01*
X74986634Y-45464093D01*
X74716753Y-44990484D01*
X74715634Y-44981599D01*
X74715912Y-44980721D01*
X75058994Y-44029514D01*
X75065025Y-44022895D01*
X75073970Y-44022478D01*
X75080589Y-44028509D01*
G37*
%TD.AperFunction*%
%TD*%
%TA.AperFunction,Conductor*%
%TO.N,+5V*%
G36*
X93243950Y-50333427D02*
G01*
X93247081Y-50339087D01*
X93266748Y-50424943D01*
X93355150Y-50810855D01*
X93354751Y-50817437D01*
X93011006Y-51770485D01*
X93004975Y-51777104D01*
X92996030Y-51777521D01*
X92989411Y-51771490D01*
X92988994Y-51770485D01*
X92645248Y-50817437D01*
X92645204Y-50817317D01*
X92644757Y-50810964D01*
X92743059Y-50339313D01*
X92748102Y-50331913D01*
X92754513Y-50330000D01*
X93235677Y-50330000D01*
X93243950Y-50333427D01*
G37*
%TD.AperFunction*%
%TD*%
%TA.AperFunction,Conductor*%
%TO.N,Net-(J5-Pin_3)*%
G36*
X56900215Y-42008523D02*
G01*
X56903763Y-42010953D01*
X56998734Y-42105924D01*
X57002161Y-42114197D01*
X57001136Y-42118987D01*
X56784637Y-42601501D01*
X56778123Y-42607646D01*
X56769519Y-42607534D01*
X56515156Y-42503114D01*
X56508804Y-42496803D01*
X56508106Y-42494482D01*
X56449988Y-42189576D01*
X56451805Y-42180809D01*
X56457252Y-42176478D01*
X56891264Y-42008316D01*
X56900215Y-42008523D01*
G37*
%TD.AperFunction*%
%TD*%
%TA.AperFunction,Conductor*%
%TO.N,GND*%
G36*
X44431543Y-58577307D02*
G01*
X44689348Y-58684477D01*
X44695672Y-58690817D01*
X44695661Y-58699772D01*
X44694745Y-58701535D01*
X44551405Y-58928189D01*
X44549790Y-58930208D01*
X44419199Y-59060799D01*
X44410926Y-59064226D01*
X44402653Y-59060799D01*
X44401308Y-59059188D01*
X44310571Y-58928189D01*
X44218409Y-58795132D01*
X44216516Y-58786382D01*
X44219725Y-58780228D01*
X44418757Y-58579865D01*
X44427018Y-58576412D01*
X44431543Y-58577307D01*
G37*
%TD.AperFunction*%
%TD*%
%TA.AperFunction,Conductor*%
%TO.N,+5VL*%
G36*
X58144687Y-41871854D02*
G01*
X58145313Y-41872537D01*
X58519086Y-42314269D01*
X58521814Y-42322798D01*
X58518427Y-42330099D01*
X58180099Y-42668427D01*
X58171826Y-42671854D01*
X58164269Y-42669086D01*
X57722541Y-42295317D01*
X57718440Y-42287358D01*
X57721168Y-42278828D01*
X57721783Y-42278156D01*
X57924293Y-42074293D01*
X58128142Y-41871798D01*
X58136425Y-41868400D01*
X58144687Y-41871854D01*
G37*
%TD.AperFunction*%
%TD*%
%TA.AperFunction,Conductor*%
%TO.N,+5V*%
G36*
X94513130Y-49310389D02*
G01*
X94516439Y-49317002D01*
X94598091Y-49886684D01*
X94595872Y-49895360D01*
X94588169Y-49899926D01*
X94586548Y-49900044D01*
X94300039Y-49900999D01*
X94299961Y-49900999D01*
X94011959Y-49900039D01*
X94003697Y-49896585D01*
X94000298Y-49888300D01*
X94000302Y-49888043D01*
X94000337Y-49886684D01*
X94014712Y-49318366D01*
X94018347Y-49310182D01*
X94026408Y-49306962D01*
X94504857Y-49306962D01*
X94513130Y-49310389D01*
G37*
%TD.AperFunction*%
%TD*%
%TA.AperFunction,Conductor*%
%TO.N,SDA*%
G36*
X88774829Y-47979857D02*
G01*
X88781141Y-47986209D01*
X88781319Y-47986668D01*
X88957084Y-48471912D01*
X88956679Y-48480858D01*
X88954356Y-48484170D01*
X88894170Y-48544356D01*
X88885897Y-48547783D01*
X88881912Y-48547084D01*
X88396668Y-48371319D01*
X88390057Y-48365279D01*
X88389652Y-48356333D01*
X88389815Y-48355910D01*
X88497436Y-48093814D01*
X88503746Y-48087464D01*
X88765876Y-47979830D01*
X88774829Y-47979857D01*
G37*
%TD.AperFunction*%
%TD*%
%TA.AperFunction,Conductor*%
%TO.N,Earth*%
G36*
X85100090Y-58465927D02*
G01*
X85102807Y-58470187D01*
X85273330Y-58937194D01*
X85272949Y-58946141D01*
X85266851Y-58952003D01*
X85004511Y-59061615D01*
X84995556Y-59061642D01*
X84995489Y-59061615D01*
X84733148Y-58952003D01*
X84726836Y-58945651D01*
X84726669Y-58937197D01*
X84897193Y-58470186D01*
X84903249Y-58463591D01*
X84908183Y-58462500D01*
X85091817Y-58462500D01*
X85100090Y-58465927D01*
G37*
%TD.AperFunction*%
%TD*%
%TA.AperFunction,Conductor*%
%TO.N,USR_BTN*%
G36*
X89852423Y-54303427D02*
G01*
X89853510Y-54304680D01*
X89995666Y-54494221D01*
X89997888Y-54502896D01*
X89996776Y-54506463D01*
X89810470Y-54880007D01*
X89803711Y-54885881D01*
X89794778Y-54885255D01*
X89789530Y-54880007D01*
X89603223Y-54506463D01*
X89602597Y-54497530D01*
X89604330Y-54494226D01*
X89746490Y-54304680D01*
X89754195Y-54300118D01*
X89755850Y-54300000D01*
X89844150Y-54300000D01*
X89852423Y-54303427D01*
G37*
%TD.AperFunction*%
%TD*%
%TA.AperFunction,Conductor*%
%TO.N,Earth*%
G36*
X85149565Y-50803427D02*
G01*
X85152992Y-50811700D01*
X85149565Y-50819973D01*
X85143782Y-50823132D01*
X84740989Y-50910851D01*
X84732176Y-50909263D01*
X84727067Y-50901909D01*
X84727112Y-50896728D01*
X84747869Y-50809005D01*
X84753109Y-50801744D01*
X84759255Y-50800000D01*
X85141292Y-50800000D01*
X85149565Y-50803427D01*
G37*
%TD.AperFunction*%
%TD*%
%TA.AperFunction,Conductor*%
%TO.N,+5VL*%
G36*
X51903779Y-39010063D02*
G01*
X52159815Y-39193302D01*
X52164549Y-39200903D01*
X52162929Y-39209015D01*
X51987802Y-39489348D01*
X51980512Y-39494549D01*
X51971680Y-39493072D01*
X51970404Y-39492150D01*
X51716814Y-39281537D01*
X51712639Y-39273615D01*
X51713190Y-39268833D01*
X51753417Y-39148325D01*
X51756239Y-39143762D01*
X51888698Y-39011303D01*
X51896970Y-39007877D01*
X51903779Y-39010063D01*
G37*
%TD.AperFunction*%
%TD*%
%TA.AperFunction,Conductor*%
%TO.N,+5VL*%
G36*
X42253739Y-49842351D02*
G01*
X42256925Y-49848261D01*
X42350217Y-50300752D01*
X42348531Y-50309547D01*
X42343269Y-50313911D01*
X42077182Y-50425088D01*
X42072632Y-50425992D01*
X41786269Y-50425037D01*
X41778007Y-50421583D01*
X41774615Y-50413737D01*
X41755413Y-49851023D01*
X41758556Y-49842638D01*
X41766707Y-49838931D01*
X41767106Y-49838924D01*
X42245466Y-49838924D01*
X42253739Y-49842351D01*
G37*
%TD.AperFunction*%
%TD*%
%TA.AperFunction,Conductor*%
%TO.N,+5VL*%
G36*
X55528724Y-59006274D02*
G01*
X55781834Y-59217315D01*
X55785993Y-59225245D01*
X55784516Y-59232077D01*
X55678363Y-59419076D01*
X55671299Y-59424579D01*
X55668188Y-59425000D01*
X55479121Y-59425000D01*
X55471789Y-59422418D01*
X55290564Y-59276682D01*
X55286264Y-59268827D01*
X55288778Y-59260232D01*
X55289108Y-59259840D01*
X55512472Y-59007503D01*
X55520520Y-59003582D01*
X55528724Y-59006274D01*
G37*
%TD.AperFunction*%
%TD*%
%TA.AperFunction,Conductor*%
%TO.N,Earth*%
G36*
X85251951Y-50533427D02*
G01*
X85253465Y-50535288D01*
X85719790Y-51247048D01*
X85721457Y-51255846D01*
X85718282Y-51261727D01*
X85008279Y-51972709D01*
X85000008Y-51976142D01*
X84991733Y-51972721D01*
X84991721Y-51972709D01*
X84678396Y-51658952D01*
X84281716Y-51261725D01*
X84278296Y-51253452D01*
X84280208Y-51247050D01*
X84746535Y-50535287D01*
X84753936Y-50530246D01*
X84756322Y-50530000D01*
X85243678Y-50530000D01*
X85251951Y-50533427D01*
G37*
%TD.AperFunction*%
%TD*%
%TA.AperFunction,Conductor*%
%TO.N,+5V*%
G36*
X93376804Y-51432207D02*
G01*
X93731909Y-51547376D01*
X93738722Y-51553188D01*
X93740000Y-51558505D01*
X93740000Y-52041494D01*
X93736573Y-52049767D01*
X93731909Y-52052623D01*
X93376804Y-52167792D01*
X93367878Y-52167085D01*
X93364933Y-52164947D01*
X93007305Y-51808283D01*
X93003868Y-51800016D01*
X93007284Y-51791738D01*
X93007306Y-51791716D01*
X93364935Y-51435051D01*
X93373211Y-51431636D01*
X93376804Y-51432207D01*
G37*
%TD.AperFunction*%
%TD*%
%TA.AperFunction,Conductor*%
%TO.N,GPIO9{slash}BOOT*%
G36*
X78925407Y-56927810D02*
G01*
X78925838Y-56928001D01*
X79393262Y-57146845D01*
X79399301Y-57153455D01*
X79400000Y-57157440D01*
X79400000Y-57242559D01*
X79396573Y-57250832D01*
X79393261Y-57253155D01*
X78925857Y-57471989D01*
X78916911Y-57472394D01*
X78910300Y-57466354D01*
X78910100Y-57465904D01*
X78821209Y-57253155D01*
X78800883Y-57204509D01*
X78800857Y-57195556D01*
X78800862Y-57195542D01*
X78910101Y-56934093D01*
X78916452Y-56927783D01*
X78925407Y-56927810D01*
G37*
%TD.AperFunction*%
%TD*%
%TA.AperFunction,Conductor*%
%TO.N,Earth*%
G36*
X87226970Y-50533427D02*
G01*
X87228466Y-50535262D01*
X87510300Y-50963176D01*
X87697270Y-51247055D01*
X87698959Y-51255849D01*
X87695792Y-51261743D01*
X86988278Y-51972681D01*
X86980013Y-51976128D01*
X86971732Y-51972721D01*
X86971706Y-51972695D01*
X86261684Y-51261693D01*
X86258263Y-51253418D01*
X86260144Y-51247064D01*
X86721541Y-50535336D01*
X86728917Y-50530258D01*
X86731359Y-50530000D01*
X87218697Y-50530000D01*
X87226970Y-50533427D01*
G37*
%TD.AperFunction*%
%TD*%
%TA.AperFunction,Conductor*%
%TO.N,+5V*%
G36*
X87278756Y-56994347D02*
G01*
X87543592Y-57156086D01*
X87548867Y-57163322D01*
X87549112Y-57167454D01*
X87501228Y-57569683D01*
X87496847Y-57577493D01*
X87489610Y-57580000D01*
X87305542Y-57580000D01*
X87297269Y-57576573D01*
X87296489Y-57575711D01*
X87050734Y-57275510D01*
X87048145Y-57266938D01*
X87050680Y-57260753D01*
X87263556Y-56996984D01*
X87271418Y-56992699D01*
X87278756Y-56994347D01*
G37*
%TD.AperFunction*%
%TD*%
%TA.AperFunction,Conductor*%
%TO.N,IMU_INT*%
G36*
X86813082Y-54330240D02*
G01*
X86872652Y-54389810D01*
X86876079Y-54398083D01*
X86875966Y-54399707D01*
X86801728Y-54929421D01*
X86797186Y-54937138D01*
X86788517Y-54939384D01*
X86787797Y-54939260D01*
X86607733Y-54902433D01*
X86600314Y-54897418D01*
X86598435Y-54892136D01*
X86559891Y-54506732D01*
X86562478Y-54498161D01*
X86564715Y-54496062D01*
X86798000Y-54329000D01*
X86806718Y-54326970D01*
X86813082Y-54330240D01*
G37*
%TD.AperFunction*%
%TD*%
%TA.AperFunction,Conductor*%
%TO.N,Earth*%
G36*
X84281725Y-49281716D02*
G01*
X84678952Y-49678396D01*
X84992709Y-49991721D01*
X84996142Y-49999992D01*
X84992721Y-50008267D01*
X84992709Y-50008279D01*
X84281727Y-50718282D01*
X84273452Y-50721703D01*
X84267048Y-50719790D01*
X83555288Y-50253464D01*
X83550246Y-50246063D01*
X83550000Y-50243677D01*
X83550000Y-49756322D01*
X83553427Y-49748049D01*
X83555285Y-49746537D01*
X84267049Y-49280208D01*
X84275846Y-49278542D01*
X84281725Y-49281716D01*
G37*
%TD.AperFunction*%
%TD*%
%TA.AperFunction,Conductor*%
%TO.N,+5V*%
G36*
X93902121Y-47832914D02*
G01*
X93905066Y-47835052D01*
X94262693Y-48191716D01*
X94266131Y-48199984D01*
X94262715Y-48208262D01*
X94262693Y-48208284D01*
X93905066Y-48564947D01*
X93896788Y-48568363D01*
X93893194Y-48567792D01*
X93538090Y-48452623D01*
X93531278Y-48446811D01*
X93530000Y-48441494D01*
X93530000Y-47958505D01*
X93533427Y-47950232D01*
X93538089Y-47947376D01*
X93893194Y-47832207D01*
X93902121Y-47832914D01*
G37*
%TD.AperFunction*%
%TD*%
%TA.AperFunction,Conductor*%
%TO.N,+5VL*%
G36*
X47431543Y-39077307D02*
G01*
X47689348Y-39184477D01*
X47695672Y-39190817D01*
X47695661Y-39199772D01*
X47694745Y-39201535D01*
X47551405Y-39428189D01*
X47549790Y-39430208D01*
X47419199Y-39560799D01*
X47410926Y-39564226D01*
X47402653Y-39560799D01*
X47401308Y-39559188D01*
X47310571Y-39428189D01*
X47218409Y-39295132D01*
X47216516Y-39286382D01*
X47219725Y-39280228D01*
X47418757Y-39079865D01*
X47427018Y-39076412D01*
X47431543Y-39077307D01*
G37*
%TD.AperFunction*%
%TD*%
%TA.AperFunction,Conductor*%
%TO.N,+5VL*%
G36*
X47431543Y-60077307D02*
G01*
X47689348Y-60184477D01*
X47695672Y-60190817D01*
X47695661Y-60199772D01*
X47694745Y-60201535D01*
X47551405Y-60428189D01*
X47549790Y-60430208D01*
X47419199Y-60560799D01*
X47410926Y-60564226D01*
X47402653Y-60560799D01*
X47401308Y-60559188D01*
X47310571Y-60428189D01*
X47218409Y-60295132D01*
X47216516Y-60286382D01*
X47219725Y-60280228D01*
X47418757Y-60079865D01*
X47427018Y-60076412D01*
X47431543Y-60077307D01*
G37*
%TD.AperFunction*%
%TD*%
%TA.AperFunction,Conductor*%
%TO.N,GND*%
G36*
X41503920Y-43512626D02*
G01*
X41503983Y-43512689D01*
X41711335Y-43723228D01*
X41714699Y-43731527D01*
X41711767Y-43739185D01*
X41489448Y-43990812D01*
X41481402Y-43994743D01*
X41472933Y-43991833D01*
X41471935Y-43990837D01*
X41249435Y-43740490D01*
X41246500Y-43732030D01*
X41250408Y-43723973D01*
X41251128Y-43723382D01*
X41354290Y-43645711D01*
X41487375Y-43512625D01*
X41495647Y-43509199D01*
X41503920Y-43512626D01*
G37*
%TD.AperFunction*%
%TD*%
M02*
