M48
; DRILL file {KiCad 8.0.2-1} date 2025-04-11T08:42:26-0700
; FORMAT={-:-/ absolute / metric / decimal}
; #@! TF.CreationDate,2025-04-11T08:42:26-07:00
; #@! TF.GenerationSoftware,Kicad,Pcbnew,8.0.2-1
; #@! TF.FileFunction,NonPlated,1,4,NPTH
FMAT,2
METRIC
; #@! TA.AperFunction,NonPlated,NPTH,ComponentDrill
T1C0.500
; #@! TA.AperFunction,NonPlated,NPTH,ComponentDrill
T2C0.650
; #@! TA.AperFunction,NonPlated,NPTH,ComponentDrill
T3C0.700
%
G90
G05
T1
X39.919Y-40.98
X39.919Y-59.02
X40.432Y-40.432
X40.432Y-59.568
X40.98Y-39.919
X40.98Y-60.081
X59.02Y-39.919
X59.02Y-60.081
X59.568Y-40.432
X59.568Y-59.568
X60.081Y-40.98
X60.081Y-59.02
X74.919Y-40.98
X74.919Y-59.02
X75.432Y-40.432
X75.432Y-59.568
X75.98Y-39.919
X75.98Y-60.081
X94.02Y-39.919
X94.02Y-60.081
X94.568Y-40.432
X94.568Y-59.568
X95.081Y-40.98
X95.081Y-59.02
T2
X82.11Y-58.09
X87.89Y-58.09
T3
X74.4Y-50.0
X76.2Y-50.0
X94.2Y-46.3
X94.2Y-53.7
X96.0Y-46.3
X96.0Y-53.7
M30
