  0
SECTION
  2
HEADER
  9
$ANGBASE
  50
0.0
  9
$ANGDIR
  70
1
  9
$MEASUREMENT
  70
1
  0
ENDSEC
  0
SECTION
  2
TABLES
  0
TABLE
  2
LTYPE
  70
4
  0
LTYPE
  5
40F
  2
CONTINUOUS
  70
0
  3
Solid line
  72
65
  73
0
  40
0.0
  0
LTYPE
  5
410
  2
DASHDOT
 70
0
  3
Dash Dot ____ _ ____ _
 72
65
 73
4
 40
2.0
 49
1.25
 49
-0.25
 49
0.25
 49
-0.25
  0
LTYPE
  5
411
  2
DASHED
 70
0
  3
Dashed __ __ __ __ __
 72
65
 73
2
 40
0.75
 49
0.5
 49
-0.25
  0
LTYPE
  5
43B
  2
DOTTED
 70
0
  3
Dotted .  .  .  .
 72
65
 73
2
 40
0.2
 49
0.0
 49
-0.2
  0
ENDTAB
  0
TABLE
  2
STYLE
  70
4
  0
STYLE
  2
KICAD
  70
0
  40
0
  41
1
  42
1
  50
0
  71
0
  3
isocp.shx
  0
STYLE
  2
KICADB
  70
0
  40
0
  41
1
  42
1
  50
0
  71
0
  3
isocp.shx
  0
STYLE
  2
KICADI
  70
0
  40
0
  41
1
  42
1
  50
15
  71
0
  3
isocp.shx
  0
STYLE
  2
KICADBI
  70
0
  40
0
  41
1
  42
1
  50
15
  71
0
  3
isocp.shx
  0
ENDTAB
  0
TABLE
  2
LAYER
  70
1
  0
LAYER
  2
BLACK
  70
0
  62
7
  6
CONTINUOUS
  0
ENDTAB
  0
ENDSEC
  0
SECTION
  2
ENTITIES
0
ARC
8
BLACK
10
54.8534999999999968
20
-37.75
40
0.3535159159203443
50
-180.00000000
51
-134.99392600
0
ARC
8
BLACK
10
46.5
20
-32.75
40
1.
50
90.00000000
51
180.00000000
0
ARC
8
BLACK
10
45.1464999999999961
20
-37.75
40
0.3535
50
-45.00607400
51
-0.00000000
0
LINE
8
BLACK
6
CONTINUOUS
10
46.5
20
-31.75
11
53.5
21
-31.75
0
LINE
8
BLACK
6
CONTINUOUS
10
45.5
20
-37.75
11
45.5
21
-32.75
0
ARC
8
BLACK
10
50.
20
-50.
40
12.8527312359594994
50
-249.01171716
51
69.01171716
0
LINE
8
BLACK
6
CONTINUOUS
10
54.5
20
-37.75
11
54.5
21
-32.75
0
ARC
8
BLACK
10
53.5
20
-32.75
40
1.
50
0.00000000
51
90.00000000
0
LINE
8
BLACK
6
CONTINUOUS
10
39.7300369999999958
20
-65.9925690000000031
11
39.7300369999999958
21
-63.992568999999996
0
LINE
8
BLACK
6
CONTINUOUS
10
39.7300369999999958
20
-63.992568999999996
11
40.2062269999999984
21
-63.992568999999996
0
LINE
8
BLACK
6
CONTINUOUS
10
40.2062269999999984
20
-63.992568999999996
11
40.4919420000000017
21
-64.087806999999998
0
LINE
8
BLACK
6
CONTINUOUS
10
40.4919420000000017
20
-64.087806999999998
11
40.6824179999999984
21
-64.2782830000000018
0
LINE
8
BLACK
6
CONTINUOUS
10
40.6824179999999984
20
-64.2782830000000018
11
40.7776560000000003
21
-64.4687589999999915
0
LINE
8
BLACK
6
CONTINUOUS
10
40.7776560000000003
20
-64.4687589999999915
11
40.8728939999999952
21
-64.8497109999999992
0
LINE
8
BLACK
6
CONTINUOUS
10
40.8728939999999952
20
-64.8497109999999992
11
40.8728939999999952
21
-65.1354259999999954
0
LINE
8
BLACK
6
CONTINUOUS
10
40.8728939999999952
20
-65.1354259999999954
11
40.7776560000000003
21
-65.5163780000000031
0
LINE
8
BLACK
6
CONTINUOUS
10
40.7776560000000003
20
-65.5163780000000031
11
40.6824179999999984
21
-65.7068539999999928
0
LINE
8
BLACK
6
CONTINUOUS
10
40.6824179999999984
20
-65.7068539999999928
11
40.4919420000000017
21
-65.8973309999999941
0
LINE
8
BLACK
6
CONTINUOUS
10
40.4919420000000017
20
-65.8973309999999941
11
40.2062269999999984
21
-65.9925690000000031
0
LINE
8
BLACK
6
CONTINUOUS
10
40.2062269999999984
20
-65.9925690000000031
11
39.7300369999999958
21
-65.9925690000000031
0
LINE
8
BLACK
6
CONTINUOUS
10
41.7300369999999958
20
-65.9925690000000031
11
41.7300369999999958
21
-64.6592349999999954
0
LINE
8
BLACK
6
CONTINUOUS
10
41.7300369999999958
20
-65.0401880000000006
11
41.8252749999999978
21
-64.8497109999999992
0
LINE
8
BLACK
6
CONTINUOUS
10
41.8252749999999978
20
-64.8497109999999992
11
41.9205129999999997
21
-64.7544729999999902
0
LINE
8
BLACK
6
CONTINUOUS
10
41.9205129999999997
20
-64.7544729999999902
11
42.1109889999999965
21
-64.6592349999999954
0
LINE
8
BLACK
6
CONTINUOUS
10
42.1109889999999965
20
-64.6592349999999954
11
42.3014659999999978
21
-64.6592349999999954
0
LINE
8
BLACK
6
CONTINUOUS
10
42.9681319999999971
20
-65.9925690000000031
11
42.9681319999999971
21
-64.6592349999999954
0
LINE
8
BLACK
6
CONTINUOUS
10
42.9681319999999971
20
-63.992568999999996
11
42.8728939999999952
21
-64.087806999999998
0
LINE
8
BLACK
6
CONTINUOUS
10
42.8728939999999952
20
-64.087806999999998
11
42.9681319999999971
21
-64.1830449999999928
0
LINE
8
BLACK
6
CONTINUOUS
10
42.9681319999999971
20
-64.1830449999999928
11
43.063369999999999
21
-64.087806999999998
0
LINE
8
BLACK
6
CONTINUOUS
10
43.063369999999999
20
-64.087806999999998
11
42.9681319999999971
21
-63.992568999999996
0
LINE
8
BLACK
6
CONTINUOUS
10
42.9681319999999971
20
-63.992568999999996
11
42.9681319999999971
21
-64.1830449999999928
0
LINE
8
BLACK
6
CONTINUOUS
10
44.2062269999999984
20
-65.9925690000000031
11
44.0157509999999945
21
-65.8973309999999941
0
LINE
8
BLACK
6
CONTINUOUS
10
44.0157509999999945
20
-65.8973309999999941
11
43.9205129999999997
21
-65.7068539999999928
0
LINE
8
BLACK
6
CONTINUOUS
10
43.9205129999999997
20
-65.7068539999999928
11
43.9205129999999997
21
-63.992568999999996
0
LINE
8
BLACK
6
CONTINUOUS
10
45.2538459999999958
20
-65.9925690000000031
11
45.063369999999999
21
-65.8973309999999941
0
LINE
8
BLACK
6
CONTINUOUS
10
45.063369999999999
20
-65.8973309999999941
11
44.9681319999999971
21
-65.7068539999999928
0
LINE
8
BLACK
6
CONTINUOUS
10
44.9681319999999971
20
-65.7068539999999928
11
44.9681319999999971
21
-63.992568999999996
0
LINE
8
BLACK
6
CONTINUOUS
10
47.5395609999999991
20
-65.9925690000000031
11
47.5395609999999991
21
-63.992568999999996
0
LINE
8
BLACK
6
CONTINUOUS
10
47.5395609999999991
20
-63.992568999999996
11
48.2062279999999959
21
-65.4211399999999941
0
LINE
8
BLACK
6
CONTINUOUS
10
48.2062279999999959
20
-65.4211399999999941
11
48.8728939999999952
21
-63.992568999999996
0
LINE
8
BLACK
6
CONTINUOUS
10
48.8728939999999952
20
-63.992568999999996
11
48.8728939999999952
21
-65.9925690000000031
0
LINE
8
BLACK
6
CONTINUOUS
10
50.6824179999999984
20
-65.9925690000000031
11
50.6824179999999984
21
-64.9449499999999915
0
LINE
8
BLACK
6
CONTINUOUS
10
50.6824179999999984
20
-64.9449499999999915
11
50.5871799999999965
21
-64.7544729999999902
0
LINE
8
BLACK
6
CONTINUOUS
10
50.5871799999999965
20
-64.7544729999999902
11
50.3967039999999997
21
-64.6592349999999954
0
LINE
8
BLACK
6
CONTINUOUS
10
50.3967039999999997
20
-64.6592349999999954
11
50.0157509999999945
21
-64.6592349999999954
0
LINE
8
BLACK
6
CONTINUOUS
10
50.0157509999999945
20
-64.6592349999999954
11
49.8252749999999978
21
-64.7544729999999902
0
LINE
8
BLACK
6
CONTINUOUS
10
50.6824179999999984
20
-65.8973309999999941
11
50.4919419999999946
21
-65.9925690000000031
0
LINE
8
BLACK
6
CONTINUOUS
10
50.4919419999999946
20
-65.9925690000000031
11
50.0157509999999945
21
-65.9925690000000031
0
LINE
8
BLACK
6
CONTINUOUS
10
50.0157509999999945
20
-65.9925690000000031
11
49.8252749999999978
21
-65.8973309999999941
0
LINE
8
BLACK
6
CONTINUOUS
10
49.8252749999999978
20
-65.8973309999999941
11
49.7300369999999958
21
-65.7068539999999928
0
LINE
8
BLACK
6
CONTINUOUS
10
49.7300369999999958
20
-65.7068539999999928
11
49.7300369999999958
21
-65.5163780000000031
0
LINE
8
BLACK
6
CONTINUOUS
10
49.7300369999999958
20
-65.5163780000000031
11
49.8252749999999978
21
-65.3259019999999992
0
LINE
8
BLACK
6
CONTINUOUS
10
49.8252749999999978
20
-65.3259019999999992
11
50.0157509999999945
21
-65.2306639999999902
0
LINE
8
BLACK
6
CONTINUOUS
10
50.0157509999999945
20
-65.2306639999999902
11
50.4919419999999946
21
-65.2306639999999902
0
LINE
8
BLACK
6
CONTINUOUS
10
50.4919419999999946
20
-65.2306639999999902
11
50.6824179999999984
21
-65.1354259999999954
0
LINE
8
BLACK
6
CONTINUOUS
10
51.634799000000001
20
-64.6592349999999954
11
51.634799000000001
21
-66.6592349999999954
0
LINE
8
BLACK
6
CONTINUOUS
10
51.634799000000001
20
-64.7544729999999902
11
51.8252749999999978
21
-64.6592349999999954
0
LINE
8
BLACK
6
CONTINUOUS
10
51.8252749999999978
20
-64.6592349999999954
11
52.2062279999999959
21
-64.6592349999999954
0
LINE
8
BLACK
6
CONTINUOUS
10
52.2062279999999959
20
-64.6592349999999954
11
52.3967039999999997
21
-64.7544729999999902
0
LINE
8
BLACK
6
CONTINUOUS
10
52.3967039999999997
20
-64.7544729999999902
11
52.4919419999999946
21
-64.8497109999999992
0
LINE
8
BLACK
6
CONTINUOUS
10
52.4919419999999946
20
-64.8497109999999992
11
52.5871799999999965
21
-65.0401880000000006
0
LINE
8
BLACK
6
CONTINUOUS
10
52.5871799999999965
20
-65.0401880000000006
11
52.5871799999999965
21
-65.6116159999999979
0
LINE
8
BLACK
6
CONTINUOUS
10
52.5871799999999965
20
-65.6116159999999979
11
52.4919419999999946
21
-65.8020920000000018
0
LINE
8
BLACK
6
CONTINUOUS
10
52.4919419999999946
20
-65.8020920000000018
11
52.3967039999999997
21
-65.8973309999999941
0
LINE
8
BLACK
6
CONTINUOUS
10
52.3967039999999997
20
-65.8973309999999941
11
52.2062279999999959
21
-65.9925690000000031
0
LINE
8
BLACK
6
CONTINUOUS
10
52.2062279999999959
20
-65.9925690000000031
11
51.8252749999999978
21
-65.9925690000000031
0
LINE
8
BLACK
6
CONTINUOUS
10
51.8252749999999978
20
-65.9925690000000031
11
51.634799000000001
21
-65.8973309999999941
0
LINE
8
BLACK
6
CONTINUOUS
10
53.4443229999999971
20
-65.8020920000000018
11
53.5395609999999991
21
-65.8973309999999941
0
LINE
8
BLACK
6
CONTINUOUS
10
53.5395609999999991
20
-65.8973309999999941
11
53.4443229999999971
21
-65.9925690000000031
0
LINE
8
BLACK
6
CONTINUOUS
10
53.4443229999999971
20
-65.9925690000000031
11
53.3490849999999952
21
-65.8973309999999941
0
LINE
8
BLACK
6
CONTINUOUS
10
53.3490849999999952
20
-65.8973309999999941
11
53.4443229999999971
21
-65.8020920000000018
0
LINE
8
BLACK
6
CONTINUOUS
10
53.4443229999999971
20
-65.8020920000000018
11
53.4443229999999971
21
-65.9925690000000031
0
LINE
8
BLACK
6
CONTINUOUS
10
53.4443229999999971
20
-64.7544729999999902
11
53.5395609999999991
21
-64.8497109999999992
0
LINE
8
BLACK
6
CONTINUOUS
10
53.5395609999999991
20
-64.8497109999999992
11
53.4443229999999971
21
-64.9449499999999915
0
LINE
8
BLACK
6
CONTINUOUS
10
53.4443229999999971
20
-64.9449499999999915
11
53.3490849999999952
21
-64.8497109999999992
0
LINE
8
BLACK
6
CONTINUOUS
10
53.3490849999999952
20
-64.8497109999999992
11
53.4443229999999971
21
-64.7544729999999902
0
LINE
8
BLACK
6
CONTINUOUS
10
53.4443229999999971
20
-64.7544729999999902
11
53.4443229999999971
21
-64.9449499999999915
  0
ENDSEC
  0
EOF
