M48
; DRILL file {KiCad 8.0.2-1} date 2025-04-10T09:26:27-0700
; FORMAT={-:-/ absolute / metric / decimal}
; #@! TF.CreationDate,2025-04-10T09:26:27-07:00
; #@! TF.GenerationSoftware,Kicad,Pcbnew,8.0.2-1
; #@! TF.FileFunction,Plated,1,4,PTH
FMAT,2
METRIC
; #@! TA.AperFunction,Plated,PTH,ViaDrill
T1C0.300
; #@! TA.AperFunction,Plated,PTH,ComponentDrill
T2C0.600
%
G90
G05
T1
X39.075Y-48.925
X39.075Y-51.925
X40.575Y-44.425
X40.575Y-45.925
X40.575Y-47.425
X40.575Y-53.425
X40.575Y-54.925
X40.575Y-56.425
X41.425Y-43.575
X41.425Y-55.575
X42.075Y-42.925
X42.075Y-50.425
X42.075Y-57.925
X42.925Y-57.075
X43.575Y-41.425
X43.575Y-59.425
X44.425Y-40.575
X44.425Y-58.575
X46.575Y-39.925
X46.575Y-60.925
X47.425Y-39.075
X47.425Y-60.075
X51.075Y-39.925
X51.825Y-39.075
X52.575Y-60.925
X53.325Y-39.925
X53.425Y-60.075
X55.575Y-41.425
X55.575Y-59.425
X56.425Y-40.575
X56.425Y-43.575
X56.425Y-58.575
X57.075Y-47.425
X57.075Y-54.925
X57.925Y-42.075
X58.575Y-44.425
X58.575Y-45.925
X58.575Y-48.925
X58.575Y-50.425
X58.575Y-53.425
X58.575Y-56.425
X60.075Y-51.925
X73.82Y-53.1
X74.85Y-43.8
X76.335Y-47.6
X76.335Y-56.0
X76.35Y-45.85
X76.55Y-43.8
X78.8Y-57.2
X79.05Y-45.05
X79.05Y-54.95
X79.1Y-52.4
X79.1Y-53.2
X80.6Y-50.0
X81.5Y-47.8
X81.5Y-48.98
X81.8Y-57.02
X81.82Y-59.5
X81.82Y-61.9
X82.6Y-57.02
X82.7Y-52.3
X84.0Y-50.0
X84.05Y-61.637
X85.0Y-49.2
X85.0Y-50.8
X85.0Y-59.062
X85.68Y-52.7
X86.0Y-50.0
X86.975Y-50.0
X87.4Y-57.02
X87.5Y-53.7
X88.2Y-54.9
X88.2Y-57.02
X88.5Y-48.09
X88.5Y-49.11
X88.8Y-54.1
X89.0Y-46.2
X89.0Y-53.318
X89.19Y-47.46
X89.5Y-49.11
X90.9Y-47.6
X90.95Y-45.05
X91.2Y-56.3
X92.0Y-52.1
X92.3Y-42.92
X92.3Y-43.88
X94.3Y-49.9
X94.55Y-54.5
X95.335Y-48.2
X95.335Y-51.8
T2
G00X80.68Y-57.045
M15
G01X80.68Y-58.145
M16
G05
G00X80.68Y-61.375
M15
G01X80.68Y-62.175
M16
G05
G00X89.32Y-57.045
M15
G01X89.32Y-58.145
M16
G05
G00X89.32Y-61.375
M15
G01X89.32Y-62.175
M16
G05
M30
