  0
SECTION
  2
HEADER
  9
$ANGBASE
  50
0.0
  9
$ANGDIR
  70
1
  9
$MEASUREMENT
  70
1
  0
ENDSEC
  0
SECTION
  2
TABLES
  0
TABLE
  2
LTYPE
  70
4
  0
LTYPE
  5
40F
  2
CONTINUOUS
  70
0
  3
Solid line
  72
65
  73
0
  40
0.0
  0
LTYPE
  5
410
  2
DASHDOT
 70
0
  3
Dash Dot ____ _ ____ _
 72
65
 73
4
 40
2.0
 49
1.25
 49
-0.25
 49
0.25
 49
-0.25
  0
LTYPE
  5
411
  2
DASHED
 70
0
  3
Dashed __ __ __ __ __
 72
65
 73
2
 40
0.75
 49
0.5
 49
-0.25
  0
LTYPE
  5
43B
  2
DOTTED
 70
0
  3
Dotted .  .  .  .
 72
65
 73
2
 40
0.2
 49
0.0
 49
-0.2
  0
ENDTAB
  0
TABLE
  2
STYLE
  70
4
  0
STYLE
  2
KICAD
  70
0
  40
0
  41
1
  42
1
  50
0
  71
0
  3
isocp.shx
  0
STYLE
  2
KICADB
  70
0
  40
0
  41
1
  42
1
  50
0
  71
0
  3
isocp.shx
  0
STYLE
  2
KICADI
  70
0
  40
0
  41
1
  42
1
  50
15
  71
0
  3
isocp.shx
  0
STYLE
  2
KICADBI
  70
0
  40
0
  41
1
  42
1
  50
15
  71
0
  3
isocp.shx
  0
ENDTAB
  0
TABLE
  2
LAYER
  70
1
  0
LAYER
  2
BLACK
  70
0
  62
7
  6
CONTINUOUS
  0
ENDTAB
  0
ENDSEC
  0
SECTION
  2
ENTITIES
0
ARC
8
BLACK
10
54.8534999999999968
20
-37.75
40
0.3535159159203443
50
-180.00000000
51
-134.99392600
0
ARC
8
BLACK
10
46.5
20
-32.75
40
1.
50
90.00000000
51
180.00000000
0
ARC
8
BLACK
10
45.1464999999999961
20
-37.75
40
0.3535
50
-45.00607400
51
-0.00000000
0
LINE
8
BLACK
6
CONTINUOUS
10
46.5
20
-31.75
11
53.5
21
-31.75
0
LINE
8
BLACK
6
CONTINUOUS
10
45.5
20
-37.75
11
45.5
21
-32.75
0
ARC
8
BLACK
10
50.
20
-50.
40
12.8527312359594994
50
-249.01171716
51
69.01171716
0
LINE
8
BLACK
6
CONTINUOUS
10
54.5
20
-37.75
11
54.5
21
-32.75
0
ARC
8
BLACK
10
53.5
20
-32.75
40
1.
50
0.00000000
51
90.00000000
0
LINE
8
BLACK
6
CONTINUOUS
10
38.0499999999999972
20
-52.0999999999999943
11
38.3500000000000014
21
-52.3999999999999986
0
LINE
8
BLACK
6
CONTINUOUS
10
38.3500000000000014
20
-52.0999999999999943
11
38.0499999999999972
21
-52.3999999999999986
0
LINE
8
BLACK
6
CONTINUOUS
10
38.1749999999999972
20
-47.2749999999999986
11
38.4750000000000014
21
-47.5749999999999957
0
LINE
8
BLACK
6
CONTINUOUS
10
38.4750000000000014
20
-47.2749999999999986
11
38.1749999999999972
21
-47.5749999999999957
0
LINE
8
BLACK
6
CONTINUOUS
10
38.25
20
-50.3499999999999943
11
38.5499999999999972
21
-50.6499999999999986
0
LINE
8
BLACK
6
CONTINUOUS
10
38.5499999999999972
20
-50.3499999999999943
11
38.25
21
-50.6499999999999986
0
LINE
8
BLACK
6
CONTINUOUS
10
38.9499999999999957
20
-54.0499999999999972
11
39.25
21
-54.3499999999999943
0
LINE
8
BLACK
6
CONTINUOUS
10
39.25
20
-54.0499999999999972
11
38.9499999999999957
21
-54.3499999999999943
0
LINE
8
BLACK
6
CONTINUOUS
10
39.25
20
-55.3499999999999943
11
39.5499999999999972
21
-55.6499999999999986
0
LINE
8
BLACK
6
CONTINUOUS
10
39.5499999999999972
20
-55.3499999999999943
11
39.25
21
-55.6499999999999986
0
LINE
8
BLACK
6
CONTINUOUS
10
39.5499999999999972
20
-44.25
11
39.8500000000000014
21
-44.5499999999999972
0
LINE
8
BLACK
6
CONTINUOUS
10
39.8500000000000014
20
-44.25
11
39.5499999999999972
21
-44.5499999999999972
0
LINE
8
BLACK
6
CONTINUOUS
10
39.7379010000000008
20
-45.7413109999999961
11
40.037900999999998
21
-46.0413110000000003
0
LINE
8
BLACK
6
CONTINUOUS
10
40.037900999999998
20
-45.7413109999999961
11
39.7379010000000008
21
-46.0413110000000003
0
LINE
8
BLACK
6
CONTINUOUS
10
40.4499999999999957
20
-56.9499999999999957
11
40.75
21
-57.25
0
LINE
8
BLACK
6
CONTINUOUS
10
40.75
20
-56.9499999999999957
11
40.4499999999999957
21
-57.25
0
LINE
8
BLACK
6
CONTINUOUS
10
41.1499999999999986
20
-42.75
11
41.4499999999999957
21
-43.0499999999999972
0
LINE
8
BLACK
6
CONTINUOUS
10
41.4499999999999957
20
-42.75
11
41.1499999999999986
21
-43.0499999999999972
0
LINE
8
BLACK
6
CONTINUOUS
10
42.25
20
-58.3499999999999943
11
42.5499999999999972
21
-58.6499999999999986
0
LINE
8
BLACK
6
CONTINUOUS
10
42.5499999999999972
20
-58.3499999999999943
11
42.25
21
-58.6499999999999986
0
LINE
8
BLACK
6
CONTINUOUS
10
42.6000000000000014
20
-41.3500000000000014
11
42.8999999999999986
21
-41.6499999999999986
0
LINE
8
BLACK
6
CONTINUOUS
10
42.8999999999999986
20
-41.3500000000000014
11
42.6000000000000014
21
-41.6499999999999986
0
LINE
8
BLACK
6
CONTINUOUS
10
45.3500000000000014
20
-39.8500000000000014
11
45.6499999999999986
21
-40.1499999999999986
0
LINE
8
BLACK
6
CONTINUOUS
10
45.6499999999999986
20
-39.8500000000000014
11
45.3500000000000014
21
-40.1499999999999986
0
LINE
8
BLACK
6
CONTINUOUS
10
45.3500000000000014
20
-60.0499999999999972
11
45.6499999999999986
21
-60.3499999999999943
0
LINE
8
BLACK
6
CONTINUOUS
10
45.6499999999999986
20
-60.0499999999999972
11
45.3500000000000014
21
-60.3499999999999943
0
LINE
8
BLACK
6
CONTINUOUS
10
48.3499999999999943
20
-61.4499999999999957
11
48.6499999999999986
21
-61.75
0
LINE
8
BLACK
6
CONTINUOUS
10
48.6499999999999986
20
-61.4499999999999957
11
48.3499999999999943
21
-61.75
0
LINE
8
BLACK
6
CONTINUOUS
10
48.75
20
-38.1499999999999986
11
49.0499999999999972
21
-38.4499999999999957
0
LINE
8
BLACK
6
CONTINUOUS
10
49.0499999999999972
20
-38.1499999999999986
11
48.75
21
-38.4499999999999957
0
LINE
8
BLACK
6
CONTINUOUS
10
49.8499999999999943
20
-61.4499999999999957
11
50.1499999999999986
21
-61.75
0
LINE
8
BLACK
6
CONTINUOUS
10
50.1499999999999986
20
-61.4499999999999957
11
49.8499999999999943
21
-61.75
0
LINE
8
BLACK
6
CONTINUOUS
10
50.5499999999999972
20
-38.1499999999999986
11
50.8499999999999943
21
-38.4499999999999957
0
LINE
8
BLACK
6
CONTINUOUS
10
50.8499999999999943
20
-38.1499999999999986
11
50.5499999999999972
21
-38.4499999999999957
0
LINE
8
BLACK
6
CONTINUOUS
10
51.5999999999999943
20
-61.4499999999999957
11
51.8999999999999986
21
-61.75
0
LINE
8
BLACK
6
CONTINUOUS
10
51.8999999999999986
20
-61.4499999999999957
11
51.5999999999999943
21
-61.75
0
LINE
8
BLACK
6
CONTINUOUS
10
54.0499999999999972
20
-60.0499999999999972
11
54.3499999999999943
21
-60.3499999999999943
0
LINE
8
BLACK
6
CONTINUOUS
10
54.3499999999999943
20
-60.0499999999999972
11
54.0499999999999972
21
-60.3499999999999943
0
LINE
8
BLACK
6
CONTINUOUS
10
54.25
20
-39.6499999999999986
11
54.5499999999999972
21
-39.9499999999999957
0
LINE
8
BLACK
6
CONTINUOUS
10
54.5499999999999972
20
-39.6499999999999986
11
54.25
21
-39.9499999999999957
0
LINE
8
BLACK
6
CONTINUOUS
10
57.0499999999999972
20
-58.4499999999999957
11
57.3499999999999943
21
-58.75
0
LINE
8
BLACK
6
CONTINUOUS
10
57.3499999999999943
20
-58.4499999999999957
11
57.0499999999999972
21
-58.75
0
LINE
8
BLACK
6
CONTINUOUS
10
57.4499999999999957
20
-41.25
11
57.75
21
-41.5499999999999972
0
LINE
8
BLACK
6
CONTINUOUS
10
57.75
20
-41.25
11
57.4499999999999957
21
-41.5499999999999972
0
LINE
8
BLACK
6
CONTINUOUS
10
58.5499999999999972
20
-57.0499999999999972
11
58.8499999999999943
21
-57.3499999999999943
0
LINE
8
BLACK
6
CONTINUOUS
10
58.8499999999999943
20
-57.0499999999999972
11
58.5499999999999972
21
-57.3499999999999943
0
LINE
8
BLACK
6
CONTINUOUS
10
59.0999999999999943
20
-42.75
11
59.3999999999999986
21
-43.0499999999999972
0
LINE
8
BLACK
6
CONTINUOUS
10
59.3999999999999986
20
-42.75
11
59.0999999999999943
21
-43.0499999999999972
0
LINE
8
BLACK
6
CONTINUOUS
10
59.9499999999999957
20
-54.0499999999999972
11
60.25
21
-54.3499999999999943
0
LINE
8
BLACK
6
CONTINUOUS
10
60.25
20
-54.0499999999999972
11
59.9499999999999957
21
-54.3499999999999943
0
LINE
8
BLACK
6
CONTINUOUS
10
60.0499999999999972
20
-55.4499999999999957
11
60.3499999999999943
21
-55.75
0
LINE
8
BLACK
6
CONTINUOUS
10
60.3499999999999943
20
-55.4499999999999957
11
60.0499999999999972
21
-55.75
0
LINE
8
BLACK
6
CONTINUOUS
10
60.5499999999999972
20
-45.6499999999999986
11
60.8499999999999943
21
-45.9499999999999957
0
LINE
8
BLACK
6
CONTINUOUS
10
60.8499999999999943
20
-45.6499999999999986
11
60.5499999999999972
21
-45.9499999999999957
0
LINE
8
BLACK
6
CONTINUOUS
10
61.3499999999999943
20
-52.4499999999999957
11
61.6499999999999986
21
-52.75
0
LINE
8
BLACK
6
CONTINUOUS
10
61.6499999999999986
20
-52.4499999999999957
11
61.3499999999999943
21
-52.75
0
LINE
8
BLACK
6
CONTINUOUS
10
61.5499999999999972
20
-47.5999999999999943
11
61.8499999999999943
21
-47.8999999999999986
0
LINE
8
BLACK
6
CONTINUOUS
10
61.8499999999999943
20
-47.5999999999999943
11
61.5499999999999972
21
-47.8999999999999986
0
LINE
8
BLACK
6
CONTINUOUS
10
61.5499999999999972
20
-49.3499999999999943
11
61.8499999999999943
21
-49.6499999999999986
0
LINE
8
BLACK
6
CONTINUOUS
10
61.8499999999999943
20
-49.3499999999999943
11
61.5499999999999972
21
-49.6499999999999986
0
CIRCLE
8
BLACK
10
47.4600000000000009
20
-36.1999999999999957
40
0.5
0
CIRCLE
8
BLACK
10
50.
20
-36.1999999999999957
40
0.5
0
CIRCLE
8
BLACK
10
52.5399999999999991
20
-36.1999999999999957
40
0.5
0
LINE
8
BLACK
6
CONTINUOUS
10
39.7300369999999958
20
-65.9925690000000031
11
39.7300369999999958
21
-63.992568999999996
0
LINE
8
BLACK
6
CONTINUOUS
10
39.7300369999999958
20
-63.992568999999996
11
40.2062269999999984
21
-63.992568999999996
0
LINE
8
BLACK
6
CONTINUOUS
10
40.2062269999999984
20
-63.992568999999996
11
40.4919420000000017
21
-64.087806999999998
0
LINE
8
BLACK
6
CONTINUOUS
10
40.4919420000000017
20
-64.087806999999998
11
40.6824179999999984
21
-64.2782830000000018
0
LINE
8
BLACK
6
CONTINUOUS
10
40.6824179999999984
20
-64.2782830000000018
11
40.7776560000000003
21
-64.4687589999999915
0
LINE
8
BLACK
6
CONTINUOUS
10
40.7776560000000003
20
-64.4687589999999915
11
40.8728939999999952
21
-64.8497109999999992
0
LINE
8
BLACK
6
CONTINUOUS
10
40.8728939999999952
20
-64.8497109999999992
11
40.8728939999999952
21
-65.1354259999999954
0
LINE
8
BLACK
6
CONTINUOUS
10
40.8728939999999952
20
-65.1354259999999954
11
40.7776560000000003
21
-65.5163780000000031
0
LINE
8
BLACK
6
CONTINUOUS
10
40.7776560000000003
20
-65.5163780000000031
11
40.6824179999999984
21
-65.7068539999999928
0
LINE
8
BLACK
6
CONTINUOUS
10
40.6824179999999984
20
-65.7068539999999928
11
40.4919420000000017
21
-65.8973309999999941
0
LINE
8
BLACK
6
CONTINUOUS
10
40.4919420000000017
20
-65.8973309999999941
11
40.2062269999999984
21
-65.9925690000000031
0
LINE
8
BLACK
6
CONTINUOUS
10
40.2062269999999984
20
-65.9925690000000031
11
39.7300369999999958
21
-65.9925690000000031
0
LINE
8
BLACK
6
CONTINUOUS
10
41.7300369999999958
20
-65.9925690000000031
11
41.7300369999999958
21
-64.6592349999999954
0
LINE
8
BLACK
6
CONTINUOUS
10
41.7300369999999958
20
-65.0401880000000006
11
41.8252749999999978
21
-64.8497109999999992
0
LINE
8
BLACK
6
CONTINUOUS
10
41.8252749999999978
20
-64.8497109999999992
11
41.9205129999999997
21
-64.7544729999999902
0
LINE
8
BLACK
6
CONTINUOUS
10
41.9205129999999997
20
-64.7544729999999902
11
42.1109889999999965
21
-64.6592349999999954
0
LINE
8
BLACK
6
CONTINUOUS
10
42.1109889999999965
20
-64.6592349999999954
11
42.3014659999999978
21
-64.6592349999999954
0
LINE
8
BLACK
6
CONTINUOUS
10
42.9681319999999971
20
-65.9925690000000031
11
42.9681319999999971
21
-64.6592349999999954
0
LINE
8
BLACK
6
CONTINUOUS
10
42.9681319999999971
20
-63.992568999999996
11
42.8728939999999952
21
-64.087806999999998
0
LINE
8
BLACK
6
CONTINUOUS
10
42.8728939999999952
20
-64.087806999999998
11
42.9681319999999971
21
-64.1830449999999928
0
LINE
8
BLACK
6
CONTINUOUS
10
42.9681319999999971
20
-64.1830449999999928
11
43.063369999999999
21
-64.087806999999998
0
LINE
8
BLACK
6
CONTINUOUS
10
43.063369999999999
20
-64.087806999999998
11
42.9681319999999971
21
-63.992568999999996
0
LINE
8
BLACK
6
CONTINUOUS
10
42.9681319999999971
20
-63.992568999999996
11
42.9681319999999971
21
-64.1830449999999928
0
LINE
8
BLACK
6
CONTINUOUS
10
44.2062269999999984
20
-65.9925690000000031
11
44.0157509999999945
21
-65.8973309999999941
0
LINE
8
BLACK
6
CONTINUOUS
10
44.0157509999999945
20
-65.8973309999999941
11
43.9205129999999997
21
-65.7068539999999928
0
LINE
8
BLACK
6
CONTINUOUS
10
43.9205129999999997
20
-65.7068539999999928
11
43.9205129999999997
21
-63.992568999999996
0
LINE
8
BLACK
6
CONTINUOUS
10
45.2538459999999958
20
-65.9925690000000031
11
45.063369999999999
21
-65.8973309999999941
0
LINE
8
BLACK
6
CONTINUOUS
10
45.063369999999999
20
-65.8973309999999941
11
44.9681319999999971
21
-65.7068539999999928
0
LINE
8
BLACK
6
CONTINUOUS
10
44.9681319999999971
20
-65.7068539999999928
11
44.9681319999999971
21
-63.992568999999996
0
LINE
8
BLACK
6
CONTINUOUS
10
47.5395609999999991
20
-65.9925690000000031
11
47.5395609999999991
21
-63.992568999999996
0
LINE
8
BLACK
6
CONTINUOUS
10
47.5395609999999991
20
-63.992568999999996
11
48.2062279999999959
21
-65.4211399999999941
0
LINE
8
BLACK
6
CONTINUOUS
10
48.2062279999999959
20
-65.4211399999999941
11
48.8728939999999952
21
-63.992568999999996
0
LINE
8
BLACK
6
CONTINUOUS
10
48.8728939999999952
20
-63.992568999999996
11
48.8728939999999952
21
-65.9925690000000031
0
LINE
8
BLACK
6
CONTINUOUS
10
50.6824179999999984
20
-65.9925690000000031
11
50.6824179999999984
21
-64.9449499999999915
0
LINE
8
BLACK
6
CONTINUOUS
10
50.6824179999999984
20
-64.9449499999999915
11
50.5871799999999965
21
-64.7544729999999902
0
LINE
8
BLACK
6
CONTINUOUS
10
50.5871799999999965
20
-64.7544729999999902
11
50.3967039999999997
21
-64.6592349999999954
0
LINE
8
BLACK
6
CONTINUOUS
10
50.3967039999999997
20
-64.6592349999999954
11
50.0157509999999945
21
-64.6592349999999954
0
LINE
8
BLACK
6
CONTINUOUS
10
50.0157509999999945
20
-64.6592349999999954
11
49.8252749999999978
21
-64.7544729999999902
0
LINE
8
BLACK
6
CONTINUOUS
10
50.6824179999999984
20
-65.8973309999999941
11
50.4919419999999946
21
-65.9925690000000031
0
LINE
8
BLACK
6
CONTINUOUS
10
50.4919419999999946
20
-65.9925690000000031
11
50.0157509999999945
21
-65.9925690000000031
0
LINE
8
BLACK
6
CONTINUOUS
10
50.0157509999999945
20
-65.9925690000000031
11
49.8252749999999978
21
-65.8973309999999941
0
LINE
8
BLACK
6
CONTINUOUS
10
49.8252749999999978
20
-65.8973309999999941
11
49.7300369999999958
21
-65.7068539999999928
0
LINE
8
BLACK
6
CONTINUOUS
10
49.7300369999999958
20
-65.7068539999999928
11
49.7300369999999958
21
-65.5163780000000031
0
LINE
8
BLACK
6
CONTINUOUS
10
49.7300369999999958
20
-65.5163780000000031
11
49.8252749999999978
21
-65.3259019999999992
0
LINE
8
BLACK
6
CONTINUOUS
10
49.8252749999999978
20
-65.3259019999999992
11
50.0157509999999945
21
-65.2306639999999902
0
LINE
8
BLACK
6
CONTINUOUS
10
50.0157509999999945
20
-65.2306639999999902
11
50.4919419999999946
21
-65.2306639999999902
0
LINE
8
BLACK
6
CONTINUOUS
10
50.4919419999999946
20
-65.2306639999999902
11
50.6824179999999984
21
-65.1354259999999954
0
LINE
8
BLACK
6
CONTINUOUS
10
51.634799000000001
20
-64.6592349999999954
11
51.634799000000001
21
-66.6592349999999954
0
LINE
8
BLACK
6
CONTINUOUS
10
51.634799000000001
20
-64.7544729999999902
11
51.8252749999999978
21
-64.6592349999999954
0
LINE
8
BLACK
6
CONTINUOUS
10
51.8252749999999978
20
-64.6592349999999954
11
52.2062279999999959
21
-64.6592349999999954
0
LINE
8
BLACK
6
CONTINUOUS
10
52.2062279999999959
20
-64.6592349999999954
11
52.3967039999999997
21
-64.7544729999999902
0
LINE
8
BLACK
6
CONTINUOUS
10
52.3967039999999997
20
-64.7544729999999902
11
52.4919419999999946
21
-64.8497109999999992
0
LINE
8
BLACK
6
CONTINUOUS
10
52.4919419999999946
20
-64.8497109999999992
11
52.5871799999999965
21
-65.0401880000000006
0
LINE
8
BLACK
6
CONTINUOUS
10
52.5871799999999965
20
-65.0401880000000006
11
52.5871799999999965
21
-65.6116159999999979
0
LINE
8
BLACK
6
CONTINUOUS
10
52.5871799999999965
20
-65.6116159999999979
11
52.4919419999999946
21
-65.8020920000000018
0
LINE
8
BLACK
6
CONTINUOUS
10
52.4919419999999946
20
-65.8020920000000018
11
52.3967039999999997
21
-65.8973309999999941
0
LINE
8
BLACK
6
CONTINUOUS
10
52.3967039999999997
20
-65.8973309999999941
11
52.2062279999999959
21
-65.9925690000000031
0
LINE
8
BLACK
6
CONTINUOUS
10
52.2062279999999959
20
-65.9925690000000031
11
51.8252749999999978
21
-65.9925690000000031
0
LINE
8
BLACK
6
CONTINUOUS
10
51.8252749999999978
20
-65.9925690000000031
11
51.634799000000001
21
-65.8973309999999941
0
LINE
8
BLACK
6
CONTINUOUS
10
53.4443229999999971
20
-65.8020920000000018
11
53.5395609999999991
21
-65.8973309999999941
0
LINE
8
BLACK
6
CONTINUOUS
10
53.5395609999999991
20
-65.8973309999999941
11
53.4443229999999971
21
-65.9925690000000031
0
LINE
8
BLACK
6
CONTINUOUS
10
53.4443229999999971
20
-65.9925690000000031
11
53.3490849999999952
21
-65.8973309999999941
0
LINE
8
BLACK
6
CONTINUOUS
10
53.3490849999999952
20
-65.8973309999999941
11
53.4443229999999971
21
-65.8020920000000018
0
LINE
8
BLACK
6
CONTINUOUS
10
53.4443229999999971
20
-65.8020920000000018
11
53.4443229999999971
21
-65.9925690000000031
0
LINE
8
BLACK
6
CONTINUOUS
10
53.4443229999999971
20
-64.7544729999999902
11
53.5395609999999991
21
-64.8497109999999992
0
LINE
8
BLACK
6
CONTINUOUS
10
53.5395609999999991
20
-64.8497109999999992
11
53.4443229999999971
21
-64.9449499999999915
0
LINE
8
BLACK
6
CONTINUOUS
10
53.4443229999999971
20
-64.9449499999999915
11
53.3490849999999952
21
-64.8497109999999992
0
LINE
8
BLACK
6
CONTINUOUS
10
53.3490849999999952
20
-64.8497109999999992
11
53.4443229999999971
21
-64.7544729999999902
0
LINE
8
BLACK
6
CONTINUOUS
10
53.4443229999999971
20
-64.7544729999999902
11
53.4443229999999971
21
-64.9449499999999915
0
LINE
8
BLACK
6
CONTINUOUS
10
36.8222689999999986
20
-69.1277309999999972
11
37.1222689999999957
21
-69.4277309999999943
0
LINE
8
BLACK
6
CONTINUOUS
10
37.1222689999999957
20
-69.1277309999999972
11
36.8222689999999986
21
-69.4277309999999943
0
LINE
8
BLACK
6
CONTINUOUS
10
40.1109889999999965
20
-68.1925689999999918
11
40.3014659999999978
21
-68.1925689999999918
0
LINE
8
BLACK
6
CONTINUOUS
10
40.3014659999999978
20
-68.1925689999999918
11
40.4919420000000017
21
-68.2878070000000008
0
LINE
8
BLACK
6
CONTINUOUS
10
40.4919420000000017
20
-68.2878070000000008
11
40.5871799999999965
21
-68.3830449999999956
0
LINE
8
BLACK
6
CONTINUOUS
10
40.5871799999999965
20
-68.3830449999999956
11
40.6824179999999984
21
-68.5735209999999995
0
LINE
8
BLACK
6
CONTINUOUS
10
40.6824179999999984
20
-68.5735209999999995
11
40.7776560000000003
21
-68.954472999999993
0
LINE
8
BLACK
6
CONTINUOUS
10
40.7776560000000003
20
-68.954472999999993
11
40.7776560000000003
21
-69.4306639999999931
0
LINE
8
BLACK
6
CONTINUOUS
10
40.7776560000000003
20
-69.4306639999999931
11
40.6824179999999984
21
-69.8116160000000008
0
LINE
8
BLACK
6
CONTINUOUS
10
40.6824179999999984
20
-69.8116160000000008
11
40.5871799999999965
21
-70.0020919999999904
0
LINE
8
BLACK
6
CONTINUOUS
10
40.5871799999999965
20
-70.0020919999999904
11
40.4919420000000017
21
-70.0973309999999969
0
LINE
8
BLACK
6
CONTINUOUS
10
40.4919420000000017
20
-70.0973309999999969
11
40.3014659999999978
21
-70.1925689999999918
0
LINE
8
BLACK
6
CONTINUOUS
10
40.3014659999999978
20
-70.1925689999999918
11
40.1109889999999965
21
-70.1925689999999918
0
LINE
8
BLACK
6
CONTINUOUS
10
40.1109889999999965
20
-70.1925689999999918
11
39.9205129999999997
21
-70.0973309999999969
0
LINE
8
BLACK
6
CONTINUOUS
10
39.9205129999999997
20
-70.0973309999999969
11
39.8252749999999978
21
-70.0020919999999904
0
LINE
8
BLACK
6
CONTINUOUS
10
39.8252749999999978
20
-70.0020919999999904
11
39.7300369999999958
21
-69.8116160000000008
0
LINE
8
BLACK
6
CONTINUOUS
10
39.7300369999999958
20
-69.8116160000000008
11
39.634799000000001
21
-69.4306639999999931
0
LINE
8
BLACK
6
CONTINUOUS
10
39.634799000000001
20
-69.4306639999999931
11
39.634799000000001
21
-68.954472999999993
0
LINE
8
BLACK
6
CONTINUOUS
10
39.634799000000001
20
-68.954472999999993
11
39.7300369999999958
21
-68.5735209999999995
0
LINE
8
BLACK
6
CONTINUOUS
10
39.7300369999999958
20
-68.5735209999999995
11
39.8252749999999978
21
-68.3830449999999956
0
LINE
8
BLACK
6
CONTINUOUS
10
39.8252749999999978
20
-68.3830449999999956
11
39.9205129999999997
21
-68.2878070000000008
0
LINE
8
BLACK
6
CONTINUOUS
10
39.9205129999999997
20
-68.2878070000000008
11
40.1109889999999965
21
-68.1925689999999918
0
LINE
8
BLACK
6
CONTINUOUS
10
41.634799000000001
20
-70.0020919999999904
11
41.7300369999999958
21
-70.0973309999999969
0
LINE
8
BLACK
6
CONTINUOUS
10
41.7300369999999958
20
-70.0973309999999969
11
41.634799000000001
21
-70.1925689999999918
0
LINE
8
BLACK
6
CONTINUOUS
10
41.634799000000001
20
-70.1925689999999918
11
41.5395609999999991
21
-70.0973309999999969
0
LINE
8
BLACK
6
CONTINUOUS
10
41.5395609999999991
20
-70.0973309999999969
11
41.634799000000001
21
-70.0020919999999904
0
LINE
8
BLACK
6
CONTINUOUS
10
41.634799000000001
20
-70.0020919999999904
11
41.634799000000001
21
-70.1925689999999918
0
LINE
8
BLACK
6
CONTINUOUS
10
42.3967039999999997
20
-68.1925689999999918
11
43.634799000000001
21
-68.1925689999999918
0
LINE
8
BLACK
6
CONTINUOUS
10
43.634799000000001
20
-68.1925689999999918
11
42.9681319999999971
21
-68.954472999999993
0
LINE
8
BLACK
6
CONTINUOUS
10
42.9681319999999971
20
-68.954472999999993
11
43.2538470000000004
21
-68.954472999999993
0
LINE
8
BLACK
6
CONTINUOUS
10
43.2538470000000004
20
-68.954472999999993
11
43.4443229999999971
21
-69.0497110000000021
0
LINE
8
BLACK
6
CONTINUOUS
10
43.4443229999999971
20
-69.0497110000000021
11
43.5395609999999991
21
-69.1449499999999944
0
LINE
8
BLACK
6
CONTINUOUS
10
43.5395609999999991
20
-69.1449499999999944
11
43.634799000000001
21
-69.3354259999999982
0
LINE
8
BLACK
6
CONTINUOUS
10
43.634799000000001
20
-69.3354259999999982
11
43.634799000000001
21
-69.8116160000000008
0
LINE
8
BLACK
6
CONTINUOUS
10
43.634799000000001
20
-69.8116160000000008
11
43.5395609999999991
21
-70.0020919999999904
0
LINE
8
BLACK
6
CONTINUOUS
10
43.5395609999999991
20
-70.0020919999999904
11
43.4443229999999971
21
-70.0973309999999969
0
LINE
8
BLACK
6
CONTINUOUS
10
43.4443229999999971
20
-70.0973309999999969
11
43.2538470000000004
21
-70.1925689999999918
0
LINE
8
BLACK
6
CONTINUOUS
10
43.2538470000000004
20
-70.1925689999999918
11
42.6824179999999984
21
-70.1925689999999918
0
LINE
8
BLACK
6
CONTINUOUS
10
42.6824179999999984
20
-70.1925689999999918
11
42.4919419999999946
21
-70.0973309999999969
0
LINE
8
BLACK
6
CONTINUOUS
10
42.4919419999999946
20
-70.0973309999999969
11
42.3967039999999997
21
-70.0020919999999904
0
LINE
8
BLACK
6
CONTINUOUS
10
44.8728939999999952
20
-68.1925689999999918
11
45.0633709999999965
21
-68.1925689999999918
0
LINE
8
BLACK
6
CONTINUOUS
10
45.0633709999999965
20
-68.1925689999999918
11
45.2538470000000004
21
-68.2878070000000008
0
LINE
8
BLACK
6
CONTINUOUS
10
45.2538470000000004
20
-68.2878070000000008
11
45.3490849999999952
21
-68.3830449999999956
0
LINE
8
BLACK
6
CONTINUOUS
10
45.3490849999999952
20
-68.3830449999999956
11
45.4443229999999971
21
-68.5735209999999995
0
LINE
8
BLACK
6
CONTINUOUS
10
45.4443229999999971
20
-68.5735209999999995
11
45.5395609999999991
21
-68.954472999999993
0
LINE
8
BLACK
6
CONTINUOUS
10
45.5395609999999991
20
-68.954472999999993
11
45.5395609999999991
21
-69.4306639999999931
0
LINE
8
BLACK
6
CONTINUOUS
10
45.5395609999999991
20
-69.4306639999999931
11
45.4443229999999971
21
-69.8116160000000008
0
LINE
8
BLACK
6
CONTINUOUS
10
45.4443229999999971
20
-69.8116160000000008
11
45.3490849999999952
21
-70.0020919999999904
0
LINE
8
BLACK
6
CONTINUOUS
10
45.3490849999999952
20
-70.0020919999999904
11
45.2538470000000004
21
-70.0973309999999969
0
LINE
8
BLACK
6
CONTINUOUS
10
45.2538470000000004
20
-70.0973309999999969
11
45.0633709999999965
21
-70.1925689999999918
0
LINE
8
BLACK
6
CONTINUOUS
10
45.0633709999999965
20
-70.1925689999999918
11
44.8728939999999952
21
-70.1925689999999918
0
LINE
8
BLACK
6
CONTINUOUS
10
44.8728939999999952
20
-70.1925689999999918
11
44.6824179999999984
21
-70.0973309999999969
0
LINE
8
BLACK
6
CONTINUOUS
10
44.6824179999999984
20
-70.0973309999999969
11
44.5871799999999965
21
-70.0020919999999904
0
LINE
8
BLACK
6
CONTINUOUS
10
44.5871799999999965
20
-70.0020919999999904
11
44.4919419999999946
21
-69.8116160000000008
0
LINE
8
BLACK
6
CONTINUOUS
10
44.4919419999999946
20
-69.8116160000000008
11
44.3967039999999997
21
-69.4306639999999931
0
LINE
8
BLACK
6
CONTINUOUS
10
44.3967039999999997
20
-69.4306639999999931
11
44.3967039999999997
21
-68.954472999999993
0
LINE
8
BLACK
6
CONTINUOUS
10
44.3967039999999997
20
-68.954472999999993
11
44.4919419999999946
21
-68.5735209999999995
0
LINE
8
BLACK
6
CONTINUOUS
10
44.4919419999999946
20
-68.5735209999999995
11
44.5871799999999965
21
-68.3830449999999956
0
LINE
8
BLACK
6
CONTINUOUS
10
44.5871799999999965
20
-68.3830449999999956
11
44.6824179999999984
21
-68.2878070000000008
0
LINE
8
BLACK
6
CONTINUOUS
10
44.6824179999999984
20
-68.2878070000000008
11
44.8728939999999952
21
-68.1925689999999918
0
LINE
8
BLACK
6
CONTINUOUS
10
46.7776560000000003
20
-68.1925689999999918
11
46.9681329999999946
21
-68.1925689999999918
0
LINE
8
BLACK
6
CONTINUOUS
10
46.9681329999999946
20
-68.1925689999999918
11
47.1586089999999984
21
-68.2878070000000008
0
LINE
8
BLACK
6
CONTINUOUS
10
47.1586089999999984
20
-68.2878070000000008
11
47.2538470000000004
21
-68.3830449999999956
0
LINE
8
BLACK
6
CONTINUOUS
10
47.2538470000000004
20
-68.3830449999999956
11
47.3490849999999952
21
-68.5735209999999995
0
LINE
8
BLACK
6
CONTINUOUS
10
47.3490849999999952
20
-68.5735209999999995
11
47.4443229999999971
21
-68.954472999999993
0
LINE
8
BLACK
6
CONTINUOUS
10
47.4443229999999971
20
-68.954472999999993
11
47.4443229999999971
21
-69.4306639999999931
0
LINE
8
BLACK
6
CONTINUOUS
10
47.4443229999999971
20
-69.4306639999999931
11
47.3490849999999952
21
-69.8116160000000008
0
LINE
8
BLACK
6
CONTINUOUS
10
47.3490849999999952
20
-69.8116160000000008
11
47.2538470000000004
21
-70.0020919999999904
0
LINE
8
BLACK
6
CONTINUOUS
10
47.2538470000000004
20
-70.0020919999999904
11
47.1586089999999984
21
-70.0973309999999969
0
LINE
8
BLACK
6
CONTINUOUS
10
47.1586089999999984
20
-70.0973309999999969
11
46.9681329999999946
21
-70.1925689999999918
0
LINE
8
BLACK
6
CONTINUOUS
10
46.9681329999999946
20
-70.1925689999999918
11
46.7776560000000003
21
-70.1925689999999918
0
LINE
8
BLACK
6
CONTINUOUS
10
46.7776560000000003
20
-70.1925689999999918
11
46.5871799999999965
21
-70.0973309999999969
0
LINE
8
BLACK
6
CONTINUOUS
10
46.5871799999999965
20
-70.0973309999999969
11
46.4919419999999946
21
-70.0020919999999904
0
LINE
8
BLACK
6
CONTINUOUS
10
46.4919419999999946
20
-70.0020919999999904
11
46.3967039999999997
21
-69.8116160000000008
0
LINE
8
BLACK
6
CONTINUOUS
10
46.3967039999999997
20
-69.8116160000000008
11
46.3014659999999978
21
-69.4306639999999931
0
LINE
8
BLACK
6
CONTINUOUS
10
46.3014659999999978
20
-69.4306639999999931
11
46.3014659999999978
21
-68.954472999999993
0
LINE
8
BLACK
6
CONTINUOUS
10
46.3014659999999978
20
-68.954472999999993
11
46.3967039999999997
21
-68.5735209999999995
0
LINE
8
BLACK
6
CONTINUOUS
10
46.3967039999999997
20
-68.5735209999999995
11
46.4919419999999946
21
-68.3830449999999956
0
LINE
8
BLACK
6
CONTINUOUS
10
46.4919419999999946
20
-68.3830449999999956
11
46.5871799999999965
21
-68.2878070000000008
0
LINE
8
BLACK
6
CONTINUOUS
10
46.5871799999999965
20
-68.2878070000000008
11
46.7776560000000003
21
-68.1925689999999918
0
LINE
8
BLACK
6
CONTINUOUS
10
48.3014659999999978
20
-70.1925689999999918
11
48.3014659999999978
21
-68.8592349999999982
0
LINE
8
BLACK
6
CONTINUOUS
10
48.3014659999999978
20
-69.0497110000000021
11
48.3967039999999997
21
-68.954472999999993
0
LINE
8
BLACK
6
CONTINUOUS
10
48.3967039999999997
20
-68.954472999999993
11
48.5871799999999965
21
-68.8592349999999982
0
LINE
8
BLACK
6
CONTINUOUS
10
48.5871799999999965
20
-68.8592349999999982
11
48.8728949999999998
21
-68.8592349999999982
0
LINE
8
BLACK
6
CONTINUOUS
10
48.8728949999999998
20
-68.8592349999999982
11
49.0633709999999965
21
-68.954472999999993
0
LINE
8
BLACK
6
CONTINUOUS
10
49.0633709999999965
20
-68.954472999999993
11
49.1586089999999984
21
-69.1449499999999944
0
LINE
8
BLACK
6
CONTINUOUS
10
49.1586089999999984
20
-69.1449499999999944
11
49.1586089999999984
21
-70.1925689999999918
0
LINE
8
BLACK
6
CONTINUOUS
10
49.1586089999999984
20
-69.1449499999999944
11
49.2538470000000004
21
-68.954472999999993
0
LINE
8
BLACK
6
CONTINUOUS
10
49.2538470000000004
20
-68.954472999999993
11
49.4443229999999971
21
-68.8592349999999982
0
LINE
8
BLACK
6
CONTINUOUS
10
49.4443229999999971
20
-68.8592349999999982
11
49.7300369999999958
21
-68.8592349999999982
0
LINE
8
BLACK
6
CONTINUOUS
10
49.7300369999999958
20
-68.8592349999999982
11
49.9205139999999972
21
-68.954472999999993
0
LINE
8
BLACK
6
CONTINUOUS
10
49.9205139999999972
20
-68.954472999999993
11
50.0157519999999991
21
-69.1449499999999944
0
LINE
8
BLACK
6
CONTINUOUS
10
50.0157519999999991
20
-69.1449499999999944
11
50.0157519999999991
21
-70.1925689999999918
0
LINE
8
BLACK
6
CONTINUOUS
10
50.9681329999999946
20
-70.1925689999999918
11
50.9681329999999946
21
-68.8592349999999982
0
LINE
8
BLACK
6
CONTINUOUS
10
50.9681329999999946
20
-69.0497110000000021
11
51.0633709999999965
21
-68.954472999999993
0
LINE
8
BLACK
6
CONTINUOUS
10
51.0633709999999965
20
-68.954472999999993
11
51.2538470000000004
21
-68.8592349999999982
0
LINE
8
BLACK
6
CONTINUOUS
10
51.2538470000000004
20
-68.8592349999999982
11
51.5395619999999965
21
-68.8592349999999982
0
LINE
8
BLACK
6
CONTINUOUS
10
51.5395619999999965
20
-68.8592349999999982
11
51.7300380000000004
21
-68.954472999999993
0
LINE
8
BLACK
6
CONTINUOUS
10
51.7300380000000004
20
-68.954472999999993
11
51.8252759999999952
21
-69.1449499999999944
0
LINE
8
BLACK
6
CONTINUOUS
10
51.8252759999999952
20
-69.1449499999999944
11
51.8252759999999952
21
-70.1925689999999918
0
LINE
8
BLACK
6
CONTINUOUS
10
51.8252759999999952
20
-69.1449499999999944
11
51.9205139999999972
21
-68.954472999999993
0
LINE
8
BLACK
6
CONTINUOUS
10
51.9205139999999972
20
-68.954472999999993
11
52.110990000000001
21
-68.8592349999999982
0
LINE
8
BLACK
6
CONTINUOUS
10
52.110990000000001
20
-68.8592349999999982
11
52.3967039999999997
21
-68.8592349999999982
0
LINE
8
BLACK
6
CONTINUOUS
10
52.3967039999999997
20
-68.8592349999999982
11
52.5871810000000011
21
-68.954472999999993
0
LINE
8
BLACK
6
CONTINUOUS
10
52.5871810000000011
20
-68.954472999999993
11
52.6824189999999959
21
-69.1449499999999944
0
LINE
8
BLACK
6
CONTINUOUS
10
52.6824189999999959
20
-69.1449499999999944
11
52.6824189999999959
21
-70.1925689999999918
0
LINE
8
BLACK
6
CONTINUOUS
10
56.587180999999994
20
-68.0973309999999969
11
54.8728959999999972
21
-70.6687589999999943
0
LINE
8
BLACK
6
CONTINUOUS
10
59.1586099999999959
20
-68.1925689999999918
11
59.3490869999999973
21
-68.1925689999999918
0
LINE
8
BLACK
6
CONTINUOUS
10
59.3490869999999973
20
-68.1925689999999918
11
59.539562999999994
21
-68.2878070000000008
0
LINE
8
BLACK
6
CONTINUOUS
10
59.539562999999994
20
-68.2878070000000008
11
59.634800999999996
21
-68.3830449999999956
0
LINE
8
BLACK
6
CONTINUOUS
10
59.634800999999996
20
-68.3830449999999956
11
59.7300389999999979
21
-68.5735209999999995
0
LINE
8
BLACK
6
CONTINUOUS
10
59.7300389999999979
20
-68.5735209999999995
11
59.8252769999999998
21
-68.954472999999993
0
LINE
8
BLACK
6
CONTINUOUS
10
59.8252769999999998
20
-68.954472999999993
11
59.8252769999999998
21
-69.4306639999999931
0
LINE
8
BLACK
6
CONTINUOUS
10
59.8252769999999998
20
-69.4306639999999931
11
59.7300389999999979
21
-69.8116160000000008
0
LINE
8
BLACK
6
CONTINUOUS
10
59.7300389999999979
20
-69.8116160000000008
11
59.634800999999996
21
-70.0020919999999904
0
LINE
8
BLACK
6
CONTINUOUS
10
59.634800999999996
20
-70.0020919999999904
11
59.539562999999994
21
-70.0973309999999969
0
LINE
8
BLACK
6
CONTINUOUS
10
59.539562999999994
20
-70.0973309999999969
11
59.3490869999999973
21
-70.1925689999999918
0
LINE
8
BLACK
6
CONTINUOUS
10
59.3490869999999973
20
-70.1925689999999918
11
59.1586099999999959
21
-70.1925689999999918
0
LINE
8
BLACK
6
CONTINUOUS
10
59.1586099999999959
20
-70.1925689999999918
11
58.9681339999999992
21
-70.0973309999999969
0
LINE
8
BLACK
6
CONTINUOUS
10
58.9681339999999992
20
-70.0973309999999969
11
58.8728959999999972
21
-70.0020919999999904
0
LINE
8
BLACK
6
CONTINUOUS
10
58.8728959999999972
20
-70.0020919999999904
11
58.7776579999999953
21
-69.8116160000000008
0
LINE
8
BLACK
6
CONTINUOUS
10
58.7776579999999953
20
-69.8116160000000008
11
58.6824200000000005
21
-69.4306639999999931
0
LINE
8
BLACK
6
CONTINUOUS
10
58.6824200000000005
20
-69.4306639999999931
11
58.6824200000000005
21
-68.954472999999993
0
LINE
8
BLACK
6
CONTINUOUS
10
58.6824200000000005
20
-68.954472999999993
11
58.7776579999999953
21
-68.5735209999999995
0
LINE
8
BLACK
6
CONTINUOUS
10
58.7776579999999953
20
-68.5735209999999995
11
58.8728959999999972
21
-68.3830449999999956
0
LINE
8
BLACK
6
CONTINUOUS
10
58.8728959999999972
20
-68.3830449999999956
11
58.9681339999999992
21
-68.2878070000000008
0
LINE
8
BLACK
6
CONTINUOUS
10
58.9681339999999992
20
-68.2878070000000008
11
59.1586099999999959
21
-68.1925689999999918
0
LINE
8
BLACK
6
CONTINUOUS
10
60.6824200000000005
20
-70.0020919999999904
11
60.7776579999999953
21
-70.0973309999999969
0
LINE
8
BLACK
6
CONTINUOUS
10
60.7776579999999953
20
-70.0973309999999969
11
60.6824200000000005
21
-70.1925689999999918
0
LINE
8
BLACK
6
CONTINUOUS
10
60.6824200000000005
20
-70.1925689999999918
11
60.5871819999999985
21
-70.0973309999999969
0
LINE
8
BLACK
6
CONTINUOUS
10
60.5871819999999985
20
-70.0973309999999969
11
60.6824200000000005
21
-70.0020919999999904
0
LINE
8
BLACK
6
CONTINUOUS
10
60.6824200000000005
20
-70.0020919999999904
11
60.6824200000000005
21
-70.1925689999999918
0
LINE
8
BLACK
6
CONTINUOUS
10
62.0157529999999966
20
-68.1925689999999918
11
62.2062299999999979
21
-68.1925689999999918
0
LINE
8
BLACK
6
CONTINUOUS
10
62.2062299999999979
20
-68.1925689999999918
11
62.3967059999999947
21
-68.2878070000000008
0
LINE
8
BLACK
6
CONTINUOUS
10
62.3967059999999947
20
-68.2878070000000008
11
62.4919439999999966
21
-68.3830449999999956
0
LINE
8
BLACK
6
CONTINUOUS
10
62.4919439999999966
20
-68.3830449999999956
11
62.5871819999999985
21
-68.5735209999999995
0
LINE
8
BLACK
6
CONTINUOUS
10
62.5871819999999985
20
-68.5735209999999995
11
62.6824200000000005
21
-68.954472999999993
0
LINE
8
BLACK
6
CONTINUOUS
10
62.6824200000000005
20
-68.954472999999993
11
62.6824200000000005
21
-69.4306639999999931
0
LINE
8
BLACK
6
CONTINUOUS
10
62.6824200000000005
20
-69.4306639999999931
11
62.5871819999999985
21
-69.8116160000000008
0
LINE
8
BLACK
6
CONTINUOUS
10
62.5871819999999985
20
-69.8116160000000008
11
62.4919439999999966
21
-70.0020919999999904
0
LINE
8
BLACK
6
CONTINUOUS
10
62.4919439999999966
20
-70.0020919999999904
11
62.3967059999999947
21
-70.0973309999999969
0
LINE
8
BLACK
6
CONTINUOUS
10
62.3967059999999947
20
-70.0973309999999969
11
62.2062299999999979
21
-70.1925689999999918
0
LINE
8
BLACK
6
CONTINUOUS
10
62.2062299999999979
20
-70.1925689999999918
11
62.0157529999999966
21
-70.1925689999999918
0
LINE
8
BLACK
6
CONTINUOUS
10
62.0157529999999966
20
-70.1925689999999918
11
61.8252769999999998
21
-70.0973309999999969
0
LINE
8
BLACK
6
CONTINUOUS
10
61.8252769999999998
20
-70.0973309999999969
11
61.7300389999999979
21
-70.0020919999999904
0
LINE
8
BLACK
6
CONTINUOUS
10
61.7300389999999979
20
-70.0020919999999904
11
61.634800999999996
21
-69.8116160000000008
0
LINE
8
BLACK
6
CONTINUOUS
10
61.634800999999996
20
-69.8116160000000008
11
61.539562999999994
21
-69.4306639999999931
0
LINE
8
BLACK
6
CONTINUOUS
10
61.539562999999994
20
-69.4306639999999931
11
61.539562999999994
21
-68.954472999999993
0
LINE
8
BLACK
6
CONTINUOUS
10
61.539562999999994
20
-68.954472999999993
11
61.634800999999996
21
-68.5735209999999995
0
LINE
8
BLACK
6
CONTINUOUS
10
61.634800999999996
20
-68.5735209999999995
11
61.7300389999999979
21
-68.3830449999999956
0
LINE
8
BLACK
6
CONTINUOUS
10
61.7300389999999979
20
-68.3830449999999956
11
61.8252769999999998
21
-68.2878070000000008
0
LINE
8
BLACK
6
CONTINUOUS
10
61.8252769999999998
20
-68.2878070000000008
11
62.0157529999999966
21
-68.1925689999999918
0
LINE
8
BLACK
6
CONTINUOUS
10
64.5871819999999985
20
-70.1925689999999918
11
63.4443249999999992
21
-70.1925689999999918
0
LINE
8
BLACK
6
CONTINUOUS
10
64.0157530000000037
20
-70.1925689999999918
11
64.0157530000000037
21
-68.1925689999999918
0
LINE
8
BLACK
6
CONTINUOUS
10
64.0157530000000037
20
-68.1925689999999918
11
63.8252769999999998
21
-68.4782829999999905
0
LINE
8
BLACK
6
CONTINUOUS
10
63.8252769999999998
20
-68.4782829999999905
11
63.634800999999996
21
-68.6687589999999943
0
LINE
8
BLACK
6
CONTINUOUS
10
63.634800999999996
20
-68.6687589999999943
11
63.4443249999999992
21
-68.7639970000000034
0
LINE
8
BLACK
6
CONTINUOUS
10
66.4919440000000037
20
-70.1925689999999918
11
65.3490869999999973
21
-70.1925689999999918
0
LINE
8
BLACK
6
CONTINUOUS
10
65.9205149999999946
20
-70.1925689999999918
11
65.9205149999999946
21
-68.1925689999999918
0
LINE
8
BLACK
6
CONTINUOUS
10
65.9205149999999946
20
-68.1925689999999918
11
65.7300389999999908
21
-68.4782829999999905
0
LINE
8
BLACK
6
CONTINUOUS
10
65.7300389999999908
20
-68.4782829999999905
11
65.5395630000000011
21
-68.6687589999999943
0
LINE
8
BLACK
6
CONTINUOUS
10
65.5395630000000011
20
-68.6687589999999943
11
65.3490869999999973
21
-68.7639970000000034
0
LINE
8
BLACK
6
CONTINUOUS
10
67.634800999999996
20
-69.0497110000000021
11
67.4443249999999921
21
-68.954472999999993
0
LINE
8
BLACK
6
CONTINUOUS
10
67.4443249999999921
20
-68.954472999999993
11
67.3490869999999973
21
-68.8592349999999982
0
LINE
8
BLACK
6
CONTINUOUS
10
67.3490869999999973
20
-68.8592349999999982
11
67.2538490000000024
21
-68.6687589999999943
0
LINE
8
BLACK
6
CONTINUOUS
10
67.2538490000000024
20
-68.6687589999999943
11
67.2538490000000024
21
-68.5735209999999995
0
LINE
8
BLACK
6
CONTINUOUS
10
67.2538490000000024
20
-68.5735209999999995
11
67.3490869999999973
21
-68.3830449999999956
0
LINE
8
BLACK
6
CONTINUOUS
10
67.3490869999999973
20
-68.3830449999999956
11
67.4443249999999921
21
-68.2878070000000008
0
LINE
8
BLACK
6
CONTINUOUS
10
67.4443249999999921
20
-68.2878070000000008
11
67.634800999999996
21
-68.1925689999999918
0
LINE
8
BLACK
6
CONTINUOUS
10
67.634800999999996
20
-68.1925689999999918
11
68.0157540000000012
21
-68.1925689999999918
0
LINE
8
BLACK
6
CONTINUOUS
10
68.0157540000000012
20
-68.1925689999999918
11
68.2062299999999908
21
-68.2878070000000008
0
LINE
8
BLACK
6
CONTINUOUS
10
68.2062299999999908
20
-68.2878070000000008
11
68.3014679999999998
21
-68.3830449999999956
0
LINE
8
BLACK
6
CONTINUOUS
10
68.3014679999999998
20
-68.3830449999999956
11
68.3967059999999947
21
-68.5735209999999995
0
LINE
8
BLACK
6
CONTINUOUS
10
68.3967059999999947
20
-68.5735209999999995
11
68.3967059999999947
21
-68.6687589999999943
0
LINE
8
BLACK
6
CONTINUOUS
10
68.3967059999999947
20
-68.6687589999999943
11
68.3014679999999998
21
-68.8592349999999982
0
LINE
8
BLACK
6
CONTINUOUS
10
68.3014679999999998
20
-68.8592349999999982
11
68.2062299999999908
21
-68.954472999999993
0
LINE
8
BLACK
6
CONTINUOUS
10
68.2062299999999908
20
-68.954472999999993
11
68.0157540000000012
21
-69.0497110000000021
0
LINE
8
BLACK
6
CONTINUOUS
10
68.0157540000000012
20
-69.0497110000000021
11
67.634800999999996
21
-69.0497110000000021
0
LINE
8
BLACK
6
CONTINUOUS
10
67.634800999999996
20
-69.0497110000000021
11
67.4443249999999921
21
-69.1449499999999944
0
LINE
8
BLACK
6
CONTINUOUS
10
67.4443249999999921
20
-69.1449499999999944
11
67.3490869999999973
21
-69.2401880000000034
0
LINE
8
BLACK
6
CONTINUOUS
10
67.3490869999999973
20
-69.2401880000000034
11
67.2538490000000024
21
-69.4306639999999931
0
LINE
8
BLACK
6
CONTINUOUS
10
67.2538490000000024
20
-69.4306639999999931
11
67.2538490000000024
21
-69.8116160000000008
0
LINE
8
BLACK
6
CONTINUOUS
10
67.2538490000000024
20
-69.8116160000000008
11
67.3490869999999973
21
-70.0020919999999904
0
LINE
8
BLACK
6
CONTINUOUS
10
67.3490869999999973
20
-70.0020919999999904
11
67.4443249999999921
21
-70.0973309999999969
0
LINE
8
BLACK
6
CONTINUOUS
10
67.4443249999999921
20
-70.0973309999999969
11
67.634800999999996
21
-70.1925689999999918
0
LINE
8
BLACK
6
CONTINUOUS
10
67.634800999999996
20
-70.1925689999999918
11
68.0157540000000012
21
-70.1925689999999918
0
LINE
8
BLACK
6
CONTINUOUS
10
68.0157540000000012
20
-70.1925689999999918
11
68.2062299999999908
21
-70.0973309999999969
0
LINE
8
BLACK
6
CONTINUOUS
10
68.2062299999999908
20
-70.0973309999999969
11
68.3014679999999998
21
-70.0020919999999904
0
LINE
8
BLACK
6
CONTINUOUS
10
68.3014679999999998
20
-70.0020919999999904
11
68.3967059999999947
21
-69.8116160000000008
0
LINE
8
BLACK
6
CONTINUOUS
10
68.3967059999999947
20
-69.8116160000000008
11
68.3967059999999947
21
-69.4306639999999931
0
LINE
8
BLACK
6
CONTINUOUS
10
68.3967059999999947
20
-69.4306639999999931
11
68.3014679999999998
21
-69.2401880000000034
0
LINE
8
BLACK
6
CONTINUOUS
10
68.3014679999999998
20
-69.2401880000000034
11
68.2062299999999908
21
-69.1449499999999944
0
LINE
8
BLACK
6
CONTINUOUS
10
68.2062299999999908
20
-69.1449499999999944
11
68.0157540000000012
21
-69.0497110000000021
0
LINE
8
BLACK
6
CONTINUOUS
10
69.1586109999999934
20
-68.1925689999999918
11
69.1586109999999934
21
-68.5735209999999995
0
LINE
8
BLACK
6
CONTINUOUS
10
69.9205159999999921
20
-68.1925689999999918
11
69.9205159999999921
21
-68.5735209999999995
0
LINE
8
BLACK
6
CONTINUOUS
10
72.8728979999999922
20
-70.954472999999993
11
72.7776589999999999
21
-70.8592349999999982
0
LINE
8
BLACK
6
CONTINUOUS
10
72.7776589999999999
20
-70.8592349999999982
11
72.587182999999996
21
-70.5735209999999995
0
LINE
8
BLACK
6
CONTINUOUS
10
72.587182999999996
20
-70.5735209999999995
11
72.4919450000000012
21
-70.3830449999999956
0
LINE
8
BLACK
6
CONTINUOUS
10
72.4919450000000012
20
-70.3830449999999956
11
72.3967069999999921
21
-70.0973309999999969
0
LINE
8
BLACK
6
CONTINUOUS
10
72.3967069999999921
20
-70.0973309999999969
11
72.3014689999999973
21
-69.6211399999999969
0
LINE
8
BLACK
6
CONTINUOUS
10
72.3014689999999973
20
-69.6211399999999969
11
72.3014689999999973
21
-69.2401880000000034
0
LINE
8
BLACK
6
CONTINUOUS
10
72.3014689999999973
20
-69.2401880000000034
11
72.3967069999999921
21
-68.7639970000000034
0
LINE
8
BLACK
6
CONTINUOUS
10
72.3967069999999921
20
-68.7639970000000034
11
72.4919450000000012
21
-68.4782829999999905
0
LINE
8
BLACK
6
CONTINUOUS
10
72.4919450000000012
20
-68.4782829999999905
11
72.587182999999996
21
-68.2878070000000008
0
LINE
8
BLACK
6
CONTINUOUS
10
72.587182999999996
20
-68.2878070000000008
11
72.7776589999999999
21
-68.0020919999999904
0
LINE
8
BLACK
6
CONTINUOUS
10
72.7776589999999999
20
-68.0020919999999904
11
72.8728979999999922
21
-67.9068539999999956
0
LINE
8
BLACK
6
CONTINUOUS
10
73.4443260000000038
20
-68.1925689999999918
11
74.6824209999999908
21
-68.1925689999999918
0
LINE
8
BLACK
6
CONTINUOUS
10
74.6824209999999908
20
-68.1925689999999918
11
74.0157540000000012
21
-68.954472999999993
0
LINE
8
BLACK
6
CONTINUOUS
10
74.0157540000000012
20
-68.954472999999993
11
74.3014689999999973
21
-68.954472999999993
0
LINE
8
BLACK
6
CONTINUOUS
10
74.3014689999999973
20
-68.954472999999993
11
74.4919450000000012
21
-69.0497110000000021
0
LINE
8
BLACK
6
CONTINUOUS
10
74.4919450000000012
20
-69.0497110000000021
11
74.587182999999996
21
-69.1449499999999944
0
LINE
8
BLACK
6
CONTINUOUS
10
74.587182999999996
20
-69.1449499999999944
11
74.6824209999999908
21
-69.3354259999999982
0
LINE
8
BLACK
6
CONTINUOUS
10
74.6824209999999908
20
-69.3354259999999982
11
74.6824209999999908
21
-69.8116160000000008
0
LINE
8
BLACK
6
CONTINUOUS
10
74.6824209999999908
20
-69.8116160000000008
11
74.587182999999996
21
-70.0020919999999904
0
LINE
8
BLACK
6
CONTINUOUS
10
74.587182999999996
20
-70.0020919999999904
11
74.4919450000000012
21
-70.0973309999999969
0
LINE
8
BLACK
6
CONTINUOUS
10
74.4919450000000012
20
-70.0973309999999969
11
74.3014689999999973
21
-70.1925689999999918
0
LINE
8
BLACK
6
CONTINUOUS
10
74.3014689999999973
20
-70.1925689999999918
11
73.7300400000000025
21
-70.1925689999999918
0
LINE
8
BLACK
6
CONTINUOUS
10
73.7300400000000025
20
-70.1925689999999918
11
73.5395639999999986
21
-70.0973309999999969
0
LINE
8
BLACK
6
CONTINUOUS
10
73.5395639999999986
20
-70.0973309999999969
11
73.4443260000000038
21
-70.0020919999999904
0
LINE
8
BLACK
6
CONTINUOUS
10
75.9205159999999921
20
-68.1925689999999918
11
76.1109929999999935
21
-68.1925689999999918
0
LINE
8
BLACK
6
CONTINUOUS
10
76.1109929999999935
20
-68.1925689999999918
11
76.3014689999999973
21
-68.2878070000000008
0
LINE
8
BLACK
6
CONTINUOUS
10
76.3014689999999973
20
-68.2878070000000008
11
76.3967069999999921
21
-68.3830449999999956
0
LINE
8
BLACK
6
CONTINUOUS
10
76.3967069999999921
20
-68.3830449999999956
11
76.4919450000000012
21
-68.5735209999999995
0
LINE
8
BLACK
6
CONTINUOUS
10
76.4919450000000012
20
-68.5735209999999995
11
76.587182999999996
21
-68.954472999999993
0
LINE
8
BLACK
6
CONTINUOUS
10
76.587182999999996
20
-68.954472999999993
11
76.587182999999996
21
-69.4306639999999931
0
LINE
8
BLACK
6
CONTINUOUS
10
76.587182999999996
20
-69.4306639999999931
11
76.4919450000000012
21
-69.8116160000000008
0
LINE
8
BLACK
6
CONTINUOUS
10
76.4919450000000012
20
-69.8116160000000008
11
76.3967069999999921
21
-70.0020919999999904
0
LINE
8
BLACK
6
CONTINUOUS
10
76.3967069999999921
20
-70.0020919999999904
11
76.3014689999999973
21
-70.0973309999999969
0
LINE
8
BLACK
6
CONTINUOUS
10
76.3014689999999973
20
-70.0973309999999969
11
76.1109929999999935
21
-70.1925689999999918
0
LINE
8
BLACK
6
CONTINUOUS
10
76.1109929999999935
20
-70.1925689999999918
11
75.9205159999999921
21
-70.1925689999999918
0
LINE
8
BLACK
6
CONTINUOUS
10
75.9205159999999921
20
-70.1925689999999918
11
75.7300400000000025
21
-70.0973309999999969
0
LINE
8
BLACK
6
CONTINUOUS
10
75.7300400000000025
20
-70.0973309999999969
11
75.6348019999999934
21
-70.0020919999999904
0
LINE
8
BLACK
6
CONTINUOUS
10
75.6348019999999934
20
-70.0020919999999904
11
75.5395639999999986
21
-69.8116160000000008
0
LINE
8
BLACK
6
CONTINUOUS
10
75.5395639999999986
20
-69.8116160000000008
11
75.4443259999999896
21
-69.4306639999999931
0
LINE
8
BLACK
6
CONTINUOUS
10
75.4443259999999896
20
-69.4306639999999931
11
75.4443259999999896
21
-68.954472999999993
0
LINE
8
BLACK
6
CONTINUOUS
10
75.4443259999999896
20
-68.954472999999993
11
75.5395639999999986
21
-68.5735209999999995
0
LINE
8
BLACK
6
CONTINUOUS
10
75.5395639999999986
20
-68.5735209999999995
11
75.6348019999999934
21
-68.3830449999999956
0
LINE
8
BLACK
6
CONTINUOUS
10
75.6348019999999934
20
-68.3830449999999956
11
75.7300400000000025
21
-68.2878070000000008
0
LINE
8
BLACK
6
CONTINUOUS
10
75.7300400000000025
20
-68.2878070000000008
11
75.9205159999999921
21
-68.1925689999999918
0
LINE
8
BLACK
6
CONTINUOUS
10
78.9681360000000012
20
-70.1925689999999918
11
78.9681360000000012
21
-68.1925689999999918
0
LINE
8
BLACK
6
CONTINUOUS
10
79.8252789999999948
20
-70.1925689999999918
11
79.8252789999999948
21
-69.1449499999999944
0
LINE
8
BLACK
6
CONTINUOUS
10
79.8252789999999948
20
-69.1449499999999944
11
79.7300409999999999
21
-68.954472999999993
0
LINE
8
BLACK
6
CONTINUOUS
10
79.7300409999999999
20
-68.954472999999993
11
79.5395649999999961
21
-68.8592349999999982
0
LINE
8
BLACK
6
CONTINUOUS
10
79.5395649999999961
20
-68.8592349999999982
11
79.2538499999999999
21
-68.8592349999999982
0
LINE
8
BLACK
6
CONTINUOUS
10
79.2538499999999999
20
-68.8592349999999982
11
79.063373999999996
21
-68.954472999999993
0
LINE
8
BLACK
6
CONTINUOUS
10
79.063373999999996
20
-68.954472999999993
11
78.9681360000000012
21
-69.0497110000000021
0
LINE
8
BLACK
6
CONTINUOUS
10
81.063373999999996
20
-70.1925689999999918
11
80.8728979999999922
21
-70.0973309999999969
0
LINE
8
BLACK
6
CONTINUOUS
10
80.8728979999999922
20
-70.0973309999999969
11
80.7776599999999974
21
-70.0020919999999904
0
LINE
8
BLACK
6
CONTINUOUS
10
80.7776599999999974
20
-70.0020919999999904
11
80.6824220000000025
21
-69.8116160000000008
0
LINE
8
BLACK
6
CONTINUOUS
10
80.6824220000000025
20
-69.8116160000000008
11
80.6824220000000025
21
-69.2401880000000034
0
LINE
8
BLACK
6
CONTINUOUS
10
80.6824220000000025
20
-69.2401880000000034
11
80.7776599999999974
21
-69.0497110000000021
0
LINE
8
BLACK
6
CONTINUOUS
10
80.7776599999999974
20
-69.0497110000000021
11
80.8728979999999922
21
-68.954472999999993
0
LINE
8
BLACK
6
CONTINUOUS
10
80.8728979999999922
20
-68.954472999999993
11
81.063373999999996
21
-68.8592349999999982
0
LINE
8
BLACK
6
CONTINUOUS
10
81.063373999999996
20
-68.8592349999999982
11
81.3490889999999922
21
-68.8592349999999982
0
LINE
8
BLACK
6
CONTINUOUS
10
81.3490889999999922
20
-68.8592349999999982
11
81.5395649999999961
21
-68.954472999999993
0
LINE
8
BLACK
6
CONTINUOUS
10
81.5395649999999961
20
-68.954472999999993
11
81.6348029999999909
21
-69.0497110000000021
0
LINE
8
BLACK
6
CONTINUOUS
10
81.6348029999999909
20
-69.0497110000000021
11
81.7300409999999999
21
-69.2401880000000034
0
LINE
8
BLACK
6
CONTINUOUS
10
81.7300409999999999
20
-69.2401880000000034
11
81.7300409999999999
21
-69.8116160000000008
0
LINE
8
BLACK
6
CONTINUOUS
10
81.7300409999999999
20
-69.8116160000000008
11
81.6348029999999909
21
-70.0020919999999904
0
LINE
8
BLACK
6
CONTINUOUS
10
81.6348029999999909
20
-70.0020919999999904
11
81.5395649999999961
21
-70.0973309999999969
0
LINE
8
BLACK
6
CONTINUOUS
10
81.5395649999999961
20
-70.0973309999999969
11
81.3490889999999922
21
-70.1925689999999918
0
LINE
8
BLACK
6
CONTINUOUS
10
81.3490889999999922
20
-70.1925689999999918
11
81.063373999999996
21
-70.1925689999999918
0
LINE
8
BLACK
6
CONTINUOUS
10
82.8728979999999922
20
-70.1925689999999918
11
82.6824220000000025
21
-70.0973309999999969
0
LINE
8
BLACK
6
CONTINUOUS
10
82.6824220000000025
20
-70.0973309999999969
11
82.5871839999999935
21
-69.9068539999999956
0
LINE
8
BLACK
6
CONTINUOUS
10
82.5871839999999935
20
-69.9068539999999956
11
82.5871839999999935
21
-68.1925689999999918
0
LINE
8
BLACK
6
CONTINUOUS
10
84.3967079999999896
20
-70.0973309999999969
11
84.206232
21
-70.1925689999999918
0
LINE
8
BLACK
6
CONTINUOUS
10
84.206232
20
-70.1925689999999918
11
83.8252789999999948
21
-70.1925689999999918
0
LINE
8
BLACK
6
CONTINUOUS
10
83.8252789999999948
20
-70.1925689999999918
11
83.6348029999999909
21
-70.0973309999999969
0
LINE
8
BLACK
6
CONTINUOUS
10
83.6348029999999909
20
-70.0973309999999969
11
83.5395649999999961
21
-69.9068539999999956
0
LINE
8
BLACK
6
CONTINUOUS
10
83.5395649999999961
20
-69.9068539999999956
11
83.5395649999999961
21
-69.1449499999999944
0
LINE
8
BLACK
6
CONTINUOUS
10
83.5395649999999961
20
-69.1449499999999944
11
83.6348029999999909
21
-68.954472999999993
0
LINE
8
BLACK
6
CONTINUOUS
10
83.6348029999999909
20
-68.954472999999993
11
83.8252789999999948
21
-68.8592349999999982
0
LINE
8
BLACK
6
CONTINUOUS
10
83.8252789999999948
20
-68.8592349999999982
11
84.206232
21
-68.8592349999999982
0
LINE
8
BLACK
6
CONTINUOUS
10
84.206232
20
-68.8592349999999982
11
84.3967079999999896
21
-68.954472999999993
0
LINE
8
BLACK
6
CONTINUOUS
10
84.3967079999999896
20
-68.954472999999993
11
84.4919459999999987
21
-69.1449499999999944
0
LINE
8
BLACK
6
CONTINUOUS
10
84.4919459999999987
20
-69.1449499999999944
11
84.4919459999999987
21
-69.3354259999999982
0
LINE
8
BLACK
6
CONTINUOUS
10
84.4919459999999987
20
-69.3354259999999982
11
83.5395649999999961
21
-69.5259020000000021
0
LINE
8
BLACK
6
CONTINUOUS
10
85.2538509999999974
20
-70.0973309999999969
11
85.4443270000000012
21
-70.1925689999999918
0
LINE
8
BLACK
6
CONTINUOUS
10
85.4443270000000012
20
-70.1925689999999918
11
85.8252789999999948
21
-70.1925689999999918
0
LINE
8
BLACK
6
CONTINUOUS
10
85.8252789999999948
20
-70.1925689999999918
11
86.0157559999999961
21
-70.0973309999999969
0
LINE
8
BLACK
6
CONTINUOUS
10
86.0157559999999961
20
-70.0973309999999969
11
86.1109939999999909
21
-69.9068539999999956
0
LINE
8
BLACK
6
CONTINUOUS
10
86.1109939999999909
20
-69.9068539999999956
11
86.1109939999999909
21
-69.8116160000000008
0
LINE
8
BLACK
6
CONTINUOUS
10
86.1109939999999909
20
-69.8116160000000008
11
86.0157559999999961
21
-69.6211399999999969
0
LINE
8
BLACK
6
CONTINUOUS
10
86.0157559999999961
20
-69.6211399999999969
11
85.8252789999999948
21
-69.5259020000000021
0
LINE
8
BLACK
6
CONTINUOUS
10
85.8252789999999948
20
-69.5259020000000021
11
85.5395649999999961
21
-69.5259020000000021
0
LINE
8
BLACK
6
CONTINUOUS
10
85.5395649999999961
20
-69.5259020000000021
11
85.3490889999999922
21
-69.4306639999999931
0
LINE
8
BLACK
6
CONTINUOUS
10
85.3490889999999922
20
-69.4306639999999931
11
85.2538509999999974
21
-69.2401880000000034
0
LINE
8
BLACK
6
CONTINUOUS
10
85.2538509999999974
20
-69.2401880000000034
11
85.2538509999999974
21
-69.1449499999999944
0
LINE
8
BLACK
6
CONTINUOUS
10
85.2538509999999974
20
-69.1449499999999944
11
85.3490889999999922
21
-68.954472999999993
0
LINE
8
BLACK
6
CONTINUOUS
10
85.3490889999999922
20
-68.954472999999993
11
85.5395649999999961
21
-68.8592349999999982
0
LINE
8
BLACK
6
CONTINUOUS
10
85.5395649999999961
20
-68.8592349999999982
11
85.8252789999999948
21
-68.8592349999999982
0
LINE
8
BLACK
6
CONTINUOUS
10
85.8252789999999948
20
-68.8592349999999982
11
86.0157559999999961
21
-68.954472999999993
0
LINE
8
BLACK
6
CONTINUOUS
10
86.7776609999999948
20
-70.954472999999993
11
86.8728989999999897
21
-70.8592349999999982
0
LINE
8
BLACK
6
CONTINUOUS
10
86.8728989999999897
20
-70.8592349999999982
11
87.0633749999999935
21
-70.5735209999999995
0
LINE
8
BLACK
6
CONTINUOUS
10
87.0633749999999935
20
-70.5735209999999995
11
87.1586130000000026
21
-70.3830449999999956
0
LINE
8
BLACK
6
CONTINUOUS
10
87.1586130000000026
20
-70.3830449999999956
11
87.2538509999999974
21
-70.0973309999999969
0
LINE
8
BLACK
6
CONTINUOUS
10
87.2538509999999974
20
-70.0973309999999969
11
87.3490889999999922
21
-69.6211399999999969
0
LINE
8
BLACK
6
CONTINUOUS
10
87.3490889999999922
20
-69.6211399999999969
11
87.3490889999999922
21
-69.2401880000000034
0
LINE
8
BLACK
6
CONTINUOUS
10
87.3490889999999922
20
-69.2401880000000034
11
87.2538509999999974
21
-68.7639970000000034
0
LINE
8
BLACK
6
CONTINUOUS
10
87.2538509999999974
20
-68.7639970000000034
11
87.1586130000000026
21
-68.4782829999999905
0
LINE
8
BLACK
6
CONTINUOUS
10
87.1586130000000026
20
-68.4782829999999905
11
87.0633749999999935
21
-68.2878070000000008
0
LINE
8
BLACK
6
CONTINUOUS
10
87.0633749999999935
20
-68.2878070000000008
11
86.8728989999999897
21
-68.0020919999999904
0
LINE
8
BLACK
6
CONTINUOUS
10
86.8728989999999897
20
-68.0020919999999904
11
86.7776609999999948
21
-67.9068539999999956
0
CIRCLE
8
BLACK
10
36.6222689999999957
20
-71.9177310000000034
40
0.5
0
LINE
8
BLACK
6
CONTINUOUS
10
40.7776560000000003
20
-72.8325689999999923
11
39.634799000000001
21
-72.8325689999999923
0
LINE
8
BLACK
6
CONTINUOUS
10
40.2062269999999984
20
-72.8325689999999923
11
40.2062269999999984
21
-70.8325689999999923
0
LINE
8
BLACK
6
CONTINUOUS
10
40.2062269999999984
20
-70.8325689999999923
11
40.0157510000000016
21
-71.118282999999991
0
LINE
8
BLACK
6
CONTINUOUS
10
40.0157510000000016
20
-71.118282999999991
11
39.8252749999999978
21
-71.3087589999999949
0
LINE
8
BLACK
6
CONTINUOUS
10
39.8252749999999978
20
-71.3087589999999949
11
39.634799000000001
21
-71.4039969999999897
0
LINE
8
BLACK
6
CONTINUOUS
10
41.634799000000001
20
-72.642091999999991
11
41.7300369999999958
21
-72.7373309999999975
0
LINE
8
BLACK
6
CONTINUOUS
10
41.7300369999999958
20
-72.7373309999999975
11
41.634799000000001
21
-72.8325689999999923
0
LINE
8
BLACK
6
CONTINUOUS
10
41.634799000000001
20
-72.8325689999999923
11
41.5395609999999991
21
-72.7373309999999975
0
LINE
8
BLACK
6
CONTINUOUS
10
41.5395609999999991
20
-72.7373309999999975
11
41.634799000000001
21
-72.642091999999991
0
LINE
8
BLACK
6
CONTINUOUS
10
41.634799000000001
20
-72.642091999999991
11
41.634799000000001
21
-72.8325689999999923
0
LINE
8
BLACK
6
CONTINUOUS
10
42.9681319999999971
20
-70.8325689999999923
11
43.1586089999999984
21
-70.8325689999999923
0
LINE
8
BLACK
6
CONTINUOUS
10
43.1586089999999984
20
-70.8325689999999923
11
43.3490849999999952
21
-70.9278070000000014
0
LINE
8
BLACK
6
CONTINUOUS
10
43.3490849999999952
20
-70.9278070000000014
11
43.4443229999999971
21
-71.0230449999999962
0
LINE
8
BLACK
6
CONTINUOUS
10
43.4443229999999971
20
-71.0230449999999962
11
43.5395609999999991
21
-71.2135210000000001
0
LINE
8
BLACK
6
CONTINUOUS
10
43.5395609999999991
20
-71.2135210000000001
11
43.634799000000001
21
-71.5944729999999936
0
LINE
8
BLACK
6
CONTINUOUS
10
43.634799000000001
20
-71.5944729999999936
11
43.634799000000001
21
-72.0706639999999936
0
LINE
8
BLACK
6
CONTINUOUS
10
43.634799000000001
20
-72.0706639999999936
11
43.5395609999999991
21
-72.4516160000000013
0
LINE
8
BLACK
6
CONTINUOUS
10
43.5395609999999991
20
-72.4516160000000013
11
43.4443229999999971
21
-72.642091999999991
0
LINE
8
BLACK
6
CONTINUOUS
10
43.4443229999999971
20
-72.642091999999991
11
43.3490849999999952
21
-72.7373309999999975
0
LINE
8
BLACK
6
CONTINUOUS
10
43.3490849999999952
20
-72.7373309999999975
11
43.1586089999999984
21
-72.8325689999999923
0
LINE
8
BLACK
6
CONTINUOUS
10
43.1586089999999984
20
-72.8325689999999923
11
42.9681319999999971
21
-72.8325689999999923
0
LINE
8
BLACK
6
CONTINUOUS
10
42.9681319999999971
20
-72.8325689999999923
11
42.7776560000000003
21
-72.7373309999999975
0
LINE
8
BLACK
6
CONTINUOUS
10
42.7776560000000003
20
-72.7373309999999975
11
42.6824179999999984
21
-72.642091999999991
0
LINE
8
BLACK
6
CONTINUOUS
10
42.6824179999999984
20
-72.642091999999991
11
42.5871799999999965
21
-72.4516160000000013
0
LINE
8
BLACK
6
CONTINUOUS
10
42.5871799999999965
20
-72.4516160000000013
11
42.4919419999999946
21
-72.0706639999999936
0
LINE
8
BLACK
6
CONTINUOUS
10
42.4919419999999946
20
-72.0706639999999936
11
42.4919419999999946
21
-71.5944729999999936
0
LINE
8
BLACK
6
CONTINUOUS
10
42.4919419999999946
20
-71.5944729999999936
11
42.5871799999999965
21
-71.2135210000000001
0
LINE
8
BLACK
6
CONTINUOUS
10
42.5871799999999965
20
-71.2135210000000001
11
42.6824179999999984
21
-71.0230449999999962
0
LINE
8
BLACK
6
CONTINUOUS
10
42.6824179999999984
20
-71.0230449999999962
11
42.7776560000000003
21
-70.9278070000000014
0
LINE
8
BLACK
6
CONTINUOUS
10
42.7776560000000003
20
-70.9278070000000014
11
42.9681319999999971
21
-70.8325689999999923
0
LINE
8
BLACK
6
CONTINUOUS
10
44.8728939999999952
20
-70.8325689999999923
11
45.0633709999999965
21
-70.8325689999999923
0
LINE
8
BLACK
6
CONTINUOUS
10
45.0633709999999965
20
-70.8325689999999923
11
45.2538470000000004
21
-70.9278070000000014
0
LINE
8
BLACK
6
CONTINUOUS
10
45.2538470000000004
20
-70.9278070000000014
11
45.3490849999999952
21
-71.0230449999999962
0
LINE
8
BLACK
6
CONTINUOUS
10
45.3490849999999952
20
-71.0230449999999962
11
45.4443229999999971
21
-71.2135210000000001
0
LINE
8
BLACK
6
CONTINUOUS
10
45.4443229999999971
20
-71.2135210000000001
11
45.5395609999999991
21
-71.5944729999999936
0
LINE
8
BLACK
6
CONTINUOUS
10
45.5395609999999991
20
-71.5944729999999936
11
45.5395609999999991
21
-72.0706639999999936
0
LINE
8
BLACK
6
CONTINUOUS
10
45.5395609999999991
20
-72.0706639999999936
11
45.4443229999999971
21
-72.4516160000000013
0
LINE
8
BLACK
6
CONTINUOUS
10
45.4443229999999971
20
-72.4516160000000013
11
45.3490849999999952
21
-72.642091999999991
0
LINE
8
BLACK
6
CONTINUOUS
10
45.3490849999999952
20
-72.642091999999991
11
45.2538470000000004
21
-72.7373309999999975
0
LINE
8
BLACK
6
CONTINUOUS
10
45.2538470000000004
20
-72.7373309999999975
11
45.0633709999999965
21
-72.8325689999999923
0
LINE
8
BLACK
6
CONTINUOUS
10
45.0633709999999965
20
-72.8325689999999923
11
44.8728939999999952
21
-72.8325689999999923
0
LINE
8
BLACK
6
CONTINUOUS
10
44.8728939999999952
20
-72.8325689999999923
11
44.6824179999999984
21
-72.7373309999999975
0
LINE
8
BLACK
6
CONTINUOUS
10
44.6824179999999984
20
-72.7373309999999975
11
44.5871799999999965
21
-72.642091999999991
0
LINE
8
BLACK
6
CONTINUOUS
10
44.5871799999999965
20
-72.642091999999991
11
44.4919419999999946
21
-72.4516160000000013
0
LINE
8
BLACK
6
CONTINUOUS
10
44.4919419999999946
20
-72.4516160000000013
11
44.3967039999999997
21
-72.0706639999999936
0
LINE
8
BLACK
6
CONTINUOUS
10
44.3967039999999997
20
-72.0706639999999936
11
44.3967039999999997
21
-71.5944729999999936
0
LINE
8
BLACK
6
CONTINUOUS
10
44.3967039999999997
20
-71.5944729999999936
11
44.4919419999999946
21
-71.2135210000000001
0
LINE
8
BLACK
6
CONTINUOUS
10
44.4919419999999946
20
-71.2135210000000001
11
44.5871799999999965
21
-71.0230449999999962
0
LINE
8
BLACK
6
CONTINUOUS
10
44.5871799999999965
20
-71.0230449999999962
11
44.6824179999999984
21
-70.9278070000000014
0
LINE
8
BLACK
6
CONTINUOUS
10
44.6824179999999984
20
-70.9278070000000014
11
44.8728939999999952
21
-70.8325689999999923
0
LINE
8
BLACK
6
CONTINUOUS
10
46.7776560000000003
20
-70.8325689999999923
11
46.9681329999999946
21
-70.8325689999999923
0
LINE
8
BLACK
6
CONTINUOUS
10
46.9681329999999946
20
-70.8325689999999923
11
47.1586089999999984
21
-70.9278070000000014
0
LINE
8
BLACK
6
CONTINUOUS
10
47.1586089999999984
20
-70.9278070000000014
11
47.2538470000000004
21
-71.0230449999999962
0
LINE
8
BLACK
6
CONTINUOUS
10
47.2538470000000004
20
-71.0230449999999962
11
47.3490849999999952
21
-71.2135210000000001
0
LINE
8
BLACK
6
CONTINUOUS
10
47.3490849999999952
20
-71.2135210000000001
11
47.4443229999999971
21
-71.5944729999999936
0
LINE
8
BLACK
6
CONTINUOUS
10
47.4443229999999971
20
-71.5944729999999936
11
47.4443229999999971
21
-72.0706639999999936
0
LINE
8
BLACK
6
CONTINUOUS
10
47.4443229999999971
20
-72.0706639999999936
11
47.3490849999999952
21
-72.4516160000000013
0
LINE
8
BLACK
6
CONTINUOUS
10
47.3490849999999952
20
-72.4516160000000013
11
47.2538470000000004
21
-72.642091999999991
0
LINE
8
BLACK
6
CONTINUOUS
10
47.2538470000000004
20
-72.642091999999991
11
47.1586089999999984
21
-72.7373309999999975
0
LINE
8
BLACK
6
CONTINUOUS
10
47.1586089999999984
20
-72.7373309999999975
11
46.9681329999999946
21
-72.8325689999999923
0
LINE
8
BLACK
6
CONTINUOUS
10
46.9681329999999946
20
-72.8325689999999923
11
46.7776560000000003
21
-72.8325689999999923
0
LINE
8
BLACK
6
CONTINUOUS
10
46.7776560000000003
20
-72.8325689999999923
11
46.5871799999999965
21
-72.7373309999999975
0
LINE
8
BLACK
6
CONTINUOUS
10
46.5871799999999965
20
-72.7373309999999975
11
46.4919419999999946
21
-72.642091999999991
0
LINE
8
BLACK
6
CONTINUOUS
10
46.4919419999999946
20
-72.642091999999991
11
46.3967039999999997
21
-72.4516160000000013
0
LINE
8
BLACK
6
CONTINUOUS
10
46.3967039999999997
20
-72.4516160000000013
11
46.3014659999999978
21
-72.0706639999999936
0
LINE
8
BLACK
6
CONTINUOUS
10
46.3014659999999978
20
-72.0706639999999936
11
46.3014659999999978
21
-71.5944729999999936
0
LINE
8
BLACK
6
CONTINUOUS
10
46.3014659999999978
20
-71.5944729999999936
11
46.3967039999999997
21
-71.2135210000000001
0
LINE
8
BLACK
6
CONTINUOUS
10
46.3967039999999997
20
-71.2135210000000001
11
46.4919419999999946
21
-71.0230449999999962
0
LINE
8
BLACK
6
CONTINUOUS
10
46.4919419999999946
20
-71.0230449999999962
11
46.5871799999999965
21
-70.9278070000000014
0
LINE
8
BLACK
6
CONTINUOUS
10
46.5871799999999965
20
-70.9278070000000014
11
46.7776560000000003
21
-70.8325689999999923
0
LINE
8
BLACK
6
CONTINUOUS
10
48.3014659999999978
20
-72.8325689999999923
11
48.3014659999999978
21
-71.4992349999999988
0
LINE
8
BLACK
6
CONTINUOUS
10
48.3014659999999978
20
-71.6897110000000026
11
48.3967039999999997
21
-71.5944729999999936
0
LINE
8
BLACK
6
CONTINUOUS
10
48.3967039999999997
20
-71.5944729999999936
11
48.5871799999999965
21
-71.4992349999999988
0
LINE
8
BLACK
6
CONTINUOUS
10
48.5871799999999965
20
-71.4992349999999988
11
48.8728949999999998
21
-71.4992349999999988
0
LINE
8
BLACK
6
CONTINUOUS
10
48.8728949999999998
20
-71.4992349999999988
11
49.0633709999999965
21
-71.5944729999999936
0
LINE
8
BLACK
6
CONTINUOUS
10
49.0633709999999965
20
-71.5944729999999936
11
49.1586089999999984
21
-71.7849499999999949
0
LINE
8
BLACK
6
CONTINUOUS
10
49.1586089999999984
20
-71.7849499999999949
11
49.1586089999999984
21
-72.8325689999999923
0
LINE
8
BLACK
6
CONTINUOUS
10
49.1586089999999984
20
-71.7849499999999949
11
49.2538470000000004
21
-71.5944729999999936
0
LINE
8
BLACK
6
CONTINUOUS
10
49.2538470000000004
20
-71.5944729999999936
11
49.4443229999999971
21
-71.4992349999999988
0
LINE
8
BLACK
6
CONTINUOUS
10
49.4443229999999971
20
-71.4992349999999988
11
49.7300369999999958
21
-71.4992349999999988
0
LINE
8
BLACK
6
CONTINUOUS
10
49.7300369999999958
20
-71.4992349999999988
11
49.9205139999999972
21
-71.5944729999999936
0
LINE
8
BLACK
6
CONTINUOUS
10
49.9205139999999972
20
-71.5944729999999936
11
50.0157519999999991
21
-71.7849499999999949
0
LINE
8
BLACK
6
CONTINUOUS
10
50.0157519999999991
20
-71.7849499999999949
11
50.0157519999999991
21
-72.8325689999999923
0
LINE
8
BLACK
6
CONTINUOUS
10
50.9681329999999946
20
-72.8325689999999923
11
50.9681329999999946
21
-71.4992349999999988
0
LINE
8
BLACK
6
CONTINUOUS
10
50.9681329999999946
20
-71.6897110000000026
11
51.0633709999999965
21
-71.5944729999999936
0
LINE
8
BLACK
6
CONTINUOUS
10
51.0633709999999965
20
-71.5944729999999936
11
51.2538470000000004
21
-71.4992349999999988
0
LINE
8
BLACK
6
CONTINUOUS
10
51.2538470000000004
20
-71.4992349999999988
11
51.5395619999999965
21
-71.4992349999999988
0
LINE
8
BLACK
6
CONTINUOUS
10
51.5395619999999965
20
-71.4992349999999988
11
51.7300380000000004
21
-71.5944729999999936
0
LINE
8
BLACK
6
CONTINUOUS
10
51.7300380000000004
20
-71.5944729999999936
11
51.8252759999999952
21
-71.7849499999999949
0
LINE
8
BLACK
6
CONTINUOUS
10
51.8252759999999952
20
-71.7849499999999949
11
51.8252759999999952
21
-72.8325689999999923
0
LINE
8
BLACK
6
CONTINUOUS
10
51.8252759999999952
20
-71.7849499999999949
11
51.9205139999999972
21
-71.5944729999999936
0
LINE
8
BLACK
6
CONTINUOUS
10
51.9205139999999972
20
-71.5944729999999936
11
52.110990000000001
21
-71.4992349999999988
0
LINE
8
BLACK
6
CONTINUOUS
10
52.110990000000001
20
-71.4992349999999988
11
52.3967039999999997
21
-71.4992349999999988
0
LINE
8
BLACK
6
CONTINUOUS
10
52.3967039999999997
20
-71.4992349999999988
11
52.5871810000000011
21
-71.5944729999999936
0
LINE
8
BLACK
6
CONTINUOUS
10
52.5871810000000011
20
-71.5944729999999936
11
52.6824189999999959
21
-71.7849499999999949
0
LINE
8
BLACK
6
CONTINUOUS
10
52.6824189999999959
20
-71.7849499999999949
11
52.6824189999999959
21
-72.8325689999999923
0
LINE
8
BLACK
6
CONTINUOUS
10
56.587180999999994
20
-70.7373309999999975
11
54.8728959999999972
21
-73.3087589999999949
0
LINE
8
BLACK
6
CONTINUOUS
10
59.1586099999999959
20
-70.8325689999999923
11
59.3490869999999973
21
-70.8325689999999923
0
LINE
8
BLACK
6
CONTINUOUS
10
59.3490869999999973
20
-70.8325689999999923
11
59.539562999999994
21
-70.9278070000000014
0
LINE
8
BLACK
6
CONTINUOUS
10
59.539562999999994
20
-70.9278070000000014
11
59.634800999999996
21
-71.0230449999999962
0
LINE
8
BLACK
6
CONTINUOUS
10
59.634800999999996
20
-71.0230449999999962
11
59.7300389999999979
21
-71.2135210000000001
0
LINE
8
BLACK
6
CONTINUOUS
10
59.7300389999999979
20
-71.2135210000000001
11
59.8252769999999998
21
-71.5944729999999936
0
LINE
8
BLACK
6
CONTINUOUS
10
59.8252769999999998
20
-71.5944729999999936
11
59.8252769999999998
21
-72.0706639999999936
0
LINE
8
BLACK
6
CONTINUOUS
10
59.8252769999999998
20
-72.0706639999999936
11
59.7300389999999979
21
-72.4516160000000013
0
LINE
8
BLACK
6
CONTINUOUS
10
59.7300389999999979
20
-72.4516160000000013
11
59.634800999999996
21
-72.642091999999991
0
LINE
8
BLACK
6
CONTINUOUS
10
59.634800999999996
20
-72.642091999999991
11
59.539562999999994
21
-72.7373309999999975
0
LINE
8
BLACK
6
CONTINUOUS
10
59.539562999999994
20
-72.7373309999999975
11
59.3490869999999973
21
-72.8325689999999923
0
LINE
8
BLACK
6
CONTINUOUS
10
59.3490869999999973
20
-72.8325689999999923
11
59.1586099999999959
21
-72.8325689999999923
0
LINE
8
BLACK
6
CONTINUOUS
10
59.1586099999999959
20
-72.8325689999999923
11
58.9681339999999992
21
-72.7373309999999975
0
LINE
8
BLACK
6
CONTINUOUS
10
58.9681339999999992
20
-72.7373309999999975
11
58.8728959999999972
21
-72.642091999999991
0
LINE
8
BLACK
6
CONTINUOUS
10
58.8728959999999972
20
-72.642091999999991
11
58.7776579999999953
21
-72.4516160000000013
0
LINE
8
BLACK
6
CONTINUOUS
10
58.7776579999999953
20
-72.4516160000000013
11
58.6824200000000005
21
-72.0706639999999936
0
LINE
8
BLACK
6
CONTINUOUS
10
58.6824200000000005
20
-72.0706639999999936
11
58.6824200000000005
21
-71.5944729999999936
0
LINE
8
BLACK
6
CONTINUOUS
10
58.6824200000000005
20
-71.5944729999999936
11
58.7776579999999953
21
-71.2135210000000001
0
LINE
8
BLACK
6
CONTINUOUS
10
58.7776579999999953
20
-71.2135210000000001
11
58.8728959999999972
21
-71.0230449999999962
0
LINE
8
BLACK
6
CONTINUOUS
10
58.8728959999999972
20
-71.0230449999999962
11
58.9681339999999992
21
-70.9278070000000014
0
LINE
8
BLACK
6
CONTINUOUS
10
58.9681339999999992
20
-70.9278070000000014
11
59.1586099999999959
21
-70.8325689999999923
0
LINE
8
BLACK
6
CONTINUOUS
10
60.6824200000000005
20
-72.642091999999991
11
60.7776579999999953
21
-72.7373309999999975
0
LINE
8
BLACK
6
CONTINUOUS
10
60.7776579999999953
20
-72.7373309999999975
11
60.6824200000000005
21
-72.8325689999999923
0
LINE
8
BLACK
6
CONTINUOUS
10
60.6824200000000005
20
-72.8325689999999923
11
60.5871819999999985
21
-72.7373309999999975
0
LINE
8
BLACK
6
CONTINUOUS
10
60.5871819999999985
20
-72.7373309999999975
11
60.6824200000000005
21
-72.642091999999991
0
LINE
8
BLACK
6
CONTINUOUS
10
60.6824200000000005
20
-72.642091999999991
11
60.6824200000000005
21
-72.8325689999999923
0
LINE
8
BLACK
6
CONTINUOUS
10
62.0157529999999966
20
-70.8325689999999923
11
62.2062299999999979
21
-70.8325689999999923
0
LINE
8
BLACK
6
CONTINUOUS
10
62.2062299999999979
20
-70.8325689999999923
11
62.3967059999999947
21
-70.9278070000000014
0
LINE
8
BLACK
6
CONTINUOUS
10
62.3967059999999947
20
-70.9278070000000014
11
62.4919439999999966
21
-71.0230449999999962
0
LINE
8
BLACK
6
CONTINUOUS
10
62.4919439999999966
20
-71.0230449999999962
11
62.5871819999999985
21
-71.2135210000000001
0
LINE
8
BLACK
6
CONTINUOUS
10
62.5871819999999985
20
-71.2135210000000001
11
62.6824200000000005
21
-71.5944729999999936
0
LINE
8
BLACK
6
CONTINUOUS
10
62.6824200000000005
20
-71.5944729999999936
11
62.6824200000000005
21
-72.0706639999999936
0
LINE
8
BLACK
6
CONTINUOUS
10
62.6824200000000005
20
-72.0706639999999936
11
62.5871819999999985
21
-72.4516160000000013
0
LINE
8
BLACK
6
CONTINUOUS
10
62.5871819999999985
20
-72.4516160000000013
11
62.4919439999999966
21
-72.642091999999991
0
LINE
8
BLACK
6
CONTINUOUS
10
62.4919439999999966
20
-72.642091999999991
11
62.3967059999999947
21
-72.7373309999999975
0
LINE
8
BLACK
6
CONTINUOUS
10
62.3967059999999947
20
-72.7373309999999975
11
62.2062299999999979
21
-72.8325689999999923
0
LINE
8
BLACK
6
CONTINUOUS
10
62.2062299999999979
20
-72.8325689999999923
11
62.0157529999999966
21
-72.8325689999999923
0
LINE
8
BLACK
6
CONTINUOUS
10
62.0157529999999966
20
-72.8325689999999923
11
61.8252769999999998
21
-72.7373309999999975
0
LINE
8
BLACK
6
CONTINUOUS
10
61.8252769999999998
20
-72.7373309999999975
11
61.7300389999999979
21
-72.642091999999991
0
LINE
8
BLACK
6
CONTINUOUS
10
61.7300389999999979
20
-72.642091999999991
11
61.634800999999996
21
-72.4516160000000013
0
LINE
8
BLACK
6
CONTINUOUS
10
61.634800999999996
20
-72.4516160000000013
11
61.539562999999994
21
-72.0706639999999936
0
LINE
8
BLACK
6
CONTINUOUS
10
61.539562999999994
20
-72.0706639999999936
11
61.539562999999994
21
-71.5944729999999936
0
LINE
8
BLACK
6
CONTINUOUS
10
61.539562999999994
20
-71.5944729999999936
11
61.634800999999996
21
-71.2135210000000001
0
LINE
8
BLACK
6
CONTINUOUS
10
61.634800999999996
20
-71.2135210000000001
11
61.7300389999999979
21
-71.0230449999999962
0
LINE
8
BLACK
6
CONTINUOUS
10
61.7300389999999979
20
-71.0230449999999962
11
61.8252769999999998
21
-70.9278070000000014
0
LINE
8
BLACK
6
CONTINUOUS
10
61.8252769999999998
20
-70.9278070000000014
11
62.0157529999999966
21
-70.8325689999999923
0
LINE
8
BLACK
6
CONTINUOUS
10
63.3490869999999973
20
-70.8325689999999923
11
64.5871819999999985
21
-70.8325689999999923
0
LINE
8
BLACK
6
CONTINUOUS
10
64.5871819999999985
20
-70.8325689999999923
11
63.9205149999999946
21
-71.5944729999999936
0
LINE
8
BLACK
6
CONTINUOUS
10
63.9205149999999946
20
-71.5944729999999936
11
64.2062299999999908
21
-71.5944729999999936
0
LINE
8
BLACK
6
CONTINUOUS
10
64.2062299999999908
20
-71.5944729999999936
11
64.3967059999999947
21
-71.6897110000000026
0
LINE
8
BLACK
6
CONTINUOUS
10
64.3967059999999947
20
-71.6897110000000026
11
64.4919440000000037
21
-71.7849499999999949
0
LINE
8
BLACK
6
CONTINUOUS
10
64.4919440000000037
20
-71.7849499999999949
11
64.5871819999999985
21
-71.9754259999999988
0
LINE
8
BLACK
6
CONTINUOUS
10
64.5871819999999985
20
-71.9754259999999988
11
64.5871819999999985
21
-72.4516160000000013
0
LINE
8
BLACK
6
CONTINUOUS
10
64.5871819999999985
20
-72.4516160000000013
11
64.4919440000000037
21
-72.642091999999991
0
LINE
8
BLACK
6
CONTINUOUS
10
64.4919440000000037
20
-72.642091999999991
11
64.3967059999999947
21
-72.7373309999999975
0
LINE
8
BLACK
6
CONTINUOUS
10
64.3967059999999947
20
-72.7373309999999975
11
64.2062299999999908
21
-72.8325689999999923
0
LINE
8
BLACK
6
CONTINUOUS
10
64.2062299999999908
20
-72.8325689999999923
11
63.634800999999996
21
-72.8325689999999923
0
LINE
8
BLACK
6
CONTINUOUS
10
63.634800999999996
20
-72.8325689999999923
11
63.4443249999999992
21
-72.7373309999999975
0
LINE
8
BLACK
6
CONTINUOUS
10
63.4443249999999992
20
-72.7373309999999975
11
63.3490869999999973
21
-72.642091999999991
0
LINE
8
BLACK
6
CONTINUOUS
10
65.5395630000000011
20
-72.8325689999999923
11
65.9205149999999946
21
-72.8325689999999923
0
LINE
8
BLACK
6
CONTINUOUS
10
65.9205149999999946
20
-72.8325689999999923
11
66.110991999999996
21
-72.7373309999999975
0
LINE
8
BLACK
6
CONTINUOUS
10
66.110991999999996
20
-72.7373309999999975
11
66.2062299999999908
21
-72.642091999999991
0
LINE
8
BLACK
6
CONTINUOUS
10
66.2062299999999908
20
-72.642091999999991
11
66.3967059999999947
21
-72.3563779999999923
0
LINE
8
BLACK
6
CONTINUOUS
10
66.3967059999999947
20
-72.3563779999999923
11
66.4919440000000037
21
-71.9754259999999988
0
LINE
8
BLACK
6
CONTINUOUS
10
66.4919440000000037
20
-71.9754259999999988
11
66.4919440000000037
21
-71.2135210000000001
0
LINE
8
BLACK
6
CONTINUOUS
10
66.4919440000000037
20
-71.2135210000000001
11
66.3967059999999947
21
-71.0230449999999962
0
LINE
8
BLACK
6
CONTINUOUS
10
66.3967059999999947
20
-71.0230449999999962
11
66.3014679999999998
21
-70.9278070000000014
0
LINE
8
BLACK
6
CONTINUOUS
10
66.3014679999999998
20
-70.9278070000000014
11
66.110991999999996
21
-70.8325689999999923
0
LINE
8
BLACK
6
CONTINUOUS
10
66.110991999999996
20
-70.8325689999999923
11
65.7300389999999908
21
-70.8325689999999923
0
LINE
8
BLACK
6
CONTINUOUS
10
65.7300389999999908
20
-70.8325689999999923
11
65.5395630000000011
21
-70.9278070000000014
0
LINE
8
BLACK
6
CONTINUOUS
10
65.5395630000000011
20
-70.9278070000000014
11
65.4443249999999921
21
-71.0230449999999962
0
LINE
8
BLACK
6
CONTINUOUS
10
65.4443249999999921
20
-71.0230449999999962
11
65.3490869999999973
21
-71.2135210000000001
0
LINE
8
BLACK
6
CONTINUOUS
10
65.3490869999999973
20
-71.2135210000000001
11
65.3490869999999973
21
-71.6897110000000026
0
LINE
8
BLACK
6
CONTINUOUS
10
65.3490869999999973
20
-71.6897110000000026
11
65.4443249999999921
21
-71.8801879999999898
0
LINE
8
BLACK
6
CONTINUOUS
10
65.4443249999999921
20
-71.8801879999999898
11
65.5395630000000011
21
-71.9754259999999988
0
LINE
8
BLACK
6
CONTINUOUS
10
65.5395630000000011
20
-71.9754259999999988
11
65.7300389999999908
21
-72.0706639999999936
0
LINE
8
BLACK
6
CONTINUOUS
10
65.7300389999999908
20
-72.0706639999999936
11
66.110991999999996
21
-72.0706639999999936
0
LINE
8
BLACK
6
CONTINUOUS
10
66.110991999999996
20
-72.0706639999999936
11
66.3014679999999998
21
-71.9754259999999988
0
LINE
8
BLACK
6
CONTINUOUS
10
66.3014679999999998
20
-71.9754259999999988
11
66.3967059999999947
21
-71.8801879999999898
0
LINE
8
BLACK
6
CONTINUOUS
10
66.3967059999999947
20
-71.8801879999999898
11
66.4919440000000037
21
-71.6897110000000026
0
LINE
8
BLACK
6
CONTINUOUS
10
68.2062299999999908
20
-71.4992349999999988
11
68.2062299999999908
21
-72.8325689999999923
0
LINE
8
BLACK
6
CONTINUOUS
10
67.7300389999999908
20
-70.7373309999999975
11
67.2538490000000024
21
-72.1659020000000027
0
LINE
8
BLACK
6
CONTINUOUS
10
67.2538490000000024
20
-72.1659020000000027
11
68.4919440000000037
21
-72.1659020000000027
0
LINE
8
BLACK
6
CONTINUOUS
10
69.1586109999999934
20
-70.8325689999999923
11
69.1586109999999934
21
-71.2135210000000001
0
LINE
8
BLACK
6
CONTINUOUS
10
69.9205159999999921
20
-70.8325689999999923
11
69.9205159999999921
21
-71.2135210000000001
0
LINE
8
BLACK
6
CONTINUOUS
10
72.8728979999999922
20
-73.5944729999999936
11
72.7776589999999999
21
-73.4992349999999988
0
LINE
8
BLACK
6
CONTINUOUS
10
72.7776589999999999
20
-73.4992349999999988
11
72.587182999999996
21
-73.2135210000000001
0
LINE
8
BLACK
6
CONTINUOUS
10
72.587182999999996
20
-73.2135210000000001
11
72.4919450000000012
21
-73.0230449999999962
0
LINE
8
BLACK
6
CONTINUOUS
10
72.4919450000000012
20
-73.0230449999999962
11
72.3967069999999921
21
-72.7373309999999975
0
LINE
8
BLACK
6
CONTINUOUS
10
72.3967069999999921
20
-72.7373309999999975
11
72.3014689999999973
21
-72.2611399999999975
0
LINE
8
BLACK
6
CONTINUOUS
10
72.3014689999999973
20
-72.2611399999999975
11
72.3014689999999973
21
-71.8801879999999898
0
LINE
8
BLACK
6
CONTINUOUS
10
72.3014689999999973
20
-71.8801879999999898
11
72.3967069999999921
21
-71.4039969999999897
0
LINE
8
BLACK
6
CONTINUOUS
10
72.3967069999999921
20
-71.4039969999999897
11
72.4919450000000012
21
-71.118282999999991
0
LINE
8
BLACK
6
CONTINUOUS
10
72.4919450000000012
20
-71.118282999999991
11
72.587182999999996
21
-70.9278070000000014
0
LINE
8
BLACK
6
CONTINUOUS
10
72.587182999999996
20
-70.9278070000000014
11
72.7776589999999999
21
-70.642091999999991
0
LINE
8
BLACK
6
CONTINUOUS
10
72.7776589999999999
20
-70.642091999999991
11
72.8728979999999922
21
-70.5468539999999962
0
LINE
8
BLACK
6
CONTINUOUS
10
73.4443260000000038
20
-70.8325689999999923
11
74.6824209999999908
21
-70.8325689999999923
0
LINE
8
BLACK
6
CONTINUOUS
10
74.6824209999999908
20
-70.8325689999999923
11
74.0157540000000012
21
-71.5944729999999936
0
LINE
8
BLACK
6
CONTINUOUS
10
74.0157540000000012
20
-71.5944729999999936
11
74.3014689999999973
21
-71.5944729999999936
0
LINE
8
BLACK
6
CONTINUOUS
10
74.3014689999999973
20
-71.5944729999999936
11
74.4919450000000012
21
-71.6897110000000026
0
LINE
8
BLACK
6
CONTINUOUS
10
74.4919450000000012
20
-71.6897110000000026
11
74.587182999999996
21
-71.7849499999999949
0
LINE
8
BLACK
6
CONTINUOUS
10
74.587182999999996
20
-71.7849499999999949
11
74.6824209999999908
21
-71.9754259999999988
0
LINE
8
BLACK
6
CONTINUOUS
10
74.6824209999999908
20
-71.9754259999999988
11
74.6824209999999908
21
-72.4516160000000013
0
LINE
8
BLACK
6
CONTINUOUS
10
74.6824209999999908
20
-72.4516160000000013
11
74.587182999999996
21
-72.642091999999991
0
LINE
8
BLACK
6
CONTINUOUS
10
74.587182999999996
20
-72.642091999999991
11
74.4919450000000012
21
-72.7373309999999975
0
LINE
8
BLACK
6
CONTINUOUS
10
74.4919450000000012
20
-72.7373309999999975
11
74.3014689999999973
21
-72.8325689999999923
0
LINE
8
BLACK
6
CONTINUOUS
10
74.3014689999999973
20
-72.8325689999999923
11
73.7300400000000025
21
-72.8325689999999923
0
LINE
8
BLACK
6
CONTINUOUS
10
73.7300400000000025
20
-72.8325689999999923
11
73.5395639999999986
21
-72.7373309999999975
0
LINE
8
BLACK
6
CONTINUOUS
10
73.5395639999999986
20
-72.7373309999999975
11
73.4443260000000038
21
-72.642091999999991
0
LINE
8
BLACK
6
CONTINUOUS
10
77.063373999999996
20
-72.8325689999999923
11
77.063373999999996
21
-70.8325689999999923
0
LINE
8
BLACK
6
CONTINUOUS
10
77.9205169999999896
20
-72.8325689999999923
11
77.9205169999999896
21
-71.7849499999999949
0
LINE
8
BLACK
6
CONTINUOUS
10
77.9205169999999896
20
-71.7849499999999949
11
77.8252789999999948
21
-71.5944729999999936
0
LINE
8
BLACK
6
CONTINUOUS
10
77.8252789999999948
20
-71.5944729999999936
11
77.6348029999999909
21
-71.4992349999999988
0
LINE
8
BLACK
6
CONTINUOUS
10
77.6348029999999909
20
-71.4992349999999988
11
77.3490879999999947
21
-71.4992349999999988
0
LINE
8
BLACK
6
CONTINUOUS
10
77.3490879999999947
20
-71.4992349999999988
11
77.1586119999999909
21
-71.5944729999999936
0
LINE
8
BLACK
6
CONTINUOUS
10
77.1586119999999909
20
-71.5944729999999936
11
77.063373999999996
21
-71.6897110000000026
0
LINE
8
BLACK
6
CONTINUOUS
10
79.1586119999999909
20
-72.8325689999999923
11
78.9681360000000012
21
-72.7373309999999975
0
LINE
8
BLACK
6
CONTINUOUS
10
78.9681360000000012
20
-72.7373309999999975
11
78.8728979999999922
21
-72.642091999999991
0
LINE
8
BLACK
6
CONTINUOUS
10
78.8728979999999922
20
-72.642091999999991
11
78.7776599999999974
21
-72.4516160000000013
0
LINE
8
BLACK
6
CONTINUOUS
10
78.7776599999999974
20
-72.4516160000000013
11
78.7776599999999974
21
-71.8801879999999898
0
LINE
8
BLACK
6
CONTINUOUS
10
78.7776599999999974
20
-71.8801879999999898
11
78.8728979999999922
21
-71.6897110000000026
0
LINE
8
BLACK
6
CONTINUOUS
10
78.8728979999999922
20
-71.6897110000000026
11
78.9681360000000012
21
-71.5944729999999936
0
LINE
8
BLACK
6
CONTINUOUS
10
78.9681360000000012
20
-71.5944729999999936
11
79.1586119999999909
21
-71.4992349999999988
0
LINE
8
BLACK
6
CONTINUOUS
10
79.1586119999999909
20
-71.4992349999999988
11
79.4443270000000012
21
-71.4992349999999988
0
LINE
8
BLACK
6
CONTINUOUS
10
79.4443270000000012
20
-71.4992349999999988
11
79.6348029999999909
21
-71.5944729999999936
0
LINE
8
BLACK
6
CONTINUOUS
10
79.6348029999999909
20
-71.5944729999999936
11
79.7300409999999999
21
-71.6897110000000026
0
LINE
8
BLACK
6
CONTINUOUS
10
79.7300409999999999
20
-71.6897110000000026
11
79.8252789999999948
21
-71.8801879999999898
0
LINE
8
BLACK
6
CONTINUOUS
10
79.8252789999999948
20
-71.8801879999999898
11
79.8252789999999948
21
-72.4516160000000013
0
LINE
8
BLACK
6
CONTINUOUS
10
79.8252789999999948
20
-72.4516160000000013
11
79.7300409999999999
21
-72.642091999999991
0
LINE
8
BLACK
6
CONTINUOUS
10
79.7300409999999999
20
-72.642091999999991
11
79.6348029999999909
21
-72.7373309999999975
0
LINE
8
BLACK
6
CONTINUOUS
10
79.6348029999999909
20
-72.7373309999999975
11
79.4443270000000012
21
-72.8325689999999923
0
LINE
8
BLACK
6
CONTINUOUS
10
79.4443270000000012
20
-72.8325689999999923
11
79.1586119999999909
21
-72.8325689999999923
0
LINE
8
BLACK
6
CONTINUOUS
10
80.9681360000000012
20
-72.8325689999999923
11
80.7776599999999974
21
-72.7373309999999975
0
LINE
8
BLACK
6
CONTINUOUS
10
80.7776599999999974
20
-72.7373309999999975
11
80.6824220000000025
21
-72.5468539999999962
0
LINE
8
BLACK
6
CONTINUOUS
10
80.6824220000000025
20
-72.5468539999999962
11
80.6824220000000025
21
-70.8325689999999923
0
LINE
8
BLACK
6
CONTINUOUS
10
82.4919459999999987
20
-72.7373309999999975
11
82.3014699999999948
21
-72.8325689999999923
0
LINE
8
BLACK
6
CONTINUOUS
10
82.3014699999999948
20
-72.8325689999999923
11
81.9205169999999896
21
-72.8325689999999923
0
LINE
8
BLACK
6
CONTINUOUS
10
81.9205169999999896
20
-72.8325689999999923
11
81.7300409999999999
21
-72.7373309999999975
0
LINE
8
BLACK
6
CONTINUOUS
10
81.7300409999999999
20
-72.7373309999999975
11
81.6348029999999909
21
-72.5468539999999962
0
LINE
8
BLACK
6
CONTINUOUS
10
81.6348029999999909
20
-72.5468539999999962
11
81.6348029999999909
21
-71.7849499999999949
0
LINE
8
BLACK
6
CONTINUOUS
10
81.6348029999999909
20
-71.7849499999999949
11
81.7300409999999999
21
-71.5944729999999936
0
LINE
8
BLACK
6
CONTINUOUS
10
81.7300409999999999
20
-71.5944729999999936
11
81.9205169999999896
21
-71.4992349999999988
0
LINE
8
BLACK
6
CONTINUOUS
10
81.9205169999999896
20
-71.4992349999999988
11
82.3014699999999948
21
-71.4992349999999988
0
LINE
8
BLACK
6
CONTINUOUS
10
82.3014699999999948
20
-71.4992349999999988
11
82.4919459999999987
21
-71.5944729999999936
0
LINE
8
BLACK
6
CONTINUOUS
10
82.4919459999999987
20
-71.5944729999999936
11
82.5871839999999935
21
-71.7849499999999949
0
LINE
8
BLACK
6
CONTINUOUS
10
82.5871839999999935
20
-71.7849499999999949
11
82.5871839999999935
21
-71.9754259999999988
0
LINE
8
BLACK
6
CONTINUOUS
10
82.5871839999999935
20
-71.9754259999999988
11
81.6348029999999909
21
-72.1659020000000027
0
LINE
8
BLACK
6
CONTINUOUS
10
83.3490889999999922
20
-72.7373309999999975
11
83.5395649999999961
21
-72.8325689999999923
0
LINE
8
BLACK
6
CONTINUOUS
10
83.5395649999999961
20
-72.8325689999999923
11
83.9205169999999896
21
-72.8325689999999923
0
LINE
8
BLACK
6
CONTINUOUS
10
83.9205169999999896
20
-72.8325689999999923
11
84.1109939999999909
21
-72.7373309999999975
0
LINE
8
BLACK
6
CONTINUOUS
10
84.1109939999999909
20
-72.7373309999999975
11
84.206232
21
-72.5468539999999962
0
LINE
8
BLACK
6
CONTINUOUS
10
84.206232
20
-72.5468539999999962
11
84.206232
21
-72.4516160000000013
0
LINE
8
BLACK
6
CONTINUOUS
10
84.206232
20
-72.4516160000000013
11
84.1109939999999909
21
-72.2611399999999975
0
LINE
8
BLACK
6
CONTINUOUS
10
84.1109939999999909
20
-72.2611399999999975
11
83.9205169999999896
21
-72.1659020000000027
0
LINE
8
BLACK
6
CONTINUOUS
10
83.9205169999999896
20
-72.1659020000000027
11
83.6348029999999909
21
-72.1659020000000027
0
LINE
8
BLACK
6
CONTINUOUS
10
83.6348029999999909
20
-72.1659020000000027
11
83.4443270000000012
21
-72.0706639999999936
0
LINE
8
BLACK
6
CONTINUOUS
10
83.4443270000000012
20
-72.0706639999999936
11
83.3490889999999922
21
-71.8801879999999898
0
LINE
8
BLACK
6
CONTINUOUS
10
83.3490889999999922
20
-71.8801879999999898
11
83.3490889999999922
21
-71.7849499999999949
0
LINE
8
BLACK
6
CONTINUOUS
10
83.3490889999999922
20
-71.7849499999999949
11
83.4443270000000012
21
-71.5944729999999936
0
LINE
8
BLACK
6
CONTINUOUS
10
83.4443270000000012
20
-71.5944729999999936
11
83.6348029999999909
21
-71.4992349999999988
0
LINE
8
BLACK
6
CONTINUOUS
10
83.6348029999999909
20
-71.4992349999999988
11
83.9205169999999896
21
-71.4992349999999988
0
LINE
8
BLACK
6
CONTINUOUS
10
83.9205169999999896
20
-71.4992349999999988
11
84.1109939999999909
21
-71.5944729999999936
0
LINE
8
BLACK
6
CONTINUOUS
10
84.8728989999999897
20
-73.5944729999999936
11
84.9681369999999987
21
-73.4992349999999988
0
LINE
8
BLACK
6
CONTINUOUS
10
84.9681369999999987
20
-73.4992349999999988
11
85.1586130000000026
21
-73.2135210000000001
0
LINE
8
BLACK
6
CONTINUOUS
10
85.1586130000000026
20
-73.2135210000000001
11
85.2538509999999974
21
-73.0230449999999962
0
LINE
8
BLACK
6
CONTINUOUS
10
85.2538509999999974
20
-73.0230449999999962
11
85.3490889999999922
21
-72.7373309999999975
0
LINE
8
BLACK
6
CONTINUOUS
10
85.3490889999999922
20
-72.7373309999999975
11
85.4443270000000012
21
-72.2611399999999975
0
LINE
8
BLACK
6
CONTINUOUS
10
85.4443270000000012
20
-72.2611399999999975
11
85.4443270000000012
21
-71.8801879999999898
0
LINE
8
BLACK
6
CONTINUOUS
10
85.4443270000000012
20
-71.8801879999999898
11
85.3490889999999922
21
-71.4039969999999897
0
LINE
8
BLACK
6
CONTINUOUS
10
85.3490889999999922
20
-71.4039969999999897
11
85.2538509999999974
21
-71.118282999999991
0
LINE
8
BLACK
6
CONTINUOUS
10
85.2538509999999974
20
-71.118282999999991
11
85.1586130000000026
21
-70.9278070000000014
0
LINE
8
BLACK
6
CONTINUOUS
10
85.1586130000000026
20
-70.9278070000000014
11
84.9681369999999987
21
-70.642091999999991
0
LINE
8
BLACK
6
CONTINUOUS
10
84.9681369999999987
20
-70.642091999999991
11
84.8728989999999897
21
-70.5468539999999962
  0
ENDSEC
  0
EOF
