%TF.GenerationSoftware,KiCad,Pcbnew,8.0.2-1*%
%TF.CreationDate,2025-04-12T14:57:52-07:00*%
%TF.ProjectId,Small_Pendant,536d616c-6c5f-4506-956e-64616e742e6b,rev?*%
%TF.SameCoordinates,Original*%
%TF.FileFunction,Copper,L2,Inr*%
%TF.FilePolarity,Positive*%
%FSLAX46Y46*%
G04 Gerber Fmt 4.6, Leading zero omitted, Abs format (unit mm)*
G04 Created by KiCad (PCBNEW 8.0.2-1) date 2025-04-12 14:57:52*
%MOMM*%
%LPD*%
G01*
G04 APERTURE LIST*
%TA.AperFunction,ComponentPad*%
%ADD10O,1.000000X2.100000*%
%TD*%
%TA.AperFunction,ComponentPad*%
%ADD11O,1.000000X1.600000*%
%TD*%
%TA.AperFunction,ViaPad*%
%ADD12C,0.600000*%
%TD*%
G04 APERTURE END LIST*
D10*
%TO.N,unconnected-(J1-SHIELD-PadS1)*%
%TO.C,J1*%
X80680000Y-72590000D03*
%TO.N,unconnected-(J1-SHIELD-PadS2)*%
X89320000Y-72590000D03*
D11*
%TO.N,unconnected-(J1-SHIELD-PadS3)*%
X89320000Y-76770000D03*
%TO.N,unconnected-(J1-SHIELD-PadS4)*%
X80680000Y-76770000D03*
%TD*%
D12*
%TO.N,+5V*%
X76550000Y-58800000D03*
X82600000Y-71990000D03*
X76335000Y-71000000D03*
X94300000Y-64900000D03*
X87400000Y-71990000D03*
%TO.N,DATA_IN*%
X53325000Y-54925000D03*
%TO.N,Earth*%
X88200000Y-69900000D03*
X86975000Y-65000000D03*
X85000000Y-64200000D03*
X90950000Y-60050000D03*
X88200000Y-71990000D03*
X81820000Y-74500000D03*
X85000000Y-74062500D03*
X79050000Y-60050000D03*
X95335000Y-66800000D03*
X86000000Y-65000000D03*
X85000000Y-65800000D03*
X92300000Y-57920000D03*
X82700000Y-66000000D03*
X91200000Y-71300000D03*
X73820000Y-68100000D03*
X79050000Y-69950000D03*
X85680000Y-67700000D03*
X76335000Y-62600000D03*
X81800000Y-71990000D03*
X81820000Y-76900000D03*
X95335000Y-63200000D03*
X81500000Y-62800000D03*
X84000000Y-65000000D03*
X89000000Y-61200000D03*
%TO.N,/MCU/USB_D'-*%
X79100000Y-68200000D03*
%TO.N,/MCU/USB_D'+*%
X79100000Y-67400000D03*
%TO.N,+3V3*%
X92000000Y-67100000D03*
X76350000Y-60850000D03*
X89190000Y-62460000D03*
X88500000Y-64110000D03*
X81500000Y-63980000D03*
X94550000Y-69500000D03*
X84050000Y-76637500D03*
X90900000Y-62600000D03*
%TO.N,LED_DATA*%
X80600000Y-65000000D03*
%TO.N,USR_BTN*%
X89000000Y-68318199D03*
%TO.N,CHIP_EN*%
X92300000Y-58880000D03*
%TO.N,LED_DATA_5V*%
X74850000Y-58800000D03*
%TO.N,SDA*%
X88500000Y-63090000D03*
%TO.N,SCL*%
X89500000Y-64110000D03*
%TO.N,/MCU/LED_BUILTIN*%
X88800000Y-69100000D03*
%TO.N,IMU_INT*%
X87500000Y-68700000D03*
%TO.N,GPIO9{slash}BOOT*%
X78800000Y-72200000D03*
%TO.N,GND*%
X44425000Y-55575000D03*
X44425000Y-73575000D03*
X52575000Y-75925000D03*
X39075000Y-63925000D03*
X42075000Y-72925000D03*
X58575000Y-60925000D03*
X46575000Y-54925000D03*
X58575000Y-63925000D03*
X40575000Y-69925000D03*
X56425000Y-55575000D03*
X51075000Y-54925000D03*
X41425000Y-58575000D03*
X56425000Y-58575000D03*
X41425000Y-70575000D03*
X56425000Y-73575000D03*
X40575000Y-60925000D03*
X57075000Y-69925000D03*
X39075000Y-66925000D03*
X60075000Y-66925000D03*
X42075000Y-57925000D03*
X46575000Y-75925000D03*
%TO.N,+5VL*%
X53425000Y-75075000D03*
X42075000Y-65425000D03*
X40575000Y-59425000D03*
X43575000Y-74425000D03*
X47425000Y-54075000D03*
X58575000Y-65425000D03*
X58575000Y-71425000D03*
X47425000Y-75075000D03*
X43575000Y-56425000D03*
X51825000Y-54075000D03*
X58575000Y-59425000D03*
X55575000Y-56425000D03*
X40575000Y-68425000D03*
X40575000Y-62425000D03*
X40575000Y-71425000D03*
X42925000Y-72075000D03*
X58575000Y-68425000D03*
X57925000Y-57075000D03*
X55575000Y-74425000D03*
X57075000Y-62425000D03*
%TD*%
%TA.AperFunction,Conductor*%
%TO.N,GND*%
G36*
X50337893Y-51890930D02*
G01*
X50344265Y-51891097D01*
X51018414Y-51926183D01*
X51024804Y-51926682D01*
X51696195Y-51996740D01*
X51702575Y-51997574D01*
X52368604Y-52102287D01*
X52369412Y-52102414D01*
X52375749Y-52103580D01*
X53036212Y-52242914D01*
X53042480Y-52244407D01*
X53498428Y-52365644D01*
X53694846Y-52417871D01*
X53701008Y-52419682D01*
X54211423Y-52584230D01*
X54343481Y-52626803D01*
X54349560Y-52628939D01*
X54980396Y-52869152D01*
X54986346Y-52871596D01*
X55603863Y-53144260D01*
X55609663Y-53147003D01*
X56212179Y-53451378D01*
X56217853Y-53454432D01*
X56803731Y-53789689D01*
X56809239Y-53793034D01*
X57140143Y-54005938D01*
X57315183Y-54118559D01*
X57376898Y-54158266D01*
X57382220Y-54161888D01*
X57836865Y-54489005D01*
X57856694Y-54503272D01*
X57864767Y-54513643D01*
X57865574Y-54512713D01*
X57944405Y-54581033D01*
X58700093Y-55235963D01*
X58703534Y-55239060D01*
X59246942Y-55747410D01*
X59252600Y-55753057D01*
X59341154Y-55847324D01*
X59796020Y-56331536D01*
X59799636Y-56335558D01*
X60483035Y-57129779D01*
X60496686Y-57143224D01*
X60838484Y-57618325D01*
X60842110Y-57623651D01*
X61207328Y-58191352D01*
X61210672Y-58196861D01*
X61545894Y-58782751D01*
X61548948Y-58788425D01*
X61853281Y-59390937D01*
X61856036Y-59396762D01*
X62128669Y-60014292D01*
X62131117Y-60020253D01*
X62371285Y-60651073D01*
X62373421Y-60657152D01*
X62580507Y-61299631D01*
X62582324Y-61305814D01*
X62755750Y-61958174D01*
X62757243Y-61964442D01*
X62896549Y-62624938D01*
X62897714Y-62631276D01*
X63002514Y-63298090D01*
X63003349Y-63304479D01*
X63073370Y-63975855D01*
X63073872Y-63982280D01*
X63108920Y-64656397D01*
X63109087Y-64662838D01*
X63109071Y-65337858D01*
X63108903Y-65344300D01*
X63073819Y-66018397D01*
X63073317Y-66024821D01*
X63003261Y-66696190D01*
X63002426Y-66702580D01*
X62897587Y-67369413D01*
X62896421Y-67375750D01*
X62757087Y-68036212D01*
X62755594Y-68042480D01*
X62582131Y-68694841D01*
X62580314Y-68701024D01*
X62373198Y-69343482D01*
X62371062Y-69349561D01*
X62130849Y-69980397D01*
X62128400Y-69986358D01*
X61855746Y-70603851D01*
X61852991Y-70609676D01*
X61548622Y-71212180D01*
X61545568Y-71217854D01*
X61210311Y-71803733D01*
X61206966Y-71809241D01*
X60841735Y-72376900D01*
X60838109Y-72382227D01*
X60496730Y-72856692D01*
X60486359Y-72864765D01*
X60487289Y-72865571D01*
X59764076Y-73700048D01*
X59760925Y-73703549D01*
X59252589Y-74246942D01*
X59246935Y-74252607D01*
X58668463Y-74796020D01*
X58664441Y-74799636D01*
X57870241Y-75483017D01*
X57856778Y-75496681D01*
X57381655Y-75838495D01*
X57376329Y-75842121D01*
X56808654Y-76207321D01*
X56803146Y-76210665D01*
X56217247Y-76545893D01*
X56211572Y-76548947D01*
X55609061Y-76853280D01*
X55603236Y-76856035D01*
X54985706Y-77128667D01*
X54979745Y-77131115D01*
X54348926Y-77371283D01*
X54342847Y-77373419D01*
X53700368Y-77580505D01*
X53694185Y-77582322D01*
X53041825Y-77755748D01*
X53035557Y-77757241D01*
X52375060Y-77896547D01*
X52368722Y-77897712D01*
X51701909Y-78002512D01*
X51695520Y-78003347D01*
X51024143Y-78073368D01*
X51017718Y-78073870D01*
X50343602Y-78108918D01*
X50337161Y-78109085D01*
X49662141Y-78109069D01*
X49655699Y-78108901D01*
X48981602Y-78073817D01*
X48975178Y-78073315D01*
X48303809Y-78003259D01*
X48297419Y-78002424D01*
X47630587Y-77897585D01*
X47624250Y-77896419D01*
X46963787Y-77757085D01*
X46957519Y-77755592D01*
X46305159Y-77582129D01*
X46298976Y-77580312D01*
X45656518Y-77373196D01*
X45650439Y-77371060D01*
X45019603Y-77130847D01*
X45013642Y-77128398D01*
X44396149Y-76855745D01*
X44390324Y-76852990D01*
X43787820Y-76548621D01*
X43782146Y-76545567D01*
X43196268Y-76210310D01*
X43190760Y-76206965D01*
X42623101Y-75841733D01*
X42617774Y-75838107D01*
X42143311Y-75496731D01*
X42135239Y-75486362D01*
X42134433Y-75487293D01*
X41942626Y-75321061D01*
X41658710Y-75075000D01*
X46969867Y-75075000D01*
X46988302Y-75203225D01*
X47042117Y-75321061D01*
X47042118Y-75321063D01*
X47126951Y-75418967D01*
X47235931Y-75489004D01*
X47360225Y-75525499D01*
X47360227Y-75525500D01*
X47360228Y-75525500D01*
X47489773Y-75525500D01*
X47489773Y-75525499D01*
X47614069Y-75489004D01*
X47723049Y-75418967D01*
X47807882Y-75321063D01*
X47861697Y-75203226D01*
X47880133Y-75075000D01*
X52969867Y-75075000D01*
X52988302Y-75203225D01*
X53042117Y-75321061D01*
X53042118Y-75321063D01*
X53126951Y-75418967D01*
X53235931Y-75489004D01*
X53360225Y-75525499D01*
X53360227Y-75525500D01*
X53360228Y-75525500D01*
X53489773Y-75525500D01*
X53489773Y-75525499D01*
X53614069Y-75489004D01*
X53723049Y-75418967D01*
X53807882Y-75321063D01*
X53861697Y-75203226D01*
X53880133Y-75075000D01*
X53861697Y-74946774D01*
X53807882Y-74828937D01*
X53723049Y-74731033D01*
X53614069Y-74660996D01*
X53614065Y-74660994D01*
X53614064Y-74660994D01*
X53489774Y-74624500D01*
X53489772Y-74624500D01*
X53360228Y-74624500D01*
X53360226Y-74624500D01*
X53235935Y-74660994D01*
X53235932Y-74660995D01*
X53235931Y-74660996D01*
X53189060Y-74691118D01*
X53126950Y-74731033D01*
X53042118Y-74828937D01*
X53042117Y-74828938D01*
X52988302Y-74946774D01*
X52969867Y-75075000D01*
X47880133Y-75075000D01*
X47861697Y-74946774D01*
X47807882Y-74828937D01*
X47723049Y-74731033D01*
X47614069Y-74660996D01*
X47614065Y-74660994D01*
X47614064Y-74660994D01*
X47489774Y-74624500D01*
X47489772Y-74624500D01*
X47360228Y-74624500D01*
X47360226Y-74624500D01*
X47235935Y-74660994D01*
X47235932Y-74660995D01*
X47235931Y-74660996D01*
X47189060Y-74691118D01*
X47126950Y-74731033D01*
X47042118Y-74828937D01*
X47042117Y-74828938D01*
X46988302Y-74946774D01*
X46969867Y-75075000D01*
X41658710Y-75075000D01*
X41299909Y-74764039D01*
X41296450Y-74760925D01*
X41221803Y-74691094D01*
X40937358Y-74425000D01*
X43119867Y-74425000D01*
X43138302Y-74553225D01*
X43190476Y-74667467D01*
X43192118Y-74671063D01*
X43276951Y-74768967D01*
X43385931Y-74839004D01*
X43510225Y-74875499D01*
X43510227Y-74875500D01*
X43510228Y-74875500D01*
X43639773Y-74875500D01*
X43639773Y-74875499D01*
X43764069Y-74839004D01*
X43873049Y-74768967D01*
X43957882Y-74671063D01*
X44011697Y-74553226D01*
X44030133Y-74425000D01*
X55119867Y-74425000D01*
X55138302Y-74553225D01*
X55190476Y-74667467D01*
X55192118Y-74671063D01*
X55276951Y-74768967D01*
X55385931Y-74839004D01*
X55510225Y-74875499D01*
X55510227Y-74875500D01*
X55510228Y-74875500D01*
X55639773Y-74875500D01*
X55639773Y-74875499D01*
X55764069Y-74839004D01*
X55873049Y-74768967D01*
X55957882Y-74671063D01*
X56011697Y-74553226D01*
X56030133Y-74425000D01*
X56011697Y-74296774D01*
X55957882Y-74178937D01*
X55873049Y-74081033D01*
X55764069Y-74010996D01*
X55764065Y-74010994D01*
X55764064Y-74010994D01*
X55639774Y-73974500D01*
X55639772Y-73974500D01*
X55510228Y-73974500D01*
X55510226Y-73974500D01*
X55385935Y-74010994D01*
X55385932Y-74010995D01*
X55385931Y-74010996D01*
X55351532Y-74033103D01*
X55276950Y-74081033D01*
X55192118Y-74178937D01*
X55192117Y-74178938D01*
X55138302Y-74296774D01*
X55119867Y-74425000D01*
X44030133Y-74425000D01*
X44011697Y-74296774D01*
X43957882Y-74178937D01*
X43873049Y-74081033D01*
X43764069Y-74010996D01*
X43764065Y-74010994D01*
X43764064Y-74010994D01*
X43639774Y-73974500D01*
X43639772Y-73974500D01*
X43510228Y-73974500D01*
X43510226Y-73974500D01*
X43385935Y-74010994D01*
X43385932Y-74010995D01*
X43385931Y-74010996D01*
X43351532Y-74033103D01*
X43276950Y-74081033D01*
X43192118Y-74178937D01*
X43192117Y-74178938D01*
X43138302Y-74296774D01*
X43119867Y-74425000D01*
X40937358Y-74425000D01*
X40753053Y-74252585D01*
X40747392Y-74246935D01*
X40667655Y-74162054D01*
X40278518Y-73747811D01*
X40203979Y-73668463D01*
X40200363Y-73664441D01*
X39803481Y-73203200D01*
X39548058Y-72906357D01*
X39516994Y-72870256D01*
X39503319Y-72856782D01*
X39503254Y-72856692D01*
X39161504Y-72381657D01*
X39157884Y-72376338D01*
X38964026Y-72075000D01*
X42469867Y-72075000D01*
X42488302Y-72203225D01*
X42539307Y-72314907D01*
X42542118Y-72321063D01*
X42626951Y-72418967D01*
X42735931Y-72489004D01*
X42860225Y-72525499D01*
X42860227Y-72525500D01*
X42860228Y-72525500D01*
X42989773Y-72525500D01*
X42989773Y-72525499D01*
X43114069Y-72489004D01*
X43223049Y-72418967D01*
X43307882Y-72321063D01*
X43361697Y-72203226D01*
X43380133Y-72075000D01*
X43361697Y-71946774D01*
X43307882Y-71828937D01*
X43223049Y-71731033D01*
X43114069Y-71660996D01*
X43114065Y-71660994D01*
X43114064Y-71660994D01*
X42989774Y-71624500D01*
X42989772Y-71624500D01*
X42860228Y-71624500D01*
X42860226Y-71624500D01*
X42735935Y-71660994D01*
X42735932Y-71660995D01*
X42735931Y-71660996D01*
X42684677Y-71693934D01*
X42626950Y-71731033D01*
X42542118Y-71828937D01*
X42542117Y-71828938D01*
X42488302Y-71946774D01*
X42469867Y-72075000D01*
X38964026Y-72075000D01*
X38792672Y-71808643D01*
X38789334Y-71803146D01*
X38738567Y-71714418D01*
X38572974Y-71425000D01*
X40119867Y-71425000D01*
X40138302Y-71553225D01*
X40192117Y-71671061D01*
X40192118Y-71671063D01*
X40276951Y-71768967D01*
X40385931Y-71839004D01*
X40510225Y-71875499D01*
X40510227Y-71875500D01*
X40510228Y-71875500D01*
X40639773Y-71875500D01*
X40639773Y-71875499D01*
X40764069Y-71839004D01*
X40873049Y-71768967D01*
X40957882Y-71671063D01*
X41011697Y-71553226D01*
X41030133Y-71425000D01*
X58119867Y-71425000D01*
X58138302Y-71553225D01*
X58192117Y-71671061D01*
X58192118Y-71671063D01*
X58276951Y-71768967D01*
X58385931Y-71839004D01*
X58510225Y-71875499D01*
X58510227Y-71875500D01*
X58510228Y-71875500D01*
X58639773Y-71875500D01*
X58639773Y-71875499D01*
X58764069Y-71839004D01*
X58873049Y-71768967D01*
X58957882Y-71671063D01*
X59011697Y-71553226D01*
X59030133Y-71425000D01*
X59011697Y-71296774D01*
X58957882Y-71178937D01*
X58873049Y-71081033D01*
X58764069Y-71010996D01*
X58764065Y-71010994D01*
X58764064Y-71010994D01*
X58639774Y-70974500D01*
X58639772Y-70974500D01*
X58510228Y-70974500D01*
X58510226Y-70974500D01*
X58385935Y-71010994D01*
X58385932Y-71010995D01*
X58385931Y-71010996D01*
X58334677Y-71043934D01*
X58276950Y-71081033D01*
X58192118Y-71178937D01*
X58192117Y-71178938D01*
X58138302Y-71296774D01*
X58119867Y-71425000D01*
X41030133Y-71425000D01*
X41011697Y-71296774D01*
X40957882Y-71178937D01*
X40873049Y-71081033D01*
X40764069Y-71010996D01*
X40764065Y-71010994D01*
X40764064Y-71010994D01*
X40639774Y-70974500D01*
X40639772Y-70974500D01*
X40510228Y-70974500D01*
X40510226Y-70974500D01*
X40385935Y-71010994D01*
X40385932Y-71010995D01*
X40385931Y-71010996D01*
X40334677Y-71043934D01*
X40276950Y-71081033D01*
X40192118Y-71178937D01*
X40192117Y-71178938D01*
X40138302Y-71296774D01*
X40119867Y-71425000D01*
X38572974Y-71425000D01*
X38454106Y-71217247D01*
X38451052Y-71211572D01*
X38146719Y-70609061D01*
X38143964Y-70603236D01*
X37871323Y-69985684D01*
X37868893Y-69979767D01*
X37628716Y-69348926D01*
X37626580Y-69342847D01*
X37563575Y-69147376D01*
X37419484Y-68700336D01*
X37417686Y-68694216D01*
X37346116Y-68425000D01*
X40119867Y-68425000D01*
X40138302Y-68553225D01*
X40192117Y-68671061D01*
X40192118Y-68671063D01*
X40276951Y-68768967D01*
X40385931Y-68839004D01*
X40510225Y-68875499D01*
X40510227Y-68875500D01*
X40510228Y-68875500D01*
X40639773Y-68875500D01*
X40639773Y-68875499D01*
X40764069Y-68839004D01*
X40873049Y-68768967D01*
X40957882Y-68671063D01*
X41011697Y-68553226D01*
X41030133Y-68425000D01*
X58119867Y-68425000D01*
X58138302Y-68553225D01*
X58192117Y-68671061D01*
X58192118Y-68671063D01*
X58276951Y-68768967D01*
X58385931Y-68839004D01*
X58510225Y-68875499D01*
X58510227Y-68875500D01*
X58510228Y-68875500D01*
X58639773Y-68875500D01*
X58639773Y-68875499D01*
X58764069Y-68839004D01*
X58873049Y-68768967D01*
X58957882Y-68671063D01*
X59011697Y-68553226D01*
X59030133Y-68425000D01*
X59011697Y-68296774D01*
X58957882Y-68178937D01*
X58873049Y-68081033D01*
X58764069Y-68010996D01*
X58764065Y-68010994D01*
X58764064Y-68010994D01*
X58639774Y-67974500D01*
X58639772Y-67974500D01*
X58510228Y-67974500D01*
X58510226Y-67974500D01*
X58385935Y-68010994D01*
X58385932Y-68010995D01*
X58385931Y-68010996D01*
X58347713Y-68035557D01*
X58276950Y-68081033D01*
X58192118Y-68178937D01*
X58192117Y-68178938D01*
X58138302Y-68296774D01*
X58119867Y-68425000D01*
X41030133Y-68425000D01*
X41011697Y-68296774D01*
X40957882Y-68178937D01*
X40873049Y-68081033D01*
X40764069Y-68010996D01*
X40764065Y-68010994D01*
X40764064Y-68010994D01*
X40639774Y-67974500D01*
X40639772Y-67974500D01*
X40510228Y-67974500D01*
X40510226Y-67974500D01*
X40385935Y-68010994D01*
X40385932Y-68010995D01*
X40385931Y-68010996D01*
X40347713Y-68035557D01*
X40276950Y-68081033D01*
X40192118Y-68178937D01*
X40192117Y-68178938D01*
X40138302Y-68296774D01*
X40119867Y-68425000D01*
X37346116Y-68425000D01*
X37244246Y-68041804D01*
X37242763Y-68035578D01*
X37103447Y-67375034D01*
X37102291Y-67368748D01*
X36997485Y-66701895D01*
X36996652Y-66695520D01*
X36966150Y-66403057D01*
X36926628Y-66024109D01*
X36926131Y-66017752D01*
X36895312Y-65425000D01*
X41619867Y-65425000D01*
X41638302Y-65553225D01*
X41692117Y-65671061D01*
X41692118Y-65671063D01*
X41776951Y-65768967D01*
X41885931Y-65839004D01*
X42010225Y-65875499D01*
X42010227Y-65875500D01*
X42010228Y-65875500D01*
X42139773Y-65875500D01*
X42139773Y-65875499D01*
X42264069Y-65839004D01*
X42373049Y-65768967D01*
X42457882Y-65671063D01*
X42511697Y-65553226D01*
X42530133Y-65425000D01*
X58119867Y-65425000D01*
X58138302Y-65553225D01*
X58192117Y-65671061D01*
X58192118Y-65671063D01*
X58276951Y-65768967D01*
X58385931Y-65839004D01*
X58510225Y-65875499D01*
X58510227Y-65875500D01*
X58510228Y-65875500D01*
X58639773Y-65875500D01*
X58639773Y-65875499D01*
X58764069Y-65839004D01*
X58873049Y-65768967D01*
X58957882Y-65671063D01*
X59011697Y-65553226D01*
X59030133Y-65425000D01*
X59011697Y-65296774D01*
X58957882Y-65178937D01*
X58873049Y-65081033D01*
X58764069Y-65010996D01*
X58764065Y-65010994D01*
X58764064Y-65010994D01*
X58639774Y-64974500D01*
X58639772Y-64974500D01*
X58510228Y-64974500D01*
X58510226Y-64974500D01*
X58385935Y-65010994D01*
X58385932Y-65010995D01*
X58385931Y-65010996D01*
X58334677Y-65043934D01*
X58276950Y-65081033D01*
X58192118Y-65178937D01*
X58192117Y-65178938D01*
X58138302Y-65296774D01*
X58119867Y-65425000D01*
X42530133Y-65425000D01*
X42511697Y-65296774D01*
X42457882Y-65178937D01*
X42373049Y-65081033D01*
X42264069Y-65010996D01*
X42264065Y-65010994D01*
X42264064Y-65010994D01*
X42139774Y-64974500D01*
X42139772Y-64974500D01*
X42010228Y-64974500D01*
X42010226Y-64974500D01*
X41885935Y-65010994D01*
X41885932Y-65010995D01*
X41885931Y-65010996D01*
X41834677Y-65043934D01*
X41776950Y-65081033D01*
X41692118Y-65178937D01*
X41692117Y-65178938D01*
X41638302Y-65296774D01*
X41619867Y-65425000D01*
X36895312Y-65425000D01*
X36891080Y-65343600D01*
X36890914Y-65337161D01*
X36890922Y-65000346D01*
X36890930Y-64662105D01*
X36891097Y-64655735D01*
X36926183Y-63981582D01*
X36926682Y-63975198D01*
X36996741Y-63303799D01*
X36997575Y-63297419D01*
X37060006Y-62900329D01*
X37102415Y-62630579D01*
X37103580Y-62624250D01*
X37145615Y-62425000D01*
X40119867Y-62425000D01*
X40138302Y-62553225D01*
X40192117Y-62671061D01*
X40192118Y-62671063D01*
X40276951Y-62768967D01*
X40385931Y-62839004D01*
X40510225Y-62875499D01*
X40510227Y-62875500D01*
X40510228Y-62875500D01*
X40639773Y-62875500D01*
X40639773Y-62875499D01*
X40764069Y-62839004D01*
X40873049Y-62768967D01*
X40957882Y-62671063D01*
X41011697Y-62553226D01*
X41030133Y-62425000D01*
X56619867Y-62425000D01*
X56638302Y-62553225D01*
X56692117Y-62671061D01*
X56692118Y-62671063D01*
X56776951Y-62768967D01*
X56885931Y-62839004D01*
X57010225Y-62875499D01*
X57010227Y-62875500D01*
X57010228Y-62875500D01*
X57139773Y-62875500D01*
X57139773Y-62875499D01*
X57264069Y-62839004D01*
X57373049Y-62768967D01*
X57457882Y-62671063D01*
X57511697Y-62553226D01*
X57530133Y-62425000D01*
X57511697Y-62296774D01*
X57457882Y-62178937D01*
X57373049Y-62081033D01*
X57264069Y-62010996D01*
X57264065Y-62010994D01*
X57264064Y-62010994D01*
X57139774Y-61974500D01*
X57139772Y-61974500D01*
X57010228Y-61974500D01*
X57010226Y-61974500D01*
X56885935Y-62010994D01*
X56885932Y-62010995D01*
X56885931Y-62010996D01*
X56834677Y-62043934D01*
X56776950Y-62081033D01*
X56692118Y-62178937D01*
X56692117Y-62178938D01*
X56638302Y-62296774D01*
X56619867Y-62425000D01*
X41030133Y-62425000D01*
X41011697Y-62296774D01*
X40957882Y-62178937D01*
X40873049Y-62081033D01*
X40764069Y-62010996D01*
X40764065Y-62010994D01*
X40764064Y-62010994D01*
X40639774Y-61974500D01*
X40639772Y-61974500D01*
X40510228Y-61974500D01*
X40510226Y-61974500D01*
X40385935Y-62010994D01*
X40385932Y-62010995D01*
X40385931Y-62010996D01*
X40334677Y-62043934D01*
X40276950Y-62081033D01*
X40192118Y-62178937D01*
X40192117Y-62178938D01*
X40138302Y-62296774D01*
X40119867Y-62425000D01*
X37145615Y-62425000D01*
X37191102Y-62209386D01*
X37242914Y-61963783D01*
X37244407Y-61957519D01*
X37358974Y-61526655D01*
X37417874Y-61305142D01*
X37419679Y-61299001D01*
X37626806Y-60656508D01*
X37628939Y-60650439D01*
X37804344Y-60189799D01*
X37869156Y-60019591D01*
X37871590Y-60013667D01*
X38131515Y-59425000D01*
X40119867Y-59425000D01*
X40138302Y-59553225D01*
X40192117Y-59671061D01*
X40192118Y-59671063D01*
X40276951Y-59768967D01*
X40385931Y-59839004D01*
X40510225Y-59875499D01*
X40510227Y-59875500D01*
X40510228Y-59875500D01*
X40639773Y-59875500D01*
X40639773Y-59875499D01*
X40764069Y-59839004D01*
X40873049Y-59768967D01*
X40957882Y-59671063D01*
X41011697Y-59553226D01*
X41030133Y-59425000D01*
X58119867Y-59425000D01*
X58138302Y-59553225D01*
X58192117Y-59671061D01*
X58192118Y-59671063D01*
X58276951Y-59768967D01*
X58385931Y-59839004D01*
X58510225Y-59875499D01*
X58510227Y-59875500D01*
X58510228Y-59875500D01*
X58639773Y-59875500D01*
X58639773Y-59875499D01*
X58764069Y-59839004D01*
X58873049Y-59768967D01*
X58957882Y-59671063D01*
X59011697Y-59553226D01*
X59030133Y-59425000D01*
X59011697Y-59296774D01*
X58957882Y-59178937D01*
X58873049Y-59081033D01*
X58764069Y-59010996D01*
X58764065Y-59010994D01*
X58764064Y-59010994D01*
X58639774Y-58974500D01*
X58639772Y-58974500D01*
X58510228Y-58974500D01*
X58510226Y-58974500D01*
X58385935Y-59010994D01*
X58385932Y-59010995D01*
X58385931Y-59010996D01*
X58334677Y-59043934D01*
X58276950Y-59081033D01*
X58192118Y-59178937D01*
X58192117Y-59178938D01*
X58138302Y-59296774D01*
X58119867Y-59425000D01*
X41030133Y-59425000D01*
X41011697Y-59296774D01*
X40957882Y-59178937D01*
X40873049Y-59081033D01*
X40764069Y-59010996D01*
X40764065Y-59010994D01*
X40764064Y-59010994D01*
X40639774Y-58974500D01*
X40639772Y-58974500D01*
X40510228Y-58974500D01*
X40510226Y-58974500D01*
X40385935Y-59010994D01*
X40385932Y-59010995D01*
X40385931Y-59010996D01*
X40334677Y-59043934D01*
X40276950Y-59081033D01*
X40192118Y-59178937D01*
X40192117Y-59178938D01*
X40138302Y-59296774D01*
X40119867Y-59425000D01*
X38131515Y-59425000D01*
X38144267Y-59396121D01*
X38146996Y-59390351D01*
X38451388Y-58787801D01*
X38454421Y-58782165D01*
X38789692Y-58196262D01*
X38793034Y-58190760D01*
X39158295Y-57623055D01*
X39161861Y-57617817D01*
X39503273Y-57143303D01*
X39513638Y-57135233D01*
X39512710Y-57134429D01*
X39548058Y-57093643D01*
X39564215Y-57075000D01*
X57469867Y-57075000D01*
X57488302Y-57203225D01*
X57542117Y-57321061D01*
X57542118Y-57321063D01*
X57626951Y-57418967D01*
X57735931Y-57489004D01*
X57860225Y-57525499D01*
X57860227Y-57525500D01*
X57860228Y-57525500D01*
X57989773Y-57525500D01*
X57989773Y-57525499D01*
X58114069Y-57489004D01*
X58223049Y-57418967D01*
X58307882Y-57321063D01*
X58361697Y-57203226D01*
X58380133Y-57075000D01*
X58361697Y-56946774D01*
X58307882Y-56828937D01*
X58223049Y-56731033D01*
X58114069Y-56660996D01*
X58114065Y-56660994D01*
X58114064Y-56660994D01*
X57989774Y-56624500D01*
X57989772Y-56624500D01*
X57860228Y-56624500D01*
X57860226Y-56624500D01*
X57735935Y-56660994D01*
X57735932Y-56660995D01*
X57735931Y-56660996D01*
X57684677Y-56693934D01*
X57626950Y-56731033D01*
X57542118Y-56828937D01*
X57542117Y-56828938D01*
X57488302Y-56946774D01*
X57469867Y-57075000D01*
X39564215Y-57075000D01*
X40127548Y-56425000D01*
X43119867Y-56425000D01*
X43138302Y-56553225D01*
X43192117Y-56671061D01*
X43192118Y-56671063D01*
X43276951Y-56768967D01*
X43385931Y-56839004D01*
X43444524Y-56856208D01*
X43510225Y-56875499D01*
X43510227Y-56875500D01*
X43510228Y-56875500D01*
X43639773Y-56875500D01*
X43639773Y-56875499D01*
X43764069Y-56839004D01*
X43873049Y-56768967D01*
X43957882Y-56671063D01*
X44011697Y-56553226D01*
X44030133Y-56425000D01*
X55119867Y-56425000D01*
X55138302Y-56553225D01*
X55192117Y-56671061D01*
X55192118Y-56671063D01*
X55276951Y-56768967D01*
X55385931Y-56839004D01*
X55444524Y-56856208D01*
X55510225Y-56875499D01*
X55510227Y-56875500D01*
X55510228Y-56875500D01*
X55639773Y-56875500D01*
X55639773Y-56875499D01*
X55764069Y-56839004D01*
X55873049Y-56768967D01*
X55957882Y-56671063D01*
X56011697Y-56553226D01*
X56030133Y-56425000D01*
X56011697Y-56296774D01*
X55957882Y-56178937D01*
X55873049Y-56081033D01*
X55764069Y-56010996D01*
X55764065Y-56010994D01*
X55764064Y-56010994D01*
X55639774Y-55974500D01*
X55639772Y-55974500D01*
X55510228Y-55974500D01*
X55510226Y-55974500D01*
X55385935Y-56010994D01*
X55385932Y-56010995D01*
X55385931Y-56010996D01*
X55334677Y-56043934D01*
X55276950Y-56081033D01*
X55192118Y-56178937D01*
X55192117Y-56178938D01*
X55138302Y-56296774D01*
X55119867Y-56425000D01*
X44030133Y-56425000D01*
X44011697Y-56296774D01*
X43957882Y-56178937D01*
X43873049Y-56081033D01*
X43764069Y-56010996D01*
X43764065Y-56010994D01*
X43764064Y-56010994D01*
X43639774Y-55974500D01*
X43639772Y-55974500D01*
X43510228Y-55974500D01*
X43510226Y-55974500D01*
X43385935Y-56010994D01*
X43385932Y-56010995D01*
X43385931Y-56010996D01*
X43334677Y-56043934D01*
X43276950Y-56081033D01*
X43192118Y-56178937D01*
X43192117Y-56178938D01*
X43138302Y-56296774D01*
X43119867Y-56425000D01*
X40127548Y-56425000D01*
X40235986Y-56299879D01*
X40239036Y-56296491D01*
X40747429Y-55753037D01*
X40753046Y-55747410D01*
X41331555Y-55203961D01*
X41335538Y-55200380D01*
X41655575Y-54925000D01*
X52869867Y-54925000D01*
X52888302Y-55053225D01*
X52942117Y-55171061D01*
X52942118Y-55171063D01*
X52998318Y-55235922D01*
X53020840Y-55261915D01*
X53026951Y-55268967D01*
X53135931Y-55339004D01*
X53260225Y-55375499D01*
X53260227Y-55375500D01*
X53260228Y-55375500D01*
X53389773Y-55375500D01*
X53389773Y-55375499D01*
X53514069Y-55339004D01*
X53623049Y-55268967D01*
X53707882Y-55171063D01*
X53761697Y-55053226D01*
X53780133Y-54925000D01*
X53761697Y-54796774D01*
X53707882Y-54678937D01*
X53623049Y-54581033D01*
X53514069Y-54510996D01*
X53514065Y-54510994D01*
X53514064Y-54510994D01*
X53389774Y-54474500D01*
X53389772Y-54474500D01*
X53260228Y-54474500D01*
X53260226Y-54474500D01*
X53135935Y-54510994D01*
X53135932Y-54510995D01*
X53135931Y-54510996D01*
X53091260Y-54539704D01*
X53026950Y-54581033D01*
X52942118Y-54678937D01*
X52942117Y-54678938D01*
X52888302Y-54796774D01*
X52869867Y-54925000D01*
X41655575Y-54925000D01*
X42093643Y-54548058D01*
X42093642Y-54548057D01*
X42129769Y-54516972D01*
X42143219Y-54503317D01*
X42618359Y-54161492D01*
X42623635Y-54157901D01*
X42752498Y-54075000D01*
X46969867Y-54075000D01*
X46988302Y-54203225D01*
X47032077Y-54299076D01*
X47042118Y-54321063D01*
X47126951Y-54418967D01*
X47235931Y-54489004D01*
X47360225Y-54525499D01*
X47360227Y-54525500D01*
X47360228Y-54525500D01*
X47489773Y-54525500D01*
X47489773Y-54525499D01*
X47614069Y-54489004D01*
X47723049Y-54418967D01*
X47807882Y-54321063D01*
X47861697Y-54203226D01*
X47880133Y-54075000D01*
X51369867Y-54075000D01*
X51388302Y-54203225D01*
X51432077Y-54299076D01*
X51442118Y-54321063D01*
X51526951Y-54418967D01*
X51635931Y-54489004D01*
X51760225Y-54525499D01*
X51760227Y-54525500D01*
X51760228Y-54525500D01*
X51889773Y-54525500D01*
X51889773Y-54525499D01*
X52014069Y-54489004D01*
X52123049Y-54418967D01*
X52207882Y-54321063D01*
X52261697Y-54203226D01*
X52280133Y-54075000D01*
X52261697Y-53946774D01*
X52207882Y-53828937D01*
X52123049Y-53731033D01*
X52014069Y-53660996D01*
X52014065Y-53660994D01*
X52014064Y-53660994D01*
X51889774Y-53624500D01*
X51889772Y-53624500D01*
X51760228Y-53624500D01*
X51760226Y-53624500D01*
X51635935Y-53660994D01*
X51635932Y-53660995D01*
X51635931Y-53660996D01*
X51584677Y-53693934D01*
X51526950Y-53731033D01*
X51442118Y-53828937D01*
X51442117Y-53828938D01*
X51388302Y-53946774D01*
X51369867Y-54075000D01*
X47880133Y-54075000D01*
X47861697Y-53946774D01*
X47807882Y-53828937D01*
X47723049Y-53731033D01*
X47614069Y-53660996D01*
X47614065Y-53660994D01*
X47614064Y-53660994D01*
X47489774Y-53624500D01*
X47489772Y-53624500D01*
X47360228Y-53624500D01*
X47360226Y-53624500D01*
X47235935Y-53660994D01*
X47235932Y-53660995D01*
X47235931Y-53660996D01*
X47184677Y-53693934D01*
X47126950Y-53731033D01*
X47042118Y-53828937D01*
X47042117Y-53828938D01*
X46988302Y-53946774D01*
X46969867Y-54075000D01*
X42752498Y-54075000D01*
X43191373Y-53792661D01*
X43196825Y-53789350D01*
X43782761Y-53454100D01*
X43788417Y-53451056D01*
X44390960Y-53146708D01*
X44396740Y-53143974D01*
X45014328Y-52871317D01*
X45020218Y-52868898D01*
X45651083Y-52628712D01*
X45657141Y-52626583D01*
X46299673Y-52419481D01*
X46305772Y-52417689D01*
X46958204Y-52244243D01*
X46964413Y-52242764D01*
X47624971Y-52103445D01*
X47631244Y-52102292D01*
X48298109Y-51997484D01*
X48304461Y-51996654D01*
X48975893Y-51926628D01*
X48982244Y-51926131D01*
X49656400Y-51891080D01*
X49662834Y-51890914D01*
X50337893Y-51890930D01*
G37*
%TD.AperFunction*%
%TD*%
%TA.AperFunction,Conductor*%
%TO.N,Earth*%
G36*
X85337893Y-51890930D02*
G01*
X85344265Y-51891097D01*
X86018414Y-51926183D01*
X86024804Y-51926682D01*
X86696195Y-51996740D01*
X86702575Y-51997574D01*
X87368604Y-52102287D01*
X87369412Y-52102414D01*
X87375749Y-52103580D01*
X88036212Y-52242914D01*
X88042480Y-52244407D01*
X88498428Y-52365644D01*
X88694846Y-52417871D01*
X88701008Y-52419682D01*
X89211423Y-52584230D01*
X89343481Y-52626803D01*
X89349560Y-52628939D01*
X89980396Y-52869152D01*
X89986346Y-52871596D01*
X90603863Y-53144260D01*
X90609663Y-53147003D01*
X91212179Y-53451378D01*
X91217853Y-53454432D01*
X91803731Y-53789689D01*
X91809239Y-53793034D01*
X92140143Y-54005938D01*
X92315183Y-54118559D01*
X92376898Y-54158266D01*
X92382220Y-54161888D01*
X92657714Y-54360106D01*
X92856694Y-54503272D01*
X92864767Y-54513643D01*
X92865574Y-54512713D01*
X92950669Y-54586462D01*
X93700093Y-55235963D01*
X93703534Y-55239060D01*
X94246942Y-55747410D01*
X94252600Y-55753057D01*
X94341154Y-55847324D01*
X94796020Y-56331536D01*
X94799636Y-56335558D01*
X95483035Y-57129779D01*
X95496686Y-57143224D01*
X95838484Y-57618325D01*
X95842110Y-57623651D01*
X96207328Y-58191352D01*
X96210672Y-58196861D01*
X96545894Y-58782751D01*
X96548948Y-58788425D01*
X96853281Y-59390937D01*
X96856036Y-59396762D01*
X97128669Y-60014292D01*
X97131117Y-60020253D01*
X97371285Y-60651073D01*
X97373421Y-60657152D01*
X97476911Y-60978226D01*
X97569023Y-61264004D01*
X97580507Y-61299631D01*
X97582324Y-61305814D01*
X97755750Y-61958174D01*
X97757243Y-61964442D01*
X97896549Y-62624938D01*
X97897714Y-62631276D01*
X98002514Y-63298090D01*
X98003349Y-63304479D01*
X98073370Y-63975855D01*
X98073872Y-63982280D01*
X98108920Y-64656397D01*
X98109087Y-64662838D01*
X98109071Y-65337858D01*
X98108903Y-65344300D01*
X98073819Y-66018397D01*
X98073317Y-66024821D01*
X98003261Y-66696190D01*
X98002426Y-66702580D01*
X97897587Y-67369413D01*
X97896421Y-67375750D01*
X97757087Y-68036212D01*
X97755594Y-68042480D01*
X97582131Y-68694841D01*
X97580314Y-68701024D01*
X97373198Y-69343482D01*
X97371062Y-69349561D01*
X97130849Y-69980397D01*
X97128400Y-69986358D01*
X96855746Y-70603851D01*
X96852991Y-70609676D01*
X96548622Y-71212180D01*
X96545568Y-71217854D01*
X96210311Y-71803733D01*
X96206966Y-71809241D01*
X95841735Y-72376900D01*
X95838109Y-72382227D01*
X95496730Y-72856692D01*
X95486359Y-72864765D01*
X95487289Y-72865571D01*
X94764076Y-73700048D01*
X94760925Y-73703549D01*
X94252589Y-74246942D01*
X94246935Y-74252607D01*
X93668463Y-74796020D01*
X93664441Y-74799636D01*
X92874054Y-75479736D01*
X92857229Y-75496892D01*
X92482562Y-75769113D01*
X92478225Y-75772125D01*
X92017255Y-76077936D01*
X92012793Y-76080761D01*
X91539232Y-76366660D01*
X91534654Y-76369293D01*
X91049326Y-76634784D01*
X91044640Y-76637219D01*
X90548459Y-76881799D01*
X90543674Y-76884032D01*
X90144539Y-77060068D01*
X90075257Y-77069111D01*
X90012084Y-77039261D01*
X89975078Y-76979996D01*
X89970500Y-76946613D01*
X89970500Y-76405928D01*
X89945502Y-76280261D01*
X89945501Y-76280260D01*
X89945501Y-76280256D01*
X89896465Y-76161873D01*
X89896464Y-76161872D01*
X89896461Y-76161866D01*
X89825276Y-76055331D01*
X89825273Y-76055327D01*
X89734672Y-75964726D01*
X89734668Y-75964723D01*
X89628133Y-75893538D01*
X89628124Y-75893533D01*
X89509744Y-75844499D01*
X89509738Y-75844497D01*
X89384071Y-75819500D01*
X89384069Y-75819500D01*
X89255931Y-75819500D01*
X89255929Y-75819500D01*
X89130261Y-75844497D01*
X89130255Y-75844499D01*
X89011875Y-75893533D01*
X89011866Y-75893538D01*
X88905331Y-75964723D01*
X88905327Y-75964726D01*
X88814726Y-76055327D01*
X88814723Y-76055331D01*
X88743538Y-76161866D01*
X88743533Y-76161875D01*
X88694499Y-76280255D01*
X88694497Y-76280261D01*
X88669500Y-76405928D01*
X88669500Y-76405931D01*
X88669500Y-77134069D01*
X88669500Y-77134071D01*
X88669499Y-77134071D01*
X88694497Y-77259738D01*
X88694499Y-77259744D01*
X88743533Y-77378124D01*
X88743538Y-77378133D01*
X88814723Y-77484668D01*
X88814726Y-77484672D01*
X88905327Y-77575273D01*
X88905331Y-77575276D01*
X89011866Y-77646461D01*
X89011875Y-77646466D01*
X89026585Y-77652559D01*
X89130256Y-77695501D01*
X89225005Y-77714348D01*
X89286916Y-77746732D01*
X89321490Y-77807448D01*
X89320091Y-77869863D01*
X89302438Y-77931979D01*
X89302435Y-77931988D01*
X89302428Y-77935569D01*
X89302328Y-77936588D01*
X89302328Y-77987768D01*
X89302323Y-78040617D01*
X89302328Y-78040664D01*
X89302328Y-78797044D01*
X89300801Y-78816442D01*
X89290741Y-78879957D01*
X89278753Y-78916853D01*
X89254040Y-78965356D01*
X89231239Y-78996741D01*
X89192753Y-79035229D01*
X89161370Y-79058032D01*
X89112871Y-79082747D01*
X89075975Y-79094737D01*
X89037104Y-79100895D01*
X89012637Y-79104772D01*
X88993234Y-79106300D01*
X81006944Y-79106300D01*
X80987540Y-79104772D01*
X80924033Y-79094710D01*
X80887139Y-79082720D01*
X80838689Y-79058032D01*
X80838648Y-79058011D01*
X80807264Y-79035208D01*
X80768780Y-78996722D01*
X80745978Y-78965335D01*
X80721277Y-78916853D01*
X80721270Y-78916840D01*
X80709286Y-78879957D01*
X80699197Y-78816255D01*
X80697672Y-78796865D01*
X80697672Y-78040664D01*
X80697676Y-78040618D01*
X80697676Y-78039156D01*
X80697803Y-78038722D01*
X80697672Y-77970032D01*
X80697672Y-77936260D01*
X80697605Y-77935602D01*
X80697599Y-77931983D01*
X80680445Y-77871625D01*
X80679943Y-77869859D01*
X80680550Y-77799992D01*
X80718833Y-77741544D01*
X80775027Y-77714342D01*
X80806997Y-77707982D01*
X80869744Y-77695501D01*
X80988127Y-77646465D01*
X81094669Y-77575276D01*
X81185276Y-77484669D01*
X81256465Y-77378127D01*
X81305501Y-77259744D01*
X81325378Y-77159818D01*
X81330500Y-77134071D01*
X81330500Y-76637500D01*
X83594867Y-76637500D01*
X83613302Y-76765725D01*
X83649060Y-76844023D01*
X83667118Y-76883563D01*
X83751951Y-76981467D01*
X83860931Y-77051504D01*
X83985225Y-77087999D01*
X83985227Y-77088000D01*
X83985228Y-77088000D01*
X84114773Y-77088000D01*
X84114773Y-77087999D01*
X84239069Y-77051504D01*
X84348049Y-76981467D01*
X84432882Y-76883563D01*
X84486697Y-76765726D01*
X84505133Y-76637500D01*
X84486697Y-76509274D01*
X84432882Y-76391437D01*
X84348049Y-76293533D01*
X84239069Y-76223496D01*
X84239065Y-76223494D01*
X84239064Y-76223494D01*
X84114774Y-76187000D01*
X84114772Y-76187000D01*
X83985228Y-76187000D01*
X83985226Y-76187000D01*
X83860935Y-76223494D01*
X83860932Y-76223495D01*
X83860931Y-76223496D01*
X83809677Y-76256434D01*
X83751950Y-76293533D01*
X83667118Y-76391437D01*
X83667117Y-76391438D01*
X83613302Y-76509274D01*
X83594867Y-76637500D01*
X81330500Y-76637500D01*
X81330500Y-76405928D01*
X81305502Y-76280261D01*
X81305501Y-76280260D01*
X81305501Y-76280256D01*
X81256465Y-76161873D01*
X81256464Y-76161872D01*
X81256461Y-76161866D01*
X81185276Y-76055331D01*
X81185273Y-76055327D01*
X81094672Y-75964726D01*
X81094668Y-75964723D01*
X80988133Y-75893538D01*
X80988124Y-75893533D01*
X80869744Y-75844499D01*
X80869738Y-75844497D01*
X80744071Y-75819500D01*
X80744069Y-75819500D01*
X80615931Y-75819500D01*
X80615929Y-75819500D01*
X80490261Y-75844497D01*
X80490255Y-75844499D01*
X80371875Y-75893533D01*
X80371866Y-75893538D01*
X80265331Y-75964723D01*
X80265327Y-75964726D01*
X80174726Y-76055327D01*
X80174723Y-76055331D01*
X80103538Y-76161866D01*
X80103533Y-76161875D01*
X80054499Y-76280255D01*
X80054497Y-76280261D01*
X80029500Y-76405928D01*
X80029500Y-76946612D01*
X80009815Y-77013651D01*
X79957011Y-77059406D01*
X79887853Y-77069350D01*
X79855462Y-77060068D01*
X79725291Y-77002657D01*
X79456295Y-76884018D01*
X79451550Y-76881803D01*
X79078034Y-76697688D01*
X78955359Y-76637218D01*
X78950673Y-76634783D01*
X78465344Y-76369293D01*
X78460766Y-76366660D01*
X78354474Y-76302489D01*
X77987179Y-76080745D01*
X77982769Y-76077952D01*
X77540347Y-75784447D01*
X77521784Y-75772132D01*
X77517447Y-75769120D01*
X77142865Y-75496962D01*
X77134949Y-75486696D01*
X77134433Y-75487293D01*
X76973955Y-75348213D01*
X76299909Y-74764039D01*
X76296450Y-74760925D01*
X76221803Y-74691094D01*
X75753053Y-74252585D01*
X75747392Y-74246935D01*
X75667655Y-74162054D01*
X75249068Y-73716461D01*
X75203979Y-73668463D01*
X75200363Y-73664441D01*
X74804231Y-73204071D01*
X80029499Y-73204071D01*
X80054497Y-73329738D01*
X80054499Y-73329744D01*
X80103533Y-73448124D01*
X80103538Y-73448133D01*
X80174723Y-73554668D01*
X80174726Y-73554672D01*
X80265327Y-73645273D01*
X80265331Y-73645276D01*
X80371866Y-73716461D01*
X80371872Y-73716464D01*
X80371873Y-73716465D01*
X80490256Y-73765501D01*
X80490260Y-73765501D01*
X80490261Y-73765502D01*
X80615928Y-73790500D01*
X80615931Y-73790500D01*
X80744071Y-73790500D01*
X80828615Y-73773682D01*
X80869744Y-73765501D01*
X80988127Y-73716465D01*
X81094669Y-73645276D01*
X81185276Y-73554669D01*
X81256465Y-73448127D01*
X81305501Y-73329744D01*
X81319392Y-73259910D01*
X81330500Y-73204071D01*
X81330500Y-73022133D01*
X81594500Y-73022133D01*
X81594500Y-73157867D01*
X81606650Y-73203209D01*
X81629632Y-73288978D01*
X81697495Y-73406520D01*
X81697497Y-73406522D01*
X81697498Y-73406524D01*
X81793476Y-73502502D01*
X81793477Y-73502503D01*
X81793479Y-73502504D01*
X81911021Y-73570367D01*
X81911022Y-73570367D01*
X81911025Y-73570369D01*
X82042133Y-73605500D01*
X82042135Y-73605500D01*
X82177865Y-73605500D01*
X82177867Y-73605500D01*
X82308975Y-73570369D01*
X82426524Y-73502502D01*
X82522502Y-73406524D01*
X82590369Y-73288975D01*
X82625500Y-73157867D01*
X82625500Y-73022133D01*
X87374500Y-73022133D01*
X87374500Y-73157867D01*
X87386650Y-73203209D01*
X87409632Y-73288978D01*
X87477495Y-73406520D01*
X87477497Y-73406522D01*
X87477498Y-73406524D01*
X87573476Y-73502502D01*
X87573477Y-73502503D01*
X87573479Y-73502504D01*
X87691021Y-73570367D01*
X87691022Y-73570367D01*
X87691025Y-73570369D01*
X87822133Y-73605500D01*
X87822135Y-73605500D01*
X87957865Y-73605500D01*
X87957867Y-73605500D01*
X88088975Y-73570369D01*
X88206524Y-73502502D01*
X88302502Y-73406524D01*
X88370369Y-73288975D01*
X88393119Y-73204071D01*
X88669499Y-73204071D01*
X88694497Y-73329738D01*
X88694499Y-73329744D01*
X88743533Y-73448124D01*
X88743538Y-73448133D01*
X88814723Y-73554668D01*
X88814726Y-73554672D01*
X88905327Y-73645273D01*
X88905331Y-73645276D01*
X89011866Y-73716461D01*
X89011872Y-73716464D01*
X89011873Y-73716465D01*
X89130256Y-73765501D01*
X89130260Y-73765501D01*
X89130261Y-73765502D01*
X89255928Y-73790500D01*
X89255931Y-73790500D01*
X89384071Y-73790500D01*
X89468615Y-73773682D01*
X89509744Y-73765501D01*
X89628127Y-73716465D01*
X89734669Y-73645276D01*
X89825276Y-73554669D01*
X89896465Y-73448127D01*
X89945501Y-73329744D01*
X89959392Y-73259910D01*
X89970500Y-73204071D01*
X89970500Y-71975928D01*
X89945502Y-71850261D01*
X89945501Y-71850260D01*
X89945501Y-71850256D01*
X89896465Y-71731873D01*
X89896464Y-71731872D01*
X89896461Y-71731866D01*
X89825276Y-71625331D01*
X89825273Y-71625327D01*
X89734672Y-71534726D01*
X89734668Y-71534723D01*
X89628133Y-71463538D01*
X89628124Y-71463533D01*
X89509744Y-71414499D01*
X89509738Y-71414497D01*
X89384071Y-71389500D01*
X89384069Y-71389500D01*
X89255931Y-71389500D01*
X89255929Y-71389500D01*
X89130261Y-71414497D01*
X89130255Y-71414499D01*
X89011875Y-71463533D01*
X89011866Y-71463538D01*
X88905331Y-71534723D01*
X88905327Y-71534726D01*
X88814726Y-71625327D01*
X88814723Y-71625331D01*
X88743538Y-71731866D01*
X88743533Y-71731875D01*
X88694499Y-71850255D01*
X88694497Y-71850261D01*
X88669500Y-71975928D01*
X88669500Y-71975931D01*
X88669500Y-73204069D01*
X88669500Y-73204071D01*
X88669499Y-73204071D01*
X88393119Y-73204071D01*
X88405500Y-73157867D01*
X88405500Y-73022133D01*
X88370369Y-72891025D01*
X88358317Y-72870151D01*
X88302504Y-72773479D01*
X88302499Y-72773473D01*
X88206526Y-72677500D01*
X88206520Y-72677495D01*
X88088978Y-72609632D01*
X88088979Y-72609632D01*
X88073484Y-72605480D01*
X87957867Y-72574500D01*
X87822133Y-72574500D01*
X87822132Y-72574500D01*
X87735455Y-72597725D01*
X87671118Y-72596193D01*
X87628172Y-72645756D01*
X87623134Y-72648827D01*
X87573479Y-72677496D01*
X87573473Y-72677500D01*
X87477500Y-72773473D01*
X87477495Y-72773479D01*
X87409632Y-72891021D01*
X87409631Y-72891025D01*
X87374500Y-73022133D01*
X82625500Y-73022133D01*
X82590369Y-72891025D01*
X82578317Y-72870151D01*
X82522504Y-72773479D01*
X82522499Y-72773473D01*
X82426526Y-72677500D01*
X82426524Y-72677498D01*
X82376865Y-72648827D01*
X82328651Y-72598260D01*
X82328401Y-72596964D01*
X82264544Y-72597725D01*
X82177867Y-72574500D01*
X82042133Y-72574500D01*
X81926515Y-72605480D01*
X81911021Y-72609632D01*
X81793479Y-72677495D01*
X81793473Y-72677500D01*
X81697500Y-72773473D01*
X81697495Y-72773479D01*
X81629632Y-72891021D01*
X81629631Y-72891025D01*
X81594500Y-73022133D01*
X81330500Y-73022133D01*
X81330500Y-71990000D01*
X82144867Y-71990000D01*
X82163302Y-72118225D01*
X82200648Y-72200000D01*
X82217118Y-72236063D01*
X82301951Y-72333967D01*
X82363675Y-72373635D01*
X82407179Y-72423838D01*
X82468102Y-72420937D01*
X82473802Y-72422464D01*
X82535227Y-72440500D01*
X82535228Y-72440500D01*
X82664773Y-72440500D01*
X82664773Y-72440499D01*
X82789069Y-72404004D01*
X82898049Y-72333967D01*
X82982882Y-72236063D01*
X83036697Y-72118226D01*
X83055133Y-71990000D01*
X86944867Y-71990000D01*
X86963302Y-72118225D01*
X87000648Y-72200000D01*
X87017118Y-72236063D01*
X87101951Y-72333967D01*
X87210931Y-72404004D01*
X87335225Y-72440499D01*
X87335227Y-72440500D01*
X87335228Y-72440500D01*
X87464771Y-72440500D01*
X87464772Y-72440500D01*
X87526198Y-72422464D01*
X87592983Y-72422464D01*
X87636319Y-72373637D01*
X87698049Y-72333967D01*
X87782882Y-72236063D01*
X87836697Y-72118226D01*
X87855133Y-71990000D01*
X87836697Y-71861774D01*
X87782882Y-71743937D01*
X87698049Y-71646033D01*
X87589069Y-71575996D01*
X87589065Y-71575994D01*
X87589064Y-71575994D01*
X87464774Y-71539500D01*
X87464772Y-71539500D01*
X87335228Y-71539500D01*
X87335226Y-71539500D01*
X87210935Y-71575994D01*
X87210932Y-71575995D01*
X87210931Y-71575996D01*
X87159677Y-71608934D01*
X87101950Y-71646033D01*
X87017118Y-71743937D01*
X87017117Y-71743938D01*
X86963302Y-71861774D01*
X86944867Y-71990000D01*
X83055133Y-71990000D01*
X83036697Y-71861774D01*
X82982882Y-71743937D01*
X82898049Y-71646033D01*
X82789069Y-71575996D01*
X82789065Y-71575994D01*
X82789064Y-71575994D01*
X82664774Y-71539500D01*
X82664772Y-71539500D01*
X82535228Y-71539500D01*
X82535226Y-71539500D01*
X82410935Y-71575994D01*
X82410932Y-71575995D01*
X82410931Y-71575996D01*
X82359677Y-71608934D01*
X82301950Y-71646033D01*
X82217118Y-71743937D01*
X82217117Y-71743938D01*
X82163302Y-71861774D01*
X82144867Y-71990000D01*
X81330500Y-71990000D01*
X81330500Y-71975928D01*
X81305502Y-71850261D01*
X81305501Y-71850260D01*
X81305501Y-71850256D01*
X81256465Y-71731873D01*
X81256464Y-71731872D01*
X81256461Y-71731866D01*
X81185276Y-71625331D01*
X81185273Y-71625327D01*
X81094672Y-71534726D01*
X81094668Y-71534723D01*
X80988133Y-71463538D01*
X80988124Y-71463533D01*
X80869744Y-71414499D01*
X80869738Y-71414497D01*
X80744071Y-71389500D01*
X80744069Y-71389500D01*
X80615931Y-71389500D01*
X80615929Y-71389500D01*
X80490261Y-71414497D01*
X80490255Y-71414499D01*
X80371875Y-71463533D01*
X80371866Y-71463538D01*
X80265331Y-71534723D01*
X80265327Y-71534726D01*
X80174726Y-71625327D01*
X80174723Y-71625331D01*
X80103538Y-71731866D01*
X80103533Y-71731875D01*
X80054499Y-71850255D01*
X80054497Y-71850261D01*
X80029500Y-71975928D01*
X80029500Y-71975931D01*
X80029500Y-73204069D01*
X80029500Y-73204071D01*
X80029499Y-73204071D01*
X74804231Y-73204071D01*
X74516904Y-72870151D01*
X74503343Y-72856792D01*
X74161888Y-72382220D01*
X74158270Y-72376904D01*
X74044450Y-72200000D01*
X78344867Y-72200000D01*
X78363302Y-72328225D01*
X78406968Y-72423838D01*
X78417118Y-72446063D01*
X78501951Y-72543967D01*
X78610931Y-72614004D01*
X78729534Y-72648828D01*
X78735225Y-72650499D01*
X78735227Y-72650500D01*
X78735228Y-72650500D01*
X78864773Y-72650500D01*
X78864773Y-72650499D01*
X78989069Y-72614004D01*
X79098049Y-72543967D01*
X79182882Y-72446063D01*
X79236697Y-72328226D01*
X79255133Y-72200000D01*
X79236697Y-72071774D01*
X79182882Y-71953937D01*
X79098049Y-71856033D01*
X78989069Y-71785996D01*
X78989065Y-71785994D01*
X78989064Y-71785994D01*
X78864774Y-71749500D01*
X78864772Y-71749500D01*
X78735228Y-71749500D01*
X78735226Y-71749500D01*
X78610935Y-71785994D01*
X78610932Y-71785995D01*
X78610931Y-71785996D01*
X78583335Y-71803731D01*
X78501950Y-71856033D01*
X78417118Y-71953937D01*
X78417117Y-71953938D01*
X78363302Y-72071774D01*
X78344867Y-72200000D01*
X74044450Y-72200000D01*
X73961949Y-72071774D01*
X73793034Y-71809239D01*
X73789689Y-71803731D01*
X73470574Y-71246062D01*
X73454430Y-71217850D01*
X73451378Y-71212179D01*
X73408967Y-71128225D01*
X73344191Y-71000000D01*
X75879867Y-71000000D01*
X75898302Y-71128225D01*
X75936644Y-71212180D01*
X75952118Y-71246063D01*
X76036951Y-71343967D01*
X76145931Y-71414004D01*
X76147617Y-71414499D01*
X76270225Y-71450499D01*
X76270227Y-71450500D01*
X76270228Y-71450500D01*
X76399773Y-71450500D01*
X76399773Y-71450499D01*
X76524069Y-71414004D01*
X76633049Y-71343967D01*
X76717882Y-71246063D01*
X76771697Y-71128226D01*
X76790133Y-71000000D01*
X76771697Y-70871774D01*
X76717882Y-70753937D01*
X76633049Y-70656033D01*
X76524069Y-70585996D01*
X76524065Y-70585994D01*
X76524064Y-70585994D01*
X76399774Y-70549500D01*
X76399772Y-70549500D01*
X76270228Y-70549500D01*
X76270226Y-70549500D01*
X76145935Y-70585994D01*
X76145932Y-70585995D01*
X76145931Y-70585996D01*
X76113558Y-70606801D01*
X76036950Y-70656033D01*
X75952118Y-70753937D01*
X75952117Y-70753938D01*
X75898302Y-70871774D01*
X75879867Y-71000000D01*
X73344191Y-71000000D01*
X73147003Y-70609663D01*
X73144260Y-70603863D01*
X72871587Y-69986328D01*
X72869151Y-69980397D01*
X72628939Y-69349561D01*
X72626805Y-69343487D01*
X72552824Y-69114004D01*
X72419682Y-68701008D01*
X72419386Y-68700000D01*
X87044867Y-68700000D01*
X87063302Y-68828225D01*
X87100020Y-68908624D01*
X87117118Y-68946063D01*
X87201951Y-69043967D01*
X87310931Y-69114004D01*
X87435225Y-69150499D01*
X87435227Y-69150500D01*
X87435228Y-69150500D01*
X87564773Y-69150500D01*
X87564773Y-69150499D01*
X87689069Y-69114004D01*
X87710860Y-69100000D01*
X88344867Y-69100000D01*
X88363302Y-69228225D01*
X88417117Y-69346061D01*
X88417118Y-69346063D01*
X88501951Y-69443967D01*
X88610931Y-69514004D01*
X88735225Y-69550499D01*
X88735227Y-69550500D01*
X88735228Y-69550500D01*
X88864773Y-69550500D01*
X88864773Y-69550499D01*
X88989069Y-69514004D01*
X89098049Y-69443967D01*
X89182882Y-69346063D01*
X89236697Y-69228226D01*
X89255133Y-69100000D01*
X89236697Y-68971774D01*
X89207858Y-68908627D01*
X89185941Y-68860635D01*
X89175997Y-68791476D01*
X89205022Y-68727921D01*
X89231693Y-68704809D01*
X89298049Y-68662166D01*
X89326924Y-68628842D01*
X93659500Y-68628842D01*
X93659500Y-68771158D01*
X93696334Y-68908623D01*
X93696334Y-68908624D01*
X93696335Y-68908627D01*
X93767489Y-69031871D01*
X93767491Y-69031874D01*
X93767492Y-69031875D01*
X93868125Y-69132508D01*
X93868126Y-69132509D01*
X93868128Y-69132510D01*
X93899288Y-69150500D01*
X93991375Y-69203666D01*
X94027512Y-69213349D01*
X94087171Y-69249713D01*
X94117700Y-69312560D01*
X94114394Y-69368059D01*
X94113302Y-69371775D01*
X94094867Y-69500000D01*
X94113302Y-69628225D01*
X94167117Y-69746061D01*
X94167118Y-69746063D01*
X94251951Y-69843967D01*
X94360931Y-69914004D01*
X94485225Y-69950499D01*
X94485227Y-69950500D01*
X94485228Y-69950500D01*
X94614773Y-69950500D01*
X94614773Y-69950499D01*
X94739069Y-69914004D01*
X94848049Y-69843967D01*
X94932882Y-69746063D01*
X94986697Y-69628226D01*
X95005133Y-69500000D01*
X94986697Y-69371774D01*
X94932882Y-69253937D01*
X94848049Y-69156033D01*
X94739069Y-69085996D01*
X94739068Y-69085995D01*
X94738020Y-69085322D01*
X94692265Y-69032518D01*
X94682321Y-68963359D01*
X94697671Y-68919008D01*
X94703666Y-68908625D01*
X94740500Y-68771158D01*
X94740500Y-68628842D01*
X95459500Y-68628842D01*
X95459500Y-68771158D01*
X95496334Y-68908623D01*
X95496334Y-68908624D01*
X95496335Y-68908627D01*
X95567489Y-69031871D01*
X95567491Y-69031874D01*
X95567492Y-69031875D01*
X95668125Y-69132508D01*
X95668126Y-69132509D01*
X95668128Y-69132510D01*
X95699288Y-69150500D01*
X95791375Y-69203666D01*
X95928842Y-69240500D01*
X95928844Y-69240500D01*
X96071156Y-69240500D01*
X96071158Y-69240500D01*
X96208625Y-69203666D01*
X96331875Y-69132508D01*
X96432508Y-69031875D01*
X96503666Y-68908625D01*
X96540500Y-68771158D01*
X96540500Y-68628842D01*
X96503666Y-68491375D01*
X96432508Y-68368125D01*
X96331875Y-68267492D01*
X96331874Y-68267491D01*
X96331871Y-68267489D01*
X96208627Y-68196335D01*
X96208626Y-68196334D01*
X96208625Y-68196334D01*
X96071158Y-68159500D01*
X95928842Y-68159500D01*
X95791375Y-68196334D01*
X95791372Y-68196335D01*
X95668128Y-68267489D01*
X95668123Y-68267493D01*
X95567493Y-68368123D01*
X95567489Y-68368128D01*
X95496335Y-68491372D01*
X95496334Y-68491375D01*
X95459500Y-68628842D01*
X94740500Y-68628842D01*
X94703666Y-68491375D01*
X94632508Y-68368125D01*
X94531875Y-68267492D01*
X94531874Y-68267491D01*
X94531871Y-68267489D01*
X94408627Y-68196335D01*
X94408626Y-68196334D01*
X94408625Y-68196334D01*
X94271158Y-68159500D01*
X94128842Y-68159500D01*
X93991375Y-68196334D01*
X93991372Y-68196335D01*
X93868128Y-68267489D01*
X93868123Y-68267493D01*
X93767493Y-68368123D01*
X93767489Y-68368128D01*
X93696335Y-68491372D01*
X93696334Y-68491375D01*
X93659500Y-68628842D01*
X89326924Y-68628842D01*
X89382882Y-68564262D01*
X89436697Y-68446425D01*
X89455133Y-68318199D01*
X89436697Y-68189973D01*
X89382882Y-68072136D01*
X89298049Y-67974232D01*
X89189069Y-67904195D01*
X89189065Y-67904193D01*
X89189064Y-67904193D01*
X89064774Y-67867699D01*
X89064772Y-67867699D01*
X88935228Y-67867699D01*
X88935226Y-67867699D01*
X88810935Y-67904193D01*
X88810932Y-67904194D01*
X88810931Y-67904195D01*
X88759677Y-67937133D01*
X88701950Y-67974232D01*
X88617118Y-68072136D01*
X88617117Y-68072137D01*
X88563302Y-68189973D01*
X88544867Y-68318199D01*
X88563302Y-68446425D01*
X88563303Y-68446426D01*
X88614058Y-68557564D01*
X88624002Y-68626722D01*
X88594977Y-68690278D01*
X88568304Y-68713390D01*
X88501951Y-68756032D01*
X88417118Y-68853937D01*
X88417117Y-68853938D01*
X88363302Y-68971774D01*
X88344867Y-69100000D01*
X87710860Y-69100000D01*
X87798049Y-69043967D01*
X87882882Y-68946063D01*
X87936697Y-68828226D01*
X87955133Y-68700000D01*
X87936697Y-68571774D01*
X87882882Y-68453937D01*
X87798049Y-68356033D01*
X87689069Y-68285996D01*
X87689065Y-68285994D01*
X87689064Y-68285994D01*
X87564774Y-68249500D01*
X87564772Y-68249500D01*
X87435228Y-68249500D01*
X87435226Y-68249500D01*
X87310935Y-68285994D01*
X87310932Y-68285995D01*
X87310931Y-68285996D01*
X87260822Y-68318199D01*
X87201950Y-68356033D01*
X87117118Y-68453937D01*
X87117117Y-68453938D01*
X87063302Y-68571774D01*
X87044867Y-68700000D01*
X72419386Y-68700000D01*
X72417870Y-68694840D01*
X72415518Y-68685996D01*
X72285317Y-68196334D01*
X72244407Y-68042479D01*
X72242914Y-68036211D01*
X72108696Y-67400000D01*
X78644867Y-67400000D01*
X78663302Y-67528225D01*
X78673475Y-67550500D01*
X78717118Y-67646063D01*
X78765115Y-67701455D01*
X78780142Y-67718798D01*
X78809166Y-67782354D01*
X78799222Y-67851513D01*
X78780142Y-67881202D01*
X78717118Y-67953937D01*
X78717117Y-67953938D01*
X78663302Y-68071774D01*
X78644867Y-68200000D01*
X78663302Y-68328225D01*
X78717117Y-68446061D01*
X78717118Y-68446063D01*
X78801951Y-68543967D01*
X78910931Y-68614004D01*
X78954246Y-68626722D01*
X79035225Y-68650499D01*
X79035227Y-68650500D01*
X79035228Y-68650500D01*
X79164773Y-68650500D01*
X79164773Y-68650499D01*
X79289069Y-68614004D01*
X79398049Y-68543967D01*
X79482882Y-68446063D01*
X79536697Y-68328226D01*
X79555133Y-68200000D01*
X79536697Y-68071774D01*
X79482882Y-67953937D01*
X79482880Y-67953935D01*
X79482879Y-67953932D01*
X79419858Y-67881202D01*
X79390833Y-67817647D01*
X79400777Y-67748488D01*
X79419858Y-67718798D01*
X79482879Y-67646067D01*
X79482879Y-67646065D01*
X79482882Y-67646063D01*
X79536697Y-67528226D01*
X79555133Y-67400000D01*
X79536697Y-67271774D01*
X79482882Y-67153937D01*
X79436146Y-67100000D01*
X91544867Y-67100000D01*
X91563302Y-67228225D01*
X91583191Y-67271774D01*
X91617118Y-67346063D01*
X91701951Y-67443967D01*
X91810931Y-67514004D01*
X91859368Y-67528226D01*
X91935225Y-67550499D01*
X91935227Y-67550500D01*
X91935228Y-67550500D01*
X92064773Y-67550500D01*
X92064773Y-67550499D01*
X92189069Y-67514004D01*
X92298049Y-67443967D01*
X92382882Y-67346063D01*
X92436697Y-67228226D01*
X92455133Y-67100000D01*
X92436697Y-66971774D01*
X92382882Y-66853937D01*
X92298049Y-66756033D01*
X92189069Y-66685996D01*
X92189065Y-66685994D01*
X92189064Y-66685994D01*
X92064774Y-66649500D01*
X92064772Y-66649500D01*
X91935228Y-66649500D01*
X91935226Y-66649500D01*
X91810935Y-66685994D01*
X91810932Y-66685995D01*
X91810931Y-66685996D01*
X91785126Y-66702580D01*
X91701950Y-66756033D01*
X91617118Y-66853937D01*
X91617117Y-66853938D01*
X91563302Y-66971774D01*
X91544867Y-67100000D01*
X79436146Y-67100000D01*
X79398049Y-67056033D01*
X79289069Y-66985996D01*
X79289065Y-66985994D01*
X79289064Y-66985994D01*
X79164774Y-66949500D01*
X79164772Y-66949500D01*
X79035228Y-66949500D01*
X79035226Y-66949500D01*
X78910935Y-66985994D01*
X78910932Y-66985995D01*
X78910931Y-66985996D01*
X78859677Y-67018934D01*
X78801950Y-67056033D01*
X78717118Y-67153937D01*
X78717117Y-67153938D01*
X78663302Y-67271774D01*
X78644867Y-67400000D01*
X72108696Y-67400000D01*
X72103580Y-67375749D01*
X72102414Y-67369412D01*
X71997575Y-66702579D01*
X71996740Y-66696189D01*
X71926682Y-66024803D01*
X71926183Y-66018413D01*
X71891097Y-65344264D01*
X71890930Y-65337892D01*
X71890920Y-64928842D01*
X73859500Y-64928842D01*
X73859500Y-65071158D01*
X73879571Y-65146062D01*
X73896334Y-65208624D01*
X73896335Y-65208627D01*
X73967489Y-65331871D01*
X73967491Y-65331874D01*
X73967492Y-65331875D01*
X74068125Y-65432508D01*
X74068126Y-65432509D01*
X74068128Y-65432510D01*
X74099288Y-65450500D01*
X74191375Y-65503666D01*
X74328842Y-65540500D01*
X74328844Y-65540500D01*
X74471156Y-65540500D01*
X74471158Y-65540500D01*
X74608625Y-65503666D01*
X74731875Y-65432508D01*
X74832508Y-65331875D01*
X74903666Y-65208625D01*
X74940500Y-65071158D01*
X74940500Y-64928842D01*
X75659500Y-64928842D01*
X75659500Y-65071158D01*
X75679571Y-65146062D01*
X75696334Y-65208624D01*
X75696335Y-65208627D01*
X75767489Y-65331871D01*
X75767491Y-65331874D01*
X75767492Y-65331875D01*
X75868125Y-65432508D01*
X75868126Y-65432509D01*
X75868128Y-65432510D01*
X75899288Y-65450500D01*
X75991375Y-65503666D01*
X76128842Y-65540500D01*
X76128844Y-65540500D01*
X76271156Y-65540500D01*
X76271158Y-65540500D01*
X76408625Y-65503666D01*
X76531875Y-65432508D01*
X76632508Y-65331875D01*
X76703666Y-65208625D01*
X76740500Y-65071158D01*
X76740500Y-65000000D01*
X80144867Y-65000000D01*
X80163302Y-65128225D01*
X80171449Y-65146063D01*
X80217118Y-65246063D01*
X80301951Y-65343967D01*
X80410931Y-65414004D01*
X80535225Y-65450499D01*
X80535227Y-65450500D01*
X80535228Y-65450500D01*
X80664773Y-65450500D01*
X80664773Y-65450499D01*
X80789069Y-65414004D01*
X80898049Y-65343967D01*
X80982882Y-65246063D01*
X81036697Y-65128226D01*
X81055133Y-65000000D01*
X81040755Y-64900000D01*
X93844867Y-64900000D01*
X93863302Y-65028225D01*
X93908972Y-65128226D01*
X93917118Y-65146063D01*
X94001951Y-65243967D01*
X94110931Y-65314004D01*
X94235225Y-65350499D01*
X94235227Y-65350500D01*
X94235228Y-65350500D01*
X94364773Y-65350500D01*
X94364773Y-65350499D01*
X94489069Y-65314004D01*
X94598049Y-65243967D01*
X94682882Y-65146063D01*
X94736697Y-65028226D01*
X94755133Y-64900000D01*
X94736697Y-64771774D01*
X94682882Y-64653937D01*
X94598049Y-64556033D01*
X94489069Y-64485996D01*
X94489065Y-64485994D01*
X94489064Y-64485994D01*
X94364774Y-64449500D01*
X94364772Y-64449500D01*
X94235228Y-64449500D01*
X94235226Y-64449500D01*
X94110935Y-64485994D01*
X94110932Y-64485995D01*
X94110931Y-64485996D01*
X94059677Y-64518934D01*
X94001950Y-64556033D01*
X93917118Y-64653937D01*
X93917117Y-64653938D01*
X93863302Y-64771774D01*
X93844867Y-64900000D01*
X81040755Y-64900000D01*
X81036697Y-64871774D01*
X80982882Y-64753937D01*
X80898049Y-64656033D01*
X80789069Y-64585996D01*
X80789065Y-64585994D01*
X80789064Y-64585994D01*
X80664774Y-64549500D01*
X80664772Y-64549500D01*
X80535228Y-64549500D01*
X80535226Y-64549500D01*
X80410935Y-64585994D01*
X80410932Y-64585995D01*
X80410931Y-64585996D01*
X80359677Y-64618934D01*
X80301950Y-64656033D01*
X80217118Y-64753937D01*
X80217117Y-64753938D01*
X80163302Y-64871774D01*
X80144867Y-65000000D01*
X76740500Y-65000000D01*
X76740500Y-64928842D01*
X76703666Y-64791375D01*
X76632508Y-64668125D01*
X76531875Y-64567492D01*
X76531874Y-64567491D01*
X76531871Y-64567489D01*
X76408627Y-64496335D01*
X76408626Y-64496334D01*
X76408625Y-64496334D01*
X76271158Y-64459500D01*
X76128842Y-64459500D01*
X75991375Y-64496334D01*
X75991372Y-64496335D01*
X75868128Y-64567489D01*
X75868123Y-64567493D01*
X75767493Y-64668123D01*
X75767489Y-64668128D01*
X75696335Y-64791372D01*
X75696334Y-64791375D01*
X75659500Y-64928842D01*
X74940500Y-64928842D01*
X74903666Y-64791375D01*
X74832508Y-64668125D01*
X74731875Y-64567492D01*
X74731874Y-64567491D01*
X74731871Y-64567489D01*
X74608627Y-64496335D01*
X74608626Y-64496334D01*
X74608625Y-64496334D01*
X74471158Y-64459500D01*
X74328842Y-64459500D01*
X74191375Y-64496334D01*
X74191372Y-64496335D01*
X74068128Y-64567489D01*
X74068123Y-64567493D01*
X73967493Y-64668123D01*
X73967489Y-64668128D01*
X73896335Y-64791372D01*
X73896334Y-64791375D01*
X73859500Y-64928842D01*
X71890920Y-64928842D01*
X71890914Y-64662833D01*
X71891081Y-64656396D01*
X71895703Y-64567492D01*
X71926131Y-63982243D01*
X71926307Y-63980000D01*
X81044867Y-63980000D01*
X81063302Y-64108225D01*
X81064113Y-64110000D01*
X81117118Y-64226063D01*
X81201951Y-64323967D01*
X81310931Y-64394004D01*
X81435225Y-64430499D01*
X81435227Y-64430500D01*
X81435228Y-64430500D01*
X81564773Y-64430500D01*
X81564773Y-64430499D01*
X81689069Y-64394004D01*
X81798049Y-64323967D01*
X81882882Y-64226063D01*
X81936697Y-64108226D01*
X81955133Y-63980000D01*
X81936697Y-63851774D01*
X81882882Y-63733937D01*
X81798049Y-63636033D01*
X81689069Y-63565996D01*
X81689065Y-63565994D01*
X81689064Y-63565994D01*
X81564774Y-63529500D01*
X81564772Y-63529500D01*
X81435228Y-63529500D01*
X81435226Y-63529500D01*
X81310935Y-63565994D01*
X81310932Y-63565995D01*
X81310931Y-63565996D01*
X81261709Y-63597629D01*
X81201950Y-63636033D01*
X81117118Y-63733937D01*
X81117117Y-63733938D01*
X81063302Y-63851774D01*
X81044867Y-63980000D01*
X71926307Y-63980000D01*
X71926628Y-63975892D01*
X71996654Y-63304460D01*
X71997487Y-63298090D01*
X72030191Y-63090000D01*
X88044867Y-63090000D01*
X88063302Y-63218225D01*
X88099776Y-63298090D01*
X88117118Y-63336063D01*
X88201951Y-63433967D01*
X88297985Y-63495684D01*
X88343740Y-63548488D01*
X88353684Y-63617647D01*
X88324659Y-63681203D01*
X88297985Y-63704316D01*
X88201950Y-63766033D01*
X88117118Y-63863937D01*
X88117117Y-63863938D01*
X88063302Y-63981774D01*
X88044867Y-64110000D01*
X88063302Y-64238225D01*
X88102460Y-64323967D01*
X88117118Y-64356063D01*
X88201951Y-64453967D01*
X88310931Y-64524004D01*
X88435225Y-64560499D01*
X88435227Y-64560500D01*
X88435228Y-64560500D01*
X88564773Y-64560500D01*
X88564773Y-64560499D01*
X88689069Y-64524004D01*
X88798049Y-64453967D01*
X88882882Y-64356063D01*
X88887206Y-64346595D01*
X88932961Y-64293791D01*
X89000000Y-64274107D01*
X89067040Y-64293792D01*
X89112794Y-64346595D01*
X89117118Y-64356063D01*
X89201951Y-64453967D01*
X89310931Y-64524004D01*
X89435225Y-64560499D01*
X89435227Y-64560500D01*
X89435228Y-64560500D01*
X89564773Y-64560500D01*
X89564773Y-64560499D01*
X89689069Y-64524004D01*
X89798049Y-64453967D01*
X89882882Y-64356063D01*
X89936697Y-64238226D01*
X89955133Y-64110000D01*
X89936697Y-63981774D01*
X89882882Y-63863937D01*
X89798049Y-63766033D01*
X89689069Y-63695996D01*
X89689065Y-63695994D01*
X89689064Y-63695994D01*
X89564774Y-63659500D01*
X89564772Y-63659500D01*
X89435228Y-63659500D01*
X89435226Y-63659500D01*
X89310935Y-63695994D01*
X89310932Y-63695995D01*
X89310931Y-63695996D01*
X89297985Y-63704316D01*
X89201950Y-63766033D01*
X89117118Y-63863937D01*
X89117116Y-63863940D01*
X89112793Y-63873406D01*
X89067037Y-63926209D01*
X88999997Y-63945892D01*
X88932958Y-63926206D01*
X88887207Y-63873406D01*
X88882883Y-63863940D01*
X88882882Y-63863938D01*
X88882882Y-63863937D01*
X88798049Y-63766033D01*
X88702012Y-63704314D01*
X88656259Y-63651512D01*
X88646315Y-63582354D01*
X88675340Y-63518798D01*
X88702010Y-63495687D01*
X88798049Y-63433967D01*
X88882882Y-63336063D01*
X88936697Y-63218226D01*
X88955133Y-63090000D01*
X88948149Y-63041425D01*
X88958093Y-62972268D01*
X89003847Y-62919464D01*
X89070887Y-62899779D01*
X89105821Y-62904801D01*
X89125228Y-62910500D01*
X89254773Y-62910500D01*
X89254773Y-62910499D01*
X89379069Y-62874004D01*
X89488049Y-62803967D01*
X89572882Y-62706063D01*
X89621320Y-62600000D01*
X90444867Y-62600000D01*
X90463302Y-62728225D01*
X90517117Y-62846061D01*
X90517118Y-62846063D01*
X90601951Y-62943967D01*
X90710931Y-63014004D01*
X90804324Y-63041426D01*
X90835225Y-63050499D01*
X90835227Y-63050500D01*
X90835228Y-63050500D01*
X90964773Y-63050500D01*
X90964773Y-63050499D01*
X91089069Y-63014004D01*
X91198049Y-62943967D01*
X91282882Y-62846063D01*
X91336697Y-62728226D01*
X91355133Y-62600000D01*
X91336697Y-62471774D01*
X91282882Y-62353937D01*
X91198049Y-62256033D01*
X91089069Y-62185996D01*
X91089065Y-62185994D01*
X91089064Y-62185994D01*
X90964774Y-62149500D01*
X90964772Y-62149500D01*
X90835228Y-62149500D01*
X90835226Y-62149500D01*
X90710935Y-62185994D01*
X90710932Y-62185995D01*
X90710931Y-62185996D01*
X90673468Y-62210072D01*
X90601950Y-62256033D01*
X90517118Y-62353937D01*
X90517117Y-62353938D01*
X90463302Y-62471774D01*
X90444867Y-62600000D01*
X89621320Y-62600000D01*
X89626697Y-62588226D01*
X89645133Y-62460000D01*
X89626697Y-62331774D01*
X89572882Y-62213937D01*
X89488049Y-62116033D01*
X89379069Y-62045996D01*
X89379065Y-62045994D01*
X89379064Y-62045994D01*
X89254774Y-62009500D01*
X89254772Y-62009500D01*
X89125228Y-62009500D01*
X89125226Y-62009500D01*
X89000935Y-62045994D01*
X89000932Y-62045995D01*
X89000931Y-62045996D01*
X88949677Y-62078934D01*
X88891950Y-62116033D01*
X88807118Y-62213937D01*
X88807117Y-62213938D01*
X88753302Y-62331774D01*
X88734867Y-62460000D01*
X88734867Y-62460002D01*
X88741850Y-62508575D01*
X88731906Y-62577733D01*
X88686150Y-62630536D01*
X88619110Y-62650220D01*
X88584179Y-62645198D01*
X88564772Y-62639500D01*
X88435228Y-62639500D01*
X88435226Y-62639500D01*
X88310935Y-62675994D01*
X88310932Y-62675995D01*
X88310931Y-62675996D01*
X88264149Y-62706061D01*
X88201950Y-62746033D01*
X88117118Y-62843937D01*
X88117117Y-62843938D01*
X88063302Y-62961774D01*
X88044867Y-63090000D01*
X72030191Y-63090000D01*
X72102292Y-62631243D01*
X72103445Y-62624970D01*
X72242764Y-61964412D01*
X72244243Y-61958203D01*
X72417689Y-61305772D01*
X72419481Y-61299673D01*
X72564420Y-60850000D01*
X75894867Y-60850000D01*
X75913302Y-60978225D01*
X75964976Y-61091372D01*
X75967118Y-61096063D01*
X76051951Y-61193967D01*
X76160931Y-61264004D01*
X76285225Y-61300499D01*
X76285227Y-61300500D01*
X76285228Y-61300500D01*
X76414773Y-61300500D01*
X76414773Y-61300499D01*
X76539069Y-61264004D01*
X76593782Y-61228842D01*
X93659500Y-61228842D01*
X93659500Y-61371157D01*
X93696334Y-61508624D01*
X93696335Y-61508627D01*
X93767489Y-61631871D01*
X93767491Y-61631874D01*
X93767492Y-61631875D01*
X93868125Y-61732508D01*
X93991375Y-61803666D01*
X94128842Y-61840500D01*
X94128844Y-61840500D01*
X94271156Y-61840500D01*
X94271158Y-61840500D01*
X94408625Y-61803666D01*
X94531875Y-61732508D01*
X94632508Y-61631875D01*
X94703666Y-61508625D01*
X94740500Y-61371158D01*
X94740500Y-61228842D01*
X95459500Y-61228842D01*
X95459500Y-61371157D01*
X95496334Y-61508624D01*
X95496335Y-61508627D01*
X95567489Y-61631871D01*
X95567491Y-61631874D01*
X95567492Y-61631875D01*
X95668125Y-61732508D01*
X95791375Y-61803666D01*
X95928842Y-61840500D01*
X95928844Y-61840500D01*
X96071156Y-61840500D01*
X96071158Y-61840500D01*
X96208625Y-61803666D01*
X96331875Y-61732508D01*
X96432508Y-61631875D01*
X96503666Y-61508625D01*
X96540500Y-61371158D01*
X96540500Y-61228842D01*
X96503666Y-61091375D01*
X96432508Y-60968125D01*
X96331875Y-60867492D01*
X96331874Y-60867491D01*
X96331871Y-60867489D01*
X96208627Y-60796335D01*
X96208626Y-60796334D01*
X96208625Y-60796334D01*
X96071158Y-60759500D01*
X95928842Y-60759500D01*
X95791375Y-60796334D01*
X95791372Y-60796335D01*
X95668128Y-60867489D01*
X95668123Y-60867493D01*
X95567493Y-60968123D01*
X95567489Y-60968128D01*
X95496335Y-61091372D01*
X95496334Y-61091375D01*
X95459500Y-61228842D01*
X94740500Y-61228842D01*
X94703666Y-61091375D01*
X94632508Y-60968125D01*
X94531875Y-60867492D01*
X94531874Y-60867491D01*
X94531871Y-60867489D01*
X94408627Y-60796335D01*
X94408626Y-60796334D01*
X94408625Y-60796334D01*
X94271158Y-60759500D01*
X94128842Y-60759500D01*
X93991375Y-60796334D01*
X93991372Y-60796335D01*
X93868128Y-60867489D01*
X93868123Y-60867493D01*
X93767493Y-60968123D01*
X93767489Y-60968128D01*
X93696335Y-61091372D01*
X93696334Y-61091375D01*
X93659500Y-61228842D01*
X76593782Y-61228842D01*
X76648049Y-61193967D01*
X76732882Y-61096063D01*
X76786697Y-60978226D01*
X76805133Y-60850000D01*
X76786697Y-60721774D01*
X76732882Y-60603937D01*
X76648049Y-60506033D01*
X76539069Y-60435996D01*
X76539065Y-60435994D01*
X76539064Y-60435994D01*
X76414774Y-60399500D01*
X76414772Y-60399500D01*
X76285228Y-60399500D01*
X76285226Y-60399500D01*
X76160935Y-60435994D01*
X76160932Y-60435995D01*
X76160931Y-60435996D01*
X76109677Y-60468934D01*
X76051950Y-60506033D01*
X75967118Y-60603937D01*
X75967117Y-60603938D01*
X75913302Y-60721774D01*
X75894867Y-60850000D01*
X72564420Y-60850000D01*
X72626582Y-60657144D01*
X72628714Y-60651077D01*
X72646661Y-60603938D01*
X72868897Y-60020221D01*
X72871334Y-60014292D01*
X73143975Y-59396739D01*
X73146709Y-59390959D01*
X73445205Y-58800000D01*
X74394867Y-58800000D01*
X74413302Y-58928225D01*
X74449838Y-59008225D01*
X74467118Y-59046063D01*
X74551951Y-59143967D01*
X74660931Y-59214004D01*
X74694863Y-59223967D01*
X74785225Y-59250499D01*
X74785227Y-59250500D01*
X74785228Y-59250500D01*
X74914773Y-59250500D01*
X74914773Y-59250499D01*
X75039069Y-59214004D01*
X75148049Y-59143967D01*
X75232882Y-59046063D01*
X75286697Y-58928226D01*
X75305133Y-58800000D01*
X76094867Y-58800000D01*
X76113302Y-58928225D01*
X76149838Y-59008225D01*
X76167118Y-59046063D01*
X76251951Y-59143967D01*
X76360931Y-59214004D01*
X76394863Y-59223967D01*
X76485225Y-59250499D01*
X76485227Y-59250500D01*
X76485228Y-59250500D01*
X76614773Y-59250500D01*
X76614773Y-59250499D01*
X76739069Y-59214004D01*
X76848049Y-59143967D01*
X76932882Y-59046063D01*
X76986697Y-58928226D01*
X76993631Y-58880000D01*
X91844867Y-58880000D01*
X91863302Y-59008225D01*
X91917117Y-59126061D01*
X91917118Y-59126063D01*
X92001951Y-59223967D01*
X92110931Y-59294004D01*
X92235225Y-59330499D01*
X92235227Y-59330500D01*
X92235228Y-59330500D01*
X92364773Y-59330500D01*
X92364773Y-59330499D01*
X92489069Y-59294004D01*
X92598049Y-59223967D01*
X92682882Y-59126063D01*
X92736697Y-59008226D01*
X92755133Y-58880000D01*
X92736697Y-58751774D01*
X92682882Y-58633937D01*
X92598049Y-58536033D01*
X92489069Y-58465996D01*
X92489065Y-58465994D01*
X92489064Y-58465994D01*
X92364774Y-58429500D01*
X92364772Y-58429500D01*
X92235228Y-58429500D01*
X92235226Y-58429500D01*
X92110935Y-58465994D01*
X92110932Y-58465995D01*
X92110931Y-58465996D01*
X92059677Y-58498934D01*
X92001950Y-58536033D01*
X91917118Y-58633937D01*
X91917117Y-58633938D01*
X91863302Y-58751774D01*
X91844867Y-58880000D01*
X76993631Y-58880000D01*
X77005133Y-58800000D01*
X76986697Y-58671774D01*
X76932882Y-58553937D01*
X76848049Y-58456033D01*
X76739069Y-58385996D01*
X76739065Y-58385994D01*
X76739064Y-58385994D01*
X76614774Y-58349500D01*
X76614772Y-58349500D01*
X76485228Y-58349500D01*
X76485226Y-58349500D01*
X76360935Y-58385994D01*
X76360932Y-58385995D01*
X76360931Y-58385996D01*
X76309677Y-58418934D01*
X76251950Y-58456033D01*
X76167118Y-58553937D01*
X76167117Y-58553938D01*
X76113302Y-58671774D01*
X76094867Y-58800000D01*
X75305133Y-58800000D01*
X75286697Y-58671774D01*
X75232882Y-58553937D01*
X75148049Y-58456033D01*
X75039069Y-58385996D01*
X75039065Y-58385994D01*
X75039064Y-58385994D01*
X74914774Y-58349500D01*
X74914772Y-58349500D01*
X74785228Y-58349500D01*
X74785226Y-58349500D01*
X74660935Y-58385994D01*
X74660932Y-58385995D01*
X74660931Y-58385996D01*
X74609677Y-58418934D01*
X74551950Y-58456033D01*
X74467118Y-58553937D01*
X74467117Y-58553938D01*
X74413302Y-58671774D01*
X74394867Y-58800000D01*
X73445205Y-58800000D01*
X73451057Y-58788415D01*
X73454107Y-58782751D01*
X73789329Y-58196861D01*
X73792658Y-58191375D01*
X74157904Y-57623631D01*
X74161503Y-57618344D01*
X74503250Y-57143313D01*
X74513633Y-57135229D01*
X74512710Y-57134429D01*
X74548058Y-57093643D01*
X75235986Y-56299879D01*
X75239036Y-56296491D01*
X75747429Y-55753037D01*
X75753046Y-55747410D01*
X76331555Y-55203961D01*
X76335538Y-55200380D01*
X77093643Y-54548058D01*
X77093642Y-54548057D01*
X77129769Y-54516972D01*
X77143219Y-54503317D01*
X77618359Y-54161492D01*
X77623635Y-54157901D01*
X78191373Y-53792661D01*
X78196825Y-53789350D01*
X78782761Y-53454100D01*
X78788417Y-53451056D01*
X79390960Y-53146708D01*
X79396740Y-53143974D01*
X80014328Y-52871317D01*
X80020218Y-52868898D01*
X80651083Y-52628712D01*
X80657141Y-52626583D01*
X81299673Y-52419481D01*
X81305772Y-52417689D01*
X81958204Y-52244243D01*
X81964413Y-52242764D01*
X82624971Y-52103445D01*
X82631244Y-52102292D01*
X83298109Y-51997484D01*
X83304461Y-51996654D01*
X83975893Y-51926628D01*
X83982244Y-51926131D01*
X84656400Y-51891080D01*
X84662834Y-51890914D01*
X85337893Y-51890930D01*
G37*
%TD.AperFunction*%
%TD*%
M02*
