  0
SECTION
  2
HEADER
  9
$ANGBASE
  50
0.0
  9
$ANGDIR
  70
1
  9
$MEASUREMENT
  70
1
  0
ENDSEC
  0
SECTION
  2
TABLES
  0
TABLE
  2
LTYPE
  70
4
  0
LTYPE
  5
40F
  2
CONTINUOUS
  70
0
  3
Solid line
  72
65
  73
0
  40
0.0
  0
LTYPE
  5
410
  2
DASHDOT
 70
0
  3
Dash Dot ____ _ ____ _
 72
65
 73
4
 40
2.0
 49
1.25
 49
-0.25
 49
0.25
 49
-0.25
  0
LTYPE
  5
411
  2
DASHED
 70
0
  3
Dashed __ __ __ __ __
 72
65
 73
2
 40
0.75
 49
0.5
 49
-0.25
  0
LTYPE
  5
43B
  2
DOTTED
 70
0
  3
Dotted .  .  .  .
 72
65
 73
2
 40
0.2
 49
0.0
 49
-0.2
  0
ENDTAB
  0
TABLE
  2
STYLE
  70
4
  0
STYLE
  2
KICAD
  70
0
  40
0
  41
1
  42
1
  50
0
  71
0
  3
isocp.shx
  0
STYLE
  2
KICADB
  70
0
  40
0
  41
1
  42
1
  50
0
  71
0
  3
isocp.shx
  0
STYLE
  2
KICADI
  70
0
  40
0
  41
1
  42
1
  50
15
  71
0
  3
isocp.shx
  0
STYLE
  2
KICADBI
  70
0
  40
0
  41
1
  42
1
  50
15
  71
0
  3
isocp.shx
  0
ENDTAB
  0
TABLE
  2
LAYER
  70
1
  0
LAYER
  2
BLACK
  70
0
  62
7
  6
CONTINUOUS
  0
ENDTAB
  0
ENDSEC
  0
SECTION
  2
ENTITIES
0
ARC
8
BLACK
10
85.
20
-50.
40
15.2830079505328396
50
-217.48046378
51
-142.51953622
0
ARC
8
BLACK
10
50.
20
-50.
40
15.2830079505328396
50
-37.48046378
51
37.48046378
0
LINE
8
BLACK
6
CONTINUOUS
10
31.0999999999999979
20
-31.
11
104.
21
-31.
0
LINE
8
BLACK
6
CONTINUOUS
10
104.
20
-31.
11
104.
21
-69.
0
LINE
8
BLACK
6
CONTINUOUS
10
104.
20
-69.
11
31.0999999999999979
21
-69.
0
LINE
8
BLACK
6
CONTINUOUS
10
31.0999999999999979
20
-69.
11
31.0999999999999979
21
-31.
0
ARC
8
BLACK
10
85.0000299999999953
20
-50.0000479999999996
40
13.3065848749126072
50
-67.42057367
51
-52.77603498
0
LINE
8
BLACK
6
CONTINUOUS
10
89.5
20
-62.9809780000000003
11
89.5
21
-63.7999999999999972
0
ARC
8
BLACK
10
90.2000759999999957
20
-62.5588939999999951
40
0.2869781775710481
50
108.44517678
51
166.42498805
0
ARC
8
BLACK
10
89.7000010000000003
20
-62.9809789999999978
40
0.2000010000025
50
116.56530741
51
179.99971352
0
ARC
8
BLACK
10
89.299989999999994
20
-62.180968
40
0.6944408737351222
50
-63.43461674
51
-26.56538326
0
ARC
8
BLACK
10
85.
20
-50.
40
13.3066412307918629
50
-127.22394285
51
-112.57946624
0
ARC
8
BLACK
10
85.
20
-50.
40
13.3036109870923749
50
-217.22394339
51
-142.77605661
0
ARC
8
BLACK
10
85.
20
-50.
40
15.2830079505328396
50
-127.48046378
51
-52.51953622
0
ARC
8
BLACK
10
85.
20
-50.
40
15.2830079505328396
50
-37.48046378
51
37.48046378
0
ARC
8
BLACK
10
85.
20
-50.
40
13.3036109870923749
50
-37.22394339
51
37.22394339
0
ARC
8
BLACK
10
85.
20
-50.
40
15.2830079505328396
50
52.51953622
51
127.48046378
0
ARC
8
BLACK
10
85.
20
-50.
40
13.3036109870923749
50
52.77605661
51
127.22394339
0
ARC
8
BLACK
10
50.
20
-50.
40
15.2830079505328396
50
-217.48046378
51
-142.51953622
0
ARC
8
BLACK
10
50.
20
-50.
40
13.3036109870923749
50
-217.22394339
51
-142.77605661
0
ARC
8
BLACK
10
50.
20
-50.
40
15.2830079505328396
50
-127.48046378
51
-52.51953622
0
ARC
8
BLACK
10
50.
20
-50.
40
13.3036109870923749
50
-127.22394339
51
-52.77605661
0
ARC
8
BLACK
10
50.
20
-50.
40
13.3036109870923749
50
-37.22394339
51
37.22394339
0
ARC
8
BLACK
10
50.
20
-50.
40
15.2830079505328396
50
52.51953622
51
127.48046378
0
ARC
8
BLACK
10
50.
20
-50.
40
13.3036109870923749
50
52.77605661
51
127.22394339
0
ARC
8
BLACK
10
89.
20
-63.7999999999999972
40
0.5
50
-90.00000000
51
-0.00000000
0
ARC
8
BLACK
10
80.7000000000000028
20
-62.1809779999999961
40
0.6944274573157371
50
-153.43498572
51
-116.56501428
0
ARC
8
BLACK
10
80.2999999999999972
20
-62.9809780000000003
40
0.1999997336848227
50
0.00000000
51
63.43482071
0
LINE
8
BLACK
6
CONTINUOUS
10
81.
20
-64.2999999999999972
11
89.
21
-64.2999999999999972
0
ARC
8
BLACK
10
81.
20
-63.7999999999999972
40
0.5
50
-180.00000000
51
-90.00000000
0
ARC
8
BLACK
10
79.7999999999999972
20
-62.5587779999999967
40
0.2868438824343305
50
13.55605415
51
71.56189292
0
LINE
8
BLACK
6
CONTINUOUS
10
80.5
20
-63.7999999999999972
11
80.5
21
-62.9809780000000003
0
ARC
8
BLACK
10
73.5757859999999937
20
-58.5957859999999968
40
0.9953014901274889
50
-134.99995929
51
33.40777142
0
ARC
8
BLACK
10
76.4042120000000011
20
-61.4242119999999971
40
0.995301584890228
50
-303.40793092
51
-134.99987788
0
ARC
8
BLACK
10
93.5957859999999897
20
-61.4242139999999992
40
0.9953014901274889
50
-44.99995929
51
123.40777142
0
ARC
8
BLACK
10
96.4242119999999971
20
-58.5957879999999989
40
0.995301584890228
50
-213.40793092
51
-44.99987788
0
ARC
8
BLACK
10
96.4242139999999921
20
-41.4042139999999961
40
0.9953014901274889
50
-314.99995929
51
-146.59222858
0
ARC
8
BLACK
10
93.5957879999999989
20
-38.5757879999999957
40
0.995301584890228
50
-123.40793092
51
45.00012212
0
ARC
8
BLACK
10
76.4042139999999961
20
-38.5757860000000008
40
0.9953014901274889
50
-224.99995929
51
-56.59222858
0
ARC
8
BLACK
10
73.5757880000000029
20
-41.4042120000000011
40
0.995301584890228
50
-33.40793092
51
135.00012212
0
ARC
8
BLACK
10
41.4042120000000011
20
-61.4242119999999971
40
0.995301584890228
50
-303.40793092
51
-134.99987788
0
ARC
8
BLACK
10
38.5757860000000008
20
-58.5957859999999968
40
0.9953014901274889
50
-134.99995929
51
33.40777142
0
ARC
8
BLACK
10
61.4242119999999971
20
-58.5957879999999989
40
0.995301584890228
50
-213.40793092
51
-44.99987788
0
ARC
8
BLACK
10
58.5957859999999968
20
-61.4242139999999992
40
0.9953014901274889
50
-44.99995929
51
123.40777142
0
ARC
8
BLACK
10
58.5957879999999989
20
-38.5757879999999957
40
0.995301584890228
50
-123.40793092
51
45.00012212
0
ARC
8
BLACK
10
61.4242139999999992
20
-41.4042139999999961
40
0.9953014901274889
50
-314.99995929
51
-146.59222858
0
ARC
8
BLACK
10
38.5757879999999957
20
-41.4042120000000011
40
0.995301584890228
50
-33.40793092
51
135.00012212
0
ARC
8
BLACK
10
41.4042139999999961
20
-38.5757860000000008
40
0.9953014901274889
50
-224.99995929
51
-56.59222858
0
LINE
8
BLACK
6
CONTINUOUS
10
38.6793399999999963
20
-39.7399999999999949
11
39.1793399999999963
21
-40.2399999999999949
0
LINE
8
BLACK
6
CONTINUOUS
10
39.1793399999999963
20
-39.7399999999999949
11
38.6793399999999963
21
-40.2399999999999949
0
LINE
8
BLACK
6
CONTINUOUS
10
38.6793399999999963
20
-59.759999999999998
11
39.1793399999999963
21
-60.259999999999998
0
LINE
8
BLACK
6
CONTINUOUS
10
39.1793399999999963
20
-59.759999999999998
11
38.6793399999999963
21
-60.259999999999998
0
LINE
8
BLACK
6
CONTINUOUS
10
39.2096699999999956
20
-39.2096699999999956
11
39.7096699999999956
21
-39.7096699999999956
0
LINE
8
BLACK
6
CONTINUOUS
10
39.7096699999999956
20
-39.2096699999999956
11
39.2096699999999956
21
-39.7096699999999956
0
LINE
8
BLACK
6
CONTINUOUS
10
39.2096699999999956
20
-60.2903299999999973
11
39.7096699999999956
21
-60.7903299999999973
0
LINE
8
BLACK
6
CONTINUOUS
10
39.7096699999999956
20
-60.2903299999999973
11
39.2096699999999956
21
-60.7903299999999973
0
LINE
8
BLACK
6
CONTINUOUS
10
39.6692889999999991
20
-40.7299489999999977
11
40.1692889999999991
21
-41.2299489999999977
0
LINE
8
BLACK
6
CONTINUOUS
10
40.1692889999999991
20
-40.7299489999999977
11
39.6692889999999991
21
-41.2299489999999977
0
LINE
8
BLACK
6
CONTINUOUS
10
39.6692889999999991
20
-58.7700509999999952
11
40.1692889999999991
21
-59.2700509999999952
0
LINE
8
BLACK
6
CONTINUOUS
10
40.1692889999999991
20
-58.7700509999999952
11
39.6692889999999991
21
-59.2700509999999952
0
LINE
8
BLACK
6
CONTINUOUS
10
39.7399999999999949
20
-38.6793399999999963
11
40.2399999999999949
21
-39.1793399999999963
0
LINE
8
BLACK
6
CONTINUOUS
10
40.2399999999999949
20
-38.6793399999999963
11
39.7399999999999949
21
-39.1793399999999963
0
LINE
8
BLACK
6
CONTINUOUS
10
39.7399999999999949
20
-60.8206599999999966
11
40.2399999999999949
21
-61.3206599999999966
0
LINE
8
BLACK
6
CONTINUOUS
10
40.2399999999999949
20
-60.8206599999999966
11
39.7399999999999949
21
-61.3206599999999966
0
LINE
8
BLACK
6
CONTINUOUS
10
40.1819419999999994
20
-40.1819419999999994
11
40.6819419999999994
21
-40.6819419999999994
0
LINE
8
BLACK
6
CONTINUOUS
10
40.6819419999999994
20
-40.1819419999999994
11
40.1819419999999994
21
-40.6819419999999994
0
LINE
8
BLACK
6
CONTINUOUS
10
40.1819419999999994
20
-59.3180580000000006
11
40.6819419999999994
21
-59.8180580000000006
0
LINE
8
BLACK
6
CONTINUOUS
10
40.6819419999999994
20
-59.3180580000000006
11
40.1819419999999994
21
-59.8180580000000006
0
LINE
8
BLACK
6
CONTINUOUS
10
40.7299489999999977
20
-39.6692889999999991
11
41.2299489999999977
21
-40.1692889999999991
0
LINE
8
BLACK
6
CONTINUOUS
10
41.2299489999999977
20
-39.6692889999999991
11
40.7299489999999977
21
-40.1692889999999991
0
LINE
8
BLACK
6
CONTINUOUS
10
40.7299489999999977
20
-59.8307109999999938
11
41.2299489999999977
21
-60.3307109999999938
0
LINE
8
BLACK
6
CONTINUOUS
10
41.2299489999999977
20
-59.8307109999999938
11
40.7299489999999977
21
-60.3307109999999938
0
LINE
8
BLACK
6
CONTINUOUS
10
58.7700509999999952
20
-39.6692889999999991
11
59.2700509999999952
21
-40.1692889999999991
0
LINE
8
BLACK
6
CONTINUOUS
10
59.2700509999999952
20
-39.6692889999999991
11
58.7700509999999952
21
-40.1692889999999991
0
LINE
8
BLACK
6
CONTINUOUS
10
58.7700509999999952
20
-59.8307109999999938
11
59.2700509999999952
21
-60.3307109999999938
0
LINE
8
BLACK
6
CONTINUOUS
10
59.2700509999999952
20
-59.8307109999999938
11
58.7700509999999952
21
-60.3307109999999938
0
LINE
8
BLACK
6
CONTINUOUS
10
59.3180580000000006
20
-40.1819419999999994
11
59.8180580000000006
21
-40.6819419999999994
0
LINE
8
BLACK
6
CONTINUOUS
10
59.8180580000000006
20
-40.1819419999999994
11
59.3180580000000006
21
-40.6819419999999994
0
LINE
8
BLACK
6
CONTINUOUS
10
59.3180580000000006
20
-59.3180580000000006
11
59.8180580000000006
21
-59.8180580000000006
0
LINE
8
BLACK
6
CONTINUOUS
10
59.8180580000000006
20
-59.3180580000000006
11
59.3180580000000006
21
-59.8180580000000006
0
LINE
8
BLACK
6
CONTINUOUS
10
59.759999999999998
20
-38.6793399999999963
11
60.259999999999998
21
-39.1793399999999963
0
LINE
8
BLACK
6
CONTINUOUS
10
60.259999999999998
20
-38.6793399999999963
11
59.759999999999998
21
-39.1793399999999963
0
LINE
8
BLACK
6
CONTINUOUS
10
59.759999999999998
20
-60.8206599999999966
11
60.259999999999998
21
-61.3206599999999966
0
LINE
8
BLACK
6
CONTINUOUS
10
60.259999999999998
20
-60.8206599999999966
11
59.759999999999998
21
-61.3206599999999966
0
LINE
8
BLACK
6
CONTINUOUS
10
59.8307109999999938
20
-40.7299489999999977
11
60.3307109999999938
21
-41.2299489999999977
0
LINE
8
BLACK
6
CONTINUOUS
10
60.3307109999999938
20
-40.7299489999999977
11
59.8307109999999938
21
-41.2299489999999977
0
LINE
8
BLACK
6
CONTINUOUS
10
59.8307109999999938
20
-58.7700509999999952
11
60.3307109999999938
21
-59.2700509999999952
0
LINE
8
BLACK
6
CONTINUOUS
10
60.3307109999999938
20
-58.7700509999999952
11
59.8307109999999938
21
-59.2700509999999952
0
LINE
8
BLACK
6
CONTINUOUS
10
60.2903299999999973
20
-39.2096699999999956
11
60.7903299999999973
21
-39.7096699999999956
0
LINE
8
BLACK
6
CONTINUOUS
10
60.7903299999999973
20
-39.2096699999999956
11
60.2903299999999973
21
-39.7096699999999956
0
LINE
8
BLACK
6
CONTINUOUS
10
60.2903299999999973
20
-60.2903299999999973
11
60.7903299999999973
21
-60.7903299999999973
0
LINE
8
BLACK
6
CONTINUOUS
10
60.7903299999999973
20
-60.2903299999999973
11
60.2903299999999973
21
-60.7903299999999973
0
LINE
8
BLACK
6
CONTINUOUS
10
60.8206599999999966
20
-39.7399999999999949
11
61.3206599999999966
21
-40.2399999999999949
0
LINE
8
BLACK
6
CONTINUOUS
10
61.3206599999999966
20
-39.7399999999999949
11
60.8206599999999966
21
-40.2399999999999949
0
LINE
8
BLACK
6
CONTINUOUS
10
60.8206599999999966
20
-59.759999999999998
11
61.3206599999999966
21
-60.259999999999998
0
LINE
8
BLACK
6
CONTINUOUS
10
61.3206599999999966
20
-59.759999999999998
11
60.8206599999999966
21
-60.259999999999998
0
LINE
8
BLACK
6
CONTINUOUS
10
73.6793399999999963
20
-39.7399999999999949
11
74.1793399999999963
21
-40.2399999999999949
0
LINE
8
BLACK
6
CONTINUOUS
10
74.1793399999999963
20
-39.7399999999999949
11
73.6793399999999963
21
-40.2399999999999949
0
LINE
8
BLACK
6
CONTINUOUS
10
73.6793399999999963
20
-59.759999999999998
11
74.1793399999999963
21
-60.259999999999998
0
LINE
8
BLACK
6
CONTINUOUS
10
74.1793399999999963
20
-59.759999999999998
11
73.6793399999999963
21
-60.259999999999998
0
LINE
8
BLACK
6
CONTINUOUS
10
74.2096700000000027
20
-39.2096699999999956
11
74.7096700000000027
21
-39.7096699999999956
0
LINE
8
BLACK
6
CONTINUOUS
10
74.7096700000000027
20
-39.2096699999999956
11
74.2096700000000027
21
-39.7096699999999956
0
LINE
8
BLACK
6
CONTINUOUS
10
74.2096700000000027
20
-60.2903299999999973
11
74.7096700000000027
21
-60.7903299999999973
0
LINE
8
BLACK
6
CONTINUOUS
10
74.7096700000000027
20
-60.2903299999999973
11
74.2096700000000027
21
-60.7903299999999973
0
LINE
8
BLACK
6
CONTINUOUS
10
74.669288999999992
20
-40.7299489999999977
11
75.169288999999992
21
-41.2299489999999977
0
LINE
8
BLACK
6
CONTINUOUS
10
75.169288999999992
20
-40.7299489999999977
11
74.669288999999992
21
-41.2299489999999977
0
LINE
8
BLACK
6
CONTINUOUS
10
74.669288999999992
20
-58.7700509999999952
11
75.169288999999992
21
-59.2700509999999952
0
LINE
8
BLACK
6
CONTINUOUS
10
75.169288999999992
20
-58.7700509999999952
11
74.669288999999992
21
-59.2700509999999952
0
LINE
8
BLACK
6
CONTINUOUS
10
74.7399999999999949
20
-38.6793399999999963
11
75.2399999999999949
21
-39.1793399999999963
0
LINE
8
BLACK
6
CONTINUOUS
10
75.2399999999999949
20
-38.6793399999999963
11
74.7399999999999949
21
-39.1793399999999963
0
LINE
8
BLACK
6
CONTINUOUS
10
74.7399999999999949
20
-60.8206599999999966
11
75.2399999999999949
21
-61.3206599999999966
0
LINE
8
BLACK
6
CONTINUOUS
10
75.2399999999999949
20
-60.8206599999999966
11
74.7399999999999949
21
-61.3206599999999966
0
LINE
8
BLACK
6
CONTINUOUS
10
75.1819419999999923
20
-40.1819419999999994
11
75.6819419999999923
21
-40.6819419999999994
0
LINE
8
BLACK
6
CONTINUOUS
10
75.6819419999999923
20
-40.1819419999999994
11
75.1819419999999923
21
-40.6819419999999994
0
LINE
8
BLACK
6
CONTINUOUS
10
75.1819419999999923
20
-59.3180580000000006
11
75.6819419999999923
21
-59.8180580000000006
0
LINE
8
BLACK
6
CONTINUOUS
10
75.6819419999999923
20
-59.3180580000000006
11
75.1819419999999923
21
-59.8180580000000006
0
LINE
8
BLACK
6
CONTINUOUS
10
75.7299489999999906
20
-39.6692889999999991
11
76.2299489999999906
21
-40.1692889999999991
0
LINE
8
BLACK
6
CONTINUOUS
10
76.2299489999999906
20
-39.6692889999999991
11
75.7299489999999906
21
-40.1692889999999991
0
LINE
8
BLACK
6
CONTINUOUS
10
75.7299489999999906
20
-59.8307109999999938
11
76.2299489999999906
21
-60.3307109999999938
0
LINE
8
BLACK
6
CONTINUOUS
10
76.2299489999999906
20
-59.8307109999999938
11
75.7299489999999906
21
-60.3307109999999938
0
LINE
8
BLACK
6
CONTINUOUS
10
93.7700509999999952
20
-39.6692889999999991
11
94.2700509999999952
21
-40.1692889999999991
0
LINE
8
BLACK
6
CONTINUOUS
10
94.2700509999999952
20
-39.6692889999999991
11
93.7700509999999952
21
-40.1692889999999991
0
LINE
8
BLACK
6
CONTINUOUS
10
93.7700509999999952
20
-59.8307109999999938
11
94.2700509999999952
21
-60.3307109999999938
0
LINE
8
BLACK
6
CONTINUOUS
10
94.2700509999999952
20
-59.8307109999999938
11
93.7700509999999952
21
-60.3307109999999938
0
LINE
8
BLACK
6
CONTINUOUS
10
94.3180579999999935
20
-40.1819419999999994
11
94.8180579999999935
21
-40.6819419999999994
0
LINE
8
BLACK
6
CONTINUOUS
10
94.8180579999999935
20
-40.1819419999999994
11
94.3180579999999935
21
-40.6819419999999994
0
LINE
8
BLACK
6
CONTINUOUS
10
94.3180579999999935
20
-59.3180580000000006
11
94.8180579999999935
21
-59.8180580000000006
0
LINE
8
BLACK
6
CONTINUOUS
10
94.8180579999999935
20
-59.3180580000000006
11
94.3180579999999935
21
-59.8180580000000006
0
LINE
8
BLACK
6
CONTINUOUS
10
94.7599999999999909
20
-38.6793399999999963
11
95.2599999999999909
21
-39.1793399999999963
0
LINE
8
BLACK
6
CONTINUOUS
10
95.2599999999999909
20
-38.6793399999999963
11
94.7599999999999909
21
-39.1793399999999963
0
LINE
8
BLACK
6
CONTINUOUS
10
94.7599999999999909
20
-60.8206599999999966
11
95.2599999999999909
21
-61.3206599999999966
0
LINE
8
BLACK
6
CONTINUOUS
10
95.2599999999999909
20
-60.8206599999999966
11
94.7599999999999909
21
-61.3206599999999966
0
LINE
8
BLACK
6
CONTINUOUS
10
94.8307109999999938
20
-40.7299489999999977
11
95.3307109999999938
21
-41.2299489999999977
0
LINE
8
BLACK
6
CONTINUOUS
10
95.3307109999999938
20
-40.7299489999999977
11
94.8307109999999938
21
-41.2299489999999977
0
LINE
8
BLACK
6
CONTINUOUS
10
94.8307109999999938
20
-58.7700509999999952
11
95.3307109999999938
21
-59.2700509999999952
0
LINE
8
BLACK
6
CONTINUOUS
10
95.3307109999999938
20
-58.7700509999999952
11
94.8307109999999938
21
-59.2700509999999952
0
LINE
8
BLACK
6
CONTINUOUS
10
95.2903299999999973
20
-39.2096699999999956
11
95.7903299999999973
21
-39.7096699999999956
0
LINE
8
BLACK
6
CONTINUOUS
10
95.7903299999999973
20
-39.2096699999999956
11
95.2903299999999973
21
-39.7096699999999956
0
LINE
8
BLACK
6
CONTINUOUS
10
95.2903299999999973
20
-60.2903299999999973
11
95.7903299999999973
21
-60.7903299999999973
0
LINE
8
BLACK
6
CONTINUOUS
10
95.7903299999999973
20
-60.2903299999999973
11
95.2903299999999973
21
-60.7903299999999973
0
LINE
8
BLACK
6
CONTINUOUS
10
95.8206599999999895
20
-39.7399999999999949
11
96.3206599999999895
21
-40.2399999999999949
0
LINE
8
BLACK
6
CONTINUOUS
10
96.3206599999999895
20
-39.7399999999999949
11
95.8206599999999895
21
-40.2399999999999949
0
LINE
8
BLACK
6
CONTINUOUS
10
95.8206599999999895
20
-59.759999999999998
11
96.3206599999999895
21
-60.259999999999998
0
LINE
8
BLACK
6
CONTINUOUS
10
96.3206599999999895
20
-59.759999999999998
11
95.8206599999999895
21
-60.259999999999998
0
CIRCLE
8
BLACK
10
82.1099999999999994
20
-58.0949999999999989
40
0.325
0
CIRCLE
8
BLACK
10
87.8900000000000006
20
-58.0949999999999989
40
0.325
0
LINE
8
BLACK
6
CONTINUOUS
10
74.3999999999999915
20
-49.6499999999999986
11
74.3999999999999915
21
-50.3499999999999943
0
LINE
8
BLACK
6
CONTINUOUS
10
74.0499999999999972
20
-50.
11
74.75
21
-50.
0
LINE
8
BLACK
6
CONTINUOUS
10
76.2000000000000028
20
-49.6499999999999986
11
76.2000000000000028
21
-50.3499999999999943
0
LINE
8
BLACK
6
CONTINUOUS
10
75.8499999999999943
20
-50.
11
76.5499999999999972
21
-50.
0
LINE
8
BLACK
6
CONTINUOUS
10
94.2000000000000028
20
-45.9499999999999957
11
94.2000000000000028
21
-46.6499999999999986
0
LINE
8
BLACK
6
CONTINUOUS
10
93.8499999999999943
20
-46.2999999999999972
11
94.5499999999999972
21
-46.2999999999999972
0
LINE
8
BLACK
6
CONTINUOUS
10
94.2000000000000028
20
-53.3499999999999943
11
94.2000000000000028
21
-54.0499999999999972
0
LINE
8
BLACK
6
CONTINUOUS
10
93.8499999999999943
20
-53.6999999999999957
11
94.5499999999999972
21
-53.6999999999999957
0
LINE
8
BLACK
6
CONTINUOUS
10
96.
20
-45.9499999999999957
11
96.
21
-46.6499999999999986
0
LINE
8
BLACK
6
CONTINUOUS
10
95.6499999999999915
20
-46.2999999999999972
11
96.3499999999999943
21
-46.2999999999999972
0
LINE
8
BLACK
6
CONTINUOUS
10
96.
20
-53.3499999999999943
11
96.
21
-54.0499999999999972
0
LINE
8
BLACK
6
CONTINUOUS
10
95.6499999999999915
20
-53.6999999999999957
11
96.3499999999999943
21
-53.6999999999999957
0
LINE
8
BLACK
6
CONTINUOUS
10
33.6827679999999958
20
-72.1398379999999975
11
33.6827679999999958
21
-70.1398379999999975
0
LINE
8
BLACK
6
CONTINUOUS
10
33.6827679999999958
20
-70.1398379999999975
11
34.1589579999999984
21
-70.1398379999999975
0
LINE
8
BLACK
6
CONTINUOUS
10
34.1589579999999984
20
-70.1398379999999975
11
34.4446730000000017
21
-70.2350759999999923
0
LINE
8
BLACK
6
CONTINUOUS
10
34.4446730000000017
20
-70.2350759999999923
11
34.6351489999999984
21
-70.4255519999999962
0
LINE
8
BLACK
6
CONTINUOUS
10
34.6351489999999984
20
-70.4255519999999962
11
34.7303870000000003
21
-70.616028
0
LINE
8
BLACK
6
CONTINUOUS
10
34.7303870000000003
20
-70.616028
11
34.8256249999999952
21
-70.9969799999999935
0
LINE
8
BLACK
6
CONTINUOUS
10
34.8256249999999952
20
-70.9969799999999935
11
34.8256249999999952
21
-71.2826949999999897
0
LINE
8
BLACK
6
CONTINUOUS
10
34.8256249999999952
20
-71.2826949999999897
11
34.7303870000000003
21
-71.6636469999999974
0
LINE
8
BLACK
6
CONTINUOUS
10
34.7303870000000003
20
-71.6636469999999974
11
34.6351489999999984
21
-71.8541230000000013
0
LINE
8
BLACK
6
CONTINUOUS
10
34.6351489999999984
20
-71.8541230000000013
11
34.4446730000000017
21
-72.0446000000000026
0
LINE
8
BLACK
6
CONTINUOUS
10
34.4446730000000017
20
-72.0446000000000026
11
34.1589579999999984
21
-72.1398379999999975
0
LINE
8
BLACK
6
CONTINUOUS
10
34.1589579999999984
20
-72.1398379999999975
11
33.6827679999999958
21
-72.1398379999999975
0
LINE
8
BLACK
6
CONTINUOUS
10
35.6827679999999958
20
-72.1398379999999975
11
35.6827679999999958
21
-70.8065040000000039
0
LINE
8
BLACK
6
CONTINUOUS
10
35.6827679999999958
20
-71.1874569999999949
11
35.7780059999999978
21
-70.9969799999999935
0
LINE
8
BLACK
6
CONTINUOUS
10
35.7780059999999978
20
-70.9969799999999935
11
35.8732439999999997
21
-70.9017419999999987
0
LINE
8
BLACK
6
CONTINUOUS
10
35.8732439999999997
20
-70.9017419999999987
11
36.0637199999999964
21
-70.8065040000000039
0
LINE
8
BLACK
6
CONTINUOUS
10
36.0637199999999964
20
-70.8065040000000039
11
36.2541969999999978
21
-70.8065040000000039
0
LINE
8
BLACK
6
CONTINUOUS
10
36.9208629999999971
20
-72.1398379999999975
11
36.9208629999999971
21
-70.8065040000000039
0
LINE
8
BLACK
6
CONTINUOUS
10
36.9208629999999971
20
-70.1398379999999975
11
36.8256249999999952
21
-70.2350759999999923
0
LINE
8
BLACK
6
CONTINUOUS
10
36.8256249999999952
20
-70.2350759999999923
11
36.9208629999999971
21
-70.3303140000000013
0
LINE
8
BLACK
6
CONTINUOUS
10
36.9208629999999971
20
-70.3303140000000013
11
37.016100999999999
21
-70.2350759999999923
0
LINE
8
BLACK
6
CONTINUOUS
10
37.016100999999999
20
-70.2350759999999923
11
36.9208629999999971
21
-70.1398379999999975
0
LINE
8
BLACK
6
CONTINUOUS
10
36.9208629999999971
20
-70.1398379999999975
11
36.9208629999999971
21
-70.3303140000000013
0
LINE
8
BLACK
6
CONTINUOUS
10
38.1589579999999984
20
-72.1398379999999975
11
37.9684820000000016
21
-72.0446000000000026
0
LINE
8
BLACK
6
CONTINUOUS
10
37.9684820000000016
20
-72.0446000000000026
11
37.8732439999999997
21
-71.8541230000000013
0
LINE
8
BLACK
6
CONTINUOUS
10
37.8732439999999997
20
-71.8541230000000013
11
37.8732439999999997
21
-70.1398379999999975
0
LINE
8
BLACK
6
CONTINUOUS
10
39.2065769999999958
20
-72.1398379999999975
11
39.016100999999999
21
-72.0446000000000026
0
LINE
8
BLACK
6
CONTINUOUS
10
39.016100999999999
20
-72.0446000000000026
11
38.9208629999999971
21
-71.8541230000000013
0
LINE
8
BLACK
6
CONTINUOUS
10
38.9208629999999971
20
-71.8541230000000013
11
38.9208629999999971
21
-70.1398379999999975
0
LINE
8
BLACK
6
CONTINUOUS
10
41.4922919999999991
20
-72.1398379999999975
11
41.4922919999999991
21
-70.1398379999999975
0
LINE
8
BLACK
6
CONTINUOUS
10
41.4922919999999991
20
-70.1398379999999975
11
42.1589589999999959
21
-71.5684090000000026
0
LINE
8
BLACK
6
CONTINUOUS
10
42.1589589999999959
20
-71.5684090000000026
11
42.8256249999999952
21
-70.1398379999999975
0
LINE
8
BLACK
6
CONTINUOUS
10
42.8256249999999952
20
-70.1398379999999975
11
42.8256249999999952
21
-72.1398379999999975
0
LINE
8
BLACK
6
CONTINUOUS
10
44.6351489999999984
20
-72.1398379999999975
11
44.6351489999999984
21
-71.0922190000000001
0
LINE
8
BLACK
6
CONTINUOUS
10
44.6351489999999984
20
-71.0922190000000001
11
44.5399109999999965
21
-70.9017419999999987
0
LINE
8
BLACK
6
CONTINUOUS
10
44.5399109999999965
20
-70.9017419999999987
11
44.3494349999999997
21
-70.8065040000000039
0
LINE
8
BLACK
6
CONTINUOUS
10
44.3494349999999997
20
-70.8065040000000039
11
43.9684819999999945
21
-70.8065040000000039
0
LINE
8
BLACK
6
CONTINUOUS
10
43.9684819999999945
20
-70.8065040000000039
11
43.7780059999999978
21
-70.9017419999999987
0
LINE
8
BLACK
6
CONTINUOUS
10
44.6351489999999984
20
-72.0446000000000026
11
44.4446729999999945
21
-72.1398379999999975
0
LINE
8
BLACK
6
CONTINUOUS
10
44.4446729999999945
20
-72.1398379999999975
11
43.9684819999999945
21
-72.1398379999999975
0
LINE
8
BLACK
6
CONTINUOUS
10
43.9684819999999945
20
-72.1398379999999975
11
43.7780059999999978
21
-72.0446000000000026
0
LINE
8
BLACK
6
CONTINUOUS
10
43.7780059999999978
20
-72.0446000000000026
11
43.6827679999999958
21
-71.8541230000000013
0
LINE
8
BLACK
6
CONTINUOUS
10
43.6827679999999958
20
-71.8541230000000013
11
43.6827679999999958
21
-71.6636469999999974
0
LINE
8
BLACK
6
CONTINUOUS
10
43.6827679999999958
20
-71.6636469999999974
11
43.7780059999999978
21
-71.4731709999999936
0
LINE
8
BLACK
6
CONTINUOUS
10
43.7780059999999978
20
-71.4731709999999936
11
43.9684819999999945
21
-71.3779329999999987
0
LINE
8
BLACK
6
CONTINUOUS
10
43.9684819999999945
20
-71.3779329999999987
11
44.4446729999999945
21
-71.3779329999999987
0
LINE
8
BLACK
6
CONTINUOUS
10
44.4446729999999945
20
-71.3779329999999987
11
44.6351489999999984
21
-71.2826949999999897
0
LINE
8
BLACK
6
CONTINUOUS
10
45.587530000000001
20
-70.8065040000000039
11
45.587530000000001
21
-72.8065039999999897
0
LINE
8
BLACK
6
CONTINUOUS
10
45.587530000000001
20
-70.9017419999999987
11
45.7780059999999978
21
-70.8065040000000039
0
LINE
8
BLACK
6
CONTINUOUS
10
45.7780059999999978
20
-70.8065040000000039
11
46.1589589999999959
21
-70.8065040000000039
0
LINE
8
BLACK
6
CONTINUOUS
10
46.1589589999999959
20
-70.8065040000000039
11
46.3494349999999997
21
-70.9017419999999987
0
LINE
8
BLACK
6
CONTINUOUS
10
46.3494349999999997
20
-70.9017419999999987
11
46.4446729999999945
21
-70.9969799999999935
0
LINE
8
BLACK
6
CONTINUOUS
10
46.4446729999999945
20
-70.9969799999999935
11
46.5399109999999965
21
-71.1874569999999949
0
LINE
8
BLACK
6
CONTINUOUS
10
46.5399109999999965
20
-71.1874569999999949
11
46.5399109999999965
21
-71.7588849999999923
0
LINE
8
BLACK
6
CONTINUOUS
10
46.5399109999999965
20
-71.7588849999999923
11
46.4446729999999945
21
-71.9493609999999961
0
LINE
8
BLACK
6
CONTINUOUS
10
46.4446729999999945
20
-71.9493609999999961
11
46.3494349999999997
21
-72.0446000000000026
0
LINE
8
BLACK
6
CONTINUOUS
10
46.3494349999999997
20
-72.0446000000000026
11
46.1589589999999959
21
-72.1398379999999975
0
LINE
8
BLACK
6
CONTINUOUS
10
46.1589589999999959
20
-72.1398379999999975
11
45.7780059999999978
21
-72.1398379999999975
0
LINE
8
BLACK
6
CONTINUOUS
10
45.7780059999999978
20
-72.1398379999999975
11
45.587530000000001
21
-72.0446000000000026
0
LINE
8
BLACK
6
CONTINUOUS
10
47.3970539999999971
20
-71.9493609999999961
11
47.4922919999999991
21
-72.0446000000000026
0
LINE
8
BLACK
6
CONTINUOUS
10
47.4922919999999991
20
-72.0446000000000026
11
47.3970539999999971
21
-72.1398379999999975
0
LINE
8
BLACK
6
CONTINUOUS
10
47.3970539999999971
20
-72.1398379999999975
11
47.3018159999999952
21
-72.0446000000000026
0
LINE
8
BLACK
6
CONTINUOUS
10
47.3018159999999952
20
-72.0446000000000026
11
47.3970539999999971
21
-71.9493609999999961
0
LINE
8
BLACK
6
CONTINUOUS
10
47.3970539999999971
20
-71.9493609999999961
11
47.3970539999999971
21
-72.1398379999999975
0
LINE
8
BLACK
6
CONTINUOUS
10
47.3970539999999971
20
-70.9017419999999987
11
47.4922919999999991
21
-70.9969799999999935
0
LINE
8
BLACK
6
CONTINUOUS
10
47.4922919999999991
20
-70.9969799999999935
11
47.3970539999999971
21
-71.0922190000000001
0
LINE
8
BLACK
6
CONTINUOUS
10
47.3970539999999971
20
-71.0922190000000001
11
47.3018159999999952
21
-70.9969799999999935
0
LINE
8
BLACK
6
CONTINUOUS
10
47.3018159999999952
20
-70.9969799999999935
11
47.3970539999999971
21
-70.9017419999999987
0
LINE
8
BLACK
6
CONTINUOUS
10
47.3970539999999971
20
-70.9017419999999987
11
47.3970539999999971
21
-71.0922190000000001
0
LINE
8
BLACK
6
CONTINUOUS
10
30.5749999999999993
20
-75.1749999999999972
11
31.0749999999999993
21
-75.6749999999999972
0
LINE
8
BLACK
6
CONTINUOUS
10
31.0749999999999993
20
-75.1749999999999972
11
30.5749999999999993
21
-75.6749999999999972
0
LINE
8
BLACK
6
CONTINUOUS
10
34.0637199999999964
20
-74.3398380000000003
11
34.2541969999999978
21
-74.3398380000000003
0
LINE
8
BLACK
6
CONTINUOUS
10
34.2541969999999978
20
-74.3398380000000003
11
34.4446730000000017
21
-74.4350759999999951
0
LINE
8
BLACK
6
CONTINUOUS
10
34.4446730000000017
20
-74.4350759999999951
11
34.5399109999999965
21
-74.53031399999999
0
LINE
8
BLACK
6
CONTINUOUS
10
34.5399109999999965
20
-74.53031399999999
11
34.6351489999999984
21
-74.7207899999999938
0
LINE
8
BLACK
6
CONTINUOUS
10
34.6351489999999984
20
-74.7207899999999938
11
34.7303870000000003
21
-75.1017420000000016
0
LINE
8
BLACK
6
CONTINUOUS
10
34.7303870000000003
20
-75.1017420000000016
11
34.7303870000000003
21
-75.5779330000000016
0
LINE
8
BLACK
6
CONTINUOUS
10
34.7303870000000003
20
-75.5779330000000016
11
34.6351489999999984
21
-75.9588849999999951
0
LINE
8
BLACK
6
CONTINUOUS
10
34.6351489999999984
20
-75.9588849999999951
11
34.5399109999999965
21
-76.149360999999999
0
LINE
8
BLACK
6
CONTINUOUS
10
34.5399109999999965
20
-76.149360999999999
11
34.4446730000000017
21
-76.2445999999999913
0
LINE
8
BLACK
6
CONTINUOUS
10
34.4446730000000017
20
-76.2445999999999913
11
34.2541969999999978
21
-76.3398380000000003
0
LINE
8
BLACK
6
CONTINUOUS
10
34.2541969999999978
20
-76.3398380000000003
11
34.0637199999999964
21
-76.3398380000000003
0
LINE
8
BLACK
6
CONTINUOUS
10
34.0637199999999964
20
-76.3398380000000003
11
33.8732439999999997
21
-76.2445999999999913
0
LINE
8
BLACK
6
CONTINUOUS
10
33.8732439999999997
20
-76.2445999999999913
11
33.7780059999999978
21
-76.149360999999999
0
LINE
8
BLACK
6
CONTINUOUS
10
33.7780059999999978
20
-76.149360999999999
11
33.6827679999999958
21
-75.9588849999999951
0
LINE
8
BLACK
6
CONTINUOUS
10
33.6827679999999958
20
-75.9588849999999951
11
33.587530000000001
21
-75.5779330000000016
0
LINE
8
BLACK
6
CONTINUOUS
10
33.587530000000001
20
-75.5779330000000016
11
33.587530000000001
21
-75.1017420000000016
0
LINE
8
BLACK
6
CONTINUOUS
10
33.587530000000001
20
-75.1017420000000016
11
33.6827679999999958
21
-74.7207899999999938
0
LINE
8
BLACK
6
CONTINUOUS
10
33.6827679999999958
20
-74.7207899999999938
11
33.7780059999999978
21
-74.53031399999999
0
LINE
8
BLACK
6
CONTINUOUS
10
33.7780059999999978
20
-74.53031399999999
11
33.8732439999999997
21
-74.4350759999999951
0
LINE
8
BLACK
6
CONTINUOUS
10
33.8732439999999997
20
-74.4350759999999951
11
34.0637199999999964
21
-74.3398380000000003
0
LINE
8
BLACK
6
CONTINUOUS
10
35.587530000000001
20
-76.149360999999999
11
35.6827679999999958
21
-76.2445999999999913
0
LINE
8
BLACK
6
CONTINUOUS
10
35.6827679999999958
20
-76.2445999999999913
11
35.587530000000001
21
-76.3398380000000003
0
LINE
8
BLACK
6
CONTINUOUS
10
35.587530000000001
20
-76.3398380000000003
11
35.4922919999999991
21
-76.2445999999999913
0
LINE
8
BLACK
6
CONTINUOUS
10
35.4922919999999991
20
-76.2445999999999913
11
35.587530000000001
21
-76.149360999999999
0
LINE
8
BLACK
6
CONTINUOUS
10
35.587530000000001
20
-76.149360999999999
11
35.587530000000001
21
-76.3398380000000003
0
LINE
8
BLACK
6
CONTINUOUS
10
37.4922919999999991
20
-74.3398380000000003
11
36.5399109999999965
21
-74.3398380000000003
0
LINE
8
BLACK
6
CONTINUOUS
10
36.5399109999999965
20
-74.3398380000000003
11
36.4446730000000017
21
-75.2922190000000029
0
LINE
8
BLACK
6
CONTINUOUS
10
36.4446730000000017
20
-75.2922190000000029
11
36.5399109999999965
21
-75.1969799999999964
0
LINE
8
BLACK
6
CONTINUOUS
10
36.5399109999999965
20
-75.1969799999999964
11
36.7303870000000003
21
-75.1017420000000016
0
LINE
8
BLACK
6
CONTINUOUS
10
36.7303870000000003
20
-75.1017420000000016
11
37.2065780000000004
21
-75.1017420000000016
0
LINE
8
BLACK
6
CONTINUOUS
10
37.2065780000000004
20
-75.1017420000000016
11
37.3970539999999971
21
-75.1969799999999964
0
LINE
8
BLACK
6
CONTINUOUS
10
37.3970539999999971
20
-75.1969799999999964
11
37.4922919999999991
21
-75.2922190000000029
0
LINE
8
BLACK
6
CONTINUOUS
10
37.4922919999999991
20
-75.2922190000000029
11
37.587530000000001
21
-75.4826949999999925
0
LINE
8
BLACK
6
CONTINUOUS
10
37.587530000000001
20
-75.4826949999999925
11
37.587530000000001
21
-75.9588849999999951
0
LINE
8
BLACK
6
CONTINUOUS
10
37.587530000000001
20
-75.9588849999999951
11
37.4922919999999991
21
-76.149360999999999
0
LINE
8
BLACK
6
CONTINUOUS
10
37.4922919999999991
20
-76.149360999999999
11
37.3970539999999971
21
-76.2445999999999913
0
LINE
8
BLACK
6
CONTINUOUS
10
37.3970539999999971
20
-76.2445999999999913
11
37.2065780000000004
21
-76.3398380000000003
0
LINE
8
BLACK
6
CONTINUOUS
10
37.2065780000000004
20
-76.3398380000000003
11
36.7303870000000003
21
-76.3398380000000003
0
LINE
8
BLACK
6
CONTINUOUS
10
36.7303870000000003
20
-76.3398380000000003
11
36.5399109999999965
21
-76.2445999999999913
0
LINE
8
BLACK
6
CONTINUOUS
10
36.5399109999999965
20
-76.2445999999999913
11
36.4446730000000017
21
-76.149360999999999
0
LINE
8
BLACK
6
CONTINUOUS
10
38.8256249999999952
20
-74.3398380000000003
11
39.0161019999999965
21
-74.3398380000000003
0
LINE
8
BLACK
6
CONTINUOUS
10
39.0161019999999965
20
-74.3398380000000003
11
39.2065780000000004
21
-74.4350759999999951
0
LINE
8
BLACK
6
CONTINUOUS
10
39.2065780000000004
20
-74.4350759999999951
11
39.3018159999999952
21
-74.53031399999999
0
LINE
8
BLACK
6
CONTINUOUS
10
39.3018159999999952
20
-74.53031399999999
11
39.3970539999999971
21
-74.7207899999999938
0
LINE
8
BLACK
6
CONTINUOUS
10
39.3970539999999971
20
-74.7207899999999938
11
39.4922919999999991
21
-75.1017420000000016
0
LINE
8
BLACK
6
CONTINUOUS
10
39.4922919999999991
20
-75.1017420000000016
11
39.4922919999999991
21
-75.5779330000000016
0
LINE
8
BLACK
6
CONTINUOUS
10
39.4922919999999991
20
-75.5779330000000016
11
39.3970539999999971
21
-75.9588849999999951
0
LINE
8
BLACK
6
CONTINUOUS
10
39.3970539999999971
20
-75.9588849999999951
11
39.3018159999999952
21
-76.149360999999999
0
LINE
8
BLACK
6
CONTINUOUS
10
39.3018159999999952
20
-76.149360999999999
11
39.2065780000000004
21
-76.2445999999999913
0
LINE
8
BLACK
6
CONTINUOUS
10
39.2065780000000004
20
-76.2445999999999913
11
39.0161019999999965
21
-76.3398380000000003
0
LINE
8
BLACK
6
CONTINUOUS
10
39.0161019999999965
20
-76.3398380000000003
11
38.8256249999999952
21
-76.3398380000000003
0
LINE
8
BLACK
6
CONTINUOUS
10
38.8256249999999952
20
-76.3398380000000003
11
38.6351489999999984
21
-76.2445999999999913
0
LINE
8
BLACK
6
CONTINUOUS
10
38.6351489999999984
20
-76.2445999999999913
11
38.5399109999999965
21
-76.149360999999999
0
LINE
8
BLACK
6
CONTINUOUS
10
38.5399109999999965
20
-76.149360999999999
11
38.4446730000000017
21
-75.9588849999999951
0
LINE
8
BLACK
6
CONTINUOUS
10
38.4446730000000017
20
-75.9588849999999951
11
38.3494349999999997
21
-75.5779330000000016
0
LINE
8
BLACK
6
CONTINUOUS
10
38.3494349999999997
20
-75.5779330000000016
11
38.3494349999999997
21
-75.1017420000000016
0
LINE
8
BLACK
6
CONTINUOUS
10
38.3494349999999997
20
-75.1017420000000016
11
38.4446730000000017
21
-74.7207899999999938
0
LINE
8
BLACK
6
CONTINUOUS
10
38.4446730000000017
20
-74.7207899999999938
11
38.5399109999999965
21
-74.53031399999999
0
LINE
8
BLACK
6
CONTINUOUS
10
38.5399109999999965
20
-74.53031399999999
11
38.6351489999999984
21
-74.4350759999999951
0
LINE
8
BLACK
6
CONTINUOUS
10
38.6351489999999984
20
-74.4350759999999951
11
38.8256249999999952
21
-74.3398380000000003
0
LINE
8
BLACK
6
CONTINUOUS
10
40.7303870000000003
20
-74.3398380000000003
11
40.9208640000000017
21
-74.3398380000000003
0
LINE
8
BLACK
6
CONTINUOUS
10
40.9208640000000017
20
-74.3398380000000003
11
41.1113399999999984
21
-74.4350759999999951
0
LINE
8
BLACK
6
CONTINUOUS
10
41.1113399999999984
20
-74.4350759999999951
11
41.2065780000000004
21
-74.53031399999999
0
LINE
8
BLACK
6
CONTINUOUS
10
41.2065780000000004
20
-74.53031399999999
11
41.3018159999999952
21
-74.7207899999999938
0
LINE
8
BLACK
6
CONTINUOUS
10
41.3018159999999952
20
-74.7207899999999938
11
41.3970539999999971
21
-75.1017420000000016
0
LINE
8
BLACK
6
CONTINUOUS
10
41.3970539999999971
20
-75.1017420000000016
11
41.3970539999999971
21
-75.5779330000000016
0
LINE
8
BLACK
6
CONTINUOUS
10
41.3970539999999971
20
-75.5779330000000016
11
41.3018159999999952
21
-75.9588849999999951
0
LINE
8
BLACK
6
CONTINUOUS
10
41.3018159999999952
20
-75.9588849999999951
11
41.2065780000000004
21
-76.149360999999999
0
LINE
8
BLACK
6
CONTINUOUS
10
41.2065780000000004
20
-76.149360999999999
11
41.1113399999999984
21
-76.2445999999999913
0
LINE
8
BLACK
6
CONTINUOUS
10
41.1113399999999984
20
-76.2445999999999913
11
40.9208640000000017
21
-76.3398380000000003
0
LINE
8
BLACK
6
CONTINUOUS
10
40.9208640000000017
20
-76.3398380000000003
11
40.7303870000000003
21
-76.3398380000000003
0
LINE
8
BLACK
6
CONTINUOUS
10
40.7303870000000003
20
-76.3398380000000003
11
40.5399109999999965
21
-76.2445999999999913
0
LINE
8
BLACK
6
CONTINUOUS
10
40.5399109999999965
20
-76.2445999999999913
11
40.4446730000000017
21
-76.149360999999999
0
LINE
8
BLACK
6
CONTINUOUS
10
40.4446730000000017
20
-76.149360999999999
11
40.3494349999999997
21
-75.9588849999999951
0
LINE
8
BLACK
6
CONTINUOUS
10
40.3494349999999997
20
-75.9588849999999951
11
40.2541969999999978
21
-75.5779330000000016
0
LINE
8
BLACK
6
CONTINUOUS
10
40.2541969999999978
20
-75.5779330000000016
11
40.2541969999999978
21
-75.1017420000000016
0
LINE
8
BLACK
6
CONTINUOUS
10
40.2541969999999978
20
-75.1017420000000016
11
40.3494349999999997
21
-74.7207899999999938
0
LINE
8
BLACK
6
CONTINUOUS
10
40.3494349999999997
20
-74.7207899999999938
11
40.4446730000000017
21
-74.53031399999999
0
LINE
8
BLACK
6
CONTINUOUS
10
40.4446730000000017
20
-74.53031399999999
11
40.5399109999999965
21
-74.4350759999999951
0
LINE
8
BLACK
6
CONTINUOUS
10
40.5399109999999965
20
-74.4350759999999951
11
40.7303870000000003
21
-74.3398380000000003
0
LINE
8
BLACK
6
CONTINUOUS
10
42.2541969999999978
20
-76.3398380000000003
11
42.2541969999999978
21
-75.0065039999999925
0
LINE
8
BLACK
6
CONTINUOUS
10
42.2541969999999978
20
-75.1969799999999964
11
42.3494349999999997
21
-75.1017420000000016
0
LINE
8
BLACK
6
CONTINUOUS
10
42.3494349999999997
20
-75.1017420000000016
11
42.5399109999999965
21
-75.0065039999999925
0
LINE
8
BLACK
6
CONTINUOUS
10
42.5399109999999965
20
-75.0065039999999925
11
42.8256259999999997
21
-75.0065039999999925
0
LINE
8
BLACK
6
CONTINUOUS
10
42.8256259999999997
20
-75.0065039999999925
11
43.0161019999999965
21
-75.1017420000000016
0
LINE
8
BLACK
6
CONTINUOUS
10
43.0161019999999965
20
-75.1017420000000016
11
43.1113399999999984
21
-75.2922190000000029
0
LINE
8
BLACK
6
CONTINUOUS
10
43.1113399999999984
20
-75.2922190000000029
11
43.1113399999999984
21
-76.3398380000000003
0
LINE
8
BLACK
6
CONTINUOUS
10
43.1113399999999984
20
-75.2922190000000029
11
43.2065780000000004
21
-75.1017420000000016
0
LINE
8
BLACK
6
CONTINUOUS
10
43.2065780000000004
20
-75.1017420000000016
11
43.3970539999999971
21
-75.0065039999999925
0
LINE
8
BLACK
6
CONTINUOUS
10
43.3970539999999971
20
-75.0065039999999925
11
43.6827679999999958
21
-75.0065039999999925
0
LINE
8
BLACK
6
CONTINUOUS
10
43.6827679999999958
20
-75.0065039999999925
11
43.8732449999999972
21
-75.1017420000000016
0
LINE
8
BLACK
6
CONTINUOUS
10
43.8732449999999972
20
-75.1017420000000016
11
43.9684829999999991
21
-75.2922190000000029
0
LINE
8
BLACK
6
CONTINUOUS
10
43.9684829999999991
20
-75.2922190000000029
11
43.9684829999999991
21
-76.3398380000000003
0
LINE
8
BLACK
6
CONTINUOUS
10
44.9208639999999946
20
-76.3398380000000003
11
44.9208639999999946
21
-75.0065039999999925
0
LINE
8
BLACK
6
CONTINUOUS
10
44.9208639999999946
20
-75.1969799999999964
11
45.0161019999999965
21
-75.1017420000000016
0
LINE
8
BLACK
6
CONTINUOUS
10
45.0161019999999965
20
-75.1017420000000016
11
45.2065780000000004
21
-75.0065039999999925
0
LINE
8
BLACK
6
CONTINUOUS
10
45.2065780000000004
20
-75.0065039999999925
11
45.4922929999999965
21
-75.0065039999999925
0
LINE
8
BLACK
6
CONTINUOUS
10
45.4922929999999965
20
-75.0065039999999925
11
45.6827690000000004
21
-75.1017420000000016
0
LINE
8
BLACK
6
CONTINUOUS
10
45.6827690000000004
20
-75.1017420000000016
11
45.7780069999999952
21
-75.2922190000000029
0
LINE
8
BLACK
6
CONTINUOUS
10
45.7780069999999952
20
-75.2922190000000029
11
45.7780069999999952
21
-76.3398380000000003
0
LINE
8
BLACK
6
CONTINUOUS
10
45.7780069999999952
20
-75.2922190000000029
11
45.8732449999999972
21
-75.1017420000000016
0
LINE
8
BLACK
6
CONTINUOUS
10
45.8732449999999972
20
-75.1017420000000016
11
46.063721000000001
21
-75.0065039999999925
0
LINE
8
BLACK
6
CONTINUOUS
10
46.063721000000001
20
-75.0065039999999925
11
46.3494349999999997
21
-75.0065039999999925
0
LINE
8
BLACK
6
CONTINUOUS
10
46.3494349999999997
20
-75.0065039999999925
11
46.5399120000000011
21
-75.1017420000000016
0
LINE
8
BLACK
6
CONTINUOUS
10
46.5399120000000011
20
-75.1017420000000016
11
46.6351499999999959
21
-75.2922190000000029
0
LINE
8
BLACK
6
CONTINUOUS
10
46.6351499999999959
20
-75.2922190000000029
11
46.6351499999999959
21
-76.3398380000000003
0
LINE
8
BLACK
6
CONTINUOUS
10
50.5399120000000011
20
-74.2445999999999913
11
48.8256269999999972
21
-76.8160280000000029
0
LINE
8
BLACK
6
CONTINUOUS
10
53.1113409999999959
20
-74.3398380000000003
11
53.3018179999999973
21
-74.3398380000000003
0
LINE
8
BLACK
6
CONTINUOUS
10
53.3018179999999973
20
-74.3398380000000003
11
53.4922940000000011
21
-74.4350759999999951
0
LINE
8
BLACK
6
CONTINUOUS
10
53.4922940000000011
20
-74.4350759999999951
11
53.5875319999999959
21
-74.53031399999999
0
LINE
8
BLACK
6
CONTINUOUS
10
53.5875319999999959
20
-74.53031399999999
11
53.6827699999999979
21
-74.7207899999999938
0
LINE
8
BLACK
6
CONTINUOUS
10
53.6827699999999979
20
-74.7207899999999938
11
53.7780079999999998
21
-75.1017420000000016
0
LINE
8
BLACK
6
CONTINUOUS
10
53.7780079999999998
20
-75.1017420000000016
11
53.7780079999999998
21
-75.5779330000000016
0
LINE
8
BLACK
6
CONTINUOUS
10
53.7780079999999998
20
-75.5779330000000016
11
53.6827699999999979
21
-75.9588849999999951
0
LINE
8
BLACK
6
CONTINUOUS
10
53.6827699999999979
20
-75.9588849999999951
11
53.5875319999999959
21
-76.149360999999999
0
LINE
8
BLACK
6
CONTINUOUS
10
53.5875319999999959
20
-76.149360999999999
11
53.4922940000000011
21
-76.2445999999999913
0
LINE
8
BLACK
6
CONTINUOUS
10
53.4922940000000011
20
-76.2445999999999913
11
53.3018179999999973
21
-76.3398380000000003
0
LINE
8
BLACK
6
CONTINUOUS
10
53.3018179999999973
20
-76.3398380000000003
11
53.1113409999999959
21
-76.3398380000000003
0
LINE
8
BLACK
6
CONTINUOUS
10
53.1113409999999959
20
-76.3398380000000003
11
52.9208649999999992
21
-76.2445999999999913
0
LINE
8
BLACK
6
CONTINUOUS
10
52.9208649999999992
20
-76.2445999999999913
11
52.8256269999999972
21
-76.149360999999999
0
LINE
8
BLACK
6
CONTINUOUS
10
52.8256269999999972
20
-76.149360999999999
11
52.7303889999999953
21
-75.9588849999999951
0
LINE
8
BLACK
6
CONTINUOUS
10
52.7303889999999953
20
-75.9588849999999951
11
52.6351510000000005
21
-75.5779330000000016
0
LINE
8
BLACK
6
CONTINUOUS
10
52.6351510000000005
20
-75.5779330000000016
11
52.6351510000000005
21
-75.1017420000000016
0
LINE
8
BLACK
6
CONTINUOUS
10
52.6351510000000005
20
-75.1017420000000016
11
52.7303889999999953
21
-74.7207899999999938
0
LINE
8
BLACK
6
CONTINUOUS
10
52.7303889999999953
20
-74.7207899999999938
11
52.8256269999999972
21
-74.53031399999999
0
LINE
8
BLACK
6
CONTINUOUS
10
52.8256269999999972
20
-74.53031399999999
11
52.9208649999999992
21
-74.4350759999999951
0
LINE
8
BLACK
6
CONTINUOUS
10
52.9208649999999992
20
-74.4350759999999951
11
53.1113409999999959
21
-74.3398380000000003
0
LINE
8
BLACK
6
CONTINUOUS
10
54.6351510000000005
20
-76.149360999999999
11
54.7303889999999953
21
-76.2445999999999913
0
LINE
8
BLACK
6
CONTINUOUS
10
54.7303889999999953
20
-76.2445999999999913
11
54.6351510000000005
21
-76.3398380000000003
0
LINE
8
BLACK
6
CONTINUOUS
10
54.6351510000000005
20
-76.3398380000000003
11
54.5399129999999985
21
-76.2445999999999913
0
LINE
8
BLACK
6
CONTINUOUS
10
54.5399129999999985
20
-76.2445999999999913
11
54.6351510000000005
21
-76.149360999999999
0
LINE
8
BLACK
6
CONTINUOUS
10
54.6351510000000005
20
-76.149360999999999
11
54.6351510000000005
21
-76.3398380000000003
0
LINE
8
BLACK
6
CONTINUOUS
10
55.9684839999999966
20
-74.3398380000000003
11
56.1589609999999979
21
-74.3398380000000003
0
LINE
8
BLACK
6
CONTINUOUS
10
56.1589609999999979
20
-74.3398380000000003
11
56.3494369999999947
21
-74.4350759999999951
0
LINE
8
BLACK
6
CONTINUOUS
10
56.3494369999999947
20
-74.4350759999999951
11
56.4446749999999966
21
-74.53031399999999
0
LINE
8
BLACK
6
CONTINUOUS
10
56.4446749999999966
20
-74.53031399999999
11
56.5399129999999985
21
-74.7207899999999938
0
LINE
8
BLACK
6
CONTINUOUS
10
56.5399129999999985
20
-74.7207899999999938
11
56.6351510000000005
21
-75.1017420000000016
0
LINE
8
BLACK
6
CONTINUOUS
10
56.6351510000000005
20
-75.1017420000000016
11
56.6351510000000005
21
-75.5779330000000016
0
LINE
8
BLACK
6
CONTINUOUS
10
56.6351510000000005
20
-75.5779330000000016
11
56.5399129999999985
21
-75.9588849999999951
0
LINE
8
BLACK
6
CONTINUOUS
10
56.5399129999999985
20
-75.9588849999999951
11
56.4446749999999966
21
-76.149360999999999
0
LINE
8
BLACK
6
CONTINUOUS
10
56.4446749999999966
20
-76.149360999999999
11
56.3494369999999947
21
-76.2445999999999913
0
LINE
8
BLACK
6
CONTINUOUS
10
56.3494369999999947
20
-76.2445999999999913
11
56.1589609999999979
21
-76.3398380000000003
0
LINE
8
BLACK
6
CONTINUOUS
10
56.1589609999999979
20
-76.3398380000000003
11
55.9684839999999966
21
-76.3398380000000003
0
LINE
8
BLACK
6
CONTINUOUS
10
55.9684839999999966
20
-76.3398380000000003
11
55.7780079999999998
21
-76.2445999999999913
0
LINE
8
BLACK
6
CONTINUOUS
10
55.7780079999999998
20
-76.2445999999999913
11
55.6827699999999979
21
-76.149360999999999
0
LINE
8
BLACK
6
CONTINUOUS
10
55.6827699999999979
20
-76.149360999999999
11
55.5875319999999959
21
-75.9588849999999951
0
LINE
8
BLACK
6
CONTINUOUS
10
55.5875319999999959
20
-75.9588849999999951
11
55.492293999999994
21
-75.5779330000000016
0
LINE
8
BLACK
6
CONTINUOUS
10
55.492293999999994
20
-75.5779330000000016
11
55.492293999999994
21
-75.1017420000000016
0
LINE
8
BLACK
6
CONTINUOUS
10
55.492293999999994
20
-75.1017420000000016
11
55.5875319999999959
21
-74.7207899999999938
0
LINE
8
BLACK
6
CONTINUOUS
10
55.5875319999999959
20
-74.7207899999999938
11
55.6827699999999979
21
-74.53031399999999
0
LINE
8
BLACK
6
CONTINUOUS
10
55.6827699999999979
20
-74.53031399999999
11
55.7780079999999998
21
-74.4350759999999951
0
LINE
8
BLACK
6
CONTINUOUS
10
55.7780079999999998
20
-74.4350759999999951
11
55.9684839999999966
21
-74.3398380000000003
0
LINE
8
BLACK
6
CONTINUOUS
10
58.5399129999999985
20
-76.3398380000000003
11
57.3970559999999992
21
-76.3398380000000003
0
LINE
8
BLACK
6
CONTINUOUS
10
57.9684839999999966
20
-76.3398380000000003
11
57.9684839999999966
21
-74.3398380000000003
0
LINE
8
BLACK
6
CONTINUOUS
10
57.9684839999999966
20
-74.3398380000000003
11
57.7780079999999998
21
-74.625551999999999
0
LINE
8
BLACK
6
CONTINUOUS
10
57.7780079999999998
20
-74.625551999999999
11
57.5875319999999959
21
-74.8160280000000029
0
LINE
8
BLACK
6
CONTINUOUS
10
57.5875319999999959
20
-74.8160280000000029
11
57.3970559999999992
21
-74.9112659999999977
0
LINE
8
BLACK
6
CONTINUOUS
10
59.492293999999994
20
-76.3398380000000003
11
59.8732459999999946
21
-76.3398380000000003
0
LINE
8
BLACK
6
CONTINUOUS
10
59.8732459999999946
20
-76.3398380000000003
11
60.063722999999996
21
-76.2445999999999913
0
LINE
8
BLACK
6
CONTINUOUS
10
60.063722999999996
20
-76.2445999999999913
11
60.1589609999999979
21
-76.149360999999999
0
LINE
8
BLACK
6
CONTINUOUS
10
60.1589609999999979
20
-76.149360999999999
11
60.3494369999999947
21
-75.8636470000000003
0
LINE
8
BLACK
6
CONTINUOUS
10
60.3494369999999947
20
-75.8636470000000003
11
60.4446749999999966
21
-75.4826949999999925
0
LINE
8
BLACK
6
CONTINUOUS
10
60.4446749999999966
20
-75.4826949999999925
11
60.4446749999999966
21
-74.7207899999999938
0
LINE
8
BLACK
6
CONTINUOUS
10
60.4446749999999966
20
-74.7207899999999938
11
60.3494369999999947
21
-74.53031399999999
0
LINE
8
BLACK
6
CONTINUOUS
10
60.3494369999999947
20
-74.53031399999999
11
60.2541989999999998
21
-74.4350759999999951
0
LINE
8
BLACK
6
CONTINUOUS
10
60.2541989999999998
20
-74.4350759999999951
11
60.063722999999996
21
-74.3398380000000003
0
LINE
8
BLACK
6
CONTINUOUS
10
60.063722999999996
20
-74.3398380000000003
11
59.6827699999999979
21
-74.3398380000000003
0
LINE
8
BLACK
6
CONTINUOUS
10
59.6827699999999979
20
-74.3398380000000003
11
59.492293999999994
21
-74.4350759999999951
0
LINE
8
BLACK
6
CONTINUOUS
10
59.492293999999994
20
-74.4350759999999951
11
59.3970559999999992
21
-74.53031399999999
0
LINE
8
BLACK
6
CONTINUOUS
10
59.3970559999999992
20
-74.53031399999999
11
59.3018179999999973
21
-74.7207899999999938
0
LINE
8
BLACK
6
CONTINUOUS
10
59.3018179999999973
20
-74.7207899999999938
11
59.3018179999999973
21
-75.1969799999999964
0
LINE
8
BLACK
6
CONTINUOUS
10
59.3018179999999973
20
-75.1969799999999964
11
59.3970559999999992
21
-75.3874569999999977
0
LINE
8
BLACK
6
CONTINUOUS
10
59.3970559999999992
20
-75.3874569999999977
11
59.492293999999994
21
-75.4826949999999925
0
LINE
8
BLACK
6
CONTINUOUS
10
59.492293999999994
20
-75.4826949999999925
11
59.6827699999999979
21
-75.5779330000000016
0
LINE
8
BLACK
6
CONTINUOUS
10
59.6827699999999979
20
-75.5779330000000016
11
60.063722999999996
21
-75.5779330000000016
0
LINE
8
BLACK
6
CONTINUOUS
10
60.063722999999996
20
-75.5779330000000016
11
60.2541989999999998
21
-75.4826949999999925
0
LINE
8
BLACK
6
CONTINUOUS
10
60.2541989999999998
20
-75.4826949999999925
11
60.3494369999999947
21
-75.3874569999999977
0
LINE
8
BLACK
6
CONTINUOUS
10
60.3494369999999947
20
-75.3874569999999977
11
60.4446749999999966
21
-75.1969799999999964
0
LINE
8
BLACK
6
CONTINUOUS
10
61.1113420000000005
20
-74.3398380000000003
11
62.4446749999999966
21
-74.3398380000000003
0
LINE
8
BLACK
6
CONTINUOUS
10
62.4446749999999966
20
-74.3398380000000003
11
61.5875319999999959
21
-76.3398380000000003
0
LINE
8
BLACK
6
CONTINUOUS
10
63.1113420000000005
20
-74.3398380000000003
11
63.1113420000000005
21
-74.7207899999999938
0
LINE
8
BLACK
6
CONTINUOUS
10
63.8732469999999992
20
-74.3398380000000003
11
63.8732469999999992
21
-74.7207899999999938
0
LINE
8
BLACK
6
CONTINUOUS
10
66.8256289999999922
20
-77.1017420000000016
11
66.7303899999999999
21
-77.0065039999999925
0
LINE
8
BLACK
6
CONTINUOUS
10
66.7303899999999999
20
-77.0065039999999925
11
66.539913999999996
21
-76.7207899999999938
0
LINE
8
BLACK
6
CONTINUOUS
10
66.539913999999996
20
-76.7207899999999938
11
66.4446760000000012
21
-76.53031399999999
0
LINE
8
BLACK
6
CONTINUOUS
10
66.4446760000000012
20
-76.53031399999999
11
66.3494379999999921
21
-76.2445999999999913
0
LINE
8
BLACK
6
CONTINUOUS
10
66.3494379999999921
20
-76.2445999999999913
11
66.2541999999999973
21
-75.7684089999999912
0
LINE
8
BLACK
6
CONTINUOUS
10
66.2541999999999973
20
-75.7684089999999912
11
66.2541999999999973
21
-75.3874569999999977
0
LINE
8
BLACK
6
CONTINUOUS
10
66.2541999999999973
20
-75.3874569999999977
11
66.3494379999999921
21
-74.9112659999999977
0
LINE
8
BLACK
6
CONTINUOUS
10
66.3494379999999921
20
-74.9112659999999977
11
66.4446760000000012
21
-74.625551999999999
0
LINE
8
BLACK
6
CONTINUOUS
10
66.4446760000000012
20
-74.625551999999999
11
66.539913999999996
21
-74.4350759999999951
0
LINE
8
BLACK
6
CONTINUOUS
10
66.539913999999996
20
-74.4350759999999951
11
66.7303899999999999
21
-74.149360999999999
0
LINE
8
BLACK
6
CONTINUOUS
10
66.7303899999999999
20
-74.149360999999999
11
66.8256289999999922
21
-74.0541229999999899
0
LINE
8
BLACK
6
CONTINUOUS
10
68.4446760000000012
20
-75.0065039999999925
11
68.4446760000000012
21
-76.3398380000000003
0
LINE
8
BLACK
6
CONTINUOUS
10
67.9684850000000012
20
-74.2445999999999913
11
67.4922949999999986
21
-75.6731709999999964
0
LINE
8
BLACK
6
CONTINUOUS
10
67.4922949999999986
20
-75.6731709999999964
11
68.7303899999999999
21
-75.6731709999999964
0
LINE
8
BLACK
6
CONTINUOUS
10
69.7780089999999973
20
-75.1969799999999964
11
69.5875329999999934
21
-75.1017420000000016
0
LINE
8
BLACK
6
CONTINUOUS
10
69.5875329999999934
20
-75.1017420000000016
11
69.4922949999999986
21
-75.0065039999999925
0
LINE
8
BLACK
6
CONTINUOUS
10
69.4922949999999986
20
-75.0065039999999925
11
69.3970570000000038
21
-74.8160280000000029
0
LINE
8
BLACK
6
CONTINUOUS
10
69.3970570000000038
20
-74.8160280000000029
11
69.3970570000000038
21
-74.7207899999999938
0
LINE
8
BLACK
6
CONTINUOUS
10
69.3970570000000038
20
-74.7207899999999938
11
69.4922949999999986
21
-74.53031399999999
0
LINE
8
BLACK
6
CONTINUOUS
10
69.4922949999999986
20
-74.53031399999999
11
69.5875329999999934
21
-74.4350759999999951
0
LINE
8
BLACK
6
CONTINUOUS
10
69.5875329999999934
20
-74.4350759999999951
11
69.7780089999999973
21
-74.3398380000000003
0
LINE
8
BLACK
6
CONTINUOUS
10
69.7780089999999973
20
-74.3398380000000003
11
70.1589620000000025
21
-74.3398380000000003
0
LINE
8
BLACK
6
CONTINUOUS
10
70.1589620000000025
20
-74.3398380000000003
11
70.3494379999999921
21
-74.4350759999999951
0
LINE
8
BLACK
6
CONTINUOUS
10
70.3494379999999921
20
-74.4350759999999951
11
70.4446760000000012
21
-74.53031399999999
0
LINE
8
BLACK
6
CONTINUOUS
10
70.4446760000000012
20
-74.53031399999999
11
70.539913999999996
21
-74.7207899999999938
0
LINE
8
BLACK
6
CONTINUOUS
10
70.539913999999996
20
-74.7207899999999938
11
70.539913999999996
21
-74.8160280000000029
0
LINE
8
BLACK
6
CONTINUOUS
10
70.539913999999996
20
-74.8160280000000029
11
70.4446760000000012
21
-75.0065039999999925
0
LINE
8
BLACK
6
CONTINUOUS
10
70.4446760000000012
20
-75.0065039999999925
11
70.3494379999999921
21
-75.1017420000000016
0
LINE
8
BLACK
6
CONTINUOUS
10
70.3494379999999921
20
-75.1017420000000016
11
70.1589620000000025
21
-75.1969799999999964
0
LINE
8
BLACK
6
CONTINUOUS
10
70.1589620000000025
20
-75.1969799999999964
11
69.7780089999999973
21
-75.1969799999999964
0
LINE
8
BLACK
6
CONTINUOUS
10
69.7780089999999973
20
-75.1969799999999964
11
69.5875329999999934
21
-75.2922190000000029
0
LINE
8
BLACK
6
CONTINUOUS
10
69.5875329999999934
20
-75.2922190000000029
11
69.4922949999999986
21
-75.3874569999999977
0
LINE
8
BLACK
6
CONTINUOUS
10
69.4922949999999986
20
-75.3874569999999977
11
69.3970570000000038
21
-75.5779330000000016
0
LINE
8
BLACK
6
CONTINUOUS
10
69.3970570000000038
20
-75.5779330000000016
11
69.3970570000000038
21
-75.9588849999999951
0
LINE
8
BLACK
6
CONTINUOUS
10
69.3970570000000038
20
-75.9588849999999951
11
69.4922949999999986
21
-76.149360999999999
0
LINE
8
BLACK
6
CONTINUOUS
10
69.4922949999999986
20
-76.149360999999999
11
69.5875329999999934
21
-76.2445999999999913
0
LINE
8
BLACK
6
CONTINUOUS
10
69.5875329999999934
20
-76.2445999999999913
11
69.7780089999999973
21
-76.3398380000000003
0
LINE
8
BLACK
6
CONTINUOUS
10
69.7780089999999973
20
-76.3398380000000003
11
70.1589620000000025
21
-76.3398380000000003
0
LINE
8
BLACK
6
CONTINUOUS
10
70.1589620000000025
20
-76.3398380000000003
11
70.3494379999999921
21
-76.2445999999999913
0
LINE
8
BLACK
6
CONTINUOUS
10
70.3494379999999921
20
-76.2445999999999913
11
70.4446760000000012
21
-76.149360999999999
0
LINE
8
BLACK
6
CONTINUOUS
10
70.4446760000000012
20
-76.149360999999999
11
70.539913999999996
21
-75.9588849999999951
0
LINE
8
BLACK
6
CONTINUOUS
10
70.539913999999996
20
-75.9588849999999951
11
70.539913999999996
21
-75.5779330000000016
0
LINE
8
BLACK
6
CONTINUOUS
10
70.539913999999996
20
-75.5779330000000016
11
70.4446760000000012
21
-75.3874569999999977
0
LINE
8
BLACK
6
CONTINUOUS
10
70.4446760000000012
20
-75.3874569999999977
11
70.3494379999999921
21
-75.2922190000000029
0
LINE
8
BLACK
6
CONTINUOUS
10
70.3494379999999921
20
-75.2922190000000029
11
70.1589620000000025
21
-75.1969799999999964
0
LINE
8
BLACK
6
CONTINUOUS
10
72.9208670000000012
20
-76.3398380000000003
11
72.9208670000000012
21
-74.3398380000000003
0
LINE
8
BLACK
6
CONTINUOUS
10
73.7780099999999948
20
-76.3398380000000003
11
73.7780099999999948
21
-75.2922190000000029
0
LINE
8
BLACK
6
CONTINUOUS
10
73.7780099999999948
20
-75.2922190000000029
11
73.6827719999999999
21
-75.1017420000000016
0
LINE
8
BLACK
6
CONTINUOUS
10
73.6827719999999999
20
-75.1017420000000016
11
73.4922959999999961
21
-75.0065039999999925
0
LINE
8
BLACK
6
CONTINUOUS
10
73.4922959999999961
20
-75.0065039999999925
11
73.2065809999999999
21
-75.0065039999999925
0
LINE
8
BLACK
6
CONTINUOUS
10
73.2065809999999999
20
-75.0065039999999925
11
73.016104999999996
21
-75.1017420000000016
0
LINE
8
BLACK
6
CONTINUOUS
10
73.016104999999996
20
-75.1017420000000016
11
72.9208670000000012
21
-75.1969799999999964
0
LINE
8
BLACK
6
CONTINUOUS
10
75.016104999999996
20
-76.3398380000000003
11
74.8256289999999922
21
-76.2445999999999913
0
LINE
8
BLACK
6
CONTINUOUS
10
74.8256289999999922
20
-76.2445999999999913
11
74.7303909999999973
21
-76.149360999999999
0
LINE
8
BLACK
6
CONTINUOUS
10
74.7303909999999973
20
-76.149360999999999
11
74.6351530000000025
21
-75.9588849999999951
0
LINE
8
BLACK
6
CONTINUOUS
10
74.6351530000000025
20
-75.9588849999999951
11
74.6351530000000025
21
-75.3874569999999977
0
LINE
8
BLACK
6
CONTINUOUS
10
74.6351530000000025
20
-75.3874569999999977
11
74.7303909999999973
21
-75.1969799999999964
0
LINE
8
BLACK
6
CONTINUOUS
10
74.7303909999999973
20
-75.1969799999999964
11
74.8256289999999922
21
-75.1017420000000016
0
LINE
8
BLACK
6
CONTINUOUS
10
74.8256289999999922
20
-75.1017420000000016
11
75.016104999999996
21
-75.0065039999999925
0
LINE
8
BLACK
6
CONTINUOUS
10
75.016104999999996
20
-75.0065039999999925
11
75.3018199999999922
21
-75.0065039999999925
0
LINE
8
BLACK
6
CONTINUOUS
10
75.3018199999999922
20
-75.0065039999999925
11
75.4922959999999961
21
-75.1017420000000016
0
LINE
8
BLACK
6
CONTINUOUS
10
75.4922959999999961
20
-75.1017420000000016
11
75.5875339999999909
21
-75.1969799999999964
0
LINE
8
BLACK
6
CONTINUOUS
10
75.5875339999999909
20
-75.1969799999999964
11
75.6827719999999999
21
-75.3874569999999977
0
LINE
8
BLACK
6
CONTINUOUS
10
75.6827719999999999
20
-75.3874569999999977
11
75.6827719999999999
21
-75.9588849999999951
0
LINE
8
BLACK
6
CONTINUOUS
10
75.6827719999999999
20
-75.9588849999999951
11
75.5875339999999909
21
-76.149360999999999
0
LINE
8
BLACK
6
CONTINUOUS
10
75.5875339999999909
20
-76.149360999999999
11
75.4922959999999961
21
-76.2445999999999913
0
LINE
8
BLACK
6
CONTINUOUS
10
75.4922959999999961
20
-76.2445999999999913
11
75.3018199999999922
21
-76.3398380000000003
0
LINE
8
BLACK
6
CONTINUOUS
10
75.3018199999999922
20
-76.3398380000000003
11
75.016104999999996
21
-76.3398380000000003
0
LINE
8
BLACK
6
CONTINUOUS
10
76.8256289999999922
20
-76.3398380000000003
11
76.6351530000000025
21
-76.2445999999999913
0
LINE
8
BLACK
6
CONTINUOUS
10
76.6351530000000025
20
-76.2445999999999913
11
76.5399149999999935
21
-76.0541229999999899
0
LINE
8
BLACK
6
CONTINUOUS
10
76.5399149999999935
20
-76.0541229999999899
11
76.5399149999999935
21
-74.3398380000000003
0
LINE
8
BLACK
6
CONTINUOUS
10
78.3494389999999896
20
-76.2445999999999913
11
78.158963
21
-76.3398380000000003
0
LINE
8
BLACK
6
CONTINUOUS
10
78.158963
20
-76.3398380000000003
11
77.7780099999999948
21
-76.3398380000000003
0
LINE
8
BLACK
6
CONTINUOUS
10
77.7780099999999948
20
-76.3398380000000003
11
77.5875339999999909
21
-76.2445999999999913
0
LINE
8
BLACK
6
CONTINUOUS
10
77.5875339999999909
20
-76.2445999999999913
11
77.4922959999999961
21
-76.0541229999999899
0
LINE
8
BLACK
6
CONTINUOUS
10
77.4922959999999961
20
-76.0541229999999899
11
77.4922959999999961
21
-75.2922190000000029
0
LINE
8
BLACK
6
CONTINUOUS
10
77.4922959999999961
20
-75.2922190000000029
11
77.5875339999999909
21
-75.1017420000000016
0
LINE
8
BLACK
6
CONTINUOUS
10
77.5875339999999909
20
-75.1017420000000016
11
77.7780099999999948
21
-75.0065039999999925
0
LINE
8
BLACK
6
CONTINUOUS
10
77.7780099999999948
20
-75.0065039999999925
11
78.158963
21
-75.0065039999999925
0
LINE
8
BLACK
6
CONTINUOUS
10
78.158963
20
-75.0065039999999925
11
78.3494389999999896
21
-75.1017420000000016
0
LINE
8
BLACK
6
CONTINUOUS
10
78.3494389999999896
20
-75.1017420000000016
11
78.4446769999999987
21
-75.2922190000000029
0
LINE
8
BLACK
6
CONTINUOUS
10
78.4446769999999987
20
-75.2922190000000029
11
78.4446769999999987
21
-75.4826949999999925
0
LINE
8
BLACK
6
CONTINUOUS
10
78.4446769999999987
20
-75.4826949999999925
11
77.4922959999999961
21
-75.6731709999999964
0
LINE
8
BLACK
6
CONTINUOUS
10
79.2065819999999974
20
-76.2445999999999913
11
79.3970580000000012
21
-76.3398380000000003
0
LINE
8
BLACK
6
CONTINUOUS
10
79.3970580000000012
20
-76.3398380000000003
11
79.7780099999999948
21
-76.3398380000000003
0
LINE
8
BLACK
6
CONTINUOUS
10
79.7780099999999948
20
-76.3398380000000003
11
79.9684869999999961
21
-76.2445999999999913
0
LINE
8
BLACK
6
CONTINUOUS
10
79.9684869999999961
20
-76.2445999999999913
11
80.0637249999999909
21
-76.0541229999999899
0
LINE
8
BLACK
6
CONTINUOUS
10
80.0637249999999909
20
-76.0541229999999899
11
80.0637249999999909
21
-75.9588849999999951
0
LINE
8
BLACK
6
CONTINUOUS
10
80.0637249999999909
20
-75.9588849999999951
11
79.9684869999999961
21
-75.7684089999999912
0
LINE
8
BLACK
6
CONTINUOUS
10
79.9684869999999961
20
-75.7684089999999912
11
79.7780099999999948
21
-75.6731709999999964
0
LINE
8
BLACK
6
CONTINUOUS
10
79.7780099999999948
20
-75.6731709999999964
11
79.4922959999999961
21
-75.6731709999999964
0
LINE
8
BLACK
6
CONTINUOUS
10
79.4922959999999961
20
-75.6731709999999964
11
79.3018199999999922
21
-75.5779330000000016
0
LINE
8
BLACK
6
CONTINUOUS
10
79.3018199999999922
20
-75.5779330000000016
11
79.2065819999999974
21
-75.3874569999999977
0
LINE
8
BLACK
6
CONTINUOUS
10
79.2065819999999974
20
-75.3874569999999977
11
79.2065819999999974
21
-75.2922190000000029
0
LINE
8
BLACK
6
CONTINUOUS
10
79.2065819999999974
20
-75.2922190000000029
11
79.3018199999999922
21
-75.1017420000000016
0
LINE
8
BLACK
6
CONTINUOUS
10
79.3018199999999922
20
-75.1017420000000016
11
79.4922959999999961
21
-75.0065039999999925
0
LINE
8
BLACK
6
CONTINUOUS
10
79.4922959999999961
20
-75.0065039999999925
11
79.7780099999999948
21
-75.0065039999999925
0
LINE
8
BLACK
6
CONTINUOUS
10
79.7780099999999948
20
-75.0065039999999925
11
79.9684869999999961
21
-75.1017420000000016
0
LINE
8
BLACK
6
CONTINUOUS
10
80.7303919999999948
20
-77.1017420000000016
11
80.8256299999999896
21
-77.0065039999999925
0
LINE
8
BLACK
6
CONTINUOUS
10
80.8256299999999896
20
-77.0065039999999925
11
81.0161059999999935
21
-76.7207899999999938
0
LINE
8
BLACK
6
CONTINUOUS
10
81.0161059999999935
20
-76.7207899999999938
11
81.1113440000000026
21
-76.53031399999999
0
LINE
8
BLACK
6
CONTINUOUS
10
81.1113440000000026
20
-76.53031399999999
11
81.2065819999999974
21
-76.2445999999999913
0
LINE
8
BLACK
6
CONTINUOUS
10
81.2065819999999974
20
-76.2445999999999913
11
81.3018199999999922
21
-75.7684089999999912
0
LINE
8
BLACK
6
CONTINUOUS
10
81.3018199999999922
20
-75.7684089999999912
11
81.3018199999999922
21
-75.3874569999999977
0
LINE
8
BLACK
6
CONTINUOUS
10
81.3018199999999922
20
-75.3874569999999977
11
81.2065819999999974
21
-74.9112659999999977
0
LINE
8
BLACK
6
CONTINUOUS
10
81.2065819999999974
20
-74.9112659999999977
11
81.1113440000000026
21
-74.625551999999999
0
LINE
8
BLACK
6
CONTINUOUS
10
81.1113440000000026
20
-74.625551999999999
11
81.0161059999999935
21
-74.4350759999999951
0
LINE
8
BLACK
6
CONTINUOUS
10
81.0161059999999935
20
-74.4350759999999951
11
80.8256299999999896
21
-74.149360999999999
0
LINE
8
BLACK
6
CONTINUOUS
10
80.8256299999999896
20
-74.149360999999999
11
80.7303919999999948
21
-74.0541229999999899
0
LINE
8
BLACK
6
CONTINUOUS
10
84.3494400000000013
20
-77.1017420000000016
11
84.2542009999999948
21
-77.0065039999999925
0
LINE
8
BLACK
6
CONTINUOUS
10
84.2542009999999948
20
-77.0065039999999925
11
84.0637249999999909
21
-76.7207899999999938
0
LINE
8
BLACK
6
CONTINUOUS
10
84.0637249999999909
20
-76.7207899999999938
11
83.9684869999999961
21
-76.53031399999999
0
LINE
8
BLACK
6
CONTINUOUS
10
83.9684869999999961
20
-76.53031399999999
11
83.8732490000000013
21
-76.2445999999999913
0
LINE
8
BLACK
6
CONTINUOUS
10
83.8732490000000013
20
-76.2445999999999913
11
83.7780109999999922
21
-75.7684089999999912
0
LINE
8
BLACK
6
CONTINUOUS
10
83.7780109999999922
20
-75.7684089999999912
11
83.7780109999999922
21
-75.3874569999999977
0
LINE
8
BLACK
6
CONTINUOUS
10
83.7780109999999922
20
-75.3874569999999977
11
83.8732490000000013
21
-74.9112659999999977
0
LINE
8
BLACK
6
CONTINUOUS
10
83.8732490000000013
20
-74.9112659999999977
11
83.9684869999999961
21
-74.625551999999999
0
LINE
8
BLACK
6
CONTINUOUS
10
83.9684869999999961
20
-74.625551999999999
11
84.0637249999999909
21
-74.4350759999999951
0
LINE
8
BLACK
6
CONTINUOUS
10
84.0637249999999909
20
-74.4350759999999951
11
84.2542009999999948
21
-74.149360999999999
0
LINE
8
BLACK
6
CONTINUOUS
10
84.2542009999999948
20
-74.149360999999999
11
84.3494400000000013
21
-74.0541229999999899
0
LINE
8
BLACK
6
CONTINUOUS
10
85.1113440000000026
20
-75.0065039999999925
11
85.1113440000000026
21
-76.3398380000000003
0
LINE
8
BLACK
6
CONTINUOUS
10
85.1113440000000026
20
-75.1969799999999964
11
85.2065819999999974
21
-75.1017420000000016
0
LINE
8
BLACK
6
CONTINUOUS
10
85.2065819999999974
20
-75.1017420000000016
11
85.3970580000000012
21
-75.0065039999999925
0
LINE
8
BLACK
6
CONTINUOUS
10
85.3970580000000012
20
-75.0065039999999925
11
85.6827729999999974
21
-75.0065039999999925
0
LINE
8
BLACK
6
CONTINUOUS
10
85.6827729999999974
20
-75.0065039999999925
11
85.8732490000000013
21
-75.1017420000000016
0
LINE
8
BLACK
6
CONTINUOUS
10
85.8732490000000013
20
-75.1017420000000016
11
85.9684869999999961
21
-75.2922190000000029
0
LINE
8
BLACK
6
CONTINUOUS
10
85.9684869999999961
20
-75.2922190000000029
11
85.9684869999999961
21
-76.3398380000000003
0
LINE
8
BLACK
6
CONTINUOUS
10
87.2065819999999974
20
-76.3398380000000003
11
87.0161059999999935
21
-76.2445999999999913
0
LINE
8
BLACK
6
CONTINUOUS
10
87.0161059999999935
20
-76.2445999999999913
11
86.9208679999999987
21
-76.149360999999999
0
LINE
8
BLACK
6
CONTINUOUS
10
86.9208679999999987
20
-76.149360999999999
11
86.8256299999999896
21
-75.9588849999999951
0
LINE
8
BLACK
6
CONTINUOUS
10
86.8256299999999896
20
-75.9588849999999951
11
86.8256299999999896
21
-75.3874569999999977
0
LINE
8
BLACK
6
CONTINUOUS
10
86.8256299999999896
20
-75.3874569999999977
11
86.9208679999999987
21
-75.1969799999999964
0
LINE
8
BLACK
6
CONTINUOUS
10
86.9208679999999987
20
-75.1969799999999964
11
87.0161059999999935
21
-75.1017420000000016
0
LINE
8
BLACK
6
CONTINUOUS
10
87.0161059999999935
20
-75.1017420000000016
11
87.2065819999999974
21
-75.0065039999999925
0
LINE
8
BLACK
6
CONTINUOUS
10
87.2065819999999974
20
-75.0065039999999925
11
87.4922969999999935
21
-75.0065039999999925
0
LINE
8
BLACK
6
CONTINUOUS
10
87.4922969999999935
20
-75.0065039999999925
11
87.6827729999999974
21
-75.1017420000000016
0
LINE
8
BLACK
6
CONTINUOUS
10
87.6827729999999974
20
-75.1017420000000016
11
87.7780109999999922
21
-75.1969799999999964
0
LINE
8
BLACK
6
CONTINUOUS
10
87.7780109999999922
20
-75.1969799999999964
11
87.8732490000000013
21
-75.3874569999999977
0
LINE
8
BLACK
6
CONTINUOUS
10
87.8732490000000013
20
-75.3874569999999977
11
87.8732490000000013
21
-75.9588849999999951
0
LINE
8
BLACK
6
CONTINUOUS
10
87.8732490000000013
20
-75.9588849999999951
11
87.7780109999999922
21
-76.149360999999999
0
LINE
8
BLACK
6
CONTINUOUS
10
87.7780109999999922
20
-76.149360999999999
11
87.6827729999999974
21
-76.2445999999999913
0
LINE
8
BLACK
6
CONTINUOUS
10
87.6827729999999974
20
-76.2445999999999913
11
87.4922969999999935
21
-76.3398380000000003
0
LINE
8
BLACK
6
CONTINUOUS
10
87.4922969999999935
20
-76.3398380000000003
11
87.2065819999999974
21
-76.3398380000000003
0
LINE
8
BLACK
6
CONTINUOUS
10
88.4446779999999961
20
-75.0065039999999925
11
89.2065819999999974
21
-75.0065039999999925
0
LINE
8
BLACK
6
CONTINUOUS
10
88.7303919999999948
20
-74.3398380000000003
11
88.7303919999999948
21
-76.0541229999999899
0
LINE
8
BLACK
6
CONTINUOUS
10
88.7303919999999948
20
-76.0541229999999899
11
88.8256299999999896
21
-76.2445999999999913
0
LINE
8
BLACK
6
CONTINUOUS
10
88.8256299999999896
20
-76.2445999999999913
11
89.0161059999999935
21
-76.3398380000000003
0
LINE
8
BLACK
6
CONTINUOUS
10
89.0161059999999935
20
-76.3398380000000003
11
89.2065819999999974
21
-76.3398380000000003
0
LINE
8
BLACK
6
CONTINUOUS
10
91.3970589999999987
20
-75.0065039999999925
11
91.3970589999999987
21
-77.0065039999999925
0
LINE
8
BLACK
6
CONTINUOUS
10
91.3970589999999987
20
-75.1017420000000016
11
91.5875350000000026
21
-75.0065039999999925
0
LINE
8
BLACK
6
CONTINUOUS
10
91.5875350000000026
20
-75.0065039999999925
11
91.9684879999999936
21
-75.0065039999999925
0
LINE
8
BLACK
6
CONTINUOUS
10
91.9684879999999936
20
-75.0065039999999925
11
92.1589639999999974
21
-75.1017420000000016
0
LINE
8
BLACK
6
CONTINUOUS
10
92.1589639999999974
20
-75.1017420000000016
11
92.2542019999999923
21
-75.1969799999999964
0
LINE
8
BLACK
6
CONTINUOUS
10
92.2542019999999923
20
-75.1969799999999964
11
92.3494400000000013
21
-75.3874569999999977
0
LINE
8
BLACK
6
CONTINUOUS
10
92.3494400000000013
20
-75.3874569999999977
11
92.3494400000000013
21
-75.9588849999999951
0
LINE
8
BLACK
6
CONTINUOUS
10
92.3494400000000013
20
-75.9588849999999951
11
92.2542019999999923
21
-76.149360999999999
0
LINE
8
BLACK
6
CONTINUOUS
10
92.2542019999999923
20
-76.149360999999999
11
92.1589639999999974
21
-76.2445999999999913
0
LINE
8
BLACK
6
CONTINUOUS
10
92.1589639999999974
20
-76.2445999999999913
11
91.9684879999999936
21
-76.3398380000000003
0
LINE
8
BLACK
6
CONTINUOUS
10
91.9684879999999936
20
-76.3398380000000003
11
91.5875350000000026
21
-76.3398380000000003
0
LINE
8
BLACK
6
CONTINUOUS
10
91.5875350000000026
20
-76.3398380000000003
11
91.3970589999999987
21
-76.2445999999999913
0
LINE
8
BLACK
6
CONTINUOUS
10
93.4922969999999935
20
-76.3398380000000003
11
93.3018209999999897
21
-76.2445999999999913
0
LINE
8
BLACK
6
CONTINUOUS
10
93.3018209999999897
20
-76.2445999999999913
11
93.2065829999999949
21
-76.0541229999999899
0
LINE
8
BLACK
6
CONTINUOUS
10
93.2065829999999949
20
-76.0541229999999899
11
93.2065829999999949
21
-74.3398380000000003
0
LINE
8
BLACK
6
CONTINUOUS
10
95.111345
20
-76.3398380000000003
11
95.111345
21
-75.2922190000000029
0
LINE
8
BLACK
6
CONTINUOUS
10
95.111345
20
-75.2922190000000029
11
95.016106999999991
21
-75.1017420000000016
0
LINE
8
BLACK
6
CONTINUOUS
10
95.016106999999991
20
-75.1017420000000016
11
94.8256310000000013
21
-75.0065039999999925
0
LINE
8
BLACK
6
CONTINUOUS
10
94.8256310000000013
20
-75.0065039999999925
11
94.4446779999999961
21
-75.0065039999999925
0
LINE
8
BLACK
6
CONTINUOUS
10
94.4446779999999961
20
-75.0065039999999925
11
94.2542019999999923
21
-75.1017420000000016
0
LINE
8
BLACK
6
CONTINUOUS
10
95.111345
20
-76.2445999999999913
11
94.9208689999999962
21
-76.3398380000000003
0
LINE
8
BLACK
6
CONTINUOUS
10
94.9208689999999962
20
-76.3398380000000003
11
94.4446779999999961
21
-76.3398380000000003
0
LINE
8
BLACK
6
CONTINUOUS
10
94.4446779999999961
20
-76.3398380000000003
11
94.2542019999999923
21
-76.2445999999999913
0
LINE
8
BLACK
6
CONTINUOUS
10
94.2542019999999923
20
-76.2445999999999913
11
94.1589639999999974
21
-76.0541229999999899
0
LINE
8
BLACK
6
CONTINUOUS
10
94.1589639999999974
20
-76.0541229999999899
11
94.1589639999999974
21
-75.8636470000000003
0
LINE
8
BLACK
6
CONTINUOUS
10
94.1589639999999974
20
-75.8636470000000003
11
94.2542019999999923
21
-75.6731709999999964
0
LINE
8
BLACK
6
CONTINUOUS
10
94.2542019999999923
20
-75.6731709999999964
11
94.4446779999999961
21
-75.5779330000000016
0
LINE
8
BLACK
6
CONTINUOUS
10
94.4446779999999961
20
-75.5779330000000016
11
94.9208689999999962
21
-75.5779330000000016
0
LINE
8
BLACK
6
CONTINUOUS
10
94.9208689999999962
20
-75.5779330000000016
11
95.111345
21
-75.4826949999999925
0
LINE
8
BLACK
6
CONTINUOUS
10
95.7780119999999897
20
-75.0065039999999925
11
96.539915999999991
21
-75.0065039999999925
0
LINE
8
BLACK
6
CONTINUOUS
10
96.0637260000000026
20
-74.3398380000000003
11
96.0637260000000026
21
-76.0541229999999899
0
LINE
8
BLACK
6
CONTINUOUS
10
96.0637260000000026
20
-76.0541229999999899
11
96.1589639999999974
21
-76.2445999999999913
0
LINE
8
BLACK
6
CONTINUOUS
10
96.1589639999999974
20
-76.2445999999999913
11
96.3494400000000013
21
-76.3398380000000003
0
LINE
8
BLACK
6
CONTINUOUS
10
96.3494400000000013
20
-76.3398380000000003
11
96.539915999999991
21
-76.3398380000000003
0
LINE
8
BLACK
6
CONTINUOUS
10
97.9684879999999936
20
-76.2445999999999913
11
97.7780119999999897
21
-76.3398380000000003
0
LINE
8
BLACK
6
CONTINUOUS
10
97.7780119999999897
20
-76.3398380000000003
11
97.3970589999999987
21
-76.3398380000000003
0
LINE
8
BLACK
6
CONTINUOUS
10
97.3970589999999987
20
-76.3398380000000003
11
97.2065829999999949
21
-76.2445999999999913
0
LINE
8
BLACK
6
CONTINUOUS
10
97.2065829999999949
20
-76.2445999999999913
11
97.111345
21
-76.0541229999999899
0
LINE
8
BLACK
6
CONTINUOUS
10
97.111345
20
-76.0541229999999899
11
97.111345
21
-75.2922190000000029
0
LINE
8
BLACK
6
CONTINUOUS
10
97.111345
20
-75.2922190000000029
11
97.2065829999999949
21
-75.1017420000000016
0
LINE
8
BLACK
6
CONTINUOUS
10
97.2065829999999949
20
-75.1017420000000016
11
97.3970589999999987
21
-75.0065039999999925
0
LINE
8
BLACK
6
CONTINUOUS
10
97.3970589999999987
20
-75.0065039999999925
11
97.7780119999999897
21
-75.0065039999999925
0
LINE
8
BLACK
6
CONTINUOUS
10
97.7780119999999897
20
-75.0065039999999925
11
97.9684879999999936
21
-75.1017420000000016
0
LINE
8
BLACK
6
CONTINUOUS
10
97.9684879999999936
20
-75.1017420000000016
11
98.0637260000000026
21
-75.2922190000000029
0
LINE
8
BLACK
6
CONTINUOUS
10
98.0637260000000026
20
-75.2922190000000029
11
98.0637260000000026
21
-75.4826949999999925
0
LINE
8
BLACK
6
CONTINUOUS
10
98.0637260000000026
20
-75.4826949999999925
11
97.111345
21
-75.6731709999999964
0
LINE
8
BLACK
6
CONTINUOUS
10
99.7780119999999897
20
-76.3398380000000003
11
99.7780119999999897
21
-74.3398380000000003
0
LINE
8
BLACK
6
CONTINUOUS
10
99.7780119999999897
20
-76.2445999999999913
11
99.5875360000000001
21
-76.3398380000000003
0
LINE
8
BLACK
6
CONTINUOUS
10
99.5875360000000001
20
-76.3398380000000003
11
99.2065829999999949
21
-76.3398380000000003
0
LINE
8
BLACK
6
CONTINUOUS
10
99.2065829999999949
20
-76.3398380000000003
11
99.016106999999991
21
-76.2445999999999913
0
LINE
8
BLACK
6
CONTINUOUS
10
99.016106999999991
20
-76.2445999999999913
11
98.9208689999999962
21
-76.149360999999999
0
LINE
8
BLACK
6
CONTINUOUS
10
98.9208689999999962
20
-76.149360999999999
11
98.8256310000000013
21
-75.9588849999999951
0
LINE
8
BLACK
6
CONTINUOUS
10
98.8256310000000013
20
-75.9588849999999951
11
98.8256310000000013
21
-75.3874569999999977
0
LINE
8
BLACK
6
CONTINUOUS
10
98.8256310000000013
20
-75.3874569999999977
11
98.9208689999999962
21
-75.1969799999999964
0
LINE
8
BLACK
6
CONTINUOUS
10
98.9208689999999962
20
-75.1969799999999964
11
99.016106999999991
21
-75.1017420000000016
0
LINE
8
BLACK
6
CONTINUOUS
10
99.016106999999991
20
-75.1017420000000016
11
99.2065829999999949
21
-75.0065039999999925
0
LINE
8
BLACK
6
CONTINUOUS
10
99.2065829999999949
20
-75.0065039999999925
11
99.5875360000000001
21
-75.0065039999999925
0
LINE
8
BLACK
6
CONTINUOUS
10
99.5875360000000001
20
-75.0065039999999925
11
99.7780119999999897
21
-75.1017420000000016
0
LINE
8
BLACK
6
CONTINUOUS
10
100.5399169999999884
20
-77.1017420000000016
11
100.6351549999999975
21
-77.0065039999999925
0
LINE
8
BLACK
6
CONTINUOUS
10
100.6351549999999975
20
-77.0065039999999925
11
100.8256310000000013
21
-76.7207899999999938
0
LINE
8
BLACK
6
CONTINUOUS
10
100.8256310000000013
20
-76.7207899999999938
11
100.9208689999999962
21
-76.53031399999999
0
LINE
8
BLACK
6
CONTINUOUS
10
100.9208689999999962
20
-76.53031399999999
11
101.016106999999991
21
-76.2445999999999913
0
LINE
8
BLACK
6
CONTINUOUS
10
101.016106999999991
20
-76.2445999999999913
11
101.111345
21
-75.7684089999999912
0
LINE
8
BLACK
6
CONTINUOUS
10
101.111345
20
-75.7684089999999912
11
101.111345
21
-75.3874569999999977
0
LINE
8
BLACK
6
CONTINUOUS
10
101.111345
20
-75.3874569999999977
11
101.016106999999991
21
-74.9112659999999977
0
LINE
8
BLACK
6
CONTINUOUS
10
101.016106999999991
20
-74.9112659999999977
11
100.9208689999999962
21
-74.625551999999999
0
LINE
8
BLACK
6
CONTINUOUS
10
100.9208689999999962
20
-74.625551999999999
11
100.8256310000000013
21
-74.4350759999999951
0
LINE
8
BLACK
6
CONTINUOUS
10
100.8256310000000013
20
-74.4350759999999951
11
100.6351549999999975
21
-74.149360999999999
0
LINE
8
BLACK
6
CONTINUOUS
10
100.6351549999999975
20
-74.149360999999999
11
100.5399169999999884
21
-74.0541229999999899
0
CIRCLE
8
BLACK
10
30.75
20
-78.0649999999999977
40
0.325
0
LINE
8
BLACK
6
CONTINUOUS
10
34.0637199999999964
20
-76.9798380000000009
11
34.2541969999999978
21
-76.9798380000000009
0
LINE
8
BLACK
6
CONTINUOUS
10
34.2541969999999978
20
-76.9798380000000009
11
34.4446730000000017
21
-77.0750759999999957
0
LINE
8
BLACK
6
CONTINUOUS
10
34.4446730000000017
20
-77.0750759999999957
11
34.5399109999999965
21
-77.1703139999999905
0
LINE
8
BLACK
6
CONTINUOUS
10
34.5399109999999965
20
-77.1703139999999905
11
34.6351489999999984
21
-77.3607899999999944
0
LINE
8
BLACK
6
CONTINUOUS
10
34.6351489999999984
20
-77.3607899999999944
11
34.7303870000000003
21
-77.7417420000000021
0
LINE
8
BLACK
6
CONTINUOUS
10
34.7303870000000003
20
-77.7417420000000021
11
34.7303870000000003
21
-78.2179330000000022
0
LINE
8
BLACK
6
CONTINUOUS
10
34.7303870000000003
20
-78.2179330000000022
11
34.6351489999999984
21
-78.5988849999999957
0
LINE
8
BLACK
6
CONTINUOUS
10
34.6351489999999984
20
-78.5988849999999957
11
34.5399109999999965
21
-78.7893609999999995
0
LINE
8
BLACK
6
CONTINUOUS
10
34.5399109999999965
20
-78.7893609999999995
11
34.4446730000000017
21
-78.8845999999999918
0
LINE
8
BLACK
6
CONTINUOUS
10
34.4446730000000017
20
-78.8845999999999918
11
34.2541969999999978
21
-78.9798380000000009
0
LINE
8
BLACK
6
CONTINUOUS
10
34.2541969999999978
20
-78.9798380000000009
11
34.0637199999999964
21
-78.9798380000000009
0
LINE
8
BLACK
6
CONTINUOUS
10
34.0637199999999964
20
-78.9798380000000009
11
33.8732439999999997
21
-78.8845999999999918
0
LINE
8
BLACK
6
CONTINUOUS
10
33.8732439999999997
20
-78.8845999999999918
11
33.7780059999999978
21
-78.7893609999999995
0
LINE
8
BLACK
6
CONTINUOUS
10
33.7780059999999978
20
-78.7893609999999995
11
33.6827679999999958
21
-78.5988849999999957
0
LINE
8
BLACK
6
CONTINUOUS
10
33.6827679999999958
20
-78.5988849999999957
11
33.587530000000001
21
-78.2179330000000022
0
LINE
8
BLACK
6
CONTINUOUS
10
33.587530000000001
20
-78.2179330000000022
11
33.587530000000001
21
-77.7417420000000021
0
LINE
8
BLACK
6
CONTINUOUS
10
33.587530000000001
20
-77.7417420000000021
11
33.6827679999999958
21
-77.3607899999999944
0
LINE
8
BLACK
6
CONTINUOUS
10
33.6827679999999958
20
-77.3607899999999944
11
33.7780059999999978
21
-77.1703139999999905
0
LINE
8
BLACK
6
CONTINUOUS
10
33.7780059999999978
20
-77.1703139999999905
11
33.8732439999999997
21
-77.0750759999999957
0
LINE
8
BLACK
6
CONTINUOUS
10
33.8732439999999997
20
-77.0750759999999957
11
34.0637199999999964
21
-76.9798380000000009
0
LINE
8
BLACK
6
CONTINUOUS
10
35.587530000000001
20
-78.7893609999999995
11
35.6827679999999958
21
-78.8845999999999918
0
LINE
8
BLACK
6
CONTINUOUS
10
35.6827679999999958
20
-78.8845999999999918
11
35.587530000000001
21
-78.9798380000000009
0
LINE
8
BLACK
6
CONTINUOUS
10
35.587530000000001
20
-78.9798380000000009
11
35.4922919999999991
21
-78.8845999999999918
0
LINE
8
BLACK
6
CONTINUOUS
10
35.4922919999999991
20
-78.8845999999999918
11
35.587530000000001
21
-78.7893609999999995
0
LINE
8
BLACK
6
CONTINUOUS
10
35.587530000000001
20
-78.7893609999999995
11
35.587530000000001
21
-78.9798380000000009
0
LINE
8
BLACK
6
CONTINUOUS
10
37.3970539999999971
20
-76.9798380000000009
11
37.016100999999999
21
-76.9798380000000009
0
LINE
8
BLACK
6
CONTINUOUS
10
37.016100999999999
20
-76.9798380000000009
11
36.8256249999999952
21
-77.0750759999999957
0
LINE
8
BLACK
6
CONTINUOUS
10
36.8256249999999952
20
-77.0750759999999957
11
36.7303870000000003
21
-77.1703139999999905
0
LINE
8
BLACK
6
CONTINUOUS
10
36.7303870000000003
20
-77.1703139999999905
11
36.5399109999999965
21
-77.4560280000000034
0
LINE
8
BLACK
6
CONTINUOUS
10
36.5399109999999965
20
-77.4560280000000034
11
36.4446730000000017
21
-77.8369799999999969
0
LINE
8
BLACK
6
CONTINUOUS
10
36.4446730000000017
20
-77.8369799999999969
11
36.4446730000000017
21
-78.5988849999999957
0
LINE
8
BLACK
6
CONTINUOUS
10
36.4446730000000017
20
-78.5988849999999957
11
36.5399109999999965
21
-78.7893609999999995
0
LINE
8
BLACK
6
CONTINUOUS
10
36.5399109999999965
20
-78.7893609999999995
11
36.6351489999999984
21
-78.8845999999999918
0
LINE
8
BLACK
6
CONTINUOUS
10
36.6351489999999984
20
-78.8845999999999918
11
36.8256249999999952
21
-78.9798380000000009
0
LINE
8
BLACK
6
CONTINUOUS
10
36.8256249999999952
20
-78.9798380000000009
11
37.2065780000000004
21
-78.9798380000000009
0
LINE
8
BLACK
6
CONTINUOUS
10
37.2065780000000004
20
-78.9798380000000009
11
37.3970539999999971
21
-78.8845999999999918
0
LINE
8
BLACK
6
CONTINUOUS
10
37.3970539999999971
20
-78.8845999999999918
11
37.4922919999999991
21
-78.7893609999999995
0
LINE
8
BLACK
6
CONTINUOUS
10
37.4922919999999991
20
-78.7893609999999995
11
37.587530000000001
21
-78.5988849999999957
0
LINE
8
BLACK
6
CONTINUOUS
10
37.587530000000001
20
-78.5988849999999957
11
37.587530000000001
21
-78.1226949999999931
0
LINE
8
BLACK
6
CONTINUOUS
10
37.587530000000001
20
-78.1226949999999931
11
37.4922919999999991
21
-77.9322190000000035
0
LINE
8
BLACK
6
CONTINUOUS
10
37.4922919999999991
20
-77.9322190000000035
11
37.3970539999999971
21
-77.8369799999999969
0
LINE
8
BLACK
6
CONTINUOUS
10
37.3970539999999971
20
-77.8369799999999969
11
37.2065780000000004
21
-77.7417420000000021
0
LINE
8
BLACK
6
CONTINUOUS
10
37.2065780000000004
20
-77.7417420000000021
11
36.8256249999999952
21
-77.7417420000000021
0
LINE
8
BLACK
6
CONTINUOUS
10
36.8256249999999952
20
-77.7417420000000021
11
36.6351489999999984
21
-77.8369799999999969
0
LINE
8
BLACK
6
CONTINUOUS
10
36.6351489999999984
20
-77.8369799999999969
11
36.5399109999999965
21
-77.9322190000000035
0
LINE
8
BLACK
6
CONTINUOUS
10
36.5399109999999965
20
-77.9322190000000035
11
36.4446730000000017
21
-78.1226949999999931
0
LINE
8
BLACK
6
CONTINUOUS
10
39.3970539999999971
20
-76.9798380000000009
11
38.4446730000000017
21
-76.9798380000000009
0
LINE
8
BLACK
6
CONTINUOUS
10
38.4446730000000017
20
-76.9798380000000009
11
38.3494349999999997
21
-77.9322190000000035
0
LINE
8
BLACK
6
CONTINUOUS
10
38.3494349999999997
20
-77.9322190000000035
11
38.4446730000000017
21
-77.8369799999999969
0
LINE
8
BLACK
6
CONTINUOUS
10
38.4446730000000017
20
-77.8369799999999969
11
38.6351489999999984
21
-77.7417420000000021
0
LINE
8
BLACK
6
CONTINUOUS
10
38.6351489999999984
20
-77.7417420000000021
11
39.1113399999999984
21
-77.7417420000000021
0
LINE
8
BLACK
6
CONTINUOUS
10
39.1113399999999984
20
-77.7417420000000021
11
39.3018159999999952
21
-77.8369799999999969
0
LINE
8
BLACK
6
CONTINUOUS
10
39.3018159999999952
20
-77.8369799999999969
11
39.3970539999999971
21
-77.9322190000000035
0
LINE
8
BLACK
6
CONTINUOUS
10
39.3970539999999971
20
-77.9322190000000035
11
39.4922919999999991
21
-78.1226949999999931
0
LINE
8
BLACK
6
CONTINUOUS
10
39.4922919999999991
20
-78.1226949999999931
11
39.4922919999999991
21
-78.5988849999999957
0
LINE
8
BLACK
6
CONTINUOUS
10
39.4922919999999991
20
-78.5988849999999957
11
39.3970539999999971
21
-78.7893609999999995
0
LINE
8
BLACK
6
CONTINUOUS
10
39.3970539999999971
20
-78.7893609999999995
11
39.3018159999999952
21
-78.8845999999999918
0
LINE
8
BLACK
6
CONTINUOUS
10
39.3018159999999952
20
-78.8845999999999918
11
39.1113399999999984
21
-78.9798380000000009
0
LINE
8
BLACK
6
CONTINUOUS
10
39.1113399999999984
20
-78.9798380000000009
11
38.6351489999999984
21
-78.9798380000000009
0
LINE
8
BLACK
6
CONTINUOUS
10
38.6351489999999984
20
-78.9798380000000009
11
38.4446730000000017
21
-78.8845999999999918
0
LINE
8
BLACK
6
CONTINUOUS
10
38.4446730000000017
20
-78.8845999999999918
11
38.3494349999999997
21
-78.7893609999999995
0
LINE
8
BLACK
6
CONTINUOUS
10
40.7303870000000003
20
-76.9798380000000009
11
40.9208640000000017
21
-76.9798380000000009
0
LINE
8
BLACK
6
CONTINUOUS
10
40.9208640000000017
20
-76.9798380000000009
11
41.1113399999999984
21
-77.0750759999999957
0
LINE
8
BLACK
6
CONTINUOUS
10
41.1113399999999984
20
-77.0750759999999957
11
41.2065780000000004
21
-77.1703139999999905
0
LINE
8
BLACK
6
CONTINUOUS
10
41.2065780000000004
20
-77.1703139999999905
11
41.3018159999999952
21
-77.3607899999999944
0
LINE
8
BLACK
6
CONTINUOUS
10
41.3018159999999952
20
-77.3607899999999944
11
41.3970539999999971
21
-77.7417420000000021
0
LINE
8
BLACK
6
CONTINUOUS
10
41.3970539999999971
20
-77.7417420000000021
11
41.3970539999999971
21
-78.2179330000000022
0
LINE
8
BLACK
6
CONTINUOUS
10
41.3970539999999971
20
-78.2179330000000022
11
41.3018159999999952
21
-78.5988849999999957
0
LINE
8
BLACK
6
CONTINUOUS
10
41.3018159999999952
20
-78.5988849999999957
11
41.2065780000000004
21
-78.7893609999999995
0
LINE
8
BLACK
6
CONTINUOUS
10
41.2065780000000004
20
-78.7893609999999995
11
41.1113399999999984
21
-78.8845999999999918
0
LINE
8
BLACK
6
CONTINUOUS
10
41.1113399999999984
20
-78.8845999999999918
11
40.9208640000000017
21
-78.9798380000000009
0
LINE
8
BLACK
6
CONTINUOUS
10
40.9208640000000017
20
-78.9798380000000009
11
40.7303870000000003
21
-78.9798380000000009
0
LINE
8
BLACK
6
CONTINUOUS
10
40.7303870000000003
20
-78.9798380000000009
11
40.5399109999999965
21
-78.8845999999999918
0
LINE
8
BLACK
6
CONTINUOUS
10
40.5399109999999965
20
-78.8845999999999918
11
40.4446730000000017
21
-78.7893609999999995
0
LINE
8
BLACK
6
CONTINUOUS
10
40.4446730000000017
20
-78.7893609999999995
11
40.3494349999999997
21
-78.5988849999999957
0
LINE
8
BLACK
6
CONTINUOUS
10
40.3494349999999997
20
-78.5988849999999957
11
40.2541969999999978
21
-78.2179330000000022
0
LINE
8
BLACK
6
CONTINUOUS
10
40.2541969999999978
20
-78.2179330000000022
11
40.2541969999999978
21
-77.7417420000000021
0
LINE
8
BLACK
6
CONTINUOUS
10
40.2541969999999978
20
-77.7417420000000021
11
40.3494349999999997
21
-77.3607899999999944
0
LINE
8
BLACK
6
CONTINUOUS
10
40.3494349999999997
20
-77.3607899999999944
11
40.4446730000000017
21
-77.1703139999999905
0
LINE
8
BLACK
6
CONTINUOUS
10
40.4446730000000017
20
-77.1703139999999905
11
40.5399109999999965
21
-77.0750759999999957
0
LINE
8
BLACK
6
CONTINUOUS
10
40.5399109999999965
20
-77.0750759999999957
11
40.7303870000000003
21
-76.9798380000000009
0
LINE
8
BLACK
6
CONTINUOUS
10
42.2541969999999978
20
-78.9798380000000009
11
42.2541969999999978
21
-77.6465039999999931
0
LINE
8
BLACK
6
CONTINUOUS
10
42.2541969999999978
20
-77.8369799999999969
11
42.3494349999999997
21
-77.7417420000000021
0
LINE
8
BLACK
6
CONTINUOUS
10
42.3494349999999997
20
-77.7417420000000021
11
42.5399109999999965
21
-77.6465039999999931
0
LINE
8
BLACK
6
CONTINUOUS
10
42.5399109999999965
20
-77.6465039999999931
11
42.8256259999999997
21
-77.6465039999999931
0
LINE
8
BLACK
6
CONTINUOUS
10
42.8256259999999997
20
-77.6465039999999931
11
43.0161019999999965
21
-77.7417420000000021
0
LINE
8
BLACK
6
CONTINUOUS
10
43.0161019999999965
20
-77.7417420000000021
11
43.1113399999999984
21
-77.9322190000000035
0
LINE
8
BLACK
6
CONTINUOUS
10
43.1113399999999984
20
-77.9322190000000035
11
43.1113399999999984
21
-78.9798380000000009
0
LINE
8
BLACK
6
CONTINUOUS
10
43.1113399999999984
20
-77.9322190000000035
11
43.2065780000000004
21
-77.7417420000000021
0
LINE
8
BLACK
6
CONTINUOUS
10
43.2065780000000004
20
-77.7417420000000021
11
43.3970539999999971
21
-77.6465039999999931
0
LINE
8
BLACK
6
CONTINUOUS
10
43.3970539999999971
20
-77.6465039999999931
11
43.6827679999999958
21
-77.6465039999999931
0
LINE
8
BLACK
6
CONTINUOUS
10
43.6827679999999958
20
-77.6465039999999931
11
43.8732449999999972
21
-77.7417420000000021
0
LINE
8
BLACK
6
CONTINUOUS
10
43.8732449999999972
20
-77.7417420000000021
11
43.9684829999999991
21
-77.9322190000000035
0
LINE
8
BLACK
6
CONTINUOUS
10
43.9684829999999991
20
-77.9322190000000035
11
43.9684829999999991
21
-78.9798380000000009
0
LINE
8
BLACK
6
CONTINUOUS
10
44.9208639999999946
20
-78.9798380000000009
11
44.9208639999999946
21
-77.6465039999999931
0
LINE
8
BLACK
6
CONTINUOUS
10
44.9208639999999946
20
-77.8369799999999969
11
45.0161019999999965
21
-77.7417420000000021
0
LINE
8
BLACK
6
CONTINUOUS
10
45.0161019999999965
20
-77.7417420000000021
11
45.2065780000000004
21
-77.6465039999999931
0
LINE
8
BLACK
6
CONTINUOUS
10
45.2065780000000004
20
-77.6465039999999931
11
45.4922929999999965
21
-77.6465039999999931
0
LINE
8
BLACK
6
CONTINUOUS
10
45.4922929999999965
20
-77.6465039999999931
11
45.6827690000000004
21
-77.7417420000000021
0
LINE
8
BLACK
6
CONTINUOUS
10
45.6827690000000004
20
-77.7417420000000021
11
45.7780069999999952
21
-77.9322190000000035
0
LINE
8
BLACK
6
CONTINUOUS
10
45.7780069999999952
20
-77.9322190000000035
11
45.7780069999999952
21
-78.9798380000000009
0
LINE
8
BLACK
6
CONTINUOUS
10
45.7780069999999952
20
-77.9322190000000035
11
45.8732449999999972
21
-77.7417420000000021
0
LINE
8
BLACK
6
CONTINUOUS
10
45.8732449999999972
20
-77.7417420000000021
11
46.063721000000001
21
-77.6465039999999931
0
LINE
8
BLACK
6
CONTINUOUS
10
46.063721000000001
20
-77.6465039999999931
11
46.3494349999999997
21
-77.6465039999999931
0
LINE
8
BLACK
6
CONTINUOUS
10
46.3494349999999997
20
-77.6465039999999931
11
46.5399120000000011
21
-77.7417420000000021
0
LINE
8
BLACK
6
CONTINUOUS
10
46.5399120000000011
20
-77.7417420000000021
11
46.6351499999999959
21
-77.9322190000000035
0
LINE
8
BLACK
6
CONTINUOUS
10
46.6351499999999959
20
-77.9322190000000035
11
46.6351499999999959
21
-78.9798380000000009
0
LINE
8
BLACK
6
CONTINUOUS
10
50.5399120000000011
20
-76.8845999999999918
11
48.8256269999999972
21
-79.4560280000000034
0
LINE
8
BLACK
6
CONTINUOUS
10
53.1113409999999959
20
-76.9798380000000009
11
53.3018179999999973
21
-76.9798380000000009
0
LINE
8
BLACK
6
CONTINUOUS
10
53.3018179999999973
20
-76.9798380000000009
11
53.4922940000000011
21
-77.0750759999999957
0
LINE
8
BLACK
6
CONTINUOUS
10
53.4922940000000011
20
-77.0750759999999957
11
53.5875319999999959
21
-77.1703139999999905
0
LINE
8
BLACK
6
CONTINUOUS
10
53.5875319999999959
20
-77.1703139999999905
11
53.6827699999999979
21
-77.3607899999999944
0
LINE
8
BLACK
6
CONTINUOUS
10
53.6827699999999979
20
-77.3607899999999944
11
53.7780079999999998
21
-77.7417420000000021
0
LINE
8
BLACK
6
CONTINUOUS
10
53.7780079999999998
20
-77.7417420000000021
11
53.7780079999999998
21
-78.2179330000000022
0
LINE
8
BLACK
6
CONTINUOUS
10
53.7780079999999998
20
-78.2179330000000022
11
53.6827699999999979
21
-78.5988849999999957
0
LINE
8
BLACK
6
CONTINUOUS
10
53.6827699999999979
20
-78.5988849999999957
11
53.5875319999999959
21
-78.7893609999999995
0
LINE
8
BLACK
6
CONTINUOUS
10
53.5875319999999959
20
-78.7893609999999995
11
53.4922940000000011
21
-78.8845999999999918
0
LINE
8
BLACK
6
CONTINUOUS
10
53.4922940000000011
20
-78.8845999999999918
11
53.3018179999999973
21
-78.9798380000000009
0
LINE
8
BLACK
6
CONTINUOUS
10
53.3018179999999973
20
-78.9798380000000009
11
53.1113409999999959
21
-78.9798380000000009
0
LINE
8
BLACK
6
CONTINUOUS
10
53.1113409999999959
20
-78.9798380000000009
11
52.9208649999999992
21
-78.8845999999999918
0
LINE
8
BLACK
6
CONTINUOUS
10
52.9208649999999992
20
-78.8845999999999918
11
52.8256269999999972
21
-78.7893609999999995
0
LINE
8
BLACK
6
CONTINUOUS
10
52.8256269999999972
20
-78.7893609999999995
11
52.7303889999999953
21
-78.5988849999999957
0
LINE
8
BLACK
6
CONTINUOUS
10
52.7303889999999953
20
-78.5988849999999957
11
52.6351510000000005
21
-78.2179330000000022
0
LINE
8
BLACK
6
CONTINUOUS
10
52.6351510000000005
20
-78.2179330000000022
11
52.6351510000000005
21
-77.7417420000000021
0
LINE
8
BLACK
6
CONTINUOUS
10
52.6351510000000005
20
-77.7417420000000021
11
52.7303889999999953
21
-77.3607899999999944
0
LINE
8
BLACK
6
CONTINUOUS
10
52.7303889999999953
20
-77.3607899999999944
11
52.8256269999999972
21
-77.1703139999999905
0
LINE
8
BLACK
6
CONTINUOUS
10
52.8256269999999972
20
-77.1703139999999905
11
52.9208649999999992
21
-77.0750759999999957
0
LINE
8
BLACK
6
CONTINUOUS
10
52.9208649999999992
20
-77.0750759999999957
11
53.1113409999999959
21
-76.9798380000000009
0
LINE
8
BLACK
6
CONTINUOUS
10
54.6351510000000005
20
-78.7893609999999995
11
54.7303889999999953
21
-78.8845999999999918
0
LINE
8
BLACK
6
CONTINUOUS
10
54.7303889999999953
20
-78.8845999999999918
11
54.6351510000000005
21
-78.9798380000000009
0
LINE
8
BLACK
6
CONTINUOUS
10
54.6351510000000005
20
-78.9798380000000009
11
54.5399129999999985
21
-78.8845999999999918
0
LINE
8
BLACK
6
CONTINUOUS
10
54.5399129999999985
20
-78.8845999999999918
11
54.6351510000000005
21
-78.7893609999999995
0
LINE
8
BLACK
6
CONTINUOUS
10
54.6351510000000005
20
-78.7893609999999995
11
54.6351510000000005
21
-78.9798380000000009
0
LINE
8
BLACK
6
CONTINUOUS
10
55.9684839999999966
20
-76.9798380000000009
11
56.1589609999999979
21
-76.9798380000000009
0
LINE
8
BLACK
6
CONTINUOUS
10
56.1589609999999979
20
-76.9798380000000009
11
56.3494369999999947
21
-77.0750759999999957
0
LINE
8
BLACK
6
CONTINUOUS
10
56.3494369999999947
20
-77.0750759999999957
11
56.4446749999999966
21
-77.1703139999999905
0
LINE
8
BLACK
6
CONTINUOUS
10
56.4446749999999966
20
-77.1703139999999905
11
56.5399129999999985
21
-77.3607899999999944
0
LINE
8
BLACK
6
CONTINUOUS
10
56.5399129999999985
20
-77.3607899999999944
11
56.6351510000000005
21
-77.7417420000000021
0
LINE
8
BLACK
6
CONTINUOUS
10
56.6351510000000005
20
-77.7417420000000021
11
56.6351510000000005
21
-78.2179330000000022
0
LINE
8
BLACK
6
CONTINUOUS
10
56.6351510000000005
20
-78.2179330000000022
11
56.5399129999999985
21
-78.5988849999999957
0
LINE
8
BLACK
6
CONTINUOUS
10
56.5399129999999985
20
-78.5988849999999957
11
56.4446749999999966
21
-78.7893609999999995
0
LINE
8
BLACK
6
CONTINUOUS
10
56.4446749999999966
20
-78.7893609999999995
11
56.3494369999999947
21
-78.8845999999999918
0
LINE
8
BLACK
6
CONTINUOUS
10
56.3494369999999947
20
-78.8845999999999918
11
56.1589609999999979
21
-78.9798380000000009
0
LINE
8
BLACK
6
CONTINUOUS
10
56.1589609999999979
20
-78.9798380000000009
11
55.9684839999999966
21
-78.9798380000000009
0
LINE
8
BLACK
6
CONTINUOUS
10
55.9684839999999966
20
-78.9798380000000009
11
55.7780079999999998
21
-78.8845999999999918
0
LINE
8
BLACK
6
CONTINUOUS
10
55.7780079999999998
20
-78.8845999999999918
11
55.6827699999999979
21
-78.7893609999999995
0
LINE
8
BLACK
6
CONTINUOUS
10
55.6827699999999979
20
-78.7893609999999995
11
55.5875319999999959
21
-78.5988849999999957
0
LINE
8
BLACK
6
CONTINUOUS
10
55.5875319999999959
20
-78.5988849999999957
11
55.492293999999994
21
-78.2179330000000022
0
LINE
8
BLACK
6
CONTINUOUS
10
55.492293999999994
20
-78.2179330000000022
11
55.492293999999994
21
-77.7417420000000021
0
LINE
8
BLACK
6
CONTINUOUS
10
55.492293999999994
20
-77.7417420000000021
11
55.5875319999999959
21
-77.3607899999999944
0
LINE
8
BLACK
6
CONTINUOUS
10
55.5875319999999959
20
-77.3607899999999944
11
55.6827699999999979
21
-77.1703139999999905
0
LINE
8
BLACK
6
CONTINUOUS
10
55.6827699999999979
20
-77.1703139999999905
11
55.7780079999999998
21
-77.0750759999999957
0
LINE
8
BLACK
6
CONTINUOUS
10
55.7780079999999998
20
-77.0750759999999957
11
55.9684839999999966
21
-76.9798380000000009
0
LINE
8
BLACK
6
CONTINUOUS
10
57.3970559999999992
20
-77.1703139999999905
11
57.492293999999994
21
-77.0750759999999957
0
LINE
8
BLACK
6
CONTINUOUS
10
57.492293999999994
20
-77.0750759999999957
11
57.6827699999999979
21
-76.9798380000000009
0
LINE
8
BLACK
6
CONTINUOUS
10
57.6827699999999979
20
-76.9798380000000009
11
58.1589609999999979
21
-76.9798380000000009
0
LINE
8
BLACK
6
CONTINUOUS
10
58.1589609999999979
20
-76.9798380000000009
11
58.3494369999999947
21
-77.0750759999999957
0
LINE
8
BLACK
6
CONTINUOUS
10
58.3494369999999947
20
-77.0750759999999957
11
58.4446749999999966
21
-77.1703139999999905
0
LINE
8
BLACK
6
CONTINUOUS
10
58.4446749999999966
20
-77.1703139999999905
11
58.5399129999999985
21
-77.3607899999999944
0
LINE
8
BLACK
6
CONTINUOUS
10
58.5399129999999985
20
-77.3607899999999944
11
58.5399129999999985
21
-77.5512659999999983
0
LINE
8
BLACK
6
CONTINUOUS
10
58.5399129999999985
20
-77.5512659999999983
11
58.4446749999999966
21
-77.8369799999999969
0
LINE
8
BLACK
6
CONTINUOUS
10
58.4446749999999966
20
-77.8369799999999969
11
57.3018179999999973
21
-78.9798380000000009
0
LINE
8
BLACK
6
CONTINUOUS
10
57.3018179999999973
20
-78.9798380000000009
11
58.5399129999999985
21
-78.9798380000000009
0
LINE
8
BLACK
6
CONTINUOUS
10
60.3494369999999947
20
-76.9798380000000009
11
59.3970559999999992
21
-76.9798380000000009
0
LINE
8
BLACK
6
CONTINUOUS
10
59.3970559999999992
20
-76.9798380000000009
11
59.3018179999999973
21
-77.9322190000000035
0
LINE
8
BLACK
6
CONTINUOUS
10
59.3018179999999973
20
-77.9322190000000035
11
59.3970559999999992
21
-77.8369799999999969
0
LINE
8
BLACK
6
CONTINUOUS
10
59.3970559999999992
20
-77.8369799999999969
11
59.5875319999999959
21
-77.7417420000000021
0
LINE
8
BLACK
6
CONTINUOUS
10
59.5875319999999959
20
-77.7417420000000021
11
60.063722999999996
21
-77.7417420000000021
0
LINE
8
BLACK
6
CONTINUOUS
10
60.063722999999996
20
-77.7417420000000021
11
60.2541989999999998
21
-77.8369799999999969
0
LINE
8
BLACK
6
CONTINUOUS
10
60.2541989999999998
20
-77.8369799999999969
11
60.3494369999999947
21
-77.9322190000000035
0
LINE
8
BLACK
6
CONTINUOUS
10
60.3494369999999947
20
-77.9322190000000035
11
60.4446749999999966
21
-78.1226949999999931
0
LINE
8
BLACK
6
CONTINUOUS
10
60.4446749999999966
20
-78.1226949999999931
11
60.4446749999999966
21
-78.5988849999999957
0
LINE
8
BLACK
6
CONTINUOUS
10
60.4446749999999966
20
-78.5988849999999957
11
60.3494369999999947
21
-78.7893609999999995
0
LINE
8
BLACK
6
CONTINUOUS
10
60.3494369999999947
20
-78.7893609999999995
11
60.2541989999999998
21
-78.8845999999999918
0
LINE
8
BLACK
6
CONTINUOUS
10
60.2541989999999998
20
-78.8845999999999918
11
60.063722999999996
21
-78.9798380000000009
0
LINE
8
BLACK
6
CONTINUOUS
10
60.063722999999996
20
-78.9798380000000009
11
59.5875319999999959
21
-78.9798380000000009
0
LINE
8
BLACK
6
CONTINUOUS
10
59.5875319999999959
20
-78.9798380000000009
11
59.3970559999999992
21
-78.8845999999999918
0
LINE
8
BLACK
6
CONTINUOUS
10
59.3970559999999992
20
-78.8845999999999918
11
59.3018179999999973
21
-78.7893609999999995
0
LINE
8
BLACK
6
CONTINUOUS
10
62.1589609999999979
20
-76.9798380000000009
11
61.7780079999999998
21
-76.9798380000000009
0
LINE
8
BLACK
6
CONTINUOUS
10
61.7780079999999998
20
-76.9798380000000009
11
61.5875319999999959
21
-77.0750759999999957
0
LINE
8
BLACK
6
CONTINUOUS
10
61.5875319999999959
20
-77.0750759999999957
11
61.492293999999994
21
-77.1703139999999905
0
LINE
8
BLACK
6
CONTINUOUS
10
61.492293999999994
20
-77.1703139999999905
11
61.3018179999999973
21
-77.4560280000000034
0
LINE
8
BLACK
6
CONTINUOUS
10
61.3018179999999973
20
-77.4560280000000034
11
61.2065799999999953
21
-77.8369799999999969
0
LINE
8
BLACK
6
CONTINUOUS
10
61.2065799999999953
20
-77.8369799999999969
11
61.2065799999999953
21
-78.5988849999999957
0
LINE
8
BLACK
6
CONTINUOUS
10
61.2065799999999953
20
-78.5988849999999957
11
61.3018179999999973
21
-78.7893609999999995
0
LINE
8
BLACK
6
CONTINUOUS
10
61.3018179999999973
20
-78.7893609999999995
11
61.3970559999999992
21
-78.8845999999999918
0
LINE
8
BLACK
6
CONTINUOUS
10
61.3970559999999992
20
-78.8845999999999918
11
61.5875319999999959
21
-78.9798380000000009
0
LINE
8
BLACK
6
CONTINUOUS
10
61.5875319999999959
20
-78.9798380000000009
11
61.968484999999994
21
-78.9798380000000009
0
LINE
8
BLACK
6
CONTINUOUS
10
61.968484999999994
20
-78.9798380000000009
11
62.1589609999999979
21
-78.8845999999999918
0
LINE
8
BLACK
6
CONTINUOUS
10
62.1589609999999979
20
-78.8845999999999918
11
62.2541989999999998
21
-78.7893609999999995
0
LINE
8
BLACK
6
CONTINUOUS
10
62.2541989999999998
20
-78.7893609999999995
11
62.3494369999999947
21
-78.5988849999999957
0
LINE
8
BLACK
6
CONTINUOUS
10
62.3494369999999947
20
-78.5988849999999957
11
62.3494369999999947
21
-78.1226949999999931
0
LINE
8
BLACK
6
CONTINUOUS
10
62.3494369999999947
20
-78.1226949999999931
11
62.2541989999999998
21
-77.9322190000000035
0
LINE
8
BLACK
6
CONTINUOUS
10
62.2541989999999998
20
-77.9322190000000035
11
62.1589609999999979
21
-77.8369799999999969
0
LINE
8
BLACK
6
CONTINUOUS
10
62.1589609999999979
20
-77.8369799999999969
11
61.968484999999994
21
-77.7417420000000021
0
LINE
8
BLACK
6
CONTINUOUS
10
61.968484999999994
20
-77.7417420000000021
11
61.5875319999999959
21
-77.7417420000000021
0
LINE
8
BLACK
6
CONTINUOUS
10
61.5875319999999959
20
-77.7417420000000021
11
61.3970559999999992
21
-77.8369799999999969
0
LINE
8
BLACK
6
CONTINUOUS
10
61.3970559999999992
20
-77.8369799999999969
11
61.3018179999999973
21
-77.9322190000000035
0
LINE
8
BLACK
6
CONTINUOUS
10
61.3018179999999973
20
-77.9322190000000035
11
61.2065799999999953
21
-78.1226949999999931
0
LINE
8
BLACK
6
CONTINUOUS
10
63.1113420000000005
20
-76.9798380000000009
11
63.1113420000000005
21
-77.3607899999999944
0
LINE
8
BLACK
6
CONTINUOUS
10
63.8732469999999992
20
-76.9798380000000009
11
63.8732469999999992
21
-77.3607899999999944
0
LINE
8
BLACK
6
CONTINUOUS
10
66.8256289999999922
20
-79.7417420000000021
11
66.7303899999999999
21
-79.6465039999999931
0
LINE
8
BLACK
6
CONTINUOUS
10
66.7303899999999999
20
-79.6465039999999931
11
66.539913999999996
21
-79.3607899999999944
0
LINE
8
BLACK
6
CONTINUOUS
10
66.539913999999996
20
-79.3607899999999944
11
66.4446760000000012
21
-79.1703139999999905
0
LINE
8
BLACK
6
CONTINUOUS
10
66.4446760000000012
20
-79.1703139999999905
11
66.3494379999999921
21
-78.8845999999999918
0
LINE
8
BLACK
6
CONTINUOUS
10
66.3494379999999921
20
-78.8845999999999918
11
66.2541999999999973
21
-78.4084089999999918
0
LINE
8
BLACK
6
CONTINUOUS
10
66.2541999999999973
20
-78.4084089999999918
11
66.2541999999999973
21
-78.0274569999999983
0
LINE
8
BLACK
6
CONTINUOUS
10
66.2541999999999973
20
-78.0274569999999983
11
66.3494379999999921
21
-77.5512659999999983
0
LINE
8
BLACK
6
CONTINUOUS
10
66.3494379999999921
20
-77.5512659999999983
11
66.4446760000000012
21
-77.2655519999999996
0
LINE
8
BLACK
6
CONTINUOUS
10
66.4446760000000012
20
-77.2655519999999996
11
66.539913999999996
21
-77.0750759999999957
0
LINE
8
BLACK
6
CONTINUOUS
10
66.539913999999996
20
-77.0750759999999957
11
66.7303899999999999
21
-76.7893609999999995
0
LINE
8
BLACK
6
CONTINUOUS
10
66.7303899999999999
20
-76.7893609999999995
11
66.8256289999999922
21
-76.6941229999999905
0
LINE
8
BLACK
6
CONTINUOUS
10
67.4922949999999986
20
-77.1703139999999905
11
67.5875329999999934
21
-77.0750759999999957
0
LINE
8
BLACK
6
CONTINUOUS
10
67.5875329999999934
20
-77.0750759999999957
11
67.7780089999999973
21
-76.9798380000000009
0
LINE
8
BLACK
6
CONTINUOUS
10
67.7780089999999973
20
-76.9798380000000009
11
68.2541999999999973
21
-76.9798380000000009
0
LINE
8
BLACK
6
CONTINUOUS
10
68.2541999999999973
20
-76.9798380000000009
11
68.4446760000000012
21
-77.0750759999999957
0
LINE
8
BLACK
6
CONTINUOUS
10
68.4446760000000012
20
-77.0750759999999957
11
68.539913999999996
21
-77.1703139999999905
0
LINE
8
BLACK
6
CONTINUOUS
10
68.539913999999996
20
-77.1703139999999905
11
68.6351519999999908
21
-77.3607899999999944
0
LINE
8
BLACK
6
CONTINUOUS
10
68.6351519999999908
20
-77.3607899999999944
11
68.6351519999999908
21
-77.5512659999999983
0
LINE
8
BLACK
6
CONTINUOUS
10
68.6351519999999908
20
-77.5512659999999983
11
68.539913999999996
21
-77.8369799999999969
0
LINE
8
BLACK
6
CONTINUOUS
10
68.539913999999996
20
-77.8369799999999969
11
67.3970570000000038
21
-78.9798380000000009
0
LINE
8
BLACK
6
CONTINUOUS
10
67.3970570000000038
20
-78.9798380000000009
11
68.6351519999999908
21
-78.9798380000000009
0
LINE
8
BLACK
6
CONTINUOUS
10
71.016104999999996
20
-78.9798380000000009
11
71.016104999999996
21
-76.9798380000000009
0
LINE
8
BLACK
6
CONTINUOUS
10
71.8732480000000038
20
-78.9798380000000009
11
71.8732480000000038
21
-77.9322190000000035
0
LINE
8
BLACK
6
CONTINUOUS
10
71.8732480000000038
20
-77.9322190000000035
11
71.7780099999999948
21
-77.7417420000000021
0
LINE
8
BLACK
6
CONTINUOUS
10
71.7780099999999948
20
-77.7417420000000021
11
71.5875339999999909
21
-77.6465039999999931
0
LINE
8
BLACK
6
CONTINUOUS
10
71.5875339999999909
20
-77.6465039999999931
11
71.3018189999999947
21
-77.6465039999999931
0
LINE
8
BLACK
6
CONTINUOUS
10
71.3018189999999947
20
-77.6465039999999931
11
71.1113429999999909
21
-77.7417420000000021
0
LINE
8
BLACK
6
CONTINUOUS
10
71.1113429999999909
20
-77.7417420000000021
11
71.016104999999996
21
-77.8369799999999969
0
LINE
8
BLACK
6
CONTINUOUS
10
73.1113429999999909
20
-78.9798380000000009
11
72.9208670000000012
21
-78.8845999999999918
0
LINE
8
BLACK
6
CONTINUOUS
10
72.9208670000000012
20
-78.8845999999999918
11
72.8256289999999922
21
-78.7893609999999995
0
LINE
8
BLACK
6
CONTINUOUS
10
72.8256289999999922
20
-78.7893609999999995
11
72.7303909999999973
21
-78.5988849999999957
0
LINE
8
BLACK
6
CONTINUOUS
10
72.7303909999999973
20
-78.5988849999999957
11
72.7303909999999973
21
-78.0274569999999983
0
LINE
8
BLACK
6
CONTINUOUS
10
72.7303909999999973
20
-78.0274569999999983
11
72.8256289999999922
21
-77.8369799999999969
0
LINE
8
BLACK
6
CONTINUOUS
10
72.8256289999999922
20
-77.8369799999999969
11
72.9208670000000012
21
-77.7417420000000021
0
LINE
8
BLACK
6
CONTINUOUS
10
72.9208670000000012
20
-77.7417420000000021
11
73.1113429999999909
21
-77.6465039999999931
0
LINE
8
BLACK
6
CONTINUOUS
10
73.1113429999999909
20
-77.6465039999999931
11
73.3970580000000012
21
-77.6465039999999931
0
LINE
8
BLACK
6
CONTINUOUS
10
73.3970580000000012
20
-77.6465039999999931
11
73.5875339999999909
21
-77.7417420000000021
0
LINE
8
BLACK
6
CONTINUOUS
10
73.5875339999999909
20
-77.7417420000000021
11
73.6827719999999999
21
-77.8369799999999969
0
LINE
8
BLACK
6
CONTINUOUS
10
73.6827719999999999
20
-77.8369799999999969
11
73.7780099999999948
21
-78.0274569999999983
0
LINE
8
BLACK
6
CONTINUOUS
10
73.7780099999999948
20
-78.0274569999999983
11
73.7780099999999948
21
-78.5988849999999957
0
LINE
8
BLACK
6
CONTINUOUS
10
73.7780099999999948
20
-78.5988849999999957
11
73.6827719999999999
21
-78.7893609999999995
0
LINE
8
BLACK
6
CONTINUOUS
10
73.6827719999999999
20
-78.7893609999999995
11
73.5875339999999909
21
-78.8845999999999918
0
LINE
8
BLACK
6
CONTINUOUS
10
73.5875339999999909
20
-78.8845999999999918
11
73.3970580000000012
21
-78.9798380000000009
0
LINE
8
BLACK
6
CONTINUOUS
10
73.3970580000000012
20
-78.9798380000000009
11
73.1113429999999909
21
-78.9798380000000009
0
LINE
8
BLACK
6
CONTINUOUS
10
74.9208670000000012
20
-78.9798380000000009
11
74.7303909999999973
21
-78.8845999999999918
0
LINE
8
BLACK
6
CONTINUOUS
10
74.7303909999999973
20
-78.8845999999999918
11
74.6351530000000025
21
-78.6941229999999905
0
LINE
8
BLACK
6
CONTINUOUS
10
74.6351530000000025
20
-78.6941229999999905
11
74.6351530000000025
21
-76.9798380000000009
0
LINE
8
BLACK
6
CONTINUOUS
10
76.4446769999999987
20
-78.8845999999999918
11
76.2542009999999948
21
-78.9798380000000009
0
LINE
8
BLACK
6
CONTINUOUS
10
76.2542009999999948
20
-78.9798380000000009
11
75.8732479999999896
21
-78.9798380000000009
0
LINE
8
BLACK
6
CONTINUOUS
10
75.8732479999999896
20
-78.9798380000000009
11
75.6827719999999999
21
-78.8845999999999918
0
LINE
8
BLACK
6
CONTINUOUS
10
75.6827719999999999
20
-78.8845999999999918
11
75.5875339999999909
21
-78.6941229999999905
0
LINE
8
BLACK
6
CONTINUOUS
10
75.5875339999999909
20
-78.6941229999999905
11
75.5875339999999909
21
-77.9322190000000035
0
LINE
8
BLACK
6
CONTINUOUS
10
75.5875339999999909
20
-77.9322190000000035
11
75.6827719999999999
21
-77.7417420000000021
0
LINE
8
BLACK
6
CONTINUOUS
10
75.6827719999999999
20
-77.7417420000000021
11
75.8732479999999896
21
-77.6465039999999931
0
LINE
8
BLACK
6
CONTINUOUS
10
75.8732479999999896
20
-77.6465039999999931
11
76.2542009999999948
21
-77.6465039999999931
0
LINE
8
BLACK
6
CONTINUOUS
10
76.2542009999999948
20
-77.6465039999999931
11
76.4446769999999987
21
-77.7417420000000021
0
LINE
8
BLACK
6
CONTINUOUS
10
76.4446769999999987
20
-77.7417420000000021
11
76.5399149999999935
21
-77.9322190000000035
0
LINE
8
BLACK
6
CONTINUOUS
10
76.5399149999999935
20
-77.9322190000000035
11
76.5399149999999935
21
-78.1226949999999931
0
LINE
8
BLACK
6
CONTINUOUS
10
76.5399149999999935
20
-78.1226949999999931
11
75.5875339999999909
21
-78.313170999999997
0
LINE
8
BLACK
6
CONTINUOUS
10
77.3018199999999922
20
-78.8845999999999918
11
77.4922959999999961
21
-78.9798380000000009
0
LINE
8
BLACK
6
CONTINUOUS
10
77.4922959999999961
20
-78.9798380000000009
11
77.8732479999999896
21
-78.9798380000000009
0
LINE
8
BLACK
6
CONTINUOUS
10
77.8732479999999896
20
-78.9798380000000009
11
78.0637249999999909
21
-78.8845999999999918
0
LINE
8
BLACK
6
CONTINUOUS
10
78.0637249999999909
20
-78.8845999999999918
11
78.158963
21
-78.6941229999999905
0
LINE
8
BLACK
6
CONTINUOUS
10
78.158963
20
-78.6941229999999905
11
78.158963
21
-78.5988849999999957
0
LINE
8
BLACK
6
CONTINUOUS
10
78.158963
20
-78.5988849999999957
11
78.0637249999999909
21
-78.4084089999999918
0
LINE
8
BLACK
6
CONTINUOUS
10
78.0637249999999909
20
-78.4084089999999918
11
77.8732479999999896
21
-78.313170999999997
0
LINE
8
BLACK
6
CONTINUOUS
10
77.8732479999999896
20
-78.313170999999997
11
77.5875339999999909
21
-78.313170999999997
0
LINE
8
BLACK
6
CONTINUOUS
10
77.5875339999999909
20
-78.313170999999997
11
77.3970580000000012
21
-78.2179330000000022
0
LINE
8
BLACK
6
CONTINUOUS
10
77.3970580000000012
20
-78.2179330000000022
11
77.3018199999999922
21
-78.0274569999999983
0
LINE
8
BLACK
6
CONTINUOUS
10
77.3018199999999922
20
-78.0274569999999983
11
77.3018199999999922
21
-77.9322190000000035
0
LINE
8
BLACK
6
CONTINUOUS
10
77.3018199999999922
20
-77.9322190000000035
11
77.3970580000000012
21
-77.7417420000000021
0
LINE
8
BLACK
6
CONTINUOUS
10
77.3970580000000012
20
-77.7417420000000021
11
77.5875339999999909
21
-77.6465039999999931
0
LINE
8
BLACK
6
CONTINUOUS
10
77.5875339999999909
20
-77.6465039999999931
11
77.8732479999999896
21
-77.6465039999999931
0
LINE
8
BLACK
6
CONTINUOUS
10
77.8732479999999896
20
-77.6465039999999931
11
78.0637249999999909
21
-77.7417420000000021
0
LINE
8
BLACK
6
CONTINUOUS
10
78.8256299999999896
20
-79.7417420000000021
11
78.9208679999999987
21
-79.6465039999999931
0
LINE
8
BLACK
6
CONTINUOUS
10
78.9208679999999987
20
-79.6465039999999931
11
79.1113440000000026
21
-79.3607899999999944
0
LINE
8
BLACK
6
CONTINUOUS
10
79.1113440000000026
20
-79.3607899999999944
11
79.2065819999999974
21
-79.1703139999999905
0
LINE
8
BLACK
6
CONTINUOUS
10
79.2065819999999974
20
-79.1703139999999905
11
79.3018199999999922
21
-78.8845999999999918
0
LINE
8
BLACK
6
CONTINUOUS
10
79.3018199999999922
20
-78.8845999999999918
11
79.3970580000000012
21
-78.4084089999999918
0
LINE
8
BLACK
6
CONTINUOUS
10
79.3970580000000012
20
-78.4084089999999918
11
79.3970580000000012
21
-78.0274569999999983
0
LINE
8
BLACK
6
CONTINUOUS
10
79.3970580000000012
20
-78.0274569999999983
11
79.3018199999999922
21
-77.5512659999999983
0
LINE
8
BLACK
6
CONTINUOUS
10
79.3018199999999922
20
-77.5512659999999983
11
79.2065819999999974
21
-77.2655519999999996
0
LINE
8
BLACK
6
CONTINUOUS
10
79.2065819999999974
20
-77.2655519999999996
11
79.1113440000000026
21
-77.0750759999999957
0
LINE
8
BLACK
6
CONTINUOUS
10
79.1113440000000026
20
-77.0750759999999957
11
78.9208679999999987
21
-76.7893609999999995
0
LINE
8
BLACK
6
CONTINUOUS
10
78.9208679999999987
20
-76.7893609999999995
11
78.8256299999999896
21
-76.6941229999999905
0
LINE
8
BLACK
6
CONTINUOUS
10
82.4446779999999961
20
-79.7417420000000021
11
82.3494389999999896
21
-79.6465039999999931
0
LINE
8
BLACK
6
CONTINUOUS
10
82.3494389999999896
20
-79.6465039999999931
11
82.158963
21
-79.3607899999999944
0
LINE
8
BLACK
6
CONTINUOUS
10
82.158963
20
-79.3607899999999944
11
82.0637249999999909
21
-79.1703139999999905
0
LINE
8
BLACK
6
CONTINUOUS
10
82.0637249999999909
20
-79.1703139999999905
11
81.9684869999999961
21
-78.8845999999999918
0
LINE
8
BLACK
6
CONTINUOUS
10
81.9684869999999961
20
-78.8845999999999918
11
81.8732490000000013
21
-78.4084089999999918
0
LINE
8
BLACK
6
CONTINUOUS
10
81.8732490000000013
20
-78.4084089999999918
11
81.8732490000000013
21
-78.0274569999999983
0
LINE
8
BLACK
6
CONTINUOUS
10
81.8732490000000013
20
-78.0274569999999983
11
81.9684869999999961
21
-77.5512659999999983
0
LINE
8
BLACK
6
CONTINUOUS
10
81.9684869999999961
20
-77.5512659999999983
11
82.0637249999999909
21
-77.2655519999999996
0
LINE
8
BLACK
6
CONTINUOUS
10
82.0637249999999909
20
-77.2655519999999996
11
82.158963
21
-77.0750759999999957
0
LINE
8
BLACK
6
CONTINUOUS
10
82.158963
20
-77.0750759999999957
11
82.3494389999999896
21
-76.7893609999999995
0
LINE
8
BLACK
6
CONTINUOUS
10
82.3494389999999896
20
-76.7893609999999995
11
82.4446779999999961
21
-76.6941229999999905
0
LINE
8
BLACK
6
CONTINUOUS
10
83.2065819999999974
20
-77.6465039999999931
11
83.2065819999999974
21
-78.9798380000000009
0
LINE
8
BLACK
6
CONTINUOUS
10
83.2065819999999974
20
-77.8369799999999969
11
83.3018199999999922
21
-77.7417420000000021
0
LINE
8
BLACK
6
CONTINUOUS
10
83.3018199999999922
20
-77.7417420000000021
11
83.4922959999999961
21
-77.6465039999999931
0
LINE
8
BLACK
6
CONTINUOUS
10
83.4922959999999961
20
-77.6465039999999931
11
83.7780109999999922
21
-77.6465039999999931
0
LINE
8
BLACK
6
CONTINUOUS
10
83.7780109999999922
20
-77.6465039999999931
11
83.9684869999999961
21
-77.7417420000000021
0
LINE
8
BLACK
6
CONTINUOUS
10
83.9684869999999961
20
-77.7417420000000021
11
84.0637249999999909
21
-77.9322190000000035
0
LINE
8
BLACK
6
CONTINUOUS
10
84.0637249999999909
20
-77.9322190000000035
11
84.0637249999999909
21
-78.9798380000000009
0
LINE
8
BLACK
6
CONTINUOUS
10
85.3018199999999922
20
-78.9798380000000009
11
85.1113440000000026
21
-78.8845999999999918
0
LINE
8
BLACK
6
CONTINUOUS
10
85.1113440000000026
20
-78.8845999999999918
11
85.0161059999999935
21
-78.7893609999999995
0
LINE
8
BLACK
6
CONTINUOUS
10
85.0161059999999935
20
-78.7893609999999995
11
84.9208679999999987
21
-78.5988849999999957
0
LINE
8
BLACK
6
CONTINUOUS
10
84.9208679999999987
20
-78.5988849999999957
11
84.9208679999999987
21
-78.0274569999999983
0
LINE
8
BLACK
6
CONTINUOUS
10
84.9208679999999987
20
-78.0274569999999983
11
85.0161059999999935
21
-77.8369799999999969
0
LINE
8
BLACK
6
CONTINUOUS
10
85.0161059999999935
20
-77.8369799999999969
11
85.1113440000000026
21
-77.7417420000000021
0
LINE
8
BLACK
6
CONTINUOUS
10
85.1113440000000026
20
-77.7417420000000021
11
85.3018199999999922
21
-77.6465039999999931
0
LINE
8
BLACK
6
CONTINUOUS
10
85.3018199999999922
20
-77.6465039999999931
11
85.5875350000000026
21
-77.6465039999999931
0
LINE
8
BLACK
6
CONTINUOUS
10
85.5875350000000026
20
-77.6465039999999931
11
85.7780109999999922
21
-77.7417420000000021
0
LINE
8
BLACK
6
CONTINUOUS
10
85.7780109999999922
20
-77.7417420000000021
11
85.8732490000000013
21
-77.8369799999999969
0
LINE
8
BLACK
6
CONTINUOUS
10
85.8732490000000013
20
-77.8369799999999969
11
85.9684869999999961
21
-78.0274569999999983
0
LINE
8
BLACK
6
CONTINUOUS
10
85.9684869999999961
20
-78.0274569999999983
11
85.9684869999999961
21
-78.5988849999999957
0
LINE
8
BLACK
6
CONTINUOUS
10
85.9684869999999961
20
-78.5988849999999957
11
85.8732490000000013
21
-78.7893609999999995
0
LINE
8
BLACK
6
CONTINUOUS
10
85.8732490000000013
20
-78.7893609999999995
11
85.7780109999999922
21
-78.8845999999999918
0
LINE
8
BLACK
6
CONTINUOUS
10
85.7780109999999922
20
-78.8845999999999918
11
85.5875350000000026
21
-78.9798380000000009
0
LINE
8
BLACK
6
CONTINUOUS
10
85.5875350000000026
20
-78.9798380000000009
11
85.3018199999999922
21
-78.9798380000000009
0
LINE
8
BLACK
6
CONTINUOUS
10
86.539915999999991
20
-77.6465039999999931
11
87.3018199999999922
21
-77.6465039999999931
0
LINE
8
BLACK
6
CONTINUOUS
10
86.8256299999999896
20
-76.9798380000000009
11
86.8256299999999896
21
-78.6941229999999905
0
LINE
8
BLACK
6
CONTINUOUS
10
86.8256299999999896
20
-78.6941229999999905
11
86.9208679999999987
21
-78.8845999999999918
0
LINE
8
BLACK
6
CONTINUOUS
10
86.9208679999999987
20
-78.8845999999999918
11
87.1113440000000026
21
-78.9798380000000009
0
LINE
8
BLACK
6
CONTINUOUS
10
87.1113440000000026
20
-78.9798380000000009
11
87.3018199999999922
21
-78.9798380000000009
0
LINE
8
BLACK
6
CONTINUOUS
10
89.4922969999999935
20
-77.6465039999999931
11
89.4922969999999935
21
-79.6465039999999931
0
LINE
8
BLACK
6
CONTINUOUS
10
89.4922969999999935
20
-77.7417420000000021
11
89.6827729999999974
21
-77.6465039999999931
0
LINE
8
BLACK
6
CONTINUOUS
10
89.6827729999999974
20
-77.6465039999999931
11
90.0637260000000026
21
-77.6465039999999931
0
LINE
8
BLACK
6
CONTINUOUS
10
90.0637260000000026
20
-77.6465039999999931
11
90.2542019999999923
21
-77.7417420000000021
0
LINE
8
BLACK
6
CONTINUOUS
10
90.2542019999999923
20
-77.7417420000000021
11
90.3494400000000013
21
-77.8369799999999969
0
LINE
8
BLACK
6
CONTINUOUS
10
90.3494400000000013
20
-77.8369799999999969
11
90.4446779999999961
21
-78.0274569999999983
0
LINE
8
BLACK
6
CONTINUOUS
10
90.4446779999999961
20
-78.0274569999999983
11
90.4446779999999961
21
-78.5988849999999957
0
LINE
8
BLACK
6
CONTINUOUS
10
90.4446779999999961
20
-78.5988849999999957
11
90.3494400000000013
21
-78.7893609999999995
0
LINE
8
BLACK
6
CONTINUOUS
10
90.3494400000000013
20
-78.7893609999999995
11
90.2542019999999923
21
-78.8845999999999918
0
LINE
8
BLACK
6
CONTINUOUS
10
90.2542019999999923
20
-78.8845999999999918
11
90.0637260000000026
21
-78.9798380000000009
0
LINE
8
BLACK
6
CONTINUOUS
10
90.0637260000000026
20
-78.9798380000000009
11
89.6827729999999974
21
-78.9798380000000009
0
LINE
8
BLACK
6
CONTINUOUS
10
89.6827729999999974
20
-78.9798380000000009
11
89.4922969999999935
21
-78.8845999999999918
0
LINE
8
BLACK
6
CONTINUOUS
10
91.5875350000000026
20
-78.9798380000000009
11
91.3970589999999987
21
-78.8845999999999918
0
LINE
8
BLACK
6
CONTINUOUS
10
91.3970589999999987
20
-78.8845999999999918
11
91.3018209999999897
21
-78.6941229999999905
0
LINE
8
BLACK
6
CONTINUOUS
10
91.3018209999999897
20
-78.6941229999999905
11
91.3018209999999897
21
-76.9798380000000009
0
LINE
8
BLACK
6
CONTINUOUS
10
93.2065829999999949
20
-78.9798380000000009
11
93.2065829999999949
21
-77.9322190000000035
0
LINE
8
BLACK
6
CONTINUOUS
10
93.2065829999999949
20
-77.9322190000000035
11
93.111345
21
-77.7417420000000021
0
LINE
8
BLACK
6
CONTINUOUS
10
93.111345
20
-77.7417420000000021
11
92.9208689999999962
21
-77.6465039999999931
0
LINE
8
BLACK
6
CONTINUOUS
10
92.9208689999999962
20
-77.6465039999999931
11
92.539915999999991
21
-77.6465039999999931
0
LINE
8
BLACK
6
CONTINUOUS
10
92.539915999999991
20
-77.6465039999999931
11
92.3494400000000013
21
-77.7417420000000021
0
LINE
8
BLACK
6
CONTINUOUS
10
93.2065829999999949
20
-78.8845999999999918
11
93.016106999999991
21
-78.9798380000000009
0
LINE
8
BLACK
6
CONTINUOUS
10
93.016106999999991
20
-78.9798380000000009
11
92.539915999999991
21
-78.9798380000000009
0
LINE
8
BLACK
6
CONTINUOUS
10
92.539915999999991
20
-78.9798380000000009
11
92.3494400000000013
21
-78.8845999999999918
0
LINE
8
BLACK
6
CONTINUOUS
10
92.3494400000000013
20
-78.8845999999999918
11
92.2542019999999923
21
-78.6941229999999905
0
LINE
8
BLACK
6
CONTINUOUS
10
92.2542019999999923
20
-78.6941229999999905
11
92.2542019999999923
21
-78.5036470000000008
0
LINE
8
BLACK
6
CONTINUOUS
10
92.2542019999999923
20
-78.5036470000000008
11
92.3494400000000013
21
-78.313170999999997
0
LINE
8
BLACK
6
CONTINUOUS
10
92.3494400000000013
20
-78.313170999999997
11
92.539915999999991
21
-78.2179330000000022
0
LINE
8
BLACK
6
CONTINUOUS
10
92.539915999999991
20
-78.2179330000000022
11
93.016106999999991
21
-78.2179330000000022
0
LINE
8
BLACK
6
CONTINUOUS
10
93.016106999999991
20
-78.2179330000000022
11
93.2065829999999949
21
-78.1226949999999931
0
LINE
8
BLACK
6
CONTINUOUS
10
93.8732499999999987
20
-77.6465039999999931
11
94.635154
21
-77.6465039999999931
0
LINE
8
BLACK
6
CONTINUOUS
10
94.1589639999999974
20
-76.9798380000000009
11
94.1589639999999974
21
-78.6941229999999905
0
LINE
8
BLACK
6
CONTINUOUS
10
94.1589639999999974
20
-78.6941229999999905
11
94.2542019999999923
21
-78.8845999999999918
0
LINE
8
BLACK
6
CONTINUOUS
10
94.2542019999999923
20
-78.8845999999999918
11
94.4446779999999961
21
-78.9798380000000009
0
LINE
8
BLACK
6
CONTINUOUS
10
94.4446779999999961
20
-78.9798380000000009
11
94.635154
21
-78.9798380000000009
0
LINE
8
BLACK
6
CONTINUOUS
10
96.0637260000000026
20
-78.8845999999999918
11
95.8732499999999987
21
-78.9798380000000009
0
LINE
8
BLACK
6
CONTINUOUS
10
95.8732499999999987
20
-78.9798380000000009
11
95.4922969999999935
21
-78.9798380000000009
0
LINE
8
BLACK
6
CONTINUOUS
10
95.4922969999999935
20
-78.9798380000000009
11
95.3018209999999897
21
-78.8845999999999918
0
LINE
8
BLACK
6
CONTINUOUS
10
95.3018209999999897
20
-78.8845999999999918
11
95.2065829999999949
21
-78.6941229999999905
0
LINE
8
BLACK
6
CONTINUOUS
10
95.2065829999999949
20
-78.6941229999999905
11
95.2065829999999949
21
-77.9322190000000035
0
LINE
8
BLACK
6
CONTINUOUS
10
95.2065829999999949
20
-77.9322190000000035
11
95.3018209999999897
21
-77.7417420000000021
0
LINE
8
BLACK
6
CONTINUOUS
10
95.3018209999999897
20
-77.7417420000000021
11
95.4922969999999935
21
-77.6465039999999931
0
LINE
8
BLACK
6
CONTINUOUS
10
95.4922969999999935
20
-77.6465039999999931
11
95.8732499999999987
21
-77.6465039999999931
0
LINE
8
BLACK
6
CONTINUOUS
10
95.8732499999999987
20
-77.6465039999999931
11
96.0637260000000026
21
-77.7417420000000021
0
LINE
8
BLACK
6
CONTINUOUS
10
96.0637260000000026
20
-77.7417420000000021
11
96.1589639999999974
21
-77.9322190000000035
0
LINE
8
BLACK
6
CONTINUOUS
10
96.1589639999999974
20
-77.9322190000000035
11
96.1589639999999974
21
-78.1226949999999931
0
LINE
8
BLACK
6
CONTINUOUS
10
96.1589639999999974
20
-78.1226949999999931
11
95.2065829999999949
21
-78.313170999999997
0
LINE
8
BLACK
6
CONTINUOUS
10
97.8732499999999987
20
-78.9798380000000009
11
97.8732499999999987
21
-76.9798380000000009
0
LINE
8
BLACK
6
CONTINUOUS
10
97.8732499999999987
20
-78.8845999999999918
11
97.6827739999999949
21
-78.9798380000000009
0
LINE
8
BLACK
6
CONTINUOUS
10
97.6827739999999949
20
-78.9798380000000009
11
97.3018209999999897
21
-78.9798380000000009
0
LINE
8
BLACK
6
CONTINUOUS
10
97.3018209999999897
20
-78.9798380000000009
11
97.111345
21
-78.8845999999999918
0
LINE
8
BLACK
6
CONTINUOUS
10
97.111345
20
-78.8845999999999918
11
97.016106999999991
21
-78.7893609999999995
0
LINE
8
BLACK
6
CONTINUOUS
10
97.016106999999991
20
-78.7893609999999995
11
96.9208689999999962
21
-78.5988849999999957
0
LINE
8
BLACK
6
CONTINUOUS
10
96.9208689999999962
20
-78.5988849999999957
11
96.9208689999999962
21
-78.0274569999999983
0
LINE
8
BLACK
6
CONTINUOUS
10
96.9208689999999962
20
-78.0274569999999983
11
97.016106999999991
21
-77.8369799999999969
0
LINE
8
BLACK
6
CONTINUOUS
10
97.016106999999991
20
-77.8369799999999969
11
97.111345
21
-77.7417420000000021
0
LINE
8
BLACK
6
CONTINUOUS
10
97.111345
20
-77.7417420000000021
11
97.3018209999999897
21
-77.6465039999999931
0
LINE
8
BLACK
6
CONTINUOUS
10
97.3018209999999897
20
-77.6465039999999931
11
97.6827739999999949
21
-77.6465039999999931
0
LINE
8
BLACK
6
CONTINUOUS
10
97.6827739999999949
20
-77.6465039999999931
11
97.8732499999999987
21
-77.7417420000000021
0
LINE
8
BLACK
6
CONTINUOUS
10
98.6351549999999975
20
-79.7417420000000021
11
98.7303929999999923
21
-79.6465039999999931
0
LINE
8
BLACK
6
CONTINUOUS
10
98.7303929999999923
20
-79.6465039999999931
11
98.9208689999999962
21
-79.3607899999999944
0
LINE
8
BLACK
6
CONTINUOUS
10
98.9208689999999962
20
-79.3607899999999944
11
99.016106999999991
21
-79.1703139999999905
0
LINE
8
BLACK
6
CONTINUOUS
10
99.016106999999991
20
-79.1703139999999905
11
99.111345
21
-78.8845999999999918
0
LINE
8
BLACK
6
CONTINUOUS
10
99.111345
20
-78.8845999999999918
11
99.2065829999999949
21
-78.4084089999999918
0
LINE
8
BLACK
6
CONTINUOUS
10
99.2065829999999949
20
-78.4084089999999918
11
99.2065829999999949
21
-78.0274569999999983
0
LINE
8
BLACK
6
CONTINUOUS
10
99.2065829999999949
20
-78.0274569999999983
11
99.111345
21
-77.5512659999999983
0
LINE
8
BLACK
6
CONTINUOUS
10
99.111345
20
-77.5512659999999983
11
99.016106999999991
21
-77.2655519999999996
0
LINE
8
BLACK
6
CONTINUOUS
10
99.016106999999991
20
-77.2655519999999996
11
98.9208689999999962
21
-77.0750759999999957
0
LINE
8
BLACK
6
CONTINUOUS
10
98.9208689999999962
20
-77.0750759999999957
11
98.7303929999999923
21
-76.7893609999999995
0
LINE
8
BLACK
6
CONTINUOUS
10
98.7303929999999923
20
-76.7893609999999995
11
98.6351549999999975
21
-76.6941229999999905
0
LINE
8
BLACK
6
CONTINUOUS
10
30.7249999999999979
20
-80.3549999999999898
11
30.7249999999999979
21
-81.0549999999999926
0
LINE
8
BLACK
6
CONTINUOUS
10
30.375
20
-80.7049999999999983
11
31.0749999999999993
21
-80.7049999999999983
0
LINE
8
BLACK
6
CONTINUOUS
10
34.0637199999999964
20
-79.6198380000000014
11
34.2541969999999978
21
-79.6198380000000014
0
LINE
8
BLACK
6
CONTINUOUS
10
34.2541969999999978
20
-79.6198380000000014
11
34.4446730000000017
21
-79.7150759999999963
0
LINE
8
BLACK
6
CONTINUOUS
10
34.4446730000000017
20
-79.7150759999999963
11
34.5399109999999965
21
-79.8103139999999911
0
LINE
8
BLACK
6
CONTINUOUS
10
34.5399109999999965
20
-79.8103139999999911
11
34.6351489999999984
21
-80.000789999999995
0
LINE
8
BLACK
6
CONTINUOUS
10
34.6351489999999984
20
-80.000789999999995
11
34.7303870000000003
21
-80.3817420000000027
0
LINE
8
BLACK
6
CONTINUOUS
10
34.7303870000000003
20
-80.3817420000000027
11
34.7303870000000003
21
-80.8579330000000027
0
LINE
8
BLACK
6
CONTINUOUS
10
34.7303870000000003
20
-80.8579330000000027
11
34.6351489999999984
21
-81.2388849999999962
0
LINE
8
BLACK
6
CONTINUOUS
10
34.6351489999999984
20
-81.2388849999999962
11
34.5399109999999965
21
-81.4293610000000001
0
LINE
8
BLACK
6
CONTINUOUS
10
34.5399109999999965
20
-81.4293610000000001
11
34.4446730000000017
21
-81.5245999999999924
0
LINE
8
BLACK
6
CONTINUOUS
10
34.4446730000000017
20
-81.5245999999999924
11
34.2541969999999978
21
-81.6198380000000014
0
LINE
8
BLACK
6
CONTINUOUS
10
34.2541969999999978
20
-81.6198380000000014
11
34.0637199999999964
21
-81.6198380000000014
0
LINE
8
BLACK
6
CONTINUOUS
10
34.0637199999999964
20
-81.6198380000000014
11
33.8732439999999997
21
-81.5245999999999924
0
LINE
8
BLACK
6
CONTINUOUS
10
33.8732439999999997
20
-81.5245999999999924
11
33.7780059999999978
21
-81.4293610000000001
0
LINE
8
BLACK
6
CONTINUOUS
10
33.7780059999999978
20
-81.4293610000000001
11
33.6827679999999958
21
-81.2388849999999962
0
LINE
8
BLACK
6
CONTINUOUS
10
33.6827679999999958
20
-81.2388849999999962
11
33.587530000000001
21
-80.8579330000000027
0
LINE
8
BLACK
6
CONTINUOUS
10
33.587530000000001
20
-80.8579330000000027
11
33.587530000000001
21
-80.3817420000000027
0
LINE
8
BLACK
6
CONTINUOUS
10
33.587530000000001
20
-80.3817420000000027
11
33.6827679999999958
21
-80.000789999999995
0
LINE
8
BLACK
6
CONTINUOUS
10
33.6827679999999958
20
-80.000789999999995
11
33.7780059999999978
21
-79.8103139999999911
0
LINE
8
BLACK
6
CONTINUOUS
10
33.7780059999999978
20
-79.8103139999999911
11
33.8732439999999997
21
-79.7150759999999963
0
LINE
8
BLACK
6
CONTINUOUS
10
33.8732439999999997
20
-79.7150759999999963
11
34.0637199999999964
21
-79.6198380000000014
0
LINE
8
BLACK
6
CONTINUOUS
10
35.587530000000001
20
-81.4293610000000001
11
35.6827679999999958
21
-81.5245999999999924
0
LINE
8
BLACK
6
CONTINUOUS
10
35.6827679999999958
20
-81.5245999999999924
11
35.587530000000001
21
-81.6198380000000014
0
LINE
8
BLACK
6
CONTINUOUS
10
35.587530000000001
20
-81.6198380000000014
11
35.4922919999999991
21
-81.5245999999999924
0
LINE
8
BLACK
6
CONTINUOUS
10
35.4922919999999991
20
-81.5245999999999924
11
35.587530000000001
21
-81.4293610000000001
0
LINE
8
BLACK
6
CONTINUOUS
10
35.587530000000001
20
-81.4293610000000001
11
35.587530000000001
21
-81.6198380000000014
0
LINE
8
BLACK
6
CONTINUOUS
10
36.3494349999999997
20
-79.6198380000000014
11
37.6827679999999958
21
-79.6198380000000014
0
LINE
8
BLACK
6
CONTINUOUS
10
37.6827679999999958
20
-79.6198380000000014
11
36.8256249999999952
21
-81.6198380000000014
0
LINE
8
BLACK
6
CONTINUOUS
10
38.8256249999999952
20
-79.6198380000000014
11
39.0161019999999965
21
-79.6198380000000014
0
LINE
8
BLACK
6
CONTINUOUS
10
39.0161019999999965
20
-79.6198380000000014
11
39.2065780000000004
21
-79.7150759999999963
0
LINE
8
BLACK
6
CONTINUOUS
10
39.2065780000000004
20
-79.7150759999999963
11
39.3018159999999952
21
-79.8103139999999911
0
LINE
8
BLACK
6
CONTINUOUS
10
39.3018159999999952
20
-79.8103139999999911
11
39.3970539999999971
21
-80.000789999999995
0
LINE
8
BLACK
6
CONTINUOUS
10
39.3970539999999971
20
-80.000789999999995
11
39.4922919999999991
21
-80.3817420000000027
0
LINE
8
BLACK
6
CONTINUOUS
10
39.4922919999999991
20
-80.3817420000000027
11
39.4922919999999991
21
-80.8579330000000027
0
LINE
8
BLACK
6
CONTINUOUS
10
39.4922919999999991
20
-80.8579330000000027
11
39.3970539999999971
21
-81.2388849999999962
0
LINE
8
BLACK
6
CONTINUOUS
10
39.3970539999999971
20
-81.2388849999999962
11
39.3018159999999952
21
-81.4293610000000001
0
LINE
8
BLACK
6
CONTINUOUS
10
39.3018159999999952
20
-81.4293610000000001
11
39.2065780000000004
21
-81.5245999999999924
0
LINE
8
BLACK
6
CONTINUOUS
10
39.2065780000000004
20
-81.5245999999999924
11
39.0161019999999965
21
-81.6198380000000014
0
LINE
8
BLACK
6
CONTINUOUS
10
39.0161019999999965
20
-81.6198380000000014
11
38.8256249999999952
21
-81.6198380000000014
0
LINE
8
BLACK
6
CONTINUOUS
10
38.8256249999999952
20
-81.6198380000000014
11
38.6351489999999984
21
-81.5245999999999924
0
LINE
8
BLACK
6
CONTINUOUS
10
38.6351489999999984
20
-81.5245999999999924
11
38.5399109999999965
21
-81.4293610000000001
0
LINE
8
BLACK
6
CONTINUOUS
10
38.5399109999999965
20
-81.4293610000000001
11
38.4446730000000017
21
-81.2388849999999962
0
LINE
8
BLACK
6
CONTINUOUS
10
38.4446730000000017
20
-81.2388849999999962
11
38.3494349999999997
21
-80.8579330000000027
0
LINE
8
BLACK
6
CONTINUOUS
10
38.3494349999999997
20
-80.8579330000000027
11
38.3494349999999997
21
-80.3817420000000027
0
LINE
8
BLACK
6
CONTINUOUS
10
38.3494349999999997
20
-80.3817420000000027
11
38.4446730000000017
21
-80.000789999999995
0
LINE
8
BLACK
6
CONTINUOUS
10
38.4446730000000017
20
-80.000789999999995
11
38.5399109999999965
21
-79.8103139999999911
0
LINE
8
BLACK
6
CONTINUOUS
10
38.5399109999999965
20
-79.8103139999999911
11
38.6351489999999984
21
-79.7150759999999963
0
LINE
8
BLACK
6
CONTINUOUS
10
38.6351489999999984
20
-79.7150759999999963
11
38.8256249999999952
21
-79.6198380000000014
0
LINE
8
BLACK
6
CONTINUOUS
10
40.7303870000000003
20
-79.6198380000000014
11
40.9208640000000017
21
-79.6198380000000014
0
LINE
8
BLACK
6
CONTINUOUS
10
40.9208640000000017
20
-79.6198380000000014
11
41.1113399999999984
21
-79.7150759999999963
0
LINE
8
BLACK
6
CONTINUOUS
10
41.1113399999999984
20
-79.7150759999999963
11
41.2065780000000004
21
-79.8103139999999911
0
LINE
8
BLACK
6
CONTINUOUS
10
41.2065780000000004
20
-79.8103139999999911
11
41.3018159999999952
21
-80.000789999999995
0
LINE
8
BLACK
6
CONTINUOUS
10
41.3018159999999952
20
-80.000789999999995
11
41.3970539999999971
21
-80.3817420000000027
0
LINE
8
BLACK
6
CONTINUOUS
10
41.3970539999999971
20
-80.3817420000000027
11
41.3970539999999971
21
-80.8579330000000027
0
LINE
8
BLACK
6
CONTINUOUS
10
41.3970539999999971
20
-80.8579330000000027
11
41.3018159999999952
21
-81.2388849999999962
0
LINE
8
BLACK
6
CONTINUOUS
10
41.3018159999999952
20
-81.2388849999999962
11
41.2065780000000004
21
-81.4293610000000001
0
LINE
8
BLACK
6
CONTINUOUS
10
41.2065780000000004
20
-81.4293610000000001
11
41.1113399999999984
21
-81.5245999999999924
0
LINE
8
BLACK
6
CONTINUOUS
10
41.1113399999999984
20
-81.5245999999999924
11
40.9208640000000017
21
-81.6198380000000014
0
LINE
8
BLACK
6
CONTINUOUS
10
40.9208640000000017
20
-81.6198380000000014
11
40.7303870000000003
21
-81.6198380000000014
0
LINE
8
BLACK
6
CONTINUOUS
10
40.7303870000000003
20
-81.6198380000000014
11
40.5399109999999965
21
-81.5245999999999924
0
LINE
8
BLACK
6
CONTINUOUS
10
40.5399109999999965
20
-81.5245999999999924
11
40.4446730000000017
21
-81.4293610000000001
0
LINE
8
BLACK
6
CONTINUOUS
10
40.4446730000000017
20
-81.4293610000000001
11
40.3494349999999997
21
-81.2388849999999962
0
LINE
8
BLACK
6
CONTINUOUS
10
40.3494349999999997
20
-81.2388849999999962
11
40.2541969999999978
21
-80.8579330000000027
0
LINE
8
BLACK
6
CONTINUOUS
10
40.2541969999999978
20
-80.8579330000000027
11
40.2541969999999978
21
-80.3817420000000027
0
LINE
8
BLACK
6
CONTINUOUS
10
40.2541969999999978
20
-80.3817420000000027
11
40.3494349999999997
21
-80.000789999999995
0
LINE
8
BLACK
6
CONTINUOUS
10
40.3494349999999997
20
-80.000789999999995
11
40.4446730000000017
21
-79.8103139999999911
0
LINE
8
BLACK
6
CONTINUOUS
10
40.4446730000000017
20
-79.8103139999999911
11
40.5399109999999965
21
-79.7150759999999963
0
LINE
8
BLACK
6
CONTINUOUS
10
40.5399109999999965
20
-79.7150759999999963
11
40.7303870000000003
21
-79.6198380000000014
0
LINE
8
BLACK
6
CONTINUOUS
10
42.2541969999999978
20
-81.6198380000000014
11
42.2541969999999978
21
-80.2865039999999937
0
LINE
8
BLACK
6
CONTINUOUS
10
42.2541969999999978
20
-80.4769799999999975
11
42.3494349999999997
21
-80.3817420000000027
0
LINE
8
BLACK
6
CONTINUOUS
10
42.3494349999999997
20
-80.3817420000000027
11
42.5399109999999965
21
-80.2865039999999937
0
LINE
8
BLACK
6
CONTINUOUS
10
42.5399109999999965
20
-80.2865039999999937
11
42.8256259999999997
21
-80.2865039999999937
0
LINE
8
BLACK
6
CONTINUOUS
10
42.8256259999999997
20
-80.2865039999999937
11
43.0161019999999965
21
-80.3817420000000027
0
LINE
8
BLACK
6
CONTINUOUS
10
43.0161019999999965
20
-80.3817420000000027
11
43.1113399999999984
21
-80.5722189999999898
0
LINE
8
BLACK
6
CONTINUOUS
10
43.1113399999999984
20
-80.5722189999999898
11
43.1113399999999984
21
-81.6198380000000014
0
LINE
8
BLACK
6
CONTINUOUS
10
43.1113399999999984
20
-80.5722189999999898
11
43.2065780000000004
21
-80.3817420000000027
0
LINE
8
BLACK
6
CONTINUOUS
10
43.2065780000000004
20
-80.3817420000000027
11
43.3970539999999971
21
-80.2865039999999937
0
LINE
8
BLACK
6
CONTINUOUS
10
43.3970539999999971
20
-80.2865039999999937
11
43.6827679999999958
21
-80.2865039999999937
0
LINE
8
BLACK
6
CONTINUOUS
10
43.6827679999999958
20
-80.2865039999999937
11
43.8732449999999972
21
-80.3817420000000027
0
LINE
8
BLACK
6
CONTINUOUS
10
43.8732449999999972
20
-80.3817420000000027
11
43.9684829999999991
21
-80.5722189999999898
0
LINE
8
BLACK
6
CONTINUOUS
10
43.9684829999999991
20
-80.5722189999999898
11
43.9684829999999991
21
-81.6198380000000014
0
LINE
8
BLACK
6
CONTINUOUS
10
44.9208639999999946
20
-81.6198380000000014
11
44.9208639999999946
21
-80.2865039999999937
0
LINE
8
BLACK
6
CONTINUOUS
10
44.9208639999999946
20
-80.4769799999999975
11
45.0161019999999965
21
-80.3817420000000027
0
LINE
8
BLACK
6
CONTINUOUS
10
45.0161019999999965
20
-80.3817420000000027
11
45.2065780000000004
21
-80.2865039999999937
0
LINE
8
BLACK
6
CONTINUOUS
10
45.2065780000000004
20
-80.2865039999999937
11
45.4922929999999965
21
-80.2865039999999937
0
LINE
8
BLACK
6
CONTINUOUS
10
45.4922929999999965
20
-80.2865039999999937
11
45.6827690000000004
21
-80.3817420000000027
0
LINE
8
BLACK
6
CONTINUOUS
10
45.6827690000000004
20
-80.3817420000000027
11
45.7780069999999952
21
-80.5722189999999898
0
LINE
8
BLACK
6
CONTINUOUS
10
45.7780069999999952
20
-80.5722189999999898
11
45.7780069999999952
21
-81.6198380000000014
0
LINE
8
BLACK
6
CONTINUOUS
10
45.7780069999999952
20
-80.5722189999999898
11
45.8732449999999972
21
-80.3817420000000027
0
LINE
8
BLACK
6
CONTINUOUS
10
45.8732449999999972
20
-80.3817420000000027
11
46.063721000000001
21
-80.2865039999999937
0
LINE
8
BLACK
6
CONTINUOUS
10
46.063721000000001
20
-80.2865039999999937
11
46.3494349999999997
21
-80.2865039999999937
0
LINE
8
BLACK
6
CONTINUOUS
10
46.3494349999999997
20
-80.2865039999999937
11
46.5399120000000011
21
-80.3817420000000027
0
LINE
8
BLACK
6
CONTINUOUS
10
46.5399120000000011
20
-80.3817420000000027
11
46.6351499999999959
21
-80.5722189999999898
0
LINE
8
BLACK
6
CONTINUOUS
10
46.6351499999999959
20
-80.5722189999999898
11
46.6351499999999959
21
-81.6198380000000014
0
LINE
8
BLACK
6
CONTINUOUS
10
50.5399120000000011
20
-79.5245999999999924
11
48.8256269999999972
21
-82.0960279999999898
0
LINE
8
BLACK
6
CONTINUOUS
10
53.1113409999999959
20
-79.6198380000000014
11
53.3018179999999973
21
-79.6198380000000014
0
LINE
8
BLACK
6
CONTINUOUS
10
53.3018179999999973
20
-79.6198380000000014
11
53.4922940000000011
21
-79.7150759999999963
0
LINE
8
BLACK
6
CONTINUOUS
10
53.4922940000000011
20
-79.7150759999999963
11
53.5875319999999959
21
-79.8103139999999911
0
LINE
8
BLACK
6
CONTINUOUS
10
53.5875319999999959
20
-79.8103139999999911
11
53.6827699999999979
21
-80.000789999999995
0
LINE
8
BLACK
6
CONTINUOUS
10
53.6827699999999979
20
-80.000789999999995
11
53.7780079999999998
21
-80.3817420000000027
0
LINE
8
BLACK
6
CONTINUOUS
10
53.7780079999999998
20
-80.3817420000000027
11
53.7780079999999998
21
-80.8579330000000027
0
LINE
8
BLACK
6
CONTINUOUS
10
53.7780079999999998
20
-80.8579330000000027
11
53.6827699999999979
21
-81.2388849999999962
0
LINE
8
BLACK
6
CONTINUOUS
10
53.6827699999999979
20
-81.2388849999999962
11
53.5875319999999959
21
-81.4293610000000001
0
LINE
8
BLACK
6
CONTINUOUS
10
53.5875319999999959
20
-81.4293610000000001
11
53.4922940000000011
21
-81.5245999999999924
0
LINE
8
BLACK
6
CONTINUOUS
10
53.4922940000000011
20
-81.5245999999999924
11
53.3018179999999973
21
-81.6198380000000014
0
LINE
8
BLACK
6
CONTINUOUS
10
53.3018179999999973
20
-81.6198380000000014
11
53.1113409999999959
21
-81.6198380000000014
0
LINE
8
BLACK
6
CONTINUOUS
10
53.1113409999999959
20
-81.6198380000000014
11
52.9208649999999992
21
-81.5245999999999924
0
LINE
8
BLACK
6
CONTINUOUS
10
52.9208649999999992
20
-81.5245999999999924
11
52.8256269999999972
21
-81.4293610000000001
0
LINE
8
BLACK
6
CONTINUOUS
10
52.8256269999999972
20
-81.4293610000000001
11
52.7303889999999953
21
-81.2388849999999962
0
LINE
8
BLACK
6
CONTINUOUS
10
52.7303889999999953
20
-81.2388849999999962
11
52.6351510000000005
21
-80.8579330000000027
0
LINE
8
BLACK
6
CONTINUOUS
10
52.6351510000000005
20
-80.8579330000000027
11
52.6351510000000005
21
-80.3817420000000027
0
LINE
8
BLACK
6
CONTINUOUS
10
52.6351510000000005
20
-80.3817420000000027
11
52.7303889999999953
21
-80.000789999999995
0
LINE
8
BLACK
6
CONTINUOUS
10
52.7303889999999953
20
-80.000789999999995
11
52.8256269999999972
21
-79.8103139999999911
0
LINE
8
BLACK
6
CONTINUOUS
10
52.8256269999999972
20
-79.8103139999999911
11
52.9208649999999992
21
-79.7150759999999963
0
LINE
8
BLACK
6
CONTINUOUS
10
52.9208649999999992
20
-79.7150759999999963
11
53.1113409999999959
21
-79.6198380000000014
0
LINE
8
BLACK
6
CONTINUOUS
10
54.6351510000000005
20
-81.4293610000000001
11
54.7303889999999953
21
-81.5245999999999924
0
LINE
8
BLACK
6
CONTINUOUS
10
54.7303889999999953
20
-81.5245999999999924
11
54.6351510000000005
21
-81.6198380000000014
0
LINE
8
BLACK
6
CONTINUOUS
10
54.6351510000000005
20
-81.6198380000000014
11
54.5399129999999985
21
-81.5245999999999924
0
LINE
8
BLACK
6
CONTINUOUS
10
54.5399129999999985
20
-81.5245999999999924
11
54.6351510000000005
21
-81.4293610000000001
0
LINE
8
BLACK
6
CONTINUOUS
10
54.6351510000000005
20
-81.4293610000000001
11
54.6351510000000005
21
-81.6198380000000014
0
LINE
8
BLACK
6
CONTINUOUS
10
55.9684839999999966
20
-79.6198380000000014
11
56.1589609999999979
21
-79.6198380000000014
0
LINE
8
BLACK
6
CONTINUOUS
10
56.1589609999999979
20
-79.6198380000000014
11
56.3494369999999947
21
-79.7150759999999963
0
LINE
8
BLACK
6
CONTINUOUS
10
56.3494369999999947
20
-79.7150759999999963
11
56.4446749999999966
21
-79.8103139999999911
0
LINE
8
BLACK
6
CONTINUOUS
10
56.4446749999999966
20
-79.8103139999999911
11
56.5399129999999985
21
-80.000789999999995
0
LINE
8
BLACK
6
CONTINUOUS
10
56.5399129999999985
20
-80.000789999999995
11
56.6351510000000005
21
-80.3817420000000027
0
LINE
8
BLACK
6
CONTINUOUS
10
56.6351510000000005
20
-80.3817420000000027
11
56.6351510000000005
21
-80.8579330000000027
0
LINE
8
BLACK
6
CONTINUOUS
10
56.6351510000000005
20
-80.8579330000000027
11
56.5399129999999985
21
-81.2388849999999962
0
LINE
8
BLACK
6
CONTINUOUS
10
56.5399129999999985
20
-81.2388849999999962
11
56.4446749999999966
21
-81.4293610000000001
0
LINE
8
BLACK
6
CONTINUOUS
10
56.4446749999999966
20
-81.4293610000000001
11
56.3494369999999947
21
-81.5245999999999924
0
LINE
8
BLACK
6
CONTINUOUS
10
56.3494369999999947
20
-81.5245999999999924
11
56.1589609999999979
21
-81.6198380000000014
0
LINE
8
BLACK
6
CONTINUOUS
10
56.1589609999999979
20
-81.6198380000000014
11
55.9684839999999966
21
-81.6198380000000014
0
LINE
8
BLACK
6
CONTINUOUS
10
55.9684839999999966
20
-81.6198380000000014
11
55.7780079999999998
21
-81.5245999999999924
0
LINE
8
BLACK
6
CONTINUOUS
10
55.7780079999999998
20
-81.5245999999999924
11
55.6827699999999979
21
-81.4293610000000001
0
LINE
8
BLACK
6
CONTINUOUS
10
55.6827699999999979
20
-81.4293610000000001
11
55.5875319999999959
21
-81.2388849999999962
0
LINE
8
BLACK
6
CONTINUOUS
10
55.5875319999999959
20
-81.2388849999999962
11
55.492293999999994
21
-80.8579330000000027
0
LINE
8
BLACK
6
CONTINUOUS
10
55.492293999999994
20
-80.8579330000000027
11
55.492293999999994
21
-80.3817420000000027
0
LINE
8
BLACK
6
CONTINUOUS
10
55.492293999999994
20
-80.3817420000000027
11
55.5875319999999959
21
-80.000789999999995
0
LINE
8
BLACK
6
CONTINUOUS
10
55.5875319999999959
20
-80.000789999999995
11
55.6827699999999979
21
-79.8103139999999911
0
LINE
8
BLACK
6
CONTINUOUS
10
55.6827699999999979
20
-79.8103139999999911
11
55.7780079999999998
21
-79.7150759999999963
0
LINE
8
BLACK
6
CONTINUOUS
10
55.7780079999999998
20
-79.7150759999999963
11
55.9684839999999966
21
-79.6198380000000014
0
LINE
8
BLACK
6
CONTINUOUS
10
57.3970559999999992
20
-79.8103139999999911
11
57.492293999999994
21
-79.7150759999999963
0
LINE
8
BLACK
6
CONTINUOUS
10
57.492293999999994
20
-79.7150759999999963
11
57.6827699999999979
21
-79.6198380000000014
0
LINE
8
BLACK
6
CONTINUOUS
10
57.6827699999999979
20
-79.6198380000000014
11
58.1589609999999979
21
-79.6198380000000014
0
LINE
8
BLACK
6
CONTINUOUS
10
58.1589609999999979
20
-79.6198380000000014
11
58.3494369999999947
21
-79.7150759999999963
0
LINE
8
BLACK
6
CONTINUOUS
10
58.3494369999999947
20
-79.7150759999999963
11
58.4446749999999966
21
-79.8103139999999911
0
LINE
8
BLACK
6
CONTINUOUS
10
58.4446749999999966
20
-79.8103139999999911
11
58.5399129999999985
21
-80.000789999999995
0
LINE
8
BLACK
6
CONTINUOUS
10
58.5399129999999985
20
-80.000789999999995
11
58.5399129999999985
21
-80.1912659999999988
0
LINE
8
BLACK
6
CONTINUOUS
10
58.5399129999999985
20
-80.1912659999999988
11
58.4446749999999966
21
-80.4769799999999975
0
LINE
8
BLACK
6
CONTINUOUS
10
58.4446749999999966
20
-80.4769799999999975
11
57.3018179999999973
21
-81.6198380000000014
0
LINE
8
BLACK
6
CONTINUOUS
10
57.3018179999999973
20
-81.6198380000000014
11
58.5399129999999985
21
-81.6198380000000014
0
LINE
8
BLACK
6
CONTINUOUS
10
59.2065799999999953
20
-79.6198380000000014
11
60.5399129999999985
21
-79.6198380000000014
0
LINE
8
BLACK
6
CONTINUOUS
10
60.5399129999999985
20
-79.6198380000000014
11
59.6827699999999979
21
-81.6198380000000014
0
LINE
8
BLACK
6
CONTINUOUS
10
62.1589609999999979
20
-79.6198380000000014
11
61.7780079999999998
21
-79.6198380000000014
0
LINE
8
BLACK
6
CONTINUOUS
10
61.7780079999999998
20
-79.6198380000000014
11
61.5875319999999959
21
-79.7150759999999963
0
LINE
8
BLACK
6
CONTINUOUS
10
61.5875319999999959
20
-79.7150759999999963
11
61.492293999999994
21
-79.8103139999999911
0
LINE
8
BLACK
6
CONTINUOUS
10
61.492293999999994
20
-79.8103139999999911
11
61.3018179999999973
21
-80.0960279999999898
0
LINE
8
BLACK
6
CONTINUOUS
10
61.3018179999999973
20
-80.0960279999999898
11
61.2065799999999953
21
-80.4769799999999975
0
LINE
8
BLACK
6
CONTINUOUS
10
61.2065799999999953
20
-80.4769799999999975
11
61.2065799999999953
21
-81.2388849999999962
0
LINE
8
BLACK
6
CONTINUOUS
10
61.2065799999999953
20
-81.2388849999999962
11
61.3018179999999973
21
-81.4293610000000001
0
LINE
8
BLACK
6
CONTINUOUS
10
61.3018179999999973
20
-81.4293610000000001
11
61.3970559999999992
21
-81.5245999999999924
0
LINE
8
BLACK
6
CONTINUOUS
10
61.3970559999999992
20
-81.5245999999999924
11
61.5875319999999959
21
-81.6198380000000014
0
LINE
8
BLACK
6
CONTINUOUS
10
61.5875319999999959
20
-81.6198380000000014
11
61.968484999999994
21
-81.6198380000000014
0
LINE
8
BLACK
6
CONTINUOUS
10
61.968484999999994
20
-81.6198380000000014
11
62.1589609999999979
21
-81.5245999999999924
0
LINE
8
BLACK
6
CONTINUOUS
10
62.1589609999999979
20
-81.5245999999999924
11
62.2541989999999998
21
-81.4293610000000001
0
LINE
8
BLACK
6
CONTINUOUS
10
62.2541989999999998
20
-81.4293610000000001
11
62.3494369999999947
21
-81.2388849999999962
0
LINE
8
BLACK
6
CONTINUOUS
10
62.3494369999999947
20
-81.2388849999999962
11
62.3494369999999947
21
-80.7626949999999937
0
LINE
8
BLACK
6
CONTINUOUS
10
62.3494369999999947
20
-80.7626949999999937
11
62.2541989999999998
21
-80.5722189999999898
0
LINE
8
BLACK
6
CONTINUOUS
10
62.2541989999999998
20
-80.5722189999999898
11
62.1589609999999979
21
-80.4769799999999975
0
LINE
8
BLACK
6
CONTINUOUS
10
62.1589609999999979
20
-80.4769799999999975
11
61.968484999999994
21
-80.3817420000000027
0
LINE
8
BLACK
6
CONTINUOUS
10
61.968484999999994
20
-80.3817420000000027
11
61.5875319999999959
21
-80.3817420000000027
0
LINE
8
BLACK
6
CONTINUOUS
10
61.5875319999999959
20
-80.3817420000000027
11
61.3970559999999992
21
-80.4769799999999975
0
LINE
8
BLACK
6
CONTINUOUS
10
61.3970559999999992
20
-80.4769799999999975
11
61.3018179999999973
21
-80.5722189999999898
0
LINE
8
BLACK
6
CONTINUOUS
10
61.3018179999999973
20
-80.5722189999999898
11
61.2065799999999953
21
-80.7626949999999937
0
LINE
8
BLACK
6
CONTINUOUS
10
63.1113420000000005
20
-79.6198380000000014
11
63.1113420000000005
21
-80.000789999999995
0
LINE
8
BLACK
6
CONTINUOUS
10
63.8732469999999992
20
-79.6198380000000014
11
63.8732469999999992
21
-80.000789999999995
0
LINE
8
BLACK
6
CONTINUOUS
10
66.8256289999999922
20
-82.3817420000000027
11
66.7303899999999999
21
-82.2865039999999937
0
LINE
8
BLACK
6
CONTINUOUS
10
66.7303899999999999
20
-82.2865039999999937
11
66.539913999999996
21
-82.000789999999995
0
LINE
8
BLACK
6
CONTINUOUS
10
66.539913999999996
20
-82.000789999999995
11
66.4446760000000012
21
-81.8103139999999911
0
LINE
8
BLACK
6
CONTINUOUS
10
66.4446760000000012
20
-81.8103139999999911
11
66.3494379999999921
21
-81.5245999999999924
0
LINE
8
BLACK
6
CONTINUOUS
10
66.3494379999999921
20
-81.5245999999999924
11
66.2541999999999973
21
-81.0484089999999924
0
LINE
8
BLACK
6
CONTINUOUS
10
66.2541999999999973
20
-81.0484089999999924
11
66.2541999999999973
21
-80.6674569999999989
0
LINE
8
BLACK
6
CONTINUOUS
10
66.2541999999999973
20
-80.6674569999999989
11
66.3494379999999921
21
-80.1912659999999988
0
LINE
8
BLACK
6
CONTINUOUS
10
66.3494379999999921
20
-80.1912659999999988
11
66.4446760000000012
21
-79.9055520000000001
0
LINE
8
BLACK
6
CONTINUOUS
10
66.4446760000000012
20
-79.9055520000000001
11
66.539913999999996
21
-79.7150759999999963
0
LINE
8
BLACK
6
CONTINUOUS
10
66.539913999999996
20
-79.7150759999999963
11
66.7303899999999999
21
-79.4293610000000001
0
LINE
8
BLACK
6
CONTINUOUS
10
66.7303899999999999
20
-79.4293610000000001
11
66.8256289999999922
21
-79.3341229999999911
0
LINE
8
BLACK
6
CONTINUOUS
10
68.4446760000000012
20
-79.6198380000000014
11
68.063722999999996
21
-79.6198380000000014
0
LINE
8
BLACK
6
CONTINUOUS
10
68.063722999999996
20
-79.6198380000000014
11
67.8732469999999921
21
-79.7150759999999963
0
LINE
8
BLACK
6
CONTINUOUS
10
67.8732469999999921
20
-79.7150759999999963
11
67.7780089999999973
21
-79.8103139999999911
0
LINE
8
BLACK
6
CONTINUOUS
10
67.7780089999999973
20
-79.8103139999999911
11
67.5875329999999934
21
-80.0960279999999898
0
LINE
8
BLACK
6
CONTINUOUS
10
67.5875329999999934
20
-80.0960279999999898
11
67.4922949999999986
21
-80.4769799999999975
0
LINE
8
BLACK
6
CONTINUOUS
10
67.4922949999999986
20
-80.4769799999999975
11
67.4922949999999986
21
-81.2388849999999962
0
LINE
8
BLACK
6
CONTINUOUS
10
67.4922949999999986
20
-81.2388849999999962
11
67.5875329999999934
21
-81.4293610000000001
0
LINE
8
BLACK
6
CONTINUOUS
10
67.5875329999999934
20
-81.4293610000000001
11
67.6827710000000025
21
-81.5245999999999924
0
LINE
8
BLACK
6
CONTINUOUS
10
67.6827710000000025
20
-81.5245999999999924
11
67.8732469999999921
21
-81.6198380000000014
0
LINE
8
BLACK
6
CONTINUOUS
10
67.8732469999999921
20
-81.6198380000000014
11
68.2541999999999973
21
-81.6198380000000014
0
LINE
8
BLACK
6
CONTINUOUS
10
68.2541999999999973
20
-81.6198380000000014
11
68.4446760000000012
21
-81.5245999999999924
0
LINE
8
BLACK
6
CONTINUOUS
10
68.4446760000000012
20
-81.5245999999999924
11
68.539913999999996
21
-81.4293610000000001
0
LINE
8
BLACK
6
CONTINUOUS
10
68.539913999999996
20
-81.4293610000000001
11
68.6351519999999908
21
-81.2388849999999962
0
LINE
8
BLACK
6
CONTINUOUS
10
68.6351519999999908
20
-81.2388849999999962
11
68.6351519999999908
21
-80.7626949999999937
0
LINE
8
BLACK
6
CONTINUOUS
10
68.6351519999999908
20
-80.7626949999999937
11
68.539913999999996
21
-80.5722189999999898
0
LINE
8
BLACK
6
CONTINUOUS
10
68.539913999999996
20
-80.5722189999999898
11
68.4446760000000012
21
-80.4769799999999975
0
LINE
8
BLACK
6
CONTINUOUS
10
68.4446760000000012
20
-80.4769799999999975
11
68.2541999999999973
21
-80.3817420000000027
0
LINE
8
BLACK
6
CONTINUOUS
10
68.2541999999999973
20
-80.3817420000000027
11
67.8732469999999921
21
-80.3817420000000027
0
LINE
8
BLACK
6
CONTINUOUS
10
67.8732469999999921
20
-80.3817420000000027
11
67.6827710000000025
21
-80.4769799999999975
0
LINE
8
BLACK
6
CONTINUOUS
10
67.6827710000000025
20
-80.4769799999999975
11
67.5875329999999934
21
-80.5722189999999898
0
LINE
8
BLACK
6
CONTINUOUS
10
67.5875329999999934
20
-80.5722189999999898
11
67.4922949999999986
21
-80.7626949999999937
0
LINE
8
BLACK
6
CONTINUOUS
10
71.016104999999996
20
-81.6198380000000014
11
71.016104999999996
21
-79.6198380000000014
0
LINE
8
BLACK
6
CONTINUOUS
10
71.8732480000000038
20
-81.6198380000000014
11
71.8732480000000038
21
-80.5722189999999898
0
LINE
8
BLACK
6
CONTINUOUS
10
71.8732480000000038
20
-80.5722189999999898
11
71.7780099999999948
21
-80.3817420000000027
0
LINE
8
BLACK
6
CONTINUOUS
10
71.7780099999999948
20
-80.3817420000000027
11
71.5875339999999909
21
-80.2865039999999937
0
LINE
8
BLACK
6
CONTINUOUS
10
71.5875339999999909
20
-80.2865039999999937
11
71.3018189999999947
21
-80.2865039999999937
0
LINE
8
BLACK
6
CONTINUOUS
10
71.3018189999999947
20
-80.2865039999999937
11
71.1113429999999909
21
-80.3817420000000027
0
LINE
8
BLACK
6
CONTINUOUS
10
71.1113429999999909
20
-80.3817420000000027
11
71.016104999999996
21
-80.4769799999999975
0
LINE
8
BLACK
6
CONTINUOUS
10
73.1113429999999909
20
-81.6198380000000014
11
72.9208670000000012
21
-81.5245999999999924
0
LINE
8
BLACK
6
CONTINUOUS
10
72.9208670000000012
20
-81.5245999999999924
11
72.8256289999999922
21
-81.4293610000000001
0
LINE
8
BLACK
6
CONTINUOUS
10
72.8256289999999922
20
-81.4293610000000001
11
72.7303909999999973
21
-81.2388849999999962
0
LINE
8
BLACK
6
CONTINUOUS
10
72.7303909999999973
20
-81.2388849999999962
11
72.7303909999999973
21
-80.6674569999999989
0
LINE
8
BLACK
6
CONTINUOUS
10
72.7303909999999973
20
-80.6674569999999989
11
72.8256289999999922
21
-80.4769799999999975
0
LINE
8
BLACK
6
CONTINUOUS
10
72.8256289999999922
20
-80.4769799999999975
11
72.9208670000000012
21
-80.3817420000000027
0
LINE
8
BLACK
6
CONTINUOUS
10
72.9208670000000012
20
-80.3817420000000027
11
73.1113429999999909
21
-80.2865039999999937
0
LINE
8
BLACK
6
CONTINUOUS
10
73.1113429999999909
20
-80.2865039999999937
11
73.3970580000000012
21
-80.2865039999999937
0
LINE
8
BLACK
6
CONTINUOUS
10
73.3970580000000012
20
-80.2865039999999937
11
73.5875339999999909
21
-80.3817420000000027
0
LINE
8
BLACK
6
CONTINUOUS
10
73.5875339999999909
20
-80.3817420000000027
11
73.6827719999999999
21
-80.4769799999999975
0
LINE
8
BLACK
6
CONTINUOUS
10
73.6827719999999999
20
-80.4769799999999975
11
73.7780099999999948
21
-80.6674569999999989
0
LINE
8
BLACK
6
CONTINUOUS
10
73.7780099999999948
20
-80.6674569999999989
11
73.7780099999999948
21
-81.2388849999999962
0
LINE
8
BLACK
6
CONTINUOUS
10
73.7780099999999948
20
-81.2388849999999962
11
73.6827719999999999
21
-81.4293610000000001
0
LINE
8
BLACK
6
CONTINUOUS
10
73.6827719999999999
20
-81.4293610000000001
11
73.5875339999999909
21
-81.5245999999999924
0
LINE
8
BLACK
6
CONTINUOUS
10
73.5875339999999909
20
-81.5245999999999924
11
73.3970580000000012
21
-81.6198380000000014
0
LINE
8
BLACK
6
CONTINUOUS
10
73.3970580000000012
20
-81.6198380000000014
11
73.1113429999999909
21
-81.6198380000000014
0
LINE
8
BLACK
6
CONTINUOUS
10
74.9208670000000012
20
-81.6198380000000014
11
74.7303909999999973
21
-81.5245999999999924
0
LINE
8
BLACK
6
CONTINUOUS
10
74.7303909999999973
20
-81.5245999999999924
11
74.6351530000000025
21
-81.3341229999999911
0
LINE
8
BLACK
6
CONTINUOUS
10
74.6351530000000025
20
-81.3341229999999911
11
74.6351530000000025
21
-79.6198380000000014
0
LINE
8
BLACK
6
CONTINUOUS
10
76.4446769999999987
20
-81.5245999999999924
11
76.2542009999999948
21
-81.6198380000000014
0
LINE
8
BLACK
6
CONTINUOUS
10
76.2542009999999948
20
-81.6198380000000014
11
75.8732479999999896
21
-81.6198380000000014
0
LINE
8
BLACK
6
CONTINUOUS
10
75.8732479999999896
20
-81.6198380000000014
11
75.6827719999999999
21
-81.5245999999999924
0
LINE
8
BLACK
6
CONTINUOUS
10
75.6827719999999999
20
-81.5245999999999924
11
75.5875339999999909
21
-81.3341229999999911
0
LINE
8
BLACK
6
CONTINUOUS
10
75.5875339999999909
20
-81.3341229999999911
11
75.5875339999999909
21
-80.5722189999999898
0
LINE
8
BLACK
6
CONTINUOUS
10
75.5875339999999909
20
-80.5722189999999898
11
75.6827719999999999
21
-80.3817420000000027
0
LINE
8
BLACK
6
CONTINUOUS
10
75.6827719999999999
20
-80.3817420000000027
11
75.8732479999999896
21
-80.2865039999999937
0
LINE
8
BLACK
6
CONTINUOUS
10
75.8732479999999896
20
-80.2865039999999937
11
76.2542009999999948
21
-80.2865039999999937
0
LINE
8
BLACK
6
CONTINUOUS
10
76.2542009999999948
20
-80.2865039999999937
11
76.4446769999999987
21
-80.3817420000000027
0
LINE
8
BLACK
6
CONTINUOUS
10
76.4446769999999987
20
-80.3817420000000027
11
76.5399149999999935
21
-80.5722189999999898
0
LINE
8
BLACK
6
CONTINUOUS
10
76.5399149999999935
20
-80.5722189999999898
11
76.5399149999999935
21
-80.7626949999999937
0
LINE
8
BLACK
6
CONTINUOUS
10
76.5399149999999935
20
-80.7626949999999937
11
75.5875339999999909
21
-80.9531709999999975
0
LINE
8
BLACK
6
CONTINUOUS
10
77.3018199999999922
20
-81.5245999999999924
11
77.4922959999999961
21
-81.6198380000000014
0
LINE
8
BLACK
6
CONTINUOUS
10
77.4922959999999961
20
-81.6198380000000014
11
77.8732479999999896
21
-81.6198380000000014
0
LINE
8
BLACK
6
CONTINUOUS
10
77.8732479999999896
20
-81.6198380000000014
11
78.0637249999999909
21
-81.5245999999999924
0
LINE
8
BLACK
6
CONTINUOUS
10
78.0637249999999909
20
-81.5245999999999924
11
78.158963
21
-81.3341229999999911
0
LINE
8
BLACK
6
CONTINUOUS
10
78.158963
20
-81.3341229999999911
11
78.158963
21
-81.2388849999999962
0
LINE
8
BLACK
6
CONTINUOUS
10
78.158963
20
-81.2388849999999962
11
78.0637249999999909
21
-81.0484089999999924
0
LINE
8
BLACK
6
CONTINUOUS
10
78.0637249999999909
20
-81.0484089999999924
11
77.8732479999999896
21
-80.9531709999999975
0
LINE
8
BLACK
6
CONTINUOUS
10
77.8732479999999896
20
-80.9531709999999975
11
77.5875339999999909
21
-80.9531709999999975
0
LINE
8
BLACK
6
CONTINUOUS
10
77.5875339999999909
20
-80.9531709999999975
11
77.3970580000000012
21
-80.8579330000000027
0
LINE
8
BLACK
6
CONTINUOUS
10
77.3970580000000012
20
-80.8579330000000027
11
77.3018199999999922
21
-80.6674569999999989
0
LINE
8
BLACK
6
CONTINUOUS
10
77.3018199999999922
20
-80.6674569999999989
11
77.3018199999999922
21
-80.5722189999999898
0
LINE
8
BLACK
6
CONTINUOUS
10
77.3018199999999922
20
-80.5722189999999898
11
77.3970580000000012
21
-80.3817420000000027
0
LINE
8
BLACK
6
CONTINUOUS
10
77.3970580000000012
20
-80.3817420000000027
11
77.5875339999999909
21
-80.2865039999999937
0
LINE
8
BLACK
6
CONTINUOUS
10
77.5875339999999909
20
-80.2865039999999937
11
77.8732479999999896
21
-80.2865039999999937
0
LINE
8
BLACK
6
CONTINUOUS
10
77.8732479999999896
20
-80.2865039999999937
11
78.0637249999999909
21
-80.3817420000000027
0
LINE
8
BLACK
6
CONTINUOUS
10
78.8256299999999896
20
-82.3817420000000027
11
78.9208679999999987
21
-82.2865039999999937
0
LINE
8
BLACK
6
CONTINUOUS
10
78.9208679999999987
20
-82.2865039999999937
11
79.1113440000000026
21
-82.000789999999995
0
LINE
8
BLACK
6
CONTINUOUS
10
79.1113440000000026
20
-82.000789999999995
11
79.2065819999999974
21
-81.8103139999999911
0
LINE
8
BLACK
6
CONTINUOUS
10
79.2065819999999974
20
-81.8103139999999911
11
79.3018199999999922
21
-81.5245999999999924
0
LINE
8
BLACK
6
CONTINUOUS
10
79.3018199999999922
20
-81.5245999999999924
11
79.3970580000000012
21
-81.0484089999999924
0
LINE
8
BLACK
6
CONTINUOUS
10
79.3970580000000012
20
-81.0484089999999924
11
79.3970580000000012
21
-80.6674569999999989
0
LINE
8
BLACK
6
CONTINUOUS
10
79.3970580000000012
20
-80.6674569999999989
11
79.3018199999999922
21
-80.1912659999999988
0
LINE
8
BLACK
6
CONTINUOUS
10
79.3018199999999922
20
-80.1912659999999988
11
79.2065819999999974
21
-79.9055520000000001
0
LINE
8
BLACK
6
CONTINUOUS
10
79.2065819999999974
20
-79.9055520000000001
11
79.1113440000000026
21
-79.7150759999999963
0
LINE
8
BLACK
6
CONTINUOUS
10
79.1113440000000026
20
-79.7150759999999963
11
78.9208679999999987
21
-79.4293610000000001
0
LINE
8
BLACK
6
CONTINUOUS
10
78.9208679999999987
20
-79.4293610000000001
11
78.8256299999999896
21
-79.3341229999999911
0
LINE
8
BLACK
6
CONTINUOUS
10
82.4446779999999961
20
-82.3817420000000027
11
82.3494389999999896
21
-82.2865039999999937
0
LINE
8
BLACK
6
CONTINUOUS
10
82.3494389999999896
20
-82.2865039999999937
11
82.158963
21
-82.000789999999995
0
LINE
8
BLACK
6
CONTINUOUS
10
82.158963
20
-82.000789999999995
11
82.0637249999999909
21
-81.8103139999999911
0
LINE
8
BLACK
6
CONTINUOUS
10
82.0637249999999909
20
-81.8103139999999911
11
81.9684869999999961
21
-81.5245999999999924
0
LINE
8
BLACK
6
CONTINUOUS
10
81.9684869999999961
20
-81.5245999999999924
11
81.8732490000000013
21
-81.0484089999999924
0
LINE
8
BLACK
6
CONTINUOUS
10
81.8732490000000013
20
-81.0484089999999924
11
81.8732490000000013
21
-80.6674569999999989
0
LINE
8
BLACK
6
CONTINUOUS
10
81.8732490000000013
20
-80.6674569999999989
11
81.9684869999999961
21
-80.1912659999999988
0
LINE
8
BLACK
6
CONTINUOUS
10
81.9684869999999961
20
-80.1912659999999988
11
82.0637249999999909
21
-79.9055520000000001
0
LINE
8
BLACK
6
CONTINUOUS
10
82.0637249999999909
20
-79.9055520000000001
11
82.158963
21
-79.7150759999999963
0
LINE
8
BLACK
6
CONTINUOUS
10
82.158963
20
-79.7150759999999963
11
82.3494389999999896
21
-79.4293610000000001
0
LINE
8
BLACK
6
CONTINUOUS
10
82.3494389999999896
20
-79.4293610000000001
11
82.4446779999999961
21
-79.3341229999999911
0
LINE
8
BLACK
6
CONTINUOUS
10
83.2065819999999974
20
-80.2865039999999937
11
83.2065819999999974
21
-81.6198380000000014
0
LINE
8
BLACK
6
CONTINUOUS
10
83.2065819999999974
20
-80.4769799999999975
11
83.3018199999999922
21
-80.3817420000000027
0
LINE
8
BLACK
6
CONTINUOUS
10
83.3018199999999922
20
-80.3817420000000027
11
83.4922959999999961
21
-80.2865039999999937
0
LINE
8
BLACK
6
CONTINUOUS
10
83.4922959999999961
20
-80.2865039999999937
11
83.7780109999999922
21
-80.2865039999999937
0
LINE
8
BLACK
6
CONTINUOUS
10
83.7780109999999922
20
-80.2865039999999937
11
83.9684869999999961
21
-80.3817420000000027
0
LINE
8
BLACK
6
CONTINUOUS
10
83.9684869999999961
20
-80.3817420000000027
11
84.0637249999999909
21
-80.5722189999999898
0
LINE
8
BLACK
6
CONTINUOUS
10
84.0637249999999909
20
-80.5722189999999898
11
84.0637249999999909
21
-81.6198380000000014
0
LINE
8
BLACK
6
CONTINUOUS
10
85.3018199999999922
20
-81.6198380000000014
11
85.1113440000000026
21
-81.5245999999999924
0
LINE
8
BLACK
6
CONTINUOUS
10
85.1113440000000026
20
-81.5245999999999924
11
85.0161059999999935
21
-81.4293610000000001
0
LINE
8
BLACK
6
CONTINUOUS
10
85.0161059999999935
20
-81.4293610000000001
11
84.9208679999999987
21
-81.2388849999999962
0
LINE
8
BLACK
6
CONTINUOUS
10
84.9208679999999987
20
-81.2388849999999962
11
84.9208679999999987
21
-80.6674569999999989
0
LINE
8
BLACK
6
CONTINUOUS
10
84.9208679999999987
20
-80.6674569999999989
11
85.0161059999999935
21
-80.4769799999999975
0
LINE
8
BLACK
6
CONTINUOUS
10
85.0161059999999935
20
-80.4769799999999975
11
85.1113440000000026
21
-80.3817420000000027
0
LINE
8
BLACK
6
CONTINUOUS
10
85.1113440000000026
20
-80.3817420000000027
11
85.3018199999999922
21
-80.2865039999999937
0
LINE
8
BLACK
6
CONTINUOUS
10
85.3018199999999922
20
-80.2865039999999937
11
85.5875350000000026
21
-80.2865039999999937
0
LINE
8
BLACK
6
CONTINUOUS
10
85.5875350000000026
20
-80.2865039999999937
11
85.7780109999999922
21
-80.3817420000000027
0
LINE
8
BLACK
6
CONTINUOUS
10
85.7780109999999922
20
-80.3817420000000027
11
85.8732490000000013
21
-80.4769799999999975
0
LINE
8
BLACK
6
CONTINUOUS
10
85.8732490000000013
20
-80.4769799999999975
11
85.9684869999999961
21
-80.6674569999999989
0
LINE
8
BLACK
6
CONTINUOUS
10
85.9684869999999961
20
-80.6674569999999989
11
85.9684869999999961
21
-81.2388849999999962
0
LINE
8
BLACK
6
CONTINUOUS
10
85.9684869999999961
20
-81.2388849999999962
11
85.8732490000000013
21
-81.4293610000000001
0
LINE
8
BLACK
6
CONTINUOUS
10
85.8732490000000013
20
-81.4293610000000001
11
85.7780109999999922
21
-81.5245999999999924
0
LINE
8
BLACK
6
CONTINUOUS
10
85.7780109999999922
20
-81.5245999999999924
11
85.5875350000000026
21
-81.6198380000000014
0
LINE
8
BLACK
6
CONTINUOUS
10
85.5875350000000026
20
-81.6198380000000014
11
85.3018199999999922
21
-81.6198380000000014
0
LINE
8
BLACK
6
CONTINUOUS
10
86.539915999999991
20
-80.2865039999999937
11
87.3018199999999922
21
-80.2865039999999937
0
LINE
8
BLACK
6
CONTINUOUS
10
86.8256299999999896
20
-79.6198380000000014
11
86.8256299999999896
21
-81.3341229999999911
0
LINE
8
BLACK
6
CONTINUOUS
10
86.8256299999999896
20
-81.3341229999999911
11
86.9208679999999987
21
-81.5245999999999924
0
LINE
8
BLACK
6
CONTINUOUS
10
86.9208679999999987
20
-81.5245999999999924
11
87.1113440000000026
21
-81.6198380000000014
0
LINE
8
BLACK
6
CONTINUOUS
10
87.1113440000000026
20
-81.6198380000000014
11
87.3018199999999922
21
-81.6198380000000014
0
LINE
8
BLACK
6
CONTINUOUS
10
89.4922969999999935
20
-80.2865039999999937
11
89.4922969999999935
21
-82.2865039999999937
0
LINE
8
BLACK
6
CONTINUOUS
10
89.4922969999999935
20
-80.3817420000000027
11
89.6827729999999974
21
-80.2865039999999937
0
LINE
8
BLACK
6
CONTINUOUS
10
89.6827729999999974
20
-80.2865039999999937
11
90.0637260000000026
21
-80.2865039999999937
0
LINE
8
BLACK
6
CONTINUOUS
10
90.0637260000000026
20
-80.2865039999999937
11
90.2542019999999923
21
-80.3817420000000027
0
LINE
8
BLACK
6
CONTINUOUS
10
90.2542019999999923
20
-80.3817420000000027
11
90.3494400000000013
21
-80.4769799999999975
0
LINE
8
BLACK
6
CONTINUOUS
10
90.3494400000000013
20
-80.4769799999999975
11
90.4446779999999961
21
-80.6674569999999989
0
LINE
8
BLACK
6
CONTINUOUS
10
90.4446779999999961
20
-80.6674569999999989
11
90.4446779999999961
21
-81.2388849999999962
0
LINE
8
BLACK
6
CONTINUOUS
10
90.4446779999999961
20
-81.2388849999999962
11
90.3494400000000013
21
-81.4293610000000001
0
LINE
8
BLACK
6
CONTINUOUS
10
90.3494400000000013
20
-81.4293610000000001
11
90.2542019999999923
21
-81.5245999999999924
0
LINE
8
BLACK
6
CONTINUOUS
10
90.2542019999999923
20
-81.5245999999999924
11
90.0637260000000026
21
-81.6198380000000014
0
LINE
8
BLACK
6
CONTINUOUS
10
90.0637260000000026
20
-81.6198380000000014
11
89.6827729999999974
21
-81.6198380000000014
0
LINE
8
BLACK
6
CONTINUOUS
10
89.6827729999999974
20
-81.6198380000000014
11
89.4922969999999935
21
-81.5245999999999924
0
LINE
8
BLACK
6
CONTINUOUS
10
91.5875350000000026
20
-81.6198380000000014
11
91.3970589999999987
21
-81.5245999999999924
0
LINE
8
BLACK
6
CONTINUOUS
10
91.3970589999999987
20
-81.5245999999999924
11
91.3018209999999897
21
-81.3341229999999911
0
LINE
8
BLACK
6
CONTINUOUS
10
91.3018209999999897
20
-81.3341229999999911
11
91.3018209999999897
21
-79.6198380000000014
0
LINE
8
BLACK
6
CONTINUOUS
10
93.2065829999999949
20
-81.6198380000000014
11
93.2065829999999949
21
-80.5722189999999898
0
LINE
8
BLACK
6
CONTINUOUS
10
93.2065829999999949
20
-80.5722189999999898
11
93.111345
21
-80.3817420000000027
0
LINE
8
BLACK
6
CONTINUOUS
10
93.111345
20
-80.3817420000000027
11
92.9208689999999962
21
-80.2865039999999937
0
LINE
8
BLACK
6
CONTINUOUS
10
92.9208689999999962
20
-80.2865039999999937
11
92.539915999999991
21
-80.2865039999999937
0
LINE
8
BLACK
6
CONTINUOUS
10
92.539915999999991
20
-80.2865039999999937
11
92.3494400000000013
21
-80.3817420000000027
0
LINE
8
BLACK
6
CONTINUOUS
10
93.2065829999999949
20
-81.5245999999999924
11
93.016106999999991
21
-81.6198380000000014
0
LINE
8
BLACK
6
CONTINUOUS
10
93.016106999999991
20
-81.6198380000000014
11
92.539915999999991
21
-81.6198380000000014
0
LINE
8
BLACK
6
CONTINUOUS
10
92.539915999999991
20
-81.6198380000000014
11
92.3494400000000013
21
-81.5245999999999924
0
LINE
8
BLACK
6
CONTINUOUS
10
92.3494400000000013
20
-81.5245999999999924
11
92.2542019999999923
21
-81.3341229999999911
0
LINE
8
BLACK
6
CONTINUOUS
10
92.2542019999999923
20
-81.3341229999999911
11
92.2542019999999923
21
-81.1436470000000014
0
LINE
8
BLACK
6
CONTINUOUS
10
92.2542019999999923
20
-81.1436470000000014
11
92.3494400000000013
21
-80.9531709999999975
0
LINE
8
BLACK
6
CONTINUOUS
10
92.3494400000000013
20
-80.9531709999999975
11
92.539915999999991
21
-80.8579330000000027
0
LINE
8
BLACK
6
CONTINUOUS
10
92.539915999999991
20
-80.8579330000000027
11
93.016106999999991
21
-80.8579330000000027
0
LINE
8
BLACK
6
CONTINUOUS
10
93.016106999999991
20
-80.8579330000000027
11
93.2065829999999949
21
-80.7626949999999937
0
LINE
8
BLACK
6
CONTINUOUS
10
93.8732499999999987
20
-80.2865039999999937
11
94.635154
21
-80.2865039999999937
0
LINE
8
BLACK
6
CONTINUOUS
10
94.1589639999999974
20
-79.6198380000000014
11
94.1589639999999974
21
-81.3341229999999911
0
LINE
8
BLACK
6
CONTINUOUS
10
94.1589639999999974
20
-81.3341229999999911
11
94.2542019999999923
21
-81.5245999999999924
0
LINE
8
BLACK
6
CONTINUOUS
10
94.2542019999999923
20
-81.5245999999999924
11
94.4446779999999961
21
-81.6198380000000014
0
LINE
8
BLACK
6
CONTINUOUS
10
94.4446779999999961
20
-81.6198380000000014
11
94.635154
21
-81.6198380000000014
0
LINE
8
BLACK
6
CONTINUOUS
10
96.0637260000000026
20
-81.5245999999999924
11
95.8732499999999987
21
-81.6198380000000014
0
LINE
8
BLACK
6
CONTINUOUS
10
95.8732499999999987
20
-81.6198380000000014
11
95.4922969999999935
21
-81.6198380000000014
0
LINE
8
BLACK
6
CONTINUOUS
10
95.4922969999999935
20
-81.6198380000000014
11
95.3018209999999897
21
-81.5245999999999924
0
LINE
8
BLACK
6
CONTINUOUS
10
95.3018209999999897
20
-81.5245999999999924
11
95.2065829999999949
21
-81.3341229999999911
0
LINE
8
BLACK
6
CONTINUOUS
10
95.2065829999999949
20
-81.3341229999999911
11
95.2065829999999949
21
-80.5722189999999898
0
LINE
8
BLACK
6
CONTINUOUS
10
95.2065829999999949
20
-80.5722189999999898
11
95.3018209999999897
21
-80.3817420000000027
0
LINE
8
BLACK
6
CONTINUOUS
10
95.3018209999999897
20
-80.3817420000000027
11
95.4922969999999935
21
-80.2865039999999937
0
LINE
8
BLACK
6
CONTINUOUS
10
95.4922969999999935
20
-80.2865039999999937
11
95.8732499999999987
21
-80.2865039999999937
0
LINE
8
BLACK
6
CONTINUOUS
10
95.8732499999999987
20
-80.2865039999999937
11
96.0637260000000026
21
-80.3817420000000027
0
LINE
8
BLACK
6
CONTINUOUS
10
96.0637260000000026
20
-80.3817420000000027
11
96.1589639999999974
21
-80.5722189999999898
0
LINE
8
BLACK
6
CONTINUOUS
10
96.1589639999999974
20
-80.5722189999999898
11
96.1589639999999974
21
-80.7626949999999937
0
LINE
8
BLACK
6
CONTINUOUS
10
96.1589639999999974
20
-80.7626949999999937
11
95.2065829999999949
21
-80.9531709999999975
0
LINE
8
BLACK
6
CONTINUOUS
10
97.8732499999999987
20
-81.6198380000000014
11
97.8732499999999987
21
-79.6198380000000014
0
LINE
8
BLACK
6
CONTINUOUS
10
97.8732499999999987
20
-81.5245999999999924
11
97.6827739999999949
21
-81.6198380000000014
0
LINE
8
BLACK
6
CONTINUOUS
10
97.6827739999999949
20
-81.6198380000000014
11
97.3018209999999897
21
-81.6198380000000014
0
LINE
8
BLACK
6
CONTINUOUS
10
97.3018209999999897
20
-81.6198380000000014
11
97.111345
21
-81.5245999999999924
0
LINE
8
BLACK
6
CONTINUOUS
10
97.111345
20
-81.5245999999999924
11
97.016106999999991
21
-81.4293610000000001
0
LINE
8
BLACK
6
CONTINUOUS
10
97.016106999999991
20
-81.4293610000000001
11
96.9208689999999962
21
-81.2388849999999962
0
LINE
8
BLACK
6
CONTINUOUS
10
96.9208689999999962
20
-81.2388849999999962
11
96.9208689999999962
21
-80.6674569999999989
0
LINE
8
BLACK
6
CONTINUOUS
10
96.9208689999999962
20
-80.6674569999999989
11
97.016106999999991
21
-80.4769799999999975
0
LINE
8
BLACK
6
CONTINUOUS
10
97.016106999999991
20
-80.4769799999999975
11
97.111345
21
-80.3817420000000027
0
LINE
8
BLACK
6
CONTINUOUS
10
97.111345
20
-80.3817420000000027
11
97.3018209999999897
21
-80.2865039999999937
0
LINE
8
BLACK
6
CONTINUOUS
10
97.3018209999999897
20
-80.2865039999999937
11
97.6827739999999949
21
-80.2865039999999937
0
LINE
8
BLACK
6
CONTINUOUS
10
97.6827739999999949
20
-80.2865039999999937
11
97.8732499999999987
21
-80.3817420000000027
0
LINE
8
BLACK
6
CONTINUOUS
10
98.6351549999999975
20
-82.3817420000000027
11
98.7303929999999923
21
-82.2865039999999937
0
LINE
8
BLACK
6
CONTINUOUS
10
98.7303929999999923
20
-82.2865039999999937
11
98.9208689999999962
21
-82.000789999999995
0
LINE
8
BLACK
6
CONTINUOUS
10
98.9208689999999962
20
-82.000789999999995
11
99.016106999999991
21
-81.8103139999999911
0
LINE
8
BLACK
6
CONTINUOUS
10
99.016106999999991
20
-81.8103139999999911
11
99.111345
21
-81.5245999999999924
0
LINE
8
BLACK
6
CONTINUOUS
10
99.111345
20
-81.5245999999999924
11
99.2065829999999949
21
-81.0484089999999924
0
LINE
8
BLACK
6
CONTINUOUS
10
99.2065829999999949
20
-81.0484089999999924
11
99.2065829999999949
21
-80.6674569999999989
0
LINE
8
BLACK
6
CONTINUOUS
10
99.2065829999999949
20
-80.6674569999999989
11
99.111345
21
-80.1912659999999988
0
LINE
8
BLACK
6
CONTINUOUS
10
99.111345
20
-80.1912659999999988
11
99.016106999999991
21
-79.9055520000000001
0
LINE
8
BLACK
6
CONTINUOUS
10
99.016106999999991
20
-79.9055520000000001
11
98.9208689999999962
21
-79.7150759999999963
0
LINE
8
BLACK
6
CONTINUOUS
10
98.9208689999999962
20
-79.7150759999999963
11
98.7303929999999923
21
-79.4293610000000001
0
LINE
8
BLACK
6
CONTINUOUS
10
98.7303929999999923
20
-79.4293610000000001
11
98.6351549999999975
21
-79.3341229999999911
  0
ENDSEC
  0
EOF
