<?xml version="1.0" standalone="no"?>
 <!DOCTYPE svg PUBLIC "-//W3C//DTD SVG 1.1//EN" 
 "http://www.w3.org/Graphics/SVG/1.1/DTD/svg11.dtd"> 
<svg
  xmlns:svg="http://www.w3.org/2000/svg"
  xmlns="http://www.w3.org/2000/svg"
  xmlns:xlink="http://www.w3.org/1999/xlink"
  version="1.1"
  width="210.0072mm" height="148.0058mm" viewBox="0.0000 0.0000 210.0072 148.0058">
<title>SVG Image created as Small_Pendant.svg date 2025/04/01 23:43:37 </title>
  <desc>Image generated by Eeschema-SVG </desc>
<g style="fill:#000000; fill-opacity:1.0000;stroke:#000000; stroke-opacity:1.0000;
stroke-linecap:round; stroke-linejoin:round;"
 transform="translate(0 0) scale(1 1)">
</g>
<g style="fill:#F5F4EF; fill-opacity:1.0000; 
stroke:#F5F4EF; stroke-width:0.0001; stroke-opacity:1; 
stroke-linecap:round; stroke-linejoin:round;">
<rect x="0.000000" y="0.000000" width="210.007200" height="148.005800" rx="0.000000" />
</g>
<g style="fill:none; 
stroke:#840000; stroke-width:0.1524; stroke-opacity:1; 
stroke-linecap:round; stroke-linejoin:round;">
<path d="M90.0072 104.0058
L198.0072 104.0058
L198.0072 136.0058
L90.0072 136.0058
L90.0072 104.0058
" />
<path d="M10.0000 10.0000
L200.0072 10.0000
L200.0072 138.0058
L10.0000 138.0058
L10.0000 10.0000
" />
<path d="M12.0000 12.0000
L198.0072 12.0000
L198.0072 136.0058
L12.0000 136.0058
L12.0000 12.0000
" />
<path d="M60.0000 12.0000
L60.0000 10.0000
" />
<path d="M110.0000 12.0000
L110.0000 10.0000
" />
<path d="M160.0000 12.0000
L160.0000 10.0000
" />
<text x="35.0000" y="11.6500"
textLength="1.4353" font-size="1.7333" lengthAdjust="spacingAndGlyphs"
text-anchor="start" opacity="0">1</text>
<g class="stroked-text"><desc>1</desc>
<path d="M36.0906 11.5935
L35.3478 11.5935
" />
<path d="M35.7192 11.5935
L35.7192 10.2935
" />
<path d="M35.7192 10.2935
L35.5954 10.4792
" />
<path d="M35.5954 10.4792
L35.4716 10.6030
" />
<path d="M35.4716 10.6030
L35.3478 10.6649
" />
</g><text x="85.0000" y="11.6500"
textLength="1.4353" font-size="1.7333" lengthAdjust="spacingAndGlyphs"
text-anchor="start" opacity="0">2</text>
<g class="stroked-text"><desc>2</desc>
<path d="M85.3478 10.4173
L85.4097 10.3554
" />
<path d="M85.4097 10.3554
L85.5335 10.2935
" />
<path d="M85.5335 10.2935
L85.8430 10.2935
" />
<path d="M85.8430 10.2935
L85.9668 10.3554
" />
<path d="M85.9668 10.3554
L86.0287 10.4173
" />
<path d="M86.0287 10.4173
L86.0906 10.5411
" />
<path d="M86.0906 10.5411
L86.0906 10.6649
" />
<path d="M86.0906 10.6649
L86.0287 10.8506
" />
<path d="M86.0287 10.8506
L85.2859 11.5935
" />
<path d="M85.2859 11.5935
L86.0906 11.5935
" />
</g><text x="135.0000" y="11.6500"
textLength="1.4353" font-size="1.7333" lengthAdjust="spacingAndGlyphs"
text-anchor="start" opacity="0">3</text>
<g class="stroked-text"><desc>3</desc>
<path d="M135.2859 10.2935
L136.0906 10.2935
" />
<path d="M136.0906 10.2935
L135.6573 10.7887
" />
<path d="M135.6573 10.7887
L135.8430 10.7887
" />
<path d="M135.8430 10.7887
L135.9668 10.8506
" />
<path d="M135.9668 10.8506
L136.0287 10.9125
" />
<path d="M136.0287 10.9125
L136.0906 11.0363
" />
<path d="M136.0906 11.0363
L136.0906 11.3458
" />
<path d="M136.0906 11.3458
L136.0287 11.4696
" />
<path d="M136.0287 11.4696
L135.9668 11.5316
" />
<path d="M135.9668 11.5316
L135.8430 11.5935
" />
<path d="M135.8430 11.5935
L135.4716 11.5935
" />
<path d="M135.4716 11.5935
L135.3478 11.5316
" />
<path d="M135.3478 11.5316
L135.2859 11.4696
" />
</g><text x="185.0000" y="11.6500"
textLength="1.4353" font-size="1.7333" lengthAdjust="spacingAndGlyphs"
text-anchor="start" opacity="0">4</text>
<g class="stroked-text"><desc>4</desc>
<path d="M185.9668 10.7268
L185.9668 11.5935
" />
<path d="M185.6573 10.2316
L185.3478 11.1601
" />
<path d="M185.3478 11.1601
L186.1525 11.1601
" />
</g><path d="M60.0000 136.0058
L60.0000 138.0058
" />
<path d="M110.0000 136.0058
L110.0000 138.0058
" />
<path d="M160.0000 136.0058
L160.0000 138.0058
" />
<text x="35.0000" y="137.6558"
textLength="1.4353" font-size="1.7333" lengthAdjust="spacingAndGlyphs"
text-anchor="start" opacity="0">1</text>
<g class="stroked-text"><desc>1</desc>
<path d="M36.0906 137.5993
L35.3478 137.5993
" />
<path d="M35.7192 137.5993
L35.7192 136.2993
" />
<path d="M35.7192 136.2993
L35.5954 136.4850
" />
<path d="M35.5954 136.4850
L35.4716 136.6088
" />
<path d="M35.4716 136.6088
L35.3478 136.6707
" />
</g><text x="85.0000" y="137.6558"
textLength="1.4353" font-size="1.7333" lengthAdjust="spacingAndGlyphs"
text-anchor="start" opacity="0">2</text>
<g class="stroked-text"><desc>2</desc>
<path d="M85.3478 136.4231
L85.4097 136.3612
" />
<path d="M85.4097 136.3612
L85.5335 136.2993
" />
<path d="M85.5335 136.2993
L85.8430 136.2993
" />
<path d="M85.8430 136.2993
L85.9668 136.3612
" />
<path d="M85.9668 136.3612
L86.0287 136.4231
" />
<path d="M86.0287 136.4231
L86.0906 136.5469
" />
<path d="M86.0906 136.5469
L86.0906 136.6707
" />
<path d="M86.0906 136.6707
L86.0287 136.8564
" />
<path d="M86.0287 136.8564
L85.2859 137.5993
" />
<path d="M85.2859 137.5993
L86.0906 137.5993
" />
</g><text x="135.0000" y="137.6558"
textLength="1.4353" font-size="1.7333" lengthAdjust="spacingAndGlyphs"
text-anchor="start" opacity="0">3</text>
<g class="stroked-text"><desc>3</desc>
<path d="M135.2859 136.2993
L136.0906 136.2993
" />
<path d="M136.0906 136.2993
L135.6573 136.7945
" />
<path d="M135.6573 136.7945
L135.8430 136.7945
" />
<path d="M135.8430 136.7945
L135.9668 136.8564
" />
<path d="M135.9668 136.8564
L136.0287 136.9183
" />
<path d="M136.0287 136.9183
L136.0906 137.0421
" />
<path d="M136.0906 137.0421
L136.0906 137.3516
" />
<path d="M136.0906 137.3516
L136.0287 137.4754
" />
<path d="M136.0287 137.4754
L135.9668 137.5374
" />
<path d="M135.9668 137.5374
L135.8430 137.5993
" />
<path d="M135.8430 137.5993
L135.4716 137.5993
" />
<path d="M135.4716 137.5993
L135.3478 137.5374
" />
<path d="M135.3478 137.5374
L135.2859 137.4754
" />
</g><text x="185.0000" y="137.6558"
textLength="1.4353" font-size="1.7333" lengthAdjust="spacingAndGlyphs"
text-anchor="start" opacity="0">4</text>
<g class="stroked-text"><desc>4</desc>
<path d="M185.9668 136.7326
L185.9668 137.5993
" />
<path d="M185.6573 136.2374
L185.3478 137.1659
" />
<path d="M185.3478 137.1659
L186.1525 137.1659
" />
</g><path d="M10.0000 60.0000
L12.0000 60.0000
" />
<path d="M10.0000 110.0000
L12.0000 110.0000
" />
<text x="11.0000" y="35.6500"
textLength="1.3115" font-size="1.7333" lengthAdjust="spacingAndGlyphs"
text-anchor="middle" opacity="0">A</text>
<g class="stroked-text"><desc>A</desc>
<path d="M10.6905 35.2220
L11.3095 35.2220
" />
<path d="M10.5667 35.5935
L11.0000 34.2935
" />
<path d="M11.0000 34.2935
L11.4333 35.5935
" />
</g><text x="11.0000" y="85.6500"
textLength="1.4972" font-size="1.7333" lengthAdjust="spacingAndGlyphs"
text-anchor="middle" opacity="0">B</text>
<g class="stroked-text"><desc>B</desc>
<path d="M11.0928 84.9125
L11.2785 84.9744
" />
<path d="M11.2785 84.9744
L11.3404 85.0363
" />
<path d="M11.3404 85.0363
L11.4023 85.1601
" />
<path d="M11.4023 85.1601
L11.4023 85.3458
" />
<path d="M11.4023 85.3458
L11.3404 85.4696
" />
<path d="M11.3404 85.4696
L11.2785 85.5316
" />
<path d="M11.2785 85.5316
L11.1547 85.5935
" />
<path d="M11.1547 85.5935
L10.6595 85.5935
" />
<path d="M10.6595 85.5935
L10.6595 84.2935
" />
<path d="M10.6595 84.2935
L11.0928 84.2935
" />
<path d="M11.0928 84.2935
L11.2166 84.3554
" />
<path d="M11.2166 84.3554
L11.2785 84.4173
" />
<path d="M11.2785 84.4173
L11.3404 84.5411
" />
<path d="M11.3404 84.5411
L11.3404 84.6649
" />
<path d="M11.3404 84.6649
L11.2785 84.7887
" />
<path d="M11.2785 84.7887
L11.2166 84.8506
" />
<path d="M11.2166 84.8506
L11.0928 84.9125
" />
<path d="M11.0928 84.9125
L10.6595 84.9125
" />
</g><text x="11.0000" y="135.6500"
textLength="1.4972" font-size="1.7333" lengthAdjust="spacingAndGlyphs"
text-anchor="middle" opacity="0">C</text>
<g class="stroked-text"><desc>C</desc>
<path d="M11.4023 135.4696
L11.3404 135.5316
" />
<path d="M11.3404 135.5316
L11.1547 135.5935
" />
<path d="M11.1547 135.5935
L11.0309 135.5935
" />
<path d="M11.0309 135.5935
L10.8452 135.5316
" />
<path d="M10.8452 135.5316
L10.7214 135.4077
" />
<path d="M10.7214 135.4077
L10.6595 135.2839
" />
<path d="M10.6595 135.2839
L10.5976 135.0363
" />
<path d="M10.5976 135.0363
L10.5976 134.8506
" />
<path d="M10.5976 134.8506
L10.6595 134.6030
" />
<path d="M10.6595 134.6030
L10.7214 134.4792
" />
<path d="M10.7214 134.4792
L10.8452 134.3554
" />
<path d="M10.8452 134.3554
L11.0309 134.2935
" />
<path d="M11.0309 134.2935
L11.1547 134.2935
" />
<path d="M11.1547 134.2935
L11.3404 134.3554
" />
<path d="M11.3404 134.3554
L11.4023 134.4173
" />
</g><path d="M200.0072 60.0000
L198.0072 60.0000
" />
<path d="M200.0072 110.0000
L198.0072 110.0000
" />
<text x="199.0072" y="35.6500"
textLength="1.3115" font-size="1.7333" lengthAdjust="spacingAndGlyphs"
text-anchor="middle" opacity="0">A</text>
<g class="stroked-text"><desc>A</desc>
<path d="M198.6977 35.2220
L199.3167 35.2220
" />
<path d="M198.5739 35.5935
L199.0072 34.2935
" />
<path d="M199.0072 34.2935
L199.4405 35.5935
" />
</g><text x="199.0072" y="85.6500"
textLength="1.4972" font-size="1.7333" lengthAdjust="spacingAndGlyphs"
text-anchor="middle" opacity="0">B</text>
<g class="stroked-text"><desc>B</desc>
<path d="M199.1000 84.9125
L199.2857 84.9744
" />
<path d="M199.2857 84.9744
L199.3476 85.0363
" />
<path d="M199.3476 85.0363
L199.4095 85.1601
" />
<path d="M199.4095 85.1601
L199.4095 85.3458
" />
<path d="M199.4095 85.3458
L199.3476 85.4696
" />
<path d="M199.3476 85.4696
L199.2857 85.5316
" />
<path d="M199.2857 85.5316
L199.1619 85.5935
" />
<path d="M199.1619 85.5935
L198.6667 85.5935
" />
<path d="M198.6667 85.5935
L198.6667 84.2935
" />
<path d="M198.6667 84.2935
L199.1000 84.2935
" />
<path d="M199.1000 84.2935
L199.2238 84.3554
" />
<path d="M199.2238 84.3554
L199.2857 84.4173
" />
<path d="M199.2857 84.4173
L199.3476 84.5411
" />
<path d="M199.3476 84.5411
L199.3476 84.6649
" />
<path d="M199.3476 84.6649
L199.2857 84.7887
" />
<path d="M199.2857 84.7887
L199.2238 84.8506
" />
<path d="M199.2238 84.8506
L199.1000 84.9125
" />
<path d="M199.1000 84.9125
L198.6667 84.9125
" />
</g><text x="199.0072" y="135.6500"
textLength="1.4972" font-size="1.7333" lengthAdjust="spacingAndGlyphs"
text-anchor="middle" opacity="0">C</text>
<g class="stroked-text"><desc>C</desc>
<path d="M199.4095 135.4696
L199.3476 135.5316
" />
<path d="M199.3476 135.5316
L199.1619 135.5935
" />
<path d="M199.1619 135.5935
L199.0381 135.5935
" />
<path d="M199.0381 135.5935
L198.8524 135.5316
" />
<path d="M198.8524 135.5316
L198.7286 135.4077
" />
<path d="M198.7286 135.4077
L198.6667 135.2839
" />
<path d="M198.6667 135.2839
L198.6048 135.0363
" />
<path d="M198.6048 135.0363
L198.6048 134.8506
" />
<path d="M198.6048 134.8506
L198.6667 134.6030
" />
<path d="M198.6667 134.6030
L198.7286 134.4792
" />
<path d="M198.7286 134.4792
L198.8524 134.3554
" />
<path d="M198.8524 134.3554
L199.0381 134.2935
" />
<path d="M199.0381 134.2935
L199.1619 134.2935
" />
<path d="M199.1619 134.2935
L199.3476 134.3554
" />
<path d="M199.3476 134.3554
L199.4095 134.4173
" />
</g><text x="113.0072" y="131.8558"
textLength="7.0143" font-size="2.0000" lengthAdjust="spacingAndGlyphs"
text-anchor="start" opacity="0">Date: </text>
<g class="stroked-text"><desc>Date: </desc>
<path d="M113.4645 131.7917
L113.4645 130.2917
" />
<path d="M113.4645 130.2917
L113.8216 130.2917
" />
<path d="M113.8216 130.2917
L114.0359 130.3631
" />
<path d="M114.0359 130.3631
L114.1788 130.5060
" />
<path d="M114.1788 130.5060
L114.2502 130.6488
" />
<path d="M114.2502 130.6488
L114.3216 130.9345
" />
<path d="M114.3216 130.9345
L114.3216 131.1488
" />
<path d="M114.3216 131.1488
L114.2502 131.4345
" />
<path d="M114.2502 131.4345
L114.1788 131.5774
" />
<path d="M114.1788 131.5774
L114.0359 131.7203
" />
<path d="M114.0359 131.7203
L113.8216 131.7917
" />
<path d="M113.8216 131.7917
L113.4645 131.7917
" />
<path d="M115.6074 131.7917
L115.6074 131.0060
" />
<path d="M115.6074 131.0060
L115.5359 130.8631
" />
<path d="M115.5359 130.8631
L115.3931 130.7917
" />
<path d="M115.3931 130.7917
L115.1074 130.7917
" />
<path d="M115.1074 130.7917
L114.9645 130.8631
" />
<path d="M115.6074 131.7203
L115.4645 131.7917
" />
<path d="M115.4645 131.7917
L115.1074 131.7917
" />
<path d="M115.1074 131.7917
L114.9645 131.7203
" />
<path d="M114.9645 131.7203
L114.8931 131.5774
" />
<path d="M114.8931 131.5774
L114.8931 131.4345
" />
<path d="M114.8931 131.4345
L114.9645 131.2917
" />
<path d="M114.9645 131.2917
L115.1074 131.2203
" />
<path d="M115.1074 131.2203
L115.4645 131.2203
" />
<path d="M115.4645 131.2203
L115.6074 131.1488
" />
<path d="M116.1073 130.7917
L116.6787 130.7917
" />
<path d="M116.3216 130.2917
L116.3216 131.5774
" />
<path d="M116.3216 131.5774
L116.3930 131.7203
" />
<path d="M116.3930 131.7203
L116.5359 131.7917
" />
<path d="M116.5359 131.7917
L116.6787 131.7917
" />
<path d="M117.7501 131.7203
L117.6073 131.7917
" />
<path d="M117.6073 131.7917
L117.3216 131.7917
" />
<path d="M117.3216 131.7917
L117.1787 131.7203
" />
<path d="M117.1787 131.7203
L117.1073 131.5774
" />
<path d="M117.1073 131.5774
L117.1073 131.0060
" />
<path d="M117.1073 131.0060
L117.1787 130.8631
" />
<path d="M117.1787 130.8631
L117.3216 130.7917
" />
<path d="M117.3216 130.7917
L117.6073 130.7917
" />
<path d="M117.6073 130.7917
L117.7501 130.8631
" />
<path d="M117.7501 130.8631
L117.8216 131.0060
" />
<path d="M117.8216 131.0060
L117.8216 131.1488
" />
<path d="M117.8216 131.1488
L117.1073 131.2917
" />
<path d="M118.4644 131.6488
L118.5358 131.7203
" />
<path d="M118.5358 131.7203
L118.4644 131.7917
" />
<path d="M118.4644 131.7917
L118.3930 131.7203
" />
<path d="M118.3930 131.7203
L118.4644 131.6488
" />
<path d="M118.4644 131.6488
L118.4644 131.7917
" />
<path d="M118.4644 130.8631
L118.5358 130.9345
" />
<path d="M118.5358 130.9345
L118.4644 131.0060
" />
<path d="M118.4644 131.0060
L118.3930 130.9345
" />
<path d="M118.3930 130.9345
L118.4644 130.8631
" />
<path d="M118.4644 130.8631
L118.4644 131.0060
" />
</g><path d="M90.0072 132.5058
L198.0072 132.5058
" />
<text x="91.0072" y="134.6558"
textLength="24.1573" font-size="2.0000" lengthAdjust="spacingAndGlyphs"
text-anchor="start" opacity="0">KiCad E.D.A. 8.0.2-1</text>
<g class="stroked-text"><desc>KiCad E.D.A. 8.0.2-1</desc>
<path d="M91.4645 134.5917
L91.4645 133.0917
" />
<path d="M92.3216 134.5917
L91.6788 133.7345
" />
<path d="M92.3216 133.0917
L91.4645 133.9488
" />
<path d="M92.9645 134.5917
L92.9645 133.5917
" />
<path d="M92.9645 133.0917
L92.8931 133.1631
" />
<path d="M92.8931 133.1631
L92.9645 133.2345
" />
<path d="M92.9645 133.2345
L93.0359 133.1631
" />
<path d="M93.0359 133.1631
L92.9645 133.0917
" />
<path d="M92.9645 133.0917
L92.9645 133.2345
" />
<path d="M94.5359 134.4488
L94.4645 134.5203
" />
<path d="M94.4645 134.5203
L94.2502 134.5917
" />
<path d="M94.2502 134.5917
L94.1074 134.5917
" />
<path d="M94.1074 134.5917
L93.8931 134.5203
" />
<path d="M93.8931 134.5203
L93.7502 134.3774
" />
<path d="M93.7502 134.3774
L93.6788 134.2345
" />
<path d="M93.6788 134.2345
L93.6074 133.9488
" />
<path d="M93.6074 133.9488
L93.6074 133.7345
" />
<path d="M93.6074 133.7345
L93.6788 133.4488
" />
<path d="M93.6788 133.4488
L93.7502 133.3060
" />
<path d="M93.7502 133.3060
L93.8931 133.1631
" />
<path d="M93.8931 133.1631
L94.1074 133.0917
" />
<path d="M94.1074 133.0917
L94.2502 133.0917
" />
<path d="M94.2502 133.0917
L94.4645 133.1631
" />
<path d="M94.4645 133.1631
L94.5359 133.2345
" />
<path d="M95.8217 134.5917
L95.8217 133.8060
" />
<path d="M95.8217 133.8060
L95.7502 133.6631
" />
<path d="M95.7502 133.6631
L95.6074 133.5917
" />
<path d="M95.6074 133.5917
L95.3217 133.5917
" />
<path d="M95.3217 133.5917
L95.1788 133.6631
" />
<path d="M95.8217 134.5203
L95.6788 134.5917
" />
<path d="M95.6788 134.5917
L95.3217 134.5917
" />
<path d="M95.3217 134.5917
L95.1788 134.5203
" />
<path d="M95.1788 134.5203
L95.1074 134.3774
" />
<path d="M95.1074 134.3774
L95.1074 134.2345
" />
<path d="M95.1074 134.2345
L95.1788 134.0917
" />
<path d="M95.1788 134.0917
L95.3217 134.0203
" />
<path d="M95.3217 134.0203
L95.6788 134.0203
" />
<path d="M95.6788 134.0203
L95.8217 133.9488
" />
<path d="M97.1788 134.5917
L97.1788 133.0917
" />
<path d="M97.1788 134.5203
L97.0359 134.5917
" />
<path d="M97.0359 134.5917
L96.7502 134.5917
" />
<path d="M96.7502 134.5917
L96.6073 134.5203
" />
<path d="M96.6073 134.5203
L96.5359 134.4488
" />
<path d="M96.5359 134.4488
L96.4645 134.3060
" />
<path d="M96.4645 134.3060
L96.4645 133.8774
" />
<path d="M96.4645 133.8774
L96.5359 133.7345
" />
<path d="M96.5359 133.7345
L96.6073 133.6631
" />
<path d="M96.6073 133.6631
L96.7502 133.5917
" />
<path d="M96.7502 133.5917
L97.0359 133.5917
" />
<path d="M97.0359 133.5917
L97.1788 133.6631
" />
<path d="M99.0359 133.8060
L99.5359 133.8060
" />
<path d="M99.7502 134.5917
L99.0359 134.5917
" />
<path d="M99.0359 134.5917
L99.0359 133.0917
" />
<path d="M99.0359 133.0917
L99.7502 133.0917
" />
<path d="M100.3930 134.4488
L100.4644 134.5203
" />
<path d="M100.4644 134.5203
L100.3930 134.5917
" />
<path d="M100.3930 134.5917
L100.3216 134.5203
" />
<path d="M100.3216 134.5203
L100.3930 134.4488
" />
<path d="M100.3930 134.4488
L100.3930 134.5917
" />
<path d="M101.1073 134.5917
L101.1073 133.0917
" />
<path d="M101.1073 133.0917
L101.4644 133.0917
" />
<path d="M101.4644 133.0917
L101.6787 133.1631
" />
<path d="M101.6787 133.1631
L101.8216 133.3060
" />
<path d="M101.8216 133.3060
L101.8930 133.4488
" />
<path d="M101.8930 133.4488
L101.9644 133.7345
" />
<path d="M101.9644 133.7345
L101.9644 133.9488
" />
<path d="M101.9644 133.9488
L101.8930 134.2345
" />
<path d="M101.8930 134.2345
L101.8216 134.3774
" />
<path d="M101.8216 134.3774
L101.6787 134.5203
" />
<path d="M101.6787 134.5203
L101.4644 134.5917
" />
<path d="M101.4644 134.5917
L101.1073 134.5917
" />
<path d="M102.6073 134.4488
L102.6787 134.5203
" />
<path d="M102.6787 134.5203
L102.6073 134.5917
" />
<path d="M102.6073 134.5917
L102.5359 134.5203
" />
<path d="M102.5359 134.5203
L102.6073 134.4488
" />
<path d="M102.6073 134.4488
L102.6073 134.5917
" />
<path d="M103.2502 134.1631
L103.9645 134.1631
" />
<path d="M103.1073 134.5917
L103.6073 133.0917
" />
<path d="M103.6073 133.0917
L104.1073 134.5917
" />
<path d="M104.6073 134.4488
L104.6787 134.5203
" />
<path d="M104.6787 134.5203
L104.6073 134.5917
" />
<path d="M104.6073 134.5917
L104.5359 134.5203
" />
<path d="M104.5359 134.5203
L104.6073 134.4488
" />
<path d="M104.6073 134.4488
L104.6073 134.5917
" />
<path d="M106.6788 133.7345
L106.5359 133.6631
" />
<path d="M106.5359 133.6631
L106.4645 133.5917
" />
<path d="M106.4645 133.5917
L106.3931 133.4488
" />
<path d="M106.3931 133.4488
L106.3931 133.3774
" />
<path d="M106.3931 133.3774
L106.4645 133.2345
" />
<path d="M106.4645 133.2345
L106.5359 133.1631
" />
<path d="M106.5359 133.1631
L106.6788 133.0917
" />
<path d="M106.6788 133.0917
L106.9645 133.0917
" />
<path d="M106.9645 133.0917
L107.1074 133.1631
" />
<path d="M107.1074 133.1631
L107.1788 133.2345
" />
<path d="M107.1788 133.2345
L107.2502 133.3774
" />
<path d="M107.2502 133.3774
L107.2502 133.4488
" />
<path d="M107.2502 133.4488
L107.1788 133.5917
" />
<path d="M107.1788 133.5917
L107.1074 133.6631
" />
<path d="M107.1074 133.6631
L106.9645 133.7345
" />
<path d="M106.9645 133.7345
L106.6788 133.7345
" />
<path d="M106.6788 133.7345
L106.5359 133.8060
" />
<path d="M106.5359 133.8060
L106.4645 133.8774
" />
<path d="M106.4645 133.8774
L106.3931 134.0203
" />
<path d="M106.3931 134.0203
L106.3931 134.3060
" />
<path d="M106.3931 134.3060
L106.4645 134.4488
" />
<path d="M106.4645 134.4488
L106.5359 134.5203
" />
<path d="M106.5359 134.5203
L106.6788 134.5917
" />
<path d="M106.6788 134.5917
L106.9645 134.5917
" />
<path d="M106.9645 134.5917
L107.1074 134.5203
" />
<path d="M107.1074 134.5203
L107.1788 134.4488
" />
<path d="M107.1788 134.4488
L107.2502 134.3060
" />
<path d="M107.2502 134.3060
L107.2502 134.0203
" />
<path d="M107.2502 134.0203
L107.1788 133.8774
" />
<path d="M107.1788 133.8774
L107.1074 133.8060
" />
<path d="M107.1074 133.8060
L106.9645 133.7345
" />
<path d="M107.8931 134.4488
L107.9645 134.5203
" />
<path d="M107.9645 134.5203
L107.8931 134.5917
" />
<path d="M107.8931 134.5917
L107.8217 134.5203
" />
<path d="M107.8217 134.5203
L107.8931 134.4488
" />
<path d="M107.8931 134.4488
L107.8931 134.5917
" />
<path d="M108.8931 133.0917
L109.0360 133.0917
" />
<path d="M109.0360 133.0917
L109.1788 133.1631
" />
<path d="M109.1788 133.1631
L109.2503 133.2345
" />
<path d="M109.2503 133.2345
L109.3217 133.3774
" />
<path d="M109.3217 133.3774
L109.3931 133.6631
" />
<path d="M109.3931 133.6631
L109.3931 134.0203
" />
<path d="M109.3931 134.0203
L109.3217 134.3060
" />
<path d="M109.3217 134.3060
L109.2503 134.4488
" />
<path d="M109.2503 134.4488
L109.1788 134.5203
" />
<path d="M109.1788 134.5203
L109.0360 134.5917
" />
<path d="M109.0360 134.5917
L108.8931 134.5917
" />
<path d="M108.8931 134.5917
L108.7503 134.5203
" />
<path d="M108.7503 134.5203
L108.6788 134.4488
" />
<path d="M108.6788 134.4488
L108.6074 134.3060
" />
<path d="M108.6074 134.3060
L108.5360 134.0203
" />
<path d="M108.5360 134.0203
L108.5360 133.6631
" />
<path d="M108.5360 133.6631
L108.6074 133.3774
" />
<path d="M108.6074 133.3774
L108.6788 133.2345
" />
<path d="M108.6788 133.2345
L108.7503 133.1631
" />
<path d="M108.7503 133.1631
L108.8931 133.0917
" />
<path d="M110.0360 134.4488
L110.1074 134.5203
" />
<path d="M110.1074 134.5203
L110.0360 134.5917
" />
<path d="M110.0360 134.5917
L109.9646 134.5203
" />
<path d="M109.9646 134.5203
L110.0360 134.4488
" />
<path d="M110.0360 134.4488
L110.0360 134.5917
" />
<path d="M110.6789 133.2345
L110.7503 133.1631
" />
<path d="M110.7503 133.1631
L110.8932 133.0917
" />
<path d="M110.8932 133.0917
L111.2503 133.0917
" />
<path d="M111.2503 133.0917
L111.3932 133.1631
" />
<path d="M111.3932 133.1631
L111.4646 133.2345
" />
<path d="M111.4646 133.2345
L111.5360 133.3774
" />
<path d="M111.5360 133.3774
L111.5360 133.5203
" />
<path d="M111.5360 133.5203
L111.4646 133.7345
" />
<path d="M111.4646 133.7345
L110.6074 134.5917
" />
<path d="M110.6074 134.5917
L111.5360 134.5917
" />
<path d="M112.1789 134.0203
L113.3218 134.0203
" />
<path d="M114.8217 134.5917
L113.9646 134.5917
" />
<path d="M114.3931 134.5917
L114.3931 133.0917
" />
<path d="M114.3931 133.0917
L114.2503 133.3060
" />
<path d="M114.2503 133.3060
L114.1074 133.4488
" />
<path d="M114.1074 133.4488
L113.9646 133.5203
" />
</g><path d="M90.0072 129.5058
L198.0072 129.5058
" />
</g>
<g style="fill:none; 
stroke:#840000; stroke-width:0.3000; stroke-opacity:1; 
stroke-linecap:round; stroke-linejoin:round;">
<text x="176.0072" y="131.8558"
textLength="7.6715" font-size="2.0000" lengthAdjust="spacingAndGlyphs"
text-anchor="start" opacity="0">Rev: A</text>
<g class="stroked-text"><desc>Rev: A</desc>
<path d="M177.4187 131.7841
L176.9187 131.0698
" />
<path d="M176.5616 131.7841
L176.5616 130.2841
" />
<path d="M176.5616 130.2841
L177.1330 130.2841
" />
<path d="M177.1330 130.2841
L177.2759 130.3555
" />
<path d="M177.2759 130.3555
L177.3473 130.4269
" />
<path d="M177.3473 130.4269
L177.4187 130.5698
" />
<path d="M177.4187 130.5698
L177.4187 130.7841
" />
<path d="M177.4187 130.7841
L177.3473 130.9269
" />
<path d="M177.3473 130.9269
L177.2759 130.9984
" />
<path d="M177.2759 130.9984
L177.1330 131.0698
" />
<path d="M177.1330 131.0698
L176.5616 131.0698
" />
<path d="M178.6330 131.7127
L178.4902 131.7841
" />
<path d="M178.4902 131.7841
L178.2045 131.7841
" />
<path d="M178.2045 131.7841
L178.0616 131.7127
" />
<path d="M178.0616 131.7127
L177.9902 131.5698
" />
<path d="M177.9902 131.5698
L177.9902 130.9984
" />
<path d="M177.9902 130.9984
L178.0616 130.8555
" />
<path d="M178.0616 130.8555
L178.2045 130.7841
" />
<path d="M178.2045 130.7841
L178.4902 130.7841
" />
<path d="M178.4902 130.7841
L178.6330 130.8555
" />
<path d="M178.6330 130.8555
L178.7045 130.9984
" />
<path d="M178.7045 130.9984
L178.7045 131.1412
" />
<path d="M178.7045 131.1412
L177.9902 131.2841
" />
<path d="M179.2044 130.7841
L179.5616 131.7841
" />
<path d="M179.5616 131.7841
L179.9187 130.7841
" />
<path d="M180.4902 131.6412
L180.5616 131.7127
" />
<path d="M180.5616 131.7127
L180.4902 131.7841
" />
<path d="M180.4902 131.7841
L180.4188 131.7127
" />
<path d="M180.4188 131.7127
L180.4902 131.6412
" />
<path d="M180.4902 131.6412
L180.4902 131.7841
" />
<path d="M180.4902 130.8555
L180.5616 130.9269
" />
<path d="M180.5616 130.9269
L180.4902 130.9984
" />
<path d="M180.4902 130.9984
L180.4188 130.9269
" />
<path d="M180.4188 130.9269
L180.4902 130.8555
" />
<path d="M180.4902 130.8555
L180.4902 130.9984
" />
<path d="M182.2760 131.3555
L182.9903 131.3555
" />
<path d="M182.1331 131.7841
L182.6331 130.2841
" />
<path d="M182.6331 130.2841
L183.1331 131.7841
" />
</g></g>
<g style="fill:none; 
stroke:#840000; stroke-width:0.1524; stroke-opacity:1; 
stroke-linecap:round; stroke-linejoin:round;">
<text x="91.0072" y="131.8558"
textLength="9.3716" font-size="2.0000" lengthAdjust="spacingAndGlyphs"
text-anchor="start" opacity="0">Size: A5</text>
<g class="stroked-text"><desc>Size: A5</desc>
<path d="M91.3931 131.7203
L91.6074 131.7917
" />
<path d="M91.6074 131.7917
L91.9645 131.7917
" />
<path d="M91.9645 131.7917
L92.1074 131.7203
" />
<path d="M92.1074 131.7203
L92.1788 131.6488
" />
<path d="M92.1788 131.6488
L92.2502 131.5060
" />
<path d="M92.2502 131.5060
L92.2502 131.3631
" />
<path d="M92.2502 131.3631
L92.1788 131.2203
" />
<path d="M92.1788 131.2203
L92.1074 131.1488
" />
<path d="M92.1074 131.1488
L91.9645 131.0774
" />
<path d="M91.9645 131.0774
L91.6788 131.0060
" />
<path d="M91.6788 131.0060
L91.5359 130.9345
" />
<path d="M91.5359 130.9345
L91.4645 130.8631
" />
<path d="M91.4645 130.8631
L91.3931 130.7203
" />
<path d="M91.3931 130.7203
L91.3931 130.5774
" />
<path d="M91.3931 130.5774
L91.4645 130.4345
" />
<path d="M91.4645 130.4345
L91.5359 130.3631
" />
<path d="M91.5359 130.3631
L91.6788 130.2917
" />
<path d="M91.6788 130.2917
L92.0359 130.2917
" />
<path d="M92.0359 130.2917
L92.2502 130.3631
" />
<path d="M92.8931 131.7917
L92.8931 130.7917
" />
<path d="M92.8931 130.2917
L92.8217 130.3631
" />
<path d="M92.8217 130.3631
L92.8931 130.4345
" />
<path d="M92.8931 130.4345
L92.9645 130.3631
" />
<path d="M92.9645 130.3631
L92.8931 130.2917
" />
<path d="M92.8931 130.2917
L92.8931 130.4345
" />
<path d="M93.4645 130.7917
L94.2503 130.7917
" />
<path d="M94.2503 130.7917
L93.4645 131.7917
" />
<path d="M93.4645 131.7917
L94.2503 131.7917
" />
<path d="M95.3931 131.7203
L95.2503 131.7917
" />
<path d="M95.2503 131.7917
L94.9646 131.7917
" />
<path d="M94.9646 131.7917
L94.8217 131.7203
" />
<path d="M94.8217 131.7203
L94.7503 131.5774
" />
<path d="M94.7503 131.5774
L94.7503 131.0060
" />
<path d="M94.7503 131.0060
L94.8217 130.8631
" />
<path d="M94.8217 130.8631
L94.9646 130.7917
" />
<path d="M94.9646 130.7917
L95.2503 130.7917
" />
<path d="M95.2503 130.7917
L95.3931 130.8631
" />
<path d="M95.3931 130.8631
L95.4646 131.0060
" />
<path d="M95.4646 131.0060
L95.4646 131.1488
" />
<path d="M95.4646 131.1488
L94.7503 131.2917
" />
<path d="M96.1074 131.6488
L96.1788 131.7203
" />
<path d="M96.1788 131.7203
L96.1074 131.7917
" />
<path d="M96.1074 131.7917
L96.0360 131.7203
" />
<path d="M96.0360 131.7203
L96.1074 131.6488
" />
<path d="M96.1074 131.6488
L96.1074 131.7917
" />
<path d="M96.1074 130.8631
L96.1788 130.9345
" />
<path d="M96.1788 130.9345
L96.1074 131.0060
" />
<path d="M96.1074 131.0060
L96.0360 130.9345
" />
<path d="M96.0360 130.9345
L96.1074 130.8631
" />
<path d="M96.1074 130.8631
L96.1074 131.0060
" />
<path d="M97.8932 131.3631
L98.6075 131.3631
" />
<path d="M97.7503 131.7917
L98.2503 130.2917
" />
<path d="M98.2503 130.2917
L98.7503 131.7917
" />
<path d="M99.9646 130.2917
L99.2503 130.2917
" />
<path d="M99.2503 130.2917
L99.1789 131.0060
" />
<path d="M99.1789 131.0060
L99.2503 130.9345
" />
<path d="M99.2503 130.9345
L99.3932 130.8631
" />
<path d="M99.3932 130.8631
L99.7503 130.8631
" />
<path d="M99.7503 130.8631
L99.8932 130.9345
" />
<path d="M99.8932 130.9345
L99.9646 131.0060
" />
<path d="M99.9646 131.0060
L100.0360 131.1488
" />
<path d="M100.0360 131.1488
L100.0360 131.5060
" />
<path d="M100.0360 131.5060
L99.9646 131.6488
" />
<path d="M99.9646 131.6488
L99.8932 131.7203
" />
<path d="M99.8932 131.7203
L99.7503 131.7917
" />
<path d="M99.7503 131.7917
L99.3932 131.7917
" />
<path d="M99.3932 131.7917
L99.2503 131.7203
" />
<path d="M99.2503 131.7203
L99.1789 131.6488
" />
</g><text x="176.0072" y="134.6558"
textLength="8.5144" font-size="2.0000" lengthAdjust="spacingAndGlyphs"
text-anchor="start" opacity="0">Id: 1/3</text>
<g class="stroked-text"><desc>Id: 1/3</desc>
<path d="M176.4645 134.5917
L176.4645 133.0917
" />
<path d="M177.8217 134.5917
L177.8217 133.0917
" />
<path d="M177.8217 134.5203
L177.6788 134.5917
" />
<path d="M177.6788 134.5917
L177.3931 134.5917
" />
<path d="M177.3931 134.5917
L177.2502 134.5203
" />
<path d="M177.2502 134.5203
L177.1788 134.4488
" />
<path d="M177.1788 134.4488
L177.1074 134.3060
" />
<path d="M177.1074 134.3060
L177.1074 133.8774
" />
<path d="M177.1074 133.8774
L177.1788 133.7345
" />
<path d="M177.1788 133.7345
L177.2502 133.6631
" />
<path d="M177.2502 133.6631
L177.3931 133.5917
" />
<path d="M177.3931 133.5917
L177.6788 133.5917
" />
<path d="M177.6788 133.5917
L177.8217 133.6631
" />
<path d="M178.5359 134.4488
L178.6073 134.5203
" />
<path d="M178.6073 134.5203
L178.5359 134.5917
" />
<path d="M178.5359 134.5917
L178.4645 134.5203
" />
<path d="M178.4645 134.5203
L178.5359 134.4488
" />
<path d="M178.5359 134.4488
L178.5359 134.5917
" />
<path d="M178.5359 133.6631
L178.6073 133.7345
" />
<path d="M178.6073 133.7345
L178.5359 133.8060
" />
<path d="M178.5359 133.8060
L178.4645 133.7345
" />
<path d="M178.4645 133.7345
L178.5359 133.6631
" />
<path d="M178.5359 133.6631
L178.5359 133.8060
" />
<path d="M181.1788 134.5917
L180.3217 134.5917
" />
<path d="M180.7502 134.5917
L180.7502 133.0917
" />
<path d="M180.7502 133.0917
L180.6074 133.3060
" />
<path d="M180.6074 133.3060
L180.4645 133.4488
" />
<path d="M180.4645 133.4488
L180.3217 133.5203
" />
<path d="M182.8931 133.0203
L181.6074 134.9488
" />
<path d="M183.2502 133.0917
L184.1788 133.0917
" />
<path d="M184.1788 133.0917
L183.6788 133.6631
" />
<path d="M183.6788 133.6631
L183.8931 133.6631
" />
<path d="M183.8931 133.6631
L184.0360 133.7345
" />
<path d="M184.0360 133.7345
L184.1074 133.8060
" />
<path d="M184.1074 133.8060
L184.1788 133.9488
" />
<path d="M184.1788 133.9488
L184.1788 134.3060
" />
<path d="M184.1788 134.3060
L184.1074 134.4488
" />
<path d="M184.1074 134.4488
L184.0360 134.5203
" />
<path d="M184.0360 134.5203
L183.8931 134.5917
" />
<path d="M183.8931 134.5917
L183.4645 134.5917
" />
<path d="M183.4645 134.5917
L183.3217 134.5203
" />
<path d="M183.3217 134.5203
L183.2502 134.4488
" />
</g><path d="M90.0072 125.5058
L198.0072 125.5058
" />
</g>
<g style="fill:none; 
stroke:#840000; stroke-width:0.4000; stroke-opacity:1; 
stroke-linecap:round; stroke-linejoin:round;">
<text x="91.0072" y="128.3058"
textLength="31.7524" font-size="2.6666" lengthAdjust="spacingAndGlyphs"
text-anchor="start" opacity="0">Title: Small Pendant</text>
<g class="stroked-text"><desc>Title: Small Pendant</desc>
<path d="M91.6988 126.2102
L92.8417 126.2102
" />
<path d="M92.0203 128.2102
L92.2703 126.2102
" />
<path d="M93.2583 128.2102
L93.4250 126.8769
" />
<path d="M93.5083 126.2102
L93.4012 126.3054
" />
<path d="M93.4012 126.3054
L93.4845 126.4007
" />
<path d="M93.4845 126.4007
L93.5917 126.3054
" />
<path d="M93.5917 126.3054
L93.5083 126.2102
" />
<path d="M93.5083 126.2102
L93.4845 126.4007
" />
<path d="M94.0917 126.8769
L94.8536 126.8769
" />
<path d="M94.4607 126.2102
L94.2465 127.9245
" />
<path d="M94.2465 127.9245
L94.3179 128.1150
" />
<path d="M94.3179 128.1150
L94.4965 128.2102
" />
<path d="M94.4965 128.2102
L94.6869 128.2102
" />
<path d="M95.6394 128.2102
L95.4608 128.1150
" />
<path d="M95.4608 128.1150
L95.3894 127.9245
" />
<path d="M95.3894 127.9245
L95.6036 126.2102
" />
<path d="M97.1750 128.1150
L96.9727 128.2102
" />
<path d="M96.9727 128.2102
L96.5917 128.2102
" />
<path d="M96.5917 128.2102
L96.4131 128.1150
" />
<path d="M96.4131 128.1150
L96.3417 127.9245
" />
<path d="M96.3417 127.9245
L96.4370 127.1626
" />
<path d="M96.4370 127.1626
L96.5560 126.9721
" />
<path d="M96.5560 126.9721
L96.7584 126.8769
" />
<path d="M96.7584 126.8769
L97.1393 126.8769
" />
<path d="M97.1393 126.8769
L97.3179 126.9721
" />
<path d="M97.3179 126.9721
L97.3893 127.1626
" />
<path d="M97.3893 127.1626
L97.3655 127.3530
" />
<path d="M97.3655 127.3530
L96.3893 127.5435
" />
<path d="M98.1393 128.0197
L98.2227 128.1150
" />
<path d="M98.2227 128.1150
L98.1155 128.2102
" />
<path d="M98.1155 128.2102
L98.0322 128.1150
" />
<path d="M98.0322 128.1150
L98.1393 128.0197
" />
<path d="M98.1393 128.0197
L98.1155 128.2102
" />
<path d="M98.2703 126.9721
L98.3536 127.0673
" />
<path d="M98.3536 127.0673
L98.2465 127.1626
" />
<path d="M98.2465 127.1626
L98.1632 127.0673
" />
<path d="M98.1632 127.0673
L98.2703 126.9721
" />
<path d="M98.2703 126.9721
L98.2465 127.1626
" />
<path d="M100.5084 128.1150
L100.7822 128.2102
" />
<path d="M100.7822 128.2102
L101.2584 128.2102
" />
<path d="M101.2584 128.2102
L101.4608 128.1150
" />
<path d="M101.4608 128.1150
L101.5679 128.0197
" />
<path d="M101.5679 128.0197
L101.6870 127.8292
" />
<path d="M101.6870 127.8292
L101.7108 127.6388
" />
<path d="M101.7108 127.6388
L101.6394 127.4483
" />
<path d="M101.6394 127.4483
L101.5560 127.3530
" />
<path d="M101.5560 127.3530
L101.3775 127.2578
" />
<path d="M101.3775 127.2578
L101.0084 127.1626
" />
<path d="M101.0084 127.1626
L100.8298 127.0673
" />
<path d="M100.8298 127.0673
L100.7465 126.9721
" />
<path d="M100.7465 126.9721
L100.6751 126.7816
" />
<path d="M100.6751 126.7816
L100.6989 126.5911
" />
<path d="M100.6989 126.5911
L100.8179 126.4007
" />
<path d="M100.8179 126.4007
L100.9251 126.3054
" />
<path d="M100.9251 126.3054
L101.1275 126.2102
" />
<path d="M101.1275 126.2102
L101.6036 126.2102
" />
<path d="M101.6036 126.2102
L101.8775 126.3054
" />
<path d="M102.4965 128.2102
L102.6632 126.8769
" />
<path d="M102.6394 127.0673
L102.7465 126.9721
" />
<path d="M102.7465 126.9721
L102.9489 126.8769
" />
<path d="M102.9489 126.8769
L103.2346 126.8769
" />
<path d="M103.2346 126.8769
L103.4132 126.9721
" />
<path d="M103.4132 126.9721
L103.4846 127.1626
" />
<path d="M103.4846 127.1626
L103.3537 128.2102
" />
<path d="M103.4846 127.1626
L103.6037 126.9721
" />
<path d="M103.6037 126.9721
L103.8061 126.8769
" />
<path d="M103.8061 126.8769
L104.0918 126.8769
" />
<path d="M104.0918 126.8769
L104.2703 126.9721
" />
<path d="M104.2703 126.9721
L104.3418 127.1626
" />
<path d="M104.3418 127.1626
L104.2108 128.2102
" />
<path d="M106.0204 128.2102
L106.1513 127.1626
" />
<path d="M106.1513 127.1626
L106.0799 126.9721
" />
<path d="M106.0799 126.9721
L105.9013 126.8769
" />
<path d="M105.9013 126.8769
L105.5204 126.8769
" />
<path d="M105.5204 126.8769
L105.3180 126.9721
" />
<path d="M106.0323 128.1150
L105.8299 128.2102
" />
<path d="M105.8299 128.2102
L105.3537 128.2102
" />
<path d="M105.3537 128.2102
L105.1751 128.1150
" />
<path d="M105.1751 128.1150
L105.1037 127.9245
" />
<path d="M105.1037 127.9245
L105.1275 127.7340
" />
<path d="M105.1275 127.7340
L105.2466 127.5435
" />
<path d="M105.2466 127.5435
L105.4490 127.4483
" />
<path d="M105.4490 127.4483
L105.9251 127.4483
" />
<path d="M105.9251 127.4483
L106.1275 127.3530
" />
<path d="M107.2585 128.2102
L107.0799 128.1150
" />
<path d="M107.0799 128.1150
L107.0085 127.9245
" />
<path d="M107.0085 127.9245
L107.2227 126.2102
" />
<path d="M108.3061 128.2102
L108.1275 128.1150
" />
<path d="M108.1275 128.1150
L108.0561 127.9245
" />
<path d="M108.0561 127.9245
L108.2703 126.2102
" />
<path d="M110.5917 128.2102
L110.8417 126.2102
" />
<path d="M110.8417 126.2102
L111.6036 126.2102
" />
<path d="M111.6036 126.2102
L111.7822 126.3054
" />
<path d="M111.7822 126.3054
L111.8655 126.4007
" />
<path d="M111.8655 126.4007
L111.9370 126.5911
" />
<path d="M111.9370 126.5911
L111.9013 126.8769
" />
<path d="M111.9013 126.8769
L111.7822 127.0673
" />
<path d="M111.7822 127.0673
L111.6751 127.1626
" />
<path d="M111.6751 127.1626
L111.4727 127.2578
" />
<path d="M111.4727 127.2578
L110.7108 127.2578
" />
<path d="M113.3655 128.1150
L113.1632 128.2102
" />
<path d="M113.1632 128.2102
L112.7822 128.2102
" />
<path d="M112.7822 128.2102
L112.6036 128.1150
" />
<path d="M112.6036 128.1150
L112.5322 127.9245
" />
<path d="M112.5322 127.9245
L112.6275 127.1626
" />
<path d="M112.6275 127.1626
L112.7465 126.9721
" />
<path d="M112.7465 126.9721
L112.9489 126.8769
" />
<path d="M112.9489 126.8769
L113.3298 126.8769
" />
<path d="M113.3298 126.8769
L113.5084 126.9721
" />
<path d="M113.5084 126.9721
L113.5798 127.1626
" />
<path d="M113.5798 127.1626
L113.5560 127.3530
" />
<path d="M113.5560 127.3530
L112.5798 127.5435
" />
<path d="M114.4727 126.8769
L114.3060 128.2102
" />
<path d="M114.4489 127.0673
L114.5560 126.9721
" />
<path d="M114.5560 126.9721
L114.7584 126.8769
" />
<path d="M114.7584 126.8769
L115.0441 126.8769
" />
<path d="M115.0441 126.8769
L115.2227 126.9721
" />
<path d="M115.2227 126.9721
L115.2941 127.1626
" />
<path d="M115.2941 127.1626
L115.1632 128.2102
" />
<path d="M116.9727 128.2102
L117.2227 126.2102
" />
<path d="M116.9846 128.1150
L116.7822 128.2102
" />
<path d="M116.7822 128.2102
L116.4013 128.2102
" />
<path d="M116.4013 128.2102
L116.2227 128.1150
" />
<path d="M116.2227 128.1150
L116.1393 128.0197
" />
<path d="M116.1393 128.0197
L116.0679 127.8292
" />
<path d="M116.0679 127.8292
L116.1393 127.2578
" />
<path d="M116.1393 127.2578
L116.2584 127.0673
" />
<path d="M116.2584 127.0673
L116.3655 126.9721
" />
<path d="M116.3655 126.9721
L116.5679 126.8769
" />
<path d="M116.5679 126.8769
L116.9489 126.8769
" />
<path d="M116.9489 126.8769
L117.1274 126.9721
" />
<path d="M118.7822 128.2102
L118.9131 127.1626
" />
<path d="M118.9131 127.1626
L118.8417 126.9721
" />
<path d="M118.8417 126.9721
L118.6631 126.8769
" />
<path d="M118.6631 126.8769
L118.2822 126.8769
" />
<path d="M118.2822 126.8769
L118.0798 126.9721
" />
<path d="M118.7941 128.1150
L118.5917 128.2102
" />
<path d="M118.5917 128.2102
L118.1155 128.2102
" />
<path d="M118.1155 128.2102
L117.9369 128.1150
" />
<path d="M117.9369 128.1150
L117.8655 127.9245
" />
<path d="M117.8655 127.9245
L117.8893 127.7340
" />
<path d="M117.8893 127.7340
L118.0084 127.5435
" />
<path d="M118.0084 127.5435
L118.2108 127.4483
" />
<path d="M118.2108 127.4483
L118.6869 127.4483
" />
<path d="M118.6869 127.4483
L118.8893 127.3530
" />
<path d="M119.9012 126.8769
L119.7345 128.2102
" />
<path d="M119.8774 127.0673
L119.9845 126.9721
" />
<path d="M119.9845 126.9721
L120.1869 126.8769
" />
<path d="M120.1869 126.8769
L120.4726 126.8769
" />
<path d="M120.4726 126.8769
L120.6512 126.9721
" />
<path d="M120.6512 126.9721
L120.7226 127.1626
" />
<path d="M120.7226 127.1626
L120.5917 128.2102
" />
<path d="M121.4250 126.8769
L122.1869 126.8769
" />
<path d="M121.7940 126.2102
L121.5798 127.9245
" />
<path d="M121.5798 127.9245
L121.6512 128.1150
" />
<path d="M121.6512 128.1150
L121.8298 128.2102
" />
<path d="M121.8298 128.2102
L122.0202 128.2102
" />
</g></g>
<g style="fill:none; 
stroke:#840000; stroke-width:0.1524; stroke-opacity:1; 
stroke-linecap:round; stroke-linejoin:round;">
<text x="91.0072" y="124.4558"
textLength="34.2998" font-size="2.0000" lengthAdjust="spacingAndGlyphs"
text-anchor="start" opacity="0">File: Small_Pendant.kicad_sch</text>
<g class="stroked-text"><desc>File: Small_Pendant.kicad_sch</desc>
<path d="M91.9645 123.6060
L91.4645 123.6060
" />
<path d="M91.4645 124.3917
L91.4645 122.8917
" />
<path d="M91.4645 122.8917
L92.1788 122.8917
" />
<path d="M92.7502 124.3917
L92.7502 123.3917
" />
<path d="M92.7502 122.8917
L92.6788 122.9631
" />
<path d="M92.6788 122.9631
L92.7502 123.0345
" />
<path d="M92.7502 123.0345
L92.8216 122.9631
" />
<path d="M92.8216 122.9631
L92.7502 122.8917
" />
<path d="M92.7502 122.8917
L92.7502 123.0345
" />
<path d="M93.6788 124.3917
L93.5359 124.3203
" />
<path d="M93.5359 124.3203
L93.4645 124.1774
" />
<path d="M93.4645 124.1774
L93.4645 122.8917
" />
<path d="M94.8216 124.3203
L94.6788 124.3917
" />
<path d="M94.6788 124.3917
L94.3931 124.3917
" />
<path d="M94.3931 124.3917
L94.2502 124.3203
" />
<path d="M94.2502 124.3203
L94.1788 124.1774
" />
<path d="M94.1788 124.1774
L94.1788 123.6060
" />
<path d="M94.1788 123.6060
L94.2502 123.4631
" />
<path d="M94.2502 123.4631
L94.3931 123.3917
" />
<path d="M94.3931 123.3917
L94.6788 123.3917
" />
<path d="M94.6788 123.3917
L94.8216 123.4631
" />
<path d="M94.8216 123.4631
L94.8931 123.6060
" />
<path d="M94.8931 123.6060
L94.8931 123.7488
" />
<path d="M94.8931 123.7488
L94.1788 123.8917
" />
<path d="M95.5359 124.2488
L95.6073 124.3203
" />
<path d="M95.6073 124.3203
L95.5359 124.3917
" />
<path d="M95.5359 124.3917
L95.4645 124.3203
" />
<path d="M95.4645 124.3203
L95.5359 124.2488
" />
<path d="M95.5359 124.2488
L95.5359 124.3917
" />
<path d="M95.5359 123.4631
L95.6073 123.5345
" />
<path d="M95.6073 123.5345
L95.5359 123.6060
" />
<path d="M95.5359 123.6060
L95.4645 123.5345
" />
<path d="M95.4645 123.5345
L95.5359 123.4631
" />
<path d="M95.5359 123.4631
L95.5359 123.6060
" />
<path d="M97.3217 124.3203
L97.5360 124.3917
" />
<path d="M97.5360 124.3917
L97.8931 124.3917
" />
<path d="M97.8931 124.3917
L98.0360 124.3203
" />
<path d="M98.0360 124.3203
L98.1074 124.2488
" />
<path d="M98.1074 124.2488
L98.1788 124.1060
" />
<path d="M98.1788 124.1060
L98.1788 123.9631
" />
<path d="M98.1788 123.9631
L98.1074 123.8203
" />
<path d="M98.1074 123.8203
L98.0360 123.7488
" />
<path d="M98.0360 123.7488
L97.8931 123.6774
" />
<path d="M97.8931 123.6774
L97.6074 123.6060
" />
<path d="M97.6074 123.6060
L97.4645 123.5345
" />
<path d="M97.4645 123.5345
L97.3931 123.4631
" />
<path d="M97.3931 123.4631
L97.3217 123.3203
" />
<path d="M97.3217 123.3203
L97.3217 123.1774
" />
<path d="M97.3217 123.1774
L97.3931 123.0345
" />
<path d="M97.3931 123.0345
L97.4645 122.9631
" />
<path d="M97.4645 122.9631
L97.6074 122.8917
" />
<path d="M97.6074 122.8917
L97.9645 122.8917
" />
<path d="M97.9645 122.8917
L98.1788 122.9631
" />
<path d="M98.8217 124.3917
L98.8217 123.3917
" />
<path d="M98.8217 123.5345
L98.8931 123.4631
" />
<path d="M98.8931 123.4631
L99.0360 123.3917
" />
<path d="M99.0360 123.3917
L99.2503 123.3917
" />
<path d="M99.2503 123.3917
L99.3931 123.4631
" />
<path d="M99.3931 123.4631
L99.4646 123.6060
" />
<path d="M99.4646 123.6060
L99.4646 124.3917
" />
<path d="M99.4646 123.6060
L99.5360 123.4631
" />
<path d="M99.5360 123.4631
L99.6788 123.3917
" />
<path d="M99.6788 123.3917
L99.8931 123.3917
" />
<path d="M99.8931 123.3917
L100.0360 123.4631
" />
<path d="M100.0360 123.4631
L100.1074 123.6060
" />
<path d="M100.1074 123.6060
L100.1074 124.3917
" />
<path d="M101.4646 124.3917
L101.4646 123.6060
" />
<path d="M101.4646 123.6060
L101.3931 123.4631
" />
<path d="M101.3931 123.4631
L101.2503 123.3917
" />
<path d="M101.2503 123.3917
L100.9646 123.3917
" />
<path d="M100.9646 123.3917
L100.8217 123.4631
" />
<path d="M101.4646 124.3203
L101.3217 124.3917
" />
<path d="M101.3217 124.3917
L100.9646 124.3917
" />
<path d="M100.9646 124.3917
L100.8217 124.3203
" />
<path d="M100.8217 124.3203
L100.7503 124.1774
" />
<path d="M100.7503 124.1774
L100.7503 124.0345
" />
<path d="M100.7503 124.0345
L100.8217 123.8917
" />
<path d="M100.8217 123.8917
L100.9646 123.8203
" />
<path d="M100.9646 123.8203
L101.3217 123.8203
" />
<path d="M101.3217 123.8203
L101.4646 123.7488
" />
<path d="M102.3931 124.3917
L102.2502 124.3203
" />
<path d="M102.2502 124.3203
L102.1788 124.1774
" />
<path d="M102.1788 124.1774
L102.1788 122.8917
" />
<path d="M103.1788 124.3917
L103.0359 124.3203
" />
<path d="M103.0359 124.3203
L102.9645 124.1774
" />
<path d="M102.9645 124.1774
L102.9645 122.8917
" />
<path d="M103.3931 124.5345
L104.5359 124.5345
" />
<path d="M104.8931 124.3917
L104.8931 122.8917
" />
<path d="M104.8931 122.8917
L105.4645 122.8917
" />
<path d="M105.4645 122.8917
L105.6074 122.9631
" />
<path d="M105.6074 122.9631
L105.6788 123.0345
" />
<path d="M105.6788 123.0345
L105.7502 123.1774
" />
<path d="M105.7502 123.1774
L105.7502 123.3917
" />
<path d="M105.7502 123.3917
L105.6788 123.5345
" />
<path d="M105.6788 123.5345
L105.6074 123.6060
" />
<path d="M105.6074 123.6060
L105.4645 123.6774
" />
<path d="M105.4645 123.6774
L104.8931 123.6774
" />
<path d="M106.9645 124.3203
L106.8217 124.3917
" />
<path d="M106.8217 124.3917
L106.5360 124.3917
" />
<path d="M106.5360 124.3917
L106.3931 124.3203
" />
<path d="M106.3931 124.3203
L106.3217 124.1774
" />
<path d="M106.3217 124.1774
L106.3217 123.6060
" />
<path d="M106.3217 123.6060
L106.3931 123.4631
" />
<path d="M106.3931 123.4631
L106.5360 123.3917
" />
<path d="M106.5360 123.3917
L106.8217 123.3917
" />
<path d="M106.8217 123.3917
L106.9645 123.4631
" />
<path d="M106.9645 123.4631
L107.0360 123.6060
" />
<path d="M107.0360 123.6060
L107.0360 123.7488
" />
<path d="M107.0360 123.7488
L106.3217 123.8917
" />
<path d="M107.6788 123.3917
L107.6788 124.3917
" />
<path d="M107.6788 123.5345
L107.7502 123.4631
" />
<path d="M107.7502 123.4631
L107.8931 123.3917
" />
<path d="M107.8931 123.3917
L108.1074 123.3917
" />
<path d="M108.1074 123.3917
L108.2502 123.4631
" />
<path d="M108.2502 123.4631
L108.3217 123.6060
" />
<path d="M108.3217 123.6060
L108.3217 124.3917
" />
<path d="M109.6788 124.3917
L109.6788 122.8917
" />
<path d="M109.6788 124.3203
L109.5359 124.3917
" />
<path d="M109.5359 124.3917
L109.2502 124.3917
" />
<path d="M109.2502 124.3917
L109.1073 124.3203
" />
<path d="M109.1073 124.3203
L109.0359 124.2488
" />
<path d="M109.0359 124.2488
L108.9645 124.1060
" />
<path d="M108.9645 124.1060
L108.9645 123.6774
" />
<path d="M108.9645 123.6774
L109.0359 123.5345
" />
<path d="M109.0359 123.5345
L109.1073 123.4631
" />
<path d="M109.1073 123.4631
L109.2502 123.3917
" />
<path d="M109.2502 123.3917
L109.5359 123.3917
" />
<path d="M109.5359 123.3917
L109.6788 123.4631
" />
<path d="M111.0359 124.3917
L111.0359 123.6060
" />
<path d="M111.0359 123.6060
L110.9644 123.4631
" />
<path d="M110.9644 123.4631
L110.8216 123.3917
" />
<path d="M110.8216 123.3917
L110.5359 123.3917
" />
<path d="M110.5359 123.3917
L110.3930 123.4631
" />
<path d="M111.0359 124.3203
L110.8930 124.3917
" />
<path d="M110.8930 124.3917
L110.5359 124.3917
" />
<path d="M110.5359 124.3917
L110.3930 124.3203
" />
<path d="M110.3930 124.3203
L110.3216 124.1774
" />
<path d="M110.3216 124.1774
L110.3216 124.0345
" />
<path d="M110.3216 124.0345
L110.3930 123.8917
" />
<path d="M110.3930 123.8917
L110.5359 123.8203
" />
<path d="M110.5359 123.8203
L110.8930 123.8203
" />
<path d="M110.8930 123.8203
L111.0359 123.7488
" />
<path d="M111.7501 123.3917
L111.7501 124.3917
" />
<path d="M111.7501 123.5345
L111.8215 123.4631
" />
<path d="M111.8215 123.4631
L111.9644 123.3917
" />
<path d="M111.9644 123.3917
L112.1787 123.3917
" />
<path d="M112.1787 123.3917
L112.3215 123.4631
" />
<path d="M112.3215 123.4631
L112.3930 123.6060
" />
<path d="M112.3930 123.6060
L112.3930 124.3917
" />
<path d="M112.8929 123.3917
L113.4643 123.3917
" />
<path d="M113.1072 122.8917
L113.1072 124.1774
" />
<path d="M113.1072 124.1774
L113.1786 124.3203
" />
<path d="M113.1786 124.3203
L113.3215 124.3917
" />
<path d="M113.3215 124.3917
L113.4643 124.3917
" />
<path d="M113.9643 124.2488
L114.0357 124.3203
" />
<path d="M114.0357 124.3203
L113.9643 124.3917
" />
<path d="M113.9643 124.3917
L113.8929 124.3203
" />
<path d="M113.8929 124.3203
L113.9643 124.2488
" />
<path d="M113.9643 124.2488
L113.9643 124.3917
" />
<path d="M114.6786 124.3917
L114.6786 122.8917
" />
<path d="M114.8215 123.8203
L115.2500 124.3917
" />
<path d="M115.2500 123.3917
L114.6786 123.9631
" />
<path d="M115.8929 124.3917
L115.8929 123.3917
" />
<path d="M115.8929 122.8917
L115.8215 122.9631
" />
<path d="M115.8215 122.9631
L115.8929 123.0345
" />
<path d="M115.8929 123.0345
L115.9643 122.9631
" />
<path d="M115.9643 122.9631
L115.8929 122.8917
" />
<path d="M115.8929 122.8917
L115.8929 123.0345
" />
<path d="M117.2501 124.3203
L117.1072 124.3917
" />
<path d="M117.1072 124.3917
L116.8215 124.3917
" />
<path d="M116.8215 124.3917
L116.6786 124.3203
" />
<path d="M116.6786 124.3203
L116.6072 124.2488
" />
<path d="M116.6072 124.2488
L116.5358 124.1060
" />
<path d="M116.5358 124.1060
L116.5358 123.6774
" />
<path d="M116.5358 123.6774
L116.6072 123.5345
" />
<path d="M116.6072 123.5345
L116.6786 123.4631
" />
<path d="M116.6786 123.4631
L116.8215 123.3917
" />
<path d="M116.8215 123.3917
L117.1072 123.3917
" />
<path d="M117.1072 123.3917
L117.2501 123.4631
" />
<path d="M118.5358 124.3917
L118.5358 123.6060
" />
<path d="M118.5358 123.6060
L118.4643 123.4631
" />
<path d="M118.4643 123.4631
L118.3215 123.3917
" />
<path d="M118.3215 123.3917
L118.0358 123.3917
" />
<path d="M118.0358 123.3917
L117.8929 123.4631
" />
<path d="M118.5358 124.3203
L118.3929 124.3917
" />
<path d="M118.3929 124.3917
L118.0358 124.3917
" />
<path d="M118.0358 124.3917
L117.8929 124.3203
" />
<path d="M117.8929 124.3203
L117.8215 124.1774
" />
<path d="M117.8215 124.1774
L117.8215 124.0345
" />
<path d="M117.8215 124.0345
L117.8929 123.8917
" />
<path d="M117.8929 123.8917
L118.0358 123.8203
" />
<path d="M118.0358 123.8203
L118.3929 123.8203
" />
<path d="M118.3929 123.8203
L118.5358 123.7488
" />
<path d="M119.8929 124.3917
L119.8929 122.8917
" />
<path d="M119.8929 124.3203
L119.7500 124.3917
" />
<path d="M119.7500 124.3917
L119.4643 124.3917
" />
<path d="M119.4643 124.3917
L119.3214 124.3203
" />
<path d="M119.3214 124.3203
L119.2500 124.2488
" />
<path d="M119.2500 124.2488
L119.1786 124.1060
" />
<path d="M119.1786 124.1060
L119.1786 123.6774
" />
<path d="M119.1786 123.6774
L119.2500 123.5345
" />
<path d="M119.2500 123.5345
L119.3214 123.4631
" />
<path d="M119.3214 123.4631
L119.4643 123.3917
" />
<path d="M119.4643 123.3917
L119.7500 123.3917
" />
<path d="M119.7500 123.3917
L119.8929 123.4631
" />
<path d="M120.2500 124.5345
L121.3928 124.5345
" />
<path d="M121.6786 124.3203
L121.8214 124.3917
" />
<path d="M121.8214 124.3917
L122.1071 124.3917
" />
<path d="M122.1071 124.3917
L122.2500 124.3203
" />
<path d="M122.2500 124.3203
L122.3214 124.1774
" />
<path d="M122.3214 124.1774
L122.3214 124.1060
" />
<path d="M122.3214 124.1060
L122.2500 123.9631
" />
<path d="M122.2500 123.9631
L122.1071 123.8917
" />
<path d="M122.1071 123.8917
L121.8929 123.8917
" />
<path d="M121.8929 123.8917
L121.7500 123.8203
" />
<path d="M121.7500 123.8203
L121.6786 123.6774
" />
<path d="M121.6786 123.6774
L121.6786 123.6060
" />
<path d="M121.6786 123.6060
L121.7500 123.4631
" />
<path d="M121.7500 123.4631
L121.8929 123.3917
" />
<path d="M121.8929 123.3917
L122.1071 123.3917
" />
<path d="M122.1071 123.3917
L122.2500 123.4631
" />
<path d="M123.6072 124.3203
L123.4643 124.3917
" />
<path d="M123.4643 124.3917
L123.1786 124.3917
" />
<path d="M123.1786 124.3917
L123.0357 124.3203
" />
<path d="M123.0357 124.3203
L122.9643 124.2488
" />
<path d="M122.9643 124.2488
L122.8929 124.1060
" />
<path d="M122.8929 124.1060
L122.8929 123.6774
" />
<path d="M122.8929 123.6774
L122.9643 123.5345
" />
<path d="M122.9643 123.5345
L123.0357 123.4631
" />
<path d="M123.0357 123.4631
L123.1786 123.3917
" />
<path d="M123.1786 123.3917
L123.4643 123.3917
" />
<path d="M123.4643 123.3917
L123.6072 123.4631
" />
<path d="M124.2500 124.3917
L124.2500 122.8917
" />
<path d="M124.8929 124.3917
L124.8929 123.6060
" />
<path d="M124.8929 123.6060
L124.8214 123.4631
" />
<path d="M124.8214 123.4631
L124.6786 123.3917
" />
<path d="M124.6786 123.3917
L124.4643 123.3917
" />
<path d="M124.4643 123.3917
L124.3214 123.4631
" />
<path d="M124.3214 123.4631
L124.2500 123.5345
" />
</g><path d="M90.0072 119.5058
L198.0072 119.5058
" />
<text x="91.0072" y="121.7558"
textLength="9.8000" font-size="2.0000" lengthAdjust="spacingAndGlyphs"
text-anchor="start" opacity="0">Sheet: /</text>
<g class="stroked-text"><desc>Sheet: /</desc>
<path d="M91.3931 121.6203
L91.6074 121.6917
" />
<path d="M91.6074 121.6917
L91.9645 121.6917
" />
<path d="M91.9645 121.6917
L92.1074 121.6203
" />
<path d="M92.1074 121.6203
L92.1788 121.5488
" />
<path d="M92.1788 121.5488
L92.2502 121.4060
" />
<path d="M92.2502 121.4060
L92.2502 121.2631
" />
<path d="M92.2502 121.2631
L92.1788 121.1203
" />
<path d="M92.1788 121.1203
L92.1074 121.0488
" />
<path d="M92.1074 121.0488
L91.9645 120.9774
" />
<path d="M91.9645 120.9774
L91.6788 120.9060
" />
<path d="M91.6788 120.9060
L91.5359 120.8345
" />
<path d="M91.5359 120.8345
L91.4645 120.7631
" />
<path d="M91.4645 120.7631
L91.3931 120.6203
" />
<path d="M91.3931 120.6203
L91.3931 120.4774
" />
<path d="M91.3931 120.4774
L91.4645 120.3345
" />
<path d="M91.4645 120.3345
L91.5359 120.2631
" />
<path d="M91.5359 120.2631
L91.6788 120.1917
" />
<path d="M91.6788 120.1917
L92.0359 120.1917
" />
<path d="M92.0359 120.1917
L92.2502 120.2631
" />
<path d="M92.8931 121.6917
L92.8931 120.1917
" />
<path d="M93.5360 121.6917
L93.5360 120.9060
" />
<path d="M93.5360 120.9060
L93.4645 120.7631
" />
<path d="M93.4645 120.7631
L93.3217 120.6917
" />
<path d="M93.3217 120.6917
L93.1074 120.6917
" />
<path d="M93.1074 120.6917
L92.9645 120.7631
" />
<path d="M92.9645 120.7631
L92.8931 120.8345
" />
<path d="M94.8216 121.6203
L94.6788 121.6917
" />
<path d="M94.6788 121.6917
L94.3931 121.6917
" />
<path d="M94.3931 121.6917
L94.2502 121.6203
" />
<path d="M94.2502 121.6203
L94.1788 121.4774
" />
<path d="M94.1788 121.4774
L94.1788 120.9060
" />
<path d="M94.1788 120.9060
L94.2502 120.7631
" />
<path d="M94.2502 120.7631
L94.3931 120.6917
" />
<path d="M94.3931 120.6917
L94.6788 120.6917
" />
<path d="M94.6788 120.6917
L94.8216 120.7631
" />
<path d="M94.8216 120.7631
L94.8931 120.9060
" />
<path d="M94.8931 120.9060
L94.8931 121.0488
" />
<path d="M94.8931 121.0488
L94.1788 121.1917
" />
<path d="M96.1073 121.6203
L95.9645 121.6917
" />
<path d="M95.9645 121.6917
L95.6788 121.6917
" />
<path d="M95.6788 121.6917
L95.5359 121.6203
" />
<path d="M95.5359 121.6203
L95.4645 121.4774
" />
<path d="M95.4645 121.4774
L95.4645 120.9060
" />
<path d="M95.4645 120.9060
L95.5359 120.7631
" />
<path d="M95.5359 120.7631
L95.6788 120.6917
" />
<path d="M95.6788 120.6917
L95.9645 120.6917
" />
<path d="M95.9645 120.6917
L96.1073 120.7631
" />
<path d="M96.1073 120.7631
L96.1788 120.9060
" />
<path d="M96.1788 120.9060
L96.1788 121.0488
" />
<path d="M96.1788 121.0488
L95.4645 121.1917
" />
<path d="M96.6073 120.6917
L97.1787 120.6917
" />
<path d="M96.8216 120.1917
L96.8216 121.4774
" />
<path d="M96.8216 121.4774
L96.8930 121.6203
" />
<path d="M96.8930 121.6203
L97.0359 121.6917
" />
<path d="M97.0359 121.6917
L97.1787 121.6917
" />
<path d="M97.6787 121.5488
L97.7501 121.6203
" />
<path d="M97.7501 121.6203
L97.6787 121.6917
" />
<path d="M97.6787 121.6917
L97.6073 121.6203
" />
<path d="M97.6073 121.6203
L97.6787 121.5488
" />
<path d="M97.6787 121.5488
L97.6787 121.6917
" />
<path d="M97.6787 120.7631
L97.7501 120.8345
" />
<path d="M97.7501 120.8345
L97.6787 120.9060
" />
<path d="M97.6787 120.9060
L97.6073 120.8345
" />
<path d="M97.6073 120.8345
L97.6787 120.7631
" />
<path d="M97.6787 120.7631
L97.6787 120.9060
" />
<path d="M100.6073 120.1203
L99.3216 122.0488
" />
</g></g>
<g style="fill:none; 
stroke:#840000; stroke-width:0.3000; stroke-opacity:1; 
stroke-linecap:round; stroke-linejoin:round;">
<text x="91.0072" y="118.7558"
textLength="10.0285" font-size="2.0000" lengthAdjust="spacingAndGlyphs"
text-anchor="start" opacity="0">MJHaahr</text>
<g class="stroked-text"><desc>MJHaahr</desc>
<path d="M91.5616 118.6841
L91.5616 117.1841
" />
<path d="M91.5616 117.1841
L92.0616 118.2555
" />
<path d="M92.0616 118.2555
L92.5616 117.1841
" />
<path d="M92.5616 117.1841
L92.5616 118.6841
" />
<path d="M93.7045 117.1841
L93.7045 118.2555
" />
<path d="M93.7045 118.2555
L93.6330 118.4698
" />
<path d="M93.6330 118.4698
L93.4902 118.6127
" />
<path d="M93.4902 118.6127
L93.2759 118.6841
" />
<path d="M93.2759 118.6841
L93.1330 118.6841
" />
<path d="M94.4188 118.6841
L94.4188 117.1841
" />
<path d="M94.4188 117.8984
L95.2759 117.8984
" />
<path d="M95.2759 118.6841
L95.2759 117.1841
" />
<path d="M96.6331 118.6841
L96.6331 117.8984
" />
<path d="M96.6331 117.8984
L96.5616 117.7555
" />
<path d="M96.5616 117.7555
L96.4188 117.6841
" />
<path d="M96.4188 117.6841
L96.1331 117.6841
" />
<path d="M96.1331 117.6841
L95.9902 117.7555
" />
<path d="M96.6331 118.6127
L96.4902 118.6841
" />
<path d="M96.4902 118.6841
L96.1331 118.6841
" />
<path d="M96.1331 118.6841
L95.9902 118.6127
" />
<path d="M95.9902 118.6127
L95.9188 118.4698
" />
<path d="M95.9188 118.4698
L95.9188 118.3269
" />
<path d="M95.9188 118.3269
L95.9902 118.1841
" />
<path d="M95.9902 118.1841
L96.1331 118.1127
" />
<path d="M96.1331 118.1127
L96.4902 118.1127
" />
<path d="M96.4902 118.1127
L96.6331 118.0412
" />
<path d="M97.9902 118.6841
L97.9902 117.8984
" />
<path d="M97.9902 117.8984
L97.9187 117.7555
" />
<path d="M97.9187 117.7555
L97.7759 117.6841
" />
<path d="M97.7759 117.6841
L97.4902 117.6841
" />
<path d="M97.4902 117.6841
L97.3473 117.7555
" />
<path d="M97.9902 118.6127
L97.8473 118.6841
" />
<path d="M97.8473 118.6841
L97.4902 118.6841
" />
<path d="M97.4902 118.6841
L97.3473 118.6127
" />
<path d="M97.3473 118.6127
L97.2759 118.4698
" />
<path d="M97.2759 118.4698
L97.2759 118.3269
" />
<path d="M97.2759 118.3269
L97.3473 118.1841
" />
<path d="M97.3473 118.1841
L97.4902 118.1127
" />
<path d="M97.4902 118.1127
L97.8473 118.1127
" />
<path d="M97.8473 118.1127
L97.9902 118.0412
" />
<path d="M98.7044 118.6841
L98.7044 117.1841
" />
<path d="M99.3473 118.6841
L99.3473 117.8984
" />
<path d="M99.3473 117.8984
L99.2758 117.7555
" />
<path d="M99.2758 117.7555
L99.1330 117.6841
" />
<path d="M99.1330 117.6841
L98.9187 117.6841
" />
<path d="M98.9187 117.6841
L98.7758 117.7555
" />
<path d="M98.7758 117.7555
L98.7044 117.8269
" />
<path d="M100.0615 118.6841
L100.0615 117.6841
" />
<path d="M100.0615 117.9698
L100.1329 117.8269
" />
<path d="M100.1329 117.8269
L100.2044 117.7555
" />
<path d="M100.2044 117.7555
L100.3472 117.6841
" />
<path d="M100.3472 117.6841
L100.4901 117.6841
" />
</g></g>
<g style="fill:none; 
stroke:#840000; stroke-width:0.1524; stroke-opacity:1; 
stroke-linecap:round; stroke-linejoin:round;">
<text x="91.0072" y="115.7558"
textLength="16.8712" font-size="2.0000" lengthAdjust="spacingAndGlyphs"
text-anchor="start" opacity="0">Matthew Haahr</text>
<g class="stroked-text"><desc>Matthew Haahr</desc>
<path d="M91.4645 115.6917
L91.4645 114.1917
" />
<path d="M91.4645 114.1917
L91.9645 115.2631
" />
<path d="M91.9645 115.2631
L92.4645 114.1917
" />
<path d="M92.4645 114.1917
L92.4645 115.6917
" />
<path d="M93.8217 115.6917
L93.8217 114.9060
" />
<path d="M93.8217 114.9060
L93.7502 114.7631
" />
<path d="M93.7502 114.7631
L93.6074 114.6917
" />
<path d="M93.6074 114.6917
L93.3217 114.6917
" />
<path d="M93.3217 114.6917
L93.1788 114.7631
" />
<path d="M93.8217 115.6203
L93.6788 115.6917
" />
<path d="M93.6788 115.6917
L93.3217 115.6917
" />
<path d="M93.3217 115.6917
L93.1788 115.6203
" />
<path d="M93.1788 115.6203
L93.1074 115.4774
" />
<path d="M93.1074 115.4774
L93.1074 115.3345
" />
<path d="M93.1074 115.3345
L93.1788 115.1917
" />
<path d="M93.1788 115.1917
L93.3217 115.1203
" />
<path d="M93.3217 115.1203
L93.6788 115.1203
" />
<path d="M93.6788 115.1203
L93.8217 115.0488
" />
<path d="M94.3216 114.6917
L94.8930 114.6917
" />
<path d="M94.5359 114.1917
L94.5359 115.4774
" />
<path d="M94.5359 115.4774
L94.6073 115.6203
" />
<path d="M94.6073 115.6203
L94.7502 115.6917
" />
<path d="M94.7502 115.6917
L94.8930 115.6917
" />
<path d="M95.1787 114.6917
L95.7501 114.6917
" />
<path d="M95.3930 114.1917
L95.3930 115.4774
" />
<path d="M95.3930 115.4774
L95.4644 115.6203
" />
<path d="M95.4644 115.6203
L95.6073 115.6917
" />
<path d="M95.6073 115.6917
L95.7501 115.6917
" />
<path d="M96.2501 115.6917
L96.2501 114.1917
" />
<path d="M96.8930 115.6917
L96.8930 114.9060
" />
<path d="M96.8930 114.9060
L96.8215 114.7631
" />
<path d="M96.8215 114.7631
L96.6787 114.6917
" />
<path d="M96.6787 114.6917
L96.4644 114.6917
" />
<path d="M96.4644 114.6917
L96.3215 114.7631
" />
<path d="M96.3215 114.7631
L96.2501 114.8345
" />
<path d="M98.1786 115.6203
L98.0358 115.6917
" />
<path d="M98.0358 115.6917
L97.7501 115.6917
" />
<path d="M97.7501 115.6917
L97.6072 115.6203
" />
<path d="M97.6072 115.6203
L97.5358 115.4774
" />
<path d="M97.5358 115.4774
L97.5358 114.9060
" />
<path d="M97.5358 114.9060
L97.6072 114.7631
" />
<path d="M97.6072 114.7631
L97.7501 114.6917
" />
<path d="M97.7501 114.6917
L98.0358 114.6917
" />
<path d="M98.0358 114.6917
L98.1786 114.7631
" />
<path d="M98.1786 114.7631
L98.2501 114.9060
" />
<path d="M98.2501 114.9060
L98.2501 115.0488
" />
<path d="M98.2501 115.0488
L97.5358 115.1917
" />
<path d="M98.7500 114.6917
L99.0358 115.6917
" />
<path d="M99.0358 115.6917
L99.3215 114.9774
" />
<path d="M99.3215 114.9774
L99.6072 115.6917
" />
<path d="M99.6072 115.6917
L99.8929 114.6917
" />
<path d="M101.6072 115.6917
L101.6072 114.1917
" />
<path d="M101.6072 114.9060
L102.4643 114.9060
" />
<path d="M102.4643 115.6917
L102.4643 114.1917
" />
<path d="M103.8215 115.6917
L103.8215 114.9060
" />
<path d="M103.8215 114.9060
L103.7500 114.7631
" />
<path d="M103.7500 114.7631
L103.6072 114.6917
" />
<path d="M103.6072 114.6917
L103.3215 114.6917
" />
<path d="M103.3215 114.6917
L103.1786 114.7631
" />
<path d="M103.8215 115.6203
L103.6786 115.6917
" />
<path d="M103.6786 115.6917
L103.3215 115.6917
" />
<path d="M103.3215 115.6917
L103.1786 115.6203
" />
<path d="M103.1786 115.6203
L103.1072 115.4774
" />
<path d="M103.1072 115.4774
L103.1072 115.3345
" />
<path d="M103.1072 115.3345
L103.1786 115.1917
" />
<path d="M103.1786 115.1917
L103.3215 115.1203
" />
<path d="M103.3215 115.1203
L103.6786 115.1203
" />
<path d="M103.6786 115.1203
L103.8215 115.0488
" />
<path d="M105.1786 115.6917
L105.1786 114.9060
" />
<path d="M105.1786 114.9060
L105.1071 114.7631
" />
<path d="M105.1071 114.7631
L104.9643 114.6917
" />
<path d="M104.9643 114.6917
L104.6786 114.6917
" />
<path d="M104.6786 114.6917
L104.5357 114.7631
" />
<path d="M105.1786 115.6203
L105.0357 115.6917
" />
<path d="M105.0357 115.6917
L104.6786 115.6917
" />
<path d="M104.6786 115.6917
L104.5357 115.6203
" />
<path d="M104.5357 115.6203
L104.4643 115.4774
" />
<path d="M104.4643 115.4774
L104.4643 115.3345
" />
<path d="M104.4643 115.3345
L104.5357 115.1917
" />
<path d="M104.5357 115.1917
L104.6786 115.1203
" />
<path d="M104.6786 115.1203
L105.0357 115.1203
" />
<path d="M105.0357 115.1203
L105.1786 115.0488
" />
<path d="M105.8928 115.6917
L105.8928 114.1917
" />
<path d="M106.5357 115.6917
L106.5357 114.9060
" />
<path d="M106.5357 114.9060
L106.4642 114.7631
" />
<path d="M106.4642 114.7631
L106.3214 114.6917
" />
<path d="M106.3214 114.6917
L106.1071 114.6917
" />
<path d="M106.1071 114.6917
L105.9642 114.7631
" />
<path d="M105.9642 114.7631
L105.8928 114.8345
" />
<path d="M107.2499 115.6917
L107.2499 114.6917
" />
<path d="M107.2499 114.9774
L107.3213 114.8345
" />
<path d="M107.3213 114.8345
L107.3928 114.7631
" />
<path d="M107.3928 114.7631
L107.5356 114.6917
" />
<path d="M107.5356 114.6917
L107.6785 114.6917
" />
</g><text x="91.0072" y="112.7558"
textLength="0.4572" font-size="2.0000" lengthAdjust="spacingAndGlyphs"
text-anchor="start" opacity="0"></text>
<g class="stroked-text"><desc></desc>
</g><text x="91.0072" y="109.7558"
textLength="0.4572" font-size="2.0000" lengthAdjust="spacingAndGlyphs"
text-anchor="start" opacity="0"></text>
<g class="stroked-text"><desc></desc>
</g><text x="91.0072" y="106.7558"
textLength="0.4572" font-size="2.0000" lengthAdjust="spacingAndGlyphs"
text-anchor="start" opacity="0"></text>
<g class="stroked-text"><desc></desc>
</g><path d="M110.0072 129.5058
L110.0072 132.5058
" />
<path d="M174.0072 129.5058
L174.0072 136.0058
" />
<rect x="17.780000" y="50.800000" width="31.750000" height="20.320000" rx="0.000000" />
<rect x="17.780000" y="19.050000" width="31.750000" height="20.320000" rx="0.000000" />
<rect x="17.780000" y="50.800000" width="31.750000" height="20.320000" rx="0.000000" />
</g>
<g style="fill:none; 
stroke:#006464; stroke-width:0.1524; stroke-opacity:1; 
stroke-linecap:round; stroke-linejoin:round;">
<text x="17.7800" y="50.0884"
textLength="10.3026" font-size="1.6933" lengthAdjust="spacingAndGlyphs"
text-anchor="start" opacity="0">Capacitors</text>
<g class="stroked-text"><desc>Capacitors</desc>
<path d="M18.9082 49.8040
L18.8478 49.8645
" />
<path d="M18.8478 49.8645
L18.6663 49.9249
" />
<path d="M18.6663 49.9249
L18.5454 49.9249
" />
<path d="M18.5454 49.9249
L18.3640 49.8645
" />
<path d="M18.3640 49.8645
L18.2430 49.7435
" />
<path d="M18.2430 49.7435
L18.1825 49.6225
" />
<path d="M18.1825 49.6225
L18.1221 49.3806
" />
<path d="M18.1221 49.3806
L18.1221 49.1992
" />
<path d="M18.1221 49.1992
L18.1825 48.9573
" />
<path d="M18.1825 48.9573
L18.2430 48.8364
" />
<path d="M18.2430 48.8364
L18.3640 48.7154
" />
<path d="M18.3640 48.7154
L18.5454 48.6549
" />
<path d="M18.5454 48.6549
L18.6663 48.6549
" />
<path d="M18.6663 48.6549
L18.8478 48.7154
" />
<path d="M18.8478 48.7154
L18.9082 48.7759
" />
<path d="M19.9968 49.9249
L19.9968 49.2597
" />
<path d="M19.9968 49.2597
L19.9363 49.1387
" />
<path d="M19.9363 49.1387
L19.8154 49.0783
" />
<path d="M19.8154 49.0783
L19.5735 49.0783
" />
<path d="M19.5735 49.0783
L19.4525 49.1387
" />
<path d="M19.9968 49.8645
L19.8759 49.9249
" />
<path d="M19.8759 49.9249
L19.5735 49.9249
" />
<path d="M19.5735 49.9249
L19.4525 49.8645
" />
<path d="M19.4525 49.8645
L19.3921 49.7435
" />
<path d="M19.3921 49.7435
L19.3921 49.6225
" />
<path d="M19.3921 49.6225
L19.4525 49.5016
" />
<path d="M19.4525 49.5016
L19.5735 49.4411
" />
<path d="M19.5735 49.4411
L19.8759 49.4411
" />
<path d="M19.8759 49.4411
L19.9968 49.3806
" />
<path d="M20.6015 49.0783
L20.6015 50.3483
" />
<path d="M20.6015 49.1387
L20.7225 49.0783
" />
<path d="M20.7225 49.0783
L20.9644 49.0783
" />
<path d="M20.9644 49.0783
L21.0853 49.1387
" />
<path d="M21.0853 49.1387
L21.1458 49.1992
" />
<path d="M21.1458 49.1992
L21.2063 49.3202
" />
<path d="M21.2063 49.3202
L21.2063 49.6830
" />
<path d="M21.2063 49.6830
L21.1458 49.8040
" />
<path d="M21.1458 49.8040
L21.0853 49.8645
" />
<path d="M21.0853 49.8645
L20.9644 49.9249
" />
<path d="M20.9644 49.9249
L20.7225 49.9249
" />
<path d="M20.7225 49.9249
L20.6015 49.8645
" />
<path d="M22.2948 49.9249
L22.2948 49.2597
" />
<path d="M22.2948 49.2597
L22.2343 49.1387
" />
<path d="M22.2343 49.1387
L22.1134 49.0783
" />
<path d="M22.1134 49.0783
L21.8715 49.0783
" />
<path d="M21.8715 49.0783
L21.7505 49.1387
" />
<path d="M22.2948 49.8645
L22.1739 49.9249
" />
<path d="M22.1739 49.9249
L21.8715 49.9249
" />
<path d="M21.8715 49.9249
L21.7505 49.8645
" />
<path d="M21.7505 49.8645
L21.6901 49.7435
" />
<path d="M21.6901 49.7435
L21.6901 49.6225
" />
<path d="M21.6901 49.6225
L21.7505 49.5016
" />
<path d="M21.7505 49.5016
L21.8715 49.4411
" />
<path d="M21.8715 49.4411
L22.1739 49.4411
" />
<path d="M22.1739 49.4411
L22.2948 49.3806
" />
<path d="M23.4438 49.8645
L23.3229 49.9249
" />
<path d="M23.3229 49.9249
L23.0810 49.9249
" />
<path d="M23.0810 49.9249
L22.9600 49.8645
" />
<path d="M22.9600 49.8645
L22.8995 49.8040
" />
<path d="M22.8995 49.8040
L22.8391 49.6830
" />
<path d="M22.8391 49.6830
L22.8391 49.3202
" />
<path d="M22.8391 49.3202
L22.8995 49.1992
" />
<path d="M22.8995 49.1992
L22.9600 49.1387
" />
<path d="M22.9600 49.1387
L23.0810 49.0783
" />
<path d="M23.0810 49.0783
L23.3229 49.0783
" />
<path d="M23.3229 49.0783
L23.4438 49.1387
" />
<path d="M23.9881 49.9249
L23.9881 49.0783
" />
<path d="M23.9881 48.6549
L23.9277 48.7154
" />
<path d="M23.9277 48.7154
L23.9881 48.7759
" />
<path d="M23.9881 48.7759
L24.0486 48.7154
" />
<path d="M24.0486 48.7154
L23.9881 48.6549
" />
<path d="M23.9881 48.6549
L23.9881 48.7759
" />
<path d="M24.4115 49.0783
L24.8953 49.0783
" />
<path d="M24.5929 48.6549
L24.5929 49.7435
" />
<path d="M24.5929 49.7435
L24.6534 49.8645
" />
<path d="M24.6534 49.8645
L24.7744 49.9249
" />
<path d="M24.7744 49.9249
L24.8953 49.9249
" />
<path d="M25.5001 49.9249
L25.3791 49.8645
" />
<path d="M25.3791 49.8645
L25.3186 49.8040
" />
<path d="M25.3186 49.8040
L25.2582 49.6830
" />
<path d="M25.2582 49.6830
L25.2582 49.3202
" />
<path d="M25.2582 49.3202
L25.3186 49.1992
" />
<path d="M25.3186 49.1992
L25.3791 49.1387
" />
<path d="M25.3791 49.1387
L25.5001 49.0783
" />
<path d="M25.5001 49.0783
L25.6815 49.0783
" />
<path d="M25.6815 49.0783
L25.8024 49.1387
" />
<path d="M25.8024 49.1387
L25.8629 49.1992
" />
<path d="M25.8629 49.1992
L25.9234 49.3202
" />
<path d="M25.9234 49.3202
L25.9234 49.6830
" />
<path d="M25.9234 49.6830
L25.8629 49.8040
" />
<path d="M25.8629 49.8040
L25.8024 49.8645
" />
<path d="M25.8024 49.8645
L25.6815 49.9249
" />
<path d="M25.6815 49.9249
L25.5001 49.9249
" />
<path d="M26.4676 49.9249
L26.4676 49.0783
" />
<path d="M26.4676 49.3202
L26.5281 49.1992
" />
<path d="M26.5281 49.1992
L26.5886 49.1387
" />
<path d="M26.5886 49.1387
L26.7095 49.0783
" />
<path d="M26.7095 49.0783
L26.8305 49.0783
" />
<path d="M27.1934 49.8645
L27.3143 49.9249
" />
<path d="M27.3143 49.9249
L27.5562 49.9249
" />
<path d="M27.5562 49.9249
L27.6772 49.8645
" />
<path d="M27.6772 49.8645
L27.7376 49.7435
" />
<path d="M27.7376 49.7435
L27.7376 49.6830
" />
<path d="M27.7376 49.6830
L27.6772 49.5621
" />
<path d="M27.6772 49.5621
L27.5562 49.5016
" />
<path d="M27.5562 49.5016
L27.3748 49.5016
" />
<path d="M27.3748 49.5016
L27.2538 49.4411
" />
<path d="M27.2538 49.4411
L27.1934 49.3202
" />
<path d="M27.1934 49.3202
L27.1934 49.2597
" />
<path d="M27.1934 49.2597
L27.2538 49.1387
" />
<path d="M27.2538 49.1387
L27.3748 49.0783
" />
<path d="M27.3748 49.0783
L27.5562 49.0783
" />
<path d="M27.5562 49.0783
L27.6772 49.1387
" />
</g></g>
<g style="fill:none; 
stroke:#725600; stroke-width:0.1524; stroke-opacity:1; 
stroke-linecap:round; stroke-linejoin:round;">
<text x="17.7800" y="72.9746"
textLength="25.1798" font-size="1.6933" lengthAdjust="spacingAndGlyphs"
text-anchor="start" opacity="0">File: Capacitors.kicad_sch</text>
<g class="stroked-text"><desc>File: Capacitors.kicad_sch</desc>
<path d="M18.6059 72.3618
L18.1825 72.3618
" />
<path d="M18.1825 73.0270
L18.1825 71.7570
" />
<path d="M18.1825 71.7570
L18.7873 71.7570
" />
<path d="M19.2711 73.0270
L19.2711 72.1804
" />
<path d="M19.2711 71.7570
L19.2107 71.8175
" />
<path d="M19.2107 71.8175
L19.2711 71.8780
" />
<path d="M19.2711 71.8780
L19.3316 71.8175
" />
<path d="M19.3316 71.8175
L19.2711 71.7570
" />
<path d="M19.2711 71.7570
L19.2711 71.8780
" />
<path d="M20.0574 73.0270
L19.9364 72.9666
" />
<path d="M19.9364 72.9666
L19.8759 72.8456
" />
<path d="M19.8759 72.8456
L19.8759 71.7570
" />
<path d="M21.0249 72.9666
L20.9040 73.0270
" />
<path d="M20.9040 73.0270
L20.6621 73.0270
" />
<path d="M20.6621 73.0270
L20.5411 72.9666
" />
<path d="M20.5411 72.9666
L20.4807 72.8456
" />
<path d="M20.4807 72.8456
L20.4807 72.3618
" />
<path d="M20.4807 72.3618
L20.5411 72.2408
" />
<path d="M20.5411 72.2408
L20.6621 72.1804
" />
<path d="M20.6621 72.1804
L20.9040 72.1804
" />
<path d="M20.9040 72.1804
L21.0249 72.2408
" />
<path d="M21.0249 72.2408
L21.0854 72.3618
" />
<path d="M21.0854 72.3618
L21.0854 72.4827
" />
<path d="M21.0854 72.4827
L20.4807 72.6037
" />
<path d="M21.6297 72.9061
L21.6902 72.9666
" />
<path d="M21.6902 72.9666
L21.6297 73.0270
" />
<path d="M21.6297 73.0270
L21.5693 72.9666
" />
<path d="M21.5693 72.9666
L21.6297 72.9061
" />
<path d="M21.6297 72.9061
L21.6297 73.0270
" />
<path d="M21.6297 72.2408
L21.6902 72.3013
" />
<path d="M21.6902 72.3013
L21.6297 72.3618
" />
<path d="M21.6297 72.3618
L21.5693 72.3013
" />
<path d="M21.5693 72.3013
L21.6297 72.2408
" />
<path d="M21.6297 72.2408
L21.6297 72.3618
" />
<path d="M23.9278 72.9061
L23.8674 72.9666
" />
<path d="M23.8674 72.9666
L23.6859 73.0270
" />
<path d="M23.6859 73.0270
L23.5650 73.0270
" />
<path d="M23.5650 73.0270
L23.3836 72.9666
" />
<path d="M23.3836 72.9666
L23.2626 72.8456
" />
<path d="M23.2626 72.8456
L23.2021 72.7246
" />
<path d="M23.2021 72.7246
L23.1417 72.4827
" />
<path d="M23.1417 72.4827
L23.1417 72.3013
" />
<path d="M23.1417 72.3013
L23.2021 72.0594
" />
<path d="M23.2021 72.0594
L23.2626 71.9385
" />
<path d="M23.2626 71.9385
L23.3836 71.8175
" />
<path d="M23.3836 71.8175
L23.5650 71.7570
" />
<path d="M23.5650 71.7570
L23.6859 71.7570
" />
<path d="M23.6859 71.7570
L23.8674 71.8175
" />
<path d="M23.8674 71.8175
L23.9278 71.8780
" />
<path d="M25.0164 73.0270
L25.0164 72.3618
" />
<path d="M25.0164 72.3618
L24.9559 72.2408
" />
<path d="M24.9559 72.2408
L24.8350 72.1804
" />
<path d="M24.8350 72.1804
L24.5931 72.1804
" />
<path d="M24.5931 72.1804
L24.4721 72.2408
" />
<path d="M25.0164 72.9666
L24.8955 73.0270
" />
<path d="M24.8955 73.0270
L24.5931 73.0270
" />
<path d="M24.5931 73.0270
L24.4721 72.9666
" />
<path d="M24.4721 72.9666
L24.4117 72.8456
" />
<path d="M24.4117 72.8456
L24.4117 72.7246
" />
<path d="M24.4117 72.7246
L24.4721 72.6037
" />
<path d="M24.4721 72.6037
L24.5931 72.5432
" />
<path d="M24.5931 72.5432
L24.8955 72.5432
" />
<path d="M24.8955 72.5432
L25.0164 72.4827
" />
<path d="M25.6211 72.1804
L25.6211 73.4504
" />
<path d="M25.6211 72.2408
L25.7421 72.1804
" />
<path d="M25.7421 72.1804
L25.9840 72.1804
" />
<path d="M25.9840 72.1804
L26.1049 72.2408
" />
<path d="M26.1049 72.2408
L26.1654 72.3013
" />
<path d="M26.1654 72.3013
L26.2259 72.4223
" />
<path d="M26.2259 72.4223
L26.2259 72.7851
" />
<path d="M26.2259 72.7851
L26.1654 72.9061
" />
<path d="M26.1654 72.9061
L26.1049 72.9666
" />
<path d="M26.1049 72.9666
L25.9840 73.0270
" />
<path d="M25.9840 73.0270
L25.7421 73.0270
" />
<path d="M25.7421 73.0270
L25.6211 72.9666
" />
<path d="M27.3144 73.0270
L27.3144 72.3618
" />
<path d="M27.3144 72.3618
L27.2539 72.2408
" />
<path d="M27.2539 72.2408
L27.1330 72.1804
" />
<path d="M27.1330 72.1804
L26.8911 72.1804
" />
<path d="M26.8911 72.1804
L26.7701 72.2408
" />
<path d="M27.3144 72.9666
L27.1935 73.0270
" />
<path d="M27.1935 73.0270
L26.8911 73.0270
" />
<path d="M26.8911 73.0270
L26.7701 72.9666
" />
<path d="M26.7701 72.9666
L26.7097 72.8456
" />
<path d="M26.7097 72.8456
L26.7097 72.7246
" />
<path d="M26.7097 72.7246
L26.7701 72.6037
" />
<path d="M26.7701 72.6037
L26.8911 72.5432
" />
<path d="M26.8911 72.5432
L27.1935 72.5432
" />
<path d="M27.1935 72.5432
L27.3144 72.4827
" />
<path d="M28.4634 72.9666
L28.3425 73.0270
" />
<path d="M28.3425 73.0270
L28.1006 73.0270
" />
<path d="M28.1006 73.0270
L27.9796 72.9666
" />
<path d="M27.9796 72.9666
L27.9191 72.9061
" />
<path d="M27.9191 72.9061
L27.8587 72.7851
" />
<path d="M27.8587 72.7851
L27.8587 72.4223
" />
<path d="M27.8587 72.4223
L27.9191 72.3013
" />
<path d="M27.9191 72.3013
L27.9796 72.2408
" />
<path d="M27.9796 72.2408
L28.1006 72.1804
" />
<path d="M28.1006 72.1804
L28.3425 72.1804
" />
<path d="M28.3425 72.1804
L28.4634 72.2408
" />
<path d="M29.0077 73.0270
L29.0077 72.1804
" />
<path d="M29.0077 71.7570
L28.9473 71.8175
" />
<path d="M28.9473 71.8175
L29.0077 71.8780
" />
<path d="M29.0077 71.8780
L29.0682 71.8175
" />
<path d="M29.0682 71.8175
L29.0077 71.7570
" />
<path d="M29.0077 71.7570
L29.0077 71.8780
" />
<path d="M29.4311 72.1804
L29.9149 72.1804
" />
<path d="M29.6125 71.7570
L29.6125 72.8456
" />
<path d="M29.6125 72.8456
L29.6730 72.9666
" />
<path d="M29.6730 72.9666
L29.7940 73.0270
" />
<path d="M29.7940 73.0270
L29.9149 73.0270
" />
<path d="M30.5197 73.0270
L30.3987 72.9666
" />
<path d="M30.3987 72.9666
L30.3382 72.9061
" />
<path d="M30.3382 72.9061
L30.2778 72.7851
" />
<path d="M30.2778 72.7851
L30.2778 72.4223
" />
<path d="M30.2778 72.4223
L30.3382 72.3013
" />
<path d="M30.3382 72.3013
L30.3987 72.2408
" />
<path d="M30.3987 72.2408
L30.5197 72.1804
" />
<path d="M30.5197 72.1804
L30.7011 72.1804
" />
<path d="M30.7011 72.1804
L30.8220 72.2408
" />
<path d="M30.8220 72.2408
L30.8825 72.3013
" />
<path d="M30.8825 72.3013
L30.9430 72.4223
" />
<path d="M30.9430 72.4223
L30.9430 72.7851
" />
<path d="M30.9430 72.7851
L30.8825 72.9061
" />
<path d="M30.8825 72.9061
L30.8220 72.9666
" />
<path d="M30.8220 72.9666
L30.7011 73.0270
" />
<path d="M30.7011 73.0270
L30.5197 73.0270
" />
<path d="M31.4872 73.0270
L31.4872 72.1804
" />
<path d="M31.4872 72.4223
L31.5477 72.3013
" />
<path d="M31.5477 72.3013
L31.6082 72.2408
" />
<path d="M31.6082 72.2408
L31.7291 72.1804
" />
<path d="M31.7291 72.1804
L31.8501 72.1804
" />
<path d="M32.2130 72.9666
L32.3339 73.0270
" />
<path d="M32.3339 73.0270
L32.5758 73.0270
" />
<path d="M32.5758 73.0270
L32.6968 72.9666
" />
<path d="M32.6968 72.9666
L32.7572 72.8456
" />
<path d="M32.7572 72.8456
L32.7572 72.7851
" />
<path d="M32.7572 72.7851
L32.6968 72.6642
" />
<path d="M32.6968 72.6642
L32.5758 72.6037
" />
<path d="M32.5758 72.6037
L32.3944 72.6037
" />
<path d="M32.3944 72.6037
L32.2734 72.5432
" />
<path d="M32.2734 72.5432
L32.2130 72.4223
" />
<path d="M32.2130 72.4223
L32.2130 72.3618
" />
<path d="M32.2130 72.3618
L32.2734 72.2408
" />
<path d="M32.2734 72.2408
L32.3944 72.1804
" />
<path d="M32.3944 72.1804
L32.5758 72.1804
" />
<path d="M32.5758 72.1804
L32.6968 72.2408
" />
<path d="M33.3015 72.9061
L33.3620 72.9666
" />
<path d="M33.3620 72.9666
L33.3015 73.0270
" />
<path d="M33.3015 73.0270
L33.2411 72.9666
" />
<path d="M33.2411 72.9666
L33.3015 72.9061
" />
<path d="M33.3015 72.9061
L33.3015 73.0270
" />
<path d="M33.9063 73.0270
L33.9063 71.7570
" />
<path d="M34.0273 72.5432
L34.3901 73.0270
" />
<path d="M34.3901 72.1804
L33.9063 72.6642
" />
<path d="M34.9344 73.0270
L34.9344 72.1804
" />
<path d="M34.9344 71.7570
L34.8740 71.8175
" />
<path d="M34.8740 71.8175
L34.9344 71.8780
" />
<path d="M34.9344 71.8780
L34.9949 71.8175
" />
<path d="M34.9949 71.8175
L34.9344 71.7570
" />
<path d="M34.9344 71.7570
L34.9344 71.8780
" />
<path d="M36.0835 72.9666
L35.9626 73.0270
" />
<path d="M35.9626 73.0270
L35.7207 73.0270
" />
<path d="M35.7207 73.0270
L35.5997 72.9666
" />
<path d="M35.5997 72.9666
L35.5392 72.9061
" />
<path d="M35.5392 72.9061
L35.4788 72.7851
" />
<path d="M35.4788 72.7851
L35.4788 72.4223
" />
<path d="M35.4788 72.4223
L35.5392 72.3013
" />
<path d="M35.5392 72.3013
L35.5997 72.2408
" />
<path d="M35.5997 72.2408
L35.7207 72.1804
" />
<path d="M35.7207 72.1804
L35.9626 72.1804
" />
<path d="M35.9626 72.1804
L36.0835 72.2408
" />
<path d="M37.1721 73.0270
L37.1721 72.3618
" />
<path d="M37.1721 72.3618
L37.1116 72.2408
" />
<path d="M37.1116 72.2408
L36.9907 72.1804
" />
<path d="M36.9907 72.1804
L36.7488 72.1804
" />
<path d="M36.7488 72.1804
L36.6278 72.2408
" />
<path d="M37.1721 72.9666
L37.0512 73.0270
" />
<path d="M37.0512 73.0270
L36.7488 73.0270
" />
<path d="M36.7488 73.0270
L36.6278 72.9666
" />
<path d="M36.6278 72.9666
L36.5674 72.8456
" />
<path d="M36.5674 72.8456
L36.5674 72.7246
" />
<path d="M36.5674 72.7246
L36.6278 72.6037
" />
<path d="M36.6278 72.6037
L36.7488 72.5432
" />
<path d="M36.7488 72.5432
L37.0512 72.5432
" />
<path d="M37.0512 72.5432
L37.1721 72.4827
" />
<path d="M38.3211 73.0270
L38.3211 71.7570
" />
<path d="M38.3211 72.9666
L38.2002 73.0270
" />
<path d="M38.2002 73.0270
L37.9583 73.0270
" />
<path d="M37.9583 73.0270
L37.8373 72.9666
" />
<path d="M37.8373 72.9666
L37.7768 72.9061
" />
<path d="M37.7768 72.9061
L37.7164 72.7851
" />
<path d="M37.7164 72.7851
L37.7164 72.4223
" />
<path d="M37.7164 72.4223
L37.7768 72.3013
" />
<path d="M37.7768 72.3013
L37.8373 72.2408
" />
<path d="M37.8373 72.2408
L37.9583 72.1804
" />
<path d="M37.9583 72.1804
L38.2002 72.1804
" />
<path d="M38.2002 72.1804
L38.3211 72.2408
" />
<path d="M38.6235 73.1480
L39.5911 73.1480
" />
<path d="M39.8330 72.9666
L39.9539 73.0270
" />
<path d="M39.9539 73.0270
L40.1958 73.0270
" />
<path d="M40.1958 73.0270
L40.3168 72.9666
" />
<path d="M40.3168 72.9666
L40.3772 72.8456
" />
<path d="M40.3772 72.8456
L40.3772 72.7851
" />
<path d="M40.3772 72.7851
L40.3168 72.6642
" />
<path d="M40.3168 72.6642
L40.1958 72.6037
" />
<path d="M40.1958 72.6037
L40.0144 72.6037
" />
<path d="M40.0144 72.6037
L39.8934 72.5432
" />
<path d="M39.8934 72.5432
L39.8330 72.4223
" />
<path d="M39.8330 72.4223
L39.8330 72.3618
" />
<path d="M39.8330 72.3618
L39.8934 72.2408
" />
<path d="M39.8934 72.2408
L40.0144 72.1804
" />
<path d="M40.0144 72.1804
L40.1958 72.1804
" />
<path d="M40.1958 72.1804
L40.3168 72.2408
" />
<path d="M41.4658 72.9666
L41.3449 73.0270
" />
<path d="M41.3449 73.0270
L41.1030 73.0270
" />
<path d="M41.1030 73.0270
L40.9820 72.9666
" />
<path d="M40.9820 72.9666
L40.9215 72.9061
" />
<path d="M40.9215 72.9061
L40.8611 72.7851
" />
<path d="M40.8611 72.7851
L40.8611 72.4223
" />
<path d="M40.8611 72.4223
L40.9215 72.3013
" />
<path d="M40.9215 72.3013
L40.9820 72.2408
" />
<path d="M40.9820 72.2408
L41.1030 72.1804
" />
<path d="M41.1030 72.1804
L41.3449 72.1804
" />
<path d="M41.3449 72.1804
L41.4658 72.2408
" />
<path d="M42.0101 73.0270
L42.0101 71.7570
" />
<path d="M42.5544 73.0270
L42.5544 72.3618
" />
<path d="M42.5544 72.3618
L42.4939 72.2408
" />
<path d="M42.4939 72.2408
L42.3730 72.1804
" />
<path d="M42.3730 72.1804
L42.1916 72.1804
" />
<path d="M42.1916 72.1804
L42.0706 72.2408
" />
<path d="M42.0706 72.2408
L42.0101 72.3013
" />
</g></g>
<g style="fill:none; 
stroke:#840000; stroke-width:0.1524; stroke-opacity:1; 
stroke-linecap:round; stroke-linejoin:round;">
<rect x="17.780000" y="19.050000" width="31.750000" height="20.320000" rx="0.000000" />
</g>
<g style="fill:none; 
stroke:#006464; stroke-width:0.1524; stroke-opacity:1; 
stroke-linecap:round; stroke-linejoin:round;">
<text x="17.7800" y="18.3384"
textLength="4.6784" font-size="1.6933" lengthAdjust="spacingAndGlyphs"
text-anchor="start" opacity="0">LEDs</text>
<g class="stroked-text"><desc>LEDs</desc>
<path d="M18.7873 18.1749
L18.1825 18.1749
" />
<path d="M18.1825 18.1749
L18.1825 16.9049
" />
<path d="M19.2106 17.5097
L19.6340 17.5097
" />
<path d="M19.8154 18.1749
L19.2106 18.1749
" />
<path d="M19.2106 18.1749
L19.2106 16.9049
" />
<path d="M19.2106 16.9049
L19.8154 16.9049
" />
<path d="M20.3596 18.1749
L20.3596 16.9049
" />
<path d="M20.3596 16.9049
L20.6620 16.9049
" />
<path d="M20.6620 16.9049
L20.8434 16.9654
" />
<path d="M20.8434 16.9654
L20.9644 17.0864
" />
<path d="M20.9644 17.0864
L21.0249 17.2073
" />
<path d="M21.0249 17.2073
L21.0853 17.4492
" />
<path d="M21.0853 17.4492
L21.0853 17.6306
" />
<path d="M21.0853 17.6306
L21.0249 17.8725
" />
<path d="M21.0249 17.8725
L20.9644 17.9935
" />
<path d="M20.9644 17.9935
L20.8434 18.1145
" />
<path d="M20.8434 18.1145
L20.6620 18.1749
" />
<path d="M20.6620 18.1749
L20.3596 18.1749
" />
<path d="M21.5692 18.1145
L21.6901 18.1749
" />
<path d="M21.6901 18.1749
L21.9320 18.1749
" />
<path d="M21.9320 18.1749
L22.0530 18.1145
" />
<path d="M22.0530 18.1145
L22.1134 17.9935
" />
<path d="M22.1134 17.9935
L22.1134 17.9330
" />
<path d="M22.1134 17.9330
L22.0530 17.8121
" />
<path d="M22.0530 17.8121
L21.9320 17.7516
" />
<path d="M21.9320 17.7516
L21.7506 17.7516
" />
<path d="M21.7506 17.7516
L21.6296 17.6911
" />
<path d="M21.6296 17.6911
L21.5692 17.5702
" />
<path d="M21.5692 17.5702
L21.5692 17.5097
" />
<path d="M21.5692 17.5097
L21.6296 17.3887
" />
<path d="M21.6296 17.3887
L21.7506 17.3283
" />
<path d="M21.7506 17.3283
L21.9320 17.3283
" />
<path d="M21.9320 17.3283
L22.0530 17.3887
" />
</g></g>
<g style="fill:none; 
stroke:#725600; stroke-width:0.1524; stroke-opacity:1; 
stroke-linecap:round; stroke-linejoin:round;">
<text x="17.7800" y="41.2246"
textLength="19.5556" font-size="1.6933" lengthAdjust="spacingAndGlyphs"
text-anchor="start" opacity="0">File: LEDs.kicad_sch</text>
<g class="stroked-text"><desc>File: LEDs.kicad_sch</desc>
<path d="M18.6059 40.6118
L18.1825 40.6118
" />
<path d="M18.1825 41.2770
L18.1825 40.0070
" />
<path d="M18.1825 40.0070
L18.7873 40.0070
" />
<path d="M19.2711 41.2770
L19.2711 40.4304
" />
<path d="M19.2711 40.0070
L19.2107 40.0675
" />
<path d="M19.2107 40.0675
L19.2711 40.1280
" />
<path d="M19.2711 40.1280
L19.3316 40.0675
" />
<path d="M19.3316 40.0675
L19.2711 40.0070
" />
<path d="M19.2711 40.0070
L19.2711 40.1280
" />
<path d="M20.0574 41.2770
L19.9364 41.2166
" />
<path d="M19.9364 41.2166
L19.8759 41.0956
" />
<path d="M19.8759 41.0956
L19.8759 40.0070
" />
<path d="M21.0249 41.2166
L20.9040 41.2770
" />
<path d="M20.9040 41.2770
L20.6621 41.2770
" />
<path d="M20.6621 41.2770
L20.5411 41.2166
" />
<path d="M20.5411 41.2166
L20.4807 41.0956
" />
<path d="M20.4807 41.0956
L20.4807 40.6118
" />
<path d="M20.4807 40.6118
L20.5411 40.4908
" />
<path d="M20.5411 40.4908
L20.6621 40.4304
" />
<path d="M20.6621 40.4304
L20.9040 40.4304
" />
<path d="M20.9040 40.4304
L21.0249 40.4908
" />
<path d="M21.0249 40.4908
L21.0854 40.6118
" />
<path d="M21.0854 40.6118
L21.0854 40.7327
" />
<path d="M21.0854 40.7327
L20.4807 40.8537
" />
<path d="M21.6297 41.1561
L21.6902 41.2166
" />
<path d="M21.6902 41.2166
L21.6297 41.2770
" />
<path d="M21.6297 41.2770
L21.5693 41.2166
" />
<path d="M21.5693 41.2166
L21.6297 41.1561
" />
<path d="M21.6297 41.1561
L21.6297 41.2770
" />
<path d="M21.6297 40.4908
L21.6902 40.5513
" />
<path d="M21.6902 40.5513
L21.6297 40.6118
" />
<path d="M21.6297 40.6118
L21.5693 40.5513
" />
<path d="M21.5693 40.5513
L21.6297 40.4908
" />
<path d="M21.6297 40.4908
L21.6297 40.6118
" />
<path d="M23.8069 41.2770
L23.2021 41.2770
" />
<path d="M23.2021 41.2770
L23.2021 40.0070
" />
<path d="M24.2302 40.6118
L24.6536 40.6118
" />
<path d="M24.8350 41.2770
L24.2302 41.2770
" />
<path d="M24.2302 41.2770
L24.2302 40.0070
" />
<path d="M24.2302 40.0070
L24.8350 40.0070
" />
<path d="M25.3792 41.2770
L25.3792 40.0070
" />
<path d="M25.3792 40.0070
L25.6816 40.0070
" />
<path d="M25.6816 40.0070
L25.8630 40.0675
" />
<path d="M25.8630 40.0675
L25.9840 40.1885
" />
<path d="M25.9840 40.1885
L26.0445 40.3094
" />
<path d="M26.0445 40.3094
L26.1049 40.5513
" />
<path d="M26.1049 40.5513
L26.1049 40.7327
" />
<path d="M26.1049 40.7327
L26.0445 40.9746
" />
<path d="M26.0445 40.9746
L25.9840 41.0956
" />
<path d="M25.9840 41.0956
L25.8630 41.2166
" />
<path d="M25.8630 41.2166
L25.6816 41.2770
" />
<path d="M25.6816 41.2770
L25.3792 41.2770
" />
<path d="M26.5888 41.2166
L26.7097 41.2770
" />
<path d="M26.7097 41.2770
L26.9516 41.2770
" />
<path d="M26.9516 41.2770
L27.0726 41.2166
" />
<path d="M27.0726 41.2166
L27.1330 41.0956
" />
<path d="M27.1330 41.0956
L27.1330 41.0351
" />
<path d="M27.1330 41.0351
L27.0726 40.9142
" />
<path d="M27.0726 40.9142
L26.9516 40.8537
" />
<path d="M26.9516 40.8537
L26.7702 40.8537
" />
<path d="M26.7702 40.8537
L26.6492 40.7932
" />
<path d="M26.6492 40.7932
L26.5888 40.6723
" />
<path d="M26.5888 40.6723
L26.5888 40.6118
" />
<path d="M26.5888 40.6118
L26.6492 40.4908
" />
<path d="M26.6492 40.4908
L26.7702 40.4304
" />
<path d="M26.7702 40.4304
L26.9516 40.4304
" />
<path d="M26.9516 40.4304
L27.0726 40.4908
" />
<path d="M27.6773 41.1561
L27.7378 41.2166
" />
<path d="M27.7378 41.2166
L27.6773 41.2770
" />
<path d="M27.6773 41.2770
L27.6169 41.2166
" />
<path d="M27.6169 41.2166
L27.6773 41.1561
" />
<path d="M27.6773 41.1561
L27.6773 41.2770
" />
<path d="M28.2821 41.2770
L28.2821 40.0070
" />
<path d="M28.4031 40.7932
L28.7659 41.2770
" />
<path d="M28.7659 40.4304
L28.2821 40.9142
" />
<path d="M29.3102 41.2770
L29.3102 40.4304
" />
<path d="M29.3102 40.0070
L29.2498 40.0675
" />
<path d="M29.2498 40.0675
L29.3102 40.1280
" />
<path d="M29.3102 40.1280
L29.3707 40.0675
" />
<path d="M29.3707 40.0675
L29.3102 40.0070
" />
<path d="M29.3102 40.0070
L29.3102 40.1280
" />
<path d="M30.4593 41.2166
L30.3384 41.2770
" />
<path d="M30.3384 41.2770
L30.0965 41.2770
" />
<path d="M30.0965 41.2770
L29.9755 41.2166
" />
<path d="M29.9755 41.2166
L29.9150 41.1561
" />
<path d="M29.9150 41.1561
L29.8546 41.0351
" />
<path d="M29.8546 41.0351
L29.8546 40.6723
" />
<path d="M29.8546 40.6723
L29.9150 40.5513
" />
<path d="M29.9150 40.5513
L29.9755 40.4908
" />
<path d="M29.9755 40.4908
L30.0965 40.4304
" />
<path d="M30.0965 40.4304
L30.3384 40.4304
" />
<path d="M30.3384 40.4304
L30.4593 40.4908
" />
<path d="M31.5479 41.2770
L31.5479 40.6118
" />
<path d="M31.5479 40.6118
L31.4874 40.4908
" />
<path d="M31.4874 40.4908
L31.3665 40.4304
" />
<path d="M31.3665 40.4304
L31.1246 40.4304
" />
<path d="M31.1246 40.4304
L31.0036 40.4908
" />
<path d="M31.5479 41.2166
L31.4270 41.2770
" />
<path d="M31.4270 41.2770
L31.1246 41.2770
" />
<path d="M31.1246 41.2770
L31.0036 41.2166
" />
<path d="M31.0036 41.2166
L30.9432 41.0956
" />
<path d="M30.9432 41.0956
L30.9432 40.9746
" />
<path d="M30.9432 40.9746
L31.0036 40.8537
" />
<path d="M31.0036 40.8537
L31.1246 40.7932
" />
<path d="M31.1246 40.7932
L31.4270 40.7932
" />
<path d="M31.4270 40.7932
L31.5479 40.7327
" />
<path d="M32.6969 41.2770
L32.6969 40.0070
" />
<path d="M32.6969 41.2166
L32.5760 41.2770
" />
<path d="M32.5760 41.2770
L32.3341 41.2770
" />
<path d="M32.3341 41.2770
L32.2131 41.2166
" />
<path d="M32.2131 41.2166
L32.1526 41.1561
" />
<path d="M32.1526 41.1561
L32.0922 41.0351
" />
<path d="M32.0922 41.0351
L32.0922 40.6723
" />
<path d="M32.0922 40.6723
L32.1526 40.5513
" />
<path d="M32.1526 40.5513
L32.2131 40.4908
" />
<path d="M32.2131 40.4908
L32.3341 40.4304
" />
<path d="M32.3341 40.4304
L32.5760 40.4304
" />
<path d="M32.5760 40.4304
L32.6969 40.4908
" />
<path d="M32.9993 41.3980
L33.9669 41.3980
" />
<path d="M34.2088 41.2166
L34.3297 41.2770
" />
<path d="M34.3297 41.2770
L34.5716 41.2770
" />
<path d="M34.5716 41.2770
L34.6926 41.2166
" />
<path d="M34.6926 41.2166
L34.7530 41.0956
" />
<path d="M34.7530 41.0956
L34.7530 41.0351
" />
<path d="M34.7530 41.0351
L34.6926 40.9142
" />
<path d="M34.6926 40.9142
L34.5716 40.8537
" />
<path d="M34.5716 40.8537
L34.3902 40.8537
" />
<path d="M34.3902 40.8537
L34.2692 40.7932
" />
<path d="M34.2692 40.7932
L34.2088 40.6723
" />
<path d="M34.2088 40.6723
L34.2088 40.6118
" />
<path d="M34.2088 40.6118
L34.2692 40.4908
" />
<path d="M34.2692 40.4908
L34.3902 40.4304
" />
<path d="M34.3902 40.4304
L34.5716 40.4304
" />
<path d="M34.5716 40.4304
L34.6926 40.4908
" />
<path d="M35.8416 41.2166
L35.7207 41.2770
" />
<path d="M35.7207 41.2770
L35.4788 41.2770
" />
<path d="M35.4788 41.2770
L35.3578 41.2166
" />
<path d="M35.3578 41.2166
L35.2973 41.1561
" />
<path d="M35.2973 41.1561
L35.2369 41.0351
" />
<path d="M35.2369 41.0351
L35.2369 40.6723
" />
<path d="M35.2369 40.6723
L35.2973 40.5513
" />
<path d="M35.2973 40.5513
L35.3578 40.4908
" />
<path d="M35.3578 40.4908
L35.4788 40.4304
" />
<path d="M35.4788 40.4304
L35.7207 40.4304
" />
<path d="M35.7207 40.4304
L35.8416 40.4908
" />
<path d="M36.3859 41.2770
L36.3859 40.0070
" />
<path d="M36.9302 41.2770
L36.9302 40.6118
" />
<path d="M36.9302 40.6118
L36.8697 40.4908
" />
<path d="M36.8697 40.4908
L36.7488 40.4304
" />
<path d="M36.7488 40.4304
L36.5674 40.4304
" />
<path d="M36.5674 40.4304
L36.4464 40.4908
" />
<path d="M36.4464 40.4908
L36.3859 40.5513
" />
</g></g> 
</svg>
